M48
;Layer_Color=9474304
;FILE_FORMAT=4:4
METRIC,LZ
;TYPE=PLATED
T1F00S00C0.2000
T2F00S00C0.5000
T3F00S00C0.7112
T4F00S00C0.9000
;TYPE=NON_PLATED
T5F00S00C5.0000
%
T01
X013425Y0035925
X013535
Y0037025
Y0038125
X013425Y0038125
Y0037025
Y0039225
X013535
X015825
Y0038125
Y0037025
Y0035925
X015935
X016045
Y0037025
Y0038125
X015935Y0038125
Y0037025
Y0039225
X016045
X013315
Y0038125
Y0037025
Y0035925
X011025
X010915
X010805
Y0037025
Y0038125
Y0039225
X010915
X011025
Y0038125
Y0037025
X010915Y0037025
Y0038125
X008515Y0038125
Y0037025
X008405Y0037025
Y0038125
X008295Y0038125
Y0037025
Y0035925
X008405
X008515
Y0039225
X008405
X008295
X006005
X005895
X005785
Y0038125
Y0037025
Y0035925
X005895
X006005
Y0037025
Y0038125
X005895Y0038125
Y0037025
X003495Y0037025
Y0038125
X003385Y0038125
Y0037025
X003275Y0037025
Y0038125
Y0039225
X003385
X003495
Y0035925
X003385
X003275
T02
X0133425Y00229
X01362Y0022375
Y0023575
X014025Y0022825
X0140075Y00287
X0143275Y002935
X014255Y003295
X01362Y0031925
X013465Y0042075
X014435Y00425
X0144275Y0047325
X014925Y004975
X0155175Y005195
X0157325
X01594Y0051925
X016155Y0051975
X015975Y0042075
X016945Y00425
X0169375Y0047325
X016765Y003295
X0168375Y002935
X0165175Y00287
X016535Y0022825
X01613Y0022375
Y0023575
X0158525Y00229
X01527Y00226
X015335Y0027125
X0157725Y00326
X01613Y0031925
X015075Y0036
X013645Y0051975
X01343Y0051925
X0132225Y005195
X0130075
X012415Y004975
X0119175Y0047325
X011925Y00425
X010955Y0042075
X01092Y0051925
X0107125Y005195
X0104975
X011135Y0051975
X009905Y004975
X0094075Y0047325
X009415Y00425
X010055Y0036
X0107525Y00326
X01111Y0031925
X0114975Y00287
X0118175Y002935
X011745Y003295
X012565Y0036
X0132625Y00326
X012825Y0027125
X01276Y00226
X011515Y0022825
X01111Y0022375
Y0023575
X0108325Y00229
X01025Y00226
X010315Y0027125
X0093075Y002935
X0089875Y00287
X009005Y0022825
X0086Y0022375
Y0023575
X0083225Y00229
X00774Y00226
X007805Y0027125
X0082425Y00326
X0086Y0031925
X009235Y003295
X008445Y0042075
X00841Y0051925
X0082025Y005195
X0079875
X008625Y0051975
X007395Y004975
X0068975Y0047325
X006905Y00425
X005935Y0042075
X0059Y0051925
X0056925Y005195
X0054775
X006115Y0051975
X00609Y0031925
X0057325Y00326
X006725Y003295
X0067975Y002935
X0064775Y00287
X006495Y0022825
X00609Y0022375
Y0023575
X0058125Y00229
X007545Y0036
X005035
X004215Y003295
X0042875Y002935
X0039675Y00287
X003985Y0022825
X00358Y0022375
Y0023575
X0033025Y00229
X00272Y00226
X002785Y0027125
X0032225Y00326
X00358Y0031925
X003425Y0042075
X004395Y00425
X0043875Y0047325
X004885Y004975
X003605Y0051975
X00339Y0051925
X0031825Y005195
X0029675
X002375Y004975
X002525Y0036
X005295Y0027125
X00523Y00226
X0047775Y00657
X00477Y0068375
Y007145
Y00742
Y007735
X00505Y00795
X00428Y007425
X004125Y006955
Y0068475
X0041275Y0067375
X0043Y0065125
X0042725Y0061325
X0036025Y0065125
X003395Y006505
X003185Y0065025
X00297Y006505
X0022675Y00657
X00226Y0068375
Y007145
Y00742
Y007735
X00254Y00795
X00295Y00793
X003245Y00747
X003145Y0072475
X0033175Y0072175
X005655Y0072475
X0058275Y0072175
X005755Y00747
X00546Y00793
X00548Y006505
X005695Y0065025
X005905Y006505
X0061125Y0065125
X00681
X0066375Y0067375
X006635Y0068475
Y006955
X00679Y007425
X00728Y00742
Y007145
Y0068375
X0072875Y00657
X00799Y006505
X008205Y0065025
X008415Y006505
X0086225Y0065125
X00932
X0091475Y0067375
X009145Y0068475
Y006955
X0093Y007425
X008265Y00747
X008165Y0072475
X0083375Y0072175
X00797Y00793
X00756Y00795
X00728Y007735
X0067825Y0061325
X0092925
X0097975Y00657
X00979Y0068375
Y007145
Y00742
Y007735
X01007Y00795
X01048Y00793
X010775Y00747
X010675Y0072475
X0108475Y0072175
X010925Y006505
X010715Y0065025
X0105Y006505
X0111325Y0065125
X01183
X0116575Y0067375
X011655Y0068475
Y006955
X01181Y007425
X0123Y00742
Y007145
Y0068375
X0123075Y00657
X01301Y006505
X013225Y0065025
X013185Y0072475
X013285Y00747
X01299Y00793
X01258Y00795
X0123Y007735
X0118025Y0061325
X013435Y006505
X0136425Y0065125
X01434
X0141675Y0067375
X014165Y0068475
Y006955
X01432Y007425
X01481Y00742
Y007145
Y0068375
X0148175Y00657
X01552Y006505
X015735Y0065025
X015945Y006505
X0161525Y0065125
X01685
X0166775Y0067375
X016675Y0068475
Y006955
X01683Y007425
X015795Y00747
X015695Y0072475
X0158675Y0072175
X0155Y00793
X01509Y00795
X01481Y007735
X0133575Y0072175
X0143125Y0061325
X0168225
T03
X0140875Y003615
X014065Y00395
X0143375Y0038175
X01551Y0038425
X016575Y00395
X0165975Y003615
X0168475Y0038175
X0168325Y00531
X0143225
X0118125
X0118275Y0038175
X011555Y00395
X0115775Y003615
X01049Y0038425
X013
X0093175Y0038175
X009045Y00395
X0090675Y003615
X00798Y0038425
X0068075Y0038175
X006535Y00395
X0065575Y003615
X00547Y0038425
X0067925Y00531
X0093025
X0042825
X0042975Y0038175
X004025Y00395
X0040475Y003615
X00296Y0038425
X0041625Y005415
X0041575Y005635
X00428137Y00552363
X0066675Y005635
X0066725Y005415
X00679137Y00552363
X0091775Y005635
X0091825Y005415
X00930137Y00552363
X0116875Y005635
X0116925Y005415
X01181137Y00552363
X0141975Y005635
X0142025Y005415
X01432137Y00552363
X0167075Y005635
X0167125Y005415
X01683137Y00552363
T04
X0147Y002627
Y002881
Y003135
Y003389
Y003643
Y003897
Y004151
Y004405
Y004659
Y004913
Y005167
X01219
Y004913
Y004659
Y004405
Y004151
Y003897
Y003643
Y003389
Y003135
Y002881
Y002627
X00968
Y002881
Y003135
Y003389
Y003643
Y003897
Y004151
Y004405
Y004659
Y004913
Y005167
X00717
Y004913
Y004659
Y004405
Y004151
Y003897
Y003643
Y003389
Y003135
Y002881
Y002627
X00466
Y002881
Y003135
Y003389
Y003643
Y003897
Y004151
Y004405
Y004659
Y004913
Y005167
X00215
Y004913
Y004659
Y004405
Y004151
Y003897
Y003643
Y003389
Y003135
Y002881
Y002627
Y005421
Y005675
Y005929
Y006183
X00466
Y005929
Y005675
Y005421
X00717
Y005675
Y005929
Y006183
X00968
Y005929
Y005675
Y005421
X01219
Y005675
Y005929
Y006183
X0147
Y005929
Y005675
Y005421
T05
X001Y001
X01805
X001Y00926
X01805
M30
