M48
;Layer_Color=9474304
;FILE_FORMAT=4:4
METRIC,LZ
;TYPE=PLATED
T1F00S00C0.2000
T2F00S00C0.5000
T3F00S00C0.7112
T4F00S00C0.9000
%
T01
X001275Y0015925
X001385
X001495
Y0017025
Y0018125
Y0019225
X001385
X001275
Y0018125
Y0017025
X001385Y0017025
Y0018125
T02
X0014975Y000145
X001615
X001525Y0002425
X001495Y00034
X00152Y000875
X0015275Y000995
X00153Y001115
Y0012475
X001605Y0031975
X00139Y0031925
X0011825Y003195
X0009675
X000375Y002975
X000525Y0016
X00097Y004505
X001185Y0045025
X001395Y004505
X0016025Y0045125
X0021275Y0047375
X002125Y0048475
Y004955
T03
X001835Y0007075
X0020775Y000875
X002165Y0005325
X0020475Y001615
X002025Y00195
X0022975Y0018175
X00096Y0018425
X0021625Y003415
X0022825Y00331
X0003675Y0020575
X000365Y0043675
X0021575Y003635
X00228137Y00352363
T04
X00015Y000627
Y000881
Y001135
Y001389
Y001643
Y001897
Y002151
Y002405
Y002659
Y002913
Y003167
Y003421
Y003675
Y003929
Y004183
M30
