G04*
G04 #@! TF.GenerationSoftware,Altium Limited,Altium Designer,18.0.12 (696)*
G04*
G04 Layer_Color=16711935*
%FSLAX44Y44*%
%MOMM*%
G71*
G01*
G75*
%ADD36C,0.1000*%
%ADD39C,0.0500*%
%ADD40C,0.1700*%
G36*
X1547374Y781114D02*
X1548085Y778509D01*
X1547374Y777058D01*
X1545004Y775845D01*
X1539695Y774093D01*
X1532532Y772082D01*
X1531516Y771066D01*
Y770113D01*
X1536258Y766324D01*
X1541806Y759480D01*
X1544545Y752486D01*
Y748778D01*
X1542310Y745314D01*
X1539695Y744750D01*
X1537091Y745721D01*
X1533513Y748778D01*
X1529772Y755785D01*
X1527910Y767101D01*
X1527187Y767672D01*
X1524773Y766324D01*
Y766191D01*
X1514367Y755785D01*
Y755631D01*
X1509953Y755631D01*
X1508868Y756716D01*
Y757820D01*
X1508000Y758688D01*
Y761699D01*
X1512001Y765700D01*
Y765936D01*
X1512777D01*
X1515878Y767672D01*
X1517464Y768560D01*
X1521162Y770114D01*
X1526891Y770922D01*
X1527910Y771066D01*
X1529772Y774842D01*
X1532230Y778195D01*
X1536655Y780686D01*
X1541103Y782367D01*
X1547374Y781114D01*
D02*
G37*
G36*
X1296374D02*
X1297085Y778509D01*
X1296374Y777058D01*
X1294004Y775845D01*
X1288695Y774093D01*
X1281532Y772082D01*
X1280516Y771066D01*
Y770113D01*
X1285258Y766324D01*
X1290806Y759480D01*
X1293545Y752486D01*
Y748778D01*
X1291310Y745314D01*
X1288695Y744750D01*
X1286091Y745721D01*
X1282513Y748778D01*
X1278772Y755785D01*
X1276910Y767101D01*
X1276187Y767672D01*
X1273773Y766324D01*
Y766191D01*
X1263367Y755785D01*
Y755631D01*
X1258953Y755631D01*
X1257868Y756716D01*
Y757820D01*
X1257000Y758688D01*
Y761699D01*
X1261001Y765700D01*
Y765936D01*
X1261777D01*
X1264878Y767672D01*
X1266464Y768560D01*
X1270162Y770114D01*
X1275891Y770922D01*
X1276910Y771066D01*
X1278772Y774842D01*
X1281230Y778195D01*
X1285656Y780686D01*
X1290103Y782367D01*
X1296374Y781114D01*
D02*
G37*
G36*
X1045374D02*
X1046085Y778509D01*
X1045374Y777058D01*
X1043004Y775845D01*
X1037695Y774093D01*
X1030532Y772082D01*
X1029516Y771066D01*
Y770113D01*
X1034258Y766324D01*
X1039806Y759480D01*
X1042545Y752486D01*
Y748778D01*
X1040310Y745314D01*
X1037695Y744750D01*
X1035091Y745721D01*
X1031514Y748778D01*
X1027772Y755785D01*
X1025910Y767101D01*
X1025187Y767672D01*
X1022773Y766324D01*
Y766191D01*
X1012367Y755785D01*
Y755631D01*
X1007953Y755631D01*
X1006868Y756716D01*
Y757820D01*
X1006000Y758688D01*
Y761699D01*
X1010001Y765700D01*
Y765936D01*
X1010777D01*
X1013878Y767672D01*
X1015464Y768560D01*
X1019162Y770114D01*
X1024891Y770922D01*
X1025910Y771066D01*
X1027772Y774842D01*
X1030230Y778195D01*
X1034655Y780686D01*
X1039103Y782367D01*
X1045374Y781114D01*
D02*
G37*
G36*
X794374D02*
X795085Y778509D01*
X794374Y777058D01*
X792004Y775845D01*
X786695Y774093D01*
X779532Y772082D01*
X778516Y771066D01*
Y770113D01*
X783258Y766324D01*
X788805Y759480D01*
X791545Y752486D01*
Y748778D01*
X789310Y745314D01*
X786695Y744750D01*
X784091Y745721D01*
X780514Y748778D01*
X776772Y755785D01*
X774910Y767101D01*
X774187Y767672D01*
X771773Y766324D01*
Y766191D01*
X761367Y755785D01*
Y755631D01*
X756953Y755631D01*
X755868Y756716D01*
Y757820D01*
X755000Y758688D01*
Y761699D01*
X759001Y765700D01*
Y765936D01*
X759777D01*
X762878Y767672D01*
X764464Y768560D01*
X768162Y770114D01*
X773891Y770922D01*
X774910Y771066D01*
X776772Y774842D01*
X779230Y778195D01*
X783655Y780686D01*
X788103Y782367D01*
X794374Y781114D01*
D02*
G37*
G36*
X543374D02*
X544085Y778509D01*
X543374Y777058D01*
X541004Y775845D01*
X535695Y774093D01*
X528532Y772082D01*
X527516Y771066D01*
Y770113D01*
X532258Y766324D01*
X537805Y759480D01*
X540545Y752486D01*
Y748778D01*
X538310Y745314D01*
X535695Y744750D01*
X533091Y745721D01*
X529513Y748778D01*
X525772Y755785D01*
X523910Y767101D01*
X523187Y767672D01*
X520773Y766324D01*
Y766191D01*
X510367Y755785D01*
Y755631D01*
X505953Y755631D01*
X504868Y756716D01*
Y757820D01*
X504000Y758688D01*
Y761699D01*
X508001Y765700D01*
Y765936D01*
X508777D01*
X511878Y767672D01*
X513464Y768560D01*
X517162Y770114D01*
X522891Y770922D01*
X523910Y771066D01*
X525772Y774842D01*
X528230Y778195D01*
X532655Y780686D01*
X537103Y782367D01*
X543374Y781114D01*
D02*
G37*
G36*
X292374D02*
X293085Y778509D01*
X292374Y777058D01*
X290004Y775845D01*
X284695Y774093D01*
X277532Y772082D01*
X276516Y771066D01*
Y770113D01*
X281258Y766324D01*
X286805Y759480D01*
X289545Y752486D01*
Y748778D01*
X287310Y745314D01*
X284695Y744750D01*
X282091Y745721D01*
X278513Y748778D01*
X274772Y755785D01*
X272910Y767101D01*
X272187Y767672D01*
X269772Y766324D01*
Y766191D01*
X259367Y755785D01*
Y755631D01*
X254953Y755631D01*
X253868Y756716D01*
Y757820D01*
X253000Y758688D01*
Y761699D01*
X257001Y765700D01*
Y765936D01*
X257777D01*
X260878Y767672D01*
X262464Y768560D01*
X266162Y770114D01*
X271891Y770922D01*
X272910Y771066D01*
X274772Y774842D01*
X277230Y778195D01*
X281655Y780686D01*
X286103Y782367D01*
X292374Y781114D01*
D02*
G37*
D36*
X245702Y706520D02*
G03*
X245702Y706520I-3162J0D01*
G01*
X365062Y282000D02*
G03*
X365062Y282000I-2062J0D01*
G01*
X322000Y393250D02*
G03*
X322000Y393250I-5000J0D01*
G01*
X228250Y217250D02*
G03*
X228250Y217250I-10000J0D01*
G01*
X440250Y217750D02*
G03*
X440250Y217750I-10000J0D01*
G01*
Y802750D02*
G03*
X440250Y802750I-10000J0D01*
G01*
X248540Y715520D02*
X408540D01*
Y455520D02*
Y715520D01*
X248540Y455520D02*
X408540D01*
X248540D02*
Y715520D01*
X357250Y311000D02*
X363750D01*
X357250Y304000D02*
Y311000D01*
Y304000D02*
X363750D01*
X368750Y311000D02*
X375250D01*
Y304000D02*
Y311000D01*
X368750Y304000D02*
X375250D01*
X357250Y301000D02*
X363750D01*
X357250Y294000D02*
Y301000D01*
Y294000D02*
X363750D01*
X368750Y301000D02*
X375250D01*
Y294000D02*
Y301000D01*
X368750Y294000D02*
X375250D01*
X350499Y257001D02*
Y288001D01*
X319499Y257001D02*
Y288001D01*
X350499D01*
X319499Y257001D02*
X350499D01*
X359501Y259501D02*
X385501D01*
X359501Y285501D02*
X385501D01*
Y259501D02*
Y285501D01*
X359501Y259501D02*
Y285501D01*
X394750Y270500D02*
X401250D01*
X394750Y263500D02*
Y270500D01*
Y263500D02*
X401250D01*
X406250Y270500D02*
X412750D01*
Y263500D02*
Y270500D01*
X406250Y263500D02*
X412750D01*
X357750Y251750D02*
X364250D01*
X357750Y244750D02*
Y251750D01*
Y244750D02*
X364250D01*
X369250Y251750D02*
X375750D01*
Y244750D02*
Y251750D01*
X369250Y244750D02*
X375750D01*
X357810Y717740D02*
Y723990D01*
Y717740D02*
X365310D01*
Y723990D01*
Y728990D02*
Y735240D01*
X357810D02*
X365310D01*
X357810Y728990D02*
Y735240D01*
X357250Y737500D02*
X363750D01*
X357250D02*
Y744500D01*
X363750D01*
X368750D02*
X375250D01*
Y737500D02*
Y744500D01*
X368750Y737500D02*
X375250D01*
X358000Y746500D02*
Y753000D01*
Y746500D02*
X365000D01*
Y753000D01*
X358000Y758000D02*
Y764500D01*
X365000D01*
Y758000D02*
Y764500D01*
X291750Y718250D02*
Y724500D01*
Y718250D02*
X299250D01*
Y724500D01*
Y729500D02*
Y735750D01*
X291750D02*
X299250D01*
X291750Y729500D02*
Y735750D01*
X335000Y768750D02*
Y775250D01*
X328000D02*
X335000D01*
X328000Y768750D02*
Y775250D01*
X335000Y757250D02*
Y763750D01*
X328000Y757250D02*
X335000D01*
X328000D02*
Y763750D01*
X345500Y768750D02*
Y775000D01*
X338000D02*
X345500D01*
X338000Y768750D02*
Y775000D01*
Y757500D02*
Y763750D01*
Y757500D02*
X345500D01*
Y763750D01*
X359250Y774750D02*
X365750D01*
Y767750D02*
Y774750D01*
X359250Y767750D02*
X365750D01*
X347750D02*
X354250D01*
X347750D02*
Y774750D01*
X354250D01*
X385750Y348250D02*
Y354750D01*
Y348250D02*
X392750D01*
Y354750D01*
X385750Y359750D02*
Y366250D01*
X392750D01*
Y359750D02*
Y366250D01*
X376250Y368000D02*
Y374500D01*
Y368000D02*
X383250D01*
Y374500D01*
X376250Y379500D02*
Y386000D01*
X383250D01*
Y379500D02*
Y386000D01*
Y402250D02*
Y408750D01*
X376250D02*
X383250D01*
X376250Y402250D02*
Y408750D01*
X383250Y390750D02*
Y397250D01*
X376250Y390750D02*
X383250D01*
X376250D02*
Y397250D01*
X249000Y349000D02*
X255250D01*
X249000Y341500D02*
Y349000D01*
Y341500D02*
X255250D01*
X260250D02*
X266500D01*
Y349000D01*
X260250D02*
X266500D01*
X292500Y355500D02*
Y362000D01*
Y355500D02*
X299500D01*
Y362000D01*
X292500Y367000D02*
Y373500D01*
X299500D01*
Y367000D02*
Y373500D01*
X308500Y400750D02*
X368500D01*
X308500Y350750D02*
X368500D01*
Y400750D01*
X308500Y350750D02*
Y400750D01*
X392250Y402250D02*
Y408750D01*
X385250D02*
X392250D01*
X385250Y402250D02*
Y408750D01*
X392250Y390750D02*
Y397250D01*
X385250Y390750D02*
X392250D01*
X385250D02*
Y397250D01*
X376500Y785500D02*
Y787500D01*
X367500Y785500D02*
X376500D01*
X346500D02*
X355500D01*
X346500D02*
Y787500D01*
X376500Y811500D02*
Y816500D01*
X346500D02*
X376500D01*
X346500Y811500D02*
Y816500D01*
X285240Y744777D02*
X285441Y744799D01*
X286322Y744899D01*
X286838Y744964D01*
X286860Y744970D01*
X286879Y744975D01*
X287310Y745314D01*
X288023Y745933D01*
X288186Y746079D01*
X288449Y746321D01*
X289062Y747240D01*
X289564Y748778D01*
X289692Y750715D01*
X289545Y752486D02*
X289692Y750715D01*
X289450Y753067D02*
X289545Y752486D01*
X289396Y753398D02*
X289450Y753067D01*
X289171Y754377D02*
X289396Y753398D01*
X288748Y755649D02*
X289171Y754377D01*
X288113Y757057D02*
X288748Y755649D01*
X287437Y758346D02*
X288113Y757057D01*
X287204Y758766D02*
X287437Y758346D01*
X286805Y759480D02*
X287204Y758766D01*
X285471Y761542D02*
X286805Y759480D01*
X283520Y764013D02*
X285471Y761542D01*
X281288Y766253D02*
X283520Y764013D01*
X279381Y767848D02*
X281288Y766253D01*
X278716Y768334D02*
X279381Y767848D01*
X278355Y768597D02*
X278716Y768334D01*
X277292Y769408D02*
X278355Y768597D01*
X276516Y770113D02*
X277292Y769408D01*
X276234Y770621D02*
X276516Y770113D01*
X276234Y770621D02*
X276259Y770992D01*
X276299Y771104D01*
X276343Y771234D01*
X276625Y771576D01*
X277485Y772023D01*
X279248Y772590D01*
X281532Y773220D01*
X282294Y773420D01*
X282896Y773580D01*
X284695Y774093D01*
X287009Y774804D01*
X288973Y775463D01*
X290004Y775845D01*
X290321Y775989D01*
X290622Y776127D01*
X291517Y776572D01*
X292271Y777058D01*
X292714Y777557D01*
X292933Y778024D01*
X292985Y778184D01*
X293085Y778509D01*
X292993Y779974D02*
X293085Y778509D01*
X292179Y781029D02*
X292993Y779974D01*
X291919Y781149D02*
X292179Y781029D01*
X291487Y781347D02*
X291919Y781149D01*
X289580Y782006D02*
X291487Y781347D01*
X287695Y782299D02*
X289580Y782006D01*
X287277Y782315D02*
X287695Y782299D01*
X287006Y782326D02*
X287277Y782315D01*
X286192Y782277D02*
X287006Y782326D01*
X285029Y782003D02*
X286192Y782277D01*
X283461Y781390D02*
X285029Y782003D01*
X281741Y780601D02*
X283461Y781390D01*
X281174Y780330D02*
X281741Y780601D01*
X280762Y780134D02*
X281174Y780330D01*
X279530Y779529D02*
X280762Y780134D01*
X278236Y778840D02*
X279530Y779529D01*
X277230Y778195D02*
X278236Y778840D01*
X276443Y777538D02*
X277230Y778195D01*
X275814Y776800D02*
X276443Y777538D01*
X275277Y775921D02*
X275814Y776800D01*
X274772Y774842D02*
X275277Y775921D01*
X274365Y773830D02*
X274772Y774842D01*
X274235Y773491D02*
X274365Y773830D01*
X274105Y773154D02*
X274235Y773491D01*
X273443Y771763D02*
X274105Y773154D01*
X272914Y771039D02*
X273443Y771763D01*
X272854Y771036D02*
X272914Y771039D01*
X271986Y771017D02*
X272854Y771036D01*
X269382Y770922D02*
X271986Y771017D01*
X267060Y770602D02*
X269382Y770922D01*
X264816Y769815D02*
X267060Y770602D01*
X262391Y768689D02*
X264816Y769815D01*
X261588Y768304D02*
X262391Y768689D01*
X260878Y767965D02*
X261588Y768304D01*
X258759Y766918D02*
X260878Y767965D01*
X257001Y765936D02*
X258759Y766918D01*
X255875Y765084D02*
X257001Y765936D01*
X255165Y764346D02*
X255875Y765084D01*
X254948Y764086D02*
X255165Y764346D01*
X254747Y763850D02*
X254948Y764086D01*
X253811Y762510D02*
X254747Y763850D01*
X253165Y761308D02*
X253811Y762510D01*
X253114Y761137D02*
X253165Y761308D01*
X253022Y760844D02*
X253114Y761137D01*
X253000Y759881D02*
X253022Y760844D01*
X253000Y759881D02*
X253277Y758411D01*
X253868Y756995D01*
X254446Y756122D01*
X254695Y755888D01*
X254837Y755755D01*
X255791Y755343D01*
X257145Y755254D01*
X257487Y755281D01*
X257764Y755305D01*
X258599Y755408D01*
X259367Y755631D01*
X260037Y756062D01*
X260655Y756626D01*
X260856Y756819D01*
X261049Y757009D01*
X261656Y757654D01*
X262804Y758907D01*
X264141Y760410D01*
X265180Y761598D01*
X265522Y761994D01*
X266078Y762645D01*
X267827Y764525D01*
X269772Y766324D01*
X271324Y767368D01*
X272187Y767672D01*
X272455Y767631D01*
X272542Y767621D01*
X272797Y767477D01*
X273022Y767043D01*
X273163Y766194D01*
X273242Y765149D01*
X273261Y764799D01*
X273318Y763660D01*
X273790Y760250D01*
X274872Y755953D01*
X276440Y752107D01*
X277862Y749641D01*
X278437Y748898D01*
X278605Y748681D01*
X279907Y747381D01*
X281437Y746150D01*
X281719Y745963D01*
X282091Y745721D01*
X283637Y744964D01*
X284972Y744750D01*
X285240Y744777D01*
X285441Y744799D01*
X286322Y744899D01*
X286838Y744964D01*
X286860Y744970D01*
X286879Y744975D01*
X287310Y745314D01*
X288023Y745933D01*
X288186Y746079D01*
X288449Y746321D01*
X289062Y747240D01*
X289564Y748778D01*
X289692Y750715D01*
X289545Y752486D02*
X289692Y750715D01*
X289450Y753067D02*
X289545Y752486D01*
X289396Y753398D02*
X289450Y753067D01*
X289171Y754377D02*
X289396Y753398D01*
X288748Y755649D02*
X289171Y754377D01*
X288113Y757057D02*
X288748Y755649D01*
X287437Y758346D02*
X288113Y757057D01*
X287204Y758766D02*
X287437Y758346D01*
X286805Y759480D02*
X287204Y758766D01*
X285471Y761542D02*
X286805Y759480D01*
X283520Y764013D02*
X285471Y761542D01*
X281288Y766253D02*
X283520Y764013D01*
X279381Y767848D02*
X281288Y766253D01*
X278716Y768334D02*
X279381Y767848D01*
X278355Y768597D02*
X278716Y768334D01*
X277292Y769408D02*
X278355Y768597D01*
X276516Y770113D02*
X277292Y769408D01*
X276234Y770621D02*
X276516Y770113D01*
X276234Y770621D02*
X276259Y770992D01*
X276299Y771104D01*
X276343Y771234D01*
X276625Y771576D01*
X277485Y772023D01*
X279248Y772590D01*
X281532Y773220D01*
X282294Y773420D01*
X282896Y773580D01*
X284695Y774093D01*
X287009Y774804D01*
X288973Y775463D01*
X290004Y775845D01*
X290321Y775989D01*
X290622Y776127D01*
X291517Y776572D01*
X292271Y777058D01*
X292714Y777557D01*
X292933Y778024D01*
X292985Y778184D01*
X293085Y778509D01*
X292993Y779974D02*
X293085Y778509D01*
X292179Y781029D02*
X292993Y779974D01*
X291919Y781149D02*
X292179Y781029D01*
X291487Y781347D02*
X291919Y781149D01*
X289580Y782006D02*
X291487Y781347D01*
X287695Y782299D02*
X289580Y782006D01*
X287277Y782315D02*
X287695Y782299D01*
X287006Y782326D02*
X287277Y782315D01*
X286192Y782277D02*
X287006Y782326D01*
X285029Y782003D02*
X286192Y782277D01*
X283461Y781390D02*
X285029Y782003D01*
X281741Y780601D02*
X283461Y781390D01*
X281174Y780330D02*
X281741Y780601D01*
X280762Y780134D02*
X281174Y780330D01*
X279530Y779529D02*
X280762Y780134D01*
X278236Y778840D02*
X279530Y779529D01*
X277230Y778195D02*
X278236Y778840D01*
X276443Y777538D02*
X277230Y778195D01*
X275814Y776800D02*
X276443Y777538D01*
X275277Y775921D02*
X275814Y776800D01*
X274772Y774842D02*
X275277Y775921D01*
X274365Y773830D02*
X274772Y774842D01*
X274235Y773491D02*
X274365Y773830D01*
X274105Y773154D02*
X274235Y773491D01*
X273443Y771763D02*
X274105Y773154D01*
X272914Y771039D02*
X273443Y771763D01*
X272854Y771036D02*
X272914Y771039D01*
X271986Y771017D02*
X272854Y771036D01*
X269382Y770922D02*
X271986Y771017D01*
X267060Y770602D02*
X269382Y770922D01*
X264816Y769815D02*
X267060Y770602D01*
X262391Y768689D02*
X264816Y769815D01*
X261588Y768304D02*
X262391Y768689D01*
X260878Y767965D02*
X261588Y768304D01*
X258759Y766918D02*
X260878Y767965D01*
X257001Y765936D02*
X258759Y766918D01*
X255875Y765084D02*
X257001Y765936D01*
X255165Y764346D02*
X255875Y765084D01*
X254948Y764086D02*
X255165Y764346D01*
X254747Y763850D02*
X254948Y764086D01*
X253811Y762510D02*
X254747Y763850D01*
X253165Y761308D02*
X253811Y762510D01*
X253114Y761137D02*
X253165Y761308D01*
X253022Y760844D02*
X253114Y761137D01*
X253000Y759881D02*
X253022Y760844D01*
X253000Y759881D02*
X253277Y758411D01*
X253868Y756995D01*
X254446Y756122D01*
X254695Y755888D01*
X254837Y755755D01*
X255791Y755343D01*
X257145Y755254D01*
X257487Y755281D01*
X257764Y755305D01*
X258599Y755408D01*
X259367Y755631D01*
X260037Y756062D01*
X260655Y756626D01*
X260856Y756819D01*
X261049Y757009D01*
X261656Y757654D01*
X262804Y758907D01*
X264141Y760410D01*
X265180Y761598D01*
X265522Y761994D01*
X266078Y762645D01*
X267827Y764525D01*
X269772Y766324D01*
X271324Y767368D01*
X272187Y767672D01*
X272455Y767631D01*
X272542Y767621D01*
X272797Y767477D01*
X273022Y767043D01*
X273163Y766194D01*
X273242Y765149D01*
X273261Y764799D01*
X273318Y763660D01*
X273790Y760250D01*
X274872Y755953D01*
X276440Y752107D01*
X277862Y749641D01*
X278437Y748898D01*
X278605Y748681D01*
X279907Y747381D01*
X281437Y746150D01*
X281719Y745963D01*
X282091Y745721D01*
X283637Y744964D01*
X284972Y744750D01*
X285240Y744777D01*
X365332Y309665D02*
X364499Y310498D01*
X362833D01*
X362000Y309665D01*
Y306333D01*
X362833Y305500D01*
X364499D01*
X365332Y306333D01*
X370331Y305500D02*
X366998D01*
X370331Y308832D01*
Y309665D01*
X369498Y310498D01*
X367831D01*
X366998Y309665D01*
X365582Y299415D02*
X364749Y300248D01*
X363083D01*
X362250Y299415D01*
Y296083D01*
X363083Y295250D01*
X364749D01*
X365582Y296083D01*
X367248Y295250D02*
X368914D01*
X368082D01*
Y300248D01*
X367248Y299415D01*
X404918Y264835D02*
X405751Y264002D01*
X407417D01*
X408250Y264835D01*
Y268167D01*
X407417Y269000D01*
X405751D01*
X404918Y268167D01*
X403252Y264835D02*
X402419Y264002D01*
X400752D01*
X399919Y264835D01*
Y265668D01*
X400752Y266501D01*
X401586D01*
X400752D01*
X399919Y267334D01*
Y268167D01*
X400752Y269000D01*
X402419D01*
X403252Y268167D01*
X364832Y249665D02*
X363999Y250498D01*
X362333D01*
X361500Y249665D01*
Y246333D01*
X362333Y245500D01*
X363999D01*
X364832Y246333D01*
X369831Y250498D02*
X366498D01*
Y247999D01*
X368164Y248832D01*
X368998D01*
X369831Y247999D01*
Y246333D01*
X368998Y245500D01*
X367332D01*
X366498Y246333D01*
X359750Y730250D02*
X363749D01*
Y728251D01*
X363082Y727584D01*
X361749D01*
X361083Y728251D01*
Y730250D01*
Y728917D02*
X359750Y727584D01*
X363082Y726251D02*
X363749Y725585D01*
Y724252D01*
X363082Y723586D01*
X362416D01*
X361749Y724252D01*
Y724918D01*
Y724252D01*
X361083Y723586D01*
X360416D01*
X359750Y724252D01*
Y725585D01*
X360416Y726251D01*
X362500Y743249D02*
Y739250D01*
X365166D01*
X369165D02*
X366499D01*
X369165Y741916D01*
Y742582D01*
X368498Y743249D01*
X367165D01*
X366499Y742582D01*
X359835Y754332D02*
X359002Y753499D01*
Y751833D01*
X359835Y751000D01*
X363167D01*
X364000Y751833D01*
Y753499D01*
X363167Y754332D01*
X359002Y759331D02*
X359835Y757664D01*
X361501Y755998D01*
X363167D01*
X364000Y756831D01*
Y758497D01*
X363167Y759331D01*
X362334D01*
X361501Y758497D01*
Y755998D01*
X293500Y730500D02*
X297499D01*
Y728501D01*
X296832Y727834D01*
X295499D01*
X294833Y728501D01*
Y730500D01*
Y729167D02*
X293500Y727834D01*
Y724502D02*
X297499D01*
X295499Y726501D01*
Y723836D01*
X333165Y767918D02*
X333998Y768751D01*
Y770417D01*
X333165Y771250D01*
X329833D01*
X329000Y770417D01*
Y768751D01*
X329833Y767918D01*
X333998Y766252D02*
Y762919D01*
X333165D01*
X329833Y766252D01*
X329000D01*
X343999Y769500D02*
X340000D01*
Y767501D01*
X340667Y766834D01*
X343332D01*
X343999Y767501D01*
Y769500D01*
X340000Y765501D02*
Y764168D01*
Y764835D01*
X343999D01*
X343332Y765501D01*
X353250Y773499D02*
Y769500D01*
X355916D01*
X357249Y772832D02*
X357915Y773499D01*
X359248D01*
X359915Y772832D01*
Y772166D01*
X359248Y771499D01*
X358582D01*
X359248D01*
X359915Y770833D01*
Y770166D01*
X359248Y769500D01*
X357915D01*
X357249Y770166D01*
X387585Y356082D02*
X386752Y355249D01*
Y353583D01*
X387585Y352750D01*
X390917D01*
X391750Y353583D01*
Y355249D01*
X390917Y356082D01*
Y357748D02*
X391750Y358581D01*
Y360247D01*
X390917Y361081D01*
X387585D01*
X386752Y360247D01*
Y358581D01*
X387585Y357748D01*
X388418D01*
X389251Y358581D01*
Y361081D01*
X378085Y373582D02*
X377252Y372749D01*
Y371083D01*
X378085Y370250D01*
X381417D01*
X382250Y371083D01*
Y372749D01*
X381417Y373582D01*
X382250Y375248D02*
Y376914D01*
Y376081D01*
X377252D01*
X378085Y375248D01*
Y379414D02*
X377252Y380247D01*
Y381913D01*
X378085Y382746D01*
X381417D01*
X382250Y381913D01*
Y380247D01*
X381417Y379414D01*
X378085D01*
X381415Y401918D02*
X382248Y402751D01*
Y404417D01*
X381415Y405250D01*
X378083D01*
X377250Y404417D01*
Y402751D01*
X378083Y401918D01*
X377250Y400252D02*
Y398586D01*
Y399418D01*
X382248D01*
X381415Y400252D01*
X377250Y396086D02*
Y394420D01*
Y395253D01*
X382248D01*
X381415Y396086D01*
X254500Y347499D02*
Y343500D01*
X256499D01*
X257166Y344166D01*
Y346832D01*
X256499Y347499D01*
X254500D01*
X261164Y343500D02*
X258499D01*
X261164Y346166D01*
Y346832D01*
X260498Y347499D01*
X259165D01*
X258499Y346832D01*
X294335Y362832D02*
X293502Y361999D01*
Y360333D01*
X294335Y359500D01*
X297667D01*
X298500Y360333D01*
Y361999D01*
X297667Y362832D01*
X294335Y364498D02*
X293502Y365331D01*
Y366997D01*
X294335Y367831D01*
X295168D01*
X296001Y366997D01*
X296834Y367831D01*
X297667D01*
X298500Y366997D01*
Y365331D01*
X297667Y364498D01*
X296834D01*
X296001Y365331D01*
X295168Y364498D01*
X294335D01*
X296001Y365331D02*
Y366997D01*
X390415Y402668D02*
X391248Y403501D01*
Y405167D01*
X390415Y406000D01*
X387083D01*
X386250Y405167D01*
Y403501D01*
X387083Y402668D01*
X386250Y401002D02*
Y399336D01*
Y400168D01*
X391248D01*
X390415Y401002D01*
X386250Y393504D02*
Y396836D01*
X389582Y393504D01*
X390415D01*
X391248Y394337D01*
Y396003D01*
X390415Y396836D01*
X361082Y803248D02*
X359416D01*
X360249D01*
Y799083D01*
X359416Y798250D01*
X358583D01*
X357750Y799083D01*
X362748Y798250D02*
X364414D01*
X363582D01*
Y803248D01*
X362748Y802415D01*
X215001Y215916D02*
Y213250D01*
X217001D01*
Y214583D01*
Y213250D01*
X219000D01*
Y217249D02*
Y218582D01*
Y217915D01*
X216334D01*
Y217249D01*
X215001Y223247D02*
X219000D01*
Y221247D01*
X218334Y220581D01*
X217001D01*
X216334Y221247D01*
Y223247D01*
X219000Y224580D02*
Y225912D01*
Y225246D01*
X215001D01*
X215668Y224580D01*
X427001Y216416D02*
Y213750D01*
X429001D01*
Y215083D01*
Y213750D01*
X431000D01*
Y217749D02*
Y219082D01*
Y218415D01*
X428334D01*
Y217749D01*
X427001Y223747D02*
X431000D01*
Y221747D01*
X430334Y221081D01*
X429001D01*
X428334Y221747D01*
Y223747D01*
X431000Y227745D02*
Y225080D01*
X428334Y227745D01*
X427668D01*
X427001Y227079D01*
Y225746D01*
X427668Y225080D01*
X427001Y801416D02*
Y798750D01*
X429001D01*
Y800083D01*
Y798750D01*
X431000D01*
Y802749D02*
Y804082D01*
Y803415D01*
X428334D01*
Y802749D01*
X427001Y808747D02*
X431000D01*
Y806747D01*
X430334Y806081D01*
X429001D01*
X428334Y806747D01*
Y808747D01*
X427668Y810080D02*
X427001Y810746D01*
Y812079D01*
X427668Y812745D01*
X428334D01*
X429001Y812079D01*
Y811413D01*
Y812079D01*
X429667Y812745D01*
X430334D01*
X431000Y812079D01*
Y810746D01*
X430334Y810080D01*
X496702Y706520D02*
G03*
X496702Y706520I-3162J0D01*
G01*
X616062Y282000D02*
G03*
X616062Y282000I-2062J0D01*
G01*
X573000Y393250D02*
G03*
X573000Y393250I-5000J0D01*
G01*
X479250Y217250D02*
G03*
X479250Y217250I-10000J0D01*
G01*
X691250Y217750D02*
G03*
X691250Y217750I-10000J0D01*
G01*
Y802750D02*
G03*
X691250Y802750I-10000J0D01*
G01*
X499540Y715520D02*
X659540D01*
Y455520D02*
Y715520D01*
X499540Y455520D02*
X659540D01*
X499540D02*
Y715520D01*
X608250Y311000D02*
X614750D01*
X608250Y304000D02*
Y311000D01*
Y304000D02*
X614750D01*
X619750Y311000D02*
X626250D01*
Y304000D02*
Y311000D01*
X619750Y304000D02*
X626250D01*
X608250Y301000D02*
X614750D01*
X608250Y294000D02*
Y301000D01*
Y294000D02*
X614750D01*
X619750Y301000D02*
X626250D01*
Y294000D02*
Y301000D01*
X619750Y294000D02*
X626250D01*
X601499Y257001D02*
Y288001D01*
X570499Y257001D02*
Y288001D01*
X601499D01*
X570499Y257001D02*
X601499D01*
X610501Y259501D02*
X636501D01*
X610501Y285501D02*
X636501D01*
Y259501D02*
Y285501D01*
X610501Y259501D02*
Y285501D01*
X645750Y270500D02*
X652250D01*
X645750Y263500D02*
Y270500D01*
Y263500D02*
X652250D01*
X657250Y270500D02*
X663750D01*
Y263500D02*
Y270500D01*
X657250Y263500D02*
X663750D01*
X608750Y251750D02*
X615250D01*
X608750Y244750D02*
Y251750D01*
Y244750D02*
X615250D01*
X620250Y251750D02*
X626750D01*
Y244750D02*
Y251750D01*
X620250Y244750D02*
X626750D01*
X608810Y717740D02*
Y723990D01*
Y717740D02*
X616310D01*
Y723990D01*
Y728990D02*
Y735240D01*
X608810D02*
X616310D01*
X608810Y728990D02*
Y735240D01*
X608250Y737500D02*
X614750D01*
X608250D02*
Y744500D01*
X614750D01*
X619750D02*
X626250D01*
Y737500D02*
Y744500D01*
X619750Y737500D02*
X626250D01*
X609000Y746500D02*
Y753000D01*
Y746500D02*
X616000D01*
Y753000D01*
X609000Y758000D02*
Y764500D01*
X616000D01*
Y758000D02*
Y764500D01*
X542750Y718250D02*
Y724500D01*
Y718250D02*
X550250D01*
Y724500D01*
Y729500D02*
Y735750D01*
X542750D02*
X550250D01*
X542750Y729500D02*
Y735750D01*
X586000Y768750D02*
Y775250D01*
X579000D02*
X586000D01*
X579000Y768750D02*
Y775250D01*
X586000Y757250D02*
Y763750D01*
X579000Y757250D02*
X586000D01*
X579000D02*
Y763750D01*
X596500Y768750D02*
Y775000D01*
X589000D02*
X596500D01*
X589000Y768750D02*
Y775000D01*
Y757500D02*
Y763750D01*
Y757500D02*
X596500D01*
Y763750D01*
X610250Y774750D02*
X616750D01*
Y767750D02*
Y774750D01*
X610250Y767750D02*
X616750D01*
X598750D02*
X605250D01*
X598750D02*
Y774750D01*
X605250D01*
X636750Y348250D02*
Y354750D01*
Y348250D02*
X643750D01*
Y354750D01*
X636750Y359750D02*
Y366250D01*
X643750D01*
Y359750D02*
Y366250D01*
X627250Y368000D02*
Y374500D01*
Y368000D02*
X634250D01*
Y374500D01*
X627250Y379500D02*
Y386000D01*
X634250D01*
Y379500D02*
Y386000D01*
Y402250D02*
Y408750D01*
X627250D02*
X634250D01*
X627250Y402250D02*
Y408750D01*
X634250Y390750D02*
Y397250D01*
X627250Y390750D02*
X634250D01*
X627250D02*
Y397250D01*
X500000Y349000D02*
X506250D01*
X500000Y341500D02*
Y349000D01*
Y341500D02*
X506250D01*
X511250D02*
X517500D01*
Y349000D01*
X511250D02*
X517500D01*
X543500Y355500D02*
Y362000D01*
Y355500D02*
X550500D01*
Y362000D01*
X543500Y367000D02*
Y373500D01*
X550500D01*
Y367000D02*
Y373500D01*
X559500Y400750D02*
X619500D01*
X559500Y350750D02*
X619500D01*
Y400750D01*
X559500Y350750D02*
Y400750D01*
X643250Y402250D02*
Y408750D01*
X636250D02*
X643250D01*
X636250Y402250D02*
Y408750D01*
X643250Y390750D02*
Y397250D01*
X636250Y390750D02*
X643250D01*
X636250D02*
Y397250D01*
X627500Y785500D02*
Y787500D01*
X618500Y785500D02*
X627500D01*
X597500D02*
X606500D01*
X597500D02*
Y787500D01*
X627500Y811500D02*
Y816500D01*
X597500D02*
X627500D01*
X597500Y811500D02*
Y816500D01*
X536240Y744777D02*
X536441Y744799D01*
X537323Y744899D01*
X537838Y744964D01*
X537860Y744970D01*
X537879Y744975D01*
X538310Y745314D01*
X539023Y745933D01*
X539186Y746079D01*
X539449Y746321D01*
X540062Y747240D01*
X540564Y748778D01*
X540692Y750715D01*
X540545Y752486D02*
X540692Y750715D01*
X540450Y753067D02*
X540545Y752486D01*
X540396Y753398D02*
X540450Y753067D01*
X540171Y754377D02*
X540396Y753398D01*
X539748Y755649D02*
X540171Y754377D01*
X539113Y757057D02*
X539748Y755649D01*
X538438Y758346D02*
X539113Y757057D01*
X538204Y758766D02*
X538438Y758346D01*
X537805Y759480D02*
X538204Y758766D01*
X536471Y761542D02*
X537805Y759480D01*
X534520Y764013D02*
X536471Y761542D01*
X532288Y766253D02*
X534520Y764013D01*
X530381Y767848D02*
X532288Y766253D01*
X529716Y768334D02*
X530381Y767848D01*
X529355Y768597D02*
X529716Y768334D01*
X528292Y769408D02*
X529355Y768597D01*
X527516Y770113D02*
X528292Y769408D01*
X527234Y770621D02*
X527516Y770113D01*
X527234Y770621D02*
X527258Y770992D01*
X527299Y771104D01*
X527343Y771234D01*
X527625Y771576D01*
X528485Y772023D01*
X530248Y772590D01*
X532532Y773220D01*
X533294Y773420D01*
X533896Y773580D01*
X535695Y774093D01*
X538009Y774804D01*
X539973Y775463D01*
X541004Y775845D01*
X541321Y775989D01*
X541622Y776127D01*
X542517Y776572D01*
X543271Y777058D01*
X543714Y777557D01*
X543933Y778024D01*
X543985Y778184D01*
X544085Y778509D01*
X543993Y779974D02*
X544085Y778509D01*
X543179Y781029D02*
X543993Y779974D01*
X542919Y781149D02*
X543179Y781029D01*
X542487Y781347D02*
X542919Y781149D01*
X540580Y782006D02*
X542487Y781347D01*
X538695Y782299D02*
X540580Y782006D01*
X538277Y782315D02*
X538695Y782299D01*
X538006Y782326D02*
X538277Y782315D01*
X537192Y782277D02*
X538006Y782326D01*
X536029Y782003D02*
X537192Y782277D01*
X534461Y781390D02*
X536029Y782003D01*
X532741Y780601D02*
X534461Y781390D01*
X532174Y780330D02*
X532741Y780601D01*
X531762Y780134D02*
X532174Y780330D01*
X530530Y779529D02*
X531762Y780134D01*
X529236Y778840D02*
X530530Y779529D01*
X528230Y778195D02*
X529236Y778840D01*
X527443Y777538D02*
X528230Y778195D01*
X526814Y776800D02*
X527443Y777538D01*
X526277Y775921D02*
X526814Y776800D01*
X525772Y774842D02*
X526277Y775921D01*
X525365Y773830D02*
X525772Y774842D01*
X525235Y773491D02*
X525365Y773830D01*
X525105Y773154D02*
X525235Y773491D01*
X524443Y771763D02*
X525105Y773154D01*
X523914Y771039D02*
X524443Y771763D01*
X523854Y771036D02*
X523914Y771039D01*
X522986Y771017D02*
X523854Y771036D01*
X520382Y770922D02*
X522986Y771017D01*
X518060Y770602D02*
X520382Y770922D01*
X515816Y769815D02*
X518060Y770602D01*
X513391Y768689D02*
X515816Y769815D01*
X512588Y768304D02*
X513391Y768689D01*
X511878Y767965D02*
X512588Y768304D01*
X509759Y766918D02*
X511878Y767965D01*
X508001Y765936D02*
X509759Y766918D01*
X506875Y765084D02*
X508001Y765936D01*
X506165Y764346D02*
X506875Y765084D01*
X505948Y764086D02*
X506165Y764346D01*
X505747Y763850D02*
X505948Y764086D01*
X504811Y762510D02*
X505747Y763850D01*
X504165Y761308D02*
X504811Y762510D01*
X504114Y761137D02*
X504165Y761308D01*
X504022Y760844D02*
X504114Y761137D01*
X504000Y759881D02*
X504022Y760844D01*
X504000Y759881D02*
X504277Y758411D01*
X504868Y756995D01*
X505446Y756122D01*
X505695Y755888D01*
X505837Y755755D01*
X506791Y755343D01*
X508145Y755254D01*
X508487Y755281D01*
X508764Y755305D01*
X509599Y755408D01*
X510367Y755631D01*
X511037Y756062D01*
X511655Y756626D01*
X511856Y756819D01*
X512049Y757009D01*
X512656Y757654D01*
X513804Y758907D01*
X515141Y760410D01*
X516180Y761598D01*
X516522Y761994D01*
X517078Y762645D01*
X518828Y764525D01*
X520773Y766324D01*
X522324Y767368D01*
X523187Y767672D01*
X523455Y767631D01*
X523542Y767621D01*
X523797Y767477D01*
X524022Y767043D01*
X524163Y766194D01*
X524242Y765149D01*
X524261Y764799D01*
X524318Y763660D01*
X524790Y760250D01*
X525872Y755953D01*
X527440Y752107D01*
X528862Y749641D01*
X529437Y748898D01*
X529605Y748681D01*
X530907Y747381D01*
X532437Y746150D01*
X532719Y745963D01*
X533091Y745721D01*
X534637Y744964D01*
X535972Y744750D01*
X536240Y744777D01*
X536441Y744799D01*
X537323Y744899D01*
X537838Y744964D01*
X537860Y744970D01*
X537879Y744975D01*
X538310Y745314D01*
X539023Y745933D01*
X539186Y746079D01*
X539449Y746321D01*
X540062Y747240D01*
X540564Y748778D01*
X540692Y750715D01*
X540545Y752486D02*
X540692Y750715D01*
X540450Y753067D02*
X540545Y752486D01*
X540396Y753398D02*
X540450Y753067D01*
X540171Y754377D02*
X540396Y753398D01*
X539748Y755649D02*
X540171Y754377D01*
X539113Y757057D02*
X539748Y755649D01*
X538438Y758346D02*
X539113Y757057D01*
X538204Y758766D02*
X538438Y758346D01*
X537805Y759480D02*
X538204Y758766D01*
X536471Y761542D02*
X537805Y759480D01*
X534520Y764013D02*
X536471Y761542D01*
X532288Y766253D02*
X534520Y764013D01*
X530381Y767848D02*
X532288Y766253D01*
X529716Y768334D02*
X530381Y767848D01*
X529355Y768597D02*
X529716Y768334D01*
X528292Y769408D02*
X529355Y768597D01*
X527516Y770113D02*
X528292Y769408D01*
X527234Y770621D02*
X527516Y770113D01*
X527234Y770621D02*
X527258Y770992D01*
X527299Y771104D01*
X527343Y771234D01*
X527625Y771576D01*
X528485Y772023D01*
X530248Y772590D01*
X532532Y773220D01*
X533294Y773420D01*
X533896Y773580D01*
X535695Y774093D01*
X538009Y774804D01*
X539973Y775463D01*
X541004Y775845D01*
X541321Y775989D01*
X541622Y776127D01*
X542517Y776572D01*
X543271Y777058D01*
X543714Y777557D01*
X543933Y778024D01*
X543985Y778184D01*
X544085Y778509D01*
X543993Y779974D02*
X544085Y778509D01*
X543179Y781029D02*
X543993Y779974D01*
X542919Y781149D02*
X543179Y781029D01*
X542487Y781347D02*
X542919Y781149D01*
X540580Y782006D02*
X542487Y781347D01*
X538695Y782299D02*
X540580Y782006D01*
X538277Y782315D02*
X538695Y782299D01*
X538006Y782326D02*
X538277Y782315D01*
X537192Y782277D02*
X538006Y782326D01*
X536029Y782003D02*
X537192Y782277D01*
X534461Y781390D02*
X536029Y782003D01*
X532741Y780601D02*
X534461Y781390D01*
X532174Y780330D02*
X532741Y780601D01*
X531762Y780134D02*
X532174Y780330D01*
X530530Y779529D02*
X531762Y780134D01*
X529236Y778840D02*
X530530Y779529D01*
X528230Y778195D02*
X529236Y778840D01*
X527443Y777538D02*
X528230Y778195D01*
X526814Y776800D02*
X527443Y777538D01*
X526277Y775921D02*
X526814Y776800D01*
X525772Y774842D02*
X526277Y775921D01*
X525365Y773830D02*
X525772Y774842D01*
X525235Y773491D02*
X525365Y773830D01*
X525105Y773154D02*
X525235Y773491D01*
X524443Y771763D02*
X525105Y773154D01*
X523914Y771039D02*
X524443Y771763D01*
X523854Y771036D02*
X523914Y771039D01*
X522986Y771017D02*
X523854Y771036D01*
X520382Y770922D02*
X522986Y771017D01*
X518060Y770602D02*
X520382Y770922D01*
X515816Y769815D02*
X518060Y770602D01*
X513391Y768689D02*
X515816Y769815D01*
X512588Y768304D02*
X513391Y768689D01*
X511878Y767965D02*
X512588Y768304D01*
X509759Y766918D02*
X511878Y767965D01*
X508001Y765936D02*
X509759Y766918D01*
X506875Y765084D02*
X508001Y765936D01*
X506165Y764346D02*
X506875Y765084D01*
X505948Y764086D02*
X506165Y764346D01*
X505747Y763850D02*
X505948Y764086D01*
X504811Y762510D02*
X505747Y763850D01*
X504165Y761308D02*
X504811Y762510D01*
X504114Y761137D02*
X504165Y761308D01*
X504022Y760844D02*
X504114Y761137D01*
X504000Y759881D02*
X504022Y760844D01*
X504000Y759881D02*
X504277Y758411D01*
X504868Y756995D01*
X505446Y756122D01*
X505695Y755888D01*
X505837Y755755D01*
X506791Y755343D01*
X508145Y755254D01*
X508487Y755281D01*
X508764Y755305D01*
X509599Y755408D01*
X510367Y755631D01*
X511037Y756062D01*
X511655Y756626D01*
X511856Y756819D01*
X512049Y757009D01*
X512656Y757654D01*
X513804Y758907D01*
X515141Y760410D01*
X516180Y761598D01*
X516522Y761994D01*
X517078Y762645D01*
X518828Y764525D01*
X520773Y766324D01*
X522324Y767368D01*
X523187Y767672D01*
X523455Y767631D01*
X523542Y767621D01*
X523797Y767477D01*
X524022Y767043D01*
X524163Y766194D01*
X524242Y765149D01*
X524261Y764799D01*
X524318Y763660D01*
X524790Y760250D01*
X525872Y755953D01*
X527440Y752107D01*
X528862Y749641D01*
X529437Y748898D01*
X529605Y748681D01*
X530907Y747381D01*
X532437Y746150D01*
X532719Y745963D01*
X533091Y745721D01*
X534637Y744964D01*
X535972Y744750D01*
X536240Y744777D01*
X616332Y309665D02*
X615499Y310498D01*
X613833D01*
X613000Y309665D01*
Y306333D01*
X613833Y305500D01*
X615499D01*
X616332Y306333D01*
X621331Y305500D02*
X617998D01*
X621331Y308832D01*
Y309665D01*
X620498Y310498D01*
X618831D01*
X617998Y309665D01*
X616582Y299415D02*
X615749Y300248D01*
X614083D01*
X613250Y299415D01*
Y296083D01*
X614083Y295250D01*
X615749D01*
X616582Y296083D01*
X618248Y295250D02*
X619915D01*
X619081D01*
Y300248D01*
X618248Y299415D01*
X655918Y264835D02*
X656751Y264002D01*
X658417D01*
X659250Y264835D01*
Y268167D01*
X658417Y269000D01*
X656751D01*
X655918Y268167D01*
X654252Y264835D02*
X653419Y264002D01*
X651752D01*
X650919Y264835D01*
Y265668D01*
X651752Y266501D01*
X652586D01*
X651752D01*
X650919Y267334D01*
Y268167D01*
X651752Y269000D01*
X653419D01*
X654252Y268167D01*
X615832Y249665D02*
X614999Y250498D01*
X613333D01*
X612500Y249665D01*
Y246333D01*
X613333Y245500D01*
X614999D01*
X615832Y246333D01*
X620831Y250498D02*
X617498D01*
Y247999D01*
X619165Y248832D01*
X619998D01*
X620831Y247999D01*
Y246333D01*
X619998Y245500D01*
X618331D01*
X617498Y246333D01*
X610750Y730250D02*
X614749D01*
Y728251D01*
X614082Y727584D01*
X612749D01*
X612083Y728251D01*
Y730250D01*
Y728917D02*
X610750Y727584D01*
X614082Y726251D02*
X614749Y725585D01*
Y724252D01*
X614082Y723586D01*
X613416D01*
X612749Y724252D01*
Y724918D01*
Y724252D01*
X612083Y723586D01*
X611417D01*
X610750Y724252D01*
Y725585D01*
X611417Y726251D01*
X613500Y743249D02*
Y739250D01*
X616166D01*
X620165D02*
X617499D01*
X620165Y741916D01*
Y742582D01*
X619498Y743249D01*
X618165D01*
X617499Y742582D01*
X610835Y754332D02*
X610002Y753499D01*
Y751833D01*
X610835Y751000D01*
X614167D01*
X615000Y751833D01*
Y753499D01*
X614167Y754332D01*
X610002Y759331D02*
X610835Y757664D01*
X612501Y755998D01*
X614167D01*
X615000Y756831D01*
Y758497D01*
X614167Y759331D01*
X613334D01*
X612501Y758497D01*
Y755998D01*
X544500Y730500D02*
X548499D01*
Y728501D01*
X547832Y727834D01*
X546499D01*
X545833Y728501D01*
Y730500D01*
Y729167D02*
X544500Y727834D01*
Y724502D02*
X548499D01*
X546499Y726501D01*
Y723836D01*
X584165Y767918D02*
X584998Y768751D01*
Y770417D01*
X584165Y771250D01*
X580833D01*
X580000Y770417D01*
Y768751D01*
X580833Y767918D01*
X584998Y766252D02*
Y762919D01*
X584165D01*
X580833Y766252D01*
X580000D01*
X594999Y769500D02*
X591000D01*
Y767501D01*
X591666Y766834D01*
X594332D01*
X594999Y767501D01*
Y769500D01*
X591000Y765501D02*
Y764168D01*
Y764835D01*
X594999D01*
X594332Y765501D01*
X604250Y773499D02*
Y769500D01*
X606916D01*
X608249Y772832D02*
X608915Y773499D01*
X610248D01*
X610915Y772832D01*
Y772166D01*
X610248Y771499D01*
X609582D01*
X610248D01*
X610915Y770833D01*
Y770166D01*
X610248Y769500D01*
X608915D01*
X608249Y770166D01*
X638585Y356082D02*
X637752Y355249D01*
Y353583D01*
X638585Y352750D01*
X641917D01*
X642750Y353583D01*
Y355249D01*
X641917Y356082D01*
Y357748D02*
X642750Y358581D01*
Y360247D01*
X641917Y361081D01*
X638585D01*
X637752Y360247D01*
Y358581D01*
X638585Y357748D01*
X639418D01*
X640251Y358581D01*
Y361081D01*
X629085Y373582D02*
X628252Y372749D01*
Y371083D01*
X629085Y370250D01*
X632417D01*
X633250Y371083D01*
Y372749D01*
X632417Y373582D01*
X633250Y375248D02*
Y376914D01*
Y376081D01*
X628252D01*
X629085Y375248D01*
Y379414D02*
X628252Y380247D01*
Y381913D01*
X629085Y382746D01*
X632417D01*
X633250Y381913D01*
Y380247D01*
X632417Y379414D01*
X629085D01*
X632415Y401918D02*
X633248Y402751D01*
Y404417D01*
X632415Y405250D01*
X629083D01*
X628250Y404417D01*
Y402751D01*
X629083Y401918D01*
X628250Y400252D02*
Y398586D01*
Y399418D01*
X633248D01*
X632415Y400252D01*
X628250Y396086D02*
Y394420D01*
Y395253D01*
X633248D01*
X632415Y396086D01*
X505500Y347499D02*
Y343500D01*
X507499D01*
X508166Y344166D01*
Y346832D01*
X507499Y347499D01*
X505500D01*
X512165Y343500D02*
X509499D01*
X512165Y346166D01*
Y346832D01*
X511498Y347499D01*
X510165D01*
X509499Y346832D01*
X545335Y362832D02*
X544502Y361999D01*
Y360333D01*
X545335Y359500D01*
X548667D01*
X549500Y360333D01*
Y361999D01*
X548667Y362832D01*
X545335Y364498D02*
X544502Y365331D01*
Y366997D01*
X545335Y367831D01*
X546168D01*
X547001Y366997D01*
X547834Y367831D01*
X548667D01*
X549500Y366997D01*
Y365331D01*
X548667Y364498D01*
X547834D01*
X547001Y365331D01*
X546168Y364498D01*
X545335D01*
X547001Y365331D02*
Y366997D01*
X641415Y402668D02*
X642248Y403501D01*
Y405167D01*
X641415Y406000D01*
X638083D01*
X637250Y405167D01*
Y403501D01*
X638083Y402668D01*
X637250Y401002D02*
Y399336D01*
Y400168D01*
X642248D01*
X641415Y401002D01*
X637250Y393504D02*
Y396836D01*
X640582Y393504D01*
X641415D01*
X642248Y394337D01*
Y396003D01*
X641415Y396836D01*
X612082Y803248D02*
X610416D01*
X611249D01*
Y799083D01*
X610416Y798250D01*
X609583D01*
X608750Y799083D01*
X613748Y798250D02*
X615415D01*
X614581D01*
Y803248D01*
X613748Y802415D01*
X466001Y215916D02*
Y213250D01*
X468001D01*
Y214583D01*
Y213250D01*
X470000D01*
Y217249D02*
Y218582D01*
Y217915D01*
X467334D01*
Y217249D01*
X466001Y223247D02*
X470000D01*
Y221247D01*
X469334Y220581D01*
X468001D01*
X467334Y221247D01*
Y223247D01*
X470000Y224580D02*
Y225912D01*
Y225246D01*
X466001D01*
X466668Y224580D01*
X678001Y216416D02*
Y213750D01*
X680001D01*
Y215083D01*
Y213750D01*
X682000D01*
Y217749D02*
Y219082D01*
Y218415D01*
X679334D01*
Y217749D01*
X678001Y223747D02*
X682000D01*
Y221747D01*
X681334Y221081D01*
X680001D01*
X679334Y221747D01*
Y223747D01*
X682000Y227745D02*
Y225080D01*
X679334Y227745D01*
X678668D01*
X678001Y227079D01*
Y225746D01*
X678668Y225080D01*
X678001Y801416D02*
Y798750D01*
X680001D01*
Y800083D01*
Y798750D01*
X682000D01*
Y802749D02*
Y804082D01*
Y803415D01*
X679334D01*
Y802749D01*
X678001Y808747D02*
X682000D01*
Y806747D01*
X681334Y806081D01*
X680001D01*
X679334Y806747D01*
Y808747D01*
X678668Y810080D02*
X678001Y810746D01*
Y812079D01*
X678668Y812745D01*
X679334D01*
X680001Y812079D01*
Y811413D01*
Y812079D01*
X680667Y812745D01*
X681334D01*
X682000Y812079D01*
Y810746D01*
X681334Y810080D01*
X747702Y706520D02*
G03*
X747702Y706520I-3162J0D01*
G01*
X867062Y282000D02*
G03*
X867062Y282000I-2062J0D01*
G01*
X824000Y393250D02*
G03*
X824000Y393250I-5000J0D01*
G01*
X730250Y217250D02*
G03*
X730250Y217250I-10000J0D01*
G01*
X942250Y217750D02*
G03*
X942250Y217750I-10000J0D01*
G01*
Y802750D02*
G03*
X942250Y802750I-10000J0D01*
G01*
X750540Y715520D02*
X910540D01*
Y455520D02*
Y715520D01*
X750540Y455520D02*
X910540D01*
X750540D02*
Y715520D01*
X859250Y311000D02*
X865750D01*
X859250Y304000D02*
Y311000D01*
Y304000D02*
X865750D01*
X870750Y311000D02*
X877250D01*
Y304000D02*
Y311000D01*
X870750Y304000D02*
X877250D01*
X859250Y301000D02*
X865750D01*
X859250Y294000D02*
Y301000D01*
Y294000D02*
X865750D01*
X870750Y301000D02*
X877250D01*
Y294000D02*
Y301000D01*
X870750Y294000D02*
X877250D01*
X852499Y257001D02*
Y288001D01*
X821499Y257001D02*
Y288001D01*
X852499D01*
X821499Y257001D02*
X852499D01*
X861501Y259501D02*
X887501D01*
X861501Y285501D02*
X887501D01*
Y259501D02*
Y285501D01*
X861501Y259501D02*
Y285501D01*
X896750Y270500D02*
X903250D01*
X896750Y263500D02*
Y270500D01*
Y263500D02*
X903250D01*
X908250Y270500D02*
X914750D01*
Y263500D02*
Y270500D01*
X908250Y263500D02*
X914750D01*
X859750Y251750D02*
X866250D01*
X859750Y244750D02*
Y251750D01*
Y244750D02*
X866250D01*
X871250Y251750D02*
X877750D01*
Y244750D02*
Y251750D01*
X871250Y244750D02*
X877750D01*
X859810Y717740D02*
Y723990D01*
Y717740D02*
X867310D01*
Y723990D01*
Y728990D02*
Y735240D01*
X859810D02*
X867310D01*
X859810Y728990D02*
Y735240D01*
X859250Y737500D02*
X865750D01*
X859250D02*
Y744500D01*
X865750D01*
X870750D02*
X877250D01*
Y737500D02*
Y744500D01*
X870750Y737500D02*
X877250D01*
X860000Y746500D02*
Y753000D01*
Y746500D02*
X867000D01*
Y753000D01*
X860000Y758000D02*
Y764500D01*
X867000D01*
Y758000D02*
Y764500D01*
X793750Y718250D02*
Y724500D01*
Y718250D02*
X801250D01*
Y724500D01*
Y729500D02*
Y735750D01*
X793750D02*
X801250D01*
X793750Y729500D02*
Y735750D01*
X837000Y768750D02*
Y775250D01*
X830000D02*
X837000D01*
X830000Y768750D02*
Y775250D01*
X837000Y757250D02*
Y763750D01*
X830000Y757250D02*
X837000D01*
X830000D02*
Y763750D01*
X847500Y768750D02*
Y775000D01*
X840000D02*
X847500D01*
X840000Y768750D02*
Y775000D01*
Y757500D02*
Y763750D01*
Y757500D02*
X847500D01*
Y763750D01*
X861250Y774750D02*
X867750D01*
Y767750D02*
Y774750D01*
X861250Y767750D02*
X867750D01*
X849750D02*
X856250D01*
X849750D02*
Y774750D01*
X856250D01*
X887750Y348250D02*
Y354750D01*
Y348250D02*
X894750D01*
Y354750D01*
X887750Y359750D02*
Y366250D01*
X894750D01*
Y359750D02*
Y366250D01*
X878250Y368000D02*
Y374500D01*
Y368000D02*
X885250D01*
Y374500D01*
X878250Y379500D02*
Y386000D01*
X885250D01*
Y379500D02*
Y386000D01*
Y402250D02*
Y408750D01*
X878250D02*
X885250D01*
X878250Y402250D02*
Y408750D01*
X885250Y390750D02*
Y397250D01*
X878250Y390750D02*
X885250D01*
X878250D02*
Y397250D01*
X751000Y349000D02*
X757250D01*
X751000Y341500D02*
Y349000D01*
Y341500D02*
X757250D01*
X762250D02*
X768500D01*
Y349000D01*
X762250D02*
X768500D01*
X794500Y355500D02*
Y362000D01*
Y355500D02*
X801500D01*
Y362000D01*
X794500Y367000D02*
Y373500D01*
X801500D01*
Y367000D02*
Y373500D01*
X810500Y400750D02*
X870500D01*
X810500Y350750D02*
X870500D01*
Y400750D01*
X810500Y350750D02*
Y400750D01*
X894250Y402250D02*
Y408750D01*
X887250D02*
X894250D01*
X887250Y402250D02*
Y408750D01*
X894250Y390750D02*
Y397250D01*
X887250Y390750D02*
X894250D01*
X887250D02*
Y397250D01*
X878500Y785500D02*
Y787500D01*
X869500Y785500D02*
X878500D01*
X848500D02*
X857500D01*
X848500D02*
Y787500D01*
X878500Y811500D02*
Y816500D01*
X848500D02*
X878500D01*
X848500Y811500D02*
Y816500D01*
X787240Y744777D02*
X787441Y744799D01*
X788323Y744899D01*
X788838Y744964D01*
X788860Y744970D01*
X788879Y744975D01*
X789310Y745314D01*
X790023Y745933D01*
X790186Y746079D01*
X790449Y746321D01*
X791062Y747240D01*
X791564Y748778D01*
X791692Y750715D01*
X791545Y752486D02*
X791692Y750715D01*
X791450Y753067D02*
X791545Y752486D01*
X791396Y753398D02*
X791450Y753067D01*
X791171Y754377D02*
X791396Y753398D01*
X790748Y755649D02*
X791171Y754377D01*
X790113Y757057D02*
X790748Y755649D01*
X789437Y758346D02*
X790113Y757057D01*
X789204Y758766D02*
X789437Y758346D01*
X788805Y759480D02*
X789204Y758766D01*
X787471Y761542D02*
X788805Y759480D01*
X785520Y764013D02*
X787471Y761542D01*
X783288Y766253D02*
X785520Y764013D01*
X781381Y767848D02*
X783288Y766253D01*
X780716Y768334D02*
X781381Y767848D01*
X780355Y768597D02*
X780716Y768334D01*
X779292Y769408D02*
X780355Y768597D01*
X778516Y770113D02*
X779292Y769408D01*
X778234Y770621D02*
X778516Y770113D01*
X778234Y770621D02*
X778259Y770992D01*
X778299Y771104D01*
X778343Y771234D01*
X778625Y771576D01*
X779485Y772023D01*
X781248Y772590D01*
X783532Y773220D01*
X784294Y773420D01*
X784896Y773580D01*
X786695Y774093D01*
X789009Y774804D01*
X790973Y775463D01*
X792004Y775845D01*
X792321Y775989D01*
X792622Y776127D01*
X793517Y776572D01*
X794271Y777058D01*
X794714Y777557D01*
X794933Y778024D01*
X794985Y778184D01*
X795085Y778509D01*
X794993Y779974D02*
X795085Y778509D01*
X794179Y781029D02*
X794993Y779974D01*
X793919Y781149D02*
X794179Y781029D01*
X793487Y781347D02*
X793919Y781149D01*
X791581Y782006D02*
X793487Y781347D01*
X789695Y782299D02*
X791581Y782006D01*
X789277Y782315D02*
X789695Y782299D01*
X789006Y782326D02*
X789277Y782315D01*
X788192Y782277D02*
X789006Y782326D01*
X787029Y782003D02*
X788192Y782277D01*
X785461Y781390D02*
X787029Y782003D01*
X783741Y780601D02*
X785461Y781390D01*
X783174Y780330D02*
X783741Y780601D01*
X782762Y780134D02*
X783174Y780330D01*
X781530Y779529D02*
X782762Y780134D01*
X780236Y778840D02*
X781530Y779529D01*
X779230Y778195D02*
X780236Y778840D01*
X778443Y777538D02*
X779230Y778195D01*
X777814Y776800D02*
X778443Y777538D01*
X777277Y775921D02*
X777814Y776800D01*
X776772Y774842D02*
X777277Y775921D01*
X776365Y773830D02*
X776772Y774842D01*
X776235Y773491D02*
X776365Y773830D01*
X776105Y773154D02*
X776235Y773491D01*
X775443Y771763D02*
X776105Y773154D01*
X774914Y771039D02*
X775443Y771763D01*
X774854Y771036D02*
X774914Y771039D01*
X773986Y771017D02*
X774854Y771036D01*
X771382Y770922D02*
X773986Y771017D01*
X769060Y770602D02*
X771382Y770922D01*
X766817Y769815D02*
X769060Y770602D01*
X764391Y768689D02*
X766817Y769815D01*
X763588Y768304D02*
X764391Y768689D01*
X762878Y767965D02*
X763588Y768304D01*
X760759Y766918D02*
X762878Y767965D01*
X759001Y765936D02*
X760759Y766918D01*
X757876Y765084D02*
X759001Y765936D01*
X757165Y764346D02*
X757876Y765084D01*
X756948Y764086D02*
X757165Y764346D01*
X756747Y763850D02*
X756948Y764086D01*
X755811Y762510D02*
X756747Y763850D01*
X755166Y761308D02*
X755811Y762510D01*
X755114Y761137D02*
X755166Y761308D01*
X755022Y760844D02*
X755114Y761137D01*
X755000Y759881D02*
X755022Y760844D01*
X755000Y759881D02*
X755277Y758411D01*
X755868Y756995D01*
X756446Y756122D01*
X756695Y755888D01*
X756837Y755755D01*
X757791Y755343D01*
X759145Y755254D01*
X759487Y755281D01*
X759763Y755305D01*
X760599Y755408D01*
X761367Y755631D01*
X762037Y756062D01*
X762655Y756626D01*
X762856Y756819D01*
X763049Y757009D01*
X763656Y757654D01*
X764804Y758907D01*
X766141Y760410D01*
X767180Y761598D01*
X767522Y761994D01*
X768078Y762645D01*
X769828Y764525D01*
X771773Y766324D01*
X773324Y767368D01*
X774187Y767672D01*
X774455Y767631D01*
X774542Y767621D01*
X774797Y767477D01*
X775022Y767043D01*
X775163Y766194D01*
X775242Y765149D01*
X775261Y764799D01*
X775318Y763660D01*
X775790Y760250D01*
X776872Y755953D01*
X778440Y752107D01*
X779862Y749641D01*
X780437Y748898D01*
X780605Y748681D01*
X781907Y747381D01*
X783437Y746150D01*
X783719Y745963D01*
X784091Y745721D01*
X785637Y744964D01*
X786972Y744750D01*
X787240Y744777D01*
X787441Y744799D01*
X788323Y744899D01*
X788838Y744964D01*
X788860Y744970D01*
X788879Y744975D01*
X789310Y745314D01*
X790023Y745933D01*
X790186Y746079D01*
X790449Y746321D01*
X791062Y747240D01*
X791564Y748778D01*
X791692Y750715D01*
X791545Y752486D02*
X791692Y750715D01*
X791450Y753067D02*
X791545Y752486D01*
X791396Y753398D02*
X791450Y753067D01*
X791171Y754377D02*
X791396Y753398D01*
X790748Y755649D02*
X791171Y754377D01*
X790113Y757057D02*
X790748Y755649D01*
X789437Y758346D02*
X790113Y757057D01*
X789204Y758766D02*
X789437Y758346D01*
X788805Y759480D02*
X789204Y758766D01*
X787471Y761542D02*
X788805Y759480D01*
X785520Y764013D02*
X787471Y761542D01*
X783288Y766253D02*
X785520Y764013D01*
X781381Y767848D02*
X783288Y766253D01*
X780716Y768334D02*
X781381Y767848D01*
X780355Y768597D02*
X780716Y768334D01*
X779292Y769408D02*
X780355Y768597D01*
X778516Y770113D02*
X779292Y769408D01*
X778234Y770621D02*
X778516Y770113D01*
X778234Y770621D02*
X778259Y770992D01*
X778299Y771104D01*
X778343Y771234D01*
X778625Y771576D01*
X779485Y772023D01*
X781248Y772590D01*
X783532Y773220D01*
X784294Y773420D01*
X784896Y773580D01*
X786695Y774093D01*
X789009Y774804D01*
X790973Y775463D01*
X792004Y775845D01*
X792321Y775989D01*
X792622Y776127D01*
X793517Y776572D01*
X794271Y777058D01*
X794714Y777557D01*
X794933Y778024D01*
X794985Y778184D01*
X795085Y778509D01*
X794993Y779974D02*
X795085Y778509D01*
X794179Y781029D02*
X794993Y779974D01*
X793919Y781149D02*
X794179Y781029D01*
X793487Y781347D02*
X793919Y781149D01*
X791581Y782006D02*
X793487Y781347D01*
X789695Y782299D02*
X791581Y782006D01*
X789277Y782315D02*
X789695Y782299D01*
X789006Y782326D02*
X789277Y782315D01*
X788192Y782277D02*
X789006Y782326D01*
X787029Y782003D02*
X788192Y782277D01*
X785461Y781390D02*
X787029Y782003D01*
X783741Y780601D02*
X785461Y781390D01*
X783174Y780330D02*
X783741Y780601D01*
X782762Y780134D02*
X783174Y780330D01*
X781530Y779529D02*
X782762Y780134D01*
X780236Y778840D02*
X781530Y779529D01*
X779230Y778195D02*
X780236Y778840D01*
X778443Y777538D02*
X779230Y778195D01*
X777814Y776800D02*
X778443Y777538D01*
X777277Y775921D02*
X777814Y776800D01*
X776772Y774842D02*
X777277Y775921D01*
X776365Y773830D02*
X776772Y774842D01*
X776235Y773491D02*
X776365Y773830D01*
X776105Y773154D02*
X776235Y773491D01*
X775443Y771763D02*
X776105Y773154D01*
X774914Y771039D02*
X775443Y771763D01*
X774854Y771036D02*
X774914Y771039D01*
X773986Y771017D02*
X774854Y771036D01*
X771382Y770922D02*
X773986Y771017D01*
X769060Y770602D02*
X771382Y770922D01*
X766817Y769815D02*
X769060Y770602D01*
X764391Y768689D02*
X766817Y769815D01*
X763588Y768304D02*
X764391Y768689D01*
X762878Y767965D02*
X763588Y768304D01*
X760759Y766918D02*
X762878Y767965D01*
X759001Y765936D02*
X760759Y766918D01*
X757876Y765084D02*
X759001Y765936D01*
X757165Y764346D02*
X757876Y765084D01*
X756948Y764086D02*
X757165Y764346D01*
X756747Y763850D02*
X756948Y764086D01*
X755811Y762510D02*
X756747Y763850D01*
X755166Y761308D02*
X755811Y762510D01*
X755114Y761137D02*
X755166Y761308D01*
X755022Y760844D02*
X755114Y761137D01*
X755000Y759881D02*
X755022Y760844D01*
X755000Y759881D02*
X755277Y758411D01*
X755868Y756995D01*
X756446Y756122D01*
X756695Y755888D01*
X756837Y755755D01*
X757791Y755343D01*
X759145Y755254D01*
X759487Y755281D01*
X759763Y755305D01*
X760599Y755408D01*
X761367Y755631D01*
X762037Y756062D01*
X762655Y756626D01*
X762856Y756819D01*
X763049Y757009D01*
X763656Y757654D01*
X764804Y758907D01*
X766141Y760410D01*
X767180Y761598D01*
X767522Y761994D01*
X768078Y762645D01*
X769828Y764525D01*
X771773Y766324D01*
X773324Y767368D01*
X774187Y767672D01*
X774455Y767631D01*
X774542Y767621D01*
X774797Y767477D01*
X775022Y767043D01*
X775163Y766194D01*
X775242Y765149D01*
X775261Y764799D01*
X775318Y763660D01*
X775790Y760250D01*
X776872Y755953D01*
X778440Y752107D01*
X779862Y749641D01*
X780437Y748898D01*
X780605Y748681D01*
X781907Y747381D01*
X783437Y746150D01*
X783719Y745963D01*
X784091Y745721D01*
X785637Y744964D01*
X786972Y744750D01*
X787240Y744777D01*
X867332Y309665D02*
X866499Y310498D01*
X864833D01*
X864000Y309665D01*
Y306333D01*
X864833Y305500D01*
X866499D01*
X867332Y306333D01*
X872331Y305500D02*
X868998D01*
X872331Y308832D01*
Y309665D01*
X871498Y310498D01*
X869831D01*
X868998Y309665D01*
X867582Y299415D02*
X866749Y300248D01*
X865083D01*
X864250Y299415D01*
Y296083D01*
X865083Y295250D01*
X866749D01*
X867582Y296083D01*
X869249Y295250D02*
X870915D01*
X870081D01*
Y300248D01*
X869249Y299415D01*
X906918Y264835D02*
X907751Y264002D01*
X909417D01*
X910250Y264835D01*
Y268167D01*
X909417Y269000D01*
X907751D01*
X906918Y268167D01*
X905252Y264835D02*
X904419Y264002D01*
X902753D01*
X901919Y264835D01*
Y265668D01*
X902753Y266501D01*
X903586D01*
X902753D01*
X901919Y267334D01*
Y268167D01*
X902753Y269000D01*
X904419D01*
X905252Y268167D01*
X866832Y249665D02*
X865999Y250498D01*
X864333D01*
X863500Y249665D01*
Y246333D01*
X864333Y245500D01*
X865999D01*
X866832Y246333D01*
X871831Y250498D02*
X868499D01*
Y247999D01*
X870165Y248832D01*
X870998D01*
X871831Y247999D01*
Y246333D01*
X870998Y245500D01*
X869332D01*
X868499Y246333D01*
X861750Y730250D02*
X865749D01*
Y728251D01*
X865082Y727584D01*
X863749D01*
X863083Y728251D01*
Y730250D01*
Y728917D02*
X861750Y727584D01*
X865082Y726251D02*
X865749Y725585D01*
Y724252D01*
X865082Y723586D01*
X864416D01*
X863749Y724252D01*
Y724918D01*
Y724252D01*
X863083Y723586D01*
X862417D01*
X861750Y724252D01*
Y725585D01*
X862417Y726251D01*
X864500Y743249D02*
Y739250D01*
X867166D01*
X871165D02*
X868499D01*
X871165Y741916D01*
Y742582D01*
X870498Y743249D01*
X869165D01*
X868499Y742582D01*
X861835Y754332D02*
X861002Y753499D01*
Y751833D01*
X861835Y751000D01*
X865167D01*
X866000Y751833D01*
Y753499D01*
X865167Y754332D01*
X861002Y759331D02*
X861835Y757664D01*
X863501Y755998D01*
X865167D01*
X866000Y756831D01*
Y758497D01*
X865167Y759331D01*
X864334D01*
X863501Y758497D01*
Y755998D01*
X795500Y730500D02*
X799499D01*
Y728501D01*
X798832Y727834D01*
X797499D01*
X796833Y728501D01*
Y730500D01*
Y729167D02*
X795500Y727834D01*
Y724502D02*
X799499D01*
X797499Y726501D01*
Y723836D01*
X835165Y767918D02*
X835999Y768751D01*
Y770417D01*
X835165Y771250D01*
X831833D01*
X831000Y770417D01*
Y768751D01*
X831833Y767918D01*
X835999Y766252D02*
Y762919D01*
X835165D01*
X831833Y766252D01*
X831000D01*
X845999Y769500D02*
X842000D01*
Y767501D01*
X842666Y766834D01*
X845332D01*
X845999Y767501D01*
Y769500D01*
X842000Y765501D02*
Y764168D01*
Y764835D01*
X845999D01*
X845332Y765501D01*
X855250Y773499D02*
Y769500D01*
X857916D01*
X859249Y772832D02*
X859915Y773499D01*
X861248D01*
X861915Y772832D01*
Y772166D01*
X861248Y771499D01*
X860582D01*
X861248D01*
X861915Y770833D01*
Y770166D01*
X861248Y769500D01*
X859915D01*
X859249Y770166D01*
X889585Y356082D02*
X888752Y355249D01*
Y353583D01*
X889585Y352750D01*
X892917D01*
X893750Y353583D01*
Y355249D01*
X892917Y356082D01*
Y357748D02*
X893750Y358581D01*
Y360247D01*
X892917Y361081D01*
X889585D01*
X888752Y360247D01*
Y358581D01*
X889585Y357748D01*
X890418D01*
X891251Y358581D01*
Y361081D01*
X880085Y373582D02*
X879252Y372749D01*
Y371083D01*
X880085Y370250D01*
X883417D01*
X884250Y371083D01*
Y372749D01*
X883417Y373582D01*
X884250Y375248D02*
Y376914D01*
Y376081D01*
X879252D01*
X880085Y375248D01*
Y379414D02*
X879252Y380247D01*
Y381913D01*
X880085Y382746D01*
X883417D01*
X884250Y381913D01*
Y380247D01*
X883417Y379414D01*
X880085D01*
X883415Y401918D02*
X884248Y402751D01*
Y404417D01*
X883415Y405250D01*
X880083D01*
X879250Y404417D01*
Y402751D01*
X880083Y401918D01*
X879250Y400252D02*
Y398586D01*
Y399418D01*
X884248D01*
X883415Y400252D01*
X879250Y396086D02*
Y394420D01*
Y395253D01*
X884248D01*
X883415Y396086D01*
X756500Y347499D02*
Y343500D01*
X758499D01*
X759166Y344166D01*
Y346832D01*
X758499Y347499D01*
X756500D01*
X763165Y343500D02*
X760499D01*
X763165Y346166D01*
Y346832D01*
X762498Y347499D01*
X761165D01*
X760499Y346832D01*
X796335Y362832D02*
X795502Y361999D01*
Y360333D01*
X796335Y359500D01*
X799667D01*
X800500Y360333D01*
Y361999D01*
X799667Y362832D01*
X796335Y364498D02*
X795502Y365331D01*
Y366997D01*
X796335Y367831D01*
X797168D01*
X798001Y366997D01*
X798834Y367831D01*
X799667D01*
X800500Y366997D01*
Y365331D01*
X799667Y364498D01*
X798834D01*
X798001Y365331D01*
X797168Y364498D01*
X796335D01*
X798001Y365331D02*
Y366997D01*
X892415Y402668D02*
X893249Y403501D01*
Y405167D01*
X892415Y406000D01*
X889083D01*
X888250Y405167D01*
Y403501D01*
X889083Y402668D01*
X888250Y401002D02*
Y399336D01*
Y400168D01*
X893249D01*
X892415Y401002D01*
X888250Y393504D02*
Y396836D01*
X891582Y393504D01*
X892415D01*
X893249Y394337D01*
Y396003D01*
X892415Y396836D01*
X863082Y803248D02*
X861416D01*
X862249D01*
Y799083D01*
X861416Y798250D01*
X860583D01*
X859750Y799083D01*
X864749Y798250D02*
X866415D01*
X865582D01*
Y803248D01*
X864749Y802415D01*
X717001Y215916D02*
Y213250D01*
X719001D01*
Y214583D01*
Y213250D01*
X721000D01*
Y217249D02*
Y218582D01*
Y217915D01*
X718334D01*
Y217249D01*
X717001Y223247D02*
X721000D01*
Y221247D01*
X720334Y220581D01*
X719001D01*
X718334Y221247D01*
Y223247D01*
X721000Y224580D02*
Y225912D01*
Y225246D01*
X717001D01*
X717668Y224580D01*
X929001Y216416D02*
Y213750D01*
X931001D01*
Y215083D01*
Y213750D01*
X933000D01*
Y217749D02*
Y219082D01*
Y218415D01*
X930334D01*
Y217749D01*
X929001Y223747D02*
X933000D01*
Y221747D01*
X932334Y221081D01*
X931001D01*
X930334Y221747D01*
Y223747D01*
X933000Y227745D02*
Y225080D01*
X930334Y227745D01*
X929668D01*
X929001Y227079D01*
Y225746D01*
X929668Y225080D01*
X929001Y801416D02*
Y798750D01*
X931001D01*
Y800083D01*
Y798750D01*
X933000D01*
Y802749D02*
Y804082D01*
Y803415D01*
X930334D01*
Y802749D01*
X929001Y808747D02*
X933000D01*
Y806747D01*
X932334Y806081D01*
X931001D01*
X930334Y806747D01*
Y808747D01*
X929668Y810080D02*
X929001Y810746D01*
Y812079D01*
X929668Y812745D01*
X930334D01*
X931001Y812079D01*
Y811413D01*
Y812079D01*
X931667Y812745D01*
X932334D01*
X933000Y812079D01*
Y810746D01*
X932334Y810080D01*
X998702Y706520D02*
G03*
X998702Y706520I-3162J0D01*
G01*
X1118062Y282000D02*
G03*
X1118062Y282000I-2062J0D01*
G01*
X1075000Y393250D02*
G03*
X1075000Y393250I-5000J0D01*
G01*
X981250Y217250D02*
G03*
X981250Y217250I-10000J0D01*
G01*
X1193250Y217750D02*
G03*
X1193250Y217750I-10000J0D01*
G01*
Y802750D02*
G03*
X1193250Y802750I-10000J0D01*
G01*
X1001540Y715520D02*
X1161540D01*
Y455520D02*
Y715520D01*
X1001540Y455520D02*
X1161540D01*
X1001540D02*
Y715520D01*
X1110250Y311000D02*
X1116750D01*
X1110250Y304000D02*
Y311000D01*
Y304000D02*
X1116750D01*
X1121750Y311000D02*
X1128250D01*
Y304000D02*
Y311000D01*
X1121750Y304000D02*
X1128250D01*
X1110250Y301000D02*
X1116750D01*
X1110250Y294000D02*
Y301000D01*
Y294000D02*
X1116750D01*
X1121750Y301000D02*
X1128250D01*
Y294000D02*
Y301000D01*
X1121750Y294000D02*
X1128250D01*
X1103499Y257001D02*
Y288001D01*
X1072499Y257001D02*
Y288001D01*
X1103499D01*
X1072499Y257001D02*
X1103499D01*
X1112501Y259501D02*
X1138501D01*
X1112501Y285501D02*
X1138501D01*
Y259501D02*
Y285501D01*
X1112501Y259501D02*
Y285501D01*
X1147750Y270500D02*
X1154250D01*
X1147750Y263500D02*
Y270500D01*
Y263500D02*
X1154250D01*
X1159250Y270500D02*
X1165750D01*
Y263500D02*
Y270500D01*
X1159250Y263500D02*
X1165750D01*
X1110750Y251750D02*
X1117250D01*
X1110750Y244750D02*
Y251750D01*
Y244750D02*
X1117250D01*
X1122250Y251750D02*
X1128750D01*
Y244750D02*
Y251750D01*
X1122250Y244750D02*
X1128750D01*
X1110810Y717740D02*
Y723990D01*
Y717740D02*
X1118310D01*
Y723990D01*
Y728990D02*
Y735240D01*
X1110810D02*
X1118310D01*
X1110810Y728990D02*
Y735240D01*
X1110250Y737500D02*
X1116750D01*
X1110250D02*
Y744500D01*
X1116750D01*
X1121750D02*
X1128250D01*
Y737500D02*
Y744500D01*
X1121750Y737500D02*
X1128250D01*
X1111000Y746500D02*
Y753000D01*
Y746500D02*
X1118000D01*
Y753000D01*
X1111000Y758000D02*
Y764500D01*
X1118000D01*
Y758000D02*
Y764500D01*
X1044750Y718250D02*
Y724500D01*
Y718250D02*
X1052250D01*
Y724500D01*
Y729500D02*
Y735750D01*
X1044750D02*
X1052250D01*
X1044750Y729500D02*
Y735750D01*
X1088000Y768750D02*
Y775250D01*
X1081000D02*
X1088000D01*
X1081000Y768750D02*
Y775250D01*
X1088000Y757250D02*
Y763750D01*
X1081000Y757250D02*
X1088000D01*
X1081000D02*
Y763750D01*
X1098500Y768750D02*
Y775000D01*
X1091000D02*
X1098500D01*
X1091000Y768750D02*
Y775000D01*
Y757500D02*
Y763750D01*
Y757500D02*
X1098500D01*
Y763750D01*
X1112250Y774750D02*
X1118750D01*
Y767750D02*
Y774750D01*
X1112250Y767750D02*
X1118750D01*
X1100750D02*
X1107250D01*
X1100750D02*
Y774750D01*
X1107250D01*
X1138750Y348250D02*
Y354750D01*
Y348250D02*
X1145750D01*
Y354750D01*
X1138750Y359750D02*
Y366250D01*
X1145750D01*
Y359750D02*
Y366250D01*
X1129250Y368000D02*
Y374500D01*
Y368000D02*
X1136250D01*
Y374500D01*
X1129250Y379500D02*
Y386000D01*
X1136250D01*
Y379500D02*
Y386000D01*
Y402250D02*
Y408750D01*
X1129250D02*
X1136250D01*
X1129250Y402250D02*
Y408750D01*
X1136250Y390750D02*
Y397250D01*
X1129250Y390750D02*
X1136250D01*
X1129250D02*
Y397250D01*
X1002000Y349000D02*
X1008250D01*
X1002000Y341500D02*
Y349000D01*
Y341500D02*
X1008250D01*
X1013250D02*
X1019500D01*
Y349000D01*
X1013250D02*
X1019500D01*
X1045500Y355500D02*
Y362000D01*
Y355500D02*
X1052500D01*
Y362000D01*
X1045500Y367000D02*
Y373500D01*
X1052500D01*
Y367000D02*
Y373500D01*
X1061500Y400750D02*
X1121500D01*
X1061500Y350750D02*
X1121500D01*
Y400750D01*
X1061500Y350750D02*
Y400750D01*
X1145250Y402250D02*
Y408750D01*
X1138250D02*
X1145250D01*
X1138250Y402250D02*
Y408750D01*
X1145250Y390750D02*
Y397250D01*
X1138250Y390750D02*
X1145250D01*
X1138250D02*
Y397250D01*
X1129500Y785500D02*
Y787500D01*
X1120500Y785500D02*
X1129500D01*
X1099500D02*
X1108500D01*
X1099500D02*
Y787500D01*
X1129500Y811500D02*
Y816500D01*
X1099500D02*
X1129500D01*
X1099500Y811500D02*
Y816500D01*
X1038240Y744777D02*
X1038441Y744799D01*
X1039323Y744899D01*
X1039838Y744964D01*
X1039860Y744970D01*
X1039879Y744975D01*
X1040310Y745314D01*
X1041023Y745933D01*
X1041186Y746079D01*
X1041449Y746321D01*
X1042062Y747240D01*
X1042564Y748778D01*
X1042692Y750715D01*
X1042545Y752486D02*
X1042692Y750715D01*
X1042450Y753067D02*
X1042545Y752486D01*
X1042396Y753398D02*
X1042450Y753067D01*
X1042171Y754377D02*
X1042396Y753398D01*
X1041748Y755649D02*
X1042171Y754377D01*
X1041113Y757057D02*
X1041748Y755649D01*
X1040437Y758346D02*
X1041113Y757057D01*
X1040204Y758766D02*
X1040437Y758346D01*
X1039806Y759480D02*
X1040204Y758766D01*
X1038471Y761542D02*
X1039806Y759480D01*
X1036520Y764013D02*
X1038471Y761542D01*
X1034288Y766253D02*
X1036520Y764013D01*
X1032381Y767848D02*
X1034288Y766253D01*
X1031716Y768334D02*
X1032381Y767848D01*
X1031356Y768597D02*
X1031716Y768334D01*
X1030292Y769408D02*
X1031356Y768597D01*
X1029516Y770113D02*
X1030292Y769408D01*
X1029234Y770621D02*
X1029516Y770113D01*
X1029234Y770621D02*
X1029259Y770992D01*
X1029299Y771104D01*
X1029343Y771234D01*
X1029625Y771576D01*
X1030485Y772023D01*
X1032248Y772590D01*
X1034532Y773220D01*
X1035294Y773420D01*
X1035897Y773580D01*
X1037695Y774093D01*
X1040009Y774804D01*
X1041973Y775463D01*
X1043004Y775845D01*
X1043321Y775989D01*
X1043622Y776127D01*
X1044517Y776572D01*
X1045272Y777058D01*
X1045714Y777557D01*
X1045933Y778024D01*
X1045985Y778184D01*
X1046085Y778509D01*
X1045993Y779974D02*
X1046085Y778509D01*
X1045179Y781029D02*
X1045993Y779974D01*
X1044919Y781149D02*
X1045179Y781029D01*
X1044488Y781347D02*
X1044919Y781149D01*
X1042580Y782006D02*
X1044488Y781347D01*
X1040695Y782299D02*
X1042580Y782006D01*
X1040277Y782315D02*
X1040695Y782299D01*
X1040006Y782326D02*
X1040277Y782315D01*
X1039192Y782277D02*
X1040006Y782326D01*
X1038029Y782003D02*
X1039192Y782277D01*
X1036461Y781390D02*
X1038029Y782003D01*
X1034741Y780601D02*
X1036461Y781390D01*
X1034174Y780330D02*
X1034741Y780601D01*
X1033762Y780134D02*
X1034174Y780330D01*
X1032530Y779529D02*
X1033762Y780134D01*
X1031236Y778840D02*
X1032530Y779529D01*
X1030230Y778195D02*
X1031236Y778840D01*
X1029443Y777538D02*
X1030230Y778195D01*
X1028814Y776800D02*
X1029443Y777538D01*
X1028277Y775921D02*
X1028814Y776800D01*
X1027772Y774842D02*
X1028277Y775921D01*
X1027365Y773830D02*
X1027772Y774842D01*
X1027235Y773491D02*
X1027365Y773830D01*
X1027105Y773154D02*
X1027235Y773491D01*
X1026443Y771763D02*
X1027105Y773154D01*
X1025914Y771039D02*
X1026443Y771763D01*
X1025854Y771036D02*
X1025914Y771039D01*
X1024986Y771017D02*
X1025854Y771036D01*
X1022382Y770922D02*
X1024986Y771017D01*
X1020060Y770602D02*
X1022382Y770922D01*
X1017817Y769815D02*
X1020060Y770602D01*
X1015391Y768689D02*
X1017817Y769815D01*
X1014588Y768304D02*
X1015391Y768689D01*
X1013878Y767965D02*
X1014588Y768304D01*
X1011759Y766918D02*
X1013878Y767965D01*
X1010001Y765936D02*
X1011759Y766918D01*
X1008876Y765084D02*
X1010001Y765936D01*
X1008165Y764346D02*
X1008876Y765084D01*
X1007948Y764086D02*
X1008165Y764346D01*
X1007747Y763850D02*
X1007948Y764086D01*
X1006811Y762510D02*
X1007747Y763850D01*
X1006166Y761308D02*
X1006811Y762510D01*
X1006114Y761137D02*
X1006166Y761308D01*
X1006022Y760844D02*
X1006114Y761137D01*
X1006000Y759881D02*
X1006022Y760844D01*
X1006000Y759881D02*
X1006277Y758411D01*
X1006868Y756995D01*
X1007446Y756122D01*
X1007695Y755888D01*
X1007837Y755755D01*
X1008792Y755343D01*
X1010145Y755254D01*
X1010487Y755281D01*
X1010764Y755305D01*
X1011599Y755408D01*
X1012367Y755631D01*
X1013037Y756062D01*
X1013655Y756626D01*
X1013856Y756819D01*
X1014049Y757009D01*
X1014656Y757654D01*
X1015804Y758907D01*
X1017141Y760410D01*
X1018180Y761598D01*
X1018522Y761994D01*
X1019078Y762645D01*
X1020828Y764525D01*
X1022773Y766324D01*
X1024324Y767368D01*
X1025187Y767672D01*
X1025455Y767631D01*
X1025542Y767621D01*
X1025797Y767477D01*
X1026022Y767043D01*
X1026163Y766194D01*
X1026242Y765149D01*
X1026261Y764799D01*
X1026318Y763660D01*
X1026790Y760250D01*
X1027872Y755953D01*
X1029440Y752107D01*
X1030862Y749641D01*
X1031437Y748898D01*
X1031605Y748681D01*
X1032907Y747381D01*
X1034437Y746150D01*
X1034719Y745963D01*
X1035091Y745721D01*
X1036637Y744964D01*
X1037972Y744750D01*
X1038240Y744777D01*
X1038441Y744799D01*
X1039323Y744899D01*
X1039838Y744964D01*
X1039860Y744970D01*
X1039879Y744975D01*
X1040310Y745314D01*
X1041023Y745933D01*
X1041186Y746079D01*
X1041449Y746321D01*
X1042062Y747240D01*
X1042564Y748778D01*
X1042692Y750715D01*
X1042545Y752486D02*
X1042692Y750715D01*
X1042450Y753067D02*
X1042545Y752486D01*
X1042396Y753398D02*
X1042450Y753067D01*
X1042171Y754377D02*
X1042396Y753398D01*
X1041748Y755649D02*
X1042171Y754377D01*
X1041113Y757057D02*
X1041748Y755649D01*
X1040437Y758346D02*
X1041113Y757057D01*
X1040204Y758766D02*
X1040437Y758346D01*
X1039806Y759480D02*
X1040204Y758766D01*
X1038471Y761542D02*
X1039806Y759480D01*
X1036520Y764013D02*
X1038471Y761542D01*
X1034288Y766253D02*
X1036520Y764013D01*
X1032381Y767848D02*
X1034288Y766253D01*
X1031716Y768334D02*
X1032381Y767848D01*
X1031356Y768597D02*
X1031716Y768334D01*
X1030292Y769408D02*
X1031356Y768597D01*
X1029516Y770113D02*
X1030292Y769408D01*
X1029234Y770621D02*
X1029516Y770113D01*
X1029234Y770621D02*
X1029259Y770992D01*
X1029299Y771104D01*
X1029343Y771234D01*
X1029625Y771576D01*
X1030485Y772023D01*
X1032248Y772590D01*
X1034532Y773220D01*
X1035294Y773420D01*
X1035897Y773580D01*
X1037695Y774093D01*
X1040009Y774804D01*
X1041973Y775463D01*
X1043004Y775845D01*
X1043321Y775989D01*
X1043622Y776127D01*
X1044517Y776572D01*
X1045272Y777058D01*
X1045714Y777557D01*
X1045933Y778024D01*
X1045985Y778184D01*
X1046085Y778509D01*
X1045993Y779974D02*
X1046085Y778509D01*
X1045179Y781029D02*
X1045993Y779974D01*
X1044919Y781149D02*
X1045179Y781029D01*
X1044488Y781347D02*
X1044919Y781149D01*
X1042580Y782006D02*
X1044488Y781347D01*
X1040695Y782299D02*
X1042580Y782006D01*
X1040277Y782315D02*
X1040695Y782299D01*
X1040006Y782326D02*
X1040277Y782315D01*
X1039192Y782277D02*
X1040006Y782326D01*
X1038029Y782003D02*
X1039192Y782277D01*
X1036461Y781390D02*
X1038029Y782003D01*
X1034741Y780601D02*
X1036461Y781390D01*
X1034174Y780330D02*
X1034741Y780601D01*
X1033762Y780134D02*
X1034174Y780330D01*
X1032530Y779529D02*
X1033762Y780134D01*
X1031236Y778840D02*
X1032530Y779529D01*
X1030230Y778195D02*
X1031236Y778840D01*
X1029443Y777538D02*
X1030230Y778195D01*
X1028814Y776800D02*
X1029443Y777538D01*
X1028277Y775921D02*
X1028814Y776800D01*
X1027772Y774842D02*
X1028277Y775921D01*
X1027365Y773830D02*
X1027772Y774842D01*
X1027235Y773491D02*
X1027365Y773830D01*
X1027105Y773154D02*
X1027235Y773491D01*
X1026443Y771763D02*
X1027105Y773154D01*
X1025914Y771039D02*
X1026443Y771763D01*
X1025854Y771036D02*
X1025914Y771039D01*
X1024986Y771017D02*
X1025854Y771036D01*
X1022382Y770922D02*
X1024986Y771017D01*
X1020060Y770602D02*
X1022382Y770922D01*
X1017817Y769815D02*
X1020060Y770602D01*
X1015391Y768689D02*
X1017817Y769815D01*
X1014588Y768304D02*
X1015391Y768689D01*
X1013878Y767965D02*
X1014588Y768304D01*
X1011759Y766918D02*
X1013878Y767965D01*
X1010001Y765936D02*
X1011759Y766918D01*
X1008876Y765084D02*
X1010001Y765936D01*
X1008165Y764346D02*
X1008876Y765084D01*
X1007948Y764086D02*
X1008165Y764346D01*
X1007747Y763850D02*
X1007948Y764086D01*
X1006811Y762510D02*
X1007747Y763850D01*
X1006166Y761308D02*
X1006811Y762510D01*
X1006114Y761137D02*
X1006166Y761308D01*
X1006022Y760844D02*
X1006114Y761137D01*
X1006000Y759881D02*
X1006022Y760844D01*
X1006000Y759881D02*
X1006277Y758411D01*
X1006868Y756995D01*
X1007446Y756122D01*
X1007695Y755888D01*
X1007837Y755755D01*
X1008792Y755343D01*
X1010145Y755254D01*
X1010487Y755281D01*
X1010764Y755305D01*
X1011599Y755408D01*
X1012367Y755631D01*
X1013037Y756062D01*
X1013655Y756626D01*
X1013856Y756819D01*
X1014049Y757009D01*
X1014656Y757654D01*
X1015804Y758907D01*
X1017141Y760410D01*
X1018180Y761598D01*
X1018522Y761994D01*
X1019078Y762645D01*
X1020828Y764525D01*
X1022773Y766324D01*
X1024324Y767368D01*
X1025187Y767672D01*
X1025455Y767631D01*
X1025542Y767621D01*
X1025797Y767477D01*
X1026022Y767043D01*
X1026163Y766194D01*
X1026242Y765149D01*
X1026261Y764799D01*
X1026318Y763660D01*
X1026790Y760250D01*
X1027872Y755953D01*
X1029440Y752107D01*
X1030862Y749641D01*
X1031437Y748898D01*
X1031605Y748681D01*
X1032907Y747381D01*
X1034437Y746150D01*
X1034719Y745963D01*
X1035091Y745721D01*
X1036637Y744964D01*
X1037972Y744750D01*
X1038240Y744777D01*
X1118332Y309665D02*
X1117499Y310498D01*
X1115833D01*
X1115000Y309665D01*
Y306333D01*
X1115833Y305500D01*
X1117499D01*
X1118332Y306333D01*
X1123331Y305500D02*
X1119998D01*
X1123331Y308832D01*
Y309665D01*
X1122498Y310498D01*
X1120832D01*
X1119998Y309665D01*
X1118582Y299415D02*
X1117749Y300248D01*
X1116083D01*
X1115250Y299415D01*
Y296083D01*
X1116083Y295250D01*
X1117749D01*
X1118582Y296083D01*
X1120248Y295250D02*
X1121915D01*
X1121082D01*
Y300248D01*
X1120248Y299415D01*
X1157918Y264835D02*
X1158751Y264002D01*
X1160417D01*
X1161250Y264835D01*
Y268167D01*
X1160417Y269000D01*
X1158751D01*
X1157918Y268167D01*
X1156252Y264835D02*
X1155419Y264002D01*
X1153753D01*
X1152919Y264835D01*
Y265668D01*
X1153753Y266501D01*
X1154586D01*
X1153753D01*
X1152919Y267334D01*
Y268167D01*
X1153753Y269000D01*
X1155419D01*
X1156252Y268167D01*
X1117832Y249665D02*
X1116999Y250498D01*
X1115333D01*
X1114500Y249665D01*
Y246333D01*
X1115333Y245500D01*
X1116999D01*
X1117832Y246333D01*
X1122831Y250498D02*
X1119499D01*
Y247999D01*
X1121165Y248832D01*
X1121998D01*
X1122831Y247999D01*
Y246333D01*
X1121998Y245500D01*
X1120332D01*
X1119499Y246333D01*
X1112750Y730250D02*
X1116749D01*
Y728251D01*
X1116082Y727584D01*
X1114750D01*
X1114083Y728251D01*
Y730250D01*
Y728917D02*
X1112750Y727584D01*
X1116082Y726251D02*
X1116749Y725585D01*
Y724252D01*
X1116082Y723586D01*
X1115416D01*
X1114750Y724252D01*
Y724918D01*
Y724252D01*
X1114083Y723586D01*
X1113417D01*
X1112750Y724252D01*
Y725585D01*
X1113417Y726251D01*
X1115500Y743249D02*
Y739250D01*
X1118166D01*
X1122165D02*
X1119499D01*
X1122165Y741916D01*
Y742582D01*
X1121498Y743249D01*
X1120165D01*
X1119499Y742582D01*
X1112835Y754332D02*
X1112002Y753499D01*
Y751833D01*
X1112835Y751000D01*
X1116167D01*
X1117000Y751833D01*
Y753499D01*
X1116167Y754332D01*
X1112002Y759331D02*
X1112835Y757664D01*
X1114501Y755998D01*
X1116167D01*
X1117000Y756831D01*
Y758497D01*
X1116167Y759331D01*
X1115334D01*
X1114501Y758497D01*
Y755998D01*
X1046500Y730500D02*
X1050499D01*
Y728501D01*
X1049832Y727834D01*
X1048500D01*
X1047833Y728501D01*
Y730500D01*
Y729167D02*
X1046500Y727834D01*
Y724502D02*
X1050499D01*
X1048500Y726501D01*
Y723836D01*
X1086165Y767918D02*
X1086999Y768751D01*
Y770417D01*
X1086165Y771250D01*
X1082833D01*
X1082000Y770417D01*
Y768751D01*
X1082833Y767918D01*
X1086999Y766252D02*
Y762919D01*
X1086165D01*
X1082833Y766252D01*
X1082000D01*
X1096999Y769500D02*
X1093000D01*
Y767501D01*
X1093667Y766834D01*
X1096332D01*
X1096999Y767501D01*
Y769500D01*
X1093000Y765501D02*
Y764168D01*
Y764835D01*
X1096999D01*
X1096332Y765501D01*
X1106250Y773499D02*
Y769500D01*
X1108916D01*
X1110249Y772832D02*
X1110915Y773499D01*
X1112248D01*
X1112915Y772832D01*
Y772166D01*
X1112248Y771499D01*
X1111582D01*
X1112248D01*
X1112915Y770833D01*
Y770166D01*
X1112248Y769500D01*
X1110915D01*
X1110249Y770166D01*
X1140585Y356082D02*
X1139752Y355249D01*
Y353583D01*
X1140585Y352750D01*
X1143917D01*
X1144750Y353583D01*
Y355249D01*
X1143917Y356082D01*
Y357748D02*
X1144750Y358581D01*
Y360247D01*
X1143917Y361081D01*
X1140585D01*
X1139752Y360247D01*
Y358581D01*
X1140585Y357748D01*
X1141418D01*
X1142251Y358581D01*
Y361081D01*
X1131085Y373582D02*
X1130252Y372749D01*
Y371083D01*
X1131085Y370250D01*
X1134417D01*
X1135250Y371083D01*
Y372749D01*
X1134417Y373582D01*
X1135250Y375248D02*
Y376914D01*
Y376081D01*
X1130252D01*
X1131085Y375248D01*
Y379414D02*
X1130252Y380247D01*
Y381913D01*
X1131085Y382746D01*
X1134417D01*
X1135250Y381913D01*
Y380247D01*
X1134417Y379414D01*
X1131085D01*
X1134415Y401918D02*
X1135248Y402751D01*
Y404417D01*
X1134415Y405250D01*
X1131083D01*
X1130250Y404417D01*
Y402751D01*
X1131083Y401918D01*
X1130250Y400252D02*
Y398586D01*
Y399418D01*
X1135248D01*
X1134415Y400252D01*
X1130250Y396086D02*
Y394420D01*
Y395253D01*
X1135248D01*
X1134415Y396086D01*
X1007500Y347499D02*
Y343500D01*
X1009500D01*
X1010166Y344166D01*
Y346832D01*
X1009500Y347499D01*
X1007500D01*
X1014165Y343500D02*
X1011499D01*
X1014165Y346166D01*
Y346832D01*
X1013498Y347499D01*
X1012165D01*
X1011499Y346832D01*
X1047335Y362832D02*
X1046502Y361999D01*
Y360333D01*
X1047335Y359500D01*
X1050667D01*
X1051500Y360333D01*
Y361999D01*
X1050667Y362832D01*
X1047335Y364498D02*
X1046502Y365331D01*
Y366997D01*
X1047335Y367831D01*
X1048168D01*
X1049001Y366997D01*
X1049834Y367831D01*
X1050667D01*
X1051500Y366997D01*
Y365331D01*
X1050667Y364498D01*
X1049834D01*
X1049001Y365331D01*
X1048168Y364498D01*
X1047335D01*
X1049001Y365331D02*
Y366997D01*
X1143415Y402668D02*
X1144249Y403501D01*
Y405167D01*
X1143415Y406000D01*
X1140083D01*
X1139250Y405167D01*
Y403501D01*
X1140083Y402668D01*
X1139250Y401002D02*
Y399336D01*
Y400168D01*
X1144249D01*
X1143415Y401002D01*
X1139250Y393504D02*
Y396836D01*
X1142582Y393504D01*
X1143415D01*
X1144249Y394337D01*
Y396003D01*
X1143415Y396836D01*
X1114082Y803248D02*
X1112416D01*
X1113249D01*
Y799083D01*
X1112416Y798250D01*
X1111583D01*
X1110750Y799083D01*
X1115749Y798250D02*
X1117415D01*
X1116582D01*
Y803248D01*
X1115749Y802415D01*
X968001Y215916D02*
Y213250D01*
X970001D01*
Y214583D01*
Y213250D01*
X972000D01*
Y217249D02*
Y218582D01*
Y217915D01*
X969334D01*
Y217249D01*
X968001Y223247D02*
X972000D01*
Y221247D01*
X971334Y220581D01*
X970001D01*
X969334Y221247D01*
Y223247D01*
X972000Y224580D02*
Y225912D01*
Y225246D01*
X968001D01*
X968668Y224580D01*
X1180001Y216416D02*
Y213750D01*
X1182001D01*
Y215083D01*
Y213750D01*
X1184000D01*
Y217749D02*
Y219082D01*
Y218415D01*
X1181334D01*
Y217749D01*
X1180001Y223747D02*
X1184000D01*
Y221747D01*
X1183334Y221081D01*
X1182001D01*
X1181334Y221747D01*
Y223747D01*
X1184000Y227745D02*
Y225080D01*
X1181334Y227745D01*
X1180668D01*
X1180001Y227079D01*
Y225746D01*
X1180668Y225080D01*
X1180001Y801416D02*
Y798750D01*
X1182001D01*
Y800083D01*
Y798750D01*
X1184000D01*
Y802749D02*
Y804082D01*
Y803415D01*
X1181334D01*
Y802749D01*
X1180001Y808747D02*
X1184000D01*
Y806747D01*
X1183334Y806081D01*
X1182001D01*
X1181334Y806747D01*
Y808747D01*
X1180668Y810080D02*
X1180001Y810746D01*
Y812079D01*
X1180668Y812745D01*
X1181334D01*
X1182001Y812079D01*
Y811413D01*
Y812079D01*
X1182667Y812745D01*
X1183334D01*
X1184000Y812079D01*
Y810746D01*
X1183334Y810080D01*
X1249702Y706520D02*
G03*
X1249702Y706520I-3162J0D01*
G01*
X1369062Y282000D02*
G03*
X1369062Y282000I-2062J0D01*
G01*
X1326000Y393250D02*
G03*
X1326000Y393250I-5000J0D01*
G01*
X1232250Y217250D02*
G03*
X1232250Y217250I-10000J0D01*
G01*
X1444250Y217750D02*
G03*
X1444250Y217750I-10000J0D01*
G01*
Y802750D02*
G03*
X1444250Y802750I-10000J0D01*
G01*
X1252540Y715520D02*
X1412540D01*
Y455520D02*
Y715520D01*
X1252540Y455520D02*
X1412540D01*
X1252540D02*
Y715520D01*
X1361250Y311000D02*
X1367750D01*
X1361250Y304000D02*
Y311000D01*
Y304000D02*
X1367750D01*
X1372750Y311000D02*
X1379250D01*
Y304000D02*
Y311000D01*
X1372750Y304000D02*
X1379250D01*
X1361250Y301000D02*
X1367750D01*
X1361250Y294000D02*
Y301000D01*
Y294000D02*
X1367750D01*
X1372750Y301000D02*
X1379250D01*
Y294000D02*
Y301000D01*
X1372750Y294000D02*
X1379250D01*
X1354499Y257001D02*
Y288001D01*
X1323499Y257001D02*
Y288001D01*
X1354499D01*
X1323499Y257001D02*
X1354499D01*
X1363501Y259501D02*
X1389501D01*
X1363501Y285501D02*
X1389501D01*
Y259501D02*
Y285501D01*
X1363501Y259501D02*
Y285501D01*
X1398750Y270500D02*
X1405250D01*
X1398750Y263500D02*
Y270500D01*
Y263500D02*
X1405250D01*
X1410250Y270500D02*
X1416750D01*
Y263500D02*
Y270500D01*
X1410250Y263500D02*
X1416750D01*
X1361750Y251750D02*
X1368250D01*
X1361750Y244750D02*
Y251750D01*
Y244750D02*
X1368250D01*
X1373250Y251750D02*
X1379750D01*
Y244750D02*
Y251750D01*
X1373250Y244750D02*
X1379750D01*
X1361810Y717740D02*
Y723990D01*
Y717740D02*
X1369310D01*
Y723990D01*
Y728990D02*
Y735240D01*
X1361810D02*
X1369310D01*
X1361810Y728990D02*
Y735240D01*
X1361250Y737500D02*
X1367750D01*
X1361250D02*
Y744500D01*
X1367750D01*
X1372750D02*
X1379250D01*
Y737500D02*
Y744500D01*
X1372750Y737500D02*
X1379250D01*
X1362000Y746500D02*
Y753000D01*
Y746500D02*
X1369000D01*
Y753000D01*
X1362000Y758000D02*
Y764500D01*
X1369000D01*
Y758000D02*
Y764500D01*
X1295750Y718250D02*
Y724500D01*
Y718250D02*
X1303250D01*
Y724500D01*
Y729500D02*
Y735750D01*
X1295750D02*
X1303250D01*
X1295750Y729500D02*
Y735750D01*
X1339000Y768750D02*
Y775250D01*
X1332000D02*
X1339000D01*
X1332000Y768750D02*
Y775250D01*
X1339000Y757250D02*
Y763750D01*
X1332000Y757250D02*
X1339000D01*
X1332000D02*
Y763750D01*
X1349500Y768750D02*
Y775000D01*
X1342000D02*
X1349500D01*
X1342000Y768750D02*
Y775000D01*
Y757500D02*
Y763750D01*
Y757500D02*
X1349500D01*
Y763750D01*
X1363250Y774750D02*
X1369750D01*
Y767750D02*
Y774750D01*
X1363250Y767750D02*
X1369750D01*
X1351750D02*
X1358250D01*
X1351750D02*
Y774750D01*
X1358250D01*
X1389750Y348250D02*
Y354750D01*
Y348250D02*
X1396750D01*
Y354750D01*
X1389750Y359750D02*
Y366250D01*
X1396750D01*
Y359750D02*
Y366250D01*
X1380250Y368000D02*
Y374500D01*
Y368000D02*
X1387250D01*
Y374500D01*
X1380250Y379500D02*
Y386000D01*
X1387250D01*
Y379500D02*
Y386000D01*
Y402250D02*
Y408750D01*
X1380250D02*
X1387250D01*
X1380250Y402250D02*
Y408750D01*
X1387250Y390750D02*
Y397250D01*
X1380250Y390750D02*
X1387250D01*
X1380250D02*
Y397250D01*
X1253000Y349000D02*
X1259250D01*
X1253000Y341500D02*
Y349000D01*
Y341500D02*
X1259250D01*
X1264250D02*
X1270500D01*
Y349000D01*
X1264250D02*
X1270500D01*
X1296500Y355500D02*
Y362000D01*
Y355500D02*
X1303500D01*
Y362000D01*
X1296500Y367000D02*
Y373500D01*
X1303500D01*
Y367000D02*
Y373500D01*
X1312500Y400750D02*
X1372500D01*
X1312500Y350750D02*
X1372500D01*
Y400750D01*
X1312500Y350750D02*
Y400750D01*
X1396250Y402250D02*
Y408750D01*
X1389250D02*
X1396250D01*
X1389250Y402250D02*
Y408750D01*
X1396250Y390750D02*
Y397250D01*
X1389250Y390750D02*
X1396250D01*
X1389250D02*
Y397250D01*
X1380500Y785500D02*
Y787500D01*
X1371500Y785500D02*
X1380500D01*
X1350500D02*
X1359500D01*
X1350500D02*
Y787500D01*
X1380500Y811500D02*
Y816500D01*
X1350500D02*
X1380500D01*
X1350500Y811500D02*
Y816500D01*
X1289240Y744777D02*
X1289441Y744799D01*
X1290323Y744899D01*
X1290838Y744964D01*
X1290860Y744970D01*
X1290879Y744975D01*
X1291310Y745314D01*
X1292023Y745933D01*
X1292186Y746079D01*
X1292449Y746321D01*
X1293062Y747240D01*
X1293564Y748778D01*
X1293692Y750715D01*
X1293545Y752486D02*
X1293692Y750715D01*
X1293450Y753067D02*
X1293545Y752486D01*
X1293396Y753398D02*
X1293450Y753067D01*
X1293171Y754377D02*
X1293396Y753398D01*
X1292748Y755649D02*
X1293171Y754377D01*
X1292113Y757057D02*
X1292748Y755649D01*
X1291438Y758346D02*
X1292113Y757057D01*
X1291204Y758766D02*
X1291438Y758346D01*
X1290806Y759480D02*
X1291204Y758766D01*
X1289471Y761542D02*
X1290806Y759480D01*
X1287520Y764013D02*
X1289471Y761542D01*
X1285288Y766253D02*
X1287520Y764013D01*
X1283381Y767848D02*
X1285288Y766253D01*
X1282716Y768334D02*
X1283381Y767848D01*
X1282355Y768597D02*
X1282716Y768334D01*
X1281292Y769408D02*
X1282355Y768597D01*
X1280516Y770113D02*
X1281292Y769408D01*
X1280234Y770621D02*
X1280516Y770113D01*
X1280234Y770621D02*
X1280259Y770992D01*
X1280299Y771104D01*
X1280343Y771234D01*
X1280625Y771576D01*
X1281485Y772023D01*
X1283248Y772590D01*
X1285532Y773220D01*
X1286294Y773420D01*
X1286897Y773580D01*
X1288695Y774093D01*
X1291009Y774804D01*
X1292973Y775463D01*
X1294004Y775845D01*
X1294321Y775989D01*
X1294622Y776127D01*
X1295517Y776572D01*
X1296272Y777058D01*
X1296714Y777557D01*
X1296933Y778024D01*
X1296985Y778184D01*
X1297085Y778509D01*
X1296993Y779974D02*
X1297085Y778509D01*
X1296179Y781029D02*
X1296993Y779974D01*
X1295919Y781149D02*
X1296179Y781029D01*
X1295488Y781347D02*
X1295919Y781149D01*
X1293580Y782006D02*
X1295488Y781347D01*
X1291695Y782299D02*
X1293580Y782006D01*
X1291277Y782315D02*
X1291695Y782299D01*
X1291006Y782326D02*
X1291277Y782315D01*
X1290193Y782277D02*
X1291006Y782326D01*
X1289029Y782003D02*
X1290193Y782277D01*
X1287461Y781390D02*
X1289029Y782003D01*
X1285741Y780601D02*
X1287461Y781390D01*
X1285174Y780330D02*
X1285741Y780601D01*
X1284762Y780134D02*
X1285174Y780330D01*
X1283530Y779529D02*
X1284762Y780134D01*
X1282236Y778840D02*
X1283530Y779529D01*
X1281230Y778195D02*
X1282236Y778840D01*
X1280443Y777538D02*
X1281230Y778195D01*
X1279814Y776800D02*
X1280443Y777538D01*
X1279277Y775921D02*
X1279814Y776800D01*
X1278772Y774842D02*
X1279277Y775921D01*
X1278365Y773830D02*
X1278772Y774842D01*
X1278235Y773491D02*
X1278365Y773830D01*
X1278105Y773154D02*
X1278235Y773491D01*
X1277443Y771763D02*
X1278105Y773154D01*
X1276914Y771039D02*
X1277443Y771763D01*
X1276854Y771036D02*
X1276914Y771039D01*
X1275986Y771017D02*
X1276854Y771036D01*
X1273382Y770922D02*
X1275986Y771017D01*
X1271060Y770602D02*
X1273382Y770922D01*
X1268817Y769815D02*
X1271060Y770602D01*
X1266391Y768689D02*
X1268817Y769815D01*
X1265589Y768304D02*
X1266391Y768689D01*
X1264878Y767965D02*
X1265589Y768304D01*
X1262759Y766918D02*
X1264878Y767965D01*
X1261001Y765936D02*
X1262759Y766918D01*
X1259876Y765084D02*
X1261001Y765936D01*
X1259165Y764346D02*
X1259876Y765084D01*
X1258948Y764086D02*
X1259165Y764346D01*
X1258747Y763850D02*
X1258948Y764086D01*
X1257811Y762510D02*
X1258747Y763850D01*
X1257166Y761308D02*
X1257811Y762510D01*
X1257114Y761137D02*
X1257166Y761308D01*
X1257022Y760844D02*
X1257114Y761137D01*
X1257000Y759881D02*
X1257022Y760844D01*
X1257000Y759881D02*
X1257277Y758411D01*
X1257868Y756995D01*
X1258446Y756122D01*
X1258696Y755888D01*
X1258837Y755755D01*
X1259791Y755343D01*
X1261145Y755254D01*
X1261487Y755281D01*
X1261764Y755305D01*
X1262599Y755408D01*
X1263367Y755631D01*
X1264037Y756062D01*
X1264655Y756626D01*
X1264856Y756819D01*
X1265049Y757009D01*
X1265656Y757654D01*
X1266804Y758907D01*
X1268141Y760410D01*
X1269180Y761598D01*
X1269522Y761994D01*
X1270078Y762645D01*
X1271828Y764525D01*
X1273773Y766324D01*
X1275324Y767368D01*
X1276187Y767672D01*
X1276456Y767631D01*
X1276542Y767621D01*
X1276797Y767477D01*
X1277022Y767043D01*
X1277163Y766194D01*
X1277242Y765149D01*
X1277261Y764799D01*
X1277318Y763660D01*
X1277790Y760250D01*
X1278872Y755953D01*
X1280440Y752107D01*
X1281862Y749641D01*
X1282437Y748898D01*
X1282605Y748681D01*
X1283907Y747381D01*
X1285437Y746150D01*
X1285719Y745963D01*
X1286091Y745721D01*
X1287637Y744964D01*
X1288972Y744750D01*
X1289240Y744777D01*
X1289441Y744799D01*
X1290323Y744899D01*
X1290838Y744964D01*
X1290860Y744970D01*
X1290879Y744975D01*
X1291310Y745314D01*
X1292023Y745933D01*
X1292186Y746079D01*
X1292449Y746321D01*
X1293062Y747240D01*
X1293564Y748778D01*
X1293692Y750715D01*
X1293545Y752486D02*
X1293692Y750715D01*
X1293450Y753067D02*
X1293545Y752486D01*
X1293396Y753398D02*
X1293450Y753067D01*
X1293171Y754377D02*
X1293396Y753398D01*
X1292748Y755649D02*
X1293171Y754377D01*
X1292113Y757057D02*
X1292748Y755649D01*
X1291438Y758346D02*
X1292113Y757057D01*
X1291204Y758766D02*
X1291438Y758346D01*
X1290806Y759480D02*
X1291204Y758766D01*
X1289471Y761542D02*
X1290806Y759480D01*
X1287520Y764013D02*
X1289471Y761542D01*
X1285288Y766253D02*
X1287520Y764013D01*
X1283381Y767848D02*
X1285288Y766253D01*
X1282716Y768334D02*
X1283381Y767848D01*
X1282355Y768597D02*
X1282716Y768334D01*
X1281292Y769408D02*
X1282355Y768597D01*
X1280516Y770113D02*
X1281292Y769408D01*
X1280234Y770621D02*
X1280516Y770113D01*
X1280234Y770621D02*
X1280259Y770992D01*
X1280299Y771104D01*
X1280343Y771234D01*
X1280625Y771576D01*
X1281485Y772023D01*
X1283248Y772590D01*
X1285532Y773220D01*
X1286294Y773420D01*
X1286897Y773580D01*
X1288695Y774093D01*
X1291009Y774804D01*
X1292973Y775463D01*
X1294004Y775845D01*
X1294321Y775989D01*
X1294622Y776127D01*
X1295517Y776572D01*
X1296272Y777058D01*
X1296714Y777557D01*
X1296933Y778024D01*
X1296985Y778184D01*
X1297085Y778509D01*
X1296993Y779974D02*
X1297085Y778509D01*
X1296179Y781029D02*
X1296993Y779974D01*
X1295919Y781149D02*
X1296179Y781029D01*
X1295488Y781347D02*
X1295919Y781149D01*
X1293580Y782006D02*
X1295488Y781347D01*
X1291695Y782299D02*
X1293580Y782006D01*
X1291277Y782315D02*
X1291695Y782299D01*
X1291006Y782326D02*
X1291277Y782315D01*
X1290193Y782277D02*
X1291006Y782326D01*
X1289029Y782003D02*
X1290193Y782277D01*
X1287461Y781390D02*
X1289029Y782003D01*
X1285741Y780601D02*
X1287461Y781390D01*
X1285174Y780330D02*
X1285741Y780601D01*
X1284762Y780134D02*
X1285174Y780330D01*
X1283530Y779529D02*
X1284762Y780134D01*
X1282236Y778840D02*
X1283530Y779529D01*
X1281230Y778195D02*
X1282236Y778840D01*
X1280443Y777538D02*
X1281230Y778195D01*
X1279814Y776800D02*
X1280443Y777538D01*
X1279277Y775921D02*
X1279814Y776800D01*
X1278772Y774842D02*
X1279277Y775921D01*
X1278365Y773830D02*
X1278772Y774842D01*
X1278235Y773491D02*
X1278365Y773830D01*
X1278105Y773154D02*
X1278235Y773491D01*
X1277443Y771763D02*
X1278105Y773154D01*
X1276914Y771039D02*
X1277443Y771763D01*
X1276854Y771036D02*
X1276914Y771039D01*
X1275986Y771017D02*
X1276854Y771036D01*
X1273382Y770922D02*
X1275986Y771017D01*
X1271060Y770602D02*
X1273382Y770922D01*
X1268817Y769815D02*
X1271060Y770602D01*
X1266391Y768689D02*
X1268817Y769815D01*
X1265589Y768304D02*
X1266391Y768689D01*
X1264878Y767965D02*
X1265589Y768304D01*
X1262759Y766918D02*
X1264878Y767965D01*
X1261001Y765936D02*
X1262759Y766918D01*
X1259876Y765084D02*
X1261001Y765936D01*
X1259165Y764346D02*
X1259876Y765084D01*
X1258948Y764086D02*
X1259165Y764346D01*
X1258747Y763850D02*
X1258948Y764086D01*
X1257811Y762510D02*
X1258747Y763850D01*
X1257166Y761308D02*
X1257811Y762510D01*
X1257114Y761137D02*
X1257166Y761308D01*
X1257022Y760844D02*
X1257114Y761137D01*
X1257000Y759881D02*
X1257022Y760844D01*
X1257000Y759881D02*
X1257277Y758411D01*
X1257868Y756995D01*
X1258446Y756122D01*
X1258696Y755888D01*
X1258837Y755755D01*
X1259791Y755343D01*
X1261145Y755254D01*
X1261487Y755281D01*
X1261764Y755305D01*
X1262599Y755408D01*
X1263367Y755631D01*
X1264037Y756062D01*
X1264655Y756626D01*
X1264856Y756819D01*
X1265049Y757009D01*
X1265656Y757654D01*
X1266804Y758907D01*
X1268141Y760410D01*
X1269180Y761598D01*
X1269522Y761994D01*
X1270078Y762645D01*
X1271828Y764525D01*
X1273773Y766324D01*
X1275324Y767368D01*
X1276187Y767672D01*
X1276456Y767631D01*
X1276542Y767621D01*
X1276797Y767477D01*
X1277022Y767043D01*
X1277163Y766194D01*
X1277242Y765149D01*
X1277261Y764799D01*
X1277318Y763660D01*
X1277790Y760250D01*
X1278872Y755953D01*
X1280440Y752107D01*
X1281862Y749641D01*
X1282437Y748898D01*
X1282605Y748681D01*
X1283907Y747381D01*
X1285437Y746150D01*
X1285719Y745963D01*
X1286091Y745721D01*
X1287637Y744964D01*
X1288972Y744750D01*
X1289240Y744777D01*
X1369332Y309665D02*
X1368499Y310498D01*
X1366833D01*
X1366000Y309665D01*
Y306333D01*
X1366833Y305500D01*
X1368499D01*
X1369332Y306333D01*
X1374331Y305500D02*
X1370999D01*
X1374331Y308832D01*
Y309665D01*
X1373498Y310498D01*
X1371832D01*
X1370999Y309665D01*
X1369582Y299415D02*
X1368749Y300248D01*
X1367083D01*
X1366250Y299415D01*
Y296083D01*
X1367083Y295250D01*
X1368749D01*
X1369582Y296083D01*
X1371248Y295250D02*
X1372915D01*
X1372082D01*
Y300248D01*
X1371248Y299415D01*
X1408918Y264835D02*
X1409751Y264002D01*
X1411417D01*
X1412250Y264835D01*
Y268167D01*
X1411417Y269000D01*
X1409751D01*
X1408918Y268167D01*
X1407252Y264835D02*
X1406419Y264002D01*
X1404753D01*
X1403920Y264835D01*
Y265668D01*
X1404753Y266501D01*
X1405586D01*
X1404753D01*
X1403920Y267334D01*
Y268167D01*
X1404753Y269000D01*
X1406419D01*
X1407252Y268167D01*
X1368832Y249665D02*
X1367999Y250498D01*
X1366333D01*
X1365500Y249665D01*
Y246333D01*
X1366333Y245500D01*
X1367999D01*
X1368832Y246333D01*
X1373831Y250498D02*
X1370499D01*
Y247999D01*
X1372165Y248832D01*
X1372998D01*
X1373831Y247999D01*
Y246333D01*
X1372998Y245500D01*
X1371332D01*
X1370499Y246333D01*
X1363750Y730250D02*
X1367749D01*
Y728251D01*
X1367082Y727584D01*
X1365750D01*
X1365083Y728251D01*
Y730250D01*
Y728917D02*
X1363750Y727584D01*
X1367082Y726251D02*
X1367749Y725585D01*
Y724252D01*
X1367082Y723586D01*
X1366416D01*
X1365750Y724252D01*
Y724918D01*
Y724252D01*
X1365083Y723586D01*
X1364417D01*
X1363750Y724252D01*
Y725585D01*
X1364417Y726251D01*
X1366500Y743249D02*
Y739250D01*
X1369166D01*
X1373165D02*
X1370499D01*
X1373165Y741916D01*
Y742582D01*
X1372498Y743249D01*
X1371165D01*
X1370499Y742582D01*
X1363835Y754332D02*
X1363002Y753499D01*
Y751833D01*
X1363835Y751000D01*
X1367167D01*
X1368000Y751833D01*
Y753499D01*
X1367167Y754332D01*
X1363002Y759331D02*
X1363835Y757664D01*
X1365501Y755998D01*
X1367167D01*
X1368000Y756831D01*
Y758497D01*
X1367167Y759331D01*
X1366334D01*
X1365501Y758497D01*
Y755998D01*
X1297500Y730500D02*
X1301499D01*
Y728501D01*
X1300832Y727834D01*
X1299500D01*
X1298833Y728501D01*
Y730500D01*
Y729167D02*
X1297500Y727834D01*
Y724502D02*
X1301499D01*
X1299500Y726501D01*
Y723836D01*
X1337166Y767918D02*
X1337999Y768751D01*
Y770417D01*
X1337166Y771250D01*
X1333833D01*
X1333000Y770417D01*
Y768751D01*
X1333833Y767918D01*
X1337999Y766252D02*
Y762919D01*
X1337166D01*
X1333833Y766252D01*
X1333000D01*
X1347999Y769500D02*
X1344000D01*
Y767501D01*
X1344667Y766834D01*
X1347332D01*
X1347999Y767501D01*
Y769500D01*
X1344000Y765501D02*
Y764168D01*
Y764835D01*
X1347999D01*
X1347332Y765501D01*
X1357250Y773499D02*
Y769500D01*
X1359916D01*
X1361249Y772832D02*
X1361915Y773499D01*
X1363248D01*
X1363915Y772832D01*
Y772166D01*
X1363248Y771499D01*
X1362582D01*
X1363248D01*
X1363915Y770833D01*
Y770166D01*
X1363248Y769500D01*
X1361915D01*
X1361249Y770166D01*
X1391585Y356082D02*
X1390752Y355249D01*
Y353583D01*
X1391585Y352750D01*
X1394917D01*
X1395750Y353583D01*
Y355249D01*
X1394917Y356082D01*
Y357748D02*
X1395750Y358581D01*
Y360247D01*
X1394917Y361081D01*
X1391585D01*
X1390752Y360247D01*
Y358581D01*
X1391585Y357748D01*
X1392418D01*
X1393251Y358581D01*
Y361081D01*
X1382085Y373582D02*
X1381252Y372749D01*
Y371083D01*
X1382085Y370250D01*
X1385417D01*
X1386250Y371083D01*
Y372749D01*
X1385417Y373582D01*
X1386250Y375248D02*
Y376914D01*
Y376081D01*
X1381252D01*
X1382085Y375248D01*
Y379414D02*
X1381252Y380247D01*
Y381913D01*
X1382085Y382746D01*
X1385417D01*
X1386250Y381913D01*
Y380247D01*
X1385417Y379414D01*
X1382085D01*
X1385415Y401918D02*
X1386248Y402751D01*
Y404417D01*
X1385415Y405250D01*
X1382083D01*
X1381250Y404417D01*
Y402751D01*
X1382083Y401918D01*
X1381250Y400252D02*
Y398586D01*
Y399418D01*
X1386248D01*
X1385415Y400252D01*
X1381250Y396086D02*
Y394420D01*
Y395253D01*
X1386248D01*
X1385415Y396086D01*
X1258500Y347499D02*
Y343500D01*
X1260499D01*
X1261166Y344166D01*
Y346832D01*
X1260499Y347499D01*
X1258500D01*
X1265165Y343500D02*
X1262499D01*
X1265165Y346166D01*
Y346832D01*
X1264498Y347499D01*
X1263165D01*
X1262499Y346832D01*
X1298335Y362832D02*
X1297502Y361999D01*
Y360333D01*
X1298335Y359500D01*
X1301667D01*
X1302500Y360333D01*
Y361999D01*
X1301667Y362832D01*
X1298335Y364498D02*
X1297502Y365331D01*
Y366997D01*
X1298335Y367831D01*
X1299168D01*
X1300001Y366997D01*
X1300834Y367831D01*
X1301667D01*
X1302500Y366997D01*
Y365331D01*
X1301667Y364498D01*
X1300834D01*
X1300001Y365331D01*
X1299168Y364498D01*
X1298335D01*
X1300001Y365331D02*
Y366997D01*
X1394415Y402668D02*
X1395249Y403501D01*
Y405167D01*
X1394415Y406000D01*
X1391083D01*
X1390250Y405167D01*
Y403501D01*
X1391083Y402668D01*
X1390250Y401002D02*
Y399336D01*
Y400168D01*
X1395249D01*
X1394415Y401002D01*
X1390250Y393504D02*
Y396836D01*
X1393582Y393504D01*
X1394415D01*
X1395249Y394337D01*
Y396003D01*
X1394415Y396836D01*
X1365082Y803248D02*
X1363416D01*
X1364249D01*
Y799083D01*
X1363416Y798250D01*
X1362583D01*
X1361750Y799083D01*
X1366749Y798250D02*
X1368415D01*
X1367582D01*
Y803248D01*
X1366749Y802415D01*
X1219001Y215916D02*
Y213250D01*
X1221001D01*
Y214583D01*
Y213250D01*
X1223000D01*
Y217249D02*
Y218582D01*
Y217915D01*
X1220334D01*
Y217249D01*
X1219001Y223247D02*
X1223000D01*
Y221247D01*
X1222334Y220581D01*
X1221001D01*
X1220334Y221247D01*
Y223247D01*
X1223000Y224580D02*
Y225912D01*
Y225246D01*
X1219001D01*
X1219668Y224580D01*
X1431001Y216416D02*
Y213750D01*
X1433001D01*
Y215083D01*
Y213750D01*
X1435000D01*
Y217749D02*
Y219082D01*
Y218415D01*
X1432334D01*
Y217749D01*
X1431001Y223747D02*
X1435000D01*
Y221747D01*
X1434334Y221081D01*
X1433001D01*
X1432334Y221747D01*
Y223747D01*
X1435000Y227745D02*
Y225080D01*
X1432334Y227745D01*
X1431668D01*
X1431001Y227079D01*
Y225746D01*
X1431668Y225080D01*
X1431001Y801416D02*
Y798750D01*
X1433001D01*
Y800083D01*
Y798750D01*
X1435000D01*
Y802749D02*
Y804082D01*
Y803415D01*
X1432334D01*
Y802749D01*
X1431001Y808747D02*
X1435000D01*
Y806747D01*
X1434334Y806081D01*
X1433001D01*
X1432334Y806747D01*
Y808747D01*
X1431668Y810080D02*
X1431001Y810746D01*
Y812079D01*
X1431668Y812745D01*
X1432334D01*
X1433001Y812079D01*
Y811413D01*
Y812079D01*
X1433667Y812745D01*
X1434334D01*
X1435000Y812079D01*
Y810746D01*
X1434334Y810080D01*
X1500703Y706520D02*
G03*
X1500703Y706520I-3162J0D01*
G01*
X1620062Y282000D02*
G03*
X1620062Y282000I-2062J0D01*
G01*
X1577000Y393250D02*
G03*
X1577000Y393250I-5000J0D01*
G01*
X1483250Y217250D02*
G03*
X1483250Y217250I-10000J0D01*
G01*
X1695250Y217750D02*
G03*
X1695250Y217750I-10000J0D01*
G01*
Y802750D02*
G03*
X1695250Y802750I-10000J0D01*
G01*
X1503540Y715520D02*
X1663540D01*
Y455520D02*
Y715520D01*
X1503540Y455520D02*
X1663540D01*
X1503540D02*
Y715520D01*
X1612250Y311000D02*
X1618750D01*
X1612250Y304000D02*
Y311000D01*
Y304000D02*
X1618750D01*
X1623750Y311000D02*
X1630250D01*
Y304000D02*
Y311000D01*
X1623750Y304000D02*
X1630250D01*
X1612250Y301000D02*
X1618750D01*
X1612250Y294000D02*
Y301000D01*
Y294000D02*
X1618750D01*
X1623750Y301000D02*
X1630250D01*
Y294000D02*
Y301000D01*
X1623750Y294000D02*
X1630250D01*
X1605499Y257001D02*
Y288001D01*
X1574499Y257001D02*
Y288001D01*
X1605499D01*
X1574499Y257001D02*
X1605499D01*
X1614501Y259501D02*
X1640501D01*
X1614501Y285501D02*
X1640501D01*
Y259501D02*
Y285501D01*
X1614501Y259501D02*
Y285501D01*
X1649750Y270500D02*
X1656250D01*
X1649750Y263500D02*
Y270500D01*
Y263500D02*
X1656250D01*
X1661250Y270500D02*
X1667750D01*
Y263500D02*
Y270500D01*
X1661250Y263500D02*
X1667750D01*
X1612750Y251750D02*
X1619250D01*
X1612750Y244750D02*
Y251750D01*
Y244750D02*
X1619250D01*
X1624250Y251750D02*
X1630750D01*
Y244750D02*
Y251750D01*
X1624250Y244750D02*
X1630750D01*
X1612810Y717740D02*
Y723990D01*
Y717740D02*
X1620310D01*
Y723990D01*
Y728990D02*
Y735240D01*
X1612810D02*
X1620310D01*
X1612810Y728990D02*
Y735240D01*
X1612250Y737500D02*
X1618750D01*
X1612250D02*
Y744500D01*
X1618750D01*
X1623750D02*
X1630250D01*
Y737500D02*
Y744500D01*
X1623750Y737500D02*
X1630250D01*
X1613000Y746500D02*
Y753000D01*
Y746500D02*
X1620000D01*
Y753000D01*
X1613000Y758000D02*
Y764500D01*
X1620000D01*
Y758000D02*
Y764500D01*
X1546750Y718250D02*
Y724500D01*
Y718250D02*
X1554250D01*
Y724500D01*
Y729500D02*
Y735750D01*
X1546750D02*
X1554250D01*
X1546750Y729500D02*
Y735750D01*
X1590000Y768750D02*
Y775250D01*
X1583000D02*
X1590000D01*
X1583000Y768750D02*
Y775250D01*
X1590000Y757250D02*
Y763750D01*
X1583000Y757250D02*
X1590000D01*
X1583000D02*
Y763750D01*
X1600500Y768750D02*
Y775000D01*
X1593000D02*
X1600500D01*
X1593000Y768750D02*
Y775000D01*
Y757500D02*
Y763750D01*
Y757500D02*
X1600500D01*
Y763750D01*
X1614250Y774750D02*
X1620750D01*
Y767750D02*
Y774750D01*
X1614250Y767750D02*
X1620750D01*
X1602750D02*
X1609250D01*
X1602750D02*
Y774750D01*
X1609250D01*
X1640750Y348250D02*
Y354750D01*
Y348250D02*
X1647750D01*
Y354750D01*
X1640750Y359750D02*
Y366250D01*
X1647750D01*
Y359750D02*
Y366250D01*
X1631250Y368000D02*
Y374500D01*
Y368000D02*
X1638250D01*
Y374500D01*
X1631250Y379500D02*
Y386000D01*
X1638250D01*
Y379500D02*
Y386000D01*
Y402250D02*
Y408750D01*
X1631250D02*
X1638250D01*
X1631250Y402250D02*
Y408750D01*
X1638250Y390750D02*
Y397250D01*
X1631250Y390750D02*
X1638250D01*
X1631250D02*
Y397250D01*
X1504000Y349000D02*
X1510250D01*
X1504000Y341500D02*
Y349000D01*
Y341500D02*
X1510250D01*
X1515250D02*
X1521500D01*
Y349000D01*
X1515250D02*
X1521500D01*
X1547500Y355500D02*
Y362000D01*
Y355500D02*
X1554500D01*
Y362000D01*
X1547500Y367000D02*
Y373500D01*
X1554500D01*
Y367000D02*
Y373500D01*
X1563500Y400750D02*
X1623500D01*
X1563500Y350750D02*
X1623500D01*
Y400750D01*
X1563500Y350750D02*
Y400750D01*
X1647250Y402250D02*
Y408750D01*
X1640250D02*
X1647250D01*
X1640250Y402250D02*
Y408750D01*
X1647250Y390750D02*
Y397250D01*
X1640250Y390750D02*
X1647250D01*
X1640250D02*
Y397250D01*
X1631500Y785500D02*
Y787500D01*
X1622500Y785500D02*
X1631500D01*
X1601500D02*
X1610500D01*
X1601500D02*
Y787500D01*
X1631500Y811500D02*
Y816500D01*
X1601500D02*
X1631500D01*
X1601500Y811500D02*
Y816500D01*
X1540240Y744777D02*
X1540441Y744799D01*
X1541323Y744899D01*
X1541838Y744964D01*
X1541860Y744970D01*
X1541879Y744975D01*
X1542310Y745314D01*
X1543024Y745933D01*
X1543186Y746079D01*
X1543449Y746321D01*
X1544062Y747240D01*
X1544564Y748778D01*
X1544692Y750715D01*
X1544545Y752486D02*
X1544692Y750715D01*
X1544450Y753067D02*
X1544545Y752486D01*
X1544396Y753398D02*
X1544450Y753067D01*
X1544171Y754377D02*
X1544396Y753398D01*
X1543748Y755649D02*
X1544171Y754377D01*
X1543113Y757057D02*
X1543748Y755649D01*
X1542438Y758346D02*
X1543113Y757057D01*
X1542204Y758766D02*
X1542438Y758346D01*
X1541806Y759480D02*
X1542204Y758766D01*
X1540471Y761542D02*
X1541806Y759480D01*
X1538520Y764013D02*
X1540471Y761542D01*
X1536288Y766253D02*
X1538520Y764013D01*
X1534381Y767848D02*
X1536288Y766253D01*
X1533716Y768334D02*
X1534381Y767848D01*
X1533356Y768597D02*
X1533716Y768334D01*
X1532292Y769408D02*
X1533356Y768597D01*
X1531516Y770113D02*
X1532292Y769408D01*
X1531234Y770621D02*
X1531516Y770113D01*
X1531234Y770621D02*
X1531259Y770992D01*
X1531299Y771104D01*
X1531343Y771234D01*
X1531625Y771576D01*
X1532485Y772023D01*
X1534248Y772590D01*
X1536532Y773220D01*
X1537294Y773420D01*
X1537897Y773580D01*
X1539695Y774093D01*
X1542009Y774804D01*
X1543973Y775463D01*
X1545004Y775845D01*
X1545321Y775989D01*
X1545622Y776127D01*
X1546517Y776572D01*
X1547272Y777058D01*
X1547714Y777557D01*
X1547933Y778024D01*
X1547985Y778184D01*
X1548085Y778509D01*
X1547993Y779974D02*
X1548085Y778509D01*
X1547179Y781029D02*
X1547993Y779974D01*
X1546919Y781149D02*
X1547179Y781029D01*
X1546488Y781347D02*
X1546919Y781149D01*
X1544581Y782006D02*
X1546488Y781347D01*
X1542695Y782299D02*
X1544581Y782006D01*
X1542278Y782315D02*
X1542695Y782299D01*
X1542006Y782326D02*
X1542278Y782315D01*
X1541192Y782277D02*
X1542006Y782326D01*
X1540029Y782003D02*
X1541192Y782277D01*
X1538461Y781390D02*
X1540029Y782003D01*
X1536741Y780601D02*
X1538461Y781390D01*
X1536174Y780330D02*
X1536741Y780601D01*
X1535762Y780134D02*
X1536174Y780330D01*
X1534530Y779529D02*
X1535762Y780134D01*
X1533236Y778840D02*
X1534530Y779529D01*
X1532230Y778195D02*
X1533236Y778840D01*
X1531443Y777538D02*
X1532230Y778195D01*
X1530814Y776800D02*
X1531443Y777538D01*
X1530277Y775921D02*
X1530814Y776800D01*
X1529772Y774842D02*
X1530277Y775921D01*
X1529365Y773830D02*
X1529772Y774842D01*
X1529235Y773491D02*
X1529365Y773830D01*
X1529105Y773154D02*
X1529235Y773491D01*
X1528443Y771763D02*
X1529105Y773154D01*
X1527914Y771039D02*
X1528443Y771763D01*
X1527854Y771036D02*
X1527914Y771039D01*
X1526986Y771017D02*
X1527854Y771036D01*
X1524382Y770922D02*
X1526986Y771017D01*
X1522060Y770602D02*
X1524382Y770922D01*
X1519817Y769815D02*
X1522060Y770602D01*
X1517392Y768689D02*
X1519817Y769815D01*
X1516588Y768304D02*
X1517392Y768689D01*
X1515878Y767965D02*
X1516588Y768304D01*
X1513759Y766918D02*
X1515878Y767965D01*
X1512001Y765936D02*
X1513759Y766918D01*
X1510876Y765084D02*
X1512001Y765936D01*
X1510165Y764346D02*
X1510876Y765084D01*
X1509948Y764086D02*
X1510165Y764346D01*
X1509747Y763850D02*
X1509948Y764086D01*
X1508811Y762510D02*
X1509747Y763850D01*
X1508166Y761308D02*
X1508811Y762510D01*
X1508114Y761137D02*
X1508166Y761308D01*
X1508022Y760844D02*
X1508114Y761137D01*
X1508000Y759881D02*
X1508022Y760844D01*
X1508000Y759881D02*
X1508277Y758411D01*
X1508868Y756995D01*
X1509446Y756122D01*
X1509696Y755888D01*
X1509837Y755755D01*
X1510791Y755343D01*
X1512145Y755254D01*
X1512487Y755281D01*
X1512764Y755305D01*
X1513599Y755408D01*
X1514367Y755631D01*
X1515037Y756062D01*
X1515655Y756626D01*
X1515856Y756819D01*
X1516049Y757009D01*
X1516656Y757654D01*
X1517804Y758907D01*
X1519141Y760410D01*
X1520180Y761598D01*
X1520522Y761994D01*
X1521078Y762645D01*
X1522828Y764525D01*
X1524773Y766324D01*
X1526324Y767368D01*
X1527187Y767672D01*
X1527455Y767631D01*
X1527542Y767621D01*
X1527797Y767477D01*
X1528022Y767043D01*
X1528163Y766194D01*
X1528242Y765149D01*
X1528261Y764799D01*
X1528318Y763660D01*
X1528790Y760250D01*
X1529872Y755953D01*
X1531440Y752107D01*
X1532862Y749641D01*
X1533437Y748898D01*
X1533605Y748681D01*
X1534907Y747381D01*
X1536437Y746150D01*
X1536719Y745963D01*
X1537091Y745721D01*
X1538637Y744964D01*
X1539972Y744750D01*
X1540240Y744777D01*
X1540441Y744799D01*
X1541323Y744899D01*
X1541838Y744964D01*
X1541860Y744970D01*
X1541879Y744975D01*
X1542310Y745314D01*
X1543024Y745933D01*
X1543186Y746079D01*
X1543449Y746321D01*
X1544062Y747240D01*
X1544564Y748778D01*
X1544692Y750715D01*
X1544545Y752486D02*
X1544692Y750715D01*
X1544450Y753067D02*
X1544545Y752486D01*
X1544396Y753398D02*
X1544450Y753067D01*
X1544171Y754377D02*
X1544396Y753398D01*
X1543748Y755649D02*
X1544171Y754377D01*
X1543113Y757057D02*
X1543748Y755649D01*
X1542438Y758346D02*
X1543113Y757057D01*
X1542204Y758766D02*
X1542438Y758346D01*
X1541806Y759480D02*
X1542204Y758766D01*
X1540471Y761542D02*
X1541806Y759480D01*
X1538520Y764013D02*
X1540471Y761542D01*
X1536288Y766253D02*
X1538520Y764013D01*
X1534381Y767848D02*
X1536288Y766253D01*
X1533716Y768334D02*
X1534381Y767848D01*
X1533356Y768597D02*
X1533716Y768334D01*
X1532292Y769408D02*
X1533356Y768597D01*
X1531516Y770113D02*
X1532292Y769408D01*
X1531234Y770621D02*
X1531516Y770113D01*
X1531234Y770621D02*
X1531259Y770992D01*
X1531299Y771104D01*
X1531343Y771234D01*
X1531625Y771576D01*
X1532485Y772023D01*
X1534248Y772590D01*
X1536532Y773220D01*
X1537294Y773420D01*
X1537897Y773580D01*
X1539695Y774093D01*
X1542009Y774804D01*
X1543973Y775463D01*
X1545004Y775845D01*
X1545321Y775989D01*
X1545622Y776127D01*
X1546517Y776572D01*
X1547272Y777058D01*
X1547714Y777557D01*
X1547933Y778024D01*
X1547985Y778184D01*
X1548085Y778509D01*
X1547993Y779974D02*
X1548085Y778509D01*
X1547179Y781029D02*
X1547993Y779974D01*
X1546919Y781149D02*
X1547179Y781029D01*
X1546488Y781347D02*
X1546919Y781149D01*
X1544581Y782006D02*
X1546488Y781347D01*
X1542695Y782299D02*
X1544581Y782006D01*
X1542278Y782315D02*
X1542695Y782299D01*
X1542006Y782326D02*
X1542278Y782315D01*
X1541192Y782277D02*
X1542006Y782326D01*
X1540029Y782003D02*
X1541192Y782277D01*
X1538461Y781390D02*
X1540029Y782003D01*
X1536741Y780601D02*
X1538461Y781390D01*
X1536174Y780330D02*
X1536741Y780601D01*
X1535762Y780134D02*
X1536174Y780330D01*
X1534530Y779529D02*
X1535762Y780134D01*
X1533236Y778840D02*
X1534530Y779529D01*
X1532230Y778195D02*
X1533236Y778840D01*
X1531443Y777538D02*
X1532230Y778195D01*
X1530814Y776800D02*
X1531443Y777538D01*
X1530277Y775921D02*
X1530814Y776800D01*
X1529772Y774842D02*
X1530277Y775921D01*
X1529365Y773830D02*
X1529772Y774842D01*
X1529235Y773491D02*
X1529365Y773830D01*
X1529105Y773154D02*
X1529235Y773491D01*
X1528443Y771763D02*
X1529105Y773154D01*
X1527914Y771039D02*
X1528443Y771763D01*
X1527854Y771036D02*
X1527914Y771039D01*
X1526986Y771017D02*
X1527854Y771036D01*
X1524382Y770922D02*
X1526986Y771017D01*
X1522060Y770602D02*
X1524382Y770922D01*
X1519817Y769815D02*
X1522060Y770602D01*
X1517392Y768689D02*
X1519817Y769815D01*
X1516588Y768304D02*
X1517392Y768689D01*
X1515878Y767965D02*
X1516588Y768304D01*
X1513759Y766918D02*
X1515878Y767965D01*
X1512001Y765936D02*
X1513759Y766918D01*
X1510876Y765084D02*
X1512001Y765936D01*
X1510165Y764346D02*
X1510876Y765084D01*
X1509948Y764086D02*
X1510165Y764346D01*
X1509747Y763850D02*
X1509948Y764086D01*
X1508811Y762510D02*
X1509747Y763850D01*
X1508166Y761308D02*
X1508811Y762510D01*
X1508114Y761137D02*
X1508166Y761308D01*
X1508022Y760844D02*
X1508114Y761137D01*
X1508000Y759881D02*
X1508022Y760844D01*
X1508000Y759881D02*
X1508277Y758411D01*
X1508868Y756995D01*
X1509446Y756122D01*
X1509696Y755888D01*
X1509837Y755755D01*
X1510791Y755343D01*
X1512145Y755254D01*
X1512487Y755281D01*
X1512764Y755305D01*
X1513599Y755408D01*
X1514367Y755631D01*
X1515037Y756062D01*
X1515655Y756626D01*
X1515856Y756819D01*
X1516049Y757009D01*
X1516656Y757654D01*
X1517804Y758907D01*
X1519141Y760410D01*
X1520180Y761598D01*
X1520522Y761994D01*
X1521078Y762645D01*
X1522828Y764525D01*
X1524773Y766324D01*
X1526324Y767368D01*
X1527187Y767672D01*
X1527455Y767631D01*
X1527542Y767621D01*
X1527797Y767477D01*
X1528022Y767043D01*
X1528163Y766194D01*
X1528242Y765149D01*
X1528261Y764799D01*
X1528318Y763660D01*
X1528790Y760250D01*
X1529872Y755953D01*
X1531440Y752107D01*
X1532862Y749641D01*
X1533437Y748898D01*
X1533605Y748681D01*
X1534907Y747381D01*
X1536437Y746150D01*
X1536719Y745963D01*
X1537091Y745721D01*
X1538637Y744964D01*
X1539972Y744750D01*
X1540240Y744777D01*
X1620332Y309665D02*
X1619499Y310498D01*
X1617833D01*
X1617000Y309665D01*
Y306333D01*
X1617833Y305500D01*
X1619499D01*
X1620332Y306333D01*
X1625331Y305500D02*
X1621999D01*
X1625331Y308832D01*
Y309665D01*
X1624498Y310498D01*
X1622832D01*
X1621999Y309665D01*
X1620582Y299415D02*
X1619749Y300248D01*
X1618083D01*
X1617250Y299415D01*
Y296083D01*
X1618083Y295250D01*
X1619749D01*
X1620582Y296083D01*
X1622249Y295250D02*
X1623915D01*
X1623082D01*
Y300248D01*
X1622249Y299415D01*
X1659918Y264835D02*
X1660751Y264002D01*
X1662417D01*
X1663250Y264835D01*
Y268167D01*
X1662417Y269000D01*
X1660751D01*
X1659918Y268167D01*
X1658252Y264835D02*
X1657419Y264002D01*
X1655753D01*
X1654920Y264835D01*
Y265668D01*
X1655753Y266501D01*
X1656586D01*
X1655753D01*
X1654920Y267334D01*
Y268167D01*
X1655753Y269000D01*
X1657419D01*
X1658252Y268167D01*
X1619832Y249665D02*
X1618999Y250498D01*
X1617333D01*
X1616500Y249665D01*
Y246333D01*
X1617333Y245500D01*
X1618999D01*
X1619832Y246333D01*
X1624831Y250498D02*
X1621499D01*
Y247999D01*
X1623165Y248832D01*
X1623998D01*
X1624831Y247999D01*
Y246333D01*
X1623998Y245500D01*
X1622332D01*
X1621499Y246333D01*
X1614750Y730250D02*
X1618749D01*
Y728251D01*
X1618082Y727584D01*
X1616750D01*
X1616083Y728251D01*
Y730250D01*
Y728917D02*
X1614750Y727584D01*
X1618082Y726251D02*
X1618749Y725585D01*
Y724252D01*
X1618082Y723586D01*
X1617416D01*
X1616750Y724252D01*
Y724918D01*
Y724252D01*
X1616083Y723586D01*
X1615417D01*
X1614750Y724252D01*
Y725585D01*
X1615417Y726251D01*
X1617500Y743249D02*
Y739250D01*
X1620166D01*
X1624165D02*
X1621499D01*
X1624165Y741916D01*
Y742582D01*
X1623498Y743249D01*
X1622165D01*
X1621499Y742582D01*
X1614835Y754332D02*
X1614002Y753499D01*
Y751833D01*
X1614835Y751000D01*
X1618167D01*
X1619000Y751833D01*
Y753499D01*
X1618167Y754332D01*
X1614002Y759331D02*
X1614835Y757664D01*
X1616501Y755998D01*
X1618167D01*
X1619000Y756831D01*
Y758497D01*
X1618167Y759331D01*
X1617334D01*
X1616501Y758497D01*
Y755998D01*
X1548500Y730500D02*
X1552499D01*
Y728501D01*
X1551832Y727834D01*
X1550500D01*
X1549833Y728501D01*
Y730500D01*
Y729167D02*
X1548500Y727834D01*
Y724502D02*
X1552499D01*
X1550500Y726501D01*
Y723836D01*
X1588165Y767918D02*
X1588999Y768751D01*
Y770417D01*
X1588165Y771250D01*
X1584833D01*
X1584000Y770417D01*
Y768751D01*
X1584833Y767918D01*
X1588999Y766252D02*
Y762919D01*
X1588165D01*
X1584833Y766252D01*
X1584000D01*
X1598999Y769500D02*
X1595000D01*
Y767501D01*
X1595667Y766834D01*
X1598332D01*
X1598999Y767501D01*
Y769500D01*
X1595000Y765501D02*
Y764168D01*
Y764835D01*
X1598999D01*
X1598332Y765501D01*
X1608250Y773499D02*
Y769500D01*
X1610916D01*
X1612249Y772832D02*
X1612915Y773499D01*
X1614248D01*
X1614915Y772832D01*
Y772166D01*
X1614248Y771499D01*
X1613582D01*
X1614248D01*
X1614915Y770833D01*
Y770166D01*
X1614248Y769500D01*
X1612915D01*
X1612249Y770166D01*
X1642585Y356082D02*
X1641752Y355249D01*
Y353583D01*
X1642585Y352750D01*
X1645917D01*
X1646750Y353583D01*
Y355249D01*
X1645917Y356082D01*
Y357748D02*
X1646750Y358581D01*
Y360247D01*
X1645917Y361081D01*
X1642585D01*
X1641752Y360247D01*
Y358581D01*
X1642585Y357748D01*
X1643418D01*
X1644251Y358581D01*
Y361081D01*
X1633085Y373582D02*
X1632252Y372749D01*
Y371083D01*
X1633085Y370250D01*
X1636417D01*
X1637250Y371083D01*
Y372749D01*
X1636417Y373582D01*
X1637250Y375248D02*
Y376914D01*
Y376081D01*
X1632252D01*
X1633085Y375248D01*
Y379414D02*
X1632252Y380247D01*
Y381913D01*
X1633085Y382746D01*
X1636417D01*
X1637250Y381913D01*
Y380247D01*
X1636417Y379414D01*
X1633085D01*
X1636416Y401918D02*
X1637249Y402751D01*
Y404417D01*
X1636416Y405250D01*
X1633083D01*
X1632250Y404417D01*
Y402751D01*
X1633083Y401918D01*
X1632250Y400252D02*
Y398586D01*
Y399418D01*
X1637249D01*
X1636416Y400252D01*
X1632250Y396086D02*
Y394420D01*
Y395253D01*
X1637249D01*
X1636416Y396086D01*
X1509500Y347499D02*
Y343500D01*
X1511499D01*
X1512166Y344166D01*
Y346832D01*
X1511499Y347499D01*
X1509500D01*
X1516165Y343500D02*
X1513499D01*
X1516165Y346166D01*
Y346832D01*
X1515498Y347499D01*
X1514165D01*
X1513499Y346832D01*
X1549335Y362832D02*
X1548502Y361999D01*
Y360333D01*
X1549335Y359500D01*
X1552667D01*
X1553500Y360333D01*
Y361999D01*
X1552667Y362832D01*
X1549335Y364498D02*
X1548502Y365331D01*
Y366997D01*
X1549335Y367831D01*
X1550168D01*
X1551001Y366997D01*
X1551834Y367831D01*
X1552667D01*
X1553500Y366997D01*
Y365331D01*
X1552667Y364498D01*
X1551834D01*
X1551001Y365331D01*
X1550168Y364498D01*
X1549335D01*
X1551001Y365331D02*
Y366997D01*
X1645415Y402668D02*
X1646248Y403501D01*
Y405167D01*
X1645415Y406000D01*
X1642083D01*
X1641250Y405167D01*
Y403501D01*
X1642083Y402668D01*
X1641250Y401002D02*
Y399336D01*
Y400168D01*
X1646248D01*
X1645415Y401002D01*
X1641250Y393504D02*
Y396836D01*
X1644582Y393504D01*
X1645415D01*
X1646248Y394337D01*
Y396003D01*
X1645415Y396836D01*
X1616082Y803248D02*
X1614416D01*
X1615249D01*
Y799083D01*
X1614416Y798250D01*
X1613583D01*
X1612750Y799083D01*
X1617749Y798250D02*
X1619415D01*
X1618582D01*
Y803248D01*
X1617749Y802415D01*
X1470002Y215916D02*
Y213250D01*
X1472001D01*
Y214583D01*
Y213250D01*
X1474000D01*
Y217249D02*
Y218582D01*
Y217915D01*
X1471334D01*
Y217249D01*
X1470002Y223247D02*
X1474000D01*
Y221247D01*
X1473334Y220581D01*
X1472001D01*
X1471334Y221247D01*
Y223247D01*
X1474000Y224580D02*
Y225912D01*
Y225246D01*
X1470002D01*
X1470668Y224580D01*
X1682001Y216416D02*
Y213750D01*
X1684001D01*
Y215083D01*
Y213750D01*
X1686000D01*
Y217749D02*
Y219082D01*
Y218415D01*
X1683334D01*
Y217749D01*
X1682001Y223747D02*
X1686000D01*
Y221747D01*
X1685334Y221081D01*
X1684001D01*
X1683334Y221747D01*
Y223747D01*
X1686000Y227745D02*
Y225080D01*
X1683334Y227745D01*
X1682668D01*
X1682001Y227079D01*
Y225746D01*
X1682668Y225080D01*
X1682001Y801416D02*
Y798750D01*
X1684001D01*
Y800083D01*
Y798750D01*
X1686000D01*
Y802749D02*
Y804082D01*
Y803415D01*
X1683334D01*
Y802749D01*
X1682001Y808747D02*
X1686000D01*
Y806747D01*
X1685334Y806081D01*
X1684001D01*
X1683334Y806747D01*
Y808747D01*
X1682668Y810080D02*
X1682001Y810746D01*
Y812079D01*
X1682668Y812745D01*
X1683334D01*
X1684001Y812079D01*
Y811413D01*
Y812079D01*
X1684667Y812745D01*
X1685334D01*
X1686000Y812079D01*
Y810746D01*
X1685334Y810080D01*
D39*
X245250Y241000D02*
Y301000D01*
X305250D01*
Y241000D02*
Y301000D01*
X245250Y241000D02*
X305250D01*
X496250D02*
Y301000D01*
X556250D01*
Y241000D02*
Y301000D01*
X496250Y241000D02*
X556250D01*
X747250D02*
Y301000D01*
X807250D01*
Y241000D02*
Y301000D01*
X747250Y241000D02*
X807250D01*
X998250D02*
Y301000D01*
X1058250D01*
Y241000D02*
Y301000D01*
X998250Y241000D02*
X1058250D01*
X1249250D02*
Y301000D01*
X1309250D01*
Y241000D02*
Y301000D01*
X1249250Y241000D02*
X1309250D01*
X1500250D02*
Y301000D01*
X1560250D01*
Y241000D02*
Y301000D01*
X1500250Y241000D02*
X1560250D01*
D40*
X321500Y606247D02*
Y597916D01*
X323166Y596250D01*
X326498D01*
X328164Y597916D01*
Y606247D01*
X331497Y596250D02*
X334829D01*
X333163D01*
Y606247D01*
X331497Y604581D01*
X330003Y266000D02*
X340000D01*
Y272665D01*
Y275997D02*
Y279329D01*
Y277663D01*
X330003D01*
X331669Y275997D01*
X363000Y278497D02*
Y270166D01*
X364666Y268500D01*
X367998D01*
X369664Y270166D01*
Y278497D01*
X379661Y268500D02*
X372997D01*
X379661Y275165D01*
Y276831D01*
X377995Y278497D01*
X374663D01*
X372997Y276831D01*
X270665Y273831D02*
X268998Y275497D01*
X265666D01*
X264000Y273831D01*
Y272164D01*
X265666Y270498D01*
X268998D01*
X270665Y268832D01*
Y267166D01*
X268998Y265500D01*
X265666D01*
X264000Y267166D01*
X273997Y275497D02*
Y265500D01*
X277329Y268832D01*
X280661Y265500D01*
Y275497D01*
X283994Y265500D02*
X287326D01*
X285660D01*
Y275497D01*
X283994Y273831D01*
X572500Y606247D02*
Y597916D01*
X574166Y596250D01*
X577499D01*
X579165Y597916D01*
Y606247D01*
X582497Y596250D02*
X585829D01*
X584163D01*
Y606247D01*
X582497Y604581D01*
X581003Y266000D02*
X591000D01*
Y272665D01*
Y275997D02*
Y279329D01*
Y277663D01*
X581003D01*
X582669Y275997D01*
X614000Y278497D02*
Y270166D01*
X615666Y268500D01*
X618998D01*
X620665Y270166D01*
Y278497D01*
X630661Y268500D02*
X623997D01*
X630661Y275165D01*
Y276831D01*
X628995Y278497D01*
X625663D01*
X623997Y276831D01*
X521665Y273831D02*
X519999Y275497D01*
X516666D01*
X515000Y273831D01*
Y272164D01*
X516666Y270498D01*
X519999D01*
X521665Y268832D01*
Y267166D01*
X519999Y265500D01*
X516666D01*
X515000Y267166D01*
X524997Y275497D02*
Y265500D01*
X528329Y268832D01*
X531661Y265500D01*
Y275497D01*
X534994Y265500D02*
X538326D01*
X536660D01*
Y275497D01*
X534994Y273831D01*
X823500Y606247D02*
Y597916D01*
X825166Y596250D01*
X828499D01*
X830165Y597916D01*
Y606247D01*
X833497Y596250D02*
X836829D01*
X835163D01*
Y606247D01*
X833497Y604581D01*
X832003Y266000D02*
X842000D01*
Y272665D01*
Y275997D02*
Y279329D01*
Y277663D01*
X832003D01*
X833670Y275997D01*
X865000Y278497D02*
Y270166D01*
X866666Y268500D01*
X869998D01*
X871665Y270166D01*
Y278497D01*
X881661Y268500D02*
X874997D01*
X881661Y275165D01*
Y276831D01*
X879995Y278497D01*
X876663D01*
X874997Y276831D01*
X772665Y273831D02*
X770999Y275497D01*
X767666D01*
X766000Y273831D01*
Y272164D01*
X767666Y270498D01*
X770999D01*
X772665Y268832D01*
Y267166D01*
X770999Y265500D01*
X767666D01*
X766000Y267166D01*
X775997Y275497D02*
Y265500D01*
X779329Y268832D01*
X782661Y265500D01*
Y275497D01*
X785994Y265500D02*
X789326D01*
X787660D01*
Y275497D01*
X785994Y273831D01*
X1074500Y606247D02*
Y597916D01*
X1076166Y596250D01*
X1079499D01*
X1081165Y597916D01*
Y606247D01*
X1084497Y596250D02*
X1087829D01*
X1086163D01*
Y606247D01*
X1084497Y604581D01*
X1083003Y266000D02*
X1093000D01*
Y272665D01*
Y275997D02*
Y279329D01*
Y277663D01*
X1083003D01*
X1084669Y275997D01*
X1116000Y278497D02*
Y270166D01*
X1117666Y268500D01*
X1120999D01*
X1122665Y270166D01*
Y278497D01*
X1132661Y268500D02*
X1125997D01*
X1132661Y275165D01*
Y276831D01*
X1130995Y278497D01*
X1127663D01*
X1125997Y276831D01*
X1023665Y273831D02*
X1021999Y275497D01*
X1018666D01*
X1017000Y273831D01*
Y272164D01*
X1018666Y270498D01*
X1021999D01*
X1023665Y268832D01*
Y267166D01*
X1021999Y265500D01*
X1018666D01*
X1017000Y267166D01*
X1026997Y275497D02*
Y265500D01*
X1030329Y268832D01*
X1033661Y265500D01*
Y275497D01*
X1036994Y265500D02*
X1040326D01*
X1038660D01*
Y275497D01*
X1036994Y273831D01*
X1325500Y606247D02*
Y597916D01*
X1327166Y596250D01*
X1330499D01*
X1332165Y597916D01*
Y606247D01*
X1335497Y596250D02*
X1338829D01*
X1337163D01*
Y606247D01*
X1335497Y604581D01*
X1334003Y266000D02*
X1344000D01*
Y272665D01*
Y275997D02*
Y279329D01*
Y277663D01*
X1334003D01*
X1335670Y275997D01*
X1367000Y278497D02*
Y270166D01*
X1368666Y268500D01*
X1371999D01*
X1373665Y270166D01*
Y278497D01*
X1383661Y268500D02*
X1376997D01*
X1383661Y275165D01*
Y276831D01*
X1381995Y278497D01*
X1378663D01*
X1376997Y276831D01*
X1274665Y273831D02*
X1272999Y275497D01*
X1269666D01*
X1268000Y273831D01*
Y272164D01*
X1269666Y270498D01*
X1272999D01*
X1274665Y268832D01*
Y267166D01*
X1272999Y265500D01*
X1269666D01*
X1268000Y267166D01*
X1277997Y275497D02*
Y265500D01*
X1281329Y268832D01*
X1284661Y265500D01*
Y275497D01*
X1287994Y265500D02*
X1291326D01*
X1289660D01*
Y275497D01*
X1287994Y273831D01*
X1576500Y606247D02*
Y597916D01*
X1578166Y596250D01*
X1581499D01*
X1583165Y597916D01*
Y606247D01*
X1586497Y596250D02*
X1589829D01*
X1588163D01*
Y606247D01*
X1586497Y604581D01*
X1585003Y266000D02*
X1595000D01*
Y272665D01*
Y275997D02*
Y279329D01*
Y277663D01*
X1585003D01*
X1586669Y275997D01*
X1618000Y278497D02*
Y270166D01*
X1619666Y268500D01*
X1622999D01*
X1624665Y270166D01*
Y278497D01*
X1634662Y268500D02*
X1627997D01*
X1634662Y275165D01*
Y276831D01*
X1632995Y278497D01*
X1629663D01*
X1627997Y276831D01*
X1525665Y273831D02*
X1523999Y275497D01*
X1520666D01*
X1519000Y273831D01*
Y272164D01*
X1520666Y270498D01*
X1523999D01*
X1525665Y268832D01*
Y267166D01*
X1523999Y265500D01*
X1520666D01*
X1519000Y267166D01*
X1528997Y275497D02*
Y265500D01*
X1532329Y268832D01*
X1535661Y265500D01*
Y275497D01*
X1538994Y265500D02*
X1542326D01*
X1540660D01*
Y275497D01*
X1538994Y273831D01*
M02*
