G04*
G04 #@! TF.GenerationSoftware,Altium Limited,Altium Designer,18.0.12 (696)*
G04*
G04 Layer_Color=8421504*
%FSLAX44Y44*%
%MOMM*%
G71*
G01*
G75*
%ADD10R,1.5000X0.8000*%
%ADD11R,0.8000X1.5000*%
%ADD12R,1.1000X1.1000*%
%ADD13R,0.6000X0.5000*%
%ADD14R,3.0000X1.2000*%
%ADD15R,0.8500X0.2500*%
%ADD16R,1.0900X2.0000*%
%ADD17R,0.5500X0.6000*%
%ADD18R,0.6500X0.5000*%
%ADD19R,0.5000X0.6000*%
%ADD20R,0.6000X0.5500*%
%ADD21R,1.0000X2.0000*%
%ADD22R,3.4000X4.2000*%
%ADD23R,0.8000X0.4000*%
%ADD24R,1.0500X2.2000*%
%ADD25R,1.0000X1.0500*%
D10*
X259040Y695520D02*
D03*
Y684520D02*
D03*
Y673520D02*
D03*
Y662520D02*
D03*
Y651520D02*
D03*
Y640520D02*
D03*
Y629520D02*
D03*
Y618520D02*
D03*
Y607520D02*
D03*
Y596520D02*
D03*
Y585520D02*
D03*
Y574520D02*
D03*
Y563520D02*
D03*
Y552520D02*
D03*
Y541520D02*
D03*
Y530520D02*
D03*
Y519520D02*
D03*
Y508520D02*
D03*
Y497520D02*
D03*
Y486520D02*
D03*
Y475520D02*
D03*
X398040Y475520D02*
D03*
Y486520D02*
D03*
Y497520D02*
D03*
Y508520D02*
D03*
Y519520D02*
D03*
Y530520D02*
D03*
Y541520D02*
D03*
Y552520D02*
D03*
Y563520D02*
D03*
Y574520D02*
D03*
Y585520D02*
D03*
Y596520D02*
D03*
Y607520D02*
D03*
Y618520D02*
D03*
Y629520D02*
D03*
Y640520D02*
D03*
Y651520D02*
D03*
Y662520D02*
D03*
Y673520D02*
D03*
Y684520D02*
D03*
Y695520D02*
D03*
X510040D02*
D03*
Y684520D02*
D03*
Y673520D02*
D03*
Y662520D02*
D03*
Y651520D02*
D03*
Y640520D02*
D03*
Y629520D02*
D03*
Y618520D02*
D03*
Y607520D02*
D03*
Y596520D02*
D03*
Y585520D02*
D03*
Y574520D02*
D03*
Y563520D02*
D03*
Y552520D02*
D03*
Y541520D02*
D03*
Y530520D02*
D03*
Y519520D02*
D03*
Y508520D02*
D03*
Y497520D02*
D03*
Y486520D02*
D03*
Y475520D02*
D03*
X649040Y475520D02*
D03*
Y486520D02*
D03*
Y497520D02*
D03*
Y508520D02*
D03*
Y519520D02*
D03*
Y530520D02*
D03*
Y541520D02*
D03*
Y552520D02*
D03*
Y563520D02*
D03*
Y574520D02*
D03*
Y585520D02*
D03*
Y596520D02*
D03*
Y607520D02*
D03*
Y618520D02*
D03*
Y629520D02*
D03*
Y640520D02*
D03*
Y651520D02*
D03*
Y662520D02*
D03*
Y673520D02*
D03*
Y684520D02*
D03*
Y695520D02*
D03*
X761040D02*
D03*
Y684520D02*
D03*
Y673520D02*
D03*
Y662520D02*
D03*
Y651520D02*
D03*
Y640520D02*
D03*
Y629520D02*
D03*
Y618520D02*
D03*
Y607520D02*
D03*
Y596520D02*
D03*
Y585520D02*
D03*
Y574520D02*
D03*
Y563520D02*
D03*
Y552520D02*
D03*
Y541520D02*
D03*
Y530520D02*
D03*
Y519520D02*
D03*
Y508520D02*
D03*
Y497520D02*
D03*
Y486520D02*
D03*
Y475520D02*
D03*
X900040Y475520D02*
D03*
Y486520D02*
D03*
Y497520D02*
D03*
Y508520D02*
D03*
Y519520D02*
D03*
Y530520D02*
D03*
Y541520D02*
D03*
Y552520D02*
D03*
Y563520D02*
D03*
Y574520D02*
D03*
Y585520D02*
D03*
Y596520D02*
D03*
Y607520D02*
D03*
Y618520D02*
D03*
Y629520D02*
D03*
Y640520D02*
D03*
Y651520D02*
D03*
Y662520D02*
D03*
Y673520D02*
D03*
Y684520D02*
D03*
Y695520D02*
D03*
X1012040D02*
D03*
Y684520D02*
D03*
Y673520D02*
D03*
Y662520D02*
D03*
Y651520D02*
D03*
Y640520D02*
D03*
Y629520D02*
D03*
Y618520D02*
D03*
Y607520D02*
D03*
Y596520D02*
D03*
Y585520D02*
D03*
Y574520D02*
D03*
Y563520D02*
D03*
Y552520D02*
D03*
Y541520D02*
D03*
Y530520D02*
D03*
Y519520D02*
D03*
Y508520D02*
D03*
Y497520D02*
D03*
Y486520D02*
D03*
Y475520D02*
D03*
X1151040Y475520D02*
D03*
Y486520D02*
D03*
Y497520D02*
D03*
Y508520D02*
D03*
Y519520D02*
D03*
Y530520D02*
D03*
Y541520D02*
D03*
Y552520D02*
D03*
Y563520D02*
D03*
Y574520D02*
D03*
Y585520D02*
D03*
Y596520D02*
D03*
Y607520D02*
D03*
Y618520D02*
D03*
Y629520D02*
D03*
Y640520D02*
D03*
Y651520D02*
D03*
Y662520D02*
D03*
Y673520D02*
D03*
Y684520D02*
D03*
Y695520D02*
D03*
X1263040D02*
D03*
Y684520D02*
D03*
Y673520D02*
D03*
Y662520D02*
D03*
Y651520D02*
D03*
Y640520D02*
D03*
Y629520D02*
D03*
Y618520D02*
D03*
Y607520D02*
D03*
Y596520D02*
D03*
Y585520D02*
D03*
Y574520D02*
D03*
Y563520D02*
D03*
Y552520D02*
D03*
Y541520D02*
D03*
Y530520D02*
D03*
Y519520D02*
D03*
Y508520D02*
D03*
Y497520D02*
D03*
Y486520D02*
D03*
Y475520D02*
D03*
X1402040Y475520D02*
D03*
Y486520D02*
D03*
Y497520D02*
D03*
Y508520D02*
D03*
Y519520D02*
D03*
Y530520D02*
D03*
Y541520D02*
D03*
Y552520D02*
D03*
Y563520D02*
D03*
Y574520D02*
D03*
Y585520D02*
D03*
Y596520D02*
D03*
Y607520D02*
D03*
Y618520D02*
D03*
Y629520D02*
D03*
Y640520D02*
D03*
Y651520D02*
D03*
Y662520D02*
D03*
Y673520D02*
D03*
Y684520D02*
D03*
Y695520D02*
D03*
X1514040D02*
D03*
Y684520D02*
D03*
Y673520D02*
D03*
Y662520D02*
D03*
Y651520D02*
D03*
Y640520D02*
D03*
Y629520D02*
D03*
Y618520D02*
D03*
Y607520D02*
D03*
Y596520D02*
D03*
Y585520D02*
D03*
Y574520D02*
D03*
Y563520D02*
D03*
Y552520D02*
D03*
Y541520D02*
D03*
Y530520D02*
D03*
Y519520D02*
D03*
Y508520D02*
D03*
Y497520D02*
D03*
Y486520D02*
D03*
Y475520D02*
D03*
X1653040Y475520D02*
D03*
Y486520D02*
D03*
Y497520D02*
D03*
Y508520D02*
D03*
Y519520D02*
D03*
Y530520D02*
D03*
Y541520D02*
D03*
Y552520D02*
D03*
Y563520D02*
D03*
Y574520D02*
D03*
Y585520D02*
D03*
Y596520D02*
D03*
Y607520D02*
D03*
Y618520D02*
D03*
Y629520D02*
D03*
Y640520D02*
D03*
Y651520D02*
D03*
Y662520D02*
D03*
Y673520D02*
D03*
Y684520D02*
D03*
Y695520D02*
D03*
D11*
X273540Y466020D02*
D03*
X284540D02*
D03*
X295540D02*
D03*
X306540D02*
D03*
X317540D02*
D03*
X328540D02*
D03*
X339540D02*
D03*
X350540D02*
D03*
X361540D02*
D03*
X372540D02*
D03*
X383540D02*
D03*
Y705020D02*
D03*
X372540D02*
D03*
X361540D02*
D03*
X350540D02*
D03*
X339540D02*
D03*
X328540D02*
D03*
X317540D02*
D03*
X306540D02*
D03*
X295540D02*
D03*
X284540D02*
D03*
X273540D02*
D03*
X524540Y466020D02*
D03*
X535540D02*
D03*
X546540D02*
D03*
X557540D02*
D03*
X568540D02*
D03*
X579540D02*
D03*
X590540D02*
D03*
X601540D02*
D03*
X612540D02*
D03*
X623540D02*
D03*
X634540D02*
D03*
Y705020D02*
D03*
X623540D02*
D03*
X612540D02*
D03*
X601540D02*
D03*
X590540D02*
D03*
X579540D02*
D03*
X568540D02*
D03*
X557540D02*
D03*
X546540D02*
D03*
X535540D02*
D03*
X524540D02*
D03*
X775540Y466020D02*
D03*
X786540D02*
D03*
X797540D02*
D03*
X808540D02*
D03*
X819540D02*
D03*
X830540D02*
D03*
X841540D02*
D03*
X852540D02*
D03*
X863540D02*
D03*
X874540D02*
D03*
X885540D02*
D03*
Y705020D02*
D03*
X874540D02*
D03*
X863540D02*
D03*
X852540D02*
D03*
X841540D02*
D03*
X830540D02*
D03*
X819540D02*
D03*
X808540D02*
D03*
X797540D02*
D03*
X786540D02*
D03*
X775540D02*
D03*
X1026540Y466020D02*
D03*
X1037540D02*
D03*
X1048540D02*
D03*
X1059540D02*
D03*
X1070540D02*
D03*
X1081540D02*
D03*
X1092540D02*
D03*
X1103540D02*
D03*
X1114540D02*
D03*
X1125540D02*
D03*
X1136540D02*
D03*
Y705020D02*
D03*
X1125540D02*
D03*
X1114540D02*
D03*
X1103540D02*
D03*
X1092540D02*
D03*
X1081540D02*
D03*
X1070540D02*
D03*
X1059540D02*
D03*
X1048540D02*
D03*
X1037540D02*
D03*
X1026540D02*
D03*
X1277540Y466020D02*
D03*
X1288540D02*
D03*
X1299540D02*
D03*
X1310540D02*
D03*
X1321540D02*
D03*
X1332540D02*
D03*
X1343540D02*
D03*
X1354540D02*
D03*
X1365540D02*
D03*
X1376540D02*
D03*
X1387540D02*
D03*
Y705020D02*
D03*
X1376540D02*
D03*
X1365540D02*
D03*
X1354540D02*
D03*
X1343540D02*
D03*
X1332540D02*
D03*
X1321540D02*
D03*
X1310540D02*
D03*
X1299540D02*
D03*
X1288540D02*
D03*
X1277540D02*
D03*
X1528540Y466020D02*
D03*
X1539540D02*
D03*
X1550540D02*
D03*
X1561540D02*
D03*
X1572540D02*
D03*
X1583540D02*
D03*
X1594540D02*
D03*
X1605540D02*
D03*
X1616540D02*
D03*
X1627540D02*
D03*
X1638540D02*
D03*
Y705020D02*
D03*
X1627540D02*
D03*
X1616540D02*
D03*
X1605540D02*
D03*
X1594540D02*
D03*
X1583540D02*
D03*
X1572540D02*
D03*
X1561540D02*
D03*
X1550540D02*
D03*
X1539540D02*
D03*
X1528540D02*
D03*
D12*
X276040Y688020D02*
D03*
Y670020D02*
D03*
Y652020D02*
D03*
Y616020D02*
D03*
Y555020D02*
D03*
Y519020D02*
D03*
Y501020D02*
D03*
Y483020D02*
D03*
X297040D02*
D03*
X318040D02*
D03*
X339040D02*
D03*
X360040D02*
D03*
X381040D02*
D03*
Y501020D02*
D03*
X360040D02*
D03*
X339040D02*
D03*
X318040D02*
D03*
X297040D02*
D03*
X381040Y519020D02*
D03*
Y555020D02*
D03*
Y616020D02*
D03*
Y652020D02*
D03*
X297040Y670020D02*
D03*
X318040D02*
D03*
X339040D02*
D03*
X360040D02*
D03*
X381040D02*
D03*
Y688020D02*
D03*
X360040D02*
D03*
X339040D02*
D03*
X318040D02*
D03*
X297040D02*
D03*
X527040D02*
D03*
Y670020D02*
D03*
Y652020D02*
D03*
Y616020D02*
D03*
Y555020D02*
D03*
Y519020D02*
D03*
Y501020D02*
D03*
Y483020D02*
D03*
X548040D02*
D03*
X569040D02*
D03*
X590040D02*
D03*
X611040D02*
D03*
X632040D02*
D03*
Y501020D02*
D03*
X611040D02*
D03*
X590040D02*
D03*
X569040D02*
D03*
X548040D02*
D03*
X632040Y519020D02*
D03*
Y555020D02*
D03*
Y616020D02*
D03*
Y652020D02*
D03*
X548040Y670020D02*
D03*
X569040D02*
D03*
X590040D02*
D03*
X611040D02*
D03*
X632040D02*
D03*
Y688020D02*
D03*
X611040D02*
D03*
X590040D02*
D03*
X569040D02*
D03*
X548040D02*
D03*
X778040D02*
D03*
Y670020D02*
D03*
Y652020D02*
D03*
Y616020D02*
D03*
Y555020D02*
D03*
Y519020D02*
D03*
Y501020D02*
D03*
Y483020D02*
D03*
X799040D02*
D03*
X820040D02*
D03*
X841040D02*
D03*
X862040D02*
D03*
X883040D02*
D03*
Y501020D02*
D03*
X862040D02*
D03*
X841040D02*
D03*
X820040D02*
D03*
X799040D02*
D03*
X883040Y519020D02*
D03*
Y555020D02*
D03*
Y616020D02*
D03*
Y652020D02*
D03*
X799040Y670020D02*
D03*
X820040D02*
D03*
X841040D02*
D03*
X862040D02*
D03*
X883040D02*
D03*
Y688020D02*
D03*
X862040D02*
D03*
X841040D02*
D03*
X820040D02*
D03*
X799040D02*
D03*
X1029040D02*
D03*
Y670020D02*
D03*
Y652020D02*
D03*
Y616020D02*
D03*
Y555020D02*
D03*
Y519020D02*
D03*
Y501020D02*
D03*
Y483020D02*
D03*
X1050040D02*
D03*
X1071040D02*
D03*
X1092040D02*
D03*
X1113040D02*
D03*
X1134040D02*
D03*
Y501020D02*
D03*
X1113040D02*
D03*
X1092040D02*
D03*
X1071040D02*
D03*
X1050040D02*
D03*
X1134040Y519020D02*
D03*
Y555020D02*
D03*
Y616020D02*
D03*
Y652020D02*
D03*
X1050040Y670020D02*
D03*
X1071040D02*
D03*
X1092040D02*
D03*
X1113040D02*
D03*
X1134040D02*
D03*
Y688020D02*
D03*
X1113040D02*
D03*
X1092040D02*
D03*
X1071040D02*
D03*
X1050040D02*
D03*
X1280040D02*
D03*
Y670020D02*
D03*
Y652020D02*
D03*
Y616020D02*
D03*
Y555020D02*
D03*
Y519020D02*
D03*
Y501020D02*
D03*
Y483020D02*
D03*
X1301040D02*
D03*
X1322040D02*
D03*
X1343040D02*
D03*
X1364040D02*
D03*
X1385040D02*
D03*
Y501020D02*
D03*
X1364040D02*
D03*
X1343040D02*
D03*
X1322040D02*
D03*
X1301040D02*
D03*
X1385040Y519020D02*
D03*
Y555020D02*
D03*
Y616020D02*
D03*
Y652020D02*
D03*
X1301040Y670020D02*
D03*
X1322040D02*
D03*
X1343040D02*
D03*
X1364040D02*
D03*
X1385040D02*
D03*
Y688020D02*
D03*
X1364040D02*
D03*
X1343040D02*
D03*
X1322040D02*
D03*
X1301040D02*
D03*
X1531040D02*
D03*
Y670020D02*
D03*
Y652020D02*
D03*
Y616020D02*
D03*
Y555020D02*
D03*
Y519020D02*
D03*
Y501020D02*
D03*
Y483020D02*
D03*
X1552040D02*
D03*
X1573040D02*
D03*
X1594040D02*
D03*
X1615040D02*
D03*
X1636040D02*
D03*
Y501020D02*
D03*
X1615040D02*
D03*
X1594040D02*
D03*
X1573040D02*
D03*
X1552040D02*
D03*
X1636040Y519020D02*
D03*
Y555020D02*
D03*
Y616020D02*
D03*
Y652020D02*
D03*
X1552040Y670020D02*
D03*
X1573040D02*
D03*
X1594040D02*
D03*
X1615040D02*
D03*
X1636040D02*
D03*
Y688020D02*
D03*
X1615040D02*
D03*
X1594040D02*
D03*
X1573040D02*
D03*
X1552040D02*
D03*
D13*
X361250Y307500D02*
D03*
X371250D02*
D03*
X361250Y297500D02*
D03*
X371250D02*
D03*
X398750Y267000D02*
D03*
X408750D02*
D03*
X361750Y248250D02*
D03*
X371750D02*
D03*
X612250Y307500D02*
D03*
X622250D02*
D03*
X612250Y297500D02*
D03*
X622250D02*
D03*
X649750Y267000D02*
D03*
X659750D02*
D03*
X612750Y248250D02*
D03*
X622750D02*
D03*
X863250Y307500D02*
D03*
X873250D02*
D03*
X863250Y297500D02*
D03*
X873250D02*
D03*
X900750Y267000D02*
D03*
X910750D02*
D03*
X863750Y248250D02*
D03*
X873750D02*
D03*
X1114250Y307500D02*
D03*
X1124250D02*
D03*
X1114250Y297500D02*
D03*
X1124250D02*
D03*
X1151750Y267000D02*
D03*
X1161750D02*
D03*
X1114750Y248250D02*
D03*
X1124750D02*
D03*
X1365250Y307500D02*
D03*
X1375250D02*
D03*
X1365250Y297500D02*
D03*
X1375250D02*
D03*
X1402750Y267000D02*
D03*
X1412750D02*
D03*
X1365750Y248250D02*
D03*
X1375750D02*
D03*
X1616250Y307500D02*
D03*
X1626250D02*
D03*
X1616250Y297500D02*
D03*
X1626250D02*
D03*
X1653750Y267000D02*
D03*
X1663750D02*
D03*
X1616750Y248250D02*
D03*
X1626750D02*
D03*
D14*
X335000Y261650D02*
D03*
Y283350D02*
D03*
X586000Y261650D02*
D03*
Y283350D02*
D03*
X837000Y261650D02*
D03*
Y283350D02*
D03*
X1088000Y261650D02*
D03*
Y283350D02*
D03*
X1339000Y261650D02*
D03*
Y283350D02*
D03*
X1590000Y261650D02*
D03*
Y283350D02*
D03*
D15*
X360800Y282500D02*
D03*
Y277500D02*
D03*
Y272500D02*
D03*
Y267500D02*
D03*
Y262500D02*
D03*
X384200Y282500D02*
D03*
Y277500D02*
D03*
Y272500D02*
D03*
Y267500D02*
D03*
Y262500D02*
D03*
X611800Y282500D02*
D03*
Y277500D02*
D03*
Y272500D02*
D03*
Y267500D02*
D03*
Y262500D02*
D03*
X635200Y282500D02*
D03*
Y277500D02*
D03*
Y272500D02*
D03*
Y267500D02*
D03*
Y262500D02*
D03*
X862800Y282500D02*
D03*
Y277500D02*
D03*
Y272500D02*
D03*
Y267500D02*
D03*
Y262500D02*
D03*
X886200Y282500D02*
D03*
Y277500D02*
D03*
Y272500D02*
D03*
Y267500D02*
D03*
Y262500D02*
D03*
X1113800Y282500D02*
D03*
Y277500D02*
D03*
Y272500D02*
D03*
Y267500D02*
D03*
Y262500D02*
D03*
X1137200Y282500D02*
D03*
Y277500D02*
D03*
Y272500D02*
D03*
Y267500D02*
D03*
Y262500D02*
D03*
X1364800Y282500D02*
D03*
Y277500D02*
D03*
Y272500D02*
D03*
Y267500D02*
D03*
Y262500D02*
D03*
X1388200Y282500D02*
D03*
Y277500D02*
D03*
Y272500D02*
D03*
Y267500D02*
D03*
Y262500D02*
D03*
X1615800Y282500D02*
D03*
Y277500D02*
D03*
Y272500D02*
D03*
Y267500D02*
D03*
Y262500D02*
D03*
X1639200Y282500D02*
D03*
Y277500D02*
D03*
Y272500D02*
D03*
Y267500D02*
D03*
Y262500D02*
D03*
D16*
X372500Y272500D02*
D03*
X623500D02*
D03*
X874500D02*
D03*
X1125500D02*
D03*
X1376500D02*
D03*
X1627500D02*
D03*
D17*
X361560Y731490D02*
D03*
Y721490D02*
D03*
X295500Y732000D02*
D03*
Y722000D02*
D03*
X341750Y761250D02*
D03*
Y771250D02*
D03*
X612560Y731490D02*
D03*
Y721490D02*
D03*
X546500Y732000D02*
D03*
Y722000D02*
D03*
X592750Y761250D02*
D03*
Y771250D02*
D03*
X863560Y731490D02*
D03*
Y721490D02*
D03*
X797500Y732000D02*
D03*
Y722000D02*
D03*
X843750Y761250D02*
D03*
Y771250D02*
D03*
X1114560Y731490D02*
D03*
Y721490D02*
D03*
X1048500Y732000D02*
D03*
Y722000D02*
D03*
X1094750Y761250D02*
D03*
Y771250D02*
D03*
X1365560Y731490D02*
D03*
Y721490D02*
D03*
X1299500Y732000D02*
D03*
Y722000D02*
D03*
X1345750Y761250D02*
D03*
Y771250D02*
D03*
X1616560Y731490D02*
D03*
Y721490D02*
D03*
X1550500Y732000D02*
D03*
Y722000D02*
D03*
X1596750Y761250D02*
D03*
Y771250D02*
D03*
D18*
X361500Y741000D02*
D03*
X371000D02*
D03*
X361500Y771250D02*
D03*
X352000D02*
D03*
X612500Y741000D02*
D03*
X622000D02*
D03*
X612500Y771250D02*
D03*
X603000D02*
D03*
X863500Y741000D02*
D03*
X873000D02*
D03*
X863500Y771250D02*
D03*
X854000D02*
D03*
X1114500Y741000D02*
D03*
X1124000D02*
D03*
X1114500Y771250D02*
D03*
X1105000D02*
D03*
X1365500Y741000D02*
D03*
X1375000D02*
D03*
X1365500Y771250D02*
D03*
X1356000D02*
D03*
X1616500Y741000D02*
D03*
X1626000D02*
D03*
X1616500Y771250D02*
D03*
X1607000D02*
D03*
D19*
X361500Y750500D02*
D03*
Y760500D02*
D03*
X331500Y771250D02*
D03*
Y761250D02*
D03*
X389250Y352250D02*
D03*
Y362250D02*
D03*
X379750Y372000D02*
D03*
Y382000D02*
D03*
Y404750D02*
D03*
Y394750D02*
D03*
X296000Y359500D02*
D03*
Y369500D02*
D03*
X388750Y404750D02*
D03*
Y394750D02*
D03*
X612500Y750500D02*
D03*
Y760500D02*
D03*
X582500Y771250D02*
D03*
Y761250D02*
D03*
X640250Y352250D02*
D03*
Y362250D02*
D03*
X630750Y372000D02*
D03*
Y382000D02*
D03*
Y404750D02*
D03*
Y394750D02*
D03*
X547000Y359500D02*
D03*
Y369500D02*
D03*
X639750Y404750D02*
D03*
Y394750D02*
D03*
X863500Y750500D02*
D03*
Y760500D02*
D03*
X833500Y771250D02*
D03*
Y761250D02*
D03*
X891250Y352250D02*
D03*
Y362250D02*
D03*
X881750Y372000D02*
D03*
Y382000D02*
D03*
Y404750D02*
D03*
Y394750D02*
D03*
X798000Y359500D02*
D03*
Y369500D02*
D03*
X890750Y404750D02*
D03*
Y394750D02*
D03*
X1114500Y750500D02*
D03*
Y760500D02*
D03*
X1084500Y771250D02*
D03*
Y761250D02*
D03*
X1142250Y352250D02*
D03*
Y362250D02*
D03*
X1132750Y372000D02*
D03*
Y382000D02*
D03*
Y404750D02*
D03*
Y394750D02*
D03*
X1049000Y359500D02*
D03*
Y369500D02*
D03*
X1141750Y404750D02*
D03*
Y394750D02*
D03*
X1365500Y750500D02*
D03*
Y760500D02*
D03*
X1335500Y771250D02*
D03*
Y761250D02*
D03*
X1393250Y352250D02*
D03*
Y362250D02*
D03*
X1383750Y372000D02*
D03*
Y382000D02*
D03*
Y404750D02*
D03*
Y394750D02*
D03*
X1300000Y359500D02*
D03*
Y369500D02*
D03*
X1392750Y404750D02*
D03*
Y394750D02*
D03*
X1616500Y750500D02*
D03*
Y760500D02*
D03*
X1586500Y771250D02*
D03*
Y761250D02*
D03*
X1644250Y352250D02*
D03*
Y362250D02*
D03*
X1634750Y372000D02*
D03*
Y382000D02*
D03*
Y404750D02*
D03*
Y394750D02*
D03*
X1551000Y359500D02*
D03*
Y369500D02*
D03*
X1643750Y404750D02*
D03*
Y394750D02*
D03*
D20*
X262750Y345250D02*
D03*
X252750D02*
D03*
X513750D02*
D03*
X503750D02*
D03*
X764750D02*
D03*
X754750D02*
D03*
X1015750D02*
D03*
X1005750D02*
D03*
X1266750D02*
D03*
X1256750D02*
D03*
X1517750D02*
D03*
X1507750D02*
D03*
D21*
X297750Y226000D02*
D03*
X252750D02*
D03*
X297750Y316000D02*
D03*
X252750D02*
D03*
X548750Y226000D02*
D03*
X503750D02*
D03*
X548750Y316000D02*
D03*
X503750D02*
D03*
X799750Y226000D02*
D03*
X754750D02*
D03*
X799750Y316000D02*
D03*
X754750D02*
D03*
X1050750Y226000D02*
D03*
X1005750D02*
D03*
X1050750Y316000D02*
D03*
X1005750D02*
D03*
X1301750Y226000D02*
D03*
X1256750D02*
D03*
X1301750Y316000D02*
D03*
X1256750D02*
D03*
X1552750Y226000D02*
D03*
X1507750D02*
D03*
X1552750Y316000D02*
D03*
X1507750D02*
D03*
D22*
X338500Y375750D02*
D03*
X589500D02*
D03*
X840500D02*
D03*
X1091500D02*
D03*
X1342500D02*
D03*
X1593500D02*
D03*
D23*
X366500Y394800D02*
D03*
X366500Y382100D02*
D03*
Y369400D02*
D03*
X366500Y356700D02*
D03*
X310000D02*
D03*
Y369400D02*
D03*
Y382100D02*
D03*
Y394800D02*
D03*
X617500D02*
D03*
X617500Y382100D02*
D03*
Y369400D02*
D03*
X617500Y356700D02*
D03*
X561000D02*
D03*
Y369400D02*
D03*
Y382100D02*
D03*
Y394800D02*
D03*
X868500D02*
D03*
X868500Y382100D02*
D03*
Y369400D02*
D03*
X868500Y356700D02*
D03*
X812000D02*
D03*
Y369400D02*
D03*
Y382100D02*
D03*
Y394800D02*
D03*
X1119500D02*
D03*
X1119500Y382100D02*
D03*
Y369400D02*
D03*
X1119500Y356700D02*
D03*
X1063000D02*
D03*
Y369400D02*
D03*
Y382100D02*
D03*
Y394800D02*
D03*
X1370500D02*
D03*
X1370500Y382100D02*
D03*
Y369400D02*
D03*
X1370500Y356700D02*
D03*
X1314000D02*
D03*
Y369400D02*
D03*
Y382100D02*
D03*
Y394800D02*
D03*
X1621500D02*
D03*
X1621500Y382100D02*
D03*
Y369400D02*
D03*
X1621500Y356700D02*
D03*
X1565000D02*
D03*
Y369400D02*
D03*
Y382100D02*
D03*
Y394800D02*
D03*
D24*
X376250Y799500D02*
D03*
X346750D02*
D03*
X627250D02*
D03*
X597750D02*
D03*
X878250D02*
D03*
X848750D02*
D03*
X1129250D02*
D03*
X1099750D02*
D03*
X1380250D02*
D03*
X1350750D02*
D03*
X1631250D02*
D03*
X1601750D02*
D03*
D25*
X361500Y784250D02*
D03*
X612500D02*
D03*
X863500D02*
D03*
X1114500D02*
D03*
X1365500D02*
D03*
X1616500D02*
D03*
M02*
