G04*
G04 #@! TF.GenerationSoftware,Altium Limited,Altium Designer,18.0.12 (696)*
G04*
G04 Layer_Color=65535*
%FSLAX44Y44*%
%MOMM*%
G71*
G01*
G75*
%ADD27C,0.2000*%
%ADD28C,0.2540*%
%ADD29C,0.5000*%
%ADD36C,0.1000*%
%ADD37C,0.2500*%
%ADD38C,0.1524*%
%ADD39C,0.0500*%
%ADD40C,0.1700*%
G36*
X1547374Y781114D02*
X1548085Y778509D01*
X1547374Y777058D01*
X1545004Y775845D01*
X1539695Y774093D01*
X1532532Y772082D01*
X1531516Y771066D01*
Y770113D01*
X1536258Y766324D01*
X1541806Y759480D01*
X1544545Y752486D01*
Y748778D01*
X1542310Y745314D01*
X1539695Y744750D01*
X1537091Y745721D01*
X1533513Y748778D01*
X1529772Y755785D01*
X1527910Y767101D01*
X1527187Y767672D01*
X1524773Y766324D01*
Y766191D01*
X1514367Y755785D01*
Y755631D01*
X1509953Y755631D01*
X1508868Y756716D01*
Y757820D01*
X1508000Y758688D01*
Y761699D01*
X1512001Y765700D01*
Y765936D01*
X1512777D01*
X1515878Y767672D01*
X1517464Y768560D01*
X1521162Y770114D01*
X1526891Y770922D01*
X1527910Y771066D01*
X1529772Y774842D01*
X1532230Y778195D01*
X1536655Y780686D01*
X1541103Y782367D01*
X1547374Y781114D01*
D02*
G37*
G36*
X1296374D02*
X1297085Y778509D01*
X1296374Y777058D01*
X1294004Y775845D01*
X1288695Y774093D01*
X1281532Y772082D01*
X1280516Y771066D01*
Y770113D01*
X1285258Y766324D01*
X1290806Y759480D01*
X1293545Y752486D01*
Y748778D01*
X1291310Y745314D01*
X1288695Y744750D01*
X1286091Y745721D01*
X1282513Y748778D01*
X1278772Y755785D01*
X1276910Y767101D01*
X1276187Y767672D01*
X1273773Y766324D01*
Y766191D01*
X1263367Y755785D01*
Y755631D01*
X1258953Y755631D01*
X1257868Y756716D01*
Y757820D01*
X1257000Y758688D01*
Y761699D01*
X1261001Y765700D01*
Y765936D01*
X1261777D01*
X1264878Y767672D01*
X1266464Y768560D01*
X1270162Y770114D01*
X1275891Y770922D01*
X1276910Y771066D01*
X1278772Y774842D01*
X1281230Y778195D01*
X1285656Y780686D01*
X1290103Y782367D01*
X1296374Y781114D01*
D02*
G37*
G36*
X1045374D02*
X1046085Y778509D01*
X1045374Y777058D01*
X1043004Y775845D01*
X1037695Y774093D01*
X1030532Y772082D01*
X1029516Y771066D01*
Y770113D01*
X1034258Y766324D01*
X1039806Y759480D01*
X1042545Y752486D01*
Y748778D01*
X1040310Y745314D01*
X1037695Y744750D01*
X1035091Y745721D01*
X1031514Y748778D01*
X1027772Y755785D01*
X1025910Y767101D01*
X1025187Y767672D01*
X1022773Y766324D01*
Y766191D01*
X1012367Y755785D01*
Y755631D01*
X1007953Y755631D01*
X1006868Y756716D01*
Y757820D01*
X1006000Y758688D01*
Y761699D01*
X1010001Y765700D01*
Y765936D01*
X1010777D01*
X1013878Y767672D01*
X1015464Y768560D01*
X1019162Y770114D01*
X1024891Y770922D01*
X1025910Y771066D01*
X1027772Y774842D01*
X1030230Y778195D01*
X1034655Y780686D01*
X1039103Y782367D01*
X1045374Y781114D01*
D02*
G37*
G36*
X794374D02*
X795085Y778509D01*
X794374Y777058D01*
X792004Y775845D01*
X786695Y774093D01*
X779532Y772082D01*
X778516Y771066D01*
Y770113D01*
X783258Y766324D01*
X788805Y759480D01*
X791545Y752486D01*
Y748778D01*
X789310Y745314D01*
X786695Y744750D01*
X784091Y745721D01*
X780514Y748778D01*
X776772Y755785D01*
X774910Y767101D01*
X774187Y767672D01*
X771773Y766324D01*
Y766191D01*
X761367Y755785D01*
Y755631D01*
X756953Y755631D01*
X755868Y756716D01*
Y757820D01*
X755000Y758688D01*
Y761699D01*
X759001Y765700D01*
Y765936D01*
X759777D01*
X762878Y767672D01*
X764464Y768560D01*
X768162Y770114D01*
X773891Y770922D01*
X774910Y771066D01*
X776772Y774842D01*
X779230Y778195D01*
X783655Y780686D01*
X788103Y782367D01*
X794374Y781114D01*
D02*
G37*
G36*
X543374D02*
X544085Y778509D01*
X543374Y777058D01*
X541004Y775845D01*
X535695Y774093D01*
X528532Y772082D01*
X527516Y771066D01*
Y770113D01*
X532258Y766324D01*
X537805Y759480D01*
X540545Y752486D01*
Y748778D01*
X538310Y745314D01*
X535695Y744750D01*
X533091Y745721D01*
X529513Y748778D01*
X525772Y755785D01*
X523910Y767101D01*
X523187Y767672D01*
X520773Y766324D01*
Y766191D01*
X510367Y755785D01*
Y755631D01*
X505953Y755631D01*
X504868Y756716D01*
Y757820D01*
X504000Y758688D01*
Y761699D01*
X508001Y765700D01*
Y765936D01*
X508777D01*
X511878Y767672D01*
X513464Y768560D01*
X517162Y770114D01*
X522891Y770922D01*
X523910Y771066D01*
X525772Y774842D01*
X528230Y778195D01*
X532655Y780686D01*
X537103Y782367D01*
X543374Y781114D01*
D02*
G37*
G36*
X292374D02*
X293085Y778509D01*
X292374Y777058D01*
X290004Y775845D01*
X284695Y774093D01*
X277532Y772082D01*
X276516Y771066D01*
Y770113D01*
X281258Y766324D01*
X286805Y759480D01*
X289545Y752486D01*
Y748778D01*
X287310Y745314D01*
X284695Y744750D01*
X282091Y745721D01*
X278513Y748778D01*
X274772Y755785D01*
X272910Y767101D01*
X272187Y767672D01*
X269772Y766324D01*
Y766191D01*
X259367Y755785D01*
Y755631D01*
X254953Y755631D01*
X253868Y756716D01*
Y757820D01*
X253000Y758688D01*
Y761699D01*
X257001Y765700D01*
Y765936D01*
X257777D01*
X260878Y767672D01*
X262464Y768560D01*
X266162Y770114D01*
X271891Y770922D01*
X272910Y771066D01*
X274772Y774842D01*
X277230Y778195D01*
X281655Y780686D01*
X286103Y782367D01*
X292374Y781114D01*
D02*
G37*
D27*
X346500Y785500D02*
Y787500D01*
Y785500D02*
X355500D01*
X367500D02*
X376500D01*
Y787500D01*
Y811500D02*
Y816500D01*
X346500D02*
X376500D01*
X346500Y811500D02*
Y816500D01*
X217747Y815191D02*
X209750D01*
Y803195D01*
X217747D01*
X209750Y809193D02*
X213749D01*
X229744Y815191D02*
X221746D01*
Y803195D01*
X229744D01*
X221746Y809193D02*
X225745D01*
X233742D02*
X241740D01*
X245738Y803195D02*
Y815191D01*
X253736Y803195D01*
Y815191D01*
X257735D02*
Y803195D01*
X263732D01*
X265732Y805195D01*
Y807194D01*
X263732Y809193D01*
X257735D01*
X263732D01*
X265732Y811193D01*
Y813192D01*
X263732Y815191D01*
X257735D01*
X269731D02*
X273729D01*
X271730D01*
Y803195D01*
X269731D01*
X273729D01*
X285725Y815191D02*
X281727D01*
X279727Y813192D01*
Y805195D01*
X281727Y803195D01*
X285725D01*
X287725Y805195D01*
Y813192D01*
X285725Y815191D01*
X291723D02*
X299721D01*
X295722D01*
Y803195D01*
X303720Y809193D02*
X311717D01*
X315716Y813192D02*
X317715Y815191D01*
X321714D01*
X323713Y813192D01*
Y805195D01*
X321714Y803195D01*
X317715D01*
X315716Y805195D01*
Y813192D01*
X327712Y803195D02*
X331711D01*
X329711D01*
Y815191D01*
X327712Y813192D01*
X209750Y791997D02*
X213749Y784000D01*
X217747Y791997D01*
X221746Y784000D02*
X225745D01*
X223745D01*
Y795996D01*
X221746Y793997D01*
X231743Y784000D02*
Y785999D01*
X233742D01*
Y784000D01*
X231743D01*
X241740D02*
X245738D01*
X243739D01*
Y795996D01*
X241740Y793997D01*
X291164Y586081D02*
X289498Y587747D01*
X286166D01*
X284500Y586081D01*
Y584414D01*
X286166Y582748D01*
X289498D01*
X291164Y581082D01*
Y579416D01*
X289498Y577750D01*
X286166D01*
X284500Y579416D01*
X294497Y577750D02*
Y584414D01*
X297829Y587747D01*
X301161Y584414D01*
Y577750D01*
Y582748D01*
X294497D01*
X304494Y577750D02*
Y587747D01*
X309492D01*
X311158Y586081D01*
Y582748D01*
X309492Y581082D01*
X304494D01*
X307826D02*
X311158Y577750D01*
X314490D02*
Y584414D01*
X317823Y587747D01*
X321155Y584414D01*
Y577750D01*
Y582748D01*
X314490D01*
X324487D02*
X331152D01*
X334484Y577750D02*
Y587747D01*
X341148Y577750D01*
Y587747D01*
X351145Y577750D02*
X344481D01*
X351145Y584414D01*
Y586081D01*
X349479Y587747D01*
X346147D01*
X344481Y586081D01*
X354478Y577750D02*
X357810D01*
X356144D01*
Y587747D01*
X354478Y586081D01*
X362808D02*
X364474Y587747D01*
X367807D01*
X369473Y586081D01*
Y579416D01*
X367807Y577750D01*
X364474D01*
X362808Y579416D01*
Y586081D01*
X597500Y785500D02*
Y787500D01*
Y785500D02*
X606500D01*
X618500D02*
X627500D01*
Y787500D01*
Y811500D02*
Y816500D01*
X597500D02*
X627500D01*
X597500Y811500D02*
Y816500D01*
X468747Y815191D02*
X460750D01*
Y803195D01*
X468747D01*
X460750Y809193D02*
X464749D01*
X480744Y815191D02*
X472746D01*
Y803195D01*
X480744D01*
X472746Y809193D02*
X476745D01*
X484742D02*
X492740D01*
X496738Y803195D02*
Y815191D01*
X504736Y803195D01*
Y815191D01*
X508735D02*
Y803195D01*
X514733D01*
X516732Y805195D01*
Y807194D01*
X514733Y809193D01*
X508735D01*
X514733D01*
X516732Y811193D01*
Y813192D01*
X514733Y815191D01*
X508735D01*
X520731D02*
X524729D01*
X522730D01*
Y803195D01*
X520731D01*
X524729D01*
X536726Y815191D02*
X532727D01*
X530727Y813192D01*
Y805195D01*
X532727Y803195D01*
X536726D01*
X538725Y805195D01*
Y813192D01*
X536726Y815191D01*
X542724D02*
X550721D01*
X546722D01*
Y803195D01*
X554720Y809193D02*
X562717D01*
X566716Y813192D02*
X568715Y815191D01*
X572714D01*
X574713Y813192D01*
Y805195D01*
X572714Y803195D01*
X568715D01*
X566716Y805195D01*
Y813192D01*
X578712Y803195D02*
X582711D01*
X580711D01*
Y815191D01*
X578712Y813192D01*
X460750Y791997D02*
X464749Y784000D01*
X468747Y791997D01*
X472746Y784000D02*
X476745D01*
X474745D01*
Y795996D01*
X472746Y793997D01*
X482743Y784000D02*
Y785999D01*
X484742D01*
Y784000D01*
X482743D01*
X492740D02*
X496738D01*
X494739D01*
Y795996D01*
X492740Y793997D01*
X542165Y586081D02*
X540499Y587747D01*
X537166D01*
X535500Y586081D01*
Y584414D01*
X537166Y582748D01*
X540499D01*
X542165Y581082D01*
Y579416D01*
X540499Y577750D01*
X537166D01*
X535500Y579416D01*
X545497Y577750D02*
Y584414D01*
X548829Y587747D01*
X552161Y584414D01*
Y577750D01*
Y582748D01*
X545497D01*
X555494Y577750D02*
Y587747D01*
X560492D01*
X562158Y586081D01*
Y582748D01*
X560492Y581082D01*
X555494D01*
X558826D02*
X562158Y577750D01*
X565490D02*
Y584414D01*
X568823Y587747D01*
X572155Y584414D01*
Y577750D01*
Y582748D01*
X565490D01*
X575487D02*
X582152D01*
X585484Y577750D02*
Y587747D01*
X592149Y577750D01*
Y587747D01*
X602145Y577750D02*
X595481D01*
X602145Y584414D01*
Y586081D01*
X600479Y587747D01*
X597147D01*
X595481Y586081D01*
X605477Y577750D02*
X608810D01*
X607144D01*
Y587747D01*
X605477Y586081D01*
X613808D02*
X615474Y587747D01*
X618807D01*
X620473Y586081D01*
Y579416D01*
X618807Y577750D01*
X615474D01*
X613808Y579416D01*
Y586081D01*
X848500Y785500D02*
Y787500D01*
Y785500D02*
X857500D01*
X869500D02*
X878500D01*
Y787500D01*
Y811500D02*
Y816500D01*
X848500D02*
X878500D01*
X848500Y811500D02*
Y816500D01*
X719747Y815191D02*
X711750D01*
Y803195D01*
X719747D01*
X711750Y809193D02*
X715749D01*
X731744Y815191D02*
X723746D01*
Y803195D01*
X731744D01*
X723746Y809193D02*
X727745D01*
X735742D02*
X743740D01*
X747738Y803195D02*
Y815191D01*
X755736Y803195D01*
Y815191D01*
X759734D02*
Y803195D01*
X765733D01*
X767732Y805195D01*
Y807194D01*
X765733Y809193D01*
X759734D01*
X765733D01*
X767732Y811193D01*
Y813192D01*
X765733Y815191D01*
X759734D01*
X771731D02*
X775729D01*
X773730D01*
Y803195D01*
X771731D01*
X775729D01*
X787726Y815191D02*
X783727D01*
X781727Y813192D01*
Y805195D01*
X783727Y803195D01*
X787726D01*
X789725Y805195D01*
Y813192D01*
X787726Y815191D01*
X793724D02*
X801721D01*
X797722D01*
Y803195D01*
X805720Y809193D02*
X813717D01*
X817716Y813192D02*
X819715Y815191D01*
X823714D01*
X825713Y813192D01*
Y805195D01*
X823714Y803195D01*
X819715D01*
X817716Y805195D01*
Y813192D01*
X829712Y803195D02*
X833711D01*
X831711D01*
Y815191D01*
X829712Y813192D01*
X711750Y791997D02*
X715749Y784000D01*
X719747Y791997D01*
X723746Y784000D02*
X727745D01*
X725746D01*
Y795996D01*
X723746Y793997D01*
X733743Y784000D02*
Y785999D01*
X735742D01*
Y784000D01*
X733743D01*
X743740D02*
X747738D01*
X745739D01*
Y795996D01*
X743740Y793997D01*
X793165Y586081D02*
X791498Y587747D01*
X788166D01*
X786500Y586081D01*
Y584414D01*
X788166Y582748D01*
X791498D01*
X793165Y581082D01*
Y579416D01*
X791498Y577750D01*
X788166D01*
X786500Y579416D01*
X796497Y577750D02*
Y584414D01*
X799829Y587747D01*
X803161Y584414D01*
Y577750D01*
Y582748D01*
X796497D01*
X806494Y577750D02*
Y587747D01*
X811492D01*
X813158Y586081D01*
Y582748D01*
X811492Y581082D01*
X806494D01*
X809826D02*
X813158Y577750D01*
X816490D02*
Y584414D01*
X819823Y587747D01*
X823155Y584414D01*
Y577750D01*
Y582748D01*
X816490D01*
X826487D02*
X833152D01*
X836484Y577750D02*
Y587747D01*
X843148Y577750D01*
Y587747D01*
X853145Y577750D02*
X846481D01*
X853145Y584414D01*
Y586081D01*
X851479Y587747D01*
X848147D01*
X846481Y586081D01*
X856478Y577750D02*
X859810D01*
X858144D01*
Y587747D01*
X856478Y586081D01*
X864808D02*
X866474Y587747D01*
X869807D01*
X871473Y586081D01*
Y579416D01*
X869807Y577750D01*
X866474D01*
X864808Y579416D01*
Y586081D01*
X1099500Y785500D02*
Y787500D01*
Y785500D02*
X1108500D01*
X1120500D02*
X1129500D01*
Y787500D01*
Y811500D02*
Y816500D01*
X1099500D02*
X1129500D01*
X1099500Y811500D02*
Y816500D01*
X970748Y815191D02*
X962750D01*
Y803195D01*
X970748D01*
X962750Y809193D02*
X966749D01*
X982744Y815191D02*
X974746D01*
Y803195D01*
X982744D01*
X974746Y809193D02*
X978745D01*
X986742D02*
X994740D01*
X998738Y803195D02*
Y815191D01*
X1006736Y803195D01*
Y815191D01*
X1010735D02*
Y803195D01*
X1016733D01*
X1018732Y805195D01*
Y807194D01*
X1016733Y809193D01*
X1010735D01*
X1016733D01*
X1018732Y811193D01*
Y813192D01*
X1016733Y815191D01*
X1010735D01*
X1022731D02*
X1026729D01*
X1024730D01*
Y803195D01*
X1022731D01*
X1026729D01*
X1038726Y815191D02*
X1034727D01*
X1032728Y813192D01*
Y805195D01*
X1034727Y803195D01*
X1038726D01*
X1040725Y805195D01*
Y813192D01*
X1038726Y815191D01*
X1044724D02*
X1052721D01*
X1048722D01*
Y803195D01*
X1056720Y809193D02*
X1064717D01*
X1068716Y813192D02*
X1070715Y815191D01*
X1074714D01*
X1076713Y813192D01*
Y805195D01*
X1074714Y803195D01*
X1070715D01*
X1068716Y805195D01*
Y813192D01*
X1080712Y803195D02*
X1084711D01*
X1082711D01*
Y815191D01*
X1080712Y813192D01*
X962750Y791997D02*
X966749Y784000D01*
X970748Y791997D01*
X974746Y784000D02*
X978745D01*
X976746D01*
Y795996D01*
X974746Y793997D01*
X984743Y784000D02*
Y785999D01*
X986742D01*
Y784000D01*
X984743D01*
X994740D02*
X998738D01*
X996739D01*
Y795996D01*
X994740Y793997D01*
X1044165Y586081D02*
X1042498Y587747D01*
X1039166D01*
X1037500Y586081D01*
Y584414D01*
X1039166Y582748D01*
X1042498D01*
X1044165Y581082D01*
Y579416D01*
X1042498Y577750D01*
X1039166D01*
X1037500Y579416D01*
X1047497Y577750D02*
Y584414D01*
X1050829Y587747D01*
X1054161Y584414D01*
Y577750D01*
Y582748D01*
X1047497D01*
X1057494Y577750D02*
Y587747D01*
X1062492D01*
X1064158Y586081D01*
Y582748D01*
X1062492Y581082D01*
X1057494D01*
X1060826D02*
X1064158Y577750D01*
X1067490D02*
Y584414D01*
X1070823Y587747D01*
X1074155Y584414D01*
Y577750D01*
Y582748D01*
X1067490D01*
X1077487D02*
X1084152D01*
X1087484Y577750D02*
Y587747D01*
X1094148Y577750D01*
Y587747D01*
X1104145Y577750D02*
X1097481D01*
X1104145Y584414D01*
Y586081D01*
X1102479Y587747D01*
X1099147D01*
X1097481Y586081D01*
X1107478Y577750D02*
X1110810D01*
X1109144D01*
Y587747D01*
X1107478Y586081D01*
X1115808D02*
X1117474Y587747D01*
X1120807D01*
X1122473Y586081D01*
Y579416D01*
X1120807Y577750D01*
X1117474D01*
X1115808Y579416D01*
Y586081D01*
X1350500Y785500D02*
Y787500D01*
Y785500D02*
X1359500D01*
X1371500D02*
X1380500D01*
Y787500D01*
Y811500D02*
Y816500D01*
X1350500D02*
X1380500D01*
X1350500Y811500D02*
Y816500D01*
X1221748Y815191D02*
X1213750D01*
Y803195D01*
X1221748D01*
X1213750Y809193D02*
X1217749D01*
X1233744Y815191D02*
X1225746D01*
Y803195D01*
X1233744D01*
X1225746Y809193D02*
X1229745D01*
X1237742D02*
X1245740D01*
X1249738Y803195D02*
Y815191D01*
X1257736Y803195D01*
Y815191D01*
X1261735D02*
Y803195D01*
X1267733D01*
X1269732Y805195D01*
Y807194D01*
X1267733Y809193D01*
X1261735D01*
X1267733D01*
X1269732Y811193D01*
Y813192D01*
X1267733Y815191D01*
X1261735D01*
X1273731D02*
X1277729D01*
X1275730D01*
Y803195D01*
X1273731D01*
X1277729D01*
X1289726Y815191D02*
X1285727D01*
X1283728Y813192D01*
Y805195D01*
X1285727Y803195D01*
X1289726D01*
X1291725Y805195D01*
Y813192D01*
X1289726Y815191D01*
X1295724D02*
X1303721D01*
X1299722D01*
Y803195D01*
X1307720Y809193D02*
X1315717D01*
X1319716Y813192D02*
X1321715Y815191D01*
X1325714D01*
X1327713Y813192D01*
Y805195D01*
X1325714Y803195D01*
X1321715D01*
X1319716Y805195D01*
Y813192D01*
X1331712Y803195D02*
X1335711D01*
X1333711D01*
Y815191D01*
X1331712Y813192D01*
X1213750Y791997D02*
X1217749Y784000D01*
X1221748Y791997D01*
X1225746Y784000D02*
X1229745D01*
X1227746D01*
Y795996D01*
X1225746Y793997D01*
X1235743Y784000D02*
Y785999D01*
X1237742D01*
Y784000D01*
X1235743D01*
X1245740D02*
X1249738D01*
X1247739D01*
Y795996D01*
X1245740Y793997D01*
X1295165Y586081D02*
X1293499Y587747D01*
X1290166D01*
X1288500Y586081D01*
Y584414D01*
X1290166Y582748D01*
X1293499D01*
X1295165Y581082D01*
Y579416D01*
X1293499Y577750D01*
X1290166D01*
X1288500Y579416D01*
X1298497Y577750D02*
Y584414D01*
X1301829Y587747D01*
X1305161Y584414D01*
Y577750D01*
Y582748D01*
X1298497D01*
X1308494Y577750D02*
Y587747D01*
X1313492D01*
X1315158Y586081D01*
Y582748D01*
X1313492Y581082D01*
X1308494D01*
X1311826D02*
X1315158Y577750D01*
X1318490D02*
Y584414D01*
X1321823Y587747D01*
X1325155Y584414D01*
Y577750D01*
Y582748D01*
X1318490D01*
X1328487D02*
X1335152D01*
X1338484Y577750D02*
Y587747D01*
X1345149Y577750D01*
Y587747D01*
X1355145Y577750D02*
X1348481D01*
X1355145Y584414D01*
Y586081D01*
X1353479Y587747D01*
X1350147D01*
X1348481Y586081D01*
X1358478Y577750D02*
X1361810D01*
X1360144D01*
Y587747D01*
X1358478Y586081D01*
X1366808D02*
X1368474Y587747D01*
X1371807D01*
X1373473Y586081D01*
Y579416D01*
X1371807Y577750D01*
X1368474D01*
X1366808Y579416D01*
Y586081D01*
X1601500Y785500D02*
Y787500D01*
Y785500D02*
X1610500D01*
X1622500D02*
X1631500D01*
Y787500D01*
Y811500D02*
Y816500D01*
X1601500D02*
X1631500D01*
X1601500Y811500D02*
Y816500D01*
X1472748Y815191D02*
X1464750D01*
Y803195D01*
X1472748D01*
X1464750Y809193D02*
X1468749D01*
X1484744Y815191D02*
X1476746D01*
Y803195D01*
X1484744D01*
X1476746Y809193D02*
X1480745D01*
X1488742D02*
X1496740D01*
X1500739Y803195D02*
Y815191D01*
X1508736Y803195D01*
Y815191D01*
X1512735D02*
Y803195D01*
X1518733D01*
X1520732Y805195D01*
Y807194D01*
X1518733Y809193D01*
X1512735D01*
X1518733D01*
X1520732Y811193D01*
Y813192D01*
X1518733Y815191D01*
X1512735D01*
X1524731D02*
X1528730D01*
X1526730D01*
Y803195D01*
X1524731D01*
X1528730D01*
X1540726Y815191D02*
X1536727D01*
X1534727Y813192D01*
Y805195D01*
X1536727Y803195D01*
X1540726D01*
X1542725Y805195D01*
Y813192D01*
X1540726Y815191D01*
X1546724D02*
X1554721D01*
X1550722D01*
Y803195D01*
X1558720Y809193D02*
X1566717D01*
X1570716Y813192D02*
X1572715Y815191D01*
X1576714D01*
X1578713Y813192D01*
Y805195D01*
X1576714Y803195D01*
X1572715D01*
X1570716Y805195D01*
Y813192D01*
X1582712Y803195D02*
X1586711D01*
X1584711D01*
Y815191D01*
X1582712Y813192D01*
X1464750Y791997D02*
X1468749Y784000D01*
X1472748Y791997D01*
X1476746Y784000D02*
X1480745D01*
X1478746D01*
Y795996D01*
X1476746Y793997D01*
X1486743Y784000D02*
Y785999D01*
X1488742D01*
Y784000D01*
X1486743D01*
X1496740D02*
X1500739D01*
X1498739D01*
Y795996D01*
X1496740Y793997D01*
X1546165Y586081D02*
X1544499Y587747D01*
X1541166D01*
X1539500Y586081D01*
Y584414D01*
X1541166Y582748D01*
X1544499D01*
X1546165Y581082D01*
Y579416D01*
X1544499Y577750D01*
X1541166D01*
X1539500Y579416D01*
X1549497Y577750D02*
Y584414D01*
X1552829Y587747D01*
X1556161Y584414D01*
Y577750D01*
Y582748D01*
X1549497D01*
X1559494Y577750D02*
Y587747D01*
X1564492D01*
X1566158Y586081D01*
Y582748D01*
X1564492Y581082D01*
X1559494D01*
X1562826D02*
X1566158Y577750D01*
X1569491D02*
Y584414D01*
X1572823Y587747D01*
X1576155Y584414D01*
Y577750D01*
Y582748D01*
X1569491D01*
X1579487D02*
X1586152D01*
X1589484Y577750D02*
Y587747D01*
X1596149Y577750D01*
Y587747D01*
X1606145Y577750D02*
X1599481D01*
X1606145Y584414D01*
Y586081D01*
X1604479Y587747D01*
X1601147D01*
X1599481Y586081D01*
X1609478Y577750D02*
X1612810D01*
X1611144D01*
Y587747D01*
X1609478Y586081D01*
X1617808D02*
X1619474Y587747D01*
X1622807D01*
X1624473Y586081D01*
Y579416D01*
X1622807Y577750D01*
X1619474D01*
X1617808Y579416D01*
Y586081D01*
D28*
X202300Y275400D02*
X209920D01*
X220080D02*
X227700D01*
X202300Y250000D02*
X227700D01*
Y631000D01*
X202300Y250000D02*
Y631000D01*
X227700D01*
X453300Y275400D02*
X460920D01*
X471080D02*
X478700D01*
X453300Y250000D02*
X478700D01*
Y631000D01*
X453300Y250000D02*
Y631000D01*
X478700D01*
X704300Y275400D02*
X711920D01*
X722080D02*
X729700D01*
X704300Y250000D02*
X729700D01*
Y631000D01*
X704300Y250000D02*
Y631000D01*
X729700D01*
X955300Y275400D02*
X962920D01*
X973080D02*
X980700D01*
X955300Y250000D02*
X980700D01*
Y631000D01*
X955300Y250000D02*
Y631000D01*
X980700D01*
X1206300Y275400D02*
X1213920D01*
X1224080D02*
X1231700D01*
X1206300Y250000D02*
X1231700D01*
Y631000D01*
X1206300Y250000D02*
Y631000D01*
X1231700D01*
X1457300Y275400D02*
X1464920D01*
X1475080D02*
X1482700D01*
X1457300Y250000D02*
X1482700D01*
Y631000D01*
X1457300Y250000D02*
Y631000D01*
X1482700D01*
D29*
X300000Y900000D02*
Y949984D01*
X324992D01*
X333323Y941653D01*
Y924992D01*
X324992Y916661D01*
X300000D01*
X358315Y933323D02*
X374976D01*
X383306Y924992D01*
Y900000D01*
X358315D01*
X349984Y908331D01*
X358315Y916661D01*
X383306D01*
X399968Y900000D02*
Y933323D01*
X424960D01*
X433290Y924992D01*
Y900000D01*
X474944D02*
X458282D01*
X449952Y908331D01*
Y924992D01*
X458282Y933323D01*
X474944D01*
X483274Y924992D01*
Y916661D01*
X449952D01*
X499935Y900000D02*
X516597D01*
X508266D01*
Y949984D01*
X499935D01*
X541589Y900000D02*
X558250D01*
X549919D01*
Y933323D01*
X541589D01*
X583242D02*
X616564D01*
X583242Y900000D01*
X616564D01*
X658218D02*
X641556D01*
X633226Y908331D01*
Y924992D01*
X641556Y933323D01*
X658218D01*
X666548Y924992D01*
Y916661D01*
X633226D01*
X716532Y949984D02*
Y900000D01*
X691540D01*
X683210Y908331D01*
Y924992D01*
X691540Y933323D01*
X716532D01*
X783177Y924992D02*
X816500D01*
X916468Y949984D02*
X883145D01*
Y900000D01*
X916468D01*
X883145Y924992D02*
X899806D01*
X966451Y949984D02*
X933129D01*
Y900000D01*
X966451D01*
X933129Y924992D02*
X949790D01*
X983113D02*
X1016435D01*
X1033096Y900000D02*
Y949984D01*
X1066419Y900000D01*
Y949984D01*
X1083080D02*
Y900000D01*
X1108072D01*
X1116403Y908331D01*
Y916661D01*
X1108072Y924992D01*
X1083080D01*
X1108072D01*
X1116403Y933323D01*
Y941653D01*
X1108072Y949984D01*
X1083080D01*
X1133064D02*
X1149725D01*
X1141395D01*
Y900000D01*
X1133064D01*
X1149725D01*
X1199709Y949984D02*
X1183048D01*
X1174717Y941653D01*
Y908331D01*
X1183048Y900000D01*
X1199709D01*
X1208040Y908331D01*
Y941653D01*
X1199709Y949984D01*
X1224701D02*
X1258024D01*
X1241363D01*
Y900000D01*
X1274685Y924992D02*
X1308008D01*
X1324669Y941653D02*
X1333000Y949984D01*
X1349661D01*
X1357991Y941653D01*
Y908331D01*
X1349661Y900000D01*
X1333000D01*
X1324669Y908331D01*
Y941653D01*
X1374653Y900000D02*
X1391314D01*
X1382983D01*
Y949984D01*
X1374653Y941653D01*
X1466290Y933323D02*
X1482951Y900000D01*
X1499612Y933323D01*
X1516274Y900000D02*
X1532935D01*
X1524604D01*
Y949984D01*
X1516274Y941653D01*
X1557927Y900000D02*
Y908331D01*
X1566257D01*
Y900000D01*
X1557927D01*
X1599580D02*
X1616241D01*
X1607911D01*
Y949984D01*
X1599580Y941653D01*
D36*
X245702Y706520D02*
G03*
X245702Y706520I-3162J0D01*
G01*
X356500Y286500D02*
G03*
X356500Y286500I-500J0D01*
G01*
X290250Y271000D02*
G03*
X290250Y271000I-15000J0D01*
G01*
X248540Y715520D02*
X408540D01*
Y455520D02*
Y715520D01*
X248540Y455520D02*
X408540D01*
X248540D02*
Y715520D01*
X359500Y286500D02*
X364550D01*
X380450D02*
X385500D01*
X359500Y258500D02*
X364550D01*
X380450D02*
X385500D01*
X307000Y400300D02*
Y402250D01*
X339350D01*
X307000Y349250D02*
Y351200D01*
Y349250D02*
X339350D01*
X337650D02*
X370000D01*
Y351200D01*
Y400300D02*
Y402250D01*
X337650D02*
X370000D01*
X284972Y744750D02*
X285240Y744777D01*
X283637Y744964D02*
X284972Y744750D01*
X282091Y745721D02*
X283637Y744964D01*
X281719Y745963D02*
X282091Y745721D01*
X281437Y746150D02*
X281719Y745963D01*
X279907Y747381D02*
X281437Y746150D01*
X278605Y748681D02*
X279907Y747381D01*
X278437Y748898D02*
X278605Y748681D01*
X277862Y749641D02*
X278437Y748898D01*
X276440Y752107D02*
X277862Y749641D01*
X274872Y755953D02*
X276440Y752107D01*
X273790Y760250D02*
X274872Y755953D01*
X273318Y763660D02*
X273790Y760250D01*
X273261Y764799D02*
X273318Y763660D01*
X273242Y765149D02*
X273261Y764799D01*
X273163Y766194D02*
X273242Y765149D01*
X273022Y767043D02*
X273163Y766194D01*
X272797Y767477D02*
X273022Y767043D01*
X272542Y767621D02*
X272797Y767477D01*
X272455Y767631D02*
X272542Y767621D01*
X272187Y767672D02*
X272455Y767631D01*
X271324Y767368D02*
X272187Y767672D01*
X269772Y766324D02*
X271324Y767368D01*
X267827Y764525D02*
X269772Y766324D01*
X266078Y762645D02*
X267827Y764525D01*
X265522Y761994D02*
X266078Y762645D01*
X265180Y761598D02*
X265522Y761994D01*
X264141Y760410D02*
X265180Y761598D01*
X262804Y758907D02*
X264141Y760410D01*
X261656Y757654D02*
X262804Y758907D01*
X261049Y757009D02*
X261656Y757654D01*
X260856Y756819D02*
X261049Y757009D01*
X260655Y756626D02*
X260856Y756819D01*
X260037Y756062D02*
X260655Y756626D01*
X259367Y755631D02*
X260037Y756062D01*
X258599Y755408D02*
X259367Y755631D01*
X257764Y755305D02*
X258599Y755408D01*
X257487Y755281D02*
X257764Y755305D01*
X257145Y755254D02*
X257487Y755281D01*
X255791Y755343D02*
X257145Y755254D01*
X254837Y755755D02*
X255791Y755343D01*
X254695Y755888D02*
X254837Y755755D01*
X254446Y756122D02*
X254695Y755888D01*
X253868Y756995D02*
X254446Y756122D01*
X253277Y758411D02*
X253868Y756995D01*
X253000Y759881D02*
X253277Y758411D01*
X253000Y759881D02*
X253022Y760844D01*
X253114Y761137D01*
X253165Y761308D01*
X253811Y762510D01*
X254747Y763850D01*
X254948Y764086D01*
X255165Y764346D01*
X255875Y765084D01*
X257001Y765936D01*
X258759Y766918D01*
X260878Y767965D01*
X261588Y768304D01*
X262391Y768689D01*
X264816Y769815D01*
X267060Y770602D01*
X269382Y770922D01*
X271986Y771017D01*
X272854Y771036D01*
X272914Y771039D01*
X273443Y771763D01*
X274105Y773154D01*
X274235Y773491D01*
X274365Y773830D01*
X274772Y774842D01*
X275277Y775921D01*
X275814Y776800D01*
X276443Y777538D01*
X277230Y778195D01*
X278236Y778840D01*
X279530Y779529D01*
X280762Y780134D01*
X281174Y780330D01*
X281741Y780601D01*
X283461Y781390D01*
X285029Y782003D01*
X286192Y782277D01*
X287006Y782326D01*
X287277Y782315D01*
X287695Y782299D01*
X289580Y782006D01*
X291487Y781347D01*
X291919Y781149D01*
X292179Y781029D01*
X292993Y779974D01*
X293085Y778509D01*
X292985Y778184D02*
X293085Y778509D01*
X292933Y778024D02*
X292985Y778184D01*
X292714Y777557D02*
X292933Y778024D01*
X292271Y777058D02*
X292714Y777557D01*
X291517Y776572D02*
X292271Y777058D01*
X290622Y776127D02*
X291517Y776572D01*
X290321Y775989D02*
X290622Y776127D01*
X290004Y775845D02*
X290321Y775989D01*
X288973Y775463D02*
X290004Y775845D01*
X287009Y774804D02*
X288973Y775463D01*
X284695Y774093D02*
X287009Y774804D01*
X282896Y773580D02*
X284695Y774093D01*
X282294Y773420D02*
X282896Y773580D01*
X281532Y773220D02*
X282294Y773420D01*
X279248Y772590D02*
X281532Y773220D01*
X277485Y772023D02*
X279248Y772590D01*
X276625Y771576D02*
X277485Y772023D01*
X276343Y771234D02*
X276625Y771576D01*
X276299Y771104D02*
X276343Y771234D01*
X276259Y770992D02*
X276299Y771104D01*
X276234Y770621D02*
X276259Y770992D01*
X276234Y770621D02*
X276516Y770113D01*
X277292Y769408D01*
X278355Y768597D01*
X278716Y768334D01*
X279381Y767848D01*
X281288Y766253D01*
X283520Y764013D01*
X285471Y761542D01*
X286805Y759480D01*
X287204Y758766D01*
X287437Y758346D01*
X288113Y757057D01*
X288748Y755649D01*
X289171Y754377D01*
X289396Y753398D01*
X289450Y753067D01*
X289545Y752486D01*
X289692Y750715D01*
X289564Y748778D02*
X289692Y750715D01*
X289062Y747240D02*
X289564Y748778D01*
X288449Y746321D02*
X289062Y747240D01*
X288186Y746079D02*
X288449Y746321D01*
X288023Y745933D02*
X288186Y746079D01*
X287310Y745314D02*
X288023Y745933D01*
X286879Y744975D02*
X287310Y745314D01*
X286860Y744970D02*
X286879Y744975D01*
X286838Y744964D02*
X286860Y744970D01*
X286322Y744899D02*
X286838Y744964D01*
X285441Y744799D02*
X286322Y744899D01*
X285240Y744777D02*
X285441Y744799D01*
X496702Y706520D02*
G03*
X496702Y706520I-3162J0D01*
G01*
X607500Y286500D02*
G03*
X607500Y286500I-500J0D01*
G01*
X541250Y271000D02*
G03*
X541250Y271000I-15000J0D01*
G01*
X499540Y715520D02*
X659540D01*
Y455520D02*
Y715520D01*
X499540Y455520D02*
X659540D01*
X499540D02*
Y715520D01*
X610500Y286500D02*
X615550D01*
X631450D02*
X636500D01*
X610500Y258500D02*
X615550D01*
X631450D02*
X636500D01*
X558000Y400300D02*
Y402250D01*
X590350D01*
X558000Y349250D02*
Y351200D01*
Y349250D02*
X590350D01*
X588650D02*
X621000D01*
Y351200D01*
Y400300D02*
Y402250D01*
X588650D02*
X621000D01*
X535972Y744750D02*
X536240Y744777D01*
X534637Y744964D02*
X535972Y744750D01*
X533091Y745721D02*
X534637Y744964D01*
X532719Y745963D02*
X533091Y745721D01*
X532437Y746150D02*
X532719Y745963D01*
X530907Y747381D02*
X532437Y746150D01*
X529605Y748681D02*
X530907Y747381D01*
X529437Y748898D02*
X529605Y748681D01*
X528862Y749641D02*
X529437Y748898D01*
X527440Y752107D02*
X528862Y749641D01*
X525872Y755953D02*
X527440Y752107D01*
X524790Y760250D02*
X525872Y755953D01*
X524318Y763660D02*
X524790Y760250D01*
X524261Y764799D02*
X524318Y763660D01*
X524242Y765149D02*
X524261Y764799D01*
X524163Y766194D02*
X524242Y765149D01*
X524022Y767043D02*
X524163Y766194D01*
X523797Y767477D02*
X524022Y767043D01*
X523542Y767621D02*
X523797Y767477D01*
X523455Y767631D02*
X523542Y767621D01*
X523187Y767672D02*
X523455Y767631D01*
X522324Y767368D02*
X523187Y767672D01*
X520773Y766324D02*
X522324Y767368D01*
X518828Y764525D02*
X520773Y766324D01*
X517078Y762645D02*
X518828Y764525D01*
X516522Y761994D02*
X517078Y762645D01*
X516180Y761598D02*
X516522Y761994D01*
X515141Y760410D02*
X516180Y761598D01*
X513804Y758907D02*
X515141Y760410D01*
X512656Y757654D02*
X513804Y758907D01*
X512049Y757009D02*
X512656Y757654D01*
X511856Y756819D02*
X512049Y757009D01*
X511655Y756626D02*
X511856Y756819D01*
X511037Y756062D02*
X511655Y756626D01*
X510367Y755631D02*
X511037Y756062D01*
X509599Y755408D02*
X510367Y755631D01*
X508764Y755305D02*
X509599Y755408D01*
X508487Y755281D02*
X508764Y755305D01*
X508145Y755254D02*
X508487Y755281D01*
X506791Y755343D02*
X508145Y755254D01*
X505837Y755755D02*
X506791Y755343D01*
X505695Y755888D02*
X505837Y755755D01*
X505446Y756122D02*
X505695Y755888D01*
X504868Y756995D02*
X505446Y756122D01*
X504277Y758411D02*
X504868Y756995D01*
X504000Y759881D02*
X504277Y758411D01*
X504000Y759881D02*
X504022Y760844D01*
X504114Y761137D01*
X504165Y761308D01*
X504811Y762510D01*
X505747Y763850D01*
X505948Y764086D01*
X506165Y764346D01*
X506875Y765084D01*
X508001Y765936D01*
X509759Y766918D01*
X511878Y767965D01*
X512588Y768304D01*
X513391Y768689D01*
X515816Y769815D01*
X518060Y770602D01*
X520382Y770922D01*
X522986Y771017D01*
X523854Y771036D01*
X523914Y771039D01*
X524443Y771763D01*
X525105Y773154D01*
X525235Y773491D01*
X525365Y773830D01*
X525772Y774842D01*
X526277Y775921D01*
X526814Y776800D01*
X527443Y777538D01*
X528230Y778195D01*
X529236Y778840D01*
X530530Y779529D01*
X531762Y780134D01*
X532174Y780330D01*
X532741Y780601D01*
X534461Y781390D01*
X536029Y782003D01*
X537192Y782277D01*
X538006Y782326D01*
X538277Y782315D01*
X538695Y782299D01*
X540580Y782006D01*
X542487Y781347D01*
X542919Y781149D01*
X543179Y781029D01*
X543993Y779974D01*
X544085Y778509D01*
X543985Y778184D02*
X544085Y778509D01*
X543933Y778024D02*
X543985Y778184D01*
X543714Y777557D02*
X543933Y778024D01*
X543271Y777058D02*
X543714Y777557D01*
X542517Y776572D02*
X543271Y777058D01*
X541622Y776127D02*
X542517Y776572D01*
X541321Y775989D02*
X541622Y776127D01*
X541004Y775845D02*
X541321Y775989D01*
X539973Y775463D02*
X541004Y775845D01*
X538009Y774804D02*
X539973Y775463D01*
X535695Y774093D02*
X538009Y774804D01*
X533896Y773580D02*
X535695Y774093D01*
X533294Y773420D02*
X533896Y773580D01*
X532532Y773220D02*
X533294Y773420D01*
X530248Y772590D02*
X532532Y773220D01*
X528485Y772023D02*
X530248Y772590D01*
X527625Y771576D02*
X528485Y772023D01*
X527343Y771234D02*
X527625Y771576D01*
X527299Y771104D02*
X527343Y771234D01*
X527258Y770992D02*
X527299Y771104D01*
X527234Y770621D02*
X527258Y770992D01*
X527234Y770621D02*
X527516Y770113D01*
X528292Y769408D01*
X529355Y768597D01*
X529716Y768334D01*
X530381Y767848D01*
X532288Y766253D01*
X534520Y764013D01*
X536471Y761542D01*
X537805Y759480D01*
X538204Y758766D01*
X538438Y758346D01*
X539113Y757057D01*
X539748Y755649D01*
X540171Y754377D01*
X540396Y753398D01*
X540450Y753067D01*
X540545Y752486D01*
X540692Y750715D01*
X540564Y748778D02*
X540692Y750715D01*
X540062Y747240D02*
X540564Y748778D01*
X539449Y746321D02*
X540062Y747240D01*
X539186Y746079D02*
X539449Y746321D01*
X539023Y745933D02*
X539186Y746079D01*
X538310Y745314D02*
X539023Y745933D01*
X537879Y744975D02*
X538310Y745314D01*
X537860Y744970D02*
X537879Y744975D01*
X537838Y744964D02*
X537860Y744970D01*
X537323Y744899D02*
X537838Y744964D01*
X536441Y744799D02*
X537323Y744899D01*
X536240Y744777D02*
X536441Y744799D01*
X747702Y706520D02*
G03*
X747702Y706520I-3162J0D01*
G01*
X858500Y286500D02*
G03*
X858500Y286500I-500J0D01*
G01*
X792250Y271000D02*
G03*
X792250Y271000I-15000J0D01*
G01*
X750540Y715520D02*
X910540D01*
Y455520D02*
Y715520D01*
X750540Y455520D02*
X910540D01*
X750540D02*
Y715520D01*
X861500Y286500D02*
X866550D01*
X882450D02*
X887500D01*
X861500Y258500D02*
X866550D01*
X882450D02*
X887500D01*
X809000Y400300D02*
Y402250D01*
X841350D01*
X809000Y349250D02*
Y351200D01*
Y349250D02*
X841350D01*
X839650D02*
X872000D01*
Y351200D01*
Y400300D02*
Y402250D01*
X839650D02*
X872000D01*
X786972Y744750D02*
X787240Y744777D01*
X785637Y744964D02*
X786972Y744750D01*
X784091Y745721D02*
X785637Y744964D01*
X783719Y745963D02*
X784091Y745721D01*
X783437Y746150D02*
X783719Y745963D01*
X781907Y747381D02*
X783437Y746150D01*
X780605Y748681D02*
X781907Y747381D01*
X780437Y748898D02*
X780605Y748681D01*
X779862Y749641D02*
X780437Y748898D01*
X778440Y752107D02*
X779862Y749641D01*
X776872Y755953D02*
X778440Y752107D01*
X775790Y760250D02*
X776872Y755953D01*
X775318Y763660D02*
X775790Y760250D01*
X775261Y764799D02*
X775318Y763660D01*
X775242Y765149D02*
X775261Y764799D01*
X775163Y766194D02*
X775242Y765149D01*
X775022Y767043D02*
X775163Y766194D01*
X774797Y767477D02*
X775022Y767043D01*
X774542Y767621D02*
X774797Y767477D01*
X774455Y767631D02*
X774542Y767621D01*
X774187Y767672D02*
X774455Y767631D01*
X773324Y767368D02*
X774187Y767672D01*
X771773Y766324D02*
X773324Y767368D01*
X769828Y764525D02*
X771773Y766324D01*
X768078Y762645D02*
X769828Y764525D01*
X767522Y761994D02*
X768078Y762645D01*
X767180Y761598D02*
X767522Y761994D01*
X766141Y760410D02*
X767180Y761598D01*
X764804Y758907D02*
X766141Y760410D01*
X763656Y757654D02*
X764804Y758907D01*
X763049Y757009D02*
X763656Y757654D01*
X762856Y756819D02*
X763049Y757009D01*
X762655Y756626D02*
X762856Y756819D01*
X762037Y756062D02*
X762655Y756626D01*
X761367Y755631D02*
X762037Y756062D01*
X760599Y755408D02*
X761367Y755631D01*
X759763Y755305D02*
X760599Y755408D01*
X759487Y755281D02*
X759763Y755305D01*
X759145Y755254D02*
X759487Y755281D01*
X757791Y755343D02*
X759145Y755254D01*
X756837Y755755D02*
X757791Y755343D01*
X756695Y755888D02*
X756837Y755755D01*
X756446Y756122D02*
X756695Y755888D01*
X755868Y756995D02*
X756446Y756122D01*
X755277Y758411D02*
X755868Y756995D01*
X755000Y759881D02*
X755277Y758411D01*
X755000Y759881D02*
X755022Y760844D01*
X755114Y761137D01*
X755166Y761308D01*
X755811Y762510D01*
X756747Y763850D01*
X756948Y764086D01*
X757165Y764346D01*
X757876Y765084D01*
X759001Y765936D01*
X760759Y766918D01*
X762878Y767965D01*
X763588Y768304D01*
X764391Y768689D01*
X766817Y769815D01*
X769060Y770602D01*
X771382Y770922D01*
X773986Y771017D01*
X774854Y771036D01*
X774914Y771039D01*
X775443Y771763D01*
X776105Y773154D01*
X776235Y773491D01*
X776365Y773830D01*
X776772Y774842D01*
X777277Y775921D01*
X777814Y776800D01*
X778443Y777538D01*
X779230Y778195D01*
X780236Y778840D01*
X781530Y779529D01*
X782762Y780134D01*
X783174Y780330D01*
X783741Y780601D01*
X785461Y781390D01*
X787029Y782003D01*
X788192Y782277D01*
X789006Y782326D01*
X789277Y782315D01*
X789695Y782299D01*
X791581Y782006D01*
X793487Y781347D01*
X793919Y781149D01*
X794179Y781029D01*
X794993Y779974D01*
X795085Y778509D01*
X794985Y778184D02*
X795085Y778509D01*
X794933Y778024D02*
X794985Y778184D01*
X794714Y777557D02*
X794933Y778024D01*
X794271Y777058D02*
X794714Y777557D01*
X793517Y776572D02*
X794271Y777058D01*
X792622Y776127D02*
X793517Y776572D01*
X792321Y775989D02*
X792622Y776127D01*
X792004Y775845D02*
X792321Y775989D01*
X790973Y775463D02*
X792004Y775845D01*
X789009Y774804D02*
X790973Y775463D01*
X786695Y774093D02*
X789009Y774804D01*
X784896Y773580D02*
X786695Y774093D01*
X784294Y773420D02*
X784896Y773580D01*
X783532Y773220D02*
X784294Y773420D01*
X781248Y772590D02*
X783532Y773220D01*
X779485Y772023D02*
X781248Y772590D01*
X778625Y771576D02*
X779485Y772023D01*
X778343Y771234D02*
X778625Y771576D01*
X778299Y771104D02*
X778343Y771234D01*
X778259Y770992D02*
X778299Y771104D01*
X778234Y770621D02*
X778259Y770992D01*
X778234Y770621D02*
X778516Y770113D01*
X779292Y769408D01*
X780355Y768597D01*
X780716Y768334D01*
X781381Y767848D01*
X783288Y766253D01*
X785520Y764013D01*
X787471Y761542D01*
X788805Y759480D01*
X789204Y758766D01*
X789437Y758346D01*
X790113Y757057D01*
X790748Y755649D01*
X791171Y754377D01*
X791396Y753398D01*
X791450Y753067D01*
X791545Y752486D01*
X791692Y750715D01*
X791564Y748778D02*
X791692Y750715D01*
X791062Y747240D02*
X791564Y748778D01*
X790449Y746321D02*
X791062Y747240D01*
X790186Y746079D02*
X790449Y746321D01*
X790023Y745933D02*
X790186Y746079D01*
X789310Y745314D02*
X790023Y745933D01*
X788879Y744975D02*
X789310Y745314D01*
X788860Y744970D02*
X788879Y744975D01*
X788838Y744964D02*
X788860Y744970D01*
X788323Y744899D02*
X788838Y744964D01*
X787441Y744799D02*
X788323Y744899D01*
X787240Y744777D02*
X787441Y744799D01*
X998702Y706520D02*
G03*
X998702Y706520I-3162J0D01*
G01*
X1109500Y286500D02*
G03*
X1109500Y286500I-500J0D01*
G01*
X1043250Y271000D02*
G03*
X1043250Y271000I-15000J0D01*
G01*
X1001540Y715520D02*
X1161540D01*
Y455520D02*
Y715520D01*
X1001540Y455520D02*
X1161540D01*
X1001540D02*
Y715520D01*
X1112500Y286500D02*
X1117550D01*
X1133450D02*
X1138500D01*
X1112500Y258500D02*
X1117550D01*
X1133450D02*
X1138500D01*
X1060000Y400300D02*
Y402250D01*
X1092350D01*
X1060000Y349250D02*
Y351200D01*
Y349250D02*
X1092350D01*
X1090650D02*
X1123000D01*
Y351200D01*
Y400300D02*
Y402250D01*
X1090650D02*
X1123000D01*
X1037972Y744750D02*
X1038240Y744777D01*
X1036637Y744964D02*
X1037972Y744750D01*
X1035091Y745721D02*
X1036637Y744964D01*
X1034719Y745963D02*
X1035091Y745721D01*
X1034437Y746150D02*
X1034719Y745963D01*
X1032907Y747381D02*
X1034437Y746150D01*
X1031605Y748681D02*
X1032907Y747381D01*
X1031437Y748898D02*
X1031605Y748681D01*
X1030862Y749641D02*
X1031437Y748898D01*
X1029440Y752107D02*
X1030862Y749641D01*
X1027872Y755953D02*
X1029440Y752107D01*
X1026790Y760250D02*
X1027872Y755953D01*
X1026318Y763660D02*
X1026790Y760250D01*
X1026261Y764799D02*
X1026318Y763660D01*
X1026242Y765149D02*
X1026261Y764799D01*
X1026163Y766194D02*
X1026242Y765149D01*
X1026022Y767043D02*
X1026163Y766194D01*
X1025797Y767477D02*
X1026022Y767043D01*
X1025542Y767621D02*
X1025797Y767477D01*
X1025455Y767631D02*
X1025542Y767621D01*
X1025187Y767672D02*
X1025455Y767631D01*
X1024324Y767368D02*
X1025187Y767672D01*
X1022773Y766324D02*
X1024324Y767368D01*
X1020828Y764525D02*
X1022773Y766324D01*
X1019078Y762645D02*
X1020828Y764525D01*
X1018522Y761994D02*
X1019078Y762645D01*
X1018180Y761598D02*
X1018522Y761994D01*
X1017141Y760410D02*
X1018180Y761598D01*
X1015804Y758907D02*
X1017141Y760410D01*
X1014656Y757654D02*
X1015804Y758907D01*
X1014049Y757009D02*
X1014656Y757654D01*
X1013856Y756819D02*
X1014049Y757009D01*
X1013655Y756626D02*
X1013856Y756819D01*
X1013037Y756062D02*
X1013655Y756626D01*
X1012367Y755631D02*
X1013037Y756062D01*
X1011599Y755408D02*
X1012367Y755631D01*
X1010764Y755305D02*
X1011599Y755408D01*
X1010487Y755281D02*
X1010764Y755305D01*
X1010145Y755254D02*
X1010487Y755281D01*
X1008792Y755343D02*
X1010145Y755254D01*
X1007837Y755755D02*
X1008792Y755343D01*
X1007695Y755888D02*
X1007837Y755755D01*
X1007446Y756122D02*
X1007695Y755888D01*
X1006868Y756995D02*
X1007446Y756122D01*
X1006277Y758411D02*
X1006868Y756995D01*
X1006000Y759881D02*
X1006277Y758411D01*
X1006000Y759881D02*
X1006022Y760844D01*
X1006114Y761137D01*
X1006166Y761308D01*
X1006811Y762510D01*
X1007747Y763850D01*
X1007948Y764086D01*
X1008165Y764346D01*
X1008876Y765084D01*
X1010001Y765936D01*
X1011759Y766918D01*
X1013878Y767965D01*
X1014588Y768304D01*
X1015391Y768689D01*
X1017817Y769815D01*
X1020060Y770602D01*
X1022382Y770922D01*
X1024986Y771017D01*
X1025854Y771036D01*
X1025914Y771039D01*
X1026443Y771763D01*
X1027105Y773154D01*
X1027235Y773491D01*
X1027365Y773830D01*
X1027772Y774842D01*
X1028277Y775921D01*
X1028814Y776800D01*
X1029443Y777538D01*
X1030230Y778195D01*
X1031236Y778840D01*
X1032530Y779529D01*
X1033762Y780134D01*
X1034174Y780330D01*
X1034741Y780601D01*
X1036461Y781390D01*
X1038029Y782003D01*
X1039192Y782277D01*
X1040006Y782326D01*
X1040277Y782315D01*
X1040695Y782299D01*
X1042580Y782006D01*
X1044488Y781347D01*
X1044919Y781149D01*
X1045179Y781029D01*
X1045993Y779974D01*
X1046085Y778509D01*
X1045985Y778184D02*
X1046085Y778509D01*
X1045933Y778024D02*
X1045985Y778184D01*
X1045714Y777557D02*
X1045933Y778024D01*
X1045272Y777058D02*
X1045714Y777557D01*
X1044517Y776572D02*
X1045272Y777058D01*
X1043622Y776127D02*
X1044517Y776572D01*
X1043321Y775989D02*
X1043622Y776127D01*
X1043004Y775845D02*
X1043321Y775989D01*
X1041973Y775463D02*
X1043004Y775845D01*
X1040009Y774804D02*
X1041973Y775463D01*
X1037695Y774093D02*
X1040009Y774804D01*
X1035897Y773580D02*
X1037695Y774093D01*
X1035294Y773420D02*
X1035897Y773580D01*
X1034532Y773220D02*
X1035294Y773420D01*
X1032248Y772590D02*
X1034532Y773220D01*
X1030485Y772023D02*
X1032248Y772590D01*
X1029625Y771576D02*
X1030485Y772023D01*
X1029343Y771234D02*
X1029625Y771576D01*
X1029299Y771104D02*
X1029343Y771234D01*
X1029259Y770992D02*
X1029299Y771104D01*
X1029234Y770621D02*
X1029259Y770992D01*
X1029234Y770621D02*
X1029516Y770113D01*
X1030292Y769408D01*
X1031356Y768597D01*
X1031716Y768334D01*
X1032381Y767848D01*
X1034288Y766253D01*
X1036520Y764013D01*
X1038471Y761542D01*
X1039806Y759480D01*
X1040204Y758766D01*
X1040437Y758346D01*
X1041113Y757057D01*
X1041748Y755649D01*
X1042171Y754377D01*
X1042396Y753398D01*
X1042450Y753067D01*
X1042545Y752486D01*
X1042692Y750715D01*
X1042564Y748778D02*
X1042692Y750715D01*
X1042062Y747240D02*
X1042564Y748778D01*
X1041449Y746321D02*
X1042062Y747240D01*
X1041186Y746079D02*
X1041449Y746321D01*
X1041023Y745933D02*
X1041186Y746079D01*
X1040310Y745314D02*
X1041023Y745933D01*
X1039879Y744975D02*
X1040310Y745314D01*
X1039860Y744970D02*
X1039879Y744975D01*
X1039838Y744964D02*
X1039860Y744970D01*
X1039323Y744899D02*
X1039838Y744964D01*
X1038441Y744799D02*
X1039323Y744899D01*
X1038240Y744777D02*
X1038441Y744799D01*
X1249702Y706520D02*
G03*
X1249702Y706520I-3162J0D01*
G01*
X1360500Y286500D02*
G03*
X1360500Y286500I-500J0D01*
G01*
X1294250Y271000D02*
G03*
X1294250Y271000I-15000J0D01*
G01*
X1252540Y715520D02*
X1412540D01*
Y455520D02*
Y715520D01*
X1252540Y455520D02*
X1412540D01*
X1252540D02*
Y715520D01*
X1363500Y286500D02*
X1368550D01*
X1384450D02*
X1389500D01*
X1363500Y258500D02*
X1368550D01*
X1384450D02*
X1389500D01*
X1311000Y400300D02*
Y402250D01*
X1343350D01*
X1311000Y349250D02*
Y351200D01*
Y349250D02*
X1343350D01*
X1341650D02*
X1374000D01*
Y351200D01*
Y400300D02*
Y402250D01*
X1341650D02*
X1374000D01*
X1288972Y744750D02*
X1289240Y744777D01*
X1287637Y744964D02*
X1288972Y744750D01*
X1286091Y745721D02*
X1287637Y744964D01*
X1285719Y745963D02*
X1286091Y745721D01*
X1285437Y746150D02*
X1285719Y745963D01*
X1283907Y747381D02*
X1285437Y746150D01*
X1282605Y748681D02*
X1283907Y747381D01*
X1282437Y748898D02*
X1282605Y748681D01*
X1281862Y749641D02*
X1282437Y748898D01*
X1280440Y752107D02*
X1281862Y749641D01*
X1278872Y755953D02*
X1280440Y752107D01*
X1277790Y760250D02*
X1278872Y755953D01*
X1277318Y763660D02*
X1277790Y760250D01*
X1277261Y764799D02*
X1277318Y763660D01*
X1277242Y765149D02*
X1277261Y764799D01*
X1277163Y766194D02*
X1277242Y765149D01*
X1277022Y767043D02*
X1277163Y766194D01*
X1276797Y767477D02*
X1277022Y767043D01*
X1276542Y767621D02*
X1276797Y767477D01*
X1276456Y767631D02*
X1276542Y767621D01*
X1276187Y767672D02*
X1276456Y767631D01*
X1275324Y767368D02*
X1276187Y767672D01*
X1273773Y766324D02*
X1275324Y767368D01*
X1271828Y764525D02*
X1273773Y766324D01*
X1270078Y762645D02*
X1271828Y764525D01*
X1269522Y761994D02*
X1270078Y762645D01*
X1269180Y761598D02*
X1269522Y761994D01*
X1268141Y760410D02*
X1269180Y761598D01*
X1266804Y758907D02*
X1268141Y760410D01*
X1265656Y757654D02*
X1266804Y758907D01*
X1265049Y757009D02*
X1265656Y757654D01*
X1264856Y756819D02*
X1265049Y757009D01*
X1264655Y756626D02*
X1264856Y756819D01*
X1264037Y756062D02*
X1264655Y756626D01*
X1263367Y755631D02*
X1264037Y756062D01*
X1262599Y755408D02*
X1263367Y755631D01*
X1261764Y755305D02*
X1262599Y755408D01*
X1261487Y755281D02*
X1261764Y755305D01*
X1261145Y755254D02*
X1261487Y755281D01*
X1259791Y755343D02*
X1261145Y755254D01*
X1258837Y755755D02*
X1259791Y755343D01*
X1258696Y755888D02*
X1258837Y755755D01*
X1258446Y756122D02*
X1258696Y755888D01*
X1257868Y756995D02*
X1258446Y756122D01*
X1257277Y758411D02*
X1257868Y756995D01*
X1257000Y759881D02*
X1257277Y758411D01*
X1257000Y759881D02*
X1257022Y760844D01*
X1257114Y761137D01*
X1257166Y761308D01*
X1257811Y762510D01*
X1258747Y763850D01*
X1258948Y764086D01*
X1259165Y764346D01*
X1259876Y765084D01*
X1261001Y765936D01*
X1262759Y766918D01*
X1264878Y767965D01*
X1265589Y768304D01*
X1266391Y768689D01*
X1268817Y769815D01*
X1271060Y770602D01*
X1273382Y770922D01*
X1275986Y771017D01*
X1276854Y771036D01*
X1276914Y771039D01*
X1277443Y771763D01*
X1278105Y773154D01*
X1278235Y773491D01*
X1278365Y773830D01*
X1278772Y774842D01*
X1279277Y775921D01*
X1279814Y776800D01*
X1280443Y777538D01*
X1281230Y778195D01*
X1282236Y778840D01*
X1283530Y779529D01*
X1284762Y780134D01*
X1285174Y780330D01*
X1285741Y780601D01*
X1287461Y781390D01*
X1289029Y782003D01*
X1290193Y782277D01*
X1291006Y782326D01*
X1291277Y782315D01*
X1291695Y782299D01*
X1293580Y782006D01*
X1295488Y781347D01*
X1295919Y781149D01*
X1296179Y781029D01*
X1296993Y779974D01*
X1297085Y778509D01*
X1296985Y778184D02*
X1297085Y778509D01*
X1296933Y778024D02*
X1296985Y778184D01*
X1296714Y777557D02*
X1296933Y778024D01*
X1296272Y777058D02*
X1296714Y777557D01*
X1295517Y776572D02*
X1296272Y777058D01*
X1294622Y776127D02*
X1295517Y776572D01*
X1294321Y775989D02*
X1294622Y776127D01*
X1294004Y775845D02*
X1294321Y775989D01*
X1292973Y775463D02*
X1294004Y775845D01*
X1291009Y774804D02*
X1292973Y775463D01*
X1288695Y774093D02*
X1291009Y774804D01*
X1286897Y773580D02*
X1288695Y774093D01*
X1286294Y773420D02*
X1286897Y773580D01*
X1285532Y773220D02*
X1286294Y773420D01*
X1283248Y772590D02*
X1285532Y773220D01*
X1281485Y772023D02*
X1283248Y772590D01*
X1280625Y771576D02*
X1281485Y772023D01*
X1280343Y771234D02*
X1280625Y771576D01*
X1280299Y771104D02*
X1280343Y771234D01*
X1280259Y770992D02*
X1280299Y771104D01*
X1280234Y770621D02*
X1280259Y770992D01*
X1280234Y770621D02*
X1280516Y770113D01*
X1281292Y769408D01*
X1282355Y768597D01*
X1282716Y768334D01*
X1283381Y767848D01*
X1285288Y766253D01*
X1287520Y764013D01*
X1289471Y761542D01*
X1290806Y759480D01*
X1291204Y758766D01*
X1291438Y758346D01*
X1292113Y757057D01*
X1292748Y755649D01*
X1293171Y754377D01*
X1293396Y753398D01*
X1293450Y753067D01*
X1293545Y752486D01*
X1293692Y750715D01*
X1293564Y748778D02*
X1293692Y750715D01*
X1293062Y747240D02*
X1293564Y748778D01*
X1292449Y746321D02*
X1293062Y747240D01*
X1292186Y746079D02*
X1292449Y746321D01*
X1292023Y745933D02*
X1292186Y746079D01*
X1291310Y745314D02*
X1292023Y745933D01*
X1290879Y744975D02*
X1291310Y745314D01*
X1290860Y744970D02*
X1290879Y744975D01*
X1290838Y744964D02*
X1290860Y744970D01*
X1290323Y744899D02*
X1290838Y744964D01*
X1289441Y744799D02*
X1290323Y744899D01*
X1289240Y744777D02*
X1289441Y744799D01*
X1500703Y706520D02*
G03*
X1500703Y706520I-3162J0D01*
G01*
X1611500Y286500D02*
G03*
X1611500Y286500I-500J0D01*
G01*
X1545250Y271000D02*
G03*
X1545250Y271000I-15000J0D01*
G01*
X1503540Y715520D02*
X1663540D01*
Y455520D02*
Y715520D01*
X1503540Y455520D02*
X1663540D01*
X1503540D02*
Y715520D01*
X1614500Y286500D02*
X1619550D01*
X1635450D02*
X1640500D01*
X1614500Y258500D02*
X1619550D01*
X1635450D02*
X1640500D01*
X1562000Y400300D02*
Y402250D01*
X1594350D01*
X1562000Y349250D02*
Y351200D01*
Y349250D02*
X1594350D01*
X1592650D02*
X1625000D01*
Y351200D01*
Y400300D02*
Y402250D01*
X1592650D02*
X1625000D01*
X1539972Y744750D02*
X1540240Y744777D01*
X1538637Y744964D02*
X1539972Y744750D01*
X1537091Y745721D02*
X1538637Y744964D01*
X1536719Y745963D02*
X1537091Y745721D01*
X1536437Y746150D02*
X1536719Y745963D01*
X1534907Y747381D02*
X1536437Y746150D01*
X1533605Y748681D02*
X1534907Y747381D01*
X1533437Y748898D02*
X1533605Y748681D01*
X1532862Y749641D02*
X1533437Y748898D01*
X1531440Y752107D02*
X1532862Y749641D01*
X1529872Y755953D02*
X1531440Y752107D01*
X1528790Y760250D02*
X1529872Y755953D01*
X1528318Y763660D02*
X1528790Y760250D01*
X1528261Y764799D02*
X1528318Y763660D01*
X1528242Y765149D02*
X1528261Y764799D01*
X1528163Y766194D02*
X1528242Y765149D01*
X1528022Y767043D02*
X1528163Y766194D01*
X1527797Y767477D02*
X1528022Y767043D01*
X1527542Y767621D02*
X1527797Y767477D01*
X1527455Y767631D02*
X1527542Y767621D01*
X1527187Y767672D02*
X1527455Y767631D01*
X1526324Y767368D02*
X1527187Y767672D01*
X1524773Y766324D02*
X1526324Y767368D01*
X1522828Y764525D02*
X1524773Y766324D01*
X1521078Y762645D02*
X1522828Y764525D01*
X1520522Y761994D02*
X1521078Y762645D01*
X1520180Y761598D02*
X1520522Y761994D01*
X1519141Y760410D02*
X1520180Y761598D01*
X1517804Y758907D02*
X1519141Y760410D01*
X1516656Y757654D02*
X1517804Y758907D01*
X1516049Y757009D02*
X1516656Y757654D01*
X1515856Y756819D02*
X1516049Y757009D01*
X1515655Y756626D02*
X1515856Y756819D01*
X1515037Y756062D02*
X1515655Y756626D01*
X1514367Y755631D02*
X1515037Y756062D01*
X1513599Y755408D02*
X1514367Y755631D01*
X1512764Y755305D02*
X1513599Y755408D01*
X1512487Y755281D02*
X1512764Y755305D01*
X1512145Y755254D02*
X1512487Y755281D01*
X1510791Y755343D02*
X1512145Y755254D01*
X1509837Y755755D02*
X1510791Y755343D01*
X1509696Y755888D02*
X1509837Y755755D01*
X1509446Y756122D02*
X1509696Y755888D01*
X1508868Y756995D02*
X1509446Y756122D01*
X1508277Y758411D02*
X1508868Y756995D01*
X1508000Y759881D02*
X1508277Y758411D01*
X1508000Y759881D02*
X1508022Y760844D01*
X1508114Y761137D01*
X1508166Y761308D01*
X1508811Y762510D01*
X1509747Y763850D01*
X1509948Y764086D01*
X1510165Y764346D01*
X1510876Y765084D01*
X1512001Y765936D01*
X1513759Y766918D01*
X1515878Y767965D01*
X1516588Y768304D01*
X1517392Y768689D01*
X1519817Y769815D01*
X1522060Y770602D01*
X1524382Y770922D01*
X1526986Y771017D01*
X1527854Y771036D01*
X1527914Y771039D01*
X1528443Y771763D01*
X1529105Y773154D01*
X1529235Y773491D01*
X1529365Y773830D01*
X1529772Y774842D01*
X1530277Y775921D01*
X1530814Y776800D01*
X1531443Y777538D01*
X1532230Y778195D01*
X1533236Y778840D01*
X1534530Y779529D01*
X1535762Y780134D01*
X1536174Y780330D01*
X1536741Y780601D01*
X1538461Y781390D01*
X1540029Y782003D01*
X1541192Y782277D01*
X1542006Y782326D01*
X1542278Y782315D01*
X1542695Y782299D01*
X1544581Y782006D01*
X1546488Y781347D01*
X1546919Y781149D01*
X1547179Y781029D01*
X1547993Y779974D01*
X1548085Y778509D01*
X1547985Y778184D02*
X1548085Y778509D01*
X1547933Y778024D02*
X1547985Y778184D01*
X1547714Y777557D02*
X1547933Y778024D01*
X1547272Y777058D02*
X1547714Y777557D01*
X1546517Y776572D02*
X1547272Y777058D01*
X1545622Y776127D02*
X1546517Y776572D01*
X1545321Y775989D02*
X1545622Y776127D01*
X1545004Y775845D02*
X1545321Y775989D01*
X1543973Y775463D02*
X1545004Y775845D01*
X1542009Y774804D02*
X1543973Y775463D01*
X1539695Y774093D02*
X1542009Y774804D01*
X1537897Y773580D02*
X1539695Y774093D01*
X1537294Y773420D02*
X1537897Y773580D01*
X1536532Y773220D02*
X1537294Y773420D01*
X1534248Y772590D02*
X1536532Y773220D01*
X1532485Y772023D02*
X1534248Y772590D01*
X1531625Y771576D02*
X1532485Y772023D01*
X1531343Y771234D02*
X1531625Y771576D01*
X1531299Y771104D02*
X1531343Y771234D01*
X1531259Y770992D02*
X1531299Y771104D01*
X1531234Y770621D02*
X1531259Y770992D01*
X1531234Y770621D02*
X1531516Y770113D01*
X1532292Y769408D01*
X1533356Y768597D01*
X1533716Y768334D01*
X1534381Y767848D01*
X1536288Y766253D01*
X1538520Y764013D01*
X1540471Y761542D01*
X1541806Y759480D01*
X1542204Y758766D01*
X1542438Y758346D01*
X1543113Y757057D01*
X1543748Y755649D01*
X1544171Y754377D01*
X1544396Y753398D01*
X1544450Y753067D01*
X1544545Y752486D01*
X1544692Y750715D01*
X1544564Y748778D02*
X1544692Y750715D01*
X1544062Y747240D02*
X1544564Y748778D01*
X1543449Y746321D02*
X1544062Y747240D01*
X1543186Y746079D02*
X1543449Y746321D01*
X1543024Y745933D02*
X1543186Y746079D01*
X1542310Y745314D02*
X1543024Y745933D01*
X1541879Y744975D02*
X1542310Y745314D01*
X1541860Y744970D02*
X1541879Y744975D01*
X1541838Y744964D02*
X1541860Y744970D01*
X1541323Y744899D02*
X1541838Y744964D01*
X1540441Y744799D02*
X1541323Y744899D01*
X1540240Y744777D02*
X1540441Y744799D01*
D37*
X309750Y408750D02*
G03*
X309750Y408750I-1250J0D01*
G01*
X560750D02*
G03*
X560750Y408750I-1250J0D01*
G01*
X811750D02*
G03*
X811750Y408750I-1250J0D01*
G01*
X1062750D02*
G03*
X1062750Y408750I-1250J0D01*
G01*
X1313750D02*
G03*
X1313750Y408750I-1250J0D01*
G01*
X1564750D02*
G03*
X1564750Y408750I-1250J0D01*
G01*
D38*
X357251Y311001D02*
X363751D01*
X368751D02*
X375251D01*
X357251Y304001D02*
X363751D01*
X368751D02*
X375251D01*
Y311001D01*
X357251Y304001D02*
Y311001D01*
Y301001D02*
X363751D01*
X368751D02*
X375251D01*
X357251Y294001D02*
X363751D01*
X368751D02*
X375251D01*
Y301001D01*
X357251Y294001D02*
Y301001D01*
X394751Y270501D02*
X401251D01*
X406251D02*
X412751D01*
X394751Y263501D02*
X401251D01*
X406251D02*
X412751D01*
Y270501D01*
X394751Y263501D02*
Y270501D01*
X357751Y251751D02*
X364251D01*
X369251D02*
X375751D01*
X357751Y244751D02*
X364251D01*
X369251D02*
X375751D01*
Y251751D01*
X357751Y244751D02*
Y251751D01*
X357810Y735240D02*
X365310D01*
X357810Y717740D02*
X365310D01*
X357810D02*
Y723990D01*
Y728990D02*
Y735240D01*
X365310Y717740D02*
Y723990D01*
Y728990D02*
Y735240D01*
X357251Y744501D02*
X363751D01*
X368751D02*
X375251D01*
X357251Y737501D02*
X363751D01*
X368751D02*
X375251D01*
Y744501D01*
X357251Y737501D02*
Y744501D01*
X358001Y764499D02*
X365001D01*
X358001Y746499D02*
X365001D01*
X358001D02*
Y752999D01*
Y757999D02*
Y764499D01*
X365001Y746499D02*
Y752999D01*
Y757999D02*
Y764499D01*
X291750Y735750D02*
X299250D01*
X291750Y718250D02*
X299250D01*
X291750D02*
Y724500D01*
Y729500D02*
Y735750D01*
X299250Y718250D02*
Y724500D01*
Y729500D02*
Y735750D01*
X327999Y757251D02*
X334999D01*
X327999Y775251D02*
X334999D01*
Y768751D02*
Y775251D01*
Y757251D02*
Y763751D01*
X327999Y768751D02*
Y775251D01*
Y757251D02*
Y763751D01*
X338000Y757500D02*
X345500D01*
X338000Y775000D02*
X345500D01*
Y768750D02*
Y775000D01*
Y757500D02*
Y763750D01*
X338000Y768750D02*
Y775000D01*
Y757500D02*
Y763750D01*
X359249Y767749D02*
X365749D01*
X347749D02*
X354249D01*
X359249Y774749D02*
X365749D01*
X347749D02*
X354249D01*
X347749Y767749D02*
Y774749D01*
X365749Y767749D02*
Y774749D01*
X385751Y366249D02*
X392751D01*
X385751Y348249D02*
X392751D01*
X385751D02*
Y354749D01*
Y359749D02*
Y366249D01*
X392751Y348249D02*
Y354749D01*
Y359749D02*
Y366249D01*
X376251Y385999D02*
X383251D01*
X376251Y367999D02*
X383251D01*
X376251D02*
Y374499D01*
Y379499D02*
Y385999D01*
X383251Y367999D02*
Y374499D01*
Y379499D02*
Y385999D01*
X376249Y390751D02*
X383249D01*
X376249Y408751D02*
X383249D01*
Y402251D02*
Y408751D01*
Y390751D02*
Y397251D01*
X376249Y402251D02*
Y408751D01*
Y390751D02*
Y397251D01*
X266500Y341500D02*
Y349000D01*
X249000Y341500D02*
Y349000D01*
X255250D01*
X260250D02*
X266500D01*
X249000Y341500D02*
X255250D01*
X260250D02*
X266500D01*
X292501Y373499D02*
X299501D01*
X292501Y355499D02*
X299501D01*
X292501D02*
Y361999D01*
Y366999D02*
Y373499D01*
X299501Y355499D02*
Y361999D01*
Y366999D02*
Y373499D01*
X385249Y390751D02*
X392249D01*
X385249Y408751D02*
X392249D01*
Y402251D02*
Y408751D01*
Y390751D02*
Y397251D01*
X385249Y402251D02*
Y408751D01*
Y390751D02*
Y397251D01*
X608251Y311001D02*
X614751D01*
X619751D02*
X626251D01*
X608251Y304001D02*
X614751D01*
X619751D02*
X626251D01*
Y311001D01*
X608251Y304001D02*
Y311001D01*
Y301001D02*
X614751D01*
X619751D02*
X626251D01*
X608251Y294001D02*
X614751D01*
X619751D02*
X626251D01*
Y301001D01*
X608251Y294001D02*
Y301001D01*
X645751Y270501D02*
X652251D01*
X657251D02*
X663751D01*
X645751Y263501D02*
X652251D01*
X657251D02*
X663751D01*
Y270501D01*
X645751Y263501D02*
Y270501D01*
X608751Y251751D02*
X615251D01*
X620251D02*
X626751D01*
X608751Y244751D02*
X615251D01*
X620251D02*
X626751D01*
Y251751D01*
X608751Y244751D02*
Y251751D01*
X608810Y735240D02*
X616310D01*
X608810Y717740D02*
X616310D01*
X608810D02*
Y723990D01*
Y728990D02*
Y735240D01*
X616310Y717740D02*
Y723990D01*
Y728990D02*
Y735240D01*
X608251Y744501D02*
X614751D01*
X619751D02*
X626251D01*
X608251Y737501D02*
X614751D01*
X619751D02*
X626251D01*
Y744501D01*
X608251Y737501D02*
Y744501D01*
X609001Y764499D02*
X616001D01*
X609001Y746499D02*
X616001D01*
X609001D02*
Y752999D01*
Y757999D02*
Y764499D01*
X616001Y746499D02*
Y752999D01*
Y757999D02*
Y764499D01*
X542750Y735750D02*
X550250D01*
X542750Y718250D02*
X550250D01*
X542750D02*
Y724500D01*
Y729500D02*
Y735750D01*
X550250Y718250D02*
Y724500D01*
Y729500D02*
Y735750D01*
X578999Y757251D02*
X585999D01*
X578999Y775251D02*
X585999D01*
Y768751D02*
Y775251D01*
Y757251D02*
Y763751D01*
X578999Y768751D02*
Y775251D01*
Y757251D02*
Y763751D01*
X589000Y757500D02*
X596500D01*
X589000Y775000D02*
X596500D01*
Y768750D02*
Y775000D01*
Y757500D02*
Y763750D01*
X589000Y768750D02*
Y775000D01*
Y757500D02*
Y763750D01*
X610249Y767749D02*
X616749D01*
X598749D02*
X605249D01*
X610249Y774749D02*
X616749D01*
X598749D02*
X605249D01*
X598749Y767749D02*
Y774749D01*
X616749Y767749D02*
Y774749D01*
X636751Y366249D02*
X643751D01*
X636751Y348249D02*
X643751D01*
X636751D02*
Y354749D01*
Y359749D02*
Y366249D01*
X643751Y348249D02*
Y354749D01*
Y359749D02*
Y366249D01*
X627251Y385999D02*
X634251D01*
X627251Y367999D02*
X634251D01*
X627251D02*
Y374499D01*
Y379499D02*
Y385999D01*
X634251Y367999D02*
Y374499D01*
Y379499D02*
Y385999D01*
X627249Y390751D02*
X634249D01*
X627249Y408751D02*
X634249D01*
Y402251D02*
Y408751D01*
Y390751D02*
Y397251D01*
X627249Y402251D02*
Y408751D01*
Y390751D02*
Y397251D01*
X517500Y341500D02*
Y349000D01*
X500000Y341500D02*
Y349000D01*
X506250D01*
X511250D02*
X517500D01*
X500000Y341500D02*
X506250D01*
X511250D02*
X517500D01*
X543501Y373499D02*
X550501D01*
X543501Y355499D02*
X550501D01*
X543501D02*
Y361999D01*
Y366999D02*
Y373499D01*
X550501Y355499D02*
Y361999D01*
Y366999D02*
Y373499D01*
X636249Y390751D02*
X643249D01*
X636249Y408751D02*
X643249D01*
Y402251D02*
Y408751D01*
Y390751D02*
Y397251D01*
X636249Y402251D02*
Y408751D01*
Y390751D02*
Y397251D01*
X859251Y311001D02*
X865751D01*
X870751D02*
X877251D01*
X859251Y304001D02*
X865751D01*
X870751D02*
X877251D01*
Y311001D01*
X859251Y304001D02*
Y311001D01*
Y301001D02*
X865751D01*
X870751D02*
X877251D01*
X859251Y294001D02*
X865751D01*
X870751D02*
X877251D01*
Y301001D01*
X859251Y294001D02*
Y301001D01*
X896751Y270501D02*
X903251D01*
X908251D02*
X914751D01*
X896751Y263501D02*
X903251D01*
X908251D02*
X914751D01*
Y270501D01*
X896751Y263501D02*
Y270501D01*
X859751Y251751D02*
X866251D01*
X871251D02*
X877751D01*
X859751Y244751D02*
X866251D01*
X871251D02*
X877751D01*
Y251751D01*
X859751Y244751D02*
Y251751D01*
X859810Y735240D02*
X867310D01*
X859810Y717740D02*
X867310D01*
X859810D02*
Y723990D01*
Y728990D02*
Y735240D01*
X867310Y717740D02*
Y723990D01*
Y728990D02*
Y735240D01*
X859251Y744501D02*
X865751D01*
X870751D02*
X877251D01*
X859251Y737501D02*
X865751D01*
X870751D02*
X877251D01*
Y744501D01*
X859251Y737501D02*
Y744501D01*
X860001Y764499D02*
X867001D01*
X860001Y746499D02*
X867001D01*
X860001D02*
Y752999D01*
Y757999D02*
Y764499D01*
X867001Y746499D02*
Y752999D01*
Y757999D02*
Y764499D01*
X793750Y735750D02*
X801250D01*
X793750Y718250D02*
X801250D01*
X793750D02*
Y724500D01*
Y729500D02*
Y735750D01*
X801250Y718250D02*
Y724500D01*
Y729500D02*
Y735750D01*
X829999Y757251D02*
X836999D01*
X829999Y775251D02*
X836999D01*
Y768751D02*
Y775251D01*
Y757251D02*
Y763751D01*
X829999Y768751D02*
Y775251D01*
Y757251D02*
Y763751D01*
X840000Y757500D02*
X847500D01*
X840000Y775000D02*
X847500D01*
Y768750D02*
Y775000D01*
Y757500D02*
Y763750D01*
X840000Y768750D02*
Y775000D01*
Y757500D02*
Y763750D01*
X861249Y767749D02*
X867749D01*
X849749D02*
X856249D01*
X861249Y774749D02*
X867749D01*
X849749D02*
X856249D01*
X849749Y767749D02*
Y774749D01*
X867749Y767749D02*
Y774749D01*
X887751Y366249D02*
X894751D01*
X887751Y348249D02*
X894751D01*
X887751D02*
Y354749D01*
Y359749D02*
Y366249D01*
X894751Y348249D02*
Y354749D01*
Y359749D02*
Y366249D01*
X878251Y385999D02*
X885251D01*
X878251Y367999D02*
X885251D01*
X878251D02*
Y374499D01*
Y379499D02*
Y385999D01*
X885251Y367999D02*
Y374499D01*
Y379499D02*
Y385999D01*
X878249Y390751D02*
X885249D01*
X878249Y408751D02*
X885249D01*
Y402251D02*
Y408751D01*
Y390751D02*
Y397251D01*
X878249Y402251D02*
Y408751D01*
Y390751D02*
Y397251D01*
X768500Y341500D02*
Y349000D01*
X751000Y341500D02*
Y349000D01*
X757250D01*
X762250D02*
X768500D01*
X751000Y341500D02*
X757250D01*
X762250D02*
X768500D01*
X794501Y373499D02*
X801501D01*
X794501Y355499D02*
X801501D01*
X794501D02*
Y361999D01*
Y366999D02*
Y373499D01*
X801501Y355499D02*
Y361999D01*
Y366999D02*
Y373499D01*
X887249Y390751D02*
X894249D01*
X887249Y408751D02*
X894249D01*
Y402251D02*
Y408751D01*
Y390751D02*
Y397251D01*
X887249Y402251D02*
Y408751D01*
Y390751D02*
Y397251D01*
X1110251Y311001D02*
X1116751D01*
X1121751D02*
X1128251D01*
X1110251Y304001D02*
X1116751D01*
X1121751D02*
X1128251D01*
Y311001D01*
X1110251Y304001D02*
Y311001D01*
Y301001D02*
X1116751D01*
X1121751D02*
X1128251D01*
X1110251Y294001D02*
X1116751D01*
X1121751D02*
X1128251D01*
Y301001D01*
X1110251Y294001D02*
Y301001D01*
X1147751Y270501D02*
X1154251D01*
X1159251D02*
X1165751D01*
X1147751Y263501D02*
X1154251D01*
X1159251D02*
X1165751D01*
Y270501D01*
X1147751Y263501D02*
Y270501D01*
X1110751Y251751D02*
X1117251D01*
X1122251D02*
X1128751D01*
X1110751Y244751D02*
X1117251D01*
X1122251D02*
X1128751D01*
Y251751D01*
X1110751Y244751D02*
Y251751D01*
X1110810Y735240D02*
X1118310D01*
X1110810Y717740D02*
X1118310D01*
X1110810D02*
Y723990D01*
Y728990D02*
Y735240D01*
X1118310Y717740D02*
Y723990D01*
Y728990D02*
Y735240D01*
X1110251Y744501D02*
X1116751D01*
X1121751D02*
X1128251D01*
X1110251Y737501D02*
X1116751D01*
X1121751D02*
X1128251D01*
Y744501D01*
X1110251Y737501D02*
Y744501D01*
X1111001Y764499D02*
X1118001D01*
X1111001Y746499D02*
X1118001D01*
X1111001D02*
Y752999D01*
Y757999D02*
Y764499D01*
X1118001Y746499D02*
Y752999D01*
Y757999D02*
Y764499D01*
X1044750Y735750D02*
X1052250D01*
X1044750Y718250D02*
X1052250D01*
X1044750D02*
Y724500D01*
Y729500D02*
Y735750D01*
X1052250Y718250D02*
Y724500D01*
Y729500D02*
Y735750D01*
X1080999Y757251D02*
X1087999D01*
X1080999Y775251D02*
X1087999D01*
Y768751D02*
Y775251D01*
Y757251D02*
Y763751D01*
X1080999Y768751D02*
Y775251D01*
Y757251D02*
Y763751D01*
X1091000Y757500D02*
X1098500D01*
X1091000Y775000D02*
X1098500D01*
Y768750D02*
Y775000D01*
Y757500D02*
Y763750D01*
X1091000Y768750D02*
Y775000D01*
Y757500D02*
Y763750D01*
X1112249Y767749D02*
X1118749D01*
X1100749D02*
X1107249D01*
X1112249Y774749D02*
X1118749D01*
X1100749D02*
X1107249D01*
X1100749Y767749D02*
Y774749D01*
X1118749Y767749D02*
Y774749D01*
X1138751Y366249D02*
X1145751D01*
X1138751Y348249D02*
X1145751D01*
X1138751D02*
Y354749D01*
Y359749D02*
Y366249D01*
X1145751Y348249D02*
Y354749D01*
Y359749D02*
Y366249D01*
X1129251Y385999D02*
X1136251D01*
X1129251Y367999D02*
X1136251D01*
X1129251D02*
Y374499D01*
Y379499D02*
Y385999D01*
X1136251Y367999D02*
Y374499D01*
Y379499D02*
Y385999D01*
X1129249Y390751D02*
X1136249D01*
X1129249Y408751D02*
X1136249D01*
Y402251D02*
Y408751D01*
Y390751D02*
Y397251D01*
X1129249Y402251D02*
Y408751D01*
Y390751D02*
Y397251D01*
X1019500Y341500D02*
Y349000D01*
X1002000Y341500D02*
Y349000D01*
X1008250D01*
X1013250D02*
X1019500D01*
X1002000Y341500D02*
X1008250D01*
X1013250D02*
X1019500D01*
X1045501Y373499D02*
X1052501D01*
X1045501Y355499D02*
X1052501D01*
X1045501D02*
Y361999D01*
Y366999D02*
Y373499D01*
X1052501Y355499D02*
Y361999D01*
Y366999D02*
Y373499D01*
X1138249Y390751D02*
X1145249D01*
X1138249Y408751D02*
X1145249D01*
Y402251D02*
Y408751D01*
Y390751D02*
Y397251D01*
X1138249Y402251D02*
Y408751D01*
Y390751D02*
Y397251D01*
X1361251Y311001D02*
X1367751D01*
X1372751D02*
X1379251D01*
X1361251Y304001D02*
X1367751D01*
X1372751D02*
X1379251D01*
Y311001D01*
X1361251Y304001D02*
Y311001D01*
Y301001D02*
X1367751D01*
X1372751D02*
X1379251D01*
X1361251Y294001D02*
X1367751D01*
X1372751D02*
X1379251D01*
Y301001D01*
X1361251Y294001D02*
Y301001D01*
X1398751Y270501D02*
X1405251D01*
X1410251D02*
X1416751D01*
X1398751Y263501D02*
X1405251D01*
X1410251D02*
X1416751D01*
Y270501D01*
X1398751Y263501D02*
Y270501D01*
X1361751Y251751D02*
X1368251D01*
X1373251D02*
X1379751D01*
X1361751Y244751D02*
X1368251D01*
X1373251D02*
X1379751D01*
Y251751D01*
X1361751Y244751D02*
Y251751D01*
X1361810Y735240D02*
X1369310D01*
X1361810Y717740D02*
X1369310D01*
X1361810D02*
Y723990D01*
Y728990D02*
Y735240D01*
X1369310Y717740D02*
Y723990D01*
Y728990D02*
Y735240D01*
X1361251Y744501D02*
X1367751D01*
X1372751D02*
X1379251D01*
X1361251Y737501D02*
X1367751D01*
X1372751D02*
X1379251D01*
Y744501D01*
X1361251Y737501D02*
Y744501D01*
X1362001Y764499D02*
X1369001D01*
X1362001Y746499D02*
X1369001D01*
X1362001D02*
Y752999D01*
Y757999D02*
Y764499D01*
X1369001Y746499D02*
Y752999D01*
Y757999D02*
Y764499D01*
X1295750Y735750D02*
X1303250D01*
X1295750Y718250D02*
X1303250D01*
X1295750D02*
Y724500D01*
Y729500D02*
Y735750D01*
X1303250Y718250D02*
Y724500D01*
Y729500D02*
Y735750D01*
X1331999Y757251D02*
X1338999D01*
X1331999Y775251D02*
X1338999D01*
Y768751D02*
Y775251D01*
Y757251D02*
Y763751D01*
X1331999Y768751D02*
Y775251D01*
Y757251D02*
Y763751D01*
X1342000Y757500D02*
X1349500D01*
X1342000Y775000D02*
X1349500D01*
Y768750D02*
Y775000D01*
Y757500D02*
Y763750D01*
X1342000Y768750D02*
Y775000D01*
Y757500D02*
Y763750D01*
X1363249Y767749D02*
X1369749D01*
X1351749D02*
X1358249D01*
X1363249Y774749D02*
X1369749D01*
X1351749D02*
X1358249D01*
X1351749Y767749D02*
Y774749D01*
X1369749Y767749D02*
Y774749D01*
X1389751Y366249D02*
X1396751D01*
X1389751Y348249D02*
X1396751D01*
X1389751D02*
Y354749D01*
Y359749D02*
Y366249D01*
X1396751Y348249D02*
Y354749D01*
Y359749D02*
Y366249D01*
X1380251Y385999D02*
X1387251D01*
X1380251Y367999D02*
X1387251D01*
X1380251D02*
Y374499D01*
Y379499D02*
Y385999D01*
X1387251Y367999D02*
Y374499D01*
Y379499D02*
Y385999D01*
X1380249Y390751D02*
X1387249D01*
X1380249Y408751D02*
X1387249D01*
Y402251D02*
Y408751D01*
Y390751D02*
Y397251D01*
X1380249Y402251D02*
Y408751D01*
Y390751D02*
Y397251D01*
X1270500Y341500D02*
Y349000D01*
X1253000Y341500D02*
Y349000D01*
X1259250D01*
X1264250D02*
X1270500D01*
X1253000Y341500D02*
X1259250D01*
X1264250D02*
X1270500D01*
X1296501Y373499D02*
X1303501D01*
X1296501Y355499D02*
X1303501D01*
X1296501D02*
Y361999D01*
Y366999D02*
Y373499D01*
X1303501Y355499D02*
Y361999D01*
Y366999D02*
Y373499D01*
X1389249Y390751D02*
X1396249D01*
X1389249Y408751D02*
X1396249D01*
Y402251D02*
Y408751D01*
Y390751D02*
Y397251D01*
X1389249Y402251D02*
Y408751D01*
Y390751D02*
Y397251D01*
X1612251Y311001D02*
X1618751D01*
X1623751D02*
X1630251D01*
X1612251Y304001D02*
X1618751D01*
X1623751D02*
X1630251D01*
Y311001D01*
X1612251Y304001D02*
Y311001D01*
Y301001D02*
X1618751D01*
X1623751D02*
X1630251D01*
X1612251Y294001D02*
X1618751D01*
X1623751D02*
X1630251D01*
Y301001D01*
X1612251Y294001D02*
Y301001D01*
X1649751Y270501D02*
X1656251D01*
X1661251D02*
X1667751D01*
X1649751Y263501D02*
X1656251D01*
X1661251D02*
X1667751D01*
Y270501D01*
X1649751Y263501D02*
Y270501D01*
X1612751Y251751D02*
X1619251D01*
X1624251D02*
X1630751D01*
X1612751Y244751D02*
X1619251D01*
X1624251D02*
X1630751D01*
Y251751D01*
X1612751Y244751D02*
Y251751D01*
X1612810Y735240D02*
X1620310D01*
X1612810Y717740D02*
X1620310D01*
X1612810D02*
Y723990D01*
Y728990D02*
Y735240D01*
X1620310Y717740D02*
Y723990D01*
Y728990D02*
Y735240D01*
X1612251Y744501D02*
X1618751D01*
X1623751D02*
X1630251D01*
X1612251Y737501D02*
X1618751D01*
X1623751D02*
X1630251D01*
Y744501D01*
X1612251Y737501D02*
Y744501D01*
X1613001Y764499D02*
X1620001D01*
X1613001Y746499D02*
X1620001D01*
X1613001D02*
Y752999D01*
Y757999D02*
Y764499D01*
X1620001Y746499D02*
Y752999D01*
Y757999D02*
Y764499D01*
X1546750Y735750D02*
X1554250D01*
X1546750Y718250D02*
X1554250D01*
X1546750D02*
Y724500D01*
Y729500D02*
Y735750D01*
X1554250Y718250D02*
Y724500D01*
Y729500D02*
Y735750D01*
X1582999Y757251D02*
X1589999D01*
X1582999Y775251D02*
X1589999D01*
Y768751D02*
Y775251D01*
Y757251D02*
Y763751D01*
X1582999Y768751D02*
Y775251D01*
Y757251D02*
Y763751D01*
X1593000Y757500D02*
X1600500D01*
X1593000Y775000D02*
X1600500D01*
Y768750D02*
Y775000D01*
Y757500D02*
Y763750D01*
X1593000Y768750D02*
Y775000D01*
Y757500D02*
Y763750D01*
X1614249Y767749D02*
X1620749D01*
X1602749D02*
X1609249D01*
X1614249Y774749D02*
X1620749D01*
X1602749D02*
X1609249D01*
X1602749Y767749D02*
Y774749D01*
X1620749Y767749D02*
Y774749D01*
X1640751Y366249D02*
X1647751D01*
X1640751Y348249D02*
X1647751D01*
X1640751D02*
Y354749D01*
Y359749D02*
Y366249D01*
X1647751Y348249D02*
Y354749D01*
Y359749D02*
Y366249D01*
X1631251Y385999D02*
X1638251D01*
X1631251Y367999D02*
X1638251D01*
X1631251D02*
Y374499D01*
Y379499D02*
Y385999D01*
X1638251Y367999D02*
Y374499D01*
Y379499D02*
Y385999D01*
X1631249Y390751D02*
X1638249D01*
X1631249Y408751D02*
X1638249D01*
Y402251D02*
Y408751D01*
Y390751D02*
Y397251D01*
X1631249Y402251D02*
Y408751D01*
Y390751D02*
Y397251D01*
X1521500Y341500D02*
Y349000D01*
X1504000Y341500D02*
Y349000D01*
X1510250D01*
X1515250D02*
X1521500D01*
X1504000Y341500D02*
X1510250D01*
X1515250D02*
X1521500D01*
X1547501Y373499D02*
X1554501D01*
X1547501Y355499D02*
X1554501D01*
X1547501D02*
Y361999D01*
Y366999D02*
Y373499D01*
X1554501Y355499D02*
Y361999D01*
Y366999D02*
Y373499D01*
X1640249Y390751D02*
X1647249D01*
X1640249Y408751D02*
X1647249D01*
Y402251D02*
Y408751D01*
Y390751D02*
Y397251D01*
X1640249Y402251D02*
Y408751D01*
Y390751D02*
Y397251D01*
D39*
X245250Y241000D02*
Y301000D01*
X305250D01*
Y241000D02*
Y301000D01*
X245250Y241000D02*
X305250D01*
X496250D02*
Y301000D01*
X556250D01*
Y241000D02*
Y301000D01*
X496250Y241000D02*
X556250D01*
X747250D02*
Y301000D01*
X807250D01*
Y241000D02*
Y301000D01*
X747250Y241000D02*
X807250D01*
X998250D02*
Y301000D01*
X1058250D01*
Y241000D02*
Y301000D01*
X998250Y241000D02*
X1058250D01*
X1249250D02*
Y301000D01*
X1309250D01*
Y241000D02*
Y301000D01*
X1249250Y241000D02*
X1309250D01*
X1500250D02*
Y301000D01*
X1560250D01*
Y241000D02*
Y301000D01*
X1500250Y241000D02*
X1560250D01*
D40*
X242000Y233250D02*
X232003D01*
Y238248D01*
X233669Y239914D01*
X237002D01*
X238668Y238248D01*
Y233250D01*
Y236582D02*
X242000Y239914D01*
Y248245D02*
Y244913D01*
X240334Y243247D01*
X237002D01*
X235336Y244913D01*
Y248245D01*
X237002Y249911D01*
X238668D01*
Y243247D01*
X242000Y253244D02*
Y258242D01*
X240334Y259908D01*
X238668Y258242D01*
Y254910D01*
X237002Y253244D01*
X235336Y254910D01*
Y259908D01*
X242000Y268239D02*
Y264907D01*
X240334Y263240D01*
X237002D01*
X235336Y264907D01*
Y268239D01*
X237002Y269905D01*
X238668D01*
Y263240D01*
X233669Y274903D02*
X235336D01*
Y273237D01*
Y276569D01*
Y274903D01*
X240334D01*
X242000Y276569D01*
X233669Y298229D02*
X232003Y296563D01*
Y293231D01*
X233669Y291565D01*
X235336D01*
X237002Y293231D01*
Y296563D01*
X238668Y298229D01*
X240334D01*
X242000Y296563D01*
Y293231D01*
X240334Y291565D01*
X232003Y301561D02*
X242000D01*
X238668Y304893D01*
X242000Y308226D01*
X232003D01*
X387500Y254997D02*
Y246666D01*
X389166Y245000D01*
X392498D01*
X394165Y246666D01*
Y254997D01*
X404161Y245000D02*
X397497D01*
X404161Y251665D01*
Y253331D01*
X402495Y254997D01*
X399163D01*
X397497Y253331D01*
X328500Y251247D02*
Y241250D01*
X335164D01*
X338497D02*
X341829D01*
X340163D01*
Y251247D01*
X338497Y249581D01*
X365164Y239081D02*
X363498Y240747D01*
X360166D01*
X358500Y239081D01*
Y232416D01*
X360166Y230750D01*
X363498D01*
X365164Y232416D01*
X375161Y240747D02*
X368497D01*
Y235748D01*
X371829Y237414D01*
X373495D01*
X375161Y235748D01*
Y232416D01*
X373495Y230750D01*
X370163D01*
X368497Y232416D01*
X422664Y270081D02*
X420998Y271747D01*
X417666D01*
X416000Y270081D01*
Y263416D01*
X417666Y261750D01*
X420998D01*
X422664Y263416D01*
X425997Y270081D02*
X427663Y271747D01*
X430995D01*
X432661Y270081D01*
Y268414D01*
X430995Y266748D01*
X429329D01*
X430995D01*
X432661Y265082D01*
Y263416D01*
X430995Y261750D01*
X427663D01*
X425997Y263416D01*
X343914Y312581D02*
X342248Y314247D01*
X338916D01*
X337250Y312581D01*
Y305916D01*
X338916Y304250D01*
X342248D01*
X343914Y305916D01*
X353911Y304250D02*
X347247D01*
X353911Y310914D01*
Y312581D01*
X352245Y314247D01*
X348913D01*
X347247Y312581D01*
X387415Y300581D02*
X385748Y302247D01*
X382416D01*
X380750Y300581D01*
Y293916D01*
X382416Y292250D01*
X385748D01*
X387415Y293916D01*
X390747Y292250D02*
X394079D01*
X392413D01*
Y302247D01*
X390747Y300581D01*
X376665Y760081D02*
X374998Y761747D01*
X371666D01*
X370000Y760081D01*
Y753416D01*
X371666Y751750D01*
X374998D01*
X376665Y753416D01*
X386661Y761747D02*
X383329Y760081D01*
X379997Y756748D01*
Y753416D01*
X381663Y751750D01*
X384995D01*
X386661Y753416D01*
Y755082D01*
X384995Y756748D01*
X379997D01*
X312915Y767081D02*
X311248Y768747D01*
X307916D01*
X306250Y767081D01*
Y760416D01*
X307916Y758750D01*
X311248D01*
X312915Y760416D01*
X316247Y768747D02*
X322911D01*
Y767081D01*
X316247Y760416D01*
Y758750D01*
X278414Y373581D02*
X276748Y375247D01*
X273416D01*
X271750Y373581D01*
Y366916D01*
X273416Y365250D01*
X276748D01*
X278414Y366916D01*
X281747Y373581D02*
X283413Y375247D01*
X286745D01*
X288411Y373581D01*
Y371914D01*
X286745Y370248D01*
X288411Y368582D01*
Y366916D01*
X286745Y365250D01*
X283413D01*
X281747Y366916D01*
Y368582D01*
X283413Y370248D01*
X281747Y371914D01*
Y373581D01*
X283413Y370248D02*
X286745D01*
X402915Y357581D02*
X401248Y359247D01*
X397916D01*
X396250Y357581D01*
Y350916D01*
X397916Y349250D01*
X401248D01*
X402915Y350916D01*
X406247D02*
X407913Y349250D01*
X411245D01*
X412911Y350916D01*
Y357581D01*
X411245Y359247D01*
X407913D01*
X406247Y357581D01*
Y355914D01*
X407913Y354248D01*
X412911D01*
X394165Y380331D02*
X392498Y381997D01*
X389166D01*
X387500Y380331D01*
Y373666D01*
X389166Y372000D01*
X392498D01*
X394165Y373666D01*
X397497Y372000D02*
X400829D01*
X399163D01*
Y381997D01*
X397497Y380331D01*
X405827D02*
X407494Y381997D01*
X410826D01*
X412492Y380331D01*
Y373666D01*
X410826Y372000D01*
X407494D01*
X405827Y373666D01*
Y380331D01*
X362164Y420831D02*
X360498Y422497D01*
X357166D01*
X355500Y420831D01*
Y414166D01*
X357166Y412500D01*
X360498D01*
X362164Y414166D01*
X365497Y412500D02*
X368829D01*
X367163D01*
Y422497D01*
X365497Y420831D01*
X373827Y412500D02*
X377160D01*
X375494D01*
Y422497D01*
X373827Y420831D01*
X404165Y402331D02*
X402498Y403997D01*
X399166D01*
X397500Y402331D01*
Y395666D01*
X399166Y394000D01*
X402498D01*
X404165Y395666D01*
X407497Y394000D02*
X410829D01*
X409163D01*
Y403997D01*
X407497Y402331D01*
X422492Y394000D02*
X415827D01*
X422492Y400664D01*
Y402331D01*
X420826Y403997D01*
X417494D01*
X415827Y402331D01*
X335250Y752997D02*
Y743000D01*
X340248D01*
X341914Y744666D01*
Y751331D01*
X340248Y752997D01*
X335250D01*
X345247Y743000D02*
X348579D01*
X346913D01*
Y752997D01*
X345247Y751331D01*
X249250Y363247D02*
Y353250D01*
X254248D01*
X255914Y354916D01*
Y361581D01*
X254248Y363247D01*
X249250D01*
X265911Y353250D02*
X259247D01*
X265911Y359915D01*
Y361581D01*
X264245Y363247D01*
X260913D01*
X259247Y361581D01*
X393414Y804247D02*
X390082D01*
X391748D01*
Y795916D01*
X390082Y794250D01*
X388416D01*
X386750Y795916D01*
X396747Y794250D02*
X400079D01*
X398413D01*
Y804247D01*
X396747Y802581D01*
X380500Y746997D02*
Y737000D01*
X387164D01*
X397161D02*
X390497D01*
X397161Y743664D01*
Y745331D01*
X395495Y746997D01*
X392163D01*
X390497Y745331D01*
X370750Y777497D02*
Y767500D01*
X377415D01*
X380747Y775831D02*
X382413Y777497D01*
X385745D01*
X387411Y775831D01*
Y774165D01*
X385745Y772498D01*
X384079D01*
X385745D01*
X387411Y770832D01*
Y769166D01*
X385745Y767500D01*
X382413D01*
X380747Y769166D01*
X370250Y721750D02*
Y731747D01*
X375248D01*
X376914Y730081D01*
Y726748D01*
X375248Y725082D01*
X370250D01*
X373582D02*
X376914Y721750D01*
X380247Y730081D02*
X381913Y731747D01*
X385245D01*
X386911Y730081D01*
Y728415D01*
X385245Y726748D01*
X383579D01*
X385245D01*
X386911Y725082D01*
Y723416D01*
X385245Y721750D01*
X381913D01*
X380247Y723416D01*
X272000Y722750D02*
Y732747D01*
X276998D01*
X278664Y731081D01*
Y727748D01*
X276998Y726082D01*
X272000D01*
X275332D02*
X278664Y722750D01*
X286995D02*
Y732747D01*
X281997Y727748D01*
X288661D01*
X268915Y316331D02*
X267248Y317997D01*
X263916D01*
X262250Y316331D01*
Y314664D01*
X263916Y312998D01*
X267248D01*
X268915Y311332D01*
Y309666D01*
X267248Y308000D01*
X263916D01*
X262250Y309666D01*
X272247Y317997D02*
Y308000D01*
X275579Y311332D01*
X278911Y308000D01*
Y317997D01*
X282244Y308000D02*
X285576D01*
X283910D01*
Y317997D01*
X282244Y316331D01*
X240544Y732845D02*
Y724514D01*
X242210Y722848D01*
X245542D01*
X247208Y724514D01*
Y732845D01*
X250541Y722848D02*
X253873D01*
X252207D01*
Y732845D01*
X250541Y731179D01*
X315250Y419497D02*
Y411166D01*
X316916Y409500D01*
X320248D01*
X321914Y411166D01*
Y419497D01*
X325247Y417831D02*
X326913Y419497D01*
X330245D01*
X331911Y417831D01*
Y416165D01*
X330245Y414498D01*
X328579D01*
X330245D01*
X331911Y412832D01*
Y411166D01*
X330245Y409500D01*
X326913D01*
X325247Y411166D01*
X208500Y635000D02*
Y644997D01*
X213498D01*
X215165Y643331D01*
Y639998D01*
X213498Y638332D01*
X208500D01*
X218497Y635000D02*
X221829D01*
X220163D01*
Y644997D01*
X218497Y643331D01*
X493000Y233250D02*
X483003D01*
Y238248D01*
X484669Y239914D01*
X488002D01*
X489668Y238248D01*
Y233250D01*
Y236582D02*
X493000Y239914D01*
Y248245D02*
Y244913D01*
X491334Y243247D01*
X488002D01*
X486336Y244913D01*
Y248245D01*
X488002Y249911D01*
X489668D01*
Y243247D01*
X493000Y253244D02*
Y258242D01*
X491334Y259908D01*
X489668Y258242D01*
Y254910D01*
X488002Y253244D01*
X486336Y254910D01*
Y259908D01*
X493000Y268239D02*
Y264907D01*
X491334Y263240D01*
X488002D01*
X486336Y264907D01*
Y268239D01*
X488002Y269905D01*
X489668D01*
Y263240D01*
X484669Y274903D02*
X486336D01*
Y273237D01*
Y276569D01*
Y274903D01*
X491334D01*
X493000Y276569D01*
X484669Y298229D02*
X483003Y296563D01*
Y293231D01*
X484669Y291565D01*
X486336D01*
X488002Y293231D01*
Y296563D01*
X489668Y298229D01*
X491334D01*
X493000Y296563D01*
Y293231D01*
X491334Y291565D01*
X483003Y301561D02*
X493000D01*
X489668Y304893D01*
X493000Y308226D01*
X483003D01*
X638500Y254997D02*
Y246666D01*
X640166Y245000D01*
X643499D01*
X645165Y246666D01*
Y254997D01*
X655161Y245000D02*
X648497D01*
X655161Y251665D01*
Y253331D01*
X653495Y254997D01*
X650163D01*
X648497Y253331D01*
X579500Y251247D02*
Y241250D01*
X586165D01*
X589497D02*
X592829D01*
X591163D01*
Y251247D01*
X589497Y249581D01*
X616165Y239081D02*
X614498Y240747D01*
X611166D01*
X609500Y239081D01*
Y232416D01*
X611166Y230750D01*
X614498D01*
X616165Y232416D01*
X626161Y240747D02*
X619497D01*
Y235748D01*
X622829Y237414D01*
X624495D01*
X626161Y235748D01*
Y232416D01*
X624495Y230750D01*
X621163D01*
X619497Y232416D01*
X673665Y270081D02*
X671999Y271747D01*
X668666D01*
X667000Y270081D01*
Y263416D01*
X668666Y261750D01*
X671999D01*
X673665Y263416D01*
X676997Y270081D02*
X678663Y271747D01*
X681995D01*
X683661Y270081D01*
Y268414D01*
X681995Y266748D01*
X680329D01*
X681995D01*
X683661Y265082D01*
Y263416D01*
X681995Y261750D01*
X678663D01*
X676997Y263416D01*
X594915Y312581D02*
X593248Y314247D01*
X589916D01*
X588250Y312581D01*
Y305916D01*
X589916Y304250D01*
X593248D01*
X594915Y305916D01*
X604911Y304250D02*
X598247D01*
X604911Y310914D01*
Y312581D01*
X603245Y314247D01*
X599913D01*
X598247Y312581D01*
X638415Y300581D02*
X636749Y302247D01*
X633416D01*
X631750Y300581D01*
Y293916D01*
X633416Y292250D01*
X636749D01*
X638415Y293916D01*
X641747Y292250D02*
X645079D01*
X643413D01*
Y302247D01*
X641747Y300581D01*
X627665Y760081D02*
X625998Y761747D01*
X622666D01*
X621000Y760081D01*
Y753416D01*
X622666Y751750D01*
X625998D01*
X627665Y753416D01*
X637661Y761747D02*
X634329Y760081D01*
X630997Y756748D01*
Y753416D01*
X632663Y751750D01*
X635995D01*
X637661Y753416D01*
Y755082D01*
X635995Y756748D01*
X630997D01*
X563915Y767081D02*
X562248Y768747D01*
X558916D01*
X557250Y767081D01*
Y760416D01*
X558916Y758750D01*
X562248D01*
X563915Y760416D01*
X567247Y768747D02*
X573911D01*
Y767081D01*
X567247Y760416D01*
Y758750D01*
X529415Y373581D02*
X527748Y375247D01*
X524416D01*
X522750Y373581D01*
Y366916D01*
X524416Y365250D01*
X527748D01*
X529415Y366916D01*
X532747Y373581D02*
X534413Y375247D01*
X537745D01*
X539411Y373581D01*
Y371914D01*
X537745Y370248D01*
X539411Y368582D01*
Y366916D01*
X537745Y365250D01*
X534413D01*
X532747Y366916D01*
Y368582D01*
X534413Y370248D01*
X532747Y371914D01*
Y373581D01*
X534413Y370248D02*
X537745D01*
X653915Y357581D02*
X652249Y359247D01*
X648916D01*
X647250Y357581D01*
Y350916D01*
X648916Y349250D01*
X652249D01*
X653915Y350916D01*
X657247D02*
X658913Y349250D01*
X662245D01*
X663911Y350916D01*
Y357581D01*
X662245Y359247D01*
X658913D01*
X657247Y357581D01*
Y355914D01*
X658913Y354248D01*
X663911D01*
X645165Y380331D02*
X643499Y381997D01*
X640166D01*
X638500Y380331D01*
Y373666D01*
X640166Y372000D01*
X643499D01*
X645165Y373666D01*
X648497Y372000D02*
X651829D01*
X650163D01*
Y381997D01*
X648497Y380331D01*
X656827D02*
X658494Y381997D01*
X661826D01*
X663492Y380331D01*
Y373666D01*
X661826Y372000D01*
X658494D01*
X656827Y373666D01*
Y380331D01*
X613165Y420831D02*
X611498Y422497D01*
X608166D01*
X606500Y420831D01*
Y414166D01*
X608166Y412500D01*
X611498D01*
X613165Y414166D01*
X616497Y412500D02*
X619829D01*
X618163D01*
Y422497D01*
X616497Y420831D01*
X624827Y412500D02*
X628160D01*
X626494D01*
Y422497D01*
X624827Y420831D01*
X655165Y402331D02*
X653499Y403997D01*
X650166D01*
X648500Y402331D01*
Y395666D01*
X650166Y394000D01*
X653499D01*
X655165Y395666D01*
X658497Y394000D02*
X661829D01*
X660163D01*
Y403997D01*
X658497Y402331D01*
X673492Y394000D02*
X666827D01*
X673492Y400664D01*
Y402331D01*
X671826Y403997D01*
X668494D01*
X666827Y402331D01*
X586250Y752997D02*
Y743000D01*
X591248D01*
X592915Y744666D01*
Y751331D01*
X591248Y752997D01*
X586250D01*
X596247Y743000D02*
X599579D01*
X597913D01*
Y752997D01*
X596247Y751331D01*
X500250Y363247D02*
Y353250D01*
X505248D01*
X506915Y354916D01*
Y361581D01*
X505248Y363247D01*
X500250D01*
X516911Y353250D02*
X510247D01*
X516911Y359915D01*
Y361581D01*
X515245Y363247D01*
X511913D01*
X510247Y361581D01*
X644415Y804247D02*
X641082D01*
X642748D01*
Y795916D01*
X641082Y794250D01*
X639416D01*
X637750Y795916D01*
X647747Y794250D02*
X651079D01*
X649413D01*
Y804247D01*
X647747Y802581D01*
X631500Y746997D02*
Y737000D01*
X638165D01*
X648161D02*
X641497D01*
X648161Y743664D01*
Y745331D01*
X646495Y746997D01*
X643163D01*
X641497Y745331D01*
X621750Y777497D02*
Y767500D01*
X628415D01*
X631747Y775831D02*
X633413Y777497D01*
X636745D01*
X638411Y775831D01*
Y774165D01*
X636745Y772498D01*
X635079D01*
X636745D01*
X638411Y770832D01*
Y769166D01*
X636745Y767500D01*
X633413D01*
X631747Y769166D01*
X621250Y721750D02*
Y731747D01*
X626249D01*
X627915Y730081D01*
Y726748D01*
X626249Y725082D01*
X621250D01*
X624582D02*
X627915Y721750D01*
X631247Y730081D02*
X632913Y731747D01*
X636245D01*
X637911Y730081D01*
Y728415D01*
X636245Y726748D01*
X634579D01*
X636245D01*
X637911Y725082D01*
Y723416D01*
X636245Y721750D01*
X632913D01*
X631247Y723416D01*
X523000Y722750D02*
Y732747D01*
X527999D01*
X529665Y731081D01*
Y727748D01*
X527999Y726082D01*
X523000D01*
X526332D02*
X529665Y722750D01*
X537995D02*
Y732747D01*
X532997Y727748D01*
X539661D01*
X519915Y316331D02*
X518248Y317997D01*
X514916D01*
X513250Y316331D01*
Y314664D01*
X514916Y312998D01*
X518248D01*
X519915Y311332D01*
Y309666D01*
X518248Y308000D01*
X514916D01*
X513250Y309666D01*
X523247Y317997D02*
Y308000D01*
X526579Y311332D01*
X529911Y308000D01*
Y317997D01*
X533244Y308000D02*
X536576D01*
X534910D01*
Y317997D01*
X533244Y316331D01*
X491544Y732845D02*
Y724514D01*
X493210Y722848D01*
X496542D01*
X498209Y724514D01*
Y732845D01*
X501541Y722848D02*
X504873D01*
X503207D01*
Y732845D01*
X501541Y731179D01*
X566250Y419497D02*
Y411166D01*
X567916Y409500D01*
X571249D01*
X572915Y411166D01*
Y419497D01*
X576247Y417831D02*
X577913Y419497D01*
X581245D01*
X582911Y417831D01*
Y416165D01*
X581245Y414498D01*
X579579D01*
X581245D01*
X582911Y412832D01*
Y411166D01*
X581245Y409500D01*
X577913D01*
X576247Y411166D01*
X459500Y635000D02*
Y644997D01*
X464498D01*
X466165Y643331D01*
Y639998D01*
X464498Y638332D01*
X459500D01*
X469497Y635000D02*
X472829D01*
X471163D01*
Y644997D01*
X469497Y643331D01*
X744000Y233250D02*
X734003D01*
Y238248D01*
X735669Y239914D01*
X739002D01*
X740668Y238248D01*
Y233250D01*
Y236582D02*
X744000Y239914D01*
Y248245D02*
Y244913D01*
X742334Y243247D01*
X739002D01*
X737336Y244913D01*
Y248245D01*
X739002Y249911D01*
X740668D01*
Y243247D01*
X744000Y253244D02*
Y258242D01*
X742334Y259908D01*
X740668Y258242D01*
Y254910D01*
X739002Y253244D01*
X737336Y254910D01*
Y259908D01*
X744000Y268239D02*
Y264907D01*
X742334Y263240D01*
X739002D01*
X737336Y264907D01*
Y268239D01*
X739002Y269905D01*
X740668D01*
Y263240D01*
X735669Y274903D02*
X737336D01*
Y273237D01*
Y276569D01*
Y274903D01*
X742334D01*
X744000Y276569D01*
X735669Y298229D02*
X734003Y296563D01*
Y293231D01*
X735669Y291565D01*
X737336D01*
X739002Y293231D01*
Y296563D01*
X740668Y298229D01*
X742334D01*
X744000Y296563D01*
Y293231D01*
X742334Y291565D01*
X734003Y301561D02*
X744000D01*
X740668Y304893D01*
X744000Y308226D01*
X734003D01*
X889500Y254997D02*
Y246666D01*
X891166Y245000D01*
X894499D01*
X896165Y246666D01*
Y254997D01*
X906161Y245000D02*
X899497D01*
X906161Y251665D01*
Y253331D01*
X904495Y254997D01*
X901163D01*
X899497Y253331D01*
X830500Y251247D02*
Y241250D01*
X837165D01*
X840497D02*
X843829D01*
X842163D01*
Y251247D01*
X840497Y249581D01*
X867165Y239081D02*
X865499Y240747D01*
X862166D01*
X860500Y239081D01*
Y232416D01*
X862166Y230750D01*
X865499D01*
X867165Y232416D01*
X877161Y240747D02*
X870497D01*
Y235748D01*
X873829Y237414D01*
X875495D01*
X877161Y235748D01*
Y232416D01*
X875495Y230750D01*
X872163D01*
X870497Y232416D01*
X924665Y270081D02*
X922999Y271747D01*
X919666D01*
X918000Y270081D01*
Y263416D01*
X919666Y261750D01*
X922999D01*
X924665Y263416D01*
X927997Y270081D02*
X929663Y271747D01*
X932995D01*
X934661Y270081D01*
Y268414D01*
X932995Y266748D01*
X931329D01*
X932995D01*
X934661Y265082D01*
Y263416D01*
X932995Y261750D01*
X929663D01*
X927997Y263416D01*
X845915Y312581D02*
X844249Y314247D01*
X840916D01*
X839250Y312581D01*
Y305916D01*
X840916Y304250D01*
X844249D01*
X845915Y305916D01*
X855911Y304250D02*
X849247D01*
X855911Y310914D01*
Y312581D01*
X854245Y314247D01*
X850913D01*
X849247Y312581D01*
X889415Y300581D02*
X887748Y302247D01*
X884416D01*
X882750Y300581D01*
Y293916D01*
X884416Y292250D01*
X887748D01*
X889415Y293916D01*
X892747Y292250D02*
X896079D01*
X894413D01*
Y302247D01*
X892747Y300581D01*
X878665Y760081D02*
X876999Y761747D01*
X873666D01*
X872000Y760081D01*
Y753416D01*
X873666Y751750D01*
X876999D01*
X878665Y753416D01*
X888661Y761747D02*
X885329Y760081D01*
X881997Y756748D01*
Y753416D01*
X883663Y751750D01*
X886995D01*
X888661Y753416D01*
Y755082D01*
X886995Y756748D01*
X881997D01*
X814915Y767081D02*
X813249Y768747D01*
X809916D01*
X808250Y767081D01*
Y760416D01*
X809916Y758750D01*
X813249D01*
X814915Y760416D01*
X818247Y768747D02*
X824911D01*
Y767081D01*
X818247Y760416D01*
Y758750D01*
X780415Y373581D02*
X778748Y375247D01*
X775416D01*
X773750Y373581D01*
Y366916D01*
X775416Y365250D01*
X778748D01*
X780415Y366916D01*
X783747Y373581D02*
X785413Y375247D01*
X788745D01*
X790411Y373581D01*
Y371914D01*
X788745Y370248D01*
X790411Y368582D01*
Y366916D01*
X788745Y365250D01*
X785413D01*
X783747Y366916D01*
Y368582D01*
X785413Y370248D01*
X783747Y371914D01*
Y373581D01*
X785413Y370248D02*
X788745D01*
X904915Y357581D02*
X903249Y359247D01*
X899916D01*
X898250Y357581D01*
Y350916D01*
X899916Y349250D01*
X903249D01*
X904915Y350916D01*
X908247D02*
X909913Y349250D01*
X913245D01*
X914911Y350916D01*
Y357581D01*
X913245Y359247D01*
X909913D01*
X908247Y357581D01*
Y355914D01*
X909913Y354248D01*
X914911D01*
X896165Y380331D02*
X894499Y381997D01*
X891166D01*
X889500Y380331D01*
Y373666D01*
X891166Y372000D01*
X894499D01*
X896165Y373666D01*
X899497Y372000D02*
X902829D01*
X901163D01*
Y381997D01*
X899497Y380331D01*
X907828D02*
X909494Y381997D01*
X912826D01*
X914492Y380331D01*
Y373666D01*
X912826Y372000D01*
X909494D01*
X907828Y373666D01*
Y380331D01*
X864165Y420831D02*
X862498Y422497D01*
X859166D01*
X857500Y420831D01*
Y414166D01*
X859166Y412500D01*
X862498D01*
X864165Y414166D01*
X867497Y412500D02*
X870829D01*
X869163D01*
Y422497D01*
X867497Y420831D01*
X875827Y412500D02*
X879160D01*
X877494D01*
Y422497D01*
X875827Y420831D01*
X906165Y402331D02*
X904499Y403997D01*
X901166D01*
X899500Y402331D01*
Y395666D01*
X901166Y394000D01*
X904499D01*
X906165Y395666D01*
X909497Y394000D02*
X912829D01*
X911163D01*
Y403997D01*
X909497Y402331D01*
X924492Y394000D02*
X917828D01*
X924492Y400664D01*
Y402331D01*
X922826Y403997D01*
X919494D01*
X917828Y402331D01*
X837250Y752997D02*
Y743000D01*
X842249D01*
X843915Y744666D01*
Y751331D01*
X842249Y752997D01*
X837250D01*
X847247Y743000D02*
X850579D01*
X848913D01*
Y752997D01*
X847247Y751331D01*
X751250Y363247D02*
Y353250D01*
X756248D01*
X757915Y354916D01*
Y361581D01*
X756248Y363247D01*
X751250D01*
X767911Y353250D02*
X761247D01*
X767911Y359915D01*
Y361581D01*
X766245Y363247D01*
X762913D01*
X761247Y361581D01*
X895415Y804247D02*
X892082D01*
X893748D01*
Y795916D01*
X892082Y794250D01*
X890416D01*
X888750Y795916D01*
X898747Y794250D02*
X902079D01*
X900413D01*
Y804247D01*
X898747Y802581D01*
X882500Y746997D02*
Y737000D01*
X889165D01*
X899161D02*
X892497D01*
X899161Y743664D01*
Y745331D01*
X897495Y746997D01*
X894163D01*
X892497Y745331D01*
X872750Y777497D02*
Y767500D01*
X879415D01*
X882747Y775831D02*
X884413Y777497D01*
X887745D01*
X889411Y775831D01*
Y774165D01*
X887745Y772498D01*
X886079D01*
X887745D01*
X889411Y770832D01*
Y769166D01*
X887745Y767500D01*
X884413D01*
X882747Y769166D01*
X872250Y721750D02*
Y731747D01*
X877249D01*
X878915Y730081D01*
Y726748D01*
X877249Y725082D01*
X872250D01*
X875582D02*
X878915Y721750D01*
X882247Y730081D02*
X883913Y731747D01*
X887245D01*
X888911Y730081D01*
Y728415D01*
X887245Y726748D01*
X885579D01*
X887245D01*
X888911Y725082D01*
Y723416D01*
X887245Y721750D01*
X883913D01*
X882247Y723416D01*
X774000Y722750D02*
Y732747D01*
X778998D01*
X780665Y731081D01*
Y727748D01*
X778998Y726082D01*
X774000D01*
X777332D02*
X780665Y722750D01*
X788995D02*
Y732747D01*
X783997Y727748D01*
X790661D01*
X770915Y316331D02*
X769249Y317997D01*
X765916D01*
X764250Y316331D01*
Y314664D01*
X765916Y312998D01*
X769249D01*
X770915Y311332D01*
Y309666D01*
X769249Y308000D01*
X765916D01*
X764250Y309666D01*
X774247Y317997D02*
Y308000D01*
X777579Y311332D01*
X780911Y308000D01*
Y317997D01*
X784244Y308000D02*
X787576D01*
X785910D01*
Y317997D01*
X784244Y316331D01*
X742544Y732845D02*
Y724514D01*
X744210Y722848D01*
X747542D01*
X749209Y724514D01*
Y732845D01*
X752541Y722848D02*
X755873D01*
X754207D01*
Y732845D01*
X752541Y731179D01*
X817250Y419497D02*
Y411166D01*
X818916Y409500D01*
X822249D01*
X823915Y411166D01*
Y419497D01*
X827247Y417831D02*
X828913Y419497D01*
X832245D01*
X833911Y417831D01*
Y416165D01*
X832245Y414498D01*
X830579D01*
X832245D01*
X833911Y412832D01*
Y411166D01*
X832245Y409500D01*
X828913D01*
X827247Y411166D01*
X710500Y635000D02*
Y644997D01*
X715499D01*
X717165Y643331D01*
Y639998D01*
X715499Y638332D01*
X710500D01*
X720497Y635000D02*
X723829D01*
X722163D01*
Y644997D01*
X720497Y643331D01*
X995000Y233250D02*
X985003D01*
Y238248D01*
X986669Y239914D01*
X990002D01*
X991668Y238248D01*
Y233250D01*
Y236582D02*
X995000Y239914D01*
Y248245D02*
Y244913D01*
X993334Y243247D01*
X990002D01*
X988336Y244913D01*
Y248245D01*
X990002Y249911D01*
X991668D01*
Y243247D01*
X995000Y253244D02*
Y258242D01*
X993334Y259908D01*
X991668Y258242D01*
Y254910D01*
X990002Y253244D01*
X988336Y254910D01*
Y259908D01*
X995000Y268239D02*
Y264907D01*
X993334Y263240D01*
X990002D01*
X988336Y264907D01*
Y268239D01*
X990002Y269905D01*
X991668D01*
Y263240D01*
X986669Y274903D02*
X988336D01*
Y273237D01*
Y276569D01*
Y274903D01*
X993334D01*
X995000Y276569D01*
X986669Y298229D02*
X985003Y296563D01*
Y293231D01*
X986669Y291565D01*
X988336D01*
X990002Y293231D01*
Y296563D01*
X991668Y298229D01*
X993334D01*
X995000Y296563D01*
Y293231D01*
X993334Y291565D01*
X985003Y301561D02*
X995000D01*
X991668Y304893D01*
X995000Y308226D01*
X985003D01*
X1140500Y254997D02*
Y246666D01*
X1142166Y245000D01*
X1145499D01*
X1147165Y246666D01*
Y254997D01*
X1157161Y245000D02*
X1150497D01*
X1157161Y251665D01*
Y253331D01*
X1155495Y254997D01*
X1152163D01*
X1150497Y253331D01*
X1081500Y251247D02*
Y241250D01*
X1088165D01*
X1091497D02*
X1094829D01*
X1093163D01*
Y251247D01*
X1091497Y249581D01*
X1118165Y239081D02*
X1116498Y240747D01*
X1113166D01*
X1111500Y239081D01*
Y232416D01*
X1113166Y230750D01*
X1116498D01*
X1118165Y232416D01*
X1128161Y240747D02*
X1121497D01*
Y235748D01*
X1124829Y237414D01*
X1126495D01*
X1128161Y235748D01*
Y232416D01*
X1126495Y230750D01*
X1123163D01*
X1121497Y232416D01*
X1175665Y270081D02*
X1173998Y271747D01*
X1170666D01*
X1169000Y270081D01*
Y263416D01*
X1170666Y261750D01*
X1173998D01*
X1175665Y263416D01*
X1178997Y270081D02*
X1180663Y271747D01*
X1183995D01*
X1185661Y270081D01*
Y268414D01*
X1183995Y266748D01*
X1182329D01*
X1183995D01*
X1185661Y265082D01*
Y263416D01*
X1183995Y261750D01*
X1180663D01*
X1178997Y263416D01*
X1096915Y312581D02*
X1095248Y314247D01*
X1091916D01*
X1090250Y312581D01*
Y305916D01*
X1091916Y304250D01*
X1095248D01*
X1096915Y305916D01*
X1106911Y304250D02*
X1100247D01*
X1106911Y310914D01*
Y312581D01*
X1105245Y314247D01*
X1101913D01*
X1100247Y312581D01*
X1140415Y300581D02*
X1138748Y302247D01*
X1135416D01*
X1133750Y300581D01*
Y293916D01*
X1135416Y292250D01*
X1138748D01*
X1140415Y293916D01*
X1143747Y292250D02*
X1147079D01*
X1145413D01*
Y302247D01*
X1143747Y300581D01*
X1129665Y760081D02*
X1127999Y761747D01*
X1124666D01*
X1123000Y760081D01*
Y753416D01*
X1124666Y751750D01*
X1127999D01*
X1129665Y753416D01*
X1139661Y761747D02*
X1136329Y760081D01*
X1132997Y756748D01*
Y753416D01*
X1134663Y751750D01*
X1137995D01*
X1139661Y753416D01*
Y755082D01*
X1137995Y756748D01*
X1132997D01*
X1065915Y767081D02*
X1064249Y768747D01*
X1060916D01*
X1059250Y767081D01*
Y760416D01*
X1060916Y758750D01*
X1064249D01*
X1065915Y760416D01*
X1069247Y768747D02*
X1075911D01*
Y767081D01*
X1069247Y760416D01*
Y758750D01*
X1031415Y373581D02*
X1029749Y375247D01*
X1026416D01*
X1024750Y373581D01*
Y366916D01*
X1026416Y365250D01*
X1029749D01*
X1031415Y366916D01*
X1034747Y373581D02*
X1036413Y375247D01*
X1039745D01*
X1041411Y373581D01*
Y371914D01*
X1039745Y370248D01*
X1041411Y368582D01*
Y366916D01*
X1039745Y365250D01*
X1036413D01*
X1034747Y366916D01*
Y368582D01*
X1036413Y370248D01*
X1034747Y371914D01*
Y373581D01*
X1036413Y370248D02*
X1039745D01*
X1155915Y357581D02*
X1154249Y359247D01*
X1150916D01*
X1149250Y357581D01*
Y350916D01*
X1150916Y349250D01*
X1154249D01*
X1155915Y350916D01*
X1159247D02*
X1160913Y349250D01*
X1164245D01*
X1165911Y350916D01*
Y357581D01*
X1164245Y359247D01*
X1160913D01*
X1159247Y357581D01*
Y355914D01*
X1160913Y354248D01*
X1165911D01*
X1147165Y380331D02*
X1145499Y381997D01*
X1142166D01*
X1140500Y380331D01*
Y373666D01*
X1142166Y372000D01*
X1145499D01*
X1147165Y373666D01*
X1150497Y372000D02*
X1153829D01*
X1152163D01*
Y381997D01*
X1150497Y380331D01*
X1158828D02*
X1160494Y381997D01*
X1163826D01*
X1165492Y380331D01*
Y373666D01*
X1163826Y372000D01*
X1160494D01*
X1158828Y373666D01*
Y380331D01*
X1115165Y420831D02*
X1113499Y422497D01*
X1110166D01*
X1108500Y420831D01*
Y414166D01*
X1110166Y412500D01*
X1113499D01*
X1115165Y414166D01*
X1118497Y412500D02*
X1121829D01*
X1120163D01*
Y422497D01*
X1118497Y420831D01*
X1126827Y412500D02*
X1130160D01*
X1128494D01*
Y422497D01*
X1126827Y420831D01*
X1157165Y402331D02*
X1155499Y403997D01*
X1152166D01*
X1150500Y402331D01*
Y395666D01*
X1152166Y394000D01*
X1155499D01*
X1157165Y395666D01*
X1160497Y394000D02*
X1163829D01*
X1162163D01*
Y403997D01*
X1160497Y402331D01*
X1175492Y394000D02*
X1168828D01*
X1175492Y400664D01*
Y402331D01*
X1173826Y403997D01*
X1170494D01*
X1168828Y402331D01*
X1088250Y752997D02*
Y743000D01*
X1093249D01*
X1094915Y744666D01*
Y751331D01*
X1093249Y752997D01*
X1088250D01*
X1098247Y743000D02*
X1101579D01*
X1099913D01*
Y752997D01*
X1098247Y751331D01*
X1002250Y363247D02*
Y353250D01*
X1007249D01*
X1008915Y354916D01*
Y361581D01*
X1007249Y363247D01*
X1002250D01*
X1018911Y353250D02*
X1012247D01*
X1018911Y359915D01*
Y361581D01*
X1017245Y363247D01*
X1013913D01*
X1012247Y361581D01*
X1146415Y804247D02*
X1143082D01*
X1144749D01*
Y795916D01*
X1143082Y794250D01*
X1141416D01*
X1139750Y795916D01*
X1149747Y794250D02*
X1153079D01*
X1151413D01*
Y804247D01*
X1149747Y802581D01*
X1133500Y746997D02*
Y737000D01*
X1140165D01*
X1150161D02*
X1143497D01*
X1150161Y743664D01*
Y745331D01*
X1148495Y746997D01*
X1145163D01*
X1143497Y745331D01*
X1123750Y777497D02*
Y767500D01*
X1130415D01*
X1133747Y775831D02*
X1135413Y777497D01*
X1138745D01*
X1140411Y775831D01*
Y774165D01*
X1138745Y772498D01*
X1137079D01*
X1138745D01*
X1140411Y770832D01*
Y769166D01*
X1138745Y767500D01*
X1135413D01*
X1133747Y769166D01*
X1123250Y721750D02*
Y731747D01*
X1128249D01*
X1129915Y730081D01*
Y726748D01*
X1128249Y725082D01*
X1123250D01*
X1126582D02*
X1129915Y721750D01*
X1133247Y730081D02*
X1134913Y731747D01*
X1138245D01*
X1139911Y730081D01*
Y728415D01*
X1138245Y726748D01*
X1136579D01*
X1138245D01*
X1139911Y725082D01*
Y723416D01*
X1138245Y721750D01*
X1134913D01*
X1133247Y723416D01*
X1025000Y722750D02*
Y732747D01*
X1029998D01*
X1031665Y731081D01*
Y727748D01*
X1029998Y726082D01*
X1025000D01*
X1028332D02*
X1031665Y722750D01*
X1039995D02*
Y732747D01*
X1034997Y727748D01*
X1041661D01*
X1021915Y316331D02*
X1020248Y317997D01*
X1016916D01*
X1015250Y316331D01*
Y314664D01*
X1016916Y312998D01*
X1020248D01*
X1021915Y311332D01*
Y309666D01*
X1020248Y308000D01*
X1016916D01*
X1015250Y309666D01*
X1025247Y317997D02*
Y308000D01*
X1028579Y311332D01*
X1031911Y308000D01*
Y317997D01*
X1035244Y308000D02*
X1038576D01*
X1036910D01*
Y317997D01*
X1035244Y316331D01*
X993544Y732845D02*
Y724514D01*
X995210Y722848D01*
X998542D01*
X1000209Y724514D01*
Y732845D01*
X1003541Y722848D02*
X1006873D01*
X1005207D01*
Y732845D01*
X1003541Y731179D01*
X1068250Y419497D02*
Y411166D01*
X1069916Y409500D01*
X1073249D01*
X1074915Y411166D01*
Y419497D01*
X1078247Y417831D02*
X1079913Y419497D01*
X1083245D01*
X1084911Y417831D01*
Y416165D01*
X1083245Y414498D01*
X1081579D01*
X1083245D01*
X1084911Y412832D01*
Y411166D01*
X1083245Y409500D01*
X1079913D01*
X1078247Y411166D01*
X961500Y635000D02*
Y644997D01*
X966498D01*
X968165Y643331D01*
Y639998D01*
X966498Y638332D01*
X961500D01*
X971497Y635000D02*
X974829D01*
X973163D01*
Y644997D01*
X971497Y643331D01*
X1246000Y233250D02*
X1236003D01*
Y238248D01*
X1237670Y239914D01*
X1241002D01*
X1242668Y238248D01*
Y233250D01*
Y236582D02*
X1246000Y239914D01*
Y248245D02*
Y244913D01*
X1244334Y243247D01*
X1241002D01*
X1239336Y244913D01*
Y248245D01*
X1241002Y249911D01*
X1242668D01*
Y243247D01*
X1246000Y253244D02*
Y258242D01*
X1244334Y259908D01*
X1242668Y258242D01*
Y254910D01*
X1241002Y253244D01*
X1239336Y254910D01*
Y259908D01*
X1246000Y268239D02*
Y264907D01*
X1244334Y263240D01*
X1241002D01*
X1239336Y264907D01*
Y268239D01*
X1241002Y269905D01*
X1242668D01*
Y263240D01*
X1237670Y274903D02*
X1239336D01*
Y273237D01*
Y276569D01*
Y274903D01*
X1244334D01*
X1246000Y276569D01*
X1237670Y298229D02*
X1236003Y296563D01*
Y293231D01*
X1237670Y291565D01*
X1239336D01*
X1241002Y293231D01*
Y296563D01*
X1242668Y298229D01*
X1244334D01*
X1246000Y296563D01*
Y293231D01*
X1244334Y291565D01*
X1236003Y301561D02*
X1246000D01*
X1242668Y304893D01*
X1246000Y308226D01*
X1236003D01*
X1391500Y254997D02*
Y246666D01*
X1393166Y245000D01*
X1396499D01*
X1398165Y246666D01*
Y254997D01*
X1408161Y245000D02*
X1401497D01*
X1408161Y251665D01*
Y253331D01*
X1406495Y254997D01*
X1403163D01*
X1401497Y253331D01*
X1332500Y251247D02*
Y241250D01*
X1339165D01*
X1342497D02*
X1345829D01*
X1344163D01*
Y251247D01*
X1342497Y249581D01*
X1369165Y239081D02*
X1367498Y240747D01*
X1364166D01*
X1362500Y239081D01*
Y232416D01*
X1364166Y230750D01*
X1367498D01*
X1369165Y232416D01*
X1379161Y240747D02*
X1372497D01*
Y235748D01*
X1375829Y237414D01*
X1377495D01*
X1379161Y235748D01*
Y232416D01*
X1377495Y230750D01*
X1374163D01*
X1372497Y232416D01*
X1426665Y270081D02*
X1424998Y271747D01*
X1421666D01*
X1420000Y270081D01*
Y263416D01*
X1421666Y261750D01*
X1424998D01*
X1426665Y263416D01*
X1429997Y270081D02*
X1431663Y271747D01*
X1434995D01*
X1436661Y270081D01*
Y268414D01*
X1434995Y266748D01*
X1433329D01*
X1434995D01*
X1436661Y265082D01*
Y263416D01*
X1434995Y261750D01*
X1431663D01*
X1429997Y263416D01*
X1347915Y312581D02*
X1346248Y314247D01*
X1342916D01*
X1341250Y312581D01*
Y305916D01*
X1342916Y304250D01*
X1346248D01*
X1347915Y305916D01*
X1357911Y304250D02*
X1351247D01*
X1357911Y310914D01*
Y312581D01*
X1356245Y314247D01*
X1352913D01*
X1351247Y312581D01*
X1391415Y300581D02*
X1389749Y302247D01*
X1386416D01*
X1384750Y300581D01*
Y293916D01*
X1386416Y292250D01*
X1389749D01*
X1391415Y293916D01*
X1394747Y292250D02*
X1398079D01*
X1396413D01*
Y302247D01*
X1394747Y300581D01*
X1380665Y760081D02*
X1378999Y761747D01*
X1375666D01*
X1374000Y760081D01*
Y753416D01*
X1375666Y751750D01*
X1378999D01*
X1380665Y753416D01*
X1390661Y761747D02*
X1387329Y760081D01*
X1383997Y756748D01*
Y753416D01*
X1385663Y751750D01*
X1388995D01*
X1390661Y753416D01*
Y755082D01*
X1388995Y756748D01*
X1383997D01*
X1316915Y767081D02*
X1315249Y768747D01*
X1311916D01*
X1310250Y767081D01*
Y760416D01*
X1311916Y758750D01*
X1315249D01*
X1316915Y760416D01*
X1320247Y768747D02*
X1326911D01*
Y767081D01*
X1320247Y760416D01*
Y758750D01*
X1282415Y373581D02*
X1280748Y375247D01*
X1277416D01*
X1275750Y373581D01*
Y366916D01*
X1277416Y365250D01*
X1280748D01*
X1282415Y366916D01*
X1285747Y373581D02*
X1287413Y375247D01*
X1290745D01*
X1292411Y373581D01*
Y371914D01*
X1290745Y370248D01*
X1292411Y368582D01*
Y366916D01*
X1290745Y365250D01*
X1287413D01*
X1285747Y366916D01*
Y368582D01*
X1287413Y370248D01*
X1285747Y371914D01*
Y373581D01*
X1287413Y370248D02*
X1290745D01*
X1406915Y357581D02*
X1405249Y359247D01*
X1401916D01*
X1400250Y357581D01*
Y350916D01*
X1401916Y349250D01*
X1405249D01*
X1406915Y350916D01*
X1410247D02*
X1411913Y349250D01*
X1415245D01*
X1416911Y350916D01*
Y357581D01*
X1415245Y359247D01*
X1411913D01*
X1410247Y357581D01*
Y355914D01*
X1411913Y354248D01*
X1416911D01*
X1398165Y380331D02*
X1396499Y381997D01*
X1393166D01*
X1391500Y380331D01*
Y373666D01*
X1393166Y372000D01*
X1396499D01*
X1398165Y373666D01*
X1401497Y372000D02*
X1404829D01*
X1403163D01*
Y381997D01*
X1401497Y380331D01*
X1409828D02*
X1411494Y381997D01*
X1414826D01*
X1416492Y380331D01*
Y373666D01*
X1414826Y372000D01*
X1411494D01*
X1409828Y373666D01*
Y380331D01*
X1366165Y420831D02*
X1364498Y422497D01*
X1361166D01*
X1359500Y420831D01*
Y414166D01*
X1361166Y412500D01*
X1364498D01*
X1366165Y414166D01*
X1369497Y412500D02*
X1372829D01*
X1371163D01*
Y422497D01*
X1369497Y420831D01*
X1377828Y412500D02*
X1381160D01*
X1379494D01*
Y422497D01*
X1377828Y420831D01*
X1408165Y402331D02*
X1406499Y403997D01*
X1403166D01*
X1401500Y402331D01*
Y395666D01*
X1403166Y394000D01*
X1406499D01*
X1408165Y395666D01*
X1411497Y394000D02*
X1414829D01*
X1413163D01*
Y403997D01*
X1411497Y402331D01*
X1426492Y394000D02*
X1419828D01*
X1426492Y400664D01*
Y402331D01*
X1424826Y403997D01*
X1421494D01*
X1419828Y402331D01*
X1339250Y752997D02*
Y743000D01*
X1344249D01*
X1345915Y744666D01*
Y751331D01*
X1344249Y752997D01*
X1339250D01*
X1349247Y743000D02*
X1352579D01*
X1350913D01*
Y752997D01*
X1349247Y751331D01*
X1253250Y363247D02*
Y353250D01*
X1258249D01*
X1259915Y354916D01*
Y361581D01*
X1258249Y363247D01*
X1253250D01*
X1269911Y353250D02*
X1263247D01*
X1269911Y359915D01*
Y361581D01*
X1268245Y363247D01*
X1264913D01*
X1263247Y361581D01*
X1397415Y804247D02*
X1394082D01*
X1395748D01*
Y795916D01*
X1394082Y794250D01*
X1392416D01*
X1390750Y795916D01*
X1400747Y794250D02*
X1404079D01*
X1402413D01*
Y804247D01*
X1400747Y802581D01*
X1384500Y746997D02*
Y737000D01*
X1391165D01*
X1401161D02*
X1394497D01*
X1401161Y743664D01*
Y745331D01*
X1399495Y746997D01*
X1396163D01*
X1394497Y745331D01*
X1374750Y777497D02*
Y767500D01*
X1381415D01*
X1384747Y775831D02*
X1386413Y777497D01*
X1389745D01*
X1391411Y775831D01*
Y774165D01*
X1389745Y772498D01*
X1388079D01*
X1389745D01*
X1391411Y770832D01*
Y769166D01*
X1389745Y767500D01*
X1386413D01*
X1384747Y769166D01*
X1374250Y721750D02*
Y731747D01*
X1379249D01*
X1380915Y730081D01*
Y726748D01*
X1379249Y725082D01*
X1374250D01*
X1377582D02*
X1380915Y721750D01*
X1384247Y730081D02*
X1385913Y731747D01*
X1389245D01*
X1390911Y730081D01*
Y728415D01*
X1389245Y726748D01*
X1387579D01*
X1389245D01*
X1390911Y725082D01*
Y723416D01*
X1389245Y721750D01*
X1385913D01*
X1384247Y723416D01*
X1276000Y722750D02*
Y732747D01*
X1280999D01*
X1282665Y731081D01*
Y727748D01*
X1280999Y726082D01*
X1276000D01*
X1279332D02*
X1282665Y722750D01*
X1290995D02*
Y732747D01*
X1285997Y727748D01*
X1292661D01*
X1272915Y316331D02*
X1271248Y317997D01*
X1267916D01*
X1266250Y316331D01*
Y314664D01*
X1267916Y312998D01*
X1271248D01*
X1272915Y311332D01*
Y309666D01*
X1271248Y308000D01*
X1267916D01*
X1266250Y309666D01*
X1276247Y317997D02*
Y308000D01*
X1279579Y311332D01*
X1282911Y308000D01*
Y317997D01*
X1286244Y308000D02*
X1289576D01*
X1287910D01*
Y317997D01*
X1286244Y316331D01*
X1244544Y732845D02*
Y724514D01*
X1246210Y722848D01*
X1249542D01*
X1251209Y724514D01*
Y732845D01*
X1254541Y722848D02*
X1257873D01*
X1256207D01*
Y732845D01*
X1254541Y731179D01*
X1319250Y419497D02*
Y411166D01*
X1320916Y409500D01*
X1324249D01*
X1325915Y411166D01*
Y419497D01*
X1329247Y417831D02*
X1330913Y419497D01*
X1334245D01*
X1335912Y417831D01*
Y416165D01*
X1334245Y414498D01*
X1332579D01*
X1334245D01*
X1335912Y412832D01*
Y411166D01*
X1334245Y409500D01*
X1330913D01*
X1329247Y411166D01*
X1212500Y635000D02*
Y644997D01*
X1217499D01*
X1219165Y643331D01*
Y639998D01*
X1217499Y638332D01*
X1212500D01*
X1222497Y635000D02*
X1225829D01*
X1224163D01*
Y644997D01*
X1222497Y643331D01*
X1497000Y233250D02*
X1487003D01*
Y238248D01*
X1488669Y239914D01*
X1492002D01*
X1493668Y238248D01*
Y233250D01*
Y236582D02*
X1497000Y239914D01*
Y248245D02*
Y244913D01*
X1495334Y243247D01*
X1492002D01*
X1490336Y244913D01*
Y248245D01*
X1492002Y249911D01*
X1493668D01*
Y243247D01*
X1497000Y253244D02*
Y258242D01*
X1495334Y259908D01*
X1493668Y258242D01*
Y254910D01*
X1492002Y253244D01*
X1490336Y254910D01*
Y259908D01*
X1497000Y268239D02*
Y264907D01*
X1495334Y263240D01*
X1492002D01*
X1490336Y264907D01*
Y268239D01*
X1492002Y269905D01*
X1493668D01*
Y263240D01*
X1488669Y274903D02*
X1490336D01*
Y273237D01*
Y276569D01*
Y274903D01*
X1495334D01*
X1497000Y276569D01*
X1488669Y298229D02*
X1487003Y296563D01*
Y293231D01*
X1488669Y291565D01*
X1490336D01*
X1492002Y293231D01*
Y296563D01*
X1493668Y298229D01*
X1495334D01*
X1497000Y296563D01*
Y293231D01*
X1495334Y291565D01*
X1487003Y301561D02*
X1497000D01*
X1493668Y304893D01*
X1497000Y308226D01*
X1487003D01*
X1642500Y254997D02*
Y246666D01*
X1644166Y245000D01*
X1647499D01*
X1649165Y246666D01*
Y254997D01*
X1659162Y245000D02*
X1652497D01*
X1659162Y251665D01*
Y253331D01*
X1657495Y254997D01*
X1654163D01*
X1652497Y253331D01*
X1583500Y251247D02*
Y241250D01*
X1590165D01*
X1593497D02*
X1596829D01*
X1595163D01*
Y251247D01*
X1593497Y249581D01*
X1620165Y239081D02*
X1618499Y240747D01*
X1615166D01*
X1613500Y239081D01*
Y232416D01*
X1615166Y230750D01*
X1618499D01*
X1620165Y232416D01*
X1630161Y240747D02*
X1623497D01*
Y235748D01*
X1626829Y237414D01*
X1628495D01*
X1630161Y235748D01*
Y232416D01*
X1628495Y230750D01*
X1625163D01*
X1623497Y232416D01*
X1677665Y270081D02*
X1675999Y271747D01*
X1672666D01*
X1671000Y270081D01*
Y263416D01*
X1672666Y261750D01*
X1675999D01*
X1677665Y263416D01*
X1680997Y270081D02*
X1682663Y271747D01*
X1685995D01*
X1687661Y270081D01*
Y268414D01*
X1685995Y266748D01*
X1684329D01*
X1685995D01*
X1687661Y265082D01*
Y263416D01*
X1685995Y261750D01*
X1682663D01*
X1680997Y263416D01*
X1598915Y312581D02*
X1597249Y314247D01*
X1593916D01*
X1592250Y312581D01*
Y305916D01*
X1593916Y304250D01*
X1597249D01*
X1598915Y305916D01*
X1608911Y304250D02*
X1602247D01*
X1608911Y310914D01*
Y312581D01*
X1607245Y314247D01*
X1603913D01*
X1602247Y312581D01*
X1642415Y300581D02*
X1640749Y302247D01*
X1637416D01*
X1635750Y300581D01*
Y293916D01*
X1637416Y292250D01*
X1640749D01*
X1642415Y293916D01*
X1645747Y292250D02*
X1649079D01*
X1647413D01*
Y302247D01*
X1645747Y300581D01*
X1631665Y760081D02*
X1629999Y761747D01*
X1626666D01*
X1625000Y760081D01*
Y753416D01*
X1626666Y751750D01*
X1629999D01*
X1631665Y753416D01*
X1641662Y761747D02*
X1638329Y760081D01*
X1634997Y756748D01*
Y753416D01*
X1636663Y751750D01*
X1639995D01*
X1641662Y753416D01*
Y755082D01*
X1639995Y756748D01*
X1634997D01*
X1567915Y767081D02*
X1566249Y768747D01*
X1562916D01*
X1561250Y767081D01*
Y760416D01*
X1562916Y758750D01*
X1566249D01*
X1567915Y760416D01*
X1571247Y768747D02*
X1577912D01*
Y767081D01*
X1571247Y760416D01*
Y758750D01*
X1533415Y373581D02*
X1531749Y375247D01*
X1528416D01*
X1526750Y373581D01*
Y366916D01*
X1528416Y365250D01*
X1531749D01*
X1533415Y366916D01*
X1536747Y373581D02*
X1538413Y375247D01*
X1541745D01*
X1543412Y373581D01*
Y371914D01*
X1541745Y370248D01*
X1543412Y368582D01*
Y366916D01*
X1541745Y365250D01*
X1538413D01*
X1536747Y366916D01*
Y368582D01*
X1538413Y370248D01*
X1536747Y371914D01*
Y373581D01*
X1538413Y370248D02*
X1541745D01*
X1657915Y357581D02*
X1656249Y359247D01*
X1652916D01*
X1651250Y357581D01*
Y350916D01*
X1652916Y349250D01*
X1656249D01*
X1657915Y350916D01*
X1661247D02*
X1662913Y349250D01*
X1666245D01*
X1667912Y350916D01*
Y357581D01*
X1666245Y359247D01*
X1662913D01*
X1661247Y357581D01*
Y355914D01*
X1662913Y354248D01*
X1667912D01*
X1649165Y380331D02*
X1647499Y381997D01*
X1644166D01*
X1642500Y380331D01*
Y373666D01*
X1644166Y372000D01*
X1647499D01*
X1649165Y373666D01*
X1652497Y372000D02*
X1655829D01*
X1654163D01*
Y381997D01*
X1652497Y380331D01*
X1660828D02*
X1662494Y381997D01*
X1665826D01*
X1667492Y380331D01*
Y373666D01*
X1665826Y372000D01*
X1662494D01*
X1660828Y373666D01*
Y380331D01*
X1617165Y420831D02*
X1615499Y422497D01*
X1612166D01*
X1610500Y420831D01*
Y414166D01*
X1612166Y412500D01*
X1615499D01*
X1617165Y414166D01*
X1620497Y412500D02*
X1623829D01*
X1622163D01*
Y422497D01*
X1620497Y420831D01*
X1628828Y412500D02*
X1632160D01*
X1630494D01*
Y422497D01*
X1628828Y420831D01*
X1659165Y402331D02*
X1657499Y403997D01*
X1654166D01*
X1652500Y402331D01*
Y395666D01*
X1654166Y394000D01*
X1657499D01*
X1659165Y395666D01*
X1662497Y394000D02*
X1665829D01*
X1664163D01*
Y403997D01*
X1662497Y402331D01*
X1677492Y394000D02*
X1670828D01*
X1677492Y400664D01*
Y402331D01*
X1675826Y403997D01*
X1672494D01*
X1670828Y402331D01*
X1590250Y752997D02*
Y743000D01*
X1595249D01*
X1596915Y744666D01*
Y751331D01*
X1595249Y752997D01*
X1590250D01*
X1600247Y743000D02*
X1603579D01*
X1601913D01*
Y752997D01*
X1600247Y751331D01*
X1504250Y363247D02*
Y353250D01*
X1509249D01*
X1510915Y354916D01*
Y361581D01*
X1509249Y363247D01*
X1504250D01*
X1520912Y353250D02*
X1514247D01*
X1520912Y359915D01*
Y361581D01*
X1519245Y363247D01*
X1515913D01*
X1514247Y361581D01*
X1648415Y804247D02*
X1645082D01*
X1646749D01*
Y795916D01*
X1645082Y794250D01*
X1643416D01*
X1641750Y795916D01*
X1651747Y794250D02*
X1655079D01*
X1653413D01*
Y804247D01*
X1651747Y802581D01*
X1635500Y746997D02*
Y737000D01*
X1642165D01*
X1652162D02*
X1645497D01*
X1652162Y743664D01*
Y745331D01*
X1650495Y746997D01*
X1647163D01*
X1645497Y745331D01*
X1625750Y777497D02*
Y767500D01*
X1632415D01*
X1635747Y775831D02*
X1637413Y777497D01*
X1640745D01*
X1642411Y775831D01*
Y774165D01*
X1640745Y772498D01*
X1639079D01*
X1640745D01*
X1642411Y770832D01*
Y769166D01*
X1640745Y767500D01*
X1637413D01*
X1635747Y769166D01*
X1625250Y721750D02*
Y731747D01*
X1630249D01*
X1631915Y730081D01*
Y726748D01*
X1630249Y725082D01*
X1625250D01*
X1628582D02*
X1631915Y721750D01*
X1635247Y730081D02*
X1636913Y731747D01*
X1640245D01*
X1641911Y730081D01*
Y728415D01*
X1640245Y726748D01*
X1638579D01*
X1640245D01*
X1641911Y725082D01*
Y723416D01*
X1640245Y721750D01*
X1636913D01*
X1635247Y723416D01*
X1527000Y722750D02*
Y732747D01*
X1531999D01*
X1533665Y731081D01*
Y727748D01*
X1531999Y726082D01*
X1527000D01*
X1530332D02*
X1533665Y722750D01*
X1541995D02*
Y732747D01*
X1536997Y727748D01*
X1543661D01*
X1523915Y316331D02*
X1522249Y317997D01*
X1518916D01*
X1517250Y316331D01*
Y314664D01*
X1518916Y312998D01*
X1522249D01*
X1523915Y311332D01*
Y309666D01*
X1522249Y308000D01*
X1518916D01*
X1517250Y309666D01*
X1527247Y317997D02*
Y308000D01*
X1530579Y311332D01*
X1533911Y308000D01*
Y317997D01*
X1537244Y308000D02*
X1540576D01*
X1538910D01*
Y317997D01*
X1537244Y316331D01*
X1495544Y732845D02*
Y724514D01*
X1497210Y722848D01*
X1500543D01*
X1502209Y724514D01*
Y732845D01*
X1505541Y722848D02*
X1508873D01*
X1507207D01*
Y732845D01*
X1505541Y731179D01*
X1570250Y419497D02*
Y411166D01*
X1571916Y409500D01*
X1575249D01*
X1576915Y411166D01*
Y419497D01*
X1580247Y417831D02*
X1581913Y419497D01*
X1585245D01*
X1586911Y417831D01*
Y416165D01*
X1585245Y414498D01*
X1583579D01*
X1585245D01*
X1586911Y412832D01*
Y411166D01*
X1585245Y409500D01*
X1581913D01*
X1580247Y411166D01*
X1463500Y635000D02*
Y644997D01*
X1468499D01*
X1470165Y643331D01*
Y639998D01*
X1468499Y638332D01*
X1463500D01*
X1473497Y635000D02*
X1476829D01*
X1475163D01*
Y644997D01*
X1473497Y643331D01*
M02*
