G04*
G04 #@! TF.GenerationSoftware,Altium Limited,Altium Designer,18.0.12 (696)*
G04*
G04 Layer_Color=16711935*
%FSLAX44Y44*%
%MOMM*%
G71*
G01*
G75*
%ADD54C,2.0000*%
%ADD55C,1.7000*%
%ADD56R,1.7000X1.7000*%
D54*
X218250Y217250D02*
D03*
X430250Y217750D02*
D03*
Y802750D02*
D03*
X469250Y217250D02*
D03*
X681250Y217750D02*
D03*
Y802750D02*
D03*
X720250Y217250D02*
D03*
X932250Y217750D02*
D03*
Y802750D02*
D03*
X971250Y217250D02*
D03*
X1183250Y217750D02*
D03*
Y802750D02*
D03*
X1222250Y217250D02*
D03*
X1434250Y217750D02*
D03*
Y802750D02*
D03*
X1473250Y217250D02*
D03*
X1685250Y217750D02*
D03*
Y802750D02*
D03*
D55*
X215000Y491300D02*
D03*
Y465900D02*
D03*
Y415100D02*
D03*
Y389700D02*
D03*
Y592900D02*
D03*
Y338900D02*
D03*
Y516700D02*
D03*
Y288100D02*
D03*
Y542100D02*
D03*
Y313500D02*
D03*
Y567500D02*
D03*
Y364300D02*
D03*
Y618300D02*
D03*
Y440500D02*
D03*
X466000Y491300D02*
D03*
Y465900D02*
D03*
Y415100D02*
D03*
Y389700D02*
D03*
Y592900D02*
D03*
Y338900D02*
D03*
Y516700D02*
D03*
Y288100D02*
D03*
Y542100D02*
D03*
Y313500D02*
D03*
Y567500D02*
D03*
Y364300D02*
D03*
Y618300D02*
D03*
Y440500D02*
D03*
X717000Y491300D02*
D03*
Y465900D02*
D03*
Y415100D02*
D03*
Y389700D02*
D03*
Y592900D02*
D03*
Y338900D02*
D03*
Y516700D02*
D03*
Y288100D02*
D03*
Y542100D02*
D03*
Y313500D02*
D03*
Y567500D02*
D03*
Y364300D02*
D03*
Y618300D02*
D03*
Y440500D02*
D03*
X968000Y491300D02*
D03*
Y465900D02*
D03*
Y415100D02*
D03*
Y389700D02*
D03*
Y592900D02*
D03*
Y338900D02*
D03*
Y516700D02*
D03*
Y288100D02*
D03*
Y542100D02*
D03*
Y313500D02*
D03*
Y567500D02*
D03*
Y364300D02*
D03*
Y618300D02*
D03*
Y440500D02*
D03*
X1219000Y491300D02*
D03*
Y465900D02*
D03*
Y415100D02*
D03*
Y389700D02*
D03*
Y592900D02*
D03*
Y338900D02*
D03*
Y516700D02*
D03*
Y288100D02*
D03*
Y542100D02*
D03*
Y313500D02*
D03*
Y567500D02*
D03*
Y364300D02*
D03*
Y618300D02*
D03*
Y440500D02*
D03*
X1470000Y491300D02*
D03*
Y465900D02*
D03*
Y415100D02*
D03*
Y389700D02*
D03*
Y592900D02*
D03*
Y338900D02*
D03*
Y516700D02*
D03*
Y288100D02*
D03*
Y542100D02*
D03*
Y313500D02*
D03*
Y567500D02*
D03*
Y364300D02*
D03*
Y618300D02*
D03*
Y440500D02*
D03*
D56*
X215000Y262700D02*
D03*
X466000D02*
D03*
X717000D02*
D03*
X968000D02*
D03*
X1219000D02*
D03*
X1470000D02*
D03*
M02*
