G04*
G04 #@! TF.GenerationSoftware,Altium Limited,Altium Designer,18.0.12 (696)*
G04*
G04 Layer_Physical_Order=2*
G04 Layer_Color=36540*
%FSLAX44Y44*%
%MOMM*%
G71*
G01*
G75*
%ADD28C,0.2540*%
%ADD33C,0.8000*%
%ADD35C,1.2700*%
D28*
X252500Y360000D02*
Y417500D01*
X237500Y432500D02*
X252500Y417500D01*
X237500Y432500D02*
Y497500D01*
X402500Y395000D02*
Y550250D01*
X415750Y563500D01*
X404750Y361500D02*
X412250D01*
X416000Y365250D01*
Y518750D01*
X428250Y531000D01*
X429750Y381750D02*
Y520309D01*
X436870Y527430D01*
Y543630D01*
X428137Y552363D02*
X436870Y543630D01*
X503500Y360000D02*
Y417500D01*
X488500Y432500D02*
X503500Y417500D01*
X488500Y432500D02*
Y497500D01*
X653500Y395000D02*
Y550250D01*
X666750Y563500D01*
X655750Y361500D02*
X663250D01*
X667000Y365250D01*
Y518750D01*
X679250Y531000D01*
X680750Y381750D02*
Y520309D01*
X687870Y527430D01*
Y543630D01*
X679137Y552363D02*
X687870Y543630D01*
X754500Y360000D02*
Y417500D01*
X739500Y432500D02*
X754500Y417500D01*
X739500Y432500D02*
Y497500D01*
X904500Y395000D02*
Y550250D01*
X917750Y563500D01*
X906750Y361500D02*
X914250D01*
X918000Y365250D01*
Y518750D01*
X930250Y531000D01*
X931750Y381750D02*
Y520309D01*
X938870Y527430D01*
Y543630D01*
X930137Y552363D02*
X938870Y543630D01*
X1005500Y360000D02*
Y417500D01*
X990500Y432500D02*
X1005500Y417500D01*
X990500Y432500D02*
Y497500D01*
X1155500Y395000D02*
Y550250D01*
X1168750Y563500D01*
X1157750Y361500D02*
X1165250D01*
X1169000Y365250D01*
Y518750D01*
X1181250Y531000D01*
X1182750Y381750D02*
Y520309D01*
X1189870Y527430D01*
Y543630D01*
X1181137Y552363D02*
X1189870Y543630D01*
X1256500Y360000D02*
Y417500D01*
X1241500Y432500D02*
X1256500Y417500D01*
X1241500Y432500D02*
Y497500D01*
X1406500Y395000D02*
Y550250D01*
X1419750Y563500D01*
X1408750Y361500D02*
X1416250D01*
X1420000Y365250D01*
Y518750D01*
X1432250Y531000D01*
X1433750Y381750D02*
Y520309D01*
X1440870Y527430D01*
Y543630D01*
X1432137Y552363D02*
X1440870Y543630D01*
X1507500Y360000D02*
Y417500D01*
X1492500Y432500D02*
X1507500Y417500D01*
X1492500Y432500D02*
Y497500D01*
X1657500Y395000D02*
Y550250D01*
X1670750Y563500D01*
X1659750Y361500D02*
X1667250D01*
X1671000Y365250D01*
Y518750D01*
X1683250Y531000D01*
X1684750Y381750D02*
Y520309D01*
X1691870Y527430D01*
Y543630D01*
X1683137Y552363D02*
X1691870Y543630D01*
D33*
X252500Y360000D02*
D03*
X237500Y497500D02*
D03*
X503500Y360000D02*
D03*
X488500Y497500D02*
D03*
X754500Y360000D02*
D03*
X739500Y497500D02*
D03*
X1005500Y360000D02*
D03*
X990500Y497500D02*
D03*
X1256500Y360000D02*
D03*
X1241500Y497500D02*
D03*
X1507500Y360000D02*
D03*
X1492500Y497500D02*
D03*
D35*
X415750Y563500D02*
D03*
X428137Y552363D02*
D03*
X402500Y395000D02*
D03*
X428250Y531000D02*
D03*
X429750Y381750D02*
D03*
X404750Y361500D02*
D03*
X666750Y563500D02*
D03*
X679137Y552363D02*
D03*
X653500Y395000D02*
D03*
X679250Y531000D02*
D03*
X680750Y381750D02*
D03*
X655750Y361500D02*
D03*
X917750Y563500D02*
D03*
X930137Y552363D02*
D03*
X904500Y395000D02*
D03*
X930250Y531000D02*
D03*
X931750Y381750D02*
D03*
X906750Y361500D02*
D03*
X1168750Y563500D02*
D03*
X1181137Y552363D02*
D03*
X1155500Y395000D02*
D03*
X1181250Y531000D02*
D03*
X1182750Y381750D02*
D03*
X1157750Y361500D02*
D03*
X1419750Y563500D02*
D03*
X1432137Y552363D02*
D03*
X1406500Y395000D02*
D03*
X1432250Y531000D02*
D03*
X1433750Y381750D02*
D03*
X1408750Y361500D02*
D03*
X1670750Y563500D02*
D03*
X1683137Y552363D02*
D03*
X1657500Y395000D02*
D03*
X1683250Y531000D02*
D03*
X1684750Y381750D02*
D03*
X1659750Y361500D02*
D03*
M02*
