G04*
G04 #@! TF.GenerationSoftware,Altium Limited,Altium Designer,18.0.12 (696)*
G04*
G04 Layer_Color=16711935*
%FSLAX44Y44*%
%MOMM*%
G71*
G01*
G75*
%ADD27C,0.2000*%
%ADD36C,0.1000*%
D27*
X346500Y785500D02*
Y816500D01*
Y785500D02*
X376500D01*
Y816500D01*
X346500D02*
X376500D01*
X597500Y785500D02*
Y816500D01*
Y785500D02*
X627500D01*
Y816500D01*
X597500D02*
X627500D01*
X848500Y785500D02*
Y816500D01*
Y785500D02*
X878500D01*
Y816500D01*
X848500D02*
X878500D01*
X1099500Y785500D02*
Y816500D01*
Y785500D02*
X1129500D01*
Y816500D01*
X1099500D02*
X1129500D01*
X1350500Y785500D02*
Y816500D01*
Y785500D02*
X1380500D01*
Y816500D01*
X1350500D02*
X1380500D01*
X1601500Y785500D02*
Y816500D01*
Y785500D02*
X1631500D01*
Y816500D01*
X1601500D02*
X1631500D01*
D36*
X373500Y276500D02*
G03*
X373500Y276500I-5000J0D01*
G01*
X322000Y393250D02*
G03*
X322000Y393250I-5000J0D01*
G01*
X361000Y310250D02*
X371500D01*
X361000Y304750D02*
X371500D01*
X361000D02*
Y310250D01*
X371500Y304750D02*
Y310250D01*
X361000Y300250D02*
X371500D01*
X361000Y294750D02*
X371500D01*
X361000D02*
Y300250D01*
X371500Y294750D02*
Y300250D01*
X319500Y257000D02*
X350500D01*
X319500Y288000D02*
X350500D01*
X319500Y257000D02*
Y288000D01*
X350500Y257000D02*
Y288000D01*
X359500Y259500D02*
Y285500D01*
X385500Y259500D02*
Y285500D01*
X359500D02*
X385500D01*
X359500Y259500D02*
X385500D01*
X398500Y269750D02*
X409000D01*
X398500Y264250D02*
X409000D01*
X398500D02*
Y269750D01*
X409000Y264250D02*
Y269750D01*
X361500Y251000D02*
X372000D01*
X361500Y245500D02*
X372000D01*
X361500D02*
Y251000D01*
X372000Y245500D02*
Y251000D01*
X364310Y721240D02*
Y731740D01*
X358810Y721240D02*
Y731740D01*
X364310D01*
X358810Y721240D02*
X364310D01*
X361000Y743750D02*
X371500D01*
X361000Y738250D02*
X371500D01*
X361000D02*
Y743750D01*
X371500Y738250D02*
Y743750D01*
X358750Y750250D02*
X364250D01*
X358750Y760750D02*
X364250D01*
X358750Y750250D02*
Y760750D01*
X364250Y750250D02*
Y760750D01*
X298250Y721750D02*
Y732250D01*
X292750Y721750D02*
Y732250D01*
X298250D01*
X292750Y721750D02*
X298250D01*
X328750Y771500D02*
X334250D01*
X328750Y761000D02*
X334250D01*
Y771500D01*
X328750Y761000D02*
Y771500D01*
X339000Y761000D02*
Y771500D01*
X344500Y761000D02*
Y771500D01*
X339000Y761000D02*
X344500D01*
X339000Y771500D02*
X344500D01*
X351500Y768500D02*
X362000D01*
X351500Y774000D02*
X362000D01*
Y768500D02*
Y774000D01*
X351500Y768500D02*
Y774000D01*
X386500Y352000D02*
X392000D01*
X386500Y362500D02*
X392000D01*
X386500Y352000D02*
Y362500D01*
X392000Y352000D02*
Y362500D01*
X377000Y371750D02*
X382500D01*
X377000Y382250D02*
X382500D01*
X377000Y371750D02*
Y382250D01*
X382500Y371750D02*
Y382250D01*
X377000Y405000D02*
X382500D01*
X377000Y394500D02*
X382500D01*
Y405000D01*
X377000Y394500D02*
Y405000D01*
X252500Y342500D02*
X263000D01*
X252500Y348000D02*
X263000D01*
Y342500D02*
Y348000D01*
X252500Y342500D02*
Y348000D01*
X293250Y359250D02*
X298750D01*
X293250Y369750D02*
X298750D01*
X293250Y359250D02*
Y369750D01*
X298750Y359250D02*
Y369750D01*
X308500Y350750D02*
Y400750D01*
X368500Y350750D02*
Y400750D01*
X308500Y350750D02*
X368500D01*
X308500Y400750D02*
X368500D01*
X386000Y405000D02*
X391500D01*
X386000Y394500D02*
X391500D01*
Y405000D01*
X386000Y394500D02*
Y405000D01*
X624500Y276500D02*
G03*
X624500Y276500I-5000J0D01*
G01*
X573000Y393250D02*
G03*
X573000Y393250I-5000J0D01*
G01*
X612000Y310250D02*
X622500D01*
X612000Y304750D02*
X622500D01*
X612000D02*
Y310250D01*
X622500Y304750D02*
Y310250D01*
X612000Y300250D02*
X622500D01*
X612000Y294750D02*
X622500D01*
X612000D02*
Y300250D01*
X622500Y294750D02*
Y300250D01*
X570500Y257000D02*
X601500D01*
X570500Y288000D02*
X601500D01*
X570500Y257000D02*
Y288000D01*
X601500Y257000D02*
Y288000D01*
X610500Y259500D02*
Y285500D01*
X636500Y259500D02*
Y285500D01*
X610500D02*
X636500D01*
X610500Y259500D02*
X636500D01*
X649500Y269750D02*
X660000D01*
X649500Y264250D02*
X660000D01*
X649500D02*
Y269750D01*
X660000Y264250D02*
Y269750D01*
X612500Y251000D02*
X623000D01*
X612500Y245500D02*
X623000D01*
X612500D02*
Y251000D01*
X623000Y245500D02*
Y251000D01*
X615310Y721240D02*
Y731740D01*
X609810Y721240D02*
Y731740D01*
X615310D01*
X609810Y721240D02*
X615310D01*
X612000Y743750D02*
X622500D01*
X612000Y738250D02*
X622500D01*
X612000D02*
Y743750D01*
X622500Y738250D02*
Y743750D01*
X609750Y750250D02*
X615250D01*
X609750Y760750D02*
X615250D01*
X609750Y750250D02*
Y760750D01*
X615250Y750250D02*
Y760750D01*
X549250Y721750D02*
Y732250D01*
X543750Y721750D02*
Y732250D01*
X549250D01*
X543750Y721750D02*
X549250D01*
X579750Y771500D02*
X585250D01*
X579750Y761000D02*
X585250D01*
Y771500D01*
X579750Y761000D02*
Y771500D01*
X590000Y761000D02*
Y771500D01*
X595500Y761000D02*
Y771500D01*
X590000Y761000D02*
X595500D01*
X590000Y771500D02*
X595500D01*
X602500Y768500D02*
X613000D01*
X602500Y774000D02*
X613000D01*
Y768500D02*
Y774000D01*
X602500Y768500D02*
Y774000D01*
X637500Y352000D02*
X643000D01*
X637500Y362500D02*
X643000D01*
X637500Y352000D02*
Y362500D01*
X643000Y352000D02*
Y362500D01*
X628000Y371750D02*
X633500D01*
X628000Y382250D02*
X633500D01*
X628000Y371750D02*
Y382250D01*
X633500Y371750D02*
Y382250D01*
X628000Y405000D02*
X633500D01*
X628000Y394500D02*
X633500D01*
Y405000D01*
X628000Y394500D02*
Y405000D01*
X503500Y342500D02*
X514000D01*
X503500Y348000D02*
X514000D01*
Y342500D02*
Y348000D01*
X503500Y342500D02*
Y348000D01*
X544250Y359250D02*
X549750D01*
X544250Y369750D02*
X549750D01*
X544250Y359250D02*
Y369750D01*
X549750Y359250D02*
Y369750D01*
X559500Y350750D02*
Y400750D01*
X619500Y350750D02*
Y400750D01*
X559500Y350750D02*
X619500D01*
X559500Y400750D02*
X619500D01*
X637000Y405000D02*
X642500D01*
X637000Y394500D02*
X642500D01*
Y405000D01*
X637000Y394500D02*
Y405000D01*
X875500Y276500D02*
G03*
X875500Y276500I-5000J0D01*
G01*
X824000Y393250D02*
G03*
X824000Y393250I-5000J0D01*
G01*
X863000Y310250D02*
X873500D01*
X863000Y304750D02*
X873500D01*
X863000D02*
Y310250D01*
X873500Y304750D02*
Y310250D01*
X863000Y300250D02*
X873500D01*
X863000Y294750D02*
X873500D01*
X863000D02*
Y300250D01*
X873500Y294750D02*
Y300250D01*
X821500Y257000D02*
X852500D01*
X821500Y288000D02*
X852500D01*
X821500Y257000D02*
Y288000D01*
X852500Y257000D02*
Y288000D01*
X861500Y259500D02*
Y285500D01*
X887500Y259500D02*
Y285500D01*
X861500D02*
X887500D01*
X861500Y259500D02*
X887500D01*
X900500Y269750D02*
X911000D01*
X900500Y264250D02*
X911000D01*
X900500D02*
Y269750D01*
X911000Y264250D02*
Y269750D01*
X863500Y251000D02*
X874000D01*
X863500Y245500D02*
X874000D01*
X863500D02*
Y251000D01*
X874000Y245500D02*
Y251000D01*
X866310Y721240D02*
Y731740D01*
X860810Y721240D02*
Y731740D01*
X866310D01*
X860810Y721240D02*
X866310D01*
X863000Y743750D02*
X873500D01*
X863000Y738250D02*
X873500D01*
X863000D02*
Y743750D01*
X873500Y738250D02*
Y743750D01*
X860750Y750250D02*
X866250D01*
X860750Y760750D02*
X866250D01*
X860750Y750250D02*
Y760750D01*
X866250Y750250D02*
Y760750D01*
X800250Y721750D02*
Y732250D01*
X794750Y721750D02*
Y732250D01*
X800250D01*
X794750Y721750D02*
X800250D01*
X830750Y771500D02*
X836250D01*
X830750Y761000D02*
X836250D01*
Y771500D01*
X830750Y761000D02*
Y771500D01*
X841000Y761000D02*
Y771500D01*
X846500Y761000D02*
Y771500D01*
X841000Y761000D02*
X846500D01*
X841000Y771500D02*
X846500D01*
X853500Y768500D02*
X864000D01*
X853500Y774000D02*
X864000D01*
Y768500D02*
Y774000D01*
X853500Y768500D02*
Y774000D01*
X888500Y352000D02*
X894000D01*
X888500Y362500D02*
X894000D01*
X888500Y352000D02*
Y362500D01*
X894000Y352000D02*
Y362500D01*
X879000Y371750D02*
X884500D01*
X879000Y382250D02*
X884500D01*
X879000Y371750D02*
Y382250D01*
X884500Y371750D02*
Y382250D01*
X879000Y405000D02*
X884500D01*
X879000Y394500D02*
X884500D01*
Y405000D01*
X879000Y394500D02*
Y405000D01*
X754500Y342500D02*
X765000D01*
X754500Y348000D02*
X765000D01*
Y342500D02*
Y348000D01*
X754500Y342500D02*
Y348000D01*
X795250Y359250D02*
X800750D01*
X795250Y369750D02*
X800750D01*
X795250Y359250D02*
Y369750D01*
X800750Y359250D02*
Y369750D01*
X810500Y350750D02*
Y400750D01*
X870500Y350750D02*
Y400750D01*
X810500Y350750D02*
X870500D01*
X810500Y400750D02*
X870500D01*
X888000Y405000D02*
X893500D01*
X888000Y394500D02*
X893500D01*
Y405000D01*
X888000Y394500D02*
Y405000D01*
X1126500Y276500D02*
G03*
X1126500Y276500I-5000J0D01*
G01*
X1075000Y393250D02*
G03*
X1075000Y393250I-5000J0D01*
G01*
X1114000Y310250D02*
X1124500D01*
X1114000Y304750D02*
X1124500D01*
X1114000D02*
Y310250D01*
X1124500Y304750D02*
Y310250D01*
X1114000Y300250D02*
X1124500D01*
X1114000Y294750D02*
X1124500D01*
X1114000D02*
Y300250D01*
X1124500Y294750D02*
Y300250D01*
X1072500Y257000D02*
X1103500D01*
X1072500Y288000D02*
X1103500D01*
X1072500Y257000D02*
Y288000D01*
X1103500Y257000D02*
Y288000D01*
X1112500Y259500D02*
Y285500D01*
X1138500Y259500D02*
Y285500D01*
X1112500D02*
X1138500D01*
X1112500Y259500D02*
X1138500D01*
X1151500Y269750D02*
X1162000D01*
X1151500Y264250D02*
X1162000D01*
X1151500D02*
Y269750D01*
X1162000Y264250D02*
Y269750D01*
X1114500Y251000D02*
X1125000D01*
X1114500Y245500D02*
X1125000D01*
X1114500D02*
Y251000D01*
X1125000Y245500D02*
Y251000D01*
X1117310Y721240D02*
Y731740D01*
X1111810Y721240D02*
Y731740D01*
X1117310D01*
X1111810Y721240D02*
X1117310D01*
X1114000Y743750D02*
X1124500D01*
X1114000Y738250D02*
X1124500D01*
X1114000D02*
Y743750D01*
X1124500Y738250D02*
Y743750D01*
X1111750Y750250D02*
X1117250D01*
X1111750Y760750D02*
X1117250D01*
X1111750Y750250D02*
Y760750D01*
X1117250Y750250D02*
Y760750D01*
X1051250Y721750D02*
Y732250D01*
X1045750Y721750D02*
Y732250D01*
X1051250D01*
X1045750Y721750D02*
X1051250D01*
X1081750Y771500D02*
X1087250D01*
X1081750Y761000D02*
X1087250D01*
Y771500D01*
X1081750Y761000D02*
Y771500D01*
X1092000Y761000D02*
Y771500D01*
X1097500Y761000D02*
Y771500D01*
X1092000Y761000D02*
X1097500D01*
X1092000Y771500D02*
X1097500D01*
X1104500Y768500D02*
X1115000D01*
X1104500Y774000D02*
X1115000D01*
Y768500D02*
Y774000D01*
X1104500Y768500D02*
Y774000D01*
X1139500Y352000D02*
X1145000D01*
X1139500Y362500D02*
X1145000D01*
X1139500Y352000D02*
Y362500D01*
X1145000Y352000D02*
Y362500D01*
X1130000Y371750D02*
X1135500D01*
X1130000Y382250D02*
X1135500D01*
X1130000Y371750D02*
Y382250D01*
X1135500Y371750D02*
Y382250D01*
X1130000Y405000D02*
X1135500D01*
X1130000Y394500D02*
X1135500D01*
Y405000D01*
X1130000Y394500D02*
Y405000D01*
X1005500Y342500D02*
X1016000D01*
X1005500Y348000D02*
X1016000D01*
Y342500D02*
Y348000D01*
X1005500Y342500D02*
Y348000D01*
X1046250Y359250D02*
X1051750D01*
X1046250Y369750D02*
X1051750D01*
X1046250Y359250D02*
Y369750D01*
X1051750Y359250D02*
Y369750D01*
X1061500Y350750D02*
Y400750D01*
X1121500Y350750D02*
Y400750D01*
X1061500Y350750D02*
X1121500D01*
X1061500Y400750D02*
X1121500D01*
X1139000Y405000D02*
X1144500D01*
X1139000Y394500D02*
X1144500D01*
Y405000D01*
X1139000Y394500D02*
Y405000D01*
X1377500Y276500D02*
G03*
X1377500Y276500I-5000J0D01*
G01*
X1326000Y393250D02*
G03*
X1326000Y393250I-5000J0D01*
G01*
X1365000Y310250D02*
X1375500D01*
X1365000Y304750D02*
X1375500D01*
X1365000D02*
Y310250D01*
X1375500Y304750D02*
Y310250D01*
X1365000Y300250D02*
X1375500D01*
X1365000Y294750D02*
X1375500D01*
X1365000D02*
Y300250D01*
X1375500Y294750D02*
Y300250D01*
X1323500Y257000D02*
X1354500D01*
X1323500Y288000D02*
X1354500D01*
X1323500Y257000D02*
Y288000D01*
X1354500Y257000D02*
Y288000D01*
X1363500Y259500D02*
Y285500D01*
X1389500Y259500D02*
Y285500D01*
X1363500D02*
X1389500D01*
X1363500Y259500D02*
X1389500D01*
X1402500Y269750D02*
X1413000D01*
X1402500Y264250D02*
X1413000D01*
X1402500D02*
Y269750D01*
X1413000Y264250D02*
Y269750D01*
X1365500Y251000D02*
X1376000D01*
X1365500Y245500D02*
X1376000D01*
X1365500D02*
Y251000D01*
X1376000Y245500D02*
Y251000D01*
X1368310Y721240D02*
Y731740D01*
X1362810Y721240D02*
Y731740D01*
X1368310D01*
X1362810Y721240D02*
X1368310D01*
X1365000Y743750D02*
X1375500D01*
X1365000Y738250D02*
X1375500D01*
X1365000D02*
Y743750D01*
X1375500Y738250D02*
Y743750D01*
X1362750Y750250D02*
X1368250D01*
X1362750Y760750D02*
X1368250D01*
X1362750Y750250D02*
Y760750D01*
X1368250Y750250D02*
Y760750D01*
X1302250Y721750D02*
Y732250D01*
X1296750Y721750D02*
Y732250D01*
X1302250D01*
X1296750Y721750D02*
X1302250D01*
X1332750Y771500D02*
X1338250D01*
X1332750Y761000D02*
X1338250D01*
Y771500D01*
X1332750Y761000D02*
Y771500D01*
X1343000Y761000D02*
Y771500D01*
X1348500Y761000D02*
Y771500D01*
X1343000Y761000D02*
X1348500D01*
X1343000Y771500D02*
X1348500D01*
X1355500Y768500D02*
X1366000D01*
X1355500Y774000D02*
X1366000D01*
Y768500D02*
Y774000D01*
X1355500Y768500D02*
Y774000D01*
X1390500Y352000D02*
X1396000D01*
X1390500Y362500D02*
X1396000D01*
X1390500Y352000D02*
Y362500D01*
X1396000Y352000D02*
Y362500D01*
X1381000Y371750D02*
X1386500D01*
X1381000Y382250D02*
X1386500D01*
X1381000Y371750D02*
Y382250D01*
X1386500Y371750D02*
Y382250D01*
X1381000Y405000D02*
X1386500D01*
X1381000Y394500D02*
X1386500D01*
Y405000D01*
X1381000Y394500D02*
Y405000D01*
X1256500Y342500D02*
X1267000D01*
X1256500Y348000D02*
X1267000D01*
Y342500D02*
Y348000D01*
X1256500Y342500D02*
Y348000D01*
X1297250Y359250D02*
X1302750D01*
X1297250Y369750D02*
X1302750D01*
X1297250Y359250D02*
Y369750D01*
X1302750Y359250D02*
Y369750D01*
X1312500Y350750D02*
Y400750D01*
X1372500Y350750D02*
Y400750D01*
X1312500Y350750D02*
X1372500D01*
X1312500Y400750D02*
X1372500D01*
X1390000Y405000D02*
X1395500D01*
X1390000Y394500D02*
X1395500D01*
Y405000D01*
X1390000Y394500D02*
Y405000D01*
X1628500Y276500D02*
G03*
X1628500Y276500I-5000J0D01*
G01*
X1577000Y393250D02*
G03*
X1577000Y393250I-5000J0D01*
G01*
X1616000Y310250D02*
X1626500D01*
X1616000Y304750D02*
X1626500D01*
X1616000D02*
Y310250D01*
X1626500Y304750D02*
Y310250D01*
X1616000Y300250D02*
X1626500D01*
X1616000Y294750D02*
X1626500D01*
X1616000D02*
Y300250D01*
X1626500Y294750D02*
Y300250D01*
X1574500Y257000D02*
X1605500D01*
X1574500Y288000D02*
X1605500D01*
X1574500Y257000D02*
Y288000D01*
X1605500Y257000D02*
Y288000D01*
X1614500Y259500D02*
Y285500D01*
X1640500Y259500D02*
Y285500D01*
X1614500D02*
X1640500D01*
X1614500Y259500D02*
X1640500D01*
X1653500Y269750D02*
X1664000D01*
X1653500Y264250D02*
X1664000D01*
X1653500D02*
Y269750D01*
X1664000Y264250D02*
Y269750D01*
X1616500Y251000D02*
X1627000D01*
X1616500Y245500D02*
X1627000D01*
X1616500D02*
Y251000D01*
X1627000Y245500D02*
Y251000D01*
X1619310Y721240D02*
Y731740D01*
X1613810Y721240D02*
Y731740D01*
X1619310D01*
X1613810Y721240D02*
X1619310D01*
X1616000Y743750D02*
X1626500D01*
X1616000Y738250D02*
X1626500D01*
X1616000D02*
Y743750D01*
X1626500Y738250D02*
Y743750D01*
X1613750Y750250D02*
X1619250D01*
X1613750Y760750D02*
X1619250D01*
X1613750Y750250D02*
Y760750D01*
X1619250Y750250D02*
Y760750D01*
X1553250Y721750D02*
Y732250D01*
X1547750Y721750D02*
Y732250D01*
X1553250D01*
X1547750Y721750D02*
X1553250D01*
X1583750Y771500D02*
X1589250D01*
X1583750Y761000D02*
X1589250D01*
Y771500D01*
X1583750Y761000D02*
Y771500D01*
X1594000Y761000D02*
Y771500D01*
X1599500Y761000D02*
Y771500D01*
X1594000Y761000D02*
X1599500D01*
X1594000Y771500D02*
X1599500D01*
X1606500Y768500D02*
X1617000D01*
X1606500Y774000D02*
X1617000D01*
Y768500D02*
Y774000D01*
X1606500Y768500D02*
Y774000D01*
X1641500Y352000D02*
X1647000D01*
X1641500Y362500D02*
X1647000D01*
X1641500Y352000D02*
Y362500D01*
X1647000Y352000D02*
Y362500D01*
X1632000Y371750D02*
X1637500D01*
X1632000Y382250D02*
X1637500D01*
X1632000Y371750D02*
Y382250D01*
X1637500Y371750D02*
Y382250D01*
X1632000Y405000D02*
X1637500D01*
X1632000Y394500D02*
X1637500D01*
Y405000D01*
X1632000Y394500D02*
Y405000D01*
X1507500Y342500D02*
X1518000D01*
X1507500Y348000D02*
X1518000D01*
Y342500D02*
Y348000D01*
X1507500Y342500D02*
Y348000D01*
X1548250Y359250D02*
X1553750D01*
X1548250Y369750D02*
X1553750D01*
X1548250Y359250D02*
Y369750D01*
X1553750Y359250D02*
Y369750D01*
X1563500Y350750D02*
Y400750D01*
X1623500Y350750D02*
Y400750D01*
X1563500Y350750D02*
X1623500D01*
X1563500Y400750D02*
X1623500D01*
X1641000Y405000D02*
X1646500D01*
X1641000Y394500D02*
X1646500D01*
Y405000D01*
X1641000Y394500D02*
Y405000D01*
M02*
