G04*
G04 #@! TF.GenerationSoftware,Altium Limited,Altium Designer,18.0.12 (696)*
G04*
G04 Layer_Color=2752767*
%FSLAX44Y44*%
%MOMM*%
G71*
G01*
G75*
%ADD59C,0.0508*%
%ADD60C,0.0677*%
D59*
X1802968Y923968D02*
Y928032D01*
X1807032D01*
Y923968D01*
X1802968D01*
Y97968D02*
Y102032D01*
X1807032D01*
Y97968D01*
X1802968D01*
X97968D02*
Y102032D01*
X102032D01*
Y97968D01*
X97968D01*
Y923968D02*
Y928032D01*
X102032D01*
Y923968D01*
X97968D01*
X278500Y269218D02*
X276468Y273282D01*
X280532D01*
X278500Y269218D01*
X272000Y223968D02*
X269968Y228032D01*
X274032D01*
X272000Y223968D01*
X330250Y226968D02*
X328218Y231032D01*
X332282D01*
X330250Y226968D01*
X322250Y323968D02*
X320218Y328032D01*
X324282D01*
X322250Y323968D01*
X398500Y226218D02*
X396468Y230282D01*
X400532D01*
X398500Y226218D01*
X428750Y291468D02*
X426718Y295532D01*
X430782D01*
X428750Y291468D01*
X421500Y327468D02*
X419468Y331532D01*
X423532D01*
X421500Y327468D01*
X342500Y418718D02*
X340468Y422782D01*
X344532D01*
X342500Y418718D01*
X439500Y422968D02*
X437468Y427032D01*
X441532D01*
X439500Y422968D01*
X438750Y471218D02*
X436718Y475282D01*
X440782D01*
X438750Y471218D01*
X427250Y611218D02*
X425218Y615282D01*
X429282D01*
X427250Y611218D01*
X430000Y649218D02*
X427968Y653282D01*
X432032D01*
X430000Y649218D01*
X295000Y790968D02*
X292968Y795032D01*
X297032D01*
X295000Y790968D01*
X254000Y792968D02*
X251968Y797032D01*
X256032D01*
X254000Y792968D01*
X428000Y740468D02*
X425968Y744532D01*
X430032D01*
X428000Y740468D01*
X226000Y771468D02*
X223968Y775532D01*
X228032D01*
X226000Y771468D01*
Y739968D02*
X223968Y744032D01*
X228032D01*
X226000Y739968D01*
Y712468D02*
X223968Y716532D01*
X228032D01*
X226000Y712468D01*
Y681718D02*
X223968Y685782D01*
X228032D01*
X226000Y681718D01*
X226750Y654968D02*
X224718Y659032D01*
X228782D01*
X226750Y654968D01*
X324500Y744968D02*
X322468Y749032D01*
X326532D01*
X324500Y744968D01*
X331750Y719718D02*
X329718Y723782D01*
X333782D01*
X331750Y719718D01*
X314500Y722718D02*
X312468Y726782D01*
X316532D01*
X314500Y722718D01*
X396750Y284968D02*
X394718Y289032D01*
X398782D01*
X396750Y284968D01*
X358000Y317218D02*
X355968Y321282D01*
X360032D01*
X358000Y317218D01*
Y233718D02*
X355968Y237782D01*
X360032D01*
X358000Y233718D01*
Y221718D02*
X355968Y225782D01*
X360032D01*
X358000Y221718D01*
X327500Y357218D02*
X328516Y358234D01*
X329532D01*
X328516Y359250D01*
X329532Y360266D01*
X328516D01*
X327500Y361282D01*
X326484Y360266D01*
X325468D01*
X326484Y359250D01*
X325468Y358234D01*
X326484D01*
X327500Y357218D01*
Y368218D02*
X328516Y369234D01*
X329532D01*
X328516Y370250D01*
X329532Y371266D01*
X328516D01*
X327500Y372282D01*
X326484Y371266D01*
X325468D01*
X326484Y370250D01*
X325468Y369234D01*
X326484D01*
X327500Y368218D01*
Y379218D02*
X328516Y380234D01*
X329532D01*
X328516Y381250D01*
X329532Y382266D01*
X328516D01*
X327500Y383282D01*
X326484Y382266D01*
X325468D01*
X326484Y381250D01*
X325468Y380234D01*
X326484D01*
X327500Y379218D01*
Y390218D02*
X328516Y391234D01*
X329532D01*
X328516Y392250D01*
X329532Y393266D01*
X328516D01*
X327500Y394282D01*
X326484Y393266D01*
X325468D01*
X326484Y392250D01*
X325468Y391234D01*
X326484D01*
X327500Y390218D01*
X338500Y357218D02*
X339516Y358234D01*
X340532D01*
X339516Y359250D01*
X340532Y360266D01*
X339516D01*
X338500Y361282D01*
X337484Y360266D01*
X336468D01*
X337484Y359250D01*
X336468Y358234D01*
X337484D01*
X338500Y357218D01*
Y368218D02*
X339516Y369234D01*
X340532D01*
X339516Y370250D01*
X340532Y371266D01*
X339516D01*
X338500Y372282D01*
X337484Y371266D01*
X336468D01*
X337484Y370250D01*
X336468Y369234D01*
X337484D01*
X338500Y368218D01*
Y379218D02*
X339516Y380234D01*
X340532D01*
X339516Y381250D01*
X340532Y382266D01*
X339516D01*
X338500Y383282D01*
X337484Y382266D01*
X336468D01*
X337484Y381250D01*
X336468Y380234D01*
X337484D01*
X338500Y379218D01*
Y390218D02*
X339516Y391234D01*
X340532D01*
X339516Y392250D01*
X340532Y393266D01*
X339516D01*
X338500Y394282D01*
X337484Y393266D01*
X336468D01*
X337484Y392250D01*
X336468Y391234D01*
X337484D01*
X338500Y390218D01*
X349500Y357218D02*
X350516Y358234D01*
X351532D01*
X350516Y359250D01*
X351532Y360266D01*
X350516D01*
X349500Y361282D01*
X348484Y360266D01*
X347468D01*
X348484Y359250D01*
X347468Y358234D01*
X348484D01*
X349500Y357218D01*
Y368218D02*
X350516Y369234D01*
X351532D01*
X350516Y370250D01*
X351532Y371266D01*
X350516D01*
X349500Y372282D01*
X348484Y371266D01*
X347468D01*
X348484Y370250D01*
X347468Y369234D01*
X348484D01*
X349500Y368218D01*
Y379218D02*
X350516Y380234D01*
X351532D01*
X350516Y381250D01*
X351532Y382266D01*
X350516D01*
X349500Y383282D01*
X348484Y382266D01*
X347468D01*
X348484Y381250D01*
X347468Y380234D01*
X348484D01*
X349500Y379218D01*
Y390218D02*
X350516Y391234D01*
X351532D01*
X350516Y392250D01*
X351532Y393266D01*
X350516D01*
X349500Y394282D01*
X348484Y393266D01*
X347468D01*
X348484Y392250D01*
X347468Y391234D01*
X348484D01*
X349500Y390218D01*
X252500Y357968D02*
X250468Y362032D01*
X254532D01*
X252500Y357968D01*
X237500Y495468D02*
X235468Y499532D01*
X239532D01*
X237500Y495468D01*
X412500Y693468D02*
X410468Y697532D01*
X414532D01*
X412500Y693468D01*
Y682718D02*
X410468Y686782D01*
X414532D01*
X412500Y682718D01*
X412750Y671718D02*
X410718Y675782D01*
X414782D01*
X412750Y671718D01*
X413718Y561468D02*
X414734Y563500D01*
X413718Y565532D01*
X415750Y564516D01*
X417782Y565532D01*
X416766Y563500D01*
X417782Y561468D01*
X415750Y562484D01*
X413718Y561468D01*
X426105Y550331D02*
X427121Y552363D01*
X426105Y554395D01*
X428137Y553379D01*
X430169Y554395D01*
X429153Y552363D01*
X430169Y550331D01*
X428137Y551347D01*
X426105Y550331D01*
X414218Y539468D02*
X415234Y541500D01*
X414218Y543532D01*
X416250Y542516D01*
X418282Y543532D01*
X417266Y541500D01*
X418282Y539468D01*
X416250Y540484D01*
X414218Y539468D01*
X293968Y382218D02*
X294984Y384250D01*
X293968Y386282D01*
X296000Y385266D01*
X298032Y386282D01*
X297016Y384250D01*
X298032Y382218D01*
X296000Y383234D01*
X293968Y382218D01*
X400468Y392968D02*
X401484Y395000D01*
X400468Y397032D01*
X402500Y396016D01*
X404532Y397032D01*
X403516Y395000D01*
X404532Y392968D01*
X402500Y393984D01*
X400468Y392968D01*
X426218Y528968D02*
X427234Y531000D01*
X426218Y533032D01*
X428250Y532016D01*
X430282Y533032D01*
X429266Y531000D01*
X430282Y528968D01*
X428250Y529984D01*
X426218Y528968D01*
X427718Y379718D02*
X428734Y381750D01*
X427718Y383782D01*
X429750Y382766D01*
X431782Y383782D01*
X430766Y381750D01*
X431782Y379718D01*
X429750Y380734D01*
X427718Y379718D01*
X402718Y359468D02*
X403734Y361500D01*
X402718Y363532D01*
X404750Y362516D01*
X406782Y363532D01*
X405766Y361500D01*
X406782Y359468D01*
X404750Y360484D01*
X402718Y359468D01*
X297000Y648468D02*
X294968Y652532D01*
X299032D01*
X297000Y648468D01*
X318500Y648218D02*
X316468Y652282D01*
X320532D01*
X318500Y648218D01*
X339500Y648468D02*
X337468Y652532D01*
X341532D01*
X339500Y648468D01*
X360250Y649218D02*
X358218Y653282D01*
X362282D01*
X360250Y649218D01*
X296750Y517468D02*
X294718Y521532D01*
X298782D01*
X296750Y517468D01*
X318250D02*
X316218Y521532D01*
X320282D01*
X318250Y517468D01*
X339000Y517218D02*
X336968Y521282D01*
X341032D01*
X339000Y517218D01*
X360500Y517718D02*
X358468Y521782D01*
X362532D01*
X360500Y517718D01*
X529500Y269218D02*
X527468Y273282D01*
X531532D01*
X529500Y269218D01*
X523000Y223968D02*
X520968Y228032D01*
X525032D01*
X523000Y223968D01*
X581250Y226968D02*
X579218Y231032D01*
X583282D01*
X581250Y226968D01*
X573250Y323968D02*
X571218Y328032D01*
X575282D01*
X573250Y323968D01*
X649500Y226218D02*
X647468Y230282D01*
X651532D01*
X649500Y226218D01*
X679750Y291468D02*
X677718Y295532D01*
X681782D01*
X679750Y291468D01*
X672500Y327468D02*
X670468Y331532D01*
X674532D01*
X672500Y327468D01*
X593500Y418718D02*
X591468Y422782D01*
X595532D01*
X593500Y418718D01*
X690500Y422968D02*
X688468Y427032D01*
X692532D01*
X690500Y422968D01*
X689750Y471218D02*
X687718Y475282D01*
X691782D01*
X689750Y471218D01*
X678250Y611218D02*
X676218Y615282D01*
X680282D01*
X678250Y611218D01*
X681000Y649218D02*
X678968Y653282D01*
X683032D01*
X681000Y649218D01*
X546000Y790968D02*
X543968Y795032D01*
X548032D01*
X546000Y790968D01*
X505000Y792968D02*
X502968Y797032D01*
X507032D01*
X505000Y792968D01*
X679000Y740468D02*
X676968Y744532D01*
X681032D01*
X679000Y740468D01*
X477000Y771468D02*
X474968Y775532D01*
X479032D01*
X477000Y771468D01*
Y739968D02*
X474968Y744032D01*
X479032D01*
X477000Y739968D01*
Y712468D02*
X474968Y716532D01*
X479032D01*
X477000Y712468D01*
Y681718D02*
X474968Y685782D01*
X479032D01*
X477000Y681718D01*
X477750Y654968D02*
X475718Y659032D01*
X479782D01*
X477750Y654968D01*
X575500Y744968D02*
X573468Y749032D01*
X577532D01*
X575500Y744968D01*
X582750Y719718D02*
X580718Y723782D01*
X584782D01*
X582750Y719718D01*
X565500Y722718D02*
X563468Y726782D01*
X567532D01*
X565500Y722718D01*
X647750Y284968D02*
X645718Y289032D01*
X649782D01*
X647750Y284968D01*
X609000Y317218D02*
X606968Y321282D01*
X611032D01*
X609000Y317218D01*
Y233718D02*
X606968Y237782D01*
X611032D01*
X609000Y233718D01*
Y221718D02*
X606968Y225782D01*
X611032D01*
X609000Y221718D01*
X578500Y357218D02*
X579516Y358234D01*
X580532D01*
X579516Y359250D01*
X580532Y360266D01*
X579516D01*
X578500Y361282D01*
X577484Y360266D01*
X576468D01*
X577484Y359250D01*
X576468Y358234D01*
X577484D01*
X578500Y357218D01*
Y368218D02*
X579516Y369234D01*
X580532D01*
X579516Y370250D01*
X580532Y371266D01*
X579516D01*
X578500Y372282D01*
X577484Y371266D01*
X576468D01*
X577484Y370250D01*
X576468Y369234D01*
X577484D01*
X578500Y368218D01*
Y379218D02*
X579516Y380234D01*
X580532D01*
X579516Y381250D01*
X580532Y382266D01*
X579516D01*
X578500Y383282D01*
X577484Y382266D01*
X576468D01*
X577484Y381250D01*
X576468Y380234D01*
X577484D01*
X578500Y379218D01*
Y390218D02*
X579516Y391234D01*
X580532D01*
X579516Y392250D01*
X580532Y393266D01*
X579516D01*
X578500Y394282D01*
X577484Y393266D01*
X576468D01*
X577484Y392250D01*
X576468Y391234D01*
X577484D01*
X578500Y390218D01*
X589500Y357218D02*
X590516Y358234D01*
X591532D01*
X590516Y359250D01*
X591532Y360266D01*
X590516D01*
X589500Y361282D01*
X588484Y360266D01*
X587468D01*
X588484Y359250D01*
X587468Y358234D01*
X588484D01*
X589500Y357218D01*
Y368218D02*
X590516Y369234D01*
X591532D01*
X590516Y370250D01*
X591532Y371266D01*
X590516D01*
X589500Y372282D01*
X588484Y371266D01*
X587468D01*
X588484Y370250D01*
X587468Y369234D01*
X588484D01*
X589500Y368218D01*
Y379218D02*
X590516Y380234D01*
X591532D01*
X590516Y381250D01*
X591532Y382266D01*
X590516D01*
X589500Y383282D01*
X588484Y382266D01*
X587468D01*
X588484Y381250D01*
X587468Y380234D01*
X588484D01*
X589500Y379218D01*
Y390218D02*
X590516Y391234D01*
X591532D01*
X590516Y392250D01*
X591532Y393266D01*
X590516D01*
X589500Y394282D01*
X588484Y393266D01*
X587468D01*
X588484Y392250D01*
X587468Y391234D01*
X588484D01*
X589500Y390218D01*
X600500Y357218D02*
X601516Y358234D01*
X602532D01*
X601516Y359250D01*
X602532Y360266D01*
X601516D01*
X600500Y361282D01*
X599484Y360266D01*
X598468D01*
X599484Y359250D01*
X598468Y358234D01*
X599484D01*
X600500Y357218D01*
Y368218D02*
X601516Y369234D01*
X602532D01*
X601516Y370250D01*
X602532Y371266D01*
X601516D01*
X600500Y372282D01*
X599484Y371266D01*
X598468D01*
X599484Y370250D01*
X598468Y369234D01*
X599484D01*
X600500Y368218D01*
Y379218D02*
X601516Y380234D01*
X602532D01*
X601516Y381250D01*
X602532Y382266D01*
X601516D01*
X600500Y383282D01*
X599484Y382266D01*
X598468D01*
X599484Y381250D01*
X598468Y380234D01*
X599484D01*
X600500Y379218D01*
Y390218D02*
X601516Y391234D01*
X602532D01*
X601516Y392250D01*
X602532Y393266D01*
X601516D01*
X600500Y394282D01*
X599484Y393266D01*
X598468D01*
X599484Y392250D01*
X598468Y391234D01*
X599484D01*
X600500Y390218D01*
X503500Y357968D02*
X501468Y362032D01*
X505532D01*
X503500Y357968D01*
X488500Y495468D02*
X486468Y499532D01*
X490532D01*
X488500Y495468D01*
X663500Y693468D02*
X661468Y697532D01*
X665532D01*
X663500Y693468D01*
Y682718D02*
X661468Y686782D01*
X665532D01*
X663500Y682718D01*
X663750Y671718D02*
X661718Y675782D01*
X665782D01*
X663750Y671718D01*
X664718Y561468D02*
X665734Y563500D01*
X664718Y565532D01*
X666750Y564516D01*
X668782Y565532D01*
X667766Y563500D01*
X668782Y561468D01*
X666750Y562484D01*
X664718Y561468D01*
X677105Y550331D02*
X678121Y552363D01*
X677105Y554395D01*
X679137Y553379D01*
X681169Y554395D01*
X680153Y552363D01*
X681169Y550331D01*
X679137Y551347D01*
X677105Y550331D01*
X665218Y539468D02*
X666234Y541500D01*
X665218Y543532D01*
X667250Y542516D01*
X669282Y543532D01*
X668266Y541500D01*
X669282Y539468D01*
X667250Y540484D01*
X665218Y539468D01*
X544968Y382218D02*
X545984Y384250D01*
X544968Y386282D01*
X547000Y385266D01*
X549032Y386282D01*
X548016Y384250D01*
X549032Y382218D01*
X547000Y383234D01*
X544968Y382218D01*
X651468Y392968D02*
X652484Y395000D01*
X651468Y397032D01*
X653500Y396016D01*
X655532Y397032D01*
X654516Y395000D01*
X655532Y392968D01*
X653500Y393984D01*
X651468Y392968D01*
X677218Y528968D02*
X678234Y531000D01*
X677218Y533032D01*
X679250Y532016D01*
X681282Y533032D01*
X680266Y531000D01*
X681282Y528968D01*
X679250Y529984D01*
X677218Y528968D01*
X678718Y379718D02*
X679734Y381750D01*
X678718Y383782D01*
X680750Y382766D01*
X682782Y383782D01*
X681766Y381750D01*
X682782Y379718D01*
X680750Y380734D01*
X678718Y379718D01*
X653718Y359468D02*
X654734Y361500D01*
X653718Y363532D01*
X655750Y362516D01*
X657782Y363532D01*
X656766Y361500D01*
X657782Y359468D01*
X655750Y360484D01*
X653718Y359468D01*
X548000Y648468D02*
X545968Y652532D01*
X550032D01*
X548000Y648468D01*
X569500Y648218D02*
X567468Y652282D01*
X571532D01*
X569500Y648218D01*
X590500Y648468D02*
X588468Y652532D01*
X592532D01*
X590500Y648468D01*
X611250Y649218D02*
X609218Y653282D01*
X613282D01*
X611250Y649218D01*
X547750Y517468D02*
X545718Y521532D01*
X549782D01*
X547750Y517468D01*
X569250D02*
X567218Y521532D01*
X571282D01*
X569250Y517468D01*
X590000Y517218D02*
X587968Y521282D01*
X592032D01*
X590000Y517218D01*
X611500Y517718D02*
X609468Y521782D01*
X613532D01*
X611500Y517718D01*
X780500Y269218D02*
X778468Y273282D01*
X782532D01*
X780500Y269218D01*
X774000Y223968D02*
X771968Y228032D01*
X776032D01*
X774000Y223968D01*
X832250Y226968D02*
X830218Y231032D01*
X834282D01*
X832250Y226968D01*
X824250Y323968D02*
X822218Y328032D01*
X826282D01*
X824250Y323968D01*
X900500Y226218D02*
X898468Y230282D01*
X902532D01*
X900500Y226218D01*
X930750Y291468D02*
X928718Y295532D01*
X932782D01*
X930750Y291468D01*
X923500Y327468D02*
X921468Y331532D01*
X925532D01*
X923500Y327468D01*
X844500Y418718D02*
X842468Y422782D01*
X846532D01*
X844500Y418718D01*
X941500Y422968D02*
X939468Y427032D01*
X943532D01*
X941500Y422968D01*
X940750Y471218D02*
X938718Y475282D01*
X942782D01*
X940750Y471218D01*
X929250Y611218D02*
X927218Y615282D01*
X931282D01*
X929250Y611218D01*
X932000Y649218D02*
X929968Y653282D01*
X934032D01*
X932000Y649218D01*
X797000Y790968D02*
X794968Y795032D01*
X799032D01*
X797000Y790968D01*
X756000Y792968D02*
X753968Y797032D01*
X758032D01*
X756000Y792968D01*
X930000Y740468D02*
X927968Y744532D01*
X932032D01*
X930000Y740468D01*
X728000Y771468D02*
X725968Y775532D01*
X730032D01*
X728000Y771468D01*
Y739968D02*
X725968Y744032D01*
X730032D01*
X728000Y739968D01*
Y712468D02*
X725968Y716532D01*
X730032D01*
X728000Y712468D01*
Y681718D02*
X725968Y685782D01*
X730032D01*
X728000Y681718D01*
X728750Y654968D02*
X726718Y659032D01*
X730782D01*
X728750Y654968D01*
X826500Y744968D02*
X824468Y749032D01*
X828532D01*
X826500Y744968D01*
X833750Y719718D02*
X831718Y723782D01*
X835782D01*
X833750Y719718D01*
X816500Y722718D02*
X814468Y726782D01*
X818532D01*
X816500Y722718D01*
X898750Y284968D02*
X896718Y289032D01*
X900782D01*
X898750Y284968D01*
X860000Y317218D02*
X857968Y321282D01*
X862032D01*
X860000Y317218D01*
Y233718D02*
X857968Y237782D01*
X862032D01*
X860000Y233718D01*
Y221718D02*
X857968Y225782D01*
X862032D01*
X860000Y221718D01*
X829500Y357218D02*
X830516Y358234D01*
X831532D01*
X830516Y359250D01*
X831532Y360266D01*
X830516D01*
X829500Y361282D01*
X828484Y360266D01*
X827468D01*
X828484Y359250D01*
X827468Y358234D01*
X828484D01*
X829500Y357218D01*
Y368218D02*
X830516Y369234D01*
X831532D01*
X830516Y370250D01*
X831532Y371266D01*
X830516D01*
X829500Y372282D01*
X828484Y371266D01*
X827468D01*
X828484Y370250D01*
X827468Y369234D01*
X828484D01*
X829500Y368218D01*
Y379218D02*
X830516Y380234D01*
X831532D01*
X830516Y381250D01*
X831532Y382266D01*
X830516D01*
X829500Y383282D01*
X828484Y382266D01*
X827468D01*
X828484Y381250D01*
X827468Y380234D01*
X828484D01*
X829500Y379218D01*
Y390218D02*
X830516Y391234D01*
X831532D01*
X830516Y392250D01*
X831532Y393266D01*
X830516D01*
X829500Y394282D01*
X828484Y393266D01*
X827468D01*
X828484Y392250D01*
X827468Y391234D01*
X828484D01*
X829500Y390218D01*
X840500Y357218D02*
X841516Y358234D01*
X842532D01*
X841516Y359250D01*
X842532Y360266D01*
X841516D01*
X840500Y361282D01*
X839484Y360266D01*
X838468D01*
X839484Y359250D01*
X838468Y358234D01*
X839484D01*
X840500Y357218D01*
Y368218D02*
X841516Y369234D01*
X842532D01*
X841516Y370250D01*
X842532Y371266D01*
X841516D01*
X840500Y372282D01*
X839484Y371266D01*
X838468D01*
X839484Y370250D01*
X838468Y369234D01*
X839484D01*
X840500Y368218D01*
Y379218D02*
X841516Y380234D01*
X842532D01*
X841516Y381250D01*
X842532Y382266D01*
X841516D01*
X840500Y383282D01*
X839484Y382266D01*
X838468D01*
X839484Y381250D01*
X838468Y380234D01*
X839484D01*
X840500Y379218D01*
Y390218D02*
X841516Y391234D01*
X842532D01*
X841516Y392250D01*
X842532Y393266D01*
X841516D01*
X840500Y394282D01*
X839484Y393266D01*
X838468D01*
X839484Y392250D01*
X838468Y391234D01*
X839484D01*
X840500Y390218D01*
X851500Y357218D02*
X852516Y358234D01*
X853532D01*
X852516Y359250D01*
X853532Y360266D01*
X852516D01*
X851500Y361282D01*
X850484Y360266D01*
X849468D01*
X850484Y359250D01*
X849468Y358234D01*
X850484D01*
X851500Y357218D01*
Y368218D02*
X852516Y369234D01*
X853532D01*
X852516Y370250D01*
X853532Y371266D01*
X852516D01*
X851500Y372282D01*
X850484Y371266D01*
X849468D01*
X850484Y370250D01*
X849468Y369234D01*
X850484D01*
X851500Y368218D01*
Y379218D02*
X852516Y380234D01*
X853532D01*
X852516Y381250D01*
X853532Y382266D01*
X852516D01*
X851500Y383282D01*
X850484Y382266D01*
X849468D01*
X850484Y381250D01*
X849468Y380234D01*
X850484D01*
X851500Y379218D01*
Y390218D02*
X852516Y391234D01*
X853532D01*
X852516Y392250D01*
X853532Y393266D01*
X852516D01*
X851500Y394282D01*
X850484Y393266D01*
X849468D01*
X850484Y392250D01*
X849468Y391234D01*
X850484D01*
X851500Y390218D01*
X754500Y357968D02*
X752468Y362032D01*
X756532D01*
X754500Y357968D01*
X739500Y495468D02*
X737468Y499532D01*
X741532D01*
X739500Y495468D01*
X914500Y693468D02*
X912468Y697532D01*
X916532D01*
X914500Y693468D01*
Y682718D02*
X912468Y686782D01*
X916532D01*
X914500Y682718D01*
X914750Y671718D02*
X912718Y675782D01*
X916782D01*
X914750Y671718D01*
X915718Y561468D02*
X916734Y563500D01*
X915718Y565532D01*
X917750Y564516D01*
X919782Y565532D01*
X918766Y563500D01*
X919782Y561468D01*
X917750Y562484D01*
X915718Y561468D01*
X928105Y550331D02*
X929121Y552363D01*
X928105Y554395D01*
X930137Y553379D01*
X932169Y554395D01*
X931153Y552363D01*
X932169Y550331D01*
X930137Y551347D01*
X928105Y550331D01*
X916218Y539468D02*
X917234Y541500D01*
X916218Y543532D01*
X918250Y542516D01*
X920282Y543532D01*
X919266Y541500D01*
X920282Y539468D01*
X918250Y540484D01*
X916218Y539468D01*
X795968Y382218D02*
X796984Y384250D01*
X795968Y386282D01*
X798000Y385266D01*
X800032Y386282D01*
X799016Y384250D01*
X800032Y382218D01*
X798000Y383234D01*
X795968Y382218D01*
X902468Y392968D02*
X903484Y395000D01*
X902468Y397032D01*
X904500Y396016D01*
X906532Y397032D01*
X905516Y395000D01*
X906532Y392968D01*
X904500Y393984D01*
X902468Y392968D01*
X928218Y528968D02*
X929234Y531000D01*
X928218Y533032D01*
X930250Y532016D01*
X932282Y533032D01*
X931266Y531000D01*
X932282Y528968D01*
X930250Y529984D01*
X928218Y528968D01*
X929718Y379718D02*
X930734Y381750D01*
X929718Y383782D01*
X931750Y382766D01*
X933782Y383782D01*
X932766Y381750D01*
X933782Y379718D01*
X931750Y380734D01*
X929718Y379718D01*
X904718Y359468D02*
X905734Y361500D01*
X904718Y363532D01*
X906750Y362516D01*
X908782Y363532D01*
X907766Y361500D01*
X908782Y359468D01*
X906750Y360484D01*
X904718Y359468D01*
X799000Y648468D02*
X796968Y652532D01*
X801032D01*
X799000Y648468D01*
X820500Y648218D02*
X818468Y652282D01*
X822532D01*
X820500Y648218D01*
X841500Y648468D02*
X839468Y652532D01*
X843532D01*
X841500Y648468D01*
X862250Y649218D02*
X860218Y653282D01*
X864282D01*
X862250Y649218D01*
X798750Y517468D02*
X796718Y521532D01*
X800782D01*
X798750Y517468D01*
X820250D02*
X818218Y521532D01*
X822282D01*
X820250Y517468D01*
X841000Y517218D02*
X838968Y521282D01*
X843032D01*
X841000Y517218D01*
X862500Y517718D02*
X860468Y521782D01*
X864532D01*
X862500Y517718D01*
X1031500Y269218D02*
X1029468Y273282D01*
X1033532D01*
X1031500Y269218D01*
X1025000Y223968D02*
X1022968Y228032D01*
X1027032D01*
X1025000Y223968D01*
X1083250Y226968D02*
X1081218Y231032D01*
X1085282D01*
X1083250Y226968D01*
X1075250Y323968D02*
X1073218Y328032D01*
X1077282D01*
X1075250Y323968D01*
X1151500Y226218D02*
X1149468Y230282D01*
X1153532D01*
X1151500Y226218D01*
X1181750Y291468D02*
X1179718Y295532D01*
X1183782D01*
X1181750Y291468D01*
X1174500Y327468D02*
X1172468Y331532D01*
X1176532D01*
X1174500Y327468D01*
X1095500Y418718D02*
X1093468Y422782D01*
X1097532D01*
X1095500Y418718D01*
X1192500Y422968D02*
X1190468Y427032D01*
X1194532D01*
X1192500Y422968D01*
X1191750Y471218D02*
X1189718Y475282D01*
X1193782D01*
X1191750Y471218D01*
X1180250Y611218D02*
X1178218Y615282D01*
X1182282D01*
X1180250Y611218D01*
X1183000Y649218D02*
X1180968Y653282D01*
X1185032D01*
X1183000Y649218D01*
X1048000Y790968D02*
X1045968Y795032D01*
X1050032D01*
X1048000Y790968D01*
X1007000Y792968D02*
X1004968Y797032D01*
X1009032D01*
X1007000Y792968D01*
X1181000Y740468D02*
X1178968Y744532D01*
X1183032D01*
X1181000Y740468D01*
X979000Y771468D02*
X976968Y775532D01*
X981032D01*
X979000Y771468D01*
Y739968D02*
X976968Y744032D01*
X981032D01*
X979000Y739968D01*
Y712468D02*
X976968Y716532D01*
X981032D01*
X979000Y712468D01*
Y681718D02*
X976968Y685782D01*
X981032D01*
X979000Y681718D01*
X979750Y654968D02*
X977718Y659032D01*
X981782D01*
X979750Y654968D01*
X1077500Y744968D02*
X1075468Y749032D01*
X1079532D01*
X1077500Y744968D01*
X1084750Y719718D02*
X1082718Y723782D01*
X1086782D01*
X1084750Y719718D01*
X1067500Y722718D02*
X1065468Y726782D01*
X1069532D01*
X1067500Y722718D01*
X1149750Y284968D02*
X1147718Y289032D01*
X1151782D01*
X1149750Y284968D01*
X1111000Y317218D02*
X1108968Y321282D01*
X1113032D01*
X1111000Y317218D01*
Y233718D02*
X1108968Y237782D01*
X1113032D01*
X1111000Y233718D01*
Y221718D02*
X1108968Y225782D01*
X1113032D01*
X1111000Y221718D01*
X1080500Y357218D02*
X1081516Y358234D01*
X1082532D01*
X1081516Y359250D01*
X1082532Y360266D01*
X1081516D01*
X1080500Y361282D01*
X1079484Y360266D01*
X1078468D01*
X1079484Y359250D01*
X1078468Y358234D01*
X1079484D01*
X1080500Y357218D01*
Y368218D02*
X1081516Y369234D01*
X1082532D01*
X1081516Y370250D01*
X1082532Y371266D01*
X1081516D01*
X1080500Y372282D01*
X1079484Y371266D01*
X1078468D01*
X1079484Y370250D01*
X1078468Y369234D01*
X1079484D01*
X1080500Y368218D01*
Y379218D02*
X1081516Y380234D01*
X1082532D01*
X1081516Y381250D01*
X1082532Y382266D01*
X1081516D01*
X1080500Y383282D01*
X1079484Y382266D01*
X1078468D01*
X1079484Y381250D01*
X1078468Y380234D01*
X1079484D01*
X1080500Y379218D01*
Y390218D02*
X1081516Y391234D01*
X1082532D01*
X1081516Y392250D01*
X1082532Y393266D01*
X1081516D01*
X1080500Y394282D01*
X1079484Y393266D01*
X1078468D01*
X1079484Y392250D01*
X1078468Y391234D01*
X1079484D01*
X1080500Y390218D01*
X1091500Y357218D02*
X1092516Y358234D01*
X1093532D01*
X1092516Y359250D01*
X1093532Y360266D01*
X1092516D01*
X1091500Y361282D01*
X1090484Y360266D01*
X1089468D01*
X1090484Y359250D01*
X1089468Y358234D01*
X1090484D01*
X1091500Y357218D01*
Y368218D02*
X1092516Y369234D01*
X1093532D01*
X1092516Y370250D01*
X1093532Y371266D01*
X1092516D01*
X1091500Y372282D01*
X1090484Y371266D01*
X1089468D01*
X1090484Y370250D01*
X1089468Y369234D01*
X1090484D01*
X1091500Y368218D01*
Y379218D02*
X1092516Y380234D01*
X1093532D01*
X1092516Y381250D01*
X1093532Y382266D01*
X1092516D01*
X1091500Y383282D01*
X1090484Y382266D01*
X1089468D01*
X1090484Y381250D01*
X1089468Y380234D01*
X1090484D01*
X1091500Y379218D01*
Y390218D02*
X1092516Y391234D01*
X1093532D01*
X1092516Y392250D01*
X1093532Y393266D01*
X1092516D01*
X1091500Y394282D01*
X1090484Y393266D01*
X1089468D01*
X1090484Y392250D01*
X1089468Y391234D01*
X1090484D01*
X1091500Y390218D01*
X1102500Y357218D02*
X1103516Y358234D01*
X1104532D01*
X1103516Y359250D01*
X1104532Y360266D01*
X1103516D01*
X1102500Y361282D01*
X1101484Y360266D01*
X1100468D01*
X1101484Y359250D01*
X1100468Y358234D01*
X1101484D01*
X1102500Y357218D01*
Y368218D02*
X1103516Y369234D01*
X1104532D01*
X1103516Y370250D01*
X1104532Y371266D01*
X1103516D01*
X1102500Y372282D01*
X1101484Y371266D01*
X1100468D01*
X1101484Y370250D01*
X1100468Y369234D01*
X1101484D01*
X1102500Y368218D01*
Y379218D02*
X1103516Y380234D01*
X1104532D01*
X1103516Y381250D01*
X1104532Y382266D01*
X1103516D01*
X1102500Y383282D01*
X1101484Y382266D01*
X1100468D01*
X1101484Y381250D01*
X1100468Y380234D01*
X1101484D01*
X1102500Y379218D01*
Y390218D02*
X1103516Y391234D01*
X1104532D01*
X1103516Y392250D01*
X1104532Y393266D01*
X1103516D01*
X1102500Y394282D01*
X1101484Y393266D01*
X1100468D01*
X1101484Y392250D01*
X1100468Y391234D01*
X1101484D01*
X1102500Y390218D01*
X1005500Y357968D02*
X1003468Y362032D01*
X1007532D01*
X1005500Y357968D01*
X990500Y495468D02*
X988468Y499532D01*
X992532D01*
X990500Y495468D01*
X1165500Y693468D02*
X1163468Y697532D01*
X1167532D01*
X1165500Y693468D01*
Y682718D02*
X1163468Y686782D01*
X1167532D01*
X1165500Y682718D01*
X1165750Y671718D02*
X1163718Y675782D01*
X1167782D01*
X1165750Y671718D01*
X1166718Y561468D02*
X1167734Y563500D01*
X1166718Y565532D01*
X1168750Y564516D01*
X1170782Y565532D01*
X1169766Y563500D01*
X1170782Y561468D01*
X1168750Y562484D01*
X1166718Y561468D01*
X1179105Y550331D02*
X1180121Y552363D01*
X1179105Y554395D01*
X1181137Y553379D01*
X1183169Y554395D01*
X1182153Y552363D01*
X1183169Y550331D01*
X1181137Y551347D01*
X1179105Y550331D01*
X1167218Y539468D02*
X1168234Y541500D01*
X1167218Y543532D01*
X1169250Y542516D01*
X1171282Y543532D01*
X1170266Y541500D01*
X1171282Y539468D01*
X1169250Y540484D01*
X1167218Y539468D01*
X1046968Y382218D02*
X1047984Y384250D01*
X1046968Y386282D01*
X1049000Y385266D01*
X1051032Y386282D01*
X1050016Y384250D01*
X1051032Y382218D01*
X1049000Y383234D01*
X1046968Y382218D01*
X1153468Y392968D02*
X1154484Y395000D01*
X1153468Y397032D01*
X1155500Y396016D01*
X1157532Y397032D01*
X1156516Y395000D01*
X1157532Y392968D01*
X1155500Y393984D01*
X1153468Y392968D01*
X1179218Y528968D02*
X1180234Y531000D01*
X1179218Y533032D01*
X1181250Y532016D01*
X1183282Y533032D01*
X1182266Y531000D01*
X1183282Y528968D01*
X1181250Y529984D01*
X1179218Y528968D01*
X1180718Y379718D02*
X1181734Y381750D01*
X1180718Y383782D01*
X1182750Y382766D01*
X1184782Y383782D01*
X1183766Y381750D01*
X1184782Y379718D01*
X1182750Y380734D01*
X1180718Y379718D01*
X1155718Y359468D02*
X1156734Y361500D01*
X1155718Y363532D01*
X1157750Y362516D01*
X1159782Y363532D01*
X1158766Y361500D01*
X1159782Y359468D01*
X1157750Y360484D01*
X1155718Y359468D01*
X1050000Y648468D02*
X1047968Y652532D01*
X1052032D01*
X1050000Y648468D01*
X1071500Y648218D02*
X1069468Y652282D01*
X1073532D01*
X1071500Y648218D01*
X1092500Y648468D02*
X1090468Y652532D01*
X1094532D01*
X1092500Y648468D01*
X1113250Y649218D02*
X1111218Y653282D01*
X1115282D01*
X1113250Y649218D01*
X1049750Y517468D02*
X1047718Y521532D01*
X1051782D01*
X1049750Y517468D01*
X1071250D02*
X1069218Y521532D01*
X1073282D01*
X1071250Y517468D01*
X1092000Y517218D02*
X1089968Y521282D01*
X1094032D01*
X1092000Y517218D01*
X1113500Y517718D02*
X1111468Y521782D01*
X1115532D01*
X1113500Y517718D01*
X1282500Y269218D02*
X1280468Y273282D01*
X1284532D01*
X1282500Y269218D01*
X1276000Y223968D02*
X1273968Y228032D01*
X1278032D01*
X1276000Y223968D01*
X1334250Y226968D02*
X1332218Y231032D01*
X1336282D01*
X1334250Y226968D01*
X1326250Y323968D02*
X1324218Y328032D01*
X1328282D01*
X1326250Y323968D01*
X1402500Y226218D02*
X1400468Y230282D01*
X1404532D01*
X1402500Y226218D01*
X1432750Y291468D02*
X1430718Y295532D01*
X1434782D01*
X1432750Y291468D01*
X1425500Y327468D02*
X1423468Y331532D01*
X1427532D01*
X1425500Y327468D01*
X1346500Y418718D02*
X1344468Y422782D01*
X1348532D01*
X1346500Y418718D01*
X1443500Y422968D02*
X1441468Y427032D01*
X1445532D01*
X1443500Y422968D01*
X1442750Y471218D02*
X1440718Y475282D01*
X1444782D01*
X1442750Y471218D01*
X1431250Y611218D02*
X1429218Y615282D01*
X1433282D01*
X1431250Y611218D01*
X1434000Y649218D02*
X1431968Y653282D01*
X1436032D01*
X1434000Y649218D01*
X1299000Y790968D02*
X1296968Y795032D01*
X1301032D01*
X1299000Y790968D01*
X1258000Y792968D02*
X1255968Y797032D01*
X1260032D01*
X1258000Y792968D01*
X1432000Y740468D02*
X1429968Y744532D01*
X1434032D01*
X1432000Y740468D01*
X1230000Y771468D02*
X1227968Y775532D01*
X1232032D01*
X1230000Y771468D01*
Y739968D02*
X1227968Y744032D01*
X1232032D01*
X1230000Y739968D01*
Y712468D02*
X1227968Y716532D01*
X1232032D01*
X1230000Y712468D01*
Y681718D02*
X1227968Y685782D01*
X1232032D01*
X1230000Y681718D01*
X1230750Y654968D02*
X1228718Y659032D01*
X1232782D01*
X1230750Y654968D01*
X1328500Y744968D02*
X1326468Y749032D01*
X1330532D01*
X1328500Y744968D01*
X1335750Y719718D02*
X1333718Y723782D01*
X1337782D01*
X1335750Y719718D01*
X1318500Y722718D02*
X1316468Y726782D01*
X1320532D01*
X1318500Y722718D01*
X1400750Y284968D02*
X1398718Y289032D01*
X1402782D01*
X1400750Y284968D01*
X1362000Y317218D02*
X1359968Y321282D01*
X1364032D01*
X1362000Y317218D01*
Y233718D02*
X1359968Y237782D01*
X1364032D01*
X1362000Y233718D01*
Y221718D02*
X1359968Y225782D01*
X1364032D01*
X1362000Y221718D01*
X1331500Y357218D02*
X1332516Y358234D01*
X1333532D01*
X1332516Y359250D01*
X1333532Y360266D01*
X1332516D01*
X1331500Y361282D01*
X1330484Y360266D01*
X1329468D01*
X1330484Y359250D01*
X1329468Y358234D01*
X1330484D01*
X1331500Y357218D01*
Y368218D02*
X1332516Y369234D01*
X1333532D01*
X1332516Y370250D01*
X1333532Y371266D01*
X1332516D01*
X1331500Y372282D01*
X1330484Y371266D01*
X1329468D01*
X1330484Y370250D01*
X1329468Y369234D01*
X1330484D01*
X1331500Y368218D01*
Y379218D02*
X1332516Y380234D01*
X1333532D01*
X1332516Y381250D01*
X1333532Y382266D01*
X1332516D01*
X1331500Y383282D01*
X1330484Y382266D01*
X1329468D01*
X1330484Y381250D01*
X1329468Y380234D01*
X1330484D01*
X1331500Y379218D01*
Y390218D02*
X1332516Y391234D01*
X1333532D01*
X1332516Y392250D01*
X1333532Y393266D01*
X1332516D01*
X1331500Y394282D01*
X1330484Y393266D01*
X1329468D01*
X1330484Y392250D01*
X1329468Y391234D01*
X1330484D01*
X1331500Y390218D01*
X1342500Y357218D02*
X1343516Y358234D01*
X1344532D01*
X1343516Y359250D01*
X1344532Y360266D01*
X1343516D01*
X1342500Y361282D01*
X1341484Y360266D01*
X1340468D01*
X1341484Y359250D01*
X1340468Y358234D01*
X1341484D01*
X1342500Y357218D01*
Y368218D02*
X1343516Y369234D01*
X1344532D01*
X1343516Y370250D01*
X1344532Y371266D01*
X1343516D01*
X1342500Y372282D01*
X1341484Y371266D01*
X1340468D01*
X1341484Y370250D01*
X1340468Y369234D01*
X1341484D01*
X1342500Y368218D01*
Y379218D02*
X1343516Y380234D01*
X1344532D01*
X1343516Y381250D01*
X1344532Y382266D01*
X1343516D01*
X1342500Y383282D01*
X1341484Y382266D01*
X1340468D01*
X1341484Y381250D01*
X1340468Y380234D01*
X1341484D01*
X1342500Y379218D01*
Y390218D02*
X1343516Y391234D01*
X1344532D01*
X1343516Y392250D01*
X1344532Y393266D01*
X1343516D01*
X1342500Y394282D01*
X1341484Y393266D01*
X1340468D01*
X1341484Y392250D01*
X1340468Y391234D01*
X1341484D01*
X1342500Y390218D01*
X1353500Y357218D02*
X1354516Y358234D01*
X1355532D01*
X1354516Y359250D01*
X1355532Y360266D01*
X1354516D01*
X1353500Y361282D01*
X1352484Y360266D01*
X1351468D01*
X1352484Y359250D01*
X1351468Y358234D01*
X1352484D01*
X1353500Y357218D01*
Y368218D02*
X1354516Y369234D01*
X1355532D01*
X1354516Y370250D01*
X1355532Y371266D01*
X1354516D01*
X1353500Y372282D01*
X1352484Y371266D01*
X1351468D01*
X1352484Y370250D01*
X1351468Y369234D01*
X1352484D01*
X1353500Y368218D01*
Y379218D02*
X1354516Y380234D01*
X1355532D01*
X1354516Y381250D01*
X1355532Y382266D01*
X1354516D01*
X1353500Y383282D01*
X1352484Y382266D01*
X1351468D01*
X1352484Y381250D01*
X1351468Y380234D01*
X1352484D01*
X1353500Y379218D01*
Y390218D02*
X1354516Y391234D01*
X1355532D01*
X1354516Y392250D01*
X1355532Y393266D01*
X1354516D01*
X1353500Y394282D01*
X1352484Y393266D01*
X1351468D01*
X1352484Y392250D01*
X1351468Y391234D01*
X1352484D01*
X1353500Y390218D01*
X1256500Y357968D02*
X1254468Y362032D01*
X1258532D01*
X1256500Y357968D01*
X1241500Y495468D02*
X1239468Y499532D01*
X1243532D01*
X1241500Y495468D01*
X1416500Y693468D02*
X1414468Y697532D01*
X1418532D01*
X1416500Y693468D01*
Y682718D02*
X1414468Y686782D01*
X1418532D01*
X1416500Y682718D01*
X1416750Y671718D02*
X1414718Y675782D01*
X1418782D01*
X1416750Y671718D01*
X1417718Y561468D02*
X1418734Y563500D01*
X1417718Y565532D01*
X1419750Y564516D01*
X1421782Y565532D01*
X1420766Y563500D01*
X1421782Y561468D01*
X1419750Y562484D01*
X1417718Y561468D01*
X1430105Y550331D02*
X1431121Y552363D01*
X1430105Y554395D01*
X1432137Y553379D01*
X1434169Y554395D01*
X1433153Y552363D01*
X1434169Y550331D01*
X1432137Y551347D01*
X1430105Y550331D01*
X1418218Y539468D02*
X1419234Y541500D01*
X1418218Y543532D01*
X1420250Y542516D01*
X1422282Y543532D01*
X1421266Y541500D01*
X1422282Y539468D01*
X1420250Y540484D01*
X1418218Y539468D01*
X1297968Y382218D02*
X1298984Y384250D01*
X1297968Y386282D01*
X1300000Y385266D01*
X1302032Y386282D01*
X1301016Y384250D01*
X1302032Y382218D01*
X1300000Y383234D01*
X1297968Y382218D01*
X1404468Y392968D02*
X1405484Y395000D01*
X1404468Y397032D01*
X1406500Y396016D01*
X1408532Y397032D01*
X1407516Y395000D01*
X1408532Y392968D01*
X1406500Y393984D01*
X1404468Y392968D01*
X1430218Y528968D02*
X1431234Y531000D01*
X1430218Y533032D01*
X1432250Y532016D01*
X1434282Y533032D01*
X1433266Y531000D01*
X1434282Y528968D01*
X1432250Y529984D01*
X1430218Y528968D01*
X1431718Y379718D02*
X1432734Y381750D01*
X1431718Y383782D01*
X1433750Y382766D01*
X1435782Y383782D01*
X1434766Y381750D01*
X1435782Y379718D01*
X1433750Y380734D01*
X1431718Y379718D01*
X1406718Y359468D02*
X1407734Y361500D01*
X1406718Y363532D01*
X1408750Y362516D01*
X1410782Y363532D01*
X1409766Y361500D01*
X1410782Y359468D01*
X1408750Y360484D01*
X1406718Y359468D01*
X1301000Y648468D02*
X1298968Y652532D01*
X1303032D01*
X1301000Y648468D01*
X1322500Y648218D02*
X1320468Y652282D01*
X1324532D01*
X1322500Y648218D01*
X1343500Y648468D02*
X1341468Y652532D01*
X1345532D01*
X1343500Y648468D01*
X1364250Y649218D02*
X1362218Y653282D01*
X1366282D01*
X1364250Y649218D01*
X1300750Y517468D02*
X1298718Y521532D01*
X1302782D01*
X1300750Y517468D01*
X1322250D02*
X1320218Y521532D01*
X1324282D01*
X1322250Y517468D01*
X1343000Y517218D02*
X1340968Y521282D01*
X1345032D01*
X1343000Y517218D01*
X1364500Y517718D02*
X1362468Y521782D01*
X1366532D01*
X1364500Y517718D01*
X1533500Y269218D02*
X1531468Y273282D01*
X1535532D01*
X1533500Y269218D01*
X1527000Y223968D02*
X1524968Y228032D01*
X1529032D01*
X1527000Y223968D01*
X1585250Y226968D02*
X1583218Y231032D01*
X1587282D01*
X1585250Y226968D01*
X1577250Y323968D02*
X1575218Y328032D01*
X1579282D01*
X1577250Y323968D01*
X1653500Y226218D02*
X1651468Y230282D01*
X1655532D01*
X1653500Y226218D01*
X1683750Y291468D02*
X1681718Y295532D01*
X1685782D01*
X1683750Y291468D01*
X1676500Y327468D02*
X1674468Y331532D01*
X1678532D01*
X1676500Y327468D01*
X1597500Y418718D02*
X1595468Y422782D01*
X1599532D01*
X1597500Y418718D01*
X1694500Y422968D02*
X1692468Y427032D01*
X1696532D01*
X1694500Y422968D01*
X1693750Y471218D02*
X1691718Y475282D01*
X1695782D01*
X1693750Y471218D01*
X1682250Y611218D02*
X1680218Y615282D01*
X1684282D01*
X1682250Y611218D01*
X1685000Y649218D02*
X1682968Y653282D01*
X1687032D01*
X1685000Y649218D01*
X1550000Y790968D02*
X1547968Y795032D01*
X1552032D01*
X1550000Y790968D01*
X1509000Y792968D02*
X1506968Y797032D01*
X1511032D01*
X1509000Y792968D01*
X1683000Y740468D02*
X1680968Y744532D01*
X1685032D01*
X1683000Y740468D01*
X1481000Y771468D02*
X1478968Y775532D01*
X1483032D01*
X1481000Y771468D01*
Y739968D02*
X1478968Y744032D01*
X1483032D01*
X1481000Y739968D01*
Y712468D02*
X1478968Y716532D01*
X1483032D01*
X1481000Y712468D01*
Y681718D02*
X1478968Y685782D01*
X1483032D01*
X1481000Y681718D01*
X1481750Y654968D02*
X1479718Y659032D01*
X1483782D01*
X1481750Y654968D01*
X1579500Y744968D02*
X1577468Y749032D01*
X1581532D01*
X1579500Y744968D01*
X1586750Y719718D02*
X1584718Y723782D01*
X1588782D01*
X1586750Y719718D01*
X1569500Y722718D02*
X1567468Y726782D01*
X1571532D01*
X1569500Y722718D01*
X1651750Y284968D02*
X1649718Y289032D01*
X1653782D01*
X1651750Y284968D01*
X1613000Y317218D02*
X1610968Y321282D01*
X1615032D01*
X1613000Y317218D01*
Y233718D02*
X1610968Y237782D01*
X1615032D01*
X1613000Y233718D01*
Y221718D02*
X1610968Y225782D01*
X1615032D01*
X1613000Y221718D01*
X1582500Y357218D02*
X1583516Y358234D01*
X1584532D01*
X1583516Y359250D01*
X1584532Y360266D01*
X1583516D01*
X1582500Y361282D01*
X1581484Y360266D01*
X1580468D01*
X1581484Y359250D01*
X1580468Y358234D01*
X1581484D01*
X1582500Y357218D01*
Y368218D02*
X1583516Y369234D01*
X1584532D01*
X1583516Y370250D01*
X1584532Y371266D01*
X1583516D01*
X1582500Y372282D01*
X1581484Y371266D01*
X1580468D01*
X1581484Y370250D01*
X1580468Y369234D01*
X1581484D01*
X1582500Y368218D01*
Y379218D02*
X1583516Y380234D01*
X1584532D01*
X1583516Y381250D01*
X1584532Y382266D01*
X1583516D01*
X1582500Y383282D01*
X1581484Y382266D01*
X1580468D01*
X1581484Y381250D01*
X1580468Y380234D01*
X1581484D01*
X1582500Y379218D01*
Y390218D02*
X1583516Y391234D01*
X1584532D01*
X1583516Y392250D01*
X1584532Y393266D01*
X1583516D01*
X1582500Y394282D01*
X1581484Y393266D01*
X1580468D01*
X1581484Y392250D01*
X1580468Y391234D01*
X1581484D01*
X1582500Y390218D01*
X1593500Y357218D02*
X1594516Y358234D01*
X1595532D01*
X1594516Y359250D01*
X1595532Y360266D01*
X1594516D01*
X1593500Y361282D01*
X1592484Y360266D01*
X1591468D01*
X1592484Y359250D01*
X1591468Y358234D01*
X1592484D01*
X1593500Y357218D01*
Y368218D02*
X1594516Y369234D01*
X1595532D01*
X1594516Y370250D01*
X1595532Y371266D01*
X1594516D01*
X1593500Y372282D01*
X1592484Y371266D01*
X1591468D01*
X1592484Y370250D01*
X1591468Y369234D01*
X1592484D01*
X1593500Y368218D01*
Y379218D02*
X1594516Y380234D01*
X1595532D01*
X1594516Y381250D01*
X1595532Y382266D01*
X1594516D01*
X1593500Y383282D01*
X1592484Y382266D01*
X1591468D01*
X1592484Y381250D01*
X1591468Y380234D01*
X1592484D01*
X1593500Y379218D01*
Y390218D02*
X1594516Y391234D01*
X1595532D01*
X1594516Y392250D01*
X1595532Y393266D01*
X1594516D01*
X1593500Y394282D01*
X1592484Y393266D01*
X1591468D01*
X1592484Y392250D01*
X1591468Y391234D01*
X1592484D01*
X1593500Y390218D01*
X1604500Y357218D02*
X1605516Y358234D01*
X1606532D01*
X1605516Y359250D01*
X1606532Y360266D01*
X1605516D01*
X1604500Y361282D01*
X1603484Y360266D01*
X1602468D01*
X1603484Y359250D01*
X1602468Y358234D01*
X1603484D01*
X1604500Y357218D01*
Y368218D02*
X1605516Y369234D01*
X1606532D01*
X1605516Y370250D01*
X1606532Y371266D01*
X1605516D01*
X1604500Y372282D01*
X1603484Y371266D01*
X1602468D01*
X1603484Y370250D01*
X1602468Y369234D01*
X1603484D01*
X1604500Y368218D01*
Y379218D02*
X1605516Y380234D01*
X1606532D01*
X1605516Y381250D01*
X1606532Y382266D01*
X1605516D01*
X1604500Y383282D01*
X1603484Y382266D01*
X1602468D01*
X1603484Y381250D01*
X1602468Y380234D01*
X1603484D01*
X1604500Y379218D01*
Y390218D02*
X1605516Y391234D01*
X1606532D01*
X1605516Y392250D01*
X1606532Y393266D01*
X1605516D01*
X1604500Y394282D01*
X1603484Y393266D01*
X1602468D01*
X1603484Y392250D01*
X1602468Y391234D01*
X1603484D01*
X1604500Y390218D01*
X1507500Y357968D02*
X1505468Y362032D01*
X1509532D01*
X1507500Y357968D01*
X1492500Y495468D02*
X1490468Y499532D01*
X1494532D01*
X1492500Y495468D01*
X1667500Y693468D02*
X1665468Y697532D01*
X1669532D01*
X1667500Y693468D01*
Y682718D02*
X1665468Y686782D01*
X1669532D01*
X1667500Y682718D01*
X1667750Y671718D02*
X1665718Y675782D01*
X1669782D01*
X1667750Y671718D01*
X1668718Y561468D02*
X1669734Y563500D01*
X1668718Y565532D01*
X1670750Y564516D01*
X1672782Y565532D01*
X1671766Y563500D01*
X1672782Y561468D01*
X1670750Y562484D01*
X1668718Y561468D01*
X1681105Y550331D02*
X1682121Y552363D01*
X1681105Y554395D01*
X1683137Y553379D01*
X1685169Y554395D01*
X1684153Y552363D01*
X1685169Y550331D01*
X1683137Y551347D01*
X1681105Y550331D01*
X1669218Y539468D02*
X1670234Y541500D01*
X1669218Y543532D01*
X1671250Y542516D01*
X1673282Y543532D01*
X1672266Y541500D01*
X1673282Y539468D01*
X1671250Y540484D01*
X1669218Y539468D01*
X1548968Y382218D02*
X1549984Y384250D01*
X1548968Y386282D01*
X1551000Y385266D01*
X1553032Y386282D01*
X1552016Y384250D01*
X1553032Y382218D01*
X1551000Y383234D01*
X1548968Y382218D01*
X1655468Y392968D02*
X1656484Y395000D01*
X1655468Y397032D01*
X1657500Y396016D01*
X1659532Y397032D01*
X1658516Y395000D01*
X1659532Y392968D01*
X1657500Y393984D01*
X1655468Y392968D01*
X1681218Y528968D02*
X1682234Y531000D01*
X1681218Y533032D01*
X1683250Y532016D01*
X1685282Y533032D01*
X1684266Y531000D01*
X1685282Y528968D01*
X1683250Y529984D01*
X1681218Y528968D01*
X1682718Y379718D02*
X1683734Y381750D01*
X1682718Y383782D01*
X1684750Y382766D01*
X1686782Y383782D01*
X1685766Y381750D01*
X1686782Y379718D01*
X1684750Y380734D01*
X1682718Y379718D01*
X1657718Y359468D02*
X1658734Y361500D01*
X1657718Y363532D01*
X1659750Y362516D01*
X1661782Y363532D01*
X1660766Y361500D01*
X1661782Y359468D01*
X1659750Y360484D01*
X1657718Y359468D01*
X1552000Y648468D02*
X1549968Y652532D01*
X1554032D01*
X1552000Y648468D01*
X1573500Y648218D02*
X1571468Y652282D01*
X1575532D01*
X1573500Y648218D01*
X1594500Y648468D02*
X1592468Y652532D01*
X1596532D01*
X1594500Y648468D01*
X1615250Y649218D02*
X1613218Y653282D01*
X1617282D01*
X1615250Y649218D01*
X1551750Y517468D02*
X1549718Y521532D01*
X1553782D01*
X1551750Y517468D01*
X1573250D02*
X1571218Y521532D01*
X1575282D01*
X1573250Y517468D01*
X1594000Y517218D02*
X1591968Y521282D01*
X1596032D01*
X1594000Y517218D01*
X1615500Y517718D02*
X1613468Y521782D01*
X1617532D01*
X1615500Y517718D01*
D60*
X217032Y491300D02*
G03*
X217032Y491300I-2032J0D01*
G01*
Y465900D02*
G03*
X217032Y465900I-2032J0D01*
G01*
Y415100D02*
G03*
X217032Y415100I-2032J0D01*
G01*
Y389700D02*
G03*
X217032Y389700I-2032J0D01*
G01*
Y592900D02*
G03*
X217032Y592900I-2032J0D01*
G01*
Y338900D02*
G03*
X217032Y338900I-2032J0D01*
G01*
Y516700D02*
G03*
X217032Y516700I-2032J0D01*
G01*
Y262700D02*
G03*
X217032Y262700I-2032J0D01*
G01*
Y288100D02*
G03*
X217032Y288100I-2032J0D01*
G01*
Y542100D02*
G03*
X217032Y542100I-2032J0D01*
G01*
Y313500D02*
G03*
X217032Y313500I-2032J0D01*
G01*
Y567500D02*
G03*
X217032Y567500I-2032J0D01*
G01*
Y364300D02*
G03*
X217032Y364300I-2032J0D01*
G01*
Y618300D02*
G03*
X217032Y618300I-2032J0D01*
G01*
Y440500D02*
G03*
X217032Y440500I-2032J0D01*
G01*
X468032Y491300D02*
G03*
X468032Y491300I-2032J0D01*
G01*
Y465900D02*
G03*
X468032Y465900I-2032J0D01*
G01*
Y415100D02*
G03*
X468032Y415100I-2032J0D01*
G01*
Y389700D02*
G03*
X468032Y389700I-2032J0D01*
G01*
Y592900D02*
G03*
X468032Y592900I-2032J0D01*
G01*
Y338900D02*
G03*
X468032Y338900I-2032J0D01*
G01*
Y516700D02*
G03*
X468032Y516700I-2032J0D01*
G01*
Y262700D02*
G03*
X468032Y262700I-2032J0D01*
G01*
Y288100D02*
G03*
X468032Y288100I-2032J0D01*
G01*
Y542100D02*
G03*
X468032Y542100I-2032J0D01*
G01*
Y313500D02*
G03*
X468032Y313500I-2032J0D01*
G01*
Y567500D02*
G03*
X468032Y567500I-2032J0D01*
G01*
Y364300D02*
G03*
X468032Y364300I-2032J0D01*
G01*
Y618300D02*
G03*
X468032Y618300I-2032J0D01*
G01*
Y440500D02*
G03*
X468032Y440500I-2032J0D01*
G01*
X719032Y491300D02*
G03*
X719032Y491300I-2032J0D01*
G01*
Y465900D02*
G03*
X719032Y465900I-2032J0D01*
G01*
Y415100D02*
G03*
X719032Y415100I-2032J0D01*
G01*
Y389700D02*
G03*
X719032Y389700I-2032J0D01*
G01*
Y592900D02*
G03*
X719032Y592900I-2032J0D01*
G01*
Y338900D02*
G03*
X719032Y338900I-2032J0D01*
G01*
Y516700D02*
G03*
X719032Y516700I-2032J0D01*
G01*
Y262700D02*
G03*
X719032Y262700I-2032J0D01*
G01*
Y288100D02*
G03*
X719032Y288100I-2032J0D01*
G01*
Y542100D02*
G03*
X719032Y542100I-2032J0D01*
G01*
Y313500D02*
G03*
X719032Y313500I-2032J0D01*
G01*
Y567500D02*
G03*
X719032Y567500I-2032J0D01*
G01*
Y364300D02*
G03*
X719032Y364300I-2032J0D01*
G01*
Y618300D02*
G03*
X719032Y618300I-2032J0D01*
G01*
Y440500D02*
G03*
X719032Y440500I-2032J0D01*
G01*
X970032Y491300D02*
G03*
X970032Y491300I-2032J0D01*
G01*
Y465900D02*
G03*
X970032Y465900I-2032J0D01*
G01*
Y415100D02*
G03*
X970032Y415100I-2032J0D01*
G01*
Y389700D02*
G03*
X970032Y389700I-2032J0D01*
G01*
Y592900D02*
G03*
X970032Y592900I-2032J0D01*
G01*
Y338900D02*
G03*
X970032Y338900I-2032J0D01*
G01*
Y516700D02*
G03*
X970032Y516700I-2032J0D01*
G01*
Y262700D02*
G03*
X970032Y262700I-2032J0D01*
G01*
Y288100D02*
G03*
X970032Y288100I-2032J0D01*
G01*
Y542100D02*
G03*
X970032Y542100I-2032J0D01*
G01*
Y313500D02*
G03*
X970032Y313500I-2032J0D01*
G01*
Y567500D02*
G03*
X970032Y567500I-2032J0D01*
G01*
Y364300D02*
G03*
X970032Y364300I-2032J0D01*
G01*
Y618300D02*
G03*
X970032Y618300I-2032J0D01*
G01*
Y440500D02*
G03*
X970032Y440500I-2032J0D01*
G01*
X1221032Y491300D02*
G03*
X1221032Y491300I-2032J0D01*
G01*
Y465900D02*
G03*
X1221032Y465900I-2032J0D01*
G01*
Y415100D02*
G03*
X1221032Y415100I-2032J0D01*
G01*
Y389700D02*
G03*
X1221032Y389700I-2032J0D01*
G01*
Y592900D02*
G03*
X1221032Y592900I-2032J0D01*
G01*
Y338900D02*
G03*
X1221032Y338900I-2032J0D01*
G01*
Y516700D02*
G03*
X1221032Y516700I-2032J0D01*
G01*
Y262700D02*
G03*
X1221032Y262700I-2032J0D01*
G01*
Y288100D02*
G03*
X1221032Y288100I-2032J0D01*
G01*
Y542100D02*
G03*
X1221032Y542100I-2032J0D01*
G01*
Y313500D02*
G03*
X1221032Y313500I-2032J0D01*
G01*
Y567500D02*
G03*
X1221032Y567500I-2032J0D01*
G01*
Y364300D02*
G03*
X1221032Y364300I-2032J0D01*
G01*
Y618300D02*
G03*
X1221032Y618300I-2032J0D01*
G01*
Y440500D02*
G03*
X1221032Y440500I-2032J0D01*
G01*
X1472032Y491300D02*
G03*
X1472032Y491300I-2032J0D01*
G01*
Y465900D02*
G03*
X1472032Y465900I-2032J0D01*
G01*
Y415100D02*
G03*
X1472032Y415100I-2032J0D01*
G01*
Y389700D02*
G03*
X1472032Y389700I-2032J0D01*
G01*
Y592900D02*
G03*
X1472032Y592900I-2032J0D01*
G01*
Y338900D02*
G03*
X1472032Y338900I-2032J0D01*
G01*
Y516700D02*
G03*
X1472032Y516700I-2032J0D01*
G01*
Y262700D02*
G03*
X1472032Y262700I-2032J0D01*
G01*
Y288100D02*
G03*
X1472032Y288100I-2032J0D01*
G01*
Y542100D02*
G03*
X1472032Y542100I-2032J0D01*
G01*
Y313500D02*
G03*
X1472032Y313500I-2032J0D01*
G01*
Y567500D02*
G03*
X1472032Y567500I-2032J0D01*
G01*
Y364300D02*
G03*
X1472032Y364300I-2032J0D01*
G01*
Y618300D02*
G03*
X1472032Y618300I-2032J0D01*
G01*
Y440500D02*
G03*
X1472032Y440500I-2032J0D01*
G01*
M02*
