G04*
G04 #@! TF.GenerationSoftware,Altium Limited,Altium Designer,18.0.12 (696)*
G04*
G04 Layer_Color=16711935*
%FSLAX44Y44*%
%MOMM*%
G71*
G01*
G75*
%ADD29C,0.5000*%
%ADD36C,0.1000*%
%ADD58C,0.0100*%
D29*
X1614656Y1110344D02*
X1638219Y1086781D01*
X1661781D01*
Y1110344D01*
X1638219Y1133906D01*
X1667672Y1128016D02*
X1691235Y1151579D01*
X1714797Y1198704D02*
X1703016D01*
X1691235Y1186922D01*
Y1175141D01*
X1714797Y1151579D01*
X1726579D01*
X1738360Y1163360D01*
Y1175141D01*
X1732469Y1204594D02*
X1750141Y1186922D01*
X1761922D01*
X1779594Y1204594D01*
X1756032Y1228157D01*
X1767813Y1251720D02*
X1773704Y1245829D01*
X1767813Y1239938D01*
X1779594Y1251720D01*
X1773704Y1245829D01*
X1791376Y1228157D01*
X1803157D01*
X1364656Y1110344D02*
X1388219Y1086781D01*
X1411781D01*
Y1110344D01*
X1388219Y1133906D01*
X1417672Y1128016D02*
X1441235Y1151579D01*
X1464797Y1198704D02*
X1453016D01*
X1441235Y1186922D01*
Y1175141D01*
X1464797Y1151579D01*
X1476579D01*
X1488360Y1163360D01*
Y1175141D01*
X1482469Y1204594D02*
X1500141Y1186922D01*
X1511922D01*
X1529594Y1204594D01*
X1506032Y1228157D01*
X1517813Y1251720D02*
X1523704Y1245829D01*
X1517813Y1239938D01*
X1529594Y1251720D01*
X1523704Y1245829D01*
X1541376Y1228157D01*
X1553157D01*
X1114656Y1110344D02*
X1138219Y1086781D01*
X1161781D01*
Y1110344D01*
X1138219Y1133906D01*
X1167672Y1128016D02*
X1191235Y1151579D01*
X1214797Y1198704D02*
X1203016D01*
X1191235Y1186922D01*
Y1175141D01*
X1214797Y1151579D01*
X1226579D01*
X1238360Y1163360D01*
Y1175141D01*
X1232469Y1204594D02*
X1250141Y1186922D01*
X1261922D01*
X1279594Y1204594D01*
X1256032Y1228157D01*
X1267813Y1251720D02*
X1273704Y1245829D01*
X1267813Y1239938D01*
X1279594Y1251720D01*
X1273704Y1245829D01*
X1291376Y1228157D01*
X1303157D01*
X864656Y1110344D02*
X888219Y1086781D01*
X911781D01*
Y1110344D01*
X888219Y1133906D01*
X917672Y1128016D02*
X941235Y1151579D01*
X964797Y1198704D02*
X953016D01*
X941235Y1186922D01*
Y1175141D01*
X964797Y1151579D01*
X976579D01*
X988360Y1163360D01*
Y1175141D01*
X982469Y1204594D02*
X1000141Y1186922D01*
X1011922D01*
X1029594Y1204594D01*
X1006032Y1228157D01*
X1017813Y1251720D02*
X1023704Y1245829D01*
X1017813Y1239938D01*
X1029594Y1251720D01*
X1023704Y1245829D01*
X1041376Y1228157D01*
X1053157D01*
X614656Y1110344D02*
X638219Y1086781D01*
X661781D01*
Y1110344D01*
X638219Y1133906D01*
X667672Y1128016D02*
X691235Y1151579D01*
X714797Y1198704D02*
X703016D01*
X691235Y1186922D01*
Y1175141D01*
X714797Y1151579D01*
X726579D01*
X738360Y1163360D01*
Y1175141D01*
X732469Y1204594D02*
X750141Y1186922D01*
X761922D01*
X779594Y1204594D01*
X756032Y1228157D01*
X767813Y1251720D02*
X773704Y1245829D01*
X767813Y1239938D01*
X779594Y1251720D01*
X773704Y1245829D01*
X791376Y1228157D01*
X803157D01*
X364656Y1110344D02*
X388219Y1086781D01*
X411781D01*
Y1110344D01*
X388219Y1133906D01*
X417672Y1128016D02*
X441235Y1151579D01*
X464797Y1198704D02*
X453016D01*
X441235Y1186922D01*
Y1175141D01*
X464797Y1151579D01*
X476578D01*
X488360Y1163360D01*
Y1175141D01*
X482469Y1204594D02*
X500141Y1186922D01*
X511922D01*
X529594Y1204594D01*
X506032Y1228157D01*
X517813Y1251720D02*
X523704Y1245829D01*
X517813Y1239938D01*
X529594Y1251720D01*
X523704Y1245829D01*
X541376Y1228157D01*
X553157D01*
X114656Y1110344D02*
X138219Y1086781D01*
X161781D01*
Y1110344D01*
X138219Y1133906D01*
X167672Y1128016D02*
X191235Y1151579D01*
X214797Y1198704D02*
X203016D01*
X191235Y1186922D01*
Y1175141D01*
X214797Y1151579D01*
X226579D01*
X238360Y1163360D01*
Y1175141D01*
X232469Y1204594D02*
X250141Y1186922D01*
X261922D01*
X279594Y1204594D01*
X256032Y1228157D01*
X267813Y1251720D02*
X273704Y1245829D01*
X267813Y1239938D01*
X279594Y1251720D01*
X273704Y1245829D01*
X291376Y1228157D01*
X303157D01*
X-250000Y274984D02*
Y241661D01*
X-233339Y225000D01*
X-216677Y241661D01*
Y274984D01*
X-200016Y249992D02*
X-166694D01*
X-116710Y266653D02*
X-125040Y274984D01*
X-141702D01*
X-150032Y266653D01*
Y233331D01*
X-141702Y225000D01*
X-125040D01*
X-116710Y233331D01*
X-100049Y258323D02*
Y233331D01*
X-91718Y225000D01*
X-66726D01*
Y258323D01*
X-41734Y266653D02*
Y258323D01*
X-50065D01*
X-33403D01*
X-41734D01*
Y233331D01*
X-33403Y225000D01*
X-250000Y899984D02*
Y866661D01*
X-233339Y850000D01*
X-216677Y866661D01*
Y899984D01*
X-200016Y874992D02*
X-166694D01*
X-116710Y891653D02*
X-125040Y899984D01*
X-141702D01*
X-150032Y891653D01*
Y858331D01*
X-141702Y850000D01*
X-125040D01*
X-116710Y858331D01*
X-100049Y883323D02*
Y858331D01*
X-91718Y850000D01*
X-66726D01*
Y883323D01*
X-41734Y891653D02*
Y883323D01*
X-50065D01*
X-33403D01*
X-41734D01*
Y858331D01*
X-33403Y850000D01*
D36*
X1705000Y-50000D02*
Y1076000D01*
X1455000Y-50000D02*
Y1076000D01*
X1204000Y-50000D02*
Y1076000D01*
X953000Y-50000D02*
Y1076000D01*
X702000Y-50000D02*
Y1076000D01*
X450500Y-50000D02*
Y1075000D01*
X200000Y-50000D02*
Y1076000D01*
X-50000Y200000D02*
X1955000D01*
X-50000Y825500D02*
X1955000D01*
X1905000Y0D02*
Y1026000D01*
X0Y0D02*
X1905000D01*
X0Y1026000D02*
X1905000D01*
X0Y0D02*
Y1026000D01*
X200000Y200000D02*
Y825500D01*
X450000D01*
Y200000D02*
Y825500D01*
X200000Y200000D02*
X450000D01*
X451000D02*
Y825500D01*
X701000D01*
Y200000D02*
Y825500D01*
X451000Y200000D02*
X701000D01*
X702000D02*
Y825500D01*
X952000D01*
Y200000D02*
Y825500D01*
X702000Y200000D02*
X952000D01*
X953000D02*
Y825500D01*
X1203000D01*
Y200000D02*
Y825500D01*
X953000Y200000D02*
X1203000D01*
X1204000D02*
Y825500D01*
X1454000D01*
Y200000D02*
Y825500D01*
X1204000Y200000D02*
X1454000D01*
X1455000D02*
Y825500D01*
X1705000D01*
Y200000D02*
Y825500D01*
X1455000Y200000D02*
X1705000D01*
D58*
X228250Y217250D02*
G03*
X228250Y217250I-10000J0D01*
G01*
X440250Y217750D02*
G03*
X440250Y217750I-10000J0D01*
G01*
Y802750D02*
G03*
X440250Y802750I-10000J0D01*
G01*
X479250Y217250D02*
G03*
X479250Y217250I-10000J0D01*
G01*
X691250Y217750D02*
G03*
X691250Y217750I-10000J0D01*
G01*
Y802750D02*
G03*
X691250Y802750I-10000J0D01*
G01*
X730250Y217250D02*
G03*
X730250Y217250I-10000J0D01*
G01*
X942250Y217750D02*
G03*
X942250Y217750I-10000J0D01*
G01*
Y802750D02*
G03*
X942250Y802750I-10000J0D01*
G01*
X981250Y217250D02*
G03*
X981250Y217250I-10000J0D01*
G01*
X1193250Y217750D02*
G03*
X1193250Y217750I-10000J0D01*
G01*
Y802750D02*
G03*
X1193250Y802750I-10000J0D01*
G01*
X1232250Y217250D02*
G03*
X1232250Y217250I-10000J0D01*
G01*
X1444250Y217750D02*
G03*
X1444250Y217750I-10000J0D01*
G01*
Y802750D02*
G03*
X1444250Y802750I-10000J0D01*
G01*
X1483250Y217250D02*
G03*
X1483250Y217250I-10000J0D01*
G01*
X1695250Y217750D02*
G03*
X1695250Y217750I-10000J0D01*
G01*
Y802750D02*
G03*
X1695250Y802750I-10000J0D01*
G01*
M02*
