G04 Layer_Physical_Order=1*
G04 Layer_Color=255*
%FSLAX44Y44*%
%MOMM*%
G71*
G01*
G75*
%ADD10C,1.0000*%
%ADD11R,1.0000X1.0500*%
%ADD12R,1.0500X2.2000*%
%ADD13R,0.6000X0.5500*%
%ADD14R,0.5000X0.6000*%
%ADD15R,0.8000X0.4000*%
%ADD16R,3.4000X4.2000*%
%ADD17R,1.0000X2.0000*%
%ADD18R,0.7500X0.8000*%
%ADD19R,0.6000X0.5000*%
%ADD20O,0.8000X0.2500*%
%ADD21O,0.2500X0.8000*%
%ADD22R,1.4800X1.4800*%
%ADD23R,1.8200X1.1900*%
%ADD24R,0.4000X0.8500*%
%ADD25R,0.5500X0.6000*%
%ADD26R,0.6500X0.5000*%
%ADD27R,1.5000X0.8000*%
%ADD28R,0.8000X1.5000*%
%ADD29R,1.1000X1.1000*%
%ADD30C,0.8000*%
%ADD31C,0.2540*%
%ADD32C,0.5000*%
%ADD33C,1.5000*%
%ADD34R,1.5000X1.5000*%
%ADD35C,0.8000*%
%ADD36C,1.2700*%
%ADD37C,0.5000*%
G36*
X248376Y1624D02*
X1624D01*
Y623876D01*
X248376D01*
Y1624D01*
D02*
G37*
%LPC*%
G36*
X36750Y213163D02*
X34831Y212911D01*
X33043Y212170D01*
X31508Y210992D01*
X30330Y209457D01*
X29589Y207669D01*
X29337Y205750D01*
X29589Y203831D01*
X30330Y202043D01*
X31508Y200508D01*
X33043Y199330D01*
X34831Y198589D01*
X36750Y198337D01*
X38669Y198589D01*
X40457Y199330D01*
X41992Y200508D01*
X43170Y202043D01*
X43911Y203831D01*
X44163Y205750D01*
X43911Y207669D01*
X43170Y209457D01*
X41992Y210992D01*
X40457Y212170D01*
X38669Y212911D01*
X36750Y213163D01*
D02*
G37*
G36*
X178750Y209789D02*
X177250D01*
X176470Y209634D01*
X175808Y209192D01*
X175366Y208530D01*
X175211Y207750D01*
Y205750D01*
X178750D01*
Y209789D01*
D02*
G37*
G36*
X191250D02*
X189750D01*
Y205750D01*
X193289D01*
Y207750D01*
X193134Y208530D01*
X192692Y209192D01*
X192030Y209634D01*
X191250Y209789D01*
D02*
G37*
G36*
X116039Y193800D02*
X111000D01*
Y190761D01*
X114000D01*
X114780Y190916D01*
X115442Y191358D01*
X115884Y192020D01*
X116039Y192800D01*
Y193800D01*
D02*
G37*
G36*
X109000Y198839D02*
X106000D01*
X105220Y198684D01*
X104558Y198242D01*
X104116Y197580D01*
X103961Y196800D01*
Y195800D01*
X109000D01*
Y198839D01*
D02*
G37*
G36*
X114000D02*
X111000D01*
Y195800D01*
X116039D01*
Y196800D01*
X115884Y197580D01*
X115442Y198242D01*
X114780Y198684D01*
X114000Y198839D01*
D02*
G37*
G36*
X58040Y274520D02*
X49501D01*
Y271520D01*
X49656Y270740D01*
X50098Y270078D01*
X50760Y269636D01*
X51540Y269481D01*
X58040D01*
Y274520D01*
D02*
G37*
G36*
X96040Y290559D02*
X91540D01*
X90760Y290404D01*
X90098Y289962D01*
X89656Y289300D01*
X89501Y288520D01*
Y284020D01*
X96040D01*
Y290559D01*
D02*
G37*
G36*
X159040D02*
X154540D01*
X153760Y290404D01*
X153098Y289962D01*
X152656Y289300D01*
X152501Y288520D01*
Y284020D01*
X159040D01*
Y290559D01*
D02*
G37*
G36*
X187750Y209789D02*
X186250D01*
X185470Y209634D01*
X184808Y209192D01*
X183692D01*
X183030Y209634D01*
X182250Y209789D01*
X180750D01*
Y204750D01*
X179750D01*
Y203750D01*
X175211D01*
Y201750D01*
X175366Y200970D01*
X175808Y200308D01*
X176470Y199866D01*
X176571Y198551D01*
X176485Y198515D01*
X176168Y197750D01*
Y197115D01*
X171452D01*
X171265Y197565D01*
X170500Y197882D01*
X162500D01*
X161735Y197565D01*
X161418Y196800D01*
Y192800D01*
X161735Y192035D01*
X162500Y191718D01*
X170500D01*
X171265Y192035D01*
X171452Y192486D01*
X176168D01*
Y191750D01*
X176485Y190985D01*
X177250Y190668D01*
X182250D01*
X183015Y190985D01*
X183332Y191750D01*
Y192435D01*
X185168D01*
Y191750D01*
X185485Y190985D01*
X186250Y190668D01*
X191250D01*
X192015Y190985D01*
X192332Y191750D01*
Y192435D01*
X195607D01*
X196080Y191293D01*
X197258Y189758D01*
X198793Y188580D01*
X200581Y187839D01*
X202500Y187587D01*
X204419Y187839D01*
X206207Y188580D01*
X207742Y189758D01*
X208920Y191293D01*
X209661Y193081D01*
X209913Y195000D01*
X209661Y196919D01*
X208920Y198707D01*
X207742Y200242D01*
X206207Y201420D01*
X204419Y202161D01*
X202500Y202413D01*
X200581Y202161D01*
X198793Y201420D01*
X197258Y200242D01*
X196080Y198707D01*
X195399Y197064D01*
X192332D01*
Y197750D01*
X192015Y198515D01*
X191929Y198551D01*
X192030Y199866D01*
X192692Y200308D01*
X193134Y200970D01*
X193289Y201750D01*
Y203750D01*
X188750D01*
Y204750D01*
X187750D01*
Y209789D01*
D02*
G37*
G36*
X72540Y265020D02*
X67501D01*
Y258520D01*
X67656Y257740D01*
X68098Y257078D01*
X68760Y256636D01*
X69540Y256481D01*
X72540D01*
Y265020D01*
D02*
G37*
G36*
X189579Y265020D02*
X184540D01*
Y256481D01*
X187540D01*
X188320Y256636D01*
X188982Y257078D01*
X189424Y257740D01*
X189579Y258520D01*
Y265020D01*
D02*
G37*
G36*
X137500Y198789D02*
X121500D01*
X120720Y198634D01*
X120058Y198192D01*
X119616Y197530D01*
X119461Y196750D01*
Y176750D01*
X137500D01*
Y198789D01*
D02*
G37*
G36*
X155500D02*
X139500D01*
Y176750D01*
X157539D01*
Y196750D01*
X157384Y197530D01*
X156942Y198192D01*
X156280Y198634D01*
X155500Y198789D01*
D02*
G37*
G36*
X114000Y185182D02*
X106000D01*
X105235Y184865D01*
X104918Y184100D01*
Y180100D01*
X105235Y179335D01*
X106000Y179018D01*
X114000D01*
X114765Y179335D01*
X115082Y180100D01*
Y184100D01*
X114765Y184865D01*
X114000Y185182D01*
D02*
G37*
G36*
X96000Y191663D02*
X94081Y191411D01*
X92293Y190670D01*
X90758Y189492D01*
X89580Y187957D01*
X88839Y186169D01*
X88587Y184250D01*
X88839Y182331D01*
X89580Y180543D01*
X90758Y179008D01*
X92293Y177830D01*
X93686Y177253D01*
Y173582D01*
X93500D01*
X92735Y173265D01*
X92418Y172500D01*
Y166500D01*
X92735Y165735D01*
X92821Y165699D01*
X92720Y164384D01*
X92058Y163942D01*
X91616Y163280D01*
X91461Y162500D01*
Y160500D01*
X96000D01*
X100539D01*
Y162500D01*
X100384Y163280D01*
X99942Y163942D01*
X99280Y164384D01*
X99179Y165699D01*
X99265Y165735D01*
X99582Y166500D01*
Y167085D01*
X105048D01*
X105235Y166635D01*
X106000Y166318D01*
X114000D01*
X114765Y166635D01*
X115082Y167400D01*
Y171400D01*
X114765Y172165D01*
X114000Y172482D01*
X106000D01*
X105235Y172165D01*
X105048Y171714D01*
X99582D01*
Y172500D01*
X99265Y173265D01*
X98500Y173582D01*
X98315D01*
Y177253D01*
X99707Y177830D01*
X101242Y179008D01*
X102420Y180543D01*
X103161Y182331D01*
X103413Y184250D01*
X103161Y186169D01*
X102420Y187957D01*
X101242Y189492D01*
X99707Y190670D01*
X97919Y191411D01*
X96000Y191663D01*
D02*
G37*
G36*
X178750Y171000D02*
X175211D01*
Y169000D01*
X175366Y168220D01*
X175808Y167558D01*
X176470Y167116D01*
X177250Y166961D01*
X178750D01*
Y171000D01*
D02*
G37*
G36*
X184289D02*
X180750D01*
Y166961D01*
X182250D01*
X183030Y167116D01*
X183692Y167558D01*
X184134Y168220D01*
X184289Y169000D01*
Y171000D01*
D02*
G37*
G36*
X14000Y199150D02*
X12520Y198955D01*
X10209Y197998D01*
X8224Y196476D01*
X6702Y194491D01*
X5745Y192180D01*
X5550Y190700D01*
X14000D01*
Y199150D01*
D02*
G37*
G36*
X16000D02*
Y190700D01*
X24450D01*
X24255Y192180D01*
X23298Y194491D01*
X21775Y196476D01*
X19791Y197998D01*
X17480Y198955D01*
X16000Y199150D01*
D02*
G37*
G36*
X109000Y193800D02*
X103961D01*
Y192800D01*
X104116Y192020D01*
X104558Y191358D01*
X105220Y190916D01*
X106000Y190761D01*
X109000D01*
Y193800D01*
D02*
G37*
G36*
X24450Y188700D02*
X16000D01*
Y180250D01*
X17480Y180445D01*
X19791Y181402D01*
X21775Y182925D01*
X23298Y184909D01*
X24255Y187220D01*
X24450Y188700D01*
D02*
G37*
G36*
X14000D02*
X5550D01*
X5745Y187220D01*
X6702Y184909D01*
X8224Y182925D01*
X10209Y181402D01*
X12520Y180445D01*
X14000Y180250D01*
Y188700D01*
D02*
G37*
G36*
X229750Y189163D02*
X227831Y188911D01*
X226043Y188170D01*
X224508Y186992D01*
X223330Y185457D01*
X222753Y184065D01*
X183332D01*
Y185000D01*
X183015Y185765D01*
X182250Y186082D01*
X177250D01*
X176485Y185765D01*
X176168Y185000D01*
Y184314D01*
X171494D01*
X171265Y184865D01*
X170500Y185182D01*
X162500D01*
X161735Y184865D01*
X161418Y184100D01*
Y180100D01*
X161735Y179335D01*
X162500Y179018D01*
X170500D01*
X171265Y179335D01*
X171411Y179685D01*
X176168D01*
Y179000D01*
X176485Y178235D01*
X176571Y178199D01*
X176470Y176884D01*
X175808Y176442D01*
X175366Y175780D01*
X175211Y175000D01*
Y173000D01*
X179750D01*
X184289D01*
Y175000D01*
X184134Y175780D01*
X183692Y176442D01*
X183030Y176884D01*
X182929Y178199D01*
X183015Y178235D01*
X183332Y179000D01*
Y179436D01*
X222753D01*
X223330Y178043D01*
X224508Y176508D01*
X226043Y175330D01*
X227831Y174589D01*
X229750Y174337D01*
X231669Y174589D01*
X233457Y175330D01*
X234992Y176508D01*
X236170Y178043D01*
X236911Y179831D01*
X237163Y181750D01*
X236911Y183669D01*
X236170Y185457D01*
X234992Y186992D01*
X233457Y188170D01*
X231669Y188911D01*
X229750Y189163D01*
D02*
G37*
G36*
X159040Y300020D02*
X152501D01*
Y295520D01*
X152656Y294740D01*
X153098Y294078D01*
X153760Y293636D01*
X154540Y293481D01*
X159040D01*
Y300020D01*
D02*
G37*
G36*
X167579D02*
X161040D01*
Y293481D01*
X165540D01*
X166320Y293636D01*
X166982Y294078D01*
X167424Y294740D01*
X167579Y295520D01*
Y300020D01*
D02*
G37*
G36*
X180040D02*
X173501D01*
Y295520D01*
X173656Y294740D01*
X174098Y294078D01*
X174760Y293636D01*
X175540Y293481D01*
X180040D01*
Y300020D01*
D02*
G37*
G36*
X125579Y300020D02*
X119040D01*
Y293481D01*
X123540D01*
X124320Y293636D01*
X124982Y294078D01*
X125424Y294740D01*
X125579Y295520D01*
Y300020D01*
D02*
G37*
G36*
X138040D02*
X131501D01*
Y295520D01*
X131656Y294740D01*
X132098Y294078D01*
X132760Y293636D01*
X133540Y293481D01*
X138040D01*
Y300020D01*
D02*
G37*
G36*
X146579D02*
X140040D01*
Y293481D01*
X144540D01*
X145320Y293636D01*
X145982Y294078D01*
X146424Y294740D01*
X146579Y295520D01*
Y300020D01*
D02*
G37*
G36*
X81540Y308559D02*
X77040D01*
Y302020D01*
X83579D01*
Y306520D01*
X83424Y307300D01*
X82982Y307962D01*
X82320Y308404D01*
X81540Y308559D01*
D02*
G37*
G36*
X102540D02*
X98040D01*
Y302020D01*
X104579D01*
Y306520D01*
X104424Y307300D01*
X103982Y307962D01*
X103320Y308404D01*
X102540Y308559D01*
D02*
G37*
G36*
X165540D02*
X161040D01*
Y302020D01*
X167579D01*
Y306520D01*
X167424Y307300D01*
X166982Y307962D01*
X166320Y308404D01*
X165540Y308559D01*
D02*
G37*
G36*
X96040D02*
X91540D01*
X90760Y308404D01*
X90098Y307962D01*
X89656Y307300D01*
X89501Y306520D01*
Y302020D01*
X96040D01*
Y308559D01*
D02*
G37*
G36*
X159040D02*
X154540D01*
X153760Y308404D01*
X153098Y307962D01*
X152656Y307300D01*
X152501Y306520D01*
Y302020D01*
X159040D01*
Y308559D01*
D02*
G37*
G36*
X180040D02*
X175540D01*
X174760Y308404D01*
X174098Y307962D01*
X173656Y307300D01*
X173501Y306520D01*
Y302020D01*
X180040D01*
Y308559D01*
D02*
G37*
G36*
X165540Y290559D02*
X161040D01*
Y284020D01*
X167579D01*
Y288520D01*
X167424Y289300D01*
X166982Y289962D01*
X166320Y290404D01*
X165540Y290559D01*
D02*
G37*
G36*
X117040D02*
X112540D01*
X111760Y290404D01*
X111098Y289962D01*
X110656Y289300D01*
X110501Y288520D01*
Y284020D01*
X117040D01*
Y290559D01*
D02*
G37*
G36*
X138040D02*
X133540D01*
X132760Y290404D01*
X132098Y289962D01*
X131656Y289300D01*
X131501Y288520D01*
Y284020D01*
X138040D01*
Y290559D01*
D02*
G37*
G36*
X180040D02*
X175540D01*
X174760Y290404D01*
X174098Y289962D01*
X173656Y289300D01*
X173501Y288520D01*
Y284020D01*
X180040D01*
Y290559D01*
D02*
G37*
G36*
X81540D02*
X77040D01*
Y284020D01*
X83579D01*
Y288520D01*
X83424Y289300D01*
X82982Y289962D01*
X82320Y290404D01*
X81540Y290559D01*
D02*
G37*
G36*
X102540D02*
X98040D01*
Y284020D01*
X104579D01*
Y288520D01*
X104424Y289300D01*
X103982Y289962D01*
X103320Y290404D01*
X102540Y290559D01*
D02*
G37*
G36*
X96040Y300020D02*
X89501D01*
Y295520D01*
X89656Y294740D01*
X90098Y294078D01*
X90760Y293636D01*
X91540Y293481D01*
X96040D01*
Y300020D01*
D02*
G37*
G36*
X104579D02*
X98040D01*
Y293481D01*
X102540D01*
X103320Y293636D01*
X103982Y294078D01*
X104424Y294740D01*
X104579Y295520D01*
Y300020D01*
D02*
G37*
G36*
X117040Y300020D02*
X110501D01*
Y295520D01*
X110656Y294740D01*
X111098Y294078D01*
X111760Y293636D01*
X112540Y293481D01*
X117040D01*
Y300020D01*
D02*
G37*
G36*
X123540Y290559D02*
X119040D01*
Y284020D01*
X125579D01*
Y288520D01*
X125424Y289300D01*
X124982Y289962D01*
X124320Y290404D01*
X123540Y290559D01*
D02*
G37*
G36*
X144540D02*
X140040D01*
Y284020D01*
X146579D01*
Y288520D01*
X146424Y289300D01*
X145982Y289962D01*
X145320Y290404D01*
X144540Y290559D01*
D02*
G37*
G36*
X83579Y300020D02*
X77040D01*
Y293481D01*
X81540D01*
X82320Y293636D01*
X82982Y294078D01*
X83424Y294740D01*
X83579Y295520D01*
Y300020D01*
D02*
G37*
G36*
X24450Y87100D02*
X16000D01*
Y78650D01*
X17480Y78844D01*
X19791Y79802D01*
X21775Y81325D01*
X23298Y83309D01*
X24255Y85620D01*
X24450Y87100D01*
D02*
G37*
G36*
X14000D02*
X5550D01*
X5745Y85620D01*
X6702Y83309D01*
X8224Y81325D01*
X10209Y79802D01*
X12520Y78844D01*
X14000Y78650D01*
Y87100D01*
D02*
G37*
G36*
X176240Y89150D02*
X171451D01*
Y86150D01*
X171606Y85370D01*
X172048Y84708D01*
X172710Y84266D01*
X173490Y84111D01*
X176240D01*
Y89150D01*
D02*
G37*
G36*
X207750Y94913D02*
X205831Y94661D01*
X204043Y93920D01*
X202508Y92742D01*
X201330Y91207D01*
X200589Y89419D01*
X200337Y87500D01*
X200589Y85581D01*
X201330Y83793D01*
X202508Y82258D01*
X204043Y81080D01*
X205436Y80503D01*
Y76952D01*
X204985Y76765D01*
X204668Y76000D01*
Y67500D01*
X204985Y66735D01*
X205750Y66417D01*
X209750D01*
X210515Y66735D01*
X210832Y67500D01*
Y76000D01*
X210515Y76765D01*
X210065Y76952D01*
Y80503D01*
X211457Y81080D01*
X212992Y82258D01*
X214170Y83793D01*
X214911Y85581D01*
X215163Y87500D01*
X214911Y89419D01*
X214170Y91207D01*
X212992Y92742D01*
X211457Y93920D01*
X209669Y94661D01*
X207750Y94913D01*
D02*
G37*
G36*
X196750Y78039D02*
X195750D01*
X194970Y77884D01*
X194308Y77442D01*
X193866Y76780D01*
X193711Y76000D01*
Y72750D01*
X196750D01*
Y78039D01*
D02*
G37*
G36*
X199750D02*
X198750D01*
Y72750D01*
X201789D01*
Y76000D01*
X201634Y76780D01*
X201192Y77442D01*
X200530Y77884D01*
X199750Y78039D01*
D02*
G37*
G36*
X176240Y96189D02*
X173490D01*
X172710Y96034D01*
X172048Y95592D01*
X171606Y94930D01*
X171451Y94150D01*
Y91150D01*
X176240D01*
Y96189D01*
D02*
G37*
G36*
X180990D02*
X178240D01*
Y91150D01*
X183029D01*
Y94150D01*
X182874Y94930D01*
X182432Y95592D01*
X181770Y96034D01*
X180990Y96189D01*
D02*
G37*
G36*
X180529Y103120D02*
X176490D01*
Y99581D01*
X178490D01*
X179270Y99736D01*
X179932Y100178D01*
X180374Y100840D01*
X180529Y101620D01*
Y103120D01*
D02*
G37*
G36*
X183029Y89150D02*
X178240D01*
Y84111D01*
X180990D01*
X181770Y84266D01*
X182432Y84708D01*
X182874Y85370D01*
X183029Y86150D01*
Y89150D01*
D02*
G37*
G36*
X14000Y97550D02*
X12520Y97355D01*
X10209Y96398D01*
X8224Y94875D01*
X6702Y92891D01*
X5745Y90580D01*
X5550Y89100D01*
X14000D01*
Y97550D01*
D02*
G37*
G36*
X16000D02*
Y89100D01*
X24450D01*
X24255Y90580D01*
X23298Y92891D01*
X21775Y94875D01*
X19791Y96398D01*
X17480Y97355D01*
X16000Y97550D01*
D02*
G37*
G36*
X104789Y25000D02*
X98750D01*
Y13961D01*
X102750D01*
X103530Y14116D01*
X104192Y14558D01*
X104634Y15220D01*
X104789Y16000D01*
Y25000D01*
D02*
G37*
G36*
X180529Y28190D02*
X176490D01*
Y24651D01*
X178490D01*
X179270Y24806D01*
X179932Y25248D01*
X180374Y25910D01*
X180529Y26690D01*
Y28190D01*
D02*
G37*
G36*
X96750Y38039D02*
X92750D01*
X91970Y37884D01*
X91308Y37442D01*
X90866Y36780D01*
X90711Y36000D01*
Y27000D01*
X96750D01*
Y38039D01*
D02*
G37*
G36*
X18250Y28395D02*
X15365Y28016D01*
X12677Y26902D01*
X10369Y25131D01*
X8598Y22823D01*
X7484Y20135D01*
X7105Y17250D01*
X7484Y14365D01*
X8598Y11677D01*
X10369Y9369D01*
X12677Y7598D01*
X15365Y6484D01*
X18250Y6105D01*
X21135Y6484D01*
X23823Y7598D01*
X26131Y9369D01*
X27902Y11677D01*
X29016Y14365D01*
X29395Y17250D01*
X29016Y20135D01*
X27902Y22823D01*
X26131Y25131D01*
X23823Y26902D01*
X21135Y28016D01*
X18250Y28395D01*
D02*
G37*
G36*
X230250Y28895D02*
X227365Y28516D01*
X224677Y27402D01*
X222369Y25631D01*
X220598Y23323D01*
X219484Y20635D01*
X219105Y17750D01*
X219484Y14865D01*
X220598Y12177D01*
X222369Y9869D01*
X224677Y8098D01*
X227365Y6984D01*
X230250Y6605D01*
X233135Y6984D01*
X235823Y8098D01*
X238131Y9869D01*
X239902Y12177D01*
X241016Y14865D01*
X241395Y17750D01*
X241016Y20635D01*
X239902Y23323D01*
X238131Y25631D01*
X235823Y27402D01*
X233135Y28516D01*
X230250Y28895D01*
D02*
G37*
G36*
X96750Y25000D02*
X90711D01*
Y16000D01*
X90866Y15220D01*
X91308Y14558D01*
X91970Y14116D01*
X92750Y13961D01*
X96750D01*
Y25000D01*
D02*
G37*
G36*
X22500Y71282D02*
X7500D01*
X6735Y70965D01*
X6418Y70200D01*
Y55200D01*
X6735Y54435D01*
X7500Y54118D01*
X22500D01*
X23265Y54435D01*
X23582Y55200D01*
Y70200D01*
X23265Y70965D01*
X22500Y71282D01*
D02*
G37*
G36*
X196750Y70750D02*
X193711D01*
Y67500D01*
X193866Y66720D01*
X194308Y66058D01*
X194970Y65616D01*
X195750Y65461D01*
X196750D01*
Y70750D01*
D02*
G37*
G36*
X201789D02*
X198750D01*
Y65461D01*
X199750D01*
X200530Y65616D01*
X201192Y66058D01*
X201634Y66720D01*
X201789Y67500D01*
Y70750D01*
D02*
G37*
G36*
X102750Y38039D02*
X98750D01*
Y27000D01*
X104789D01*
Y36000D01*
X104634Y36780D01*
X104192Y37442D01*
X103530Y37884D01*
X102750Y38039D01*
D02*
G37*
G36*
X178490Y33729D02*
X176490D01*
Y30190D01*
X180529D01*
Y31690D01*
X180374Y32470D01*
X179932Y33132D01*
X179270Y33574D01*
X178490Y33729D01*
D02*
G37*
G36*
X216500Y60663D02*
X214581Y60411D01*
X212793Y59670D01*
X211258Y58492D01*
X210080Y56957D01*
X209339Y55169D01*
X209087Y53250D01*
X209339Y51331D01*
X209502Y50939D01*
X209453Y50866D01*
X209181Y49500D01*
Y43347D01*
X208985Y43265D01*
X208668Y42500D01*
Y37000D01*
X208985Y36235D01*
X209750Y35918D01*
X215750D01*
X216515Y36235D01*
X216832Y37000D01*
Y42500D01*
X216515Y43265D01*
X216319Y43347D01*
Y45677D01*
X216500Y45837D01*
X218419Y46089D01*
X220207Y46830D01*
X221742Y48008D01*
X222920Y49543D01*
X223661Y51331D01*
X223913Y53250D01*
X223661Y55169D01*
X222920Y56957D01*
X221742Y58492D01*
X220207Y59670D01*
X218419Y60411D01*
X216500Y60663D01*
D02*
G37*
G36*
X114000Y159782D02*
X106000D01*
X105235Y159465D01*
X104918Y158700D01*
Y154700D01*
X105235Y153935D01*
X106000Y153618D01*
X114000D01*
X114765Y153935D01*
X115082Y154700D01*
Y158700D01*
X114765Y159465D01*
X114000Y159782D01*
D02*
G37*
G36*
X170500D02*
X162500D01*
X161735Y159465D01*
X161418Y158700D01*
Y154700D01*
X161735Y153935D01*
X162500Y153618D01*
X170500D01*
X171265Y153935D01*
X171582Y154700D01*
Y158700D01*
X171265Y159465D01*
X170500Y159782D01*
D02*
G37*
G36*
X170500Y172482D02*
X162500D01*
X161735Y172165D01*
X161418Y171400D01*
Y167400D01*
X161735Y166635D01*
X162500Y166318D01*
X166309D01*
X172013Y160613D01*
X172764Y160112D01*
X173650Y159936D01*
X185668D01*
Y159250D01*
X185985Y158485D01*
X186071Y158449D01*
X185970Y157134D01*
X185308Y156692D01*
X184866Y156030D01*
X184711Y155250D01*
Y153250D01*
X189250D01*
X193789D01*
Y155250D01*
X193634Y156030D01*
X193192Y156692D01*
X192530Y157134D01*
X192429Y158449D01*
X192515Y158485D01*
X192832Y159250D01*
Y159936D01*
X197543D01*
X197589Y159581D01*
X198330Y157793D01*
X199508Y156258D01*
X201043Y155080D01*
X202831Y154339D01*
X204750Y154087D01*
X206669Y154339D01*
X208457Y155080D01*
X209992Y156258D01*
X211170Y157793D01*
X211911Y159581D01*
X212163Y161500D01*
X211911Y163419D01*
X211170Y165207D01*
X209992Y166742D01*
X208457Y167920D01*
X206669Y168661D01*
X204750Y168913D01*
X202831Y168661D01*
X201043Y167920D01*
X199508Y166742D01*
X198330Y165207D01*
X198064Y164564D01*
X192832D01*
Y165250D01*
X192515Y166015D01*
X191750Y166332D01*
X186750D01*
X185985Y166015D01*
X185668Y165250D01*
Y164564D01*
X174609D01*
X171582Y167591D01*
Y171400D01*
X171265Y172165D01*
X170500Y172482D01*
D02*
G37*
G36*
X193789Y151250D02*
X190250D01*
Y147211D01*
X191750D01*
X192530Y147366D01*
X193192Y147808D01*
X193634Y148470D01*
X193789Y149250D01*
Y151250D01*
D02*
G37*
G36*
X137500Y174750D02*
X119461D01*
Y154750D01*
X119616Y153970D01*
X120058Y153308D01*
X120720Y152866D01*
X121500Y152711D01*
X137500D01*
Y174750D01*
D02*
G37*
G36*
X157539D02*
X139500D01*
Y152711D01*
X155500D01*
X156280Y152866D01*
X156942Y153308D01*
X157384Y153970D01*
X157539Y154750D01*
Y174750D01*
D02*
G37*
G36*
X14000Y163300D02*
X5550D01*
X5745Y161820D01*
X6702Y159509D01*
X8224Y157525D01*
X10209Y156002D01*
X12520Y155044D01*
X14000Y154850D01*
Y163300D01*
D02*
G37*
G36*
Y173750D02*
X12520Y173556D01*
X10209Y172598D01*
X8224Y171075D01*
X6702Y169091D01*
X5745Y166780D01*
X5550Y165300D01*
X14000D01*
Y173750D01*
D02*
G37*
G36*
X16000D02*
Y165300D01*
X24450D01*
X24255Y166780D01*
X23298Y169091D01*
X21775Y171075D01*
X19791Y172598D01*
X17480Y173556D01*
X16000Y173750D01*
D02*
G37*
G36*
X95000Y158500D02*
X91461D01*
Y156500D01*
X91616Y155720D01*
X92058Y155058D01*
X92720Y154616D01*
X93500Y154461D01*
X95000D01*
Y158500D01*
D02*
G37*
G36*
X100539D02*
X97000D01*
Y154461D01*
X98500D01*
X99280Y154616D01*
X99942Y155058D01*
X100384Y155720D01*
X100539Y156500D01*
Y158500D01*
D02*
G37*
G36*
X24450Y163300D02*
X16000D01*
Y154850D01*
X17480Y155044D01*
X19791Y156002D01*
X21775Y157525D01*
X23298Y159509D01*
X24255Y161820D01*
X24450Y163300D01*
D02*
G37*
G36*
X96750Y128039D02*
X92750D01*
X91970Y127884D01*
X91308Y127442D01*
X90866Y126780D01*
X90711Y126000D01*
Y117000D01*
X96750D01*
Y128039D01*
D02*
G37*
G36*
X102750D02*
X98750D01*
Y117000D01*
X104789D01*
Y126000D01*
X104634Y126780D01*
X104192Y127442D01*
X103530Y127884D01*
X102750Y128039D01*
D02*
G37*
G36*
X178250Y128539D02*
X176250D01*
Y125000D01*
X180289D01*
Y126500D01*
X180134Y127280D01*
X179692Y127942D01*
X179030Y128384D01*
X178250Y128539D01*
D02*
G37*
G36*
X96750Y115000D02*
X90711D01*
Y106000D01*
X90866Y105220D01*
X91308Y104558D01*
X91970Y104116D01*
X92750Y103961D01*
X96750D01*
Y115000D01*
D02*
G37*
G36*
X104789D02*
X98750D01*
Y103961D01*
X102750D01*
X103530Y104116D01*
X104192Y104558D01*
X104634Y105220D01*
X104789Y106000D01*
Y115000D01*
D02*
G37*
G36*
X15000Y122073D02*
X12781Y121781D01*
X10713Y120925D01*
X8938Y119562D01*
X7575Y117787D01*
X6719Y115719D01*
X6427Y113500D01*
X6719Y111281D01*
X7575Y109213D01*
X8938Y107438D01*
X10713Y106075D01*
X12781Y105219D01*
X15000Y104927D01*
X17219Y105219D01*
X19287Y106075D01*
X21062Y107438D01*
X22425Y109213D01*
X23281Y111281D01*
X23573Y113500D01*
X23281Y115719D01*
X22425Y117787D01*
X21062Y119562D01*
X19287Y120925D01*
X17219Y121781D01*
X15000Y122073D01*
D02*
G37*
G36*
X67789Y144250D02*
X63750D01*
Y140461D01*
X65750D01*
X66530Y140616D01*
X67192Y141058D01*
X67634Y141720D01*
X67789Y142500D01*
Y144250D01*
D02*
G37*
G36*
X65750Y150039D02*
X63750D01*
Y146250D01*
X67789D01*
Y148000D01*
X67634Y148780D01*
X67192Y149442D01*
X66530Y149884D01*
X65750Y150039D01*
D02*
G37*
G36*
X188250Y151250D02*
X184711D01*
Y149250D01*
X184866Y148470D01*
X185308Y147808D01*
X185970Y147366D01*
X186750Y147211D01*
X188250D01*
Y151250D01*
D02*
G37*
G36*
X15000Y147473D02*
X12781Y147181D01*
X10713Y146325D01*
X8938Y144962D01*
X7575Y143187D01*
X6719Y141119D01*
X6427Y138900D01*
X6719Y136681D01*
X7575Y134613D01*
X8938Y132838D01*
X10713Y131475D01*
X12781Y130619D01*
X15000Y130327D01*
X17219Y130619D01*
X19287Y131475D01*
X21062Y132838D01*
X22425Y134613D01*
X23281Y136681D01*
X23573Y138900D01*
X23281Y141119D01*
X22425Y143187D01*
X21062Y144962D01*
X19287Y146325D01*
X17219Y147181D01*
X15000Y147473D01*
D02*
G37*
G36*
X143904Y135874D02*
X143903Y135874D01*
X143902Y135874D01*
X143526Y135719D01*
X143138Y135560D01*
X143137Y135559D01*
X143136Y135559D01*
X142236Y134663D01*
X142236Y134662D01*
X142235Y134661D01*
X142075Y134276D01*
X141917Y133898D01*
X141918Y133897D01*
X141917Y133896D01*
X141918Y79250D01*
X142235Y78485D01*
X143000Y78168D01*
X152882Y78168D01*
X152926Y78121D01*
X153444Y76898D01*
X153211Y76548D01*
X153036Y75670D01*
Y70170D01*
X153185Y69422D01*
X153125Y69124D01*
X152550Y67995D01*
X152165Y67835D01*
X152005Y67450D01*
X150876Y66875D01*
X150578Y66815D01*
X149830Y66964D01*
X147183D01*
X147080Y66985D01*
X144859D01*
X141647Y70197D01*
X140896Y70698D01*
X140010Y70875D01*
X134952D01*
Y74170D01*
X134635Y74935D01*
X133870Y75252D01*
X115670D01*
X114905Y74935D01*
X114588Y74170D01*
Y62270D01*
X114905Y61505D01*
X115670Y61188D01*
X133870D01*
X134635Y61505D01*
X134952Y62270D01*
Y66245D01*
X139051D01*
X141849Y63448D01*
X141987Y62013D01*
X141269Y60938D01*
X141215Y60670D01*
X147080D01*
Y58670D01*
X141215D01*
X141269Y58402D01*
X141987Y57327D01*
X141849Y55892D01*
X139051Y53095D01*
X134952D01*
Y57070D01*
X134635Y57835D01*
X133870Y58152D01*
X115670D01*
X114905Y57835D01*
X114588Y57070D01*
Y45170D01*
X114905Y44405D01*
X115670Y44088D01*
X133870D01*
X134635Y44405D01*
X134952Y45170D01*
Y48465D01*
X140010D01*
X140896Y48642D01*
X141647Y49143D01*
X144859Y52355D01*
X147080D01*
X147183Y52376D01*
X149830D01*
X150578Y52525D01*
X150876Y52465D01*
X152005Y51890D01*
X152165Y51505D01*
X152550Y51345D01*
X153125Y50216D01*
X153185Y49918D01*
X153036Y49170D01*
Y43670D01*
X153211Y42792D01*
X153504Y42352D01*
X153125Y41314D01*
X152942Y41082D01*
X144813Y41082D01*
X144813Y41083D01*
X144047Y40765D01*
X144047Y40765D01*
X142985Y39702D01*
X142668Y38937D01*
Y7500D01*
X142985Y6735D01*
X143750Y6418D01*
X168389D01*
X169154Y6735D01*
X169471Y7500D01*
Y25496D01*
X169844Y25632D01*
X170741Y25707D01*
X171048Y25248D01*
X171710Y24806D01*
X172490Y24651D01*
X174490D01*
Y29190D01*
Y33729D01*
X172490D01*
X171710Y33574D01*
X171048Y33132D01*
X170741Y32673D01*
X169844Y32748D01*
X169471Y32884D01*
Y45522D01*
X169471Y45522D01*
X169154Y46287D01*
X168256Y47185D01*
X167624Y47447D01*
Y49170D01*
X167475Y49918D01*
X167535Y50216D01*
X168110Y51345D01*
X168495Y51505D01*
X168655Y51890D01*
X169784Y52465D01*
X170082Y52525D01*
X170830Y52376D01*
X173477D01*
X173580Y52355D01*
X199668D01*
Y50500D01*
X199985Y49735D01*
X200436Y49548D01*
Y43582D01*
X199750D01*
X198985Y43265D01*
X198668Y42500D01*
Y37000D01*
X198985Y36235D01*
X199750Y35918D01*
X205750D01*
X206515Y36235D01*
X206832Y37000D01*
Y42500D01*
X206515Y43265D01*
X205750Y43582D01*
X205065D01*
Y49548D01*
X205515Y49735D01*
X205832Y50500D01*
Y59000D01*
X205515Y59765D01*
X204750Y60082D01*
X200750D01*
X199985Y59765D01*
X199668Y59000D01*
Y56985D01*
X179972D01*
X179293Y58254D01*
X179391Y58402D01*
X179445Y58670D01*
X173580D01*
Y60670D01*
X179445D01*
X179391Y60938D01*
X178673Y62013D01*
X179207Y63184D01*
X180189Y64166D01*
X181581Y63589D01*
X183500Y63337D01*
X185419Y63589D01*
X187207Y64330D01*
X188742Y65508D01*
X189920Y67043D01*
X190661Y68831D01*
X190913Y70750D01*
X190661Y72669D01*
X189920Y74457D01*
X188742Y75992D01*
X187207Y77170D01*
X185419Y77911D01*
X183500Y78163D01*
X181581Y77911D01*
X179793Y77170D01*
X178258Y75992D01*
X177080Y74457D01*
X176339Y72669D01*
X176087Y70750D01*
X176339Y68831D01*
X176602Y68196D01*
X175730Y66985D01*
X173580D01*
X173477Y66964D01*
X170830D01*
X170082Y66815D01*
X169784Y66875D01*
X168655Y67450D01*
X168495Y67835D01*
X168110Y67995D01*
X167535Y69124D01*
X167475Y69422D01*
X167624Y70170D01*
Y71838D01*
X169000D01*
X169765Y72155D01*
X170082Y72920D01*
Y99412D01*
X170314Y99596D01*
X171352Y99975D01*
X171710Y99736D01*
X172490Y99581D01*
X174490D01*
Y104120D01*
X175490D01*
Y105120D01*
X180529D01*
Y106620D01*
X180374Y107400D01*
X179932Y108062D01*
X179270Y108504D01*
X179026Y108553D01*
Y109847D01*
X179270Y109896D01*
X179932Y110338D01*
X180374Y111000D01*
X180529Y111780D01*
Y113280D01*
X175490D01*
Y115280D01*
X180529D01*
Y116780D01*
X180374Y117560D01*
X179932Y118222D01*
X179497Y118512D01*
X179404Y119461D01*
X179481Y119917D01*
X179692Y120058D01*
X180134Y120720D01*
X180289Y121500D01*
Y123000D01*
X175250D01*
Y124000D01*
X174250D01*
Y128539D01*
X172250D01*
X171470Y128384D01*
X171352Y128306D01*
X170082Y128968D01*
Y134685D01*
X169925Y135064D01*
X169769Y135447D01*
X169766Y135448D01*
X169765Y135451D01*
X169387Y135608D01*
X169005Y135768D01*
X143904Y135874D01*
D02*
G37*
G36*
X52500Y165098D02*
X50549Y164710D01*
X48895Y163605D01*
X47790Y161951D01*
X47402Y160000D01*
X47790Y158049D01*
X48895Y156395D01*
X50436Y155366D01*
Y149082D01*
X49750D01*
X48985Y148765D01*
X48668Y148000D01*
Y142500D01*
X48985Y141735D01*
X49750Y141418D01*
X50436D01*
Y127082D01*
X47750D01*
X46985Y126765D01*
X46668Y126000D01*
Y106000D01*
X46985Y105235D01*
X47750Y104918D01*
X50436D01*
Y37082D01*
X47750D01*
X46985Y36765D01*
X46668Y36000D01*
Y16000D01*
X46985Y15235D01*
X47750Y14918D01*
X57750D01*
X58515Y15235D01*
X58832Y16000D01*
Y36000D01*
X58515Y36765D01*
X57750Y37082D01*
X55065D01*
Y104918D01*
X57750D01*
X58515Y105235D01*
X58832Y106000D01*
Y126000D01*
X58515Y126765D01*
X57750Y127082D01*
X55065D01*
Y141418D01*
X55750D01*
X56515Y141735D01*
X56551Y141821D01*
X57866Y141720D01*
X58308Y141058D01*
X58970Y140616D01*
X59750Y140461D01*
X61750D01*
Y145250D01*
Y150039D01*
X59750D01*
X58970Y149884D01*
X58308Y149442D01*
X57866Y148780D01*
X56551Y148679D01*
X56515Y148765D01*
X55750Y149082D01*
X55065D01*
Y155700D01*
X56105Y156395D01*
X57210Y158049D01*
X57598Y160000D01*
X57210Y161951D01*
X56105Y163605D01*
X54451Y164710D01*
X52500Y165098D01*
D02*
G37*
G36*
X117040Y308559D02*
X112540D01*
X111760Y308404D01*
X111098Y307962D01*
X110656Y307300D01*
X110501Y306520D01*
Y302020D01*
X117040D01*
Y308559D01*
D02*
G37*
G36*
X180040Y477559D02*
X175540D01*
X174760Y477404D01*
X174098Y476962D01*
X173656Y476300D01*
X173501Y475520D01*
Y471020D01*
X180040D01*
Y477559D01*
D02*
G37*
G36*
X81540D02*
X77040D01*
Y471020D01*
X83579D01*
Y475520D01*
X83424Y476300D01*
X82982Y476962D01*
X82320Y477404D01*
X81540Y477559D01*
D02*
G37*
G36*
X102540D02*
X98040D01*
Y471020D01*
X104579D01*
Y475520D01*
X104424Y476300D01*
X103982Y476962D01*
X103320Y477404D01*
X102540Y477559D01*
D02*
G37*
G36*
X180040Y469020D02*
X173501D01*
Y464520D01*
X173656Y463740D01*
X174098Y463078D01*
X174760Y462636D01*
X175540Y462481D01*
X180040D01*
Y469020D01*
D02*
G37*
G36*
X96040Y477559D02*
X91540D01*
X90760Y477404D01*
X90098Y476962D01*
X89656Y476300D01*
X89501Y475520D01*
Y471020D01*
X96040D01*
Y477559D01*
D02*
G37*
G36*
X159040D02*
X154540D01*
X153760Y477404D01*
X153098Y476962D01*
X152656Y476300D01*
X152501Y475520D01*
Y471020D01*
X159040D01*
Y477559D01*
D02*
G37*
G36*
X123540D02*
X119040D01*
Y471020D01*
X125579D01*
Y475520D01*
X125424Y476300D01*
X124982Y476962D01*
X124320Y477404D01*
X123540Y477559D01*
D02*
G37*
G36*
X144540D02*
X140040D01*
Y471020D01*
X146579D01*
Y475520D01*
X146424Y476300D01*
X145982Y476962D01*
X145320Y477404D01*
X144540Y477559D01*
D02*
G37*
G36*
X83579Y487020D02*
X77040D01*
Y480481D01*
X81540D01*
X82320Y480636D01*
X82982Y481078D01*
X83424Y481740D01*
X83579Y482520D01*
Y487020D01*
D02*
G37*
G36*
X165540Y477559D02*
X161040D01*
Y471020D01*
X167579D01*
Y475520D01*
X167424Y476300D01*
X166982Y476962D01*
X166320Y477404D01*
X165540Y477559D01*
D02*
G37*
G36*
X117040D02*
X112540D01*
X111760Y477404D01*
X111098Y476962D01*
X110656Y476300D01*
X110501Y475520D01*
Y471020D01*
X117040D01*
Y477559D01*
D02*
G37*
G36*
X138040D02*
X133540D01*
X132760Y477404D01*
X132098Y476962D01*
X131656Y476300D01*
X131501Y475520D01*
Y471020D01*
X138040D01*
Y477559D01*
D02*
G37*
G36*
X83579Y469020D02*
X77040D01*
Y462481D01*
X81540D01*
X82320Y462636D01*
X82982Y463078D01*
X83424Y463740D01*
X83579Y464520D01*
Y469020D01*
D02*
G37*
G36*
X96040D02*
X89501D01*
Y464520D01*
X89656Y463740D01*
X90098Y463078D01*
X90760Y462636D01*
X91540Y462481D01*
X96040D01*
Y469020D01*
D02*
G37*
G36*
X104579D02*
X98040D01*
Y462481D01*
X102540D01*
X103320Y462636D01*
X103982Y463078D01*
X104424Y463740D01*
X104579Y464520D01*
Y469020D01*
D02*
G37*
G36*
X161250Y457169D02*
Y452250D01*
X166169D01*
X165902Y453591D01*
X164576Y455576D01*
X162591Y456902D01*
X161250Y457169D01*
D02*
G37*
G36*
X180040Y459559D02*
X175540D01*
X174760Y459404D01*
X174098Y458962D01*
X173656Y458300D01*
X173501Y457520D01*
Y453020D01*
X180040D01*
Y459559D01*
D02*
G37*
G36*
X81540D02*
X77040D01*
Y453020D01*
X83579D01*
Y457520D01*
X83424Y458300D01*
X82982Y458962D01*
X82320Y459404D01*
X81540Y459559D01*
D02*
G37*
G36*
X146579Y469020D02*
X140040D01*
Y462481D01*
X144540D01*
X145320Y462636D01*
X145982Y463078D01*
X146424Y463740D01*
X146579Y464520D01*
Y469020D01*
D02*
G37*
G36*
X159040Y469020D02*
X152501D01*
Y464520D01*
X152656Y463740D01*
X153098Y463078D01*
X153760Y462636D01*
X154540Y462481D01*
X159040D01*
Y469020D01*
D02*
G37*
G36*
X167579D02*
X161040D01*
Y462481D01*
X165540D01*
X166320Y462636D01*
X166982Y463078D01*
X167424Y463740D01*
X167579Y464520D01*
Y469020D01*
D02*
G37*
G36*
X117040Y469020D02*
X110501D01*
Y464520D01*
X110656Y463740D01*
X111098Y463078D01*
X111760Y462636D01*
X112540Y462481D01*
X117040D01*
Y469020D01*
D02*
G37*
G36*
X125579D02*
X119040D01*
Y462481D01*
X123540D01*
X124320Y462636D01*
X124982Y463078D01*
X125424Y463740D01*
X125579Y464520D01*
Y469020D01*
D02*
G37*
G36*
X138040D02*
X131501D01*
Y464520D01*
X131656Y463740D01*
X132098Y463078D01*
X132760Y462636D01*
X133540Y462481D01*
X138040D01*
Y469020D01*
D02*
G37*
G36*
X145750Y598500D02*
X139461D01*
Y588500D01*
X139616Y587720D01*
X140058Y587058D01*
X140720Y586616D01*
X141500Y586461D01*
X145750D01*
Y598500D01*
D02*
G37*
G36*
X154039D02*
X147750D01*
Y586461D01*
X152000D01*
X152780Y586616D01*
X153442Y587058D01*
X153884Y587720D01*
X154039Y588500D01*
Y598500D01*
D02*
G37*
G36*
X175250D02*
X168961D01*
Y588500D01*
X169116Y587720D01*
X169558Y587058D01*
X170220Y586616D01*
X171000Y586461D01*
X175250D01*
Y598500D01*
D02*
G37*
G36*
X130500Y560250D02*
X126961D01*
Y558250D01*
X127116Y557470D01*
X127558Y556808D01*
X128220Y556366D01*
X129000Y556211D01*
X130500D01*
Y560250D01*
D02*
G37*
G36*
X146539D02*
X142750D01*
Y556211D01*
X144500D01*
X145280Y556366D01*
X145942Y556808D01*
X146384Y557470D01*
X146539Y558250D01*
Y560250D01*
D02*
G37*
G36*
X166500Y590582D02*
X156500D01*
X155735Y590265D01*
X155418Y589500D01*
Y579000D01*
X155735Y578235D01*
X156330Y577988D01*
Y575760D01*
X155250Y574832D01*
X148750D01*
X147985Y574515D01*
X147668Y573750D01*
Y573564D01*
X145582D01*
Y574250D01*
X145265Y575015D01*
X144500Y575332D01*
X139000D01*
X138235Y575015D01*
X137918Y574250D01*
Y573564D01*
X135082D01*
Y574250D01*
X134765Y575015D01*
X134000Y575332D01*
X129000D01*
X128235Y575015D01*
X127918Y574250D01*
Y573564D01*
X120500D01*
X119614Y573388D01*
X118863Y572887D01*
X93863Y547887D01*
X93362Y547136D01*
X93186Y546250D01*
Y536082D01*
X92750D01*
X91985Y535765D01*
X91668Y535000D01*
Y529000D01*
X91985Y528235D01*
X92750Y527918D01*
X98250D01*
X99015Y528235D01*
X99332Y529000D01*
Y535000D01*
X99015Y535765D01*
X98250Y536082D01*
X97815D01*
Y545291D01*
X121459Y568936D01*
X127918D01*
Y568250D01*
X128235Y567485D01*
X128321Y567449D01*
X128220Y566134D01*
X127558Y565692D01*
X127116Y565030D01*
X126961Y564250D01*
Y562250D01*
X131500D01*
Y561250D01*
X132500D01*
Y556211D01*
X134000D01*
X134780Y556366D01*
X135442Y556808D01*
X135836Y557397D01*
X136398Y557470D01*
X136601D01*
X137164Y557397D01*
X137558Y556808D01*
X138220Y556366D01*
X139000Y556211D01*
X140750D01*
Y561250D01*
X141750D01*
Y562250D01*
X146539D01*
Y564250D01*
X146384Y565030D01*
X145942Y565692D01*
X145280Y566134D01*
X145179Y567449D01*
X145265Y567485D01*
X145582Y568250D01*
Y568936D01*
X147668D01*
Y568750D01*
X147985Y567985D01*
X148750Y567668D01*
X155250D01*
X156330Y566740D01*
Y516250D01*
X154250D01*
X154269Y514505D01*
X153376Y513602D01*
X146540D01*
X145775Y513285D01*
X145727Y513171D01*
X144353D01*
X144305Y513285D01*
X143540Y513602D01*
X135540D01*
X134775Y513285D01*
X134727Y513171D01*
X133353D01*
X133305Y513285D01*
X132540Y513602D01*
X124540D01*
X123775Y513285D01*
X123727Y513171D01*
X122353D01*
X122305Y513285D01*
X121540Y513602D01*
X113540D01*
X112775Y513285D01*
X112727Y513171D01*
X111353D01*
X111305Y513285D01*
X110540Y513602D01*
X102540D01*
X101775Y513285D01*
X101727Y513171D01*
X100353D01*
X100305Y513285D01*
X99540Y513602D01*
X97815D01*
Y517918D01*
X98250D01*
X99015Y518235D01*
X99332Y519000D01*
Y525000D01*
X99015Y525765D01*
X98250Y526082D01*
X92750D01*
X91985Y525765D01*
X91668Y525000D01*
Y519000D01*
X91985Y518235D01*
X92750Y517918D01*
X93186D01*
Y513602D01*
X91540D01*
X90775Y513285D01*
X90727Y513171D01*
X89353D01*
X89305Y513285D01*
X88540Y513602D01*
X80540D01*
X79775Y513285D01*
X79727Y513171D01*
X78353D01*
X78305Y513285D01*
X77540Y513602D01*
X69540D01*
X68775Y513285D01*
X68458Y512520D01*
Y502172D01*
X67439Y501484D01*
X67188Y501430D01*
X66540Y501559D01*
X60040D01*
Y495520D01*
X59040D01*
Y494520D01*
X49501D01*
Y491520D01*
X49656Y490740D01*
X50098Y490078D01*
X50691Y489383D01*
X50458Y488520D01*
Y480520D01*
X50691Y479657D01*
X50098Y478962D01*
X49656Y478300D01*
X49501Y477520D01*
Y474520D01*
X59040D01*
Y472520D01*
X49501D01*
Y469520D01*
X49656Y468740D01*
X50098Y468078D01*
X50691Y467383D01*
X50458Y466520D01*
Y465732D01*
X49560Y464835D01*
X37332D01*
Y465750D01*
X37015Y466515D01*
X36250Y466832D01*
X30750D01*
X29985Y466515D01*
X29668Y465750D01*
Y459750D01*
X29985Y458985D01*
X30750Y458668D01*
X36250D01*
X37015Y458985D01*
X37332Y459750D01*
Y460205D01*
X50458D01*
Y458520D01*
X50691Y457657D01*
X50098Y456962D01*
X49656Y456300D01*
X49501Y455520D01*
Y452520D01*
X59040D01*
Y450520D01*
X49501D01*
Y447520D01*
X49656Y446740D01*
X50098Y446078D01*
X50691Y445383D01*
X50458Y444520D01*
Y436520D01*
X50775Y435755D01*
X50889Y435707D01*
Y434333D01*
X50775Y434285D01*
X50458Y433520D01*
Y425520D01*
X50775Y424755D01*
X50889Y424707D01*
Y423333D01*
X50775Y423285D01*
X50458Y422520D01*
Y414520D01*
X50775Y413755D01*
X50889Y413707D01*
Y412333D01*
X50775Y412285D01*
X50458Y411520D01*
Y403520D01*
X50775Y402755D01*
X50889Y402707D01*
Y401333D01*
X50775Y401285D01*
X50458Y400520D01*
Y398834D01*
X44439D01*
X23361Y419912D01*
X23281Y420519D01*
X22425Y422587D01*
X21062Y424362D01*
X19287Y425725D01*
X17219Y426581D01*
X15000Y426873D01*
X12781Y426581D01*
X10713Y425725D01*
X8938Y424362D01*
X7575Y422587D01*
X6719Y420519D01*
X6427Y418300D01*
X6719Y416081D01*
X7575Y414013D01*
X8938Y412238D01*
X10713Y410875D01*
X12781Y410019D01*
X15000Y409727D01*
X17219Y410019D01*
X19287Y410875D01*
X21062Y412238D01*
X21770Y413161D01*
X23444Y413283D01*
X41843Y394883D01*
X42594Y394382D01*
X43480Y394206D01*
X50458D01*
Y392520D01*
X50775Y391755D01*
X50889Y391707D01*
Y390333D01*
X50775Y390285D01*
X50458Y389520D01*
Y387835D01*
X40439D01*
X34137Y394137D01*
X33386Y394638D01*
X32500Y394814D01*
X23321D01*
X23281Y395119D01*
X22425Y397187D01*
X21062Y398962D01*
X19287Y400325D01*
X17219Y401181D01*
X15000Y401473D01*
X12781Y401181D01*
X10713Y400325D01*
X8938Y398962D01*
X7575Y397187D01*
X6719Y395119D01*
X6427Y392900D01*
X6719Y390681D01*
X7575Y388613D01*
X8938Y386838D01*
X10713Y385475D01*
X12781Y384619D01*
X15000Y384327D01*
X17219Y384619D01*
X19287Y385475D01*
X21062Y386838D01*
X22425Y388613D01*
X23076Y390186D01*
X31541D01*
X37843Y383883D01*
X38594Y383382D01*
X39480Y383205D01*
X50458D01*
Y381520D01*
X50775Y380755D01*
X50889Y380707D01*
Y379333D01*
X50775Y379285D01*
X50458Y378520D01*
Y376834D01*
X42020D01*
X41134Y376658D01*
X40383Y376157D01*
X34041Y369814D01*
X23242D01*
X22425Y371787D01*
X21062Y373562D01*
X19287Y374925D01*
X17219Y375781D01*
X15000Y376073D01*
X12781Y375781D01*
X10713Y374925D01*
X8938Y373562D01*
X7575Y371787D01*
X6719Y369719D01*
X6427Y367500D01*
X6719Y365281D01*
X7575Y363213D01*
X8938Y361438D01*
X10713Y360075D01*
X12781Y359219D01*
X15000Y358927D01*
X17219Y359219D01*
X19287Y360075D01*
X21062Y361438D01*
X22425Y363213D01*
X23242Y365186D01*
X35000D01*
X35886Y365362D01*
X36637Y365863D01*
X42979Y372206D01*
X50458D01*
Y370520D01*
X50775Y369755D01*
X50889Y369707D01*
Y368333D01*
X50775Y368285D01*
X50458Y367520D01*
Y365835D01*
X48520D01*
X47634Y365658D01*
X46883Y365157D01*
X26141Y344414D01*
X23242D01*
X22425Y346387D01*
X21062Y348162D01*
X19287Y349525D01*
X17219Y350381D01*
X15000Y350673D01*
X12781Y350381D01*
X10713Y349525D01*
X8938Y348162D01*
X7575Y346387D01*
X6719Y344319D01*
X6427Y342100D01*
X6719Y339881D01*
X7575Y337813D01*
X8938Y336038D01*
X10713Y334675D01*
X12781Y333819D01*
X15000Y333527D01*
X17219Y333819D01*
X19287Y334675D01*
X21062Y336038D01*
X22425Y337813D01*
X23242Y339785D01*
X27100D01*
X27986Y339962D01*
X28737Y340463D01*
X49188Y360914D01*
X50458Y360503D01*
Y359520D01*
X50691Y358657D01*
X50098Y357962D01*
X49656Y357300D01*
X49501Y356520D01*
Y353520D01*
X59040D01*
Y351520D01*
X49501D01*
Y348520D01*
X49656Y347740D01*
X50098Y347078D01*
X50691Y346383D01*
X50458Y345520D01*
Y337520D01*
X50775Y336755D01*
X50889Y336707D01*
Y335333D01*
X50775Y335285D01*
X50458Y334520D01*
Y332835D01*
X45520D01*
X44634Y332658D01*
X43883Y332157D01*
X30741Y319014D01*
X23242D01*
X22425Y320987D01*
X21062Y322762D01*
X19287Y324125D01*
X17219Y324981D01*
X15000Y325273D01*
X12781Y324981D01*
X10713Y324125D01*
X8938Y322762D01*
X7575Y320987D01*
X6719Y318919D01*
X6427Y316700D01*
X6719Y314481D01*
X7575Y312413D01*
X8938Y310638D01*
X10713Y309275D01*
X12781Y308419D01*
X15000Y308127D01*
X17219Y308419D01*
X19287Y309275D01*
X21062Y310638D01*
X22425Y312413D01*
X23242Y314386D01*
X31700D01*
X32586Y314562D01*
X33337Y315063D01*
X46479Y328205D01*
X50458D01*
Y326520D01*
X50775Y325755D01*
X50889Y325707D01*
Y324333D01*
X50775Y324285D01*
X50458Y323520D01*
Y315520D01*
X50775Y314755D01*
X50889Y314707D01*
Y313333D01*
X50775Y313285D01*
X50458Y312520D01*
Y310835D01*
X48520D01*
X47634Y310658D01*
X46883Y310157D01*
X39022Y302295D01*
X37500Y302598D01*
X35549Y302210D01*
X33895Y301105D01*
X32790Y299451D01*
X32402Y297500D01*
X32705Y295978D01*
X30341Y293615D01*
X23242D01*
X22425Y295587D01*
X21062Y297362D01*
X19287Y298725D01*
X17219Y299581D01*
X15000Y299873D01*
X12781Y299581D01*
X10713Y298725D01*
X8938Y297362D01*
X7575Y295587D01*
X6719Y293519D01*
X6427Y291300D01*
X6719Y289081D01*
X7575Y287013D01*
X8938Y285238D01*
X10713Y283875D01*
X12781Y283019D01*
X15000Y282727D01*
X17219Y283019D01*
X19287Y283875D01*
X21062Y285238D01*
X22425Y287013D01*
X23242Y288986D01*
X31300D01*
X32186Y289162D01*
X32937Y289663D01*
X35978Y292705D01*
X37500Y292402D01*
X39451Y292790D01*
X41105Y293895D01*
X42210Y295549D01*
X42598Y297500D01*
X42295Y299022D01*
X49188Y305914D01*
X50458Y305503D01*
Y304520D01*
X50775Y303755D01*
X50889Y303707D01*
Y302333D01*
X50775Y302285D01*
X50458Y301520D01*
Y293520D01*
X50691Y292657D01*
X50098Y291962D01*
X49656Y291300D01*
X49501Y290520D01*
Y287520D01*
X59040D01*
Y285520D01*
X49501D01*
Y282520D01*
X49656Y281740D01*
X50065Y281020D01*
X49656Y280300D01*
X49501Y279520D01*
Y276520D01*
X59040D01*
Y275520D01*
X60040D01*
Y269481D01*
X66540D01*
X67501Y268377D01*
Y267020D01*
X73540D01*
Y266020D01*
X74540D01*
Y256481D01*
X77540D01*
X78320Y256636D01*
X78982Y257078D01*
X79677Y257671D01*
X80540Y257438D01*
X88540D01*
X89305Y257755D01*
X89353Y257869D01*
X90727D01*
X90775Y257755D01*
X91540Y257438D01*
X93225D01*
Y253999D01*
X91541Y252314D01*
X31859D01*
X22464Y261709D01*
X23281Y263681D01*
X23573Y265900D01*
X23281Y268119D01*
X22425Y270187D01*
X21062Y271962D01*
X19287Y273325D01*
X17219Y274181D01*
X15000Y274473D01*
X12781Y274181D01*
X10713Y273325D01*
X8938Y271962D01*
X7575Y270187D01*
X6719Y268119D01*
X6427Y265900D01*
X6719Y263681D01*
X7575Y261613D01*
X8938Y259838D01*
X10713Y258475D01*
X12781Y257619D01*
X15000Y257327D01*
X17219Y257619D01*
X19191Y258436D01*
X29042Y248584D01*
X28831Y247724D01*
X28553Y247314D01*
X20082D01*
X19287Y247925D01*
X17219Y248781D01*
X15000Y249073D01*
X12781Y248781D01*
X10713Y247925D01*
X8938Y246562D01*
X7575Y244787D01*
X6719Y242719D01*
X6427Y240500D01*
X6719Y238281D01*
X7575Y236213D01*
X8938Y234438D01*
X10713Y233075D01*
X12781Y232219D01*
X15000Y231927D01*
X17219Y232219D01*
X19287Y233075D01*
X21062Y234438D01*
X22425Y236213D01*
X23281Y238281D01*
X23573Y240500D01*
X23411Y241731D01*
X24249Y242686D01*
X37553D01*
X37831Y242276D01*
X38042Y241416D01*
X19191Y222564D01*
X17219Y223381D01*
X15000Y223673D01*
X12781Y223381D01*
X10713Y222525D01*
X8938Y221162D01*
X7575Y219387D01*
X6719Y217319D01*
X6427Y215100D01*
X6719Y212881D01*
X7575Y210813D01*
X8938Y209038D01*
X10713Y207675D01*
X12781Y206819D01*
X15000Y206527D01*
X17219Y206819D01*
X19287Y207675D01*
X21062Y209038D01*
X22425Y210813D01*
X23281Y212881D01*
X23573Y215100D01*
X23281Y217319D01*
X22464Y219291D01*
X40859Y237686D01*
X112500D01*
X113386Y237862D01*
X114137Y238363D01*
X130176Y254403D01*
X130678Y255154D01*
X130854Y256040D01*
Y257438D01*
X132540D01*
X133305Y257755D01*
X133353Y257869D01*
X134727D01*
X134775Y257755D01*
X135540Y257438D01*
X143540D01*
X144305Y257755D01*
X144353Y257869D01*
X145727D01*
X145775Y257755D01*
X146540Y257438D01*
X154540D01*
X155403Y257671D01*
X156098Y257078D01*
X156760Y256636D01*
X157540Y256481D01*
X160540D01*
Y266020D01*
X162540D01*
Y256481D01*
X165540D01*
X166320Y256636D01*
X166982Y257078D01*
X167677Y257671D01*
X168540Y257438D01*
X176540D01*
X177403Y257671D01*
X178098Y257078D01*
X178760Y256636D01*
X179540Y256481D01*
X182540D01*
Y266020D01*
X183540D01*
Y267020D01*
X189579D01*
Y269461D01*
X190540Y270438D01*
X205540D01*
X206305Y270755D01*
X206622Y271520D01*
Y279520D01*
X206305Y280285D01*
X206191Y280333D01*
Y281707D01*
X206305Y281755D01*
X206622Y282520D01*
Y290520D01*
X206305Y291285D01*
X206191Y291333D01*
Y292707D01*
X206305Y292755D01*
X206622Y293520D01*
Y301520D01*
X206305Y302285D01*
X206191Y302333D01*
Y303707D01*
X206305Y303755D01*
X206622Y304520D01*
Y312520D01*
X206305Y313285D01*
X206191Y313333D01*
Y314707D01*
X206305Y314755D01*
X206622Y315520D01*
Y323520D01*
X206305Y324285D01*
X206191Y324333D01*
Y325707D01*
X206305Y325755D01*
X206622Y326520D01*
Y328205D01*
X221452D01*
X221830Y327293D01*
X223008Y325758D01*
X224543Y324580D01*
X226331Y323839D01*
X228250Y323587D01*
X230169Y323839D01*
X231957Y324580D01*
X233492Y325758D01*
X234670Y327293D01*
X235411Y329081D01*
X235663Y331000D01*
X235411Y332919D01*
X234670Y334707D01*
X233492Y336242D01*
X231957Y337420D01*
X230169Y338161D01*
X228250Y338413D01*
X226331Y338161D01*
X224543Y337420D01*
X223185Y336378D01*
X222279Y337284D01*
X222670Y337793D01*
X223411Y339581D01*
X223663Y341500D01*
X223411Y343419D01*
X222670Y345207D01*
X221492Y346742D01*
X219957Y347920D01*
X218169Y348661D01*
X216250Y348913D01*
X214331Y348661D01*
X212543Y347920D01*
X211008Y346742D01*
X209830Y345207D01*
X209261Y343834D01*
X206622D01*
Y345520D01*
X206305Y346285D01*
X206191Y346333D01*
Y347707D01*
X206305Y347755D01*
X206622Y348520D01*
Y350205D01*
X221075D01*
X221716Y348657D01*
X222894Y347121D01*
X224430Y345943D01*
X226218Y345203D01*
X228137Y344950D01*
X230055Y345203D01*
X231843Y345943D01*
X233379Y347121D01*
X234557Y348657D01*
X235297Y350445D01*
X235550Y352363D01*
X235297Y354282D01*
X234557Y356070D01*
X233379Y357606D01*
X231843Y358784D01*
X230055Y359524D01*
X228137Y359777D01*
X226218Y359524D01*
X224430Y358784D01*
X222894Y357606D01*
X221716Y356070D01*
X221204Y354834D01*
X216804D01*
X216701Y354931D01*
X217129Y356268D01*
X217669Y356339D01*
X219457Y357080D01*
X220992Y358258D01*
X222170Y359793D01*
X222911Y361581D01*
X223163Y363500D01*
X222911Y365419D01*
X222170Y367207D01*
X220992Y368742D01*
X219457Y369920D01*
X217669Y370661D01*
X215750Y370913D01*
X213831Y370661D01*
X212043Y369920D01*
X210508Y368742D01*
X209330Y367207D01*
X208761Y365834D01*
X206622D01*
Y367520D01*
X206305Y368285D01*
X206191Y368333D01*
Y369707D01*
X206305Y369755D01*
X206622Y370520D01*
Y378520D01*
X206389Y379383D01*
X206982Y380078D01*
X207424Y380740D01*
X207579Y381520D01*
Y384520D01*
X198040D01*
X188501D01*
Y381520D01*
X188656Y380740D01*
X189098Y380078D01*
X189691Y379383D01*
X189458Y378520D01*
Y370520D01*
X189775Y369755D01*
X189889Y369707D01*
Y368333D01*
X189775Y368285D01*
X189458Y367520D01*
Y362039D01*
X188188Y361654D01*
X187982Y361962D01*
X187320Y362404D01*
X186540Y362559D01*
X182040D01*
Y355020D01*
Y347481D01*
X186540D01*
X187320Y347636D01*
X187982Y348078D01*
X188222Y348437D01*
X188672Y348467D01*
X189466Y348338D01*
X189546Y348307D01*
X189775Y347755D01*
X189889Y347707D01*
Y346333D01*
X189775Y346285D01*
X189458Y345520D01*
Y337520D01*
X189775Y336755D01*
X189889Y336707D01*
Y335333D01*
X189775Y335285D01*
X189458Y334520D01*
Y326520D01*
X189775Y325755D01*
X189458Y325335D01*
X189171Y325326D01*
X188311Y325470D01*
X187982Y325962D01*
X187320Y326404D01*
X186540Y326559D01*
X182040D01*
Y319020D01*
Y311481D01*
X186540D01*
X187320Y311636D01*
X187982Y312078D01*
X188188Y312386D01*
X189458Y312001D01*
Y308039D01*
X188188Y307654D01*
X187982Y307962D01*
X187320Y308404D01*
X186540Y308559D01*
X182040D01*
Y301020D01*
Y293481D01*
X186540D01*
X187320Y293636D01*
X187982Y294078D01*
X188188Y294386D01*
X189458Y294001D01*
Y293520D01*
X189775Y292755D01*
X189889Y292707D01*
Y291333D01*
X189775Y291285D01*
X189458Y290520D01*
Y290039D01*
X188188Y289654D01*
X187982Y289962D01*
X187320Y290404D01*
X186540Y290559D01*
X182040D01*
Y283020D01*
X181040D01*
Y282020D01*
X173501D01*
Y277520D01*
X173656Y276740D01*
X174098Y276078D01*
X174406Y275872D01*
X174021Y274602D01*
X168540D01*
X168048Y274469D01*
X166982Y275315D01*
X166982Y276078D01*
X167424Y276740D01*
X167579Y277520D01*
Y282020D01*
X160040D01*
X152501D01*
Y277520D01*
X152656Y276740D01*
X153098Y276078D01*
X153406Y275872D01*
X153021Y274602D01*
X146540D01*
X145775Y274285D01*
X145355Y274602D01*
X145345Y274889D01*
X145490Y275749D01*
X145982Y276078D01*
X146424Y276740D01*
X146579Y277520D01*
Y282020D01*
X139040D01*
X131501D01*
Y277520D01*
X131656Y276740D01*
X132098Y276078D01*
X132406Y275872D01*
X132021Y274602D01*
X125059D01*
X124674Y275872D01*
X124982Y276078D01*
X125424Y276740D01*
X125579Y277520D01*
Y282020D01*
X118040D01*
X110501D01*
Y277520D01*
X110656Y276740D01*
X111098Y276078D01*
X111590Y275749D01*
X111735Y274889D01*
X111725Y274602D01*
X111305Y274285D01*
X110540Y274602D01*
X104059D01*
X103674Y275872D01*
X103982Y276078D01*
X104424Y276740D01*
X104579Y277520D01*
Y282020D01*
X97040D01*
X89501D01*
Y277520D01*
X89656Y276740D01*
X90098Y276078D01*
X90027Y274743D01*
X89305Y274285D01*
X88540Y274602D01*
X83059D01*
X82674Y275872D01*
X82982Y276078D01*
X83424Y276740D01*
X83579Y277520D01*
Y282020D01*
X76040D01*
Y283020D01*
X75040D01*
Y290559D01*
X70540D01*
X69849Y290422D01*
X69692Y290429D01*
X68470Y291070D01*
X68424Y291300D01*
X67982Y291962D01*
X67389Y292657D01*
X67622Y293520D01*
Y294001D01*
X68892Y294386D01*
X69098Y294078D01*
X69760Y293636D01*
X70540Y293481D01*
X75040D01*
Y301020D01*
Y308559D01*
X70540D01*
X69760Y308404D01*
X69098Y307962D01*
X68892Y307654D01*
X67622Y308039D01*
Y312001D01*
X68892Y312386D01*
X69098Y312078D01*
X69760Y311636D01*
X70540Y311481D01*
X75040D01*
Y319020D01*
Y326559D01*
X70540D01*
X69760Y326404D01*
X69098Y325962D01*
X68769Y325470D01*
X67909Y325326D01*
X67622Y325335D01*
X67305Y325755D01*
X67622Y326520D01*
Y334520D01*
X67305Y335285D01*
X67191Y335333D01*
Y336707D01*
X67305Y336755D01*
X67622Y337520D01*
Y345520D01*
X67389Y346383D01*
X67982Y347078D01*
X68137Y347309D01*
X68659Y347727D01*
X69705Y347672D01*
X69760Y347636D01*
X70540Y347481D01*
X75040D01*
Y355020D01*
Y362559D01*
X70540D01*
X69760Y362404D01*
X69098Y361962D01*
X68892Y361654D01*
X67622Y362039D01*
Y367520D01*
X67305Y368285D01*
X67191Y368333D01*
Y369707D01*
X67305Y369755D01*
X67622Y370520D01*
Y378520D01*
X67305Y379285D01*
X67191Y379333D01*
Y380707D01*
X67305Y380755D01*
X67622Y381520D01*
Y389520D01*
X67305Y390285D01*
X67191Y390333D01*
Y391707D01*
X67305Y391755D01*
X67622Y392520D01*
Y400520D01*
X67305Y401285D01*
X67191Y401333D01*
Y402707D01*
X67305Y402755D01*
X67622Y403520D01*
Y409001D01*
X68892Y409386D01*
X69098Y409078D01*
X69760Y408636D01*
X70540Y408481D01*
X75040D01*
Y416020D01*
Y423559D01*
X70540D01*
X69760Y423404D01*
X69098Y422962D01*
X68858Y422603D01*
X68408Y422573D01*
X67614Y422702D01*
X67534Y422733D01*
X67305Y423285D01*
X67191Y423333D01*
Y424707D01*
X67305Y424755D01*
X67622Y425520D01*
Y433520D01*
X67305Y434285D01*
X67191Y434333D01*
Y435707D01*
X67305Y435755D01*
X67622Y436520D01*
Y444520D01*
X67764Y444734D01*
X68091Y444894D01*
X68135Y444902D01*
X69253Y444975D01*
X69760Y444636D01*
X70540Y444481D01*
X75040D01*
Y452020D01*
Y459559D01*
X70540D01*
X69760Y459404D01*
X69098Y458962D01*
X68892Y458654D01*
X67622Y459039D01*
Y463001D01*
X68892Y463386D01*
X69098Y463078D01*
X69760Y462636D01*
X70540Y462481D01*
X75040D01*
Y470020D01*
Y477559D01*
X70540D01*
X69849Y477422D01*
X69692Y477429D01*
X68470Y478070D01*
X68424Y478300D01*
X67982Y478962D01*
X67389Y479657D01*
X67622Y480520D01*
Y481001D01*
X68892Y481386D01*
X69098Y481078D01*
X69760Y480636D01*
X70540Y480481D01*
X75040D01*
Y488020D01*
X76040D01*
Y489020D01*
X83579D01*
Y493520D01*
X83424Y494300D01*
X82982Y494962D01*
X82674Y495168D01*
X83059Y496438D01*
X88540D01*
X89305Y496755D01*
X90027Y496297D01*
X90098Y494962D01*
X89656Y494300D01*
X89501Y493520D01*
Y489020D01*
X97040D01*
X104579D01*
Y493520D01*
X104424Y494300D01*
X103982Y494962D01*
X103674Y495168D01*
X104059Y496438D01*
X110540D01*
X111305Y496755D01*
X111725Y496438D01*
X111735Y496151D01*
X111590Y495291D01*
X111098Y494962D01*
X110656Y494300D01*
X110501Y493520D01*
Y489020D01*
X118040D01*
X125579D01*
Y493520D01*
X125424Y494300D01*
X124982Y494962D01*
X124674Y495168D01*
X125059Y496438D01*
X132021D01*
X132406Y495168D01*
X132098Y494962D01*
X131656Y494300D01*
X131501Y493520D01*
Y489020D01*
X139040D01*
X146579D01*
Y493520D01*
X146424Y494300D01*
X145982Y494962D01*
X145490Y495291D01*
X145345Y496151D01*
X145355Y496438D01*
X145775Y496755D01*
X146540Y496438D01*
X153021D01*
X153406Y495168D01*
X153098Y494962D01*
X152656Y494300D01*
X152501Y493520D01*
Y489020D01*
X160040D01*
X167579D01*
Y493500D01*
X168750D01*
Y496438D01*
X174021D01*
X174406Y495168D01*
X174098Y494962D01*
X173656Y494300D01*
X173501Y493520D01*
Y489020D01*
X181040D01*
Y488020D01*
X182040D01*
Y480481D01*
X186540D01*
X187320Y480636D01*
X187982Y481078D01*
X188188Y481386D01*
X189458Y481001D01*
Y480520D01*
X189775Y479755D01*
X189889Y479707D01*
Y478333D01*
X189775Y478285D01*
X189458Y477520D01*
Y477039D01*
X188188Y476654D01*
X187982Y476962D01*
X187320Y477404D01*
X186540Y477559D01*
X182040D01*
Y470020D01*
Y462481D01*
X186540D01*
X187231Y462618D01*
X187359Y462612D01*
X188501Y461897D01*
Y460143D01*
X187359Y459428D01*
X187231Y459422D01*
X186540Y459559D01*
X182040D01*
Y452020D01*
Y444481D01*
X186540D01*
X187320Y444636D01*
X187982Y445078D01*
X188311Y445570D01*
X189171Y445714D01*
X189458Y445705D01*
X189775Y445285D01*
X189458Y444520D01*
Y436520D01*
X189775Y435755D01*
X189889Y435707D01*
Y434333D01*
X189775Y434285D01*
X189458Y433520D01*
Y425520D01*
X189775Y424755D01*
X189889Y424707D01*
Y423333D01*
X189775Y423285D01*
X189546Y422733D01*
X189466Y422702D01*
X188672Y422573D01*
X188222Y422603D01*
X187982Y422962D01*
X187320Y423404D01*
X186540Y423559D01*
X182040D01*
Y416020D01*
Y408481D01*
X186540D01*
X187320Y408636D01*
X187982Y409078D01*
X188188Y409386D01*
X189458Y409001D01*
Y403520D01*
X189775Y402755D01*
X189889Y402707D01*
Y401333D01*
X189775Y401285D01*
X189458Y400520D01*
Y392520D01*
X189691Y391657D01*
X189098Y390962D01*
X188656Y390300D01*
X188501Y389520D01*
Y386520D01*
X198040D01*
X207579D01*
Y389520D01*
X207424Y390300D01*
X206982Y390962D01*
X206389Y391657D01*
X206622Y392520D01*
Y400520D01*
X206305Y401285D01*
X206191Y401333D01*
Y402707D01*
X206305Y402755D01*
X206622Y403520D01*
Y411520D01*
X206305Y412285D01*
X206191Y412333D01*
Y413707D01*
X206305Y413755D01*
X206622Y414520D01*
Y422520D01*
X206305Y423285D01*
X206191Y423333D01*
Y424707D01*
X206305Y424755D01*
X206622Y425520D01*
Y433520D01*
X206305Y434285D01*
X206191Y434333D01*
Y435707D01*
X206305Y435755D01*
X206622Y436520D01*
Y444520D01*
X206305Y445285D01*
X206191Y445333D01*
Y446707D01*
X206305Y446755D01*
X206622Y447520D01*
Y455520D01*
X206389Y456383D01*
X206982Y457078D01*
X207424Y457740D01*
X207579Y458520D01*
Y461520D01*
X198040D01*
Y463520D01*
X207579D01*
Y466520D01*
X207424Y467300D01*
X206982Y467962D01*
X206389Y468657D01*
X206622Y469520D01*
X207054Y469951D01*
X209435D01*
X210799Y469040D01*
X212750Y468652D01*
X214701Y469040D01*
X216355Y470145D01*
X217460Y471799D01*
X217848Y473750D01*
X217460Y475701D01*
X216355Y477355D01*
X214701Y478460D01*
X213859Y478627D01*
Y479922D01*
X214451Y480040D01*
X216105Y481145D01*
X217210Y482799D01*
X217598Y484750D01*
X217210Y486701D01*
X216105Y488355D01*
X214451Y489460D01*
X214362Y489478D01*
Y490772D01*
X214451Y490790D01*
X216105Y491895D01*
X217210Y493549D01*
X217598Y495500D01*
X217210Y497451D01*
X216105Y499105D01*
X214451Y500210D01*
X212500Y500598D01*
X210549Y500210D01*
X208895Y499105D01*
X208884Y499089D01*
X206622D01*
Y499520D01*
X206305Y500285D01*
X205540Y500602D01*
X190540D01*
X189892Y500334D01*
X188622Y500793D01*
Y512520D01*
X188305Y513285D01*
X187540Y513602D01*
X179540D01*
X178775Y513285D01*
X178727Y513171D01*
X177353D01*
X177305Y513285D01*
X176540Y513602D01*
X168750D01*
Y516250D01*
X166670D01*
Y535405D01*
X167750Y536461D01*
X170000D01*
Y541000D01*
Y545539D01*
X167750D01*
X166670Y546595D01*
Y577988D01*
X167265Y578235D01*
X167582Y579000D01*
Y589500D01*
X167265Y590265D01*
X166500Y590582D01*
D02*
G37*
G36*
X152000Y612539D02*
X147750D01*
Y600500D01*
X154039D01*
Y610500D01*
X153884Y611280D01*
X153442Y611942D01*
X152780Y612384D01*
X152000Y612539D01*
D02*
G37*
G36*
X175250D02*
X171000D01*
X170220Y612384D01*
X169558Y611942D01*
X169116Y611280D01*
X168961Y610500D01*
Y600500D01*
X175250D01*
Y612539D01*
D02*
G37*
G36*
X181500D02*
X177250D01*
Y600500D01*
X183539D01*
Y610500D01*
X183384Y611280D01*
X182942Y611942D01*
X182280Y612384D01*
X181500Y612539D01*
D02*
G37*
G36*
X183539Y598500D02*
X177250D01*
Y586461D01*
X181500D01*
X182280Y586616D01*
X182942Y587058D01*
X183384Y587720D01*
X183539Y588500D01*
Y598500D01*
D02*
G37*
G36*
X230250Y613895D02*
X227365Y613516D01*
X224677Y612402D01*
X222369Y610631D01*
X220598Y608323D01*
X219484Y605635D01*
X219105Y602750D01*
X219484Y599865D01*
X220598Y597177D01*
X222369Y594869D01*
X224677Y593098D01*
X227365Y591984D01*
X230250Y591605D01*
X233135Y591984D01*
X235823Y593098D01*
X238131Y594869D01*
X239902Y597177D01*
X241016Y599865D01*
X241395Y602750D01*
X241016Y605635D01*
X239902Y608323D01*
X238131Y610631D01*
X235823Y612402D01*
X233135Y613516D01*
X230250Y613895D01*
D02*
G37*
G36*
X145750Y612539D02*
X141500D01*
X140720Y612384D01*
X140058Y611942D01*
X139616Y611280D01*
X139461Y610500D01*
Y600500D01*
X145750D01*
Y612539D01*
D02*
G37*
G36*
X125579Y487020D02*
X119040D01*
Y480481D01*
X123540D01*
X124320Y480636D01*
X124982Y481078D01*
X125424Y481740D01*
X125579Y482520D01*
Y487020D01*
D02*
G37*
G36*
X138040D02*
X131501D01*
Y482520D01*
X131656Y481740D01*
X132098Y481078D01*
X132760Y480636D01*
X133540Y480481D01*
X138040D01*
Y487020D01*
D02*
G37*
G36*
X146579D02*
X140040D01*
Y480481D01*
X144540D01*
X145320Y480636D01*
X145982Y481078D01*
X146424Y481740D01*
X146579Y482520D01*
Y487020D01*
D02*
G37*
G36*
X96040Y487020D02*
X89501D01*
Y482520D01*
X89656Y481740D01*
X90098Y481078D01*
X90760Y480636D01*
X91540Y480481D01*
X96040D01*
Y487020D01*
D02*
G37*
G36*
X104579D02*
X98040D01*
Y480481D01*
X102540D01*
X103320Y480636D01*
X103982Y481078D01*
X104424Y481740D01*
X104579Y482520D01*
Y487020D01*
D02*
G37*
G36*
X117040Y487020D02*
X110501D01*
Y482520D01*
X110656Y481740D01*
X111098Y481078D01*
X111760Y480636D01*
X112540Y480481D01*
X117040D01*
Y487020D01*
D02*
G37*
G36*
X58040Y501559D02*
X51540D01*
X50760Y501404D01*
X50098Y500962D01*
X49656Y500300D01*
X49501Y499520D01*
Y496520D01*
X58040D01*
Y501559D01*
D02*
G37*
G36*
X176289Y540000D02*
X172000D01*
Y536461D01*
X174250D01*
X175030Y536616D01*
X175692Y537058D01*
X176134Y537720D01*
X176289Y538500D01*
Y540000D01*
D02*
G37*
G36*
X174250Y545539D02*
X172000D01*
Y542000D01*
X176289D01*
Y543500D01*
X176134Y544280D01*
X175692Y544942D01*
X175030Y545384D01*
X174250Y545539D01*
D02*
G37*
G36*
X159040Y487020D02*
X152501D01*
Y482520D01*
X152656Y481740D01*
X153098Y481078D01*
X153760Y480636D01*
X154540Y480481D01*
X159040D01*
Y487020D01*
D02*
G37*
G36*
X167579D02*
X161040D01*
Y480481D01*
X165540D01*
X166320Y480636D01*
X166982Y481078D01*
X167424Y481740D01*
X167579Y482520D01*
Y487020D01*
D02*
G37*
G36*
X180040D02*
X173501D01*
Y482520D01*
X173656Y481740D01*
X174098Y481078D01*
X174760Y480636D01*
X175540Y480481D01*
X180040D01*
Y487020D01*
D02*
G37*
G36*
X159250Y457169D02*
X157909Y456902D01*
X155924Y455576D01*
X154598Y453591D01*
X154331Y452250D01*
X159250D01*
Y457169D01*
D02*
G37*
G36*
X138000Y325169D02*
X136659Y324902D01*
X134674Y323576D01*
X133348Y321591D01*
X133081Y320250D01*
X138000D01*
Y325169D01*
D02*
G37*
G36*
X140000D02*
Y320250D01*
X144919D01*
X144652Y321591D01*
X143326Y323576D01*
X141341Y324902D01*
X140000Y325169D01*
D02*
G37*
G36*
X95750Y325419D02*
X94409Y325152D01*
X92424Y323826D01*
X91098Y321841D01*
X90831Y320500D01*
X95750D01*
Y325419D01*
D02*
G37*
G36*
X166419Y318750D02*
X161500D01*
Y313831D01*
X162841Y314098D01*
X164826Y315424D01*
X166152Y317409D01*
X166419Y318750D01*
D02*
G37*
G36*
X180040Y326559D02*
X175540D01*
X174760Y326404D01*
X174098Y325962D01*
X173656Y325300D01*
X173501Y324520D01*
Y320020D01*
X180040D01*
Y326559D01*
D02*
G37*
G36*
X81540D02*
X77040D01*
Y320020D01*
X83579D01*
Y324520D01*
X83424Y325300D01*
X82982Y325962D01*
X82320Y326404D01*
X81540Y326559D01*
D02*
G37*
G36*
X159500Y325669D02*
X158159Y325402D01*
X156174Y324076D01*
X154848Y322091D01*
X154581Y320750D01*
X159500D01*
Y325669D01*
D02*
G37*
G36*
X161500D02*
Y320750D01*
X166419D01*
X166152Y322091D01*
X164826Y324076D01*
X162841Y325402D01*
X161500Y325669D01*
D02*
G37*
G36*
X83579Y354020D02*
X77040D01*
Y347481D01*
X81540D01*
X82320Y347636D01*
X82982Y348078D01*
X83424Y348740D01*
X83579Y349520D01*
Y354020D01*
D02*
G37*
G36*
X97750Y325419D02*
Y320500D01*
X102669D01*
X102402Y321841D01*
X101076Y323826D01*
X99091Y325152D01*
X97750Y325419D01*
D02*
G37*
G36*
X117250D02*
X115909Y325152D01*
X113924Y323826D01*
X112598Y321841D01*
X112331Y320500D01*
X117250D01*
Y325419D01*
D02*
G37*
G36*
X119250D02*
Y320500D01*
X124169D01*
X123902Y321841D01*
X122576Y323826D01*
X120591Y325152D01*
X119250Y325419D01*
D02*
G37*
G36*
X83579Y318020D02*
X77040D01*
Y311481D01*
X81540D01*
X82320Y311636D01*
X82982Y312078D01*
X83424Y312740D01*
X83579Y313520D01*
Y318020D01*
D02*
G37*
G36*
X180040D02*
X173501D01*
Y313520D01*
X173656Y312740D01*
X174098Y312078D01*
X174760Y311636D01*
X175540Y311481D01*
X180040D01*
Y318020D01*
D02*
G37*
G36*
X138000Y318250D02*
X133081D01*
X133348Y316909D01*
X134674Y314924D01*
X136659Y313598D01*
X138000Y313331D01*
Y318250D01*
D02*
G37*
G36*
X138040Y308559D02*
X133540D01*
X132760Y308404D01*
X132098Y307962D01*
X131656Y307300D01*
X131501Y306520D01*
Y302020D01*
X138040D01*
Y308559D01*
D02*
G37*
G36*
X123540D02*
X119040D01*
Y302020D01*
X125579D01*
Y306520D01*
X125424Y307300D01*
X124982Y307962D01*
X124320Y308404D01*
X123540Y308559D01*
D02*
G37*
G36*
X144540D02*
X140040D01*
Y302020D01*
X146579D01*
Y306520D01*
X146424Y307300D01*
X145982Y307962D01*
X145320Y308404D01*
X144540Y308559D01*
D02*
G37*
G36*
X117250Y318500D02*
X112331D01*
X112598Y317159D01*
X113924Y315174D01*
X115909Y313848D01*
X117250Y313581D01*
Y318500D01*
D02*
G37*
G36*
X124169D02*
X119250D01*
Y313581D01*
X120591Y313848D01*
X122576Y315174D01*
X123902Y317159D01*
X124169Y318500D01*
D02*
G37*
G36*
X159500Y318750D02*
X154581D01*
X154848Y317409D01*
X156174Y315424D01*
X158159Y314098D01*
X159500Y313831D01*
Y318750D01*
D02*
G37*
G36*
X144919Y318250D02*
X140000D01*
Y313331D01*
X141341Y313598D01*
X143326Y314924D01*
X144652Y316909D01*
X144919Y318250D01*
D02*
G37*
G36*
X95750Y318500D02*
X90831D01*
X91098Y317159D01*
X92424Y315174D01*
X94409Y313848D01*
X95750Y313581D01*
Y318500D01*
D02*
G37*
G36*
X102669D02*
X97750D01*
Y313581D01*
X99091Y313848D01*
X101076Y315174D01*
X102402Y317159D01*
X102669Y318500D01*
D02*
G37*
G36*
X145419Y449500D02*
X140500D01*
Y444581D01*
X141841Y444848D01*
X143826Y446174D01*
X145152Y448159D01*
X145419Y449500D01*
D02*
G37*
G36*
X159250Y450250D02*
X154331D01*
X154598Y448909D01*
X155924Y446924D01*
X157909Y445598D01*
X159250Y445331D01*
Y450250D01*
D02*
G37*
G36*
X166169D02*
X161250D01*
Y445331D01*
X162591Y445598D01*
X164576Y446924D01*
X165902Y448909D01*
X166169Y450250D01*
D02*
G37*
G36*
X96000Y449500D02*
X91081D01*
X91348Y448159D01*
X92674Y446174D01*
X94659Y444848D01*
X96000Y444581D01*
Y449500D01*
D02*
G37*
G36*
X102919D02*
X98000D01*
Y444581D01*
X99341Y444848D01*
X101326Y446174D01*
X102652Y448159D01*
X102919Y449500D01*
D02*
G37*
G36*
X138500D02*
X133581D01*
X133848Y448159D01*
X135174Y446174D01*
X137159Y444848D01*
X138500Y444581D01*
Y449500D01*
D02*
G37*
G36*
X98000Y456419D02*
Y451500D01*
X102919D01*
X102652Y452841D01*
X101326Y454826D01*
X99341Y456152D01*
X98000Y456419D01*
D02*
G37*
G36*
X138500D02*
X137159Y456152D01*
X135174Y454826D01*
X133848Y452841D01*
X133581Y451500D01*
X138500D01*
Y456419D01*
D02*
G37*
G36*
X140500D02*
Y451500D01*
X145419D01*
X145152Y452841D01*
X143826Y454826D01*
X141841Y456152D01*
X140500Y456419D01*
D02*
G37*
G36*
X117500Y456169D02*
X116159Y455902D01*
X114174Y454576D01*
X112848Y452591D01*
X112581Y451250D01*
X117500D01*
Y456169D01*
D02*
G37*
G36*
X119500D02*
Y451250D01*
X124419D01*
X124152Y452591D01*
X122826Y454576D01*
X120841Y455902D01*
X119500Y456169D01*
D02*
G37*
G36*
X96000Y456419D02*
X94659Y456152D01*
X92674Y454826D01*
X91348Y452841D01*
X91081Y451500D01*
X96000D01*
Y456419D01*
D02*
G37*
G36*
X180040Y451020D02*
X173501D01*
Y446520D01*
X173656Y445740D01*
X174098Y445078D01*
X174760Y444636D01*
X175540Y444481D01*
X180040D01*
Y451020D01*
D02*
G37*
G36*
X83579Y415020D02*
X77040D01*
Y408481D01*
X81540D01*
X82320Y408636D01*
X82982Y409078D01*
X83424Y409740D01*
X83579Y410520D01*
Y415020D01*
D02*
G37*
G36*
X180040D02*
X173501D01*
Y410520D01*
X173656Y409740D01*
X174098Y409078D01*
X174760Y408636D01*
X175540Y408481D01*
X180040D01*
Y415020D01*
D02*
G37*
G36*
Y423559D02*
X175540D01*
X174760Y423404D01*
X174098Y422962D01*
X173656Y422300D01*
X173501Y421520D01*
Y417020D01*
X180040D01*
Y423559D01*
D02*
G37*
G36*
Y354020D02*
X173501D01*
Y349520D01*
X173656Y348740D01*
X174098Y348078D01*
X174760Y347636D01*
X175540Y347481D01*
X180040D01*
Y354020D01*
D02*
G37*
G36*
Y362559D02*
X175540D01*
X174760Y362404D01*
X174098Y361962D01*
X173656Y361300D01*
X173501Y360520D01*
Y356020D01*
X180040D01*
Y362559D01*
D02*
G37*
G36*
X81540D02*
X77040D01*
Y356020D01*
X83579D01*
Y360520D01*
X83424Y361300D01*
X82982Y361962D01*
X82320Y362404D01*
X81540Y362559D01*
D02*
G37*
G36*
Y423559D02*
X77040D01*
Y417020D01*
X83579D01*
Y421520D01*
X83424Y422300D01*
X82982Y422962D01*
X82320Y423404D01*
X81540Y423559D01*
D02*
G37*
G36*
X124419Y449250D02*
X119500D01*
Y444331D01*
X120841Y444598D01*
X122826Y445924D01*
X124152Y447909D01*
X124419Y449250D01*
D02*
G37*
G36*
X83579Y451020D02*
X77040D01*
Y444481D01*
X81540D01*
X82320Y444636D01*
X82982Y445078D01*
X83424Y445740D01*
X83579Y446520D01*
Y451020D01*
D02*
G37*
G36*
X117500Y449250D02*
X112581D01*
X112848Y447909D01*
X114174Y445924D01*
X116159Y444598D01*
X117500Y444331D01*
Y449250D01*
D02*
G37*
G36*
X36250Y456832D02*
X30750D01*
X29985Y456515D01*
X29668Y455750D01*
Y449750D01*
X29985Y448985D01*
X30750Y448668D01*
X31186D01*
Y441898D01*
X30080Y440457D01*
X29339Y438669D01*
X29087Y436750D01*
X29339Y434831D01*
X30080Y433043D01*
X31258Y431508D01*
X32793Y430330D01*
X34581Y429589D01*
X36500Y429337D01*
X38419Y429589D01*
X40207Y430330D01*
X41742Y431508D01*
X42920Y433043D01*
X43661Y434831D01*
X43913Y436750D01*
X43661Y438669D01*
X42920Y440457D01*
X41742Y441992D01*
X40207Y443170D01*
X38419Y443911D01*
X36500Y444163D01*
X35814Y444765D01*
Y448668D01*
X36250D01*
X37015Y448985D01*
X37332Y449750D01*
Y455750D01*
X37015Y456515D01*
X36250Y456832D01*
D02*
G37*
%LPD*%
G36*
X169000Y134685D02*
X169000Y72920D01*
X160330Y72920D01*
X158500Y74750D01*
Y79250D01*
X143000Y79250D01*
X143000Y133896D01*
X143900Y134792D01*
X169000Y134685D01*
D02*
G37*
G36*
X168389Y45522D02*
Y7500D01*
X143750D01*
Y38937D01*
X144813Y40000D01*
X158197Y40000D01*
X158277Y46420D01*
X167491Y46420D01*
X168389Y45522D01*
D02*
G37*
D10*
X230250Y602750D02*
D03*
Y17750D02*
D03*
X18250Y17250D02*
D03*
D11*
X161500Y584250D02*
D03*
D12*
X146750Y599500D02*
D03*
X176250D02*
D03*
D13*
X202750Y39750D02*
D03*
X212750D02*
D03*
X52750Y145250D02*
D03*
X62750D02*
D03*
D14*
X188750Y194750D02*
D03*
Y204750D02*
D03*
X96000Y169500D02*
D03*
Y159500D02*
D03*
X179750Y194750D02*
D03*
Y204750D02*
D03*
Y182000D02*
D03*
Y172000D02*
D03*
X189250Y162250D02*
D03*
Y152250D02*
D03*
X131500Y561250D02*
D03*
Y571250D02*
D03*
X161500Y560500D02*
D03*
Y550500D02*
D03*
D15*
X110000Y194800D02*
D03*
Y182100D02*
D03*
Y169400D02*
D03*
Y156700D02*
D03*
X166500D02*
D03*
X166500Y169400D02*
D03*
Y182100D02*
D03*
X166500Y194800D02*
D03*
D16*
X138500Y175750D02*
D03*
D17*
X52750Y116000D02*
D03*
X97750D02*
D03*
X52750Y26000D02*
D03*
X97750D02*
D03*
D18*
X163740Y90150D02*
D03*
X177240D02*
D03*
D19*
X165490Y104120D02*
D03*
X175490D02*
D03*
X165490Y114280D02*
D03*
X175490D02*
D03*
X175250Y124000D02*
D03*
X165250D02*
D03*
X165490Y29190D02*
D03*
X175490D02*
D03*
D20*
X147080Y64670D02*
D03*
Y59670D02*
D03*
Y54670D02*
D03*
X173580D02*
D03*
Y59670D02*
D03*
X173580Y64670D02*
D03*
D21*
X155330Y46420D02*
D03*
X160330Y46420D02*
D03*
X165330D02*
D03*
Y72920D02*
D03*
X160330D02*
D03*
X155330D02*
D03*
D22*
X160330Y59670D02*
D03*
D23*
X124770Y68220D02*
D03*
Y51120D02*
D03*
D24*
X207750Y71750D02*
D03*
X197750Y71750D02*
D03*
X202750Y54750D02*
D03*
D25*
X33500Y462750D02*
D03*
Y452750D02*
D03*
X141750Y571250D02*
D03*
Y561250D02*
D03*
X95500Y522000D02*
D03*
Y532000D02*
D03*
X161560Y521490D02*
D03*
Y531490D02*
D03*
D26*
X152000Y571250D02*
D03*
X161500D02*
D03*
X171000Y541000D02*
D03*
X161500D02*
D03*
D27*
X59040Y495520D02*
D03*
Y484520D02*
D03*
Y473520D02*
D03*
Y462520D02*
D03*
Y451520D02*
D03*
Y440520D02*
D03*
Y429520D02*
D03*
Y418520D02*
D03*
Y407520D02*
D03*
Y396520D02*
D03*
Y385520D02*
D03*
Y374520D02*
D03*
Y363520D02*
D03*
Y352520D02*
D03*
Y341520D02*
D03*
Y330520D02*
D03*
Y319520D02*
D03*
Y308520D02*
D03*
Y297520D02*
D03*
Y286520D02*
D03*
Y275520D02*
D03*
X198040Y275520D02*
D03*
Y286520D02*
D03*
Y297520D02*
D03*
Y308520D02*
D03*
Y319520D02*
D03*
Y330520D02*
D03*
Y341520D02*
D03*
Y352520D02*
D03*
Y363520D02*
D03*
Y374520D02*
D03*
Y385520D02*
D03*
Y396520D02*
D03*
Y407520D02*
D03*
Y418520D02*
D03*
Y429520D02*
D03*
Y440520D02*
D03*
Y451520D02*
D03*
Y462520D02*
D03*
Y473520D02*
D03*
Y484520D02*
D03*
Y495520D02*
D03*
D28*
X73540Y266020D02*
D03*
X84540D02*
D03*
X95540D02*
D03*
X106540D02*
D03*
X117540D02*
D03*
X128540D02*
D03*
X139540D02*
D03*
X150540D02*
D03*
X161540D02*
D03*
X172540D02*
D03*
X183540D02*
D03*
Y505020D02*
D03*
X172540D02*
D03*
X161540D02*
D03*
X150540D02*
D03*
X139540D02*
D03*
X128540D02*
D03*
X117540D02*
D03*
X106540D02*
D03*
X95540D02*
D03*
X84540D02*
D03*
X73540D02*
D03*
D29*
X76040Y488020D02*
D03*
Y470020D02*
D03*
Y452020D02*
D03*
Y416020D02*
D03*
Y355020D02*
D03*
Y319020D02*
D03*
Y301020D02*
D03*
Y283020D02*
D03*
X97040D02*
D03*
X118040D02*
D03*
X139040D02*
D03*
X160040D02*
D03*
X181040D02*
D03*
Y301020D02*
D03*
X160040D02*
D03*
X139040D02*
D03*
X118040D02*
D03*
X97040D02*
D03*
X181040Y319020D02*
D03*
Y355020D02*
D03*
Y416020D02*
D03*
Y452020D02*
D03*
X97040Y470020D02*
D03*
X118040D02*
D03*
X139040D02*
D03*
X160040D02*
D03*
X181040D02*
D03*
Y488020D02*
D03*
X160040D02*
D03*
X139040D02*
D03*
X118040D02*
D03*
X97040D02*
D03*
D30*
X161500Y560500D02*
Y584250D01*
X161560Y531490D02*
Y550440D01*
X161540Y505020D02*
Y521470D01*
D31*
X161500Y550500D02*
X161560Y550440D01*
X181040Y470020D02*
X188540Y462520D01*
X198040D01*
X220980Y385520D02*
X221750Y384750D01*
X198040Y385520D02*
X220980D01*
X178500Y385250D02*
X178770Y385520D01*
X198040D01*
X181040Y283020D02*
X183540Y280520D01*
Y266020D02*
Y280520D01*
X160040Y283020D02*
X161540Y281520D01*
Y266020D02*
Y281520D01*
X73540Y280520D02*
X76040Y283020D01*
X73540Y266020D02*
Y280520D01*
X59040Y275520D02*
X66540Y283020D01*
X76040D01*
Y299810D02*
Y301020D01*
X62750Y286520D02*
X76040Y299810D01*
X59040Y286520D02*
X62750D01*
X73540Y352520D02*
X76040Y355020D01*
X59040Y352520D02*
X73540D01*
X75540Y451520D02*
X76040Y452020D01*
X59040Y451520D02*
X75540D01*
X74810Y471250D02*
X76040Y470020D01*
X69500Y471250D02*
X74810D01*
X67230Y473520D02*
X69500Y471250D01*
X59040Y473520D02*
X67230D01*
X71980Y488020D02*
X76040D01*
X64480Y495520D02*
X71980Y488020D01*
X59040Y495520D02*
X64480D01*
X33500Y439750D02*
X36500Y436750D01*
X33500Y439750D02*
Y452750D01*
X207750Y87500D02*
X207750Y87500D01*
X207750Y71750D02*
Y87500D01*
X202750Y39750D02*
X202750Y39750D01*
X202750Y39750D02*
Y54750D01*
X202670Y54670D02*
X202750Y54750D01*
X173580Y54670D02*
X202670D01*
X120500Y571250D02*
X131500D01*
X95500Y546250D02*
X120500Y571250D01*
X95500Y505060D02*
X95540Y505020D01*
X95500Y505060D02*
Y522000D01*
Y532000D02*
Y546250D01*
X131500Y571250D02*
X141750D01*
X141750Y571250D01*
X152000D01*
X161500Y584250D02*
X161500Y584250D01*
X161500Y550500D02*
X161500Y550500D01*
X161540Y521470D02*
X161560Y521490D01*
X33500Y462750D02*
X33730Y462520D01*
X59040D01*
X177420Y64670D02*
X183500Y70750D01*
X173580Y64670D02*
X177420D01*
X165330Y29350D02*
X165490Y29190D01*
X204000Y162250D02*
X204750Y161500D01*
X189250Y162250D02*
X204000D01*
X180000Y181750D02*
X229750D01*
X179750Y182000D02*
X180000Y181750D01*
X227770Y330520D02*
X228250Y331000D01*
X198040Y330520D02*
X227770D01*
X202250Y194750D02*
X202500Y195000D01*
X188750Y194750D02*
X202250D01*
X96000Y184250D02*
X96000Y184250D01*
X96000Y169500D02*
Y184250D01*
X179750Y194750D02*
X188750D01*
X179700Y194800D02*
X179750Y194750D01*
X166500Y194800D02*
X179700D01*
X166500Y182100D02*
X166600Y182000D01*
X179750D01*
X166500Y169400D02*
X173650Y162250D01*
X189250D01*
X96000Y169500D02*
X96100Y169400D01*
X110000D01*
X216230Y341520D02*
X216250Y341500D01*
X198040Y341520D02*
X216230D01*
X227980Y352520D02*
X228137Y352363D01*
X198040Y352520D02*
X227980D01*
X215730Y363520D02*
X215750Y363500D01*
X198040Y363520D02*
X215730D01*
X165250Y124000D02*
X165490Y123760D01*
Y114280D02*
Y123760D01*
Y114280D02*
X165490Y114280D01*
Y104120D02*
Y114280D01*
X163740Y102370D02*
X165490Y104120D01*
X163740Y90150D02*
Y102370D01*
Y90150D02*
X165330Y88560D01*
Y72920D02*
Y88560D01*
X160330Y72920D02*
X165330D01*
X37500Y297500D02*
X48520Y308520D01*
X31300Y291300D02*
X37500Y297500D01*
X52500Y160000D02*
X52750Y159750D01*
Y145250D02*
Y159750D01*
X112500Y240000D02*
X128540Y256040D01*
X39900Y240000D02*
X112500D01*
X15000Y215100D02*
X39900Y240000D01*
X107500Y245000D02*
X117540Y255040D01*
X19500Y245000D02*
X107500D01*
X15000Y240500D02*
X19500Y245000D01*
X117540Y255040D02*
Y266020D01*
X128540Y256040D02*
Y266020D01*
X15000Y265900D02*
X30900Y250000D01*
X92500D01*
X95540Y253040D01*
Y266020D01*
X15000Y418300D02*
X21700D01*
X43480Y396520D01*
X59040D01*
X15000Y392900D02*
X15400Y392500D01*
X32500D01*
X39480Y385520D01*
X59040D01*
X15000Y367500D02*
X35000D01*
X42020Y374520D01*
X59040D01*
X15000Y342100D02*
X27100D01*
X48520Y363520D01*
X59040D01*
X15000Y316700D02*
X31700D01*
X45520Y330520D01*
X59040D01*
X15000Y291300D02*
X31300D01*
X48520Y308520D02*
X59040D01*
X52750Y145250D02*
X52750Y145250D01*
X52750Y116000D02*
Y145250D01*
Y26000D02*
Y116000D01*
X124770Y68220D02*
X125110Y68560D01*
X140010D01*
X143900Y64670D01*
X147080D01*
X124770Y51120D02*
X125110Y50780D01*
X140010D01*
X143900Y54670D01*
X147080D01*
D32*
X212750Y49500D02*
X216500Y53250D01*
X212750Y39750D02*
Y49500D01*
X212520Y473520D02*
X212750Y473750D01*
X198040Y473520D02*
X212520D01*
X212270Y484520D02*
X212500Y484750D01*
X198040Y484520D02*
X212270D01*
X212480Y495520D02*
X212500Y495500D01*
X198040Y495520D02*
X212480D01*
D33*
X15000Y240500D02*
D03*
Y418300D02*
D03*
Y164300D02*
D03*
Y367500D02*
D03*
Y113500D02*
D03*
Y342100D02*
D03*
Y88100D02*
D03*
Y316700D02*
D03*
Y138900D02*
D03*
Y392900D02*
D03*
Y189700D02*
D03*
Y215100D02*
D03*
Y265900D02*
D03*
Y291300D02*
D03*
D34*
Y62700D02*
D03*
D35*
X160500Y319750D02*
D03*
X139000Y319250D02*
D03*
X118250Y319500D02*
D03*
X96750D02*
D03*
X160250Y451250D02*
D03*
X139500Y450500D02*
D03*
X118500Y450250D02*
D03*
X97000Y450500D02*
D03*
X152500Y24250D02*
D03*
X149500Y34000D02*
D03*
X161500Y14500D02*
D03*
X149750D02*
D03*
X212750Y473750D02*
D03*
X212500Y484750D02*
D03*
Y495500D02*
D03*
X152000Y87500D02*
D03*
X152750Y99500D02*
D03*
X153000Y111500D02*
D03*
Y124750D02*
D03*
X37500Y297500D02*
D03*
X52500Y160000D02*
D03*
D36*
X36750Y205750D02*
D03*
X36500Y436750D02*
D03*
X207750Y87500D02*
D03*
X216500Y53250D02*
D03*
X183500Y70750D02*
D03*
X204750Y161500D02*
D03*
X229750Y181750D02*
D03*
X228250Y331000D02*
D03*
X202500Y195000D02*
D03*
X96000Y184250D02*
D03*
X216250Y341500D02*
D03*
X228137Y352363D02*
D03*
X215750Y363500D02*
D03*
D37*
X149500Y192250D02*
D03*
Y181250D02*
D03*
Y170250D02*
D03*
Y159250D02*
D03*
X138500Y192250D02*
D03*
Y181250D02*
D03*
Y170250D02*
D03*
Y159250D02*
D03*
X127500Y192250D02*
D03*
Y181250D02*
D03*
Y170250D02*
D03*
Y159250D02*
D03*
M02*
