G04 Layer_Color=255*
%FSLAX44Y44*%
%MOMM*%
G71*
G01*
G75*
%ADD10C,1.0000*%
%ADD11R,1.0000X1.0500*%
%ADD12R,1.0500X2.2000*%
%ADD13R,0.6000X0.5500*%
%ADD14R,0.5000X0.6000*%
%ADD15R,0.8000X0.4000*%
%ADD16R,3.4000X4.2000*%
%ADD17R,1.0000X2.0000*%
%ADD18R,0.7500X0.8000*%
%ADD19R,0.6000X0.5000*%
%ADD20O,0.8000X0.2500*%
%ADD21O,0.2500X0.8000*%
%ADD22R,1.4800X1.4800*%
%ADD23R,1.8200X1.1900*%
%ADD24R,0.4000X0.8500*%
%ADD25R,0.5500X0.6000*%
%ADD26R,0.6500X0.5000*%
%ADD27R,1.5000X0.8000*%
%ADD28R,0.8000X1.5000*%
%ADD29R,1.1000X1.1000*%
%ADD33C,1.5000*%
%ADD34R,1.5000X1.5000*%
D10*
X230250Y602750D02*
D03*
Y17750D02*
D03*
X18250Y17250D02*
D03*
D11*
X161500Y584250D02*
D03*
D12*
X146750Y599500D02*
D03*
X176250D02*
D03*
D13*
X202750Y39750D02*
D03*
X212750D02*
D03*
X52750Y145250D02*
D03*
X62750D02*
D03*
D14*
X188750Y194750D02*
D03*
Y204750D02*
D03*
X96000Y169500D02*
D03*
Y159500D02*
D03*
X179750Y194750D02*
D03*
Y204750D02*
D03*
Y182000D02*
D03*
Y172000D02*
D03*
X189250Y162250D02*
D03*
Y152250D02*
D03*
X131500Y561250D02*
D03*
Y571250D02*
D03*
X161500Y560500D02*
D03*
Y550500D02*
D03*
D15*
X110000Y194800D02*
D03*
Y182100D02*
D03*
Y169400D02*
D03*
Y156700D02*
D03*
X166500D02*
D03*
X166500Y169400D02*
D03*
Y182100D02*
D03*
X166500Y194800D02*
D03*
D16*
X138500Y175750D02*
D03*
D17*
X52750Y116000D02*
D03*
X97750D02*
D03*
X52750Y26000D02*
D03*
X97750D02*
D03*
D18*
X163740Y90150D02*
D03*
X177240D02*
D03*
D19*
X165490Y104120D02*
D03*
X175490D02*
D03*
X165490Y114280D02*
D03*
X175490D02*
D03*
X175250Y124000D02*
D03*
X165250D02*
D03*
X165490Y29190D02*
D03*
X175490D02*
D03*
D20*
X147080Y64670D02*
D03*
Y59670D02*
D03*
Y54670D02*
D03*
X173580D02*
D03*
Y59670D02*
D03*
X173580Y64670D02*
D03*
D21*
X155330Y46420D02*
D03*
X160330Y46420D02*
D03*
X165330D02*
D03*
Y72920D02*
D03*
X160330D02*
D03*
X155330D02*
D03*
D22*
X160330Y59670D02*
D03*
D23*
X124770Y68220D02*
D03*
Y51120D02*
D03*
D24*
X207750Y71750D02*
D03*
X197750Y71750D02*
D03*
X202750Y54750D02*
D03*
D25*
X33500Y462750D02*
D03*
Y452750D02*
D03*
X141750Y571250D02*
D03*
Y561250D02*
D03*
X95500Y522000D02*
D03*
Y532000D02*
D03*
X161560Y521490D02*
D03*
Y531490D02*
D03*
D26*
X152000Y571250D02*
D03*
X161500D02*
D03*
X171000Y541000D02*
D03*
X161500D02*
D03*
D27*
X59040Y495520D02*
D03*
Y484520D02*
D03*
Y473520D02*
D03*
Y462520D02*
D03*
Y451520D02*
D03*
Y440520D02*
D03*
Y429520D02*
D03*
Y418520D02*
D03*
Y407520D02*
D03*
Y396520D02*
D03*
Y385520D02*
D03*
Y374520D02*
D03*
Y363520D02*
D03*
Y352520D02*
D03*
Y341520D02*
D03*
Y330520D02*
D03*
Y319520D02*
D03*
Y308520D02*
D03*
Y297520D02*
D03*
Y286520D02*
D03*
Y275520D02*
D03*
X198040Y275520D02*
D03*
Y286520D02*
D03*
Y297520D02*
D03*
Y308520D02*
D03*
Y319520D02*
D03*
Y330520D02*
D03*
Y341520D02*
D03*
Y352520D02*
D03*
Y363520D02*
D03*
Y374520D02*
D03*
Y385520D02*
D03*
Y396520D02*
D03*
Y407520D02*
D03*
Y418520D02*
D03*
Y429520D02*
D03*
Y440520D02*
D03*
Y451520D02*
D03*
Y462520D02*
D03*
Y473520D02*
D03*
Y484520D02*
D03*
Y495520D02*
D03*
D28*
X73540Y266020D02*
D03*
X84540D02*
D03*
X95540D02*
D03*
X106540D02*
D03*
X117540D02*
D03*
X128540D02*
D03*
X139540D02*
D03*
X150540D02*
D03*
X161540D02*
D03*
X172540D02*
D03*
X183540D02*
D03*
Y505020D02*
D03*
X172540D02*
D03*
X161540D02*
D03*
X150540D02*
D03*
X139540D02*
D03*
X128540D02*
D03*
X117540D02*
D03*
X106540D02*
D03*
X95540D02*
D03*
X84540D02*
D03*
X73540D02*
D03*
D29*
X76040Y488020D02*
D03*
Y470020D02*
D03*
Y452020D02*
D03*
Y416020D02*
D03*
Y355020D02*
D03*
Y319020D02*
D03*
Y301020D02*
D03*
Y283020D02*
D03*
X97040D02*
D03*
X118040D02*
D03*
X139040D02*
D03*
X160040D02*
D03*
X181040D02*
D03*
Y301020D02*
D03*
X160040D02*
D03*
X139040D02*
D03*
X118040D02*
D03*
X97040D02*
D03*
X181040Y319020D02*
D03*
Y355020D02*
D03*
Y416020D02*
D03*
Y452020D02*
D03*
X97040Y470020D02*
D03*
X118040D02*
D03*
X139040D02*
D03*
X160040D02*
D03*
X181040D02*
D03*
Y488020D02*
D03*
X160040D02*
D03*
X139040D02*
D03*
X118040D02*
D03*
X97040D02*
D03*
D33*
X15000Y240500D02*
D03*
Y418300D02*
D03*
Y164300D02*
D03*
Y367500D02*
D03*
Y113500D02*
D03*
Y342100D02*
D03*
Y88100D02*
D03*
Y316700D02*
D03*
Y138900D02*
D03*
Y392900D02*
D03*
Y189700D02*
D03*
Y215100D02*
D03*
Y265900D02*
D03*
Y291300D02*
D03*
D34*
Y62700D02*
D03*
M02*
