G04 Layer_Color=32896*
%FSLAX44Y44*%
%MOMM*%
G71*
G01*
G75*
%ADD40C,0.2000*%
%ADD63C,0.0254*%
D40*
X67500Y144081D02*
X65834Y145747D01*
X62502D01*
X60835Y144081D01*
Y142415D01*
X62502Y140748D01*
X64168D01*
X62502D01*
X60835Y139082D01*
Y137416D01*
X62502Y135750D01*
X65834D01*
X67500Y137416D01*
X57503Y142415D02*
X54171Y135750D01*
X50839Y142415D01*
X47506Y144081D02*
X45840Y145747D01*
X42508D01*
X40842Y144081D01*
Y142415D01*
X42508Y140748D01*
X44174D01*
X42508D01*
X40842Y139082D01*
Y137416D01*
X42508Y135750D01*
X45840D01*
X47506Y137416D01*
X67500Y116581D02*
X65834Y118247D01*
X62502D01*
X60835Y116581D01*
Y114915D01*
X62502Y113248D01*
X64168D01*
X62502D01*
X60835Y111582D01*
Y109916D01*
X62502Y108250D01*
X65834D01*
X67500Y109916D01*
X57503Y114915D02*
X54171Y108250D01*
X50839Y114915D01*
X47506Y116581D02*
X45840Y118247D01*
X42508D01*
X40842Y116581D01*
Y114915D01*
X42508Y113248D01*
X44174D01*
X42508D01*
X40842Y111582D01*
Y109916D01*
X42508Y108250D01*
X45840D01*
X47506Y109916D01*
X67500Y413750D02*
Y423747D01*
X62502D01*
X60835Y422081D01*
Y418748D01*
X62502Y417082D01*
X67500D01*
X64168D02*
X60835Y413750D01*
X57503Y423747D02*
X50839D01*
X54171D01*
Y413750D01*
X40842Y422081D02*
X42508Y423747D01*
X45840D01*
X47506Y422081D01*
Y420415D01*
X45840Y418748D01*
X42508D01*
X40842Y417082D01*
Y415416D01*
X42508Y413750D01*
X45840D01*
X47506Y415416D01*
X60835Y397081D02*
X62502Y398747D01*
X65834D01*
X67500Y397081D01*
Y390416D01*
X65834Y388750D01*
X62502D01*
X60835Y390416D01*
X57503Y398747D02*
X50839D01*
X54171D01*
Y388750D01*
X40842Y397081D02*
X42508Y398747D01*
X45840D01*
X47506Y397081D01*
Y395415D01*
X45840Y393748D01*
X42508D01*
X40842Y392082D01*
Y390416D01*
X42508Y388750D01*
X45840D01*
X47506Y390416D01*
X67500Y372247D02*
X60835D01*
X64168D01*
Y362250D01*
X57503Y372247D02*
X50839Y362250D01*
Y372247D02*
X57503Y362250D01*
X47506Y372247D02*
Y362250D01*
X42508D01*
X40842Y363916D01*
Y370581D01*
X42508Y372247D01*
X47506D01*
X67500Y336750D02*
Y346747D01*
X62502D01*
X60835Y345081D01*
Y341748D01*
X62502Y340082D01*
X67500D01*
X64168D02*
X60835Y336750D01*
X57503Y346747D02*
X50839Y336750D01*
Y346747D02*
X57503Y336750D01*
X47506Y346747D02*
Y336750D01*
X42508D01*
X40842Y338416D01*
Y345081D01*
X42508Y346747D01*
X47506D01*
X75835Y321831D02*
X77502Y323497D01*
X80834D01*
X82500Y321831D01*
Y315166D01*
X80834Y313500D01*
X77502D01*
X75835Y315166D01*
Y318498D01*
X79168D01*
X72503Y313500D02*
Y323497D01*
X67505D01*
X65839Y321831D01*
Y318498D01*
X67505Y316832D01*
X72503D01*
X62506Y323497D02*
X59174D01*
X60840D01*
Y313500D01*
X62506D01*
X59174D01*
X49177Y323497D02*
X52510D01*
X54176Y321831D01*
Y315166D01*
X52510Y313500D01*
X49177D01*
X47511Y315166D01*
Y321831D01*
X49177Y323497D01*
X44179Y313500D02*
X40847D01*
X42513D01*
Y323497D01*
X44179Y321831D01*
X107250Y286500D02*
Y296497D01*
X102252D01*
X100585Y294831D01*
Y291498D01*
X102252Y289832D01*
X107250D01*
X103918D02*
X100585Y286500D01*
X90589Y296497D02*
X97253D01*
Y286500D01*
X90589D01*
X97253Y291498D02*
X93921D01*
X80592Y294831D02*
X82258Y296497D01*
X85590D01*
X87256Y294831D01*
Y293165D01*
X85590Y291498D01*
X82258D01*
X80592Y289832D01*
Y288166D01*
X82258Y286500D01*
X85590D01*
X87256Y288166D01*
X70595Y296497D02*
X77260D01*
Y286500D01*
X70595D01*
X77260Y291498D02*
X73927D01*
X67263Y296497D02*
X60598D01*
X63931D01*
Y286500D01*
X57266Y284834D02*
X50602D01*
X47269Y286500D02*
Y296497D01*
X40605Y286500D01*
Y296497D01*
X78836Y269331D02*
X80502Y270997D01*
X83834D01*
X85500Y269331D01*
Y262666D01*
X83834Y261000D01*
X80502D01*
X78836Y262666D01*
Y265998D01*
X82168D01*
X75503Y261000D02*
Y270997D01*
X70505D01*
X68839Y269331D01*
Y265998D01*
X70505Y264332D01*
X75503D01*
X65506Y270997D02*
X62174D01*
X63840D01*
Y261000D01*
X65506D01*
X62174D01*
X52177Y270997D02*
X55510D01*
X57176Y269331D01*
Y262666D01*
X55510Y261000D01*
X52177D01*
X50511Y262666D01*
Y269331D01*
X52177Y270997D01*
X40514Y261000D02*
X47179D01*
X40514Y267665D01*
Y269331D01*
X42181Y270997D01*
X45513D01*
X47179Y269331D01*
X105000Y247247D02*
X101668D01*
X103334D01*
Y237250D01*
X105000D01*
X101668D01*
X90005D02*
X96669D01*
X90005Y243915D01*
Y245581D01*
X91671Y247247D01*
X95003D01*
X96669Y245581D01*
X80008D02*
X81674Y247247D01*
X85006D01*
X86673Y245581D01*
Y238916D01*
X85006Y237250D01*
X81674D01*
X80008Y238916D01*
X60015Y245581D02*
X61681Y247247D01*
X65013D01*
X66679Y245581D01*
Y243915D01*
X65013Y242248D01*
X61681D01*
X60015Y240582D01*
Y238916D01*
X61681Y237250D01*
X65013D01*
X66679Y238916D01*
X56682Y247247D02*
Y237250D01*
X51684D01*
X50018Y238916D01*
Y245581D01*
X51684Y247247D01*
X56682D01*
X46686Y237250D02*
Y243915D01*
X43353Y247247D01*
X40021Y243915D01*
Y237250D01*
Y242248D01*
X46686D01*
X105000Y220997D02*
X101668D01*
X103334D01*
Y211000D01*
X105000D01*
X101668D01*
X90005D02*
X96669D01*
X90005Y217665D01*
Y219331D01*
X91671Y220997D01*
X95003D01*
X96669Y219331D01*
X80008D02*
X81674Y220997D01*
X85006D01*
X86673Y219331D01*
Y212666D01*
X85006Y211000D01*
X81674D01*
X80008Y212666D01*
X60015Y219331D02*
X61681Y220997D01*
X65013D01*
X66679Y219331D01*
Y217665D01*
X65013Y215998D01*
X61681D01*
X60015Y214332D01*
Y212666D01*
X61681Y211000D01*
X65013D01*
X66679Y212666D01*
X50018Y219331D02*
X51684Y220997D01*
X55016D01*
X56682Y219331D01*
Y212666D01*
X55016Y211000D01*
X51684D01*
X50018Y212666D01*
X46686Y220997D02*
Y211000D01*
X40021D01*
X60835Y192581D02*
X62502Y194247D01*
X65834D01*
X67500Y192581D01*
Y185916D01*
X65834Y184250D01*
X62502D01*
X60835Y185916D01*
Y189248D01*
X64168D01*
X57503Y184250D02*
Y194247D01*
X50839Y184250D01*
Y194247D01*
X47506D02*
Y184250D01*
X42508D01*
X40842Y185916D01*
Y192581D01*
X42508Y194247D01*
X47506D01*
X60835Y167581D02*
X62502Y169247D01*
X65834D01*
X67500Y167581D01*
Y160916D01*
X65834Y159250D01*
X62502D01*
X60835Y160916D01*
Y164248D01*
X64168D01*
X57503Y159250D02*
Y169247D01*
X50839Y159250D01*
Y169247D01*
X47506D02*
Y159250D01*
X42508D01*
X40842Y160916D01*
Y167581D01*
X42508Y169247D01*
X47506D01*
X60835Y91331D02*
X62502Y92997D01*
X65834D01*
X67500Y91331D01*
Y84666D01*
X65834Y83000D01*
X62502D01*
X60835Y84666D01*
Y87998D01*
X64168D01*
X57503Y83000D02*
Y92997D01*
X50839Y83000D01*
Y92997D01*
X47506D02*
Y83000D01*
X42508D01*
X40842Y84666D01*
Y91331D01*
X42508Y92997D01*
X47506D01*
X190250Y67497D02*
Y60832D01*
X186918Y57500D01*
X183585Y60832D01*
Y67497D01*
X173589Y65831D02*
X175255Y67497D01*
X178587D01*
X180253Y65831D01*
Y59166D01*
X178587Y57500D01*
X175255D01*
X173589Y59166D01*
X163592Y65831D02*
X165258Y67497D01*
X168590D01*
X170256Y65831D01*
Y59166D01*
X168590Y57500D01*
X165258D01*
X163592Y59166D01*
X160260Y64165D02*
X158594D01*
Y62498D01*
X160260D01*
Y64165D01*
Y59166D02*
X158594D01*
Y57500D01*
X160260D01*
Y59166D01*
X141932Y57500D02*
X138600D01*
X140266D01*
Y67497D01*
X141932Y65831D01*
X133602Y57500D02*
Y59166D01*
X131935D01*
Y57500D01*
X133602D01*
X125271Y65831D02*
X123605Y67497D01*
X120273D01*
X118606Y65831D01*
Y64165D01*
X120273Y62498D01*
X118606Y60832D01*
Y59166D01*
X120273Y57500D01*
X123605D01*
X125271Y59166D01*
Y60832D01*
X123605Y62498D01*
X125271Y64165D01*
Y65831D01*
X123605Y62498D02*
X120273D01*
X115274Y67497D02*
Y60832D01*
X111942Y57500D01*
X108610Y60832D01*
Y67497D01*
X95281Y62498D02*
X88616D01*
X68622Y67497D02*
X75287D01*
Y62498D01*
X71955Y64165D01*
X70289D01*
X68622Y62498D01*
Y59166D01*
X70289Y57500D01*
X73621D01*
X75287Y59166D01*
X65290Y57500D02*
Y59166D01*
X63624D01*
Y57500D01*
X65290D01*
X50295Y67497D02*
X56960D01*
Y62498D01*
X53627Y64165D01*
X51961D01*
X50295Y62498D01*
Y59166D01*
X51961Y57500D01*
X55293D01*
X56960Y59166D01*
X46963Y67497D02*
Y60832D01*
X43631Y57500D01*
X40298Y60832D01*
Y67497D01*
D63*
X36486Y578343D02*
X38010D01*
X36486Y578597D02*
X38010Y578597D01*
X36486Y578851D02*
X38010Y578851D01*
X36486Y579105D02*
X38010D01*
X36486Y579359D02*
X38264D01*
X36740Y579867D02*
X38518D01*
X36740Y580121D02*
X38772D01*
X36740Y580375D02*
X39026D01*
X36994Y580629D02*
X39534D01*
X36486Y579613D02*
X38264D01*
X215302Y578343D02*
X216826D01*
X215302Y578597D02*
X216826D01*
X215048Y578851D02*
X216826D01*
X215048Y579105D02*
X216826D01*
X215048Y579359D02*
X216826D01*
X214540Y579867D02*
X216826D01*
X214286Y580121D02*
X216826D01*
X214032Y580375D02*
X216826D01*
X213524Y580629D02*
X216572D01*
X214794Y579613D02*
X216826D01*
X36486Y558023D02*
X37756D01*
X36486Y558277D02*
X37756Y558277D01*
X36486Y558531D02*
X37756D01*
X36486Y558785D02*
X37756D01*
X36486Y559039D02*
X37756D01*
X36486Y559547D02*
X37756D01*
X36486Y559801D02*
X37756D01*
X36486Y560055D02*
X37756Y560055D01*
X36486Y560309D02*
X37756D01*
X36486Y560563D02*
X37756D01*
X36486Y560817D02*
X37756D01*
X36486Y561071D02*
X37756Y561071D01*
X36486Y561325D02*
X37756D01*
X36486Y561579D02*
X37756D01*
X36486Y561833D02*
X37756Y561833D01*
X36486Y562087D02*
X37756D01*
X36486Y562341D02*
X37756D01*
X36486Y562595D02*
X37756D01*
X36486Y562849D02*
X37756D01*
X36486Y563103D02*
X37756D01*
X36486Y563357D02*
X37756D01*
X36486Y563611D02*
X37756D01*
X36486Y563865D02*
X37756Y563865D01*
X36486Y564119D02*
X37756D01*
X36486Y564373D02*
X37756D01*
X36486Y564627D02*
X37756D01*
X36486Y564881D02*
X37756Y564881D01*
X36486Y565135D02*
X37756D01*
X36486Y565389D02*
X37756D01*
X36486Y565643D02*
X37756Y565643D01*
X36486Y565897D02*
X37756D01*
X36486Y566151D02*
X37756D01*
X36486Y566405D02*
X37756D01*
X36486Y566659D02*
X37756Y566659D01*
X36486Y566913D02*
X37756D01*
X36486Y567167D02*
X37756D01*
X36486Y567421D02*
X37756D01*
X36486Y567675D02*
X37756Y567675D01*
X36486Y567929D02*
X37756D01*
X36486Y568183D02*
X37756D01*
X36486Y568437D02*
X37756D01*
X36486Y568691D02*
X37756Y568691D01*
X36486Y568945D02*
X37756D01*
X36486Y569199D02*
X37756D01*
X36486Y569453D02*
X37756Y569453D01*
X36486Y569707D02*
X37756D01*
X36486Y569961D02*
X37756D01*
X36486Y570215D02*
X37756D01*
X36486Y570469D02*
X37756Y570469D01*
X36486Y570723D02*
X37756D01*
X36486Y570977D02*
X37756D01*
X36486Y571231D02*
X37756Y571231D01*
X36486Y571485D02*
X37756D01*
X36486Y571739D02*
X37756D01*
X36486Y571993D02*
X37756D01*
X36486Y572247D02*
X37756Y572247D01*
X36486Y572501D02*
X37756D01*
X36486Y572755D02*
X37756D01*
X36486Y573009D02*
X37756D01*
X36486Y559293D02*
X37756Y559293D01*
X36486Y573517D02*
X37756D01*
X36486Y573771D02*
X37756D01*
X36486Y574025D02*
X37756D01*
X36486Y574279D02*
X37756Y574279D01*
X36486Y574533D02*
X37756D01*
X36486Y574787D02*
X37756D01*
X36486Y575041D02*
X37756Y575041D01*
X36486Y575295D02*
X37756D01*
X36486Y575549D02*
X37756D01*
X36486Y575803D02*
X37756D01*
X36486Y576057D02*
X37756Y576057D01*
X36486Y576311D02*
X37756D01*
X36486Y576565D02*
X37756D01*
X36486Y576819D02*
X37756Y576819D01*
X36486Y577073D02*
X37756D01*
X36486Y577327D02*
X37756D01*
X36486Y577581D02*
X37756D01*
X36486Y577835D02*
X37756Y577835D01*
X36486Y573263D02*
X37756Y573263D01*
X55790Y558023D02*
X57568D01*
X55536Y558277D02*
X57568D01*
X55282Y558531D02*
X57822D01*
X55028Y558785D02*
X57822D01*
X54774Y559039D02*
X58076D01*
X60362Y559547D02*
X61886D01*
X60616Y559801D02*
X61886Y559801D01*
X60616Y560055D02*
X61886Y560055D01*
X60616Y560309D02*
X61886D01*
X60616Y560563D02*
X62140D01*
X60616Y560817D02*
X62394D01*
X60362Y561071D02*
X63156D01*
X54774Y559293D02*
X58076D01*
X60362Y559293D02*
X62140Y559293D01*
X59854Y561325D02*
X64680D01*
X54520Y559547D02*
X58330D01*
X54266Y559801D02*
X58330D01*
X54012Y560055D02*
X58584D01*
X53758Y560309D02*
X58584D01*
X53758Y560563D02*
X58838D01*
X53504Y560817D02*
X58838D01*
X53250Y561071D02*
X59092Y561071D01*
X52742Y561325D02*
X59600D01*
X75856Y559547D02*
X77888D01*
X80682Y559801D02*
X83730D01*
X80428Y560055D02*
X83476D01*
X80174Y560309D02*
X83222D01*
X79920Y560563D02*
X83222D01*
X79412Y560817D02*
X83222D01*
X78650Y561071D02*
X83222D01*
X77380Y561325D02*
X83730Y561325D01*
X75094Y559293D02*
X78650D01*
X70522Y558023D02*
X72554D01*
X70522Y558277D02*
X72554D01*
X70268Y558531D02*
X72554D01*
X70268Y558785D02*
X72554D01*
X70268Y559039D02*
X72554D01*
X70014Y559547D02*
X72808D01*
X69760Y559801D02*
X72808D01*
X69506Y560055D02*
X73062D01*
X69252Y560309D02*
X73062D01*
X68998Y560563D02*
X73570D01*
X68490Y560817D02*
X73824D01*
X67728Y561071D02*
X74332D01*
X70014Y559293D02*
X72554D01*
X74586Y558023D02*
X79666D01*
X74586Y558277D02*
X79666D01*
X74586Y558531D02*
X79412D01*
X74840Y558785D02*
X79158D01*
X74840Y559039D02*
X79158D01*
X95668Y558023D02*
X100748D01*
X95668Y558277D02*
X100748Y558277D01*
X95668Y558531D02*
X100494D01*
X95668Y558785D02*
X100240D01*
X95922Y559039D02*
X99986D01*
X96938Y559547D02*
X98970D01*
X102018D02*
X104304D01*
X101764Y559801D02*
X104304Y559801D01*
X101510Y560055D02*
X104304Y560055D01*
X101256Y560309D02*
X104304D01*
X100748Y560563D02*
X104558D01*
X96176Y559293D02*
X99732D01*
X102272D02*
X104558D01*
X100494Y560817D02*
X104812D01*
X99732Y561071D02*
X105574Y561071D01*
X89318Y558023D02*
X93382D01*
X89318Y558277D02*
X93382D01*
X89318Y558531D02*
X93382D01*
X89318Y558785D02*
X93636D01*
X89064Y559039D02*
X93636D01*
X89064Y559547D02*
X93636D01*
X92366Y559801D02*
X93890D01*
X92620Y560055D02*
X94144Y560055D01*
X92620Y560309D02*
X94144D01*
X92620Y560563D02*
X94652D01*
X92366Y560817D02*
X94906D01*
X89064Y559293D02*
X93636D01*
X92112Y561071D02*
X95414Y561071D01*
X91858Y561325D02*
X96684D01*
X117004Y558023D02*
X122084D01*
X117004Y558277D02*
X121830D01*
X117004Y558531D02*
X121830D01*
X117004Y558785D02*
X121576D01*
X117258Y559039D02*
X121322D01*
X118274Y559547D02*
X120306D01*
X117512Y559293D02*
X121068D01*
X112940Y558023D02*
X114718Y558023D01*
X112940Y558277D02*
X114718Y558277D01*
X112686Y558531D02*
X114718D01*
X112686Y558785D02*
X114972D01*
X112686Y559039D02*
X114972D01*
X112178Y559547D02*
X114972D01*
X112178Y559801D02*
X115226D01*
X112432Y559293D02*
X114972D01*
X111924Y560055D02*
X115480D01*
X111670Y560309D02*
X115480D01*
X111416Y560563D02*
X115988D01*
X110908Y560817D02*
X116242D01*
X110146Y561071D02*
X116750D01*
X108876Y561325D02*
X118020D01*
X137070Y558023D02*
X142150D01*
X137070Y558277D02*
X141896Y558277D01*
X137070Y558531D02*
X141896D01*
X137070Y558785D02*
X141642D01*
X137324Y559039D02*
X141388D01*
X138340Y559547D02*
X140372D01*
X137578Y559293D02*
X141134D01*
X144182Y558277D02*
X147484D01*
X143928Y558531D02*
X147484D01*
X143928Y558785D02*
X147230D01*
X143674Y559039D02*
X146976D01*
X143420Y559547D02*
X146468D01*
X143166Y559801D02*
X146214D01*
X142912Y560055D02*
X146214Y560055D01*
X142658Y560309D02*
X145960D01*
X142150Y560563D02*
X145960D01*
X141896Y560817D02*
X146214D01*
X141134Y561071D02*
X146468Y561071D01*
X139864Y561325D02*
X146722D01*
X143674Y559293D02*
X146722Y559293D01*
X132752Y558023D02*
X134784D01*
X132752Y558277D02*
X134784D01*
X132752Y558531D02*
X134784D01*
X132498Y558785D02*
X134784D01*
X132498Y559039D02*
X135038D01*
X132498Y559547D02*
X135038D01*
X132498Y559801D02*
X135292D01*
X132498Y560055D02*
X135546Y560055D01*
X132244Y560309D02*
X135546D01*
X132498Y559293D02*
X135038D01*
X132244Y560563D02*
X135800D01*
X131990Y560817D02*
X136308D01*
X131736Y561071D02*
X136816D01*
X131228Y561325D02*
X138086D01*
X159422Y558023D02*
X164248D01*
X159422Y558277D02*
X164248Y558277D01*
X159422Y558531D02*
X164248D01*
X159422Y558785D02*
X163994D01*
X159676Y559039D02*
X163740D01*
X160438Y559547D02*
X162724D01*
X159930Y559293D02*
X163486D01*
X150278Y558023D02*
X151548D01*
X150024Y558277D02*
X151548D01*
X149770Y558531D02*
X151802D01*
X149516Y558785D02*
X151802D01*
X149516Y559039D02*
X152056D01*
X149008Y559547D02*
X152310D01*
X148754Y559801D02*
X152310D01*
X148500Y560055D02*
X152564D01*
X148500Y560309D02*
X152564D01*
X148246Y560563D02*
X152818D01*
X147992Y560817D02*
X152818D01*
X149262Y559293D02*
X152056D01*
X154088Y558023D02*
X157136D01*
X154088Y558277D02*
X157136D01*
X154342Y558531D02*
X157136D01*
X154342Y558785D02*
X157136D01*
X154596Y559039D02*
X157136D01*
X154850Y559547D02*
X157390D01*
X154850Y559801D02*
X157390D01*
X154850Y560055D02*
X157644Y560055D01*
X154850Y560309D02*
X157898D01*
X154850Y560563D02*
X158152D01*
X154596Y560817D02*
X158660D01*
X154342Y561071D02*
X159168D01*
X153834Y561325D02*
X160438D01*
X154596Y559293D02*
X157390D01*
X192696Y558023D02*
X193204D01*
X193458Y558023D02*
X194982Y558023D01*
X192696Y558277D02*
X194474D01*
X193204Y558531D02*
X193966D01*
X193204Y558785D02*
X193458D01*
X194982D02*
X195490D01*
X194728Y559039D02*
X195490D01*
X193966Y559547D02*
X195490D01*
X193712Y559801D02*
X195490Y559801D01*
X193204Y560055D02*
X195490Y560055D01*
X192950Y560309D02*
X195744D01*
X192696Y560563D02*
X195236D01*
X192442Y560817D02*
X194982D01*
X192442Y561071D02*
X194474D01*
X192188Y561325D02*
X194220D01*
X191934Y561579D02*
X193712D01*
X191680Y561833D02*
X193458Y561833D01*
X191680Y562087D02*
X192950D01*
X191426Y562341D02*
X192442D01*
X191172Y562595D02*
X192188D01*
X190918Y562849D02*
X191680D01*
X190918Y563103D02*
X191426Y563103D01*
X192188Y563357D02*
X194728D01*
X192188Y563611D02*
X195490Y563611D01*
X192442Y563865D02*
X195998D01*
X192696Y564119D02*
X196252D01*
X194220Y564373D02*
X196506D01*
X194728Y564627D02*
X196506D01*
X194728Y564881D02*
X196252D01*
X190410Y565135D02*
X191172D01*
X194728D02*
X195998D01*
X189140Y565389D02*
X191934D01*
X193712D02*
X194474D01*
X194728D02*
X195744D01*
X193204Y565643D02*
X195744Y565643D01*
X192950Y565897D02*
X193712D01*
X194220D02*
X195744D01*
X194474Y566151D02*
X195744D01*
X194474Y566405D02*
X195744D01*
X194474Y566659D02*
X195490Y566659D01*
X193204Y566913D02*
X195236Y566913D01*
X192950Y567167D02*
X194982D01*
X192442Y567421D02*
X194474D01*
X189648Y567675D02*
X190410D01*
X192188D02*
X194220D01*
X189648Y567929D02*
X189902D01*
X190410D02*
X194982D01*
X190918Y568437D02*
X193966D01*
X192188Y568691D02*
X193458Y568691D01*
X194474Y559293D02*
X195490Y559293D01*
X215302Y558023D02*
X216826D01*
X215302Y558277D02*
X216826D01*
X215302Y558531D02*
X216826D01*
X215302Y558785D02*
X216826D01*
X215302Y559039D02*
X216826D01*
X215302Y559547D02*
X216826D01*
X215302Y559801D02*
X216826D01*
X215302Y560055D02*
X216826D01*
X215302Y560309D02*
X216826D01*
X215302Y560563D02*
X216826D01*
X215302Y560817D02*
X216826D01*
X215302Y561071D02*
X216826D01*
X215302Y561325D02*
X216826D01*
X215302Y561579D02*
X216826D01*
X215302Y561833D02*
X216826D01*
X215302Y562087D02*
X216826D01*
X215302Y562341D02*
X216826D01*
X215302Y562595D02*
X216826D01*
X215302Y562849D02*
X216826D01*
X215302Y563103D02*
X216826D01*
X215302Y563357D02*
X216826D01*
X215302Y563611D02*
X216826D01*
X215302Y563865D02*
X216826D01*
X215302Y564119D02*
X216826D01*
X215302Y564373D02*
X216826D01*
X215302Y564627D02*
X216826D01*
X215302Y564881D02*
X216826D01*
X215302Y565135D02*
X216826D01*
X215302Y565389D02*
X216826D01*
X215302Y565643D02*
X216826D01*
X215302Y565897D02*
X216826D01*
X215302Y566151D02*
X216826D01*
X215302Y566405D02*
X216826D01*
X215302Y566659D02*
X216826D01*
X215302Y566913D02*
X216826D01*
X215302Y567167D02*
X216826D01*
X215302Y567421D02*
X216826D01*
X215302Y567675D02*
X216826D01*
X215302Y567929D02*
X216826D01*
X215302Y568183D02*
X216826D01*
X215302Y568437D02*
X216826D01*
X215302Y568691D02*
X216826D01*
X215302Y568945D02*
X216826D01*
X215302Y569199D02*
X216826D01*
X215302Y569453D02*
X216826D01*
X215302Y569707D02*
X216826D01*
X215302Y569961D02*
X216826D01*
X215302Y570215D02*
X216826D01*
X215302Y570469D02*
X216826D01*
X215302Y570723D02*
X216826D01*
X215302Y570977D02*
X216826D01*
X215302Y571231D02*
X216826D01*
X215302Y571485D02*
X216826D01*
X215302Y571739D02*
X216826D01*
X215302Y571993D02*
X216826D01*
X215302Y572247D02*
X216826D01*
X215302Y572501D02*
X216826D01*
X215302Y572755D02*
X216826D01*
X215302Y573009D02*
X216826D01*
X215302Y559293D02*
X216826D01*
X215302Y573517D02*
X216826D01*
X215302Y573771D02*
X216826D01*
X215302Y574025D02*
X216826D01*
X215302Y574279D02*
X216826D01*
X215302Y574533D02*
X216826D01*
X215302Y574787D02*
X216826D01*
X215302Y575041D02*
X216826D01*
X215302Y575295D02*
X216826D01*
X215302Y575549D02*
X216826D01*
X215302Y575803D02*
X216826D01*
X215302Y576057D02*
X216826D01*
X215302Y576311D02*
X216826D01*
X215302Y576565D02*
X216826D01*
X215302Y576819D02*
X216826D01*
X215302Y577073D02*
X216826D01*
X215302Y577327D02*
X216826D01*
X215302Y577581D02*
X216826D01*
X215302Y577835D02*
X216826D01*
X215302Y573263D02*
X216826D01*
X36486Y537703D02*
X37756Y537703D01*
X36486Y537957D02*
X37756D01*
X36486Y538211D02*
X37756D01*
X36486Y538465D02*
X37756D01*
X36486Y538719D02*
X37756Y538719D01*
X36486Y539227D02*
X37756D01*
X36486Y539481D02*
X37756Y539481D01*
X36486Y539735D02*
X37756D01*
X36486Y539989D02*
X37756D01*
X36486Y540243D02*
X37756D01*
X36486Y540497D02*
X37756Y540497D01*
X36486Y540751D02*
X37756D01*
X36486Y541005D02*
X37756D01*
X36486Y541259D02*
X37756Y541259D01*
X36486Y541513D02*
X37756D01*
X36486Y541767D02*
X37756D01*
X36486Y542021D02*
X37756D01*
X36486Y542275D02*
X37756Y542275D01*
X36486Y542529D02*
X37756D01*
X36486Y542783D02*
X37756D01*
X36486Y543037D02*
X37756D01*
X36486Y543291D02*
X37756Y543291D01*
X36486Y543545D02*
X37756D01*
X36486Y543799D02*
X37756D01*
X36486Y544053D02*
X37756D01*
X36486Y544307D02*
X37756Y544307D01*
X36486Y544561D02*
X37756D01*
X36486Y544815D02*
X37756D01*
X36486Y545069D02*
X37756Y545069D01*
X36486Y545323D02*
X37756D01*
X36486Y545577D02*
X37756D01*
X36486Y545831D02*
X37756D01*
X36486Y546085D02*
X37756Y546085D01*
X36486Y546339D02*
X37756D01*
X36486Y546593D02*
X37756D01*
X36486Y546847D02*
X37756Y546847D01*
X36486Y547101D02*
X37756D01*
X36486Y547355D02*
X37756D01*
X36486Y547609D02*
X37756D01*
X36486Y547863D02*
X37756D01*
X36486Y548117D02*
X37756D01*
X36486Y548371D02*
X37756D01*
X36486Y548625D02*
X37756D01*
X36486Y548879D02*
X37756Y548879D01*
X36486Y549133D02*
X37756D01*
X36486Y549387D02*
X37756D01*
X36486Y549641D02*
X37756D01*
X36486Y549895D02*
X37756Y549895D01*
X36486Y550149D02*
X37756D01*
X36486Y550403D02*
X37756D01*
X36486Y550657D02*
X37756Y550657D01*
X36486Y550911D02*
X37756D01*
X36486Y551165D02*
X37756D01*
X36486Y551419D02*
X37756D01*
X36486Y551673D02*
X37756Y551673D01*
X36486Y551927D02*
X37756D01*
X36486Y552181D02*
X37756D01*
X36486Y552435D02*
X37756D01*
X36486Y552689D02*
X37756Y552689D01*
X36486Y538973D02*
X37756D01*
X36486Y553197D02*
X37756D01*
X36486Y553451D02*
X37756D01*
X36486Y553705D02*
X37756Y553705D01*
X36486Y553959D02*
X37756D01*
X36486Y554213D02*
X37756D01*
X36486Y554467D02*
X37756Y554467D01*
X36486Y554721D02*
X37756D01*
X36486Y554975D02*
X37756D01*
X36486Y555229D02*
X37756D01*
X36486Y555483D02*
X37756Y555483D01*
X36486Y555737D02*
X37756D01*
X36486Y555991D02*
X37756D01*
X36486Y556245D02*
X37756Y556245D01*
X36486Y556499D02*
X37756D01*
X36486Y556753D02*
X37756D01*
X36486Y557007D02*
X37756D01*
X36486Y557261D02*
X37756Y557261D01*
X36486Y557515D02*
X37756D01*
X36486Y552943D02*
X37756D01*
X55028Y537703D02*
X60362Y537703D01*
X55028Y537957D02*
X60108D01*
X55028Y538211D02*
X60108D01*
X55028Y538465D02*
X60108D01*
X54774Y538719D02*
X60108Y538719D01*
X54774Y539227D02*
X59854Y539227D01*
X54774Y539481D02*
X59854Y539481D01*
X54774Y539735D02*
X59854D01*
X54774Y539989D02*
X59600D01*
X55028Y540243D02*
X59600D01*
X55028Y540497D02*
X59346D01*
X55536Y540751D02*
X58838D01*
X56044Y541005D02*
X58076D01*
X54774Y538973D02*
X60108D01*
X62394Y537703D02*
X64426Y537703D01*
X62394Y537957D02*
X64426D01*
X62394Y538211D02*
X64172D01*
X62140Y538465D02*
X64172D01*
X62140Y538719D02*
X64172Y538719D01*
X62140Y539227D02*
X64172D01*
X61886Y539481D02*
X64172D01*
X61886Y539735D02*
X64172D01*
X61886Y539989D02*
X64172D01*
X61632Y540243D02*
X64172D01*
X61632Y540497D02*
X64172Y540497D01*
X61378Y540751D02*
X64172Y540751D01*
X61124Y541005D02*
X64426D01*
X60870Y541259D02*
X64426Y541259D01*
X60616Y541513D02*
X64680D01*
X60362Y541767D02*
X64934D01*
X60108Y542021D02*
X65188D01*
X59600Y542275D02*
X65442D01*
X58838Y542529D02*
X66204D01*
X62140Y538973D02*
X64172D01*
X56552Y557007D02*
X56806D01*
X56298Y557261D02*
X57060D01*
X56044Y557515D02*
X57314D01*
X77380Y540751D02*
X79412Y540751D01*
X77380Y541005D02*
X79158D01*
X81698D02*
X83730D01*
X77126Y541259D02*
X79158Y541259D01*
X77126Y541513D02*
X79158D01*
X77126Y541767D02*
X79158D01*
X77126Y542021D02*
X79412D01*
X76872Y542275D02*
X79666Y542275D01*
X76618Y542529D02*
X80428D01*
X76110Y542783D02*
X81952D01*
X77126Y550657D02*
X79666Y550657D01*
X76618Y550911D02*
X80174D01*
X76110Y551165D02*
X80428D01*
X76110Y551419D02*
X80428D01*
X75856Y551673D02*
X80682Y551673D01*
X75602Y551927D02*
X80682Y551927D01*
X75602Y552181D02*
X80682D01*
X75602Y552435D02*
X80682Y552435D01*
X75348Y552689D02*
X80682Y552689D01*
X77888Y537703D02*
X85762D01*
X77888Y537957D02*
X85762D01*
X77888Y538211D02*
X85762D01*
X77634Y538465D02*
X85762D01*
X77634Y538719D02*
X85762Y538719D01*
X77634Y539227D02*
X85508D01*
X77634Y539481D02*
X85508Y539481D01*
X77634Y539735D02*
X85508D01*
X77380Y539989D02*
X85254D01*
X77380Y540243D02*
X85000D01*
X77380Y540497D02*
X84746D01*
X80682Y540751D02*
X84492D01*
X77634Y538973D02*
X85762D01*
X75348Y553197D02*
X80682D01*
X75348Y553451D02*
X80428D01*
X75348Y553705D02*
X80428D01*
X75348Y553959D02*
X80428D01*
X75094Y554213D02*
X80428D01*
X75094Y554467D02*
X80428D01*
X75094Y554721D02*
X80174D01*
X75094Y554975D02*
X80174D01*
X75094Y555229D02*
X80174D01*
X66966Y540751D02*
X70268D01*
X67474Y541005D02*
X69506D01*
X71792Y550403D02*
X74586D01*
X71792Y550657D02*
X74332D01*
X71792Y550911D02*
X74078D01*
X71792Y551165D02*
X73824D01*
X71792Y551419D02*
X73824D01*
X71538Y551673D02*
X73570Y551673D01*
X71538Y551927D02*
X73570Y551927D01*
X71538Y552181D02*
X73570D01*
X71538Y552435D02*
X73316Y552435D01*
X71538Y552689D02*
X73316Y552689D01*
X71284Y553197D02*
X73316D01*
X71284Y553451D02*
X73316D01*
X71284Y553705D02*
X73062D01*
X71284Y553959D02*
X73062D01*
X71284Y554213D02*
X73062D01*
X71284Y554467D02*
X73062D01*
X71030Y554721D02*
X73062D01*
X71030Y554975D02*
X73062D01*
X71030Y555229D02*
X72808D01*
X71030Y555483D02*
X72808D01*
X71030Y555737D02*
X72808D01*
X70776Y555991D02*
X72808D01*
X70776Y556245D02*
X72808D01*
X70776Y556499D02*
X72808D01*
X70776Y556753D02*
X72554D01*
X70776Y557007D02*
X72554D01*
X70776Y557261D02*
X72554D01*
X70522Y557515D02*
X72554D01*
X75348Y552943D02*
X80682D01*
X71538D02*
X73316D01*
X73824Y537703D02*
X75856Y537703D01*
X73824Y537957D02*
X75602D01*
X73824Y538211D02*
X75602D01*
X73570Y538465D02*
X75602D01*
X73570Y538719D02*
X75602Y538719D01*
X73570Y539227D02*
X75602Y539227D01*
X73316Y539481D02*
X75348Y539481D01*
X73316Y539735D02*
X75348D01*
X73316Y539989D02*
X75348D01*
X73062Y540243D02*
X75348D01*
X73062Y540497D02*
X75348Y540497D01*
X72808Y540751D02*
X75348Y540751D01*
X72554Y541005D02*
X75094D01*
X72300Y541259D02*
X75094D01*
X72046Y541513D02*
X75094D01*
X71792Y541767D02*
X75094D01*
X71538Y542021D02*
X75094D01*
X71030Y542275D02*
X75094D01*
X70268Y542529D02*
X75348D01*
X68744Y542783D02*
X75602D01*
X71538Y548879D02*
X77634Y548879D01*
X71792Y549133D02*
X76618D01*
X72046Y549387D02*
X75856D01*
X72046Y549641D02*
X75348D01*
X72046Y549895D02*
X75094D01*
X72046Y550149D02*
X74840D01*
X73570Y538973D02*
X75602Y538973D01*
X74840Y555483D02*
X80174D01*
X74840Y555737D02*
X80174D01*
X74840Y555991D02*
X80174D01*
X74840Y556245D02*
X79920D01*
X74840Y556499D02*
X79920D01*
X74840Y556753D02*
X79920D01*
X74586Y557007D02*
X79920D01*
X74586Y557261D02*
X79920D01*
X74586Y557515D02*
X79920D01*
X98970Y537703D02*
X100494D01*
X98970Y537957D02*
X100494D01*
X98970Y538211D02*
X100494D01*
X98970Y538465D02*
X100240D01*
X98716Y538719D02*
X100240D01*
X98716Y539227D02*
X100240D01*
X98716Y539481D02*
X100240Y539481D01*
X98462Y539735D02*
X100240D01*
X98462Y539989D02*
X100240D01*
X98208Y540243D02*
X100240D01*
X98208Y540497D02*
X100240Y540497D01*
X97954Y540751D02*
X100494Y540751D01*
X97700Y541005D02*
X100494D01*
X97700Y541259D02*
X100494Y541259D01*
X97446Y541513D02*
X100748D01*
X96938Y541767D02*
X101002D01*
X96684Y542021D02*
X101256D01*
X96176Y542275D02*
X101764Y542275D01*
X95414Y542529D02*
X102272D01*
X96430Y548879D02*
X103034D01*
X96938Y549133D02*
X102780D01*
X96938Y549387D02*
X102526D01*
X96938Y549641D02*
X102272D01*
X96938Y549895D02*
X102272D01*
X96938Y550149D02*
X102272D01*
X96938Y550403D02*
X102018D01*
X96938Y550657D02*
X102018D01*
X96684Y550911D02*
X102018D01*
X96684Y551165D02*
X102018D01*
X96684Y551419D02*
X102018D01*
X96684Y551673D02*
X101764Y551673D01*
X96684Y551927D02*
X101764Y551927D01*
X96684Y552181D02*
X101764D01*
X96430Y552435D02*
X101764Y552435D01*
X96430Y552689D02*
X101764Y552689D01*
X98716Y538973D02*
X100240D01*
X102780Y540497D02*
X106844D01*
X103034Y540751D02*
X106336D01*
X103542Y541005D02*
X105574D01*
X96430Y553197D02*
X101510D01*
X96430Y553451D02*
X101510D01*
X96430Y553705D02*
X101510Y553705D01*
X95922Y555737D02*
X101256D01*
X95922Y555991D02*
X101256D01*
X95922Y556245D02*
X101002D01*
X95922Y556499D02*
X101002D01*
X95668Y556753D02*
X101002D01*
X95668Y557007D02*
X101002D01*
X95668Y557261D02*
X101002Y557261D01*
X95668Y557515D02*
X100748D01*
X88048Y537703D02*
X89572D01*
X88048Y537957D02*
X89572D01*
X87794Y538211D02*
X89572D01*
X87794Y538465D02*
X89318D01*
X87794Y538719D02*
X89318D01*
X87794Y539227D02*
X89318D01*
X87540Y539481D02*
X89318D01*
X87540Y539735D02*
X89318D01*
X87540Y539989D02*
X89318D01*
X87540Y540243D02*
X89318D01*
X87286Y540497D02*
X89318D01*
X87286Y540751D02*
X89572D01*
X87032Y541005D02*
X89572D01*
X92620D02*
X94652D01*
X90842Y549641D02*
X94906D01*
X90842Y549895D02*
X94906D01*
X90842Y550149D02*
X94906D01*
X90842Y550403D02*
X94906D01*
X90588Y550657D02*
X94652D01*
X90588Y550911D02*
X94652D01*
X90588Y551165D02*
X94652D01*
X90588Y551419D02*
X94652D01*
X90588Y551673D02*
X94652D01*
X90334Y551927D02*
X94652Y551927D01*
X90334Y552181D02*
X94398D01*
X90334Y552435D02*
X94398D01*
X90334Y552689D02*
X94398D01*
X87794Y538973D02*
X89318D01*
X90334Y553197D02*
X94398D01*
X90080Y553451D02*
X94144D01*
X90080Y553705D02*
X94144D01*
X90080Y553959D02*
X94144D01*
X90080Y554213D02*
X94144D01*
X90080Y554467D02*
X94144D01*
X89826Y554721D02*
X94144D01*
X89826Y554975D02*
X93890D01*
X89826Y555229D02*
X93890D01*
X89826Y555483D02*
X93890Y555483D01*
X89826Y555737D02*
X93890D01*
X89826Y555991D02*
X93890D01*
X89572Y556245D02*
X93636D01*
X89572Y556499D02*
X93636D01*
X89572Y556753D02*
X93636D01*
X89572Y557007D02*
X93636D01*
X89572Y557261D02*
X93636D01*
X89572Y557515D02*
X93636D01*
X96430Y552943D02*
X101764D01*
X90334D02*
X94398D01*
X91604Y537703D02*
X96938D01*
X91604Y537957D02*
X96938D01*
X91604Y538211D02*
X96684D01*
X91604Y538465D02*
X96684D01*
X91604Y538719D02*
X96684D01*
X91350Y539227D02*
X96684D01*
X91350Y539481D02*
X96430Y539481D01*
X91350Y539735D02*
X96430D01*
X91604Y539989D02*
X96176D01*
X91604Y540243D02*
X96176D01*
X91858Y540497D02*
X95922D01*
X92112Y540751D02*
X95414D01*
X93890Y542783D02*
X103796D01*
X90334Y548879D02*
X95922Y548879D01*
X90588Y549133D02*
X95414D01*
X90842Y549387D02*
X95160D01*
X91350Y538973D02*
X96684D01*
X121068Y537703D02*
X123100D01*
X121068Y537957D02*
X123100D01*
X121068Y538211D02*
X122846D01*
X120814Y538465D02*
X122846D01*
X120814Y538719D02*
X122846D01*
X120814Y539227D02*
X122846D01*
X120560Y539481D02*
X122592Y539481D01*
X120560Y539735D02*
X122592D01*
X120560Y539989D02*
X122592D01*
X120306Y540243D02*
X122592D01*
X120306Y540497D02*
X122592Y540497D01*
X120052Y540751D02*
X122592D01*
X119798Y541005D02*
X122338D01*
X119544Y541259D02*
X122338D01*
X119290Y541513D02*
X122338D01*
X119036Y541767D02*
X122338D01*
X118782Y542021D02*
X122338D01*
X118274Y542275D02*
X122338D01*
X117512Y542529D02*
X122592Y542529D01*
X115988Y542783D02*
X123100D01*
X119544Y550657D02*
X122084Y550657D01*
X119036Y550911D02*
X122592D01*
X118528Y551165D02*
X122846D01*
X118274Y551419D02*
X122846D01*
X118274Y551673D02*
X123100D01*
X118020Y551927D02*
X123100D01*
X118020Y552181D02*
X123100D01*
X118020Y552435D02*
X123100D01*
X117766Y552689D02*
X123100D01*
X120814Y538973D02*
X122846D01*
X125132Y537703D02*
X127164D01*
X125132Y537957D02*
X127164D01*
X125132Y538211D02*
X126910D01*
X124878Y538465D02*
X126910D01*
X124878Y538719D02*
X126910D01*
X124878Y539227D02*
X126910D01*
X124878Y539481D02*
X126910D01*
X124878Y539735D02*
X126910D01*
X124624Y539989D02*
X126910D01*
X124624Y540243D02*
X126910D01*
X124624Y540497D02*
X126910Y540497D01*
X124624Y540751D02*
X126910D01*
X124624Y541005D02*
X127164D01*
X124624Y541259D02*
X127164D01*
X122338Y548879D02*
X126910D01*
X123354Y549133D02*
X126402D01*
X123862Y549387D02*
X126402D01*
X124116Y549641D02*
X126148D01*
X124624Y549895D02*
X126148Y549895D01*
X124624Y550149D02*
X126148Y550149D01*
X124878Y550403D02*
X126402D01*
X124878Y538973D02*
X126910D01*
X117766Y553197D02*
X122846D01*
X117766Y553451D02*
X122846D01*
X117766Y553705D02*
X122846D01*
X117512Y553959D02*
X122846D01*
X117512Y554213D02*
X122846D01*
X117512Y554467D02*
X122846D01*
X117512Y554721D02*
X122592D01*
X117512Y554975D02*
X122592D01*
X117258Y555229D02*
X122592D01*
X117258Y555483D02*
X122592D01*
X117258Y555737D02*
X122592D01*
X117258Y555991D02*
X122338D01*
X117258Y556245D02*
X122338D01*
X117258Y556499D02*
X122338D01*
X117004Y556753D02*
X122338D01*
X117004Y557007D02*
X122338D01*
X117004Y557261D02*
X122338Y557261D01*
X117004Y557515D02*
X122084Y557515D01*
X109892Y537703D02*
X111670D01*
X109892Y537957D02*
X111670D01*
X109892Y538211D02*
X111416D01*
X109892Y538465D02*
X111416D01*
X109638Y538719D02*
X111416Y538719D01*
X109638Y539227D02*
X111416D01*
X109638Y539481D02*
X111416Y539481D01*
X109384Y539735D02*
X111416D01*
X109384Y539989D02*
X111416D01*
X109130Y540243D02*
X111416D01*
X109130Y540497D02*
X111416Y540497D01*
X108876Y540751D02*
X111416D01*
X108622Y541005D02*
X111670D01*
X108622Y541259D02*
X111670D01*
X108368Y541513D02*
X111924D01*
X107860Y541767D02*
X112178D01*
X107606Y542021D02*
X112432D01*
X109638Y538973D02*
X111416D01*
X113448Y554975D02*
X115226D01*
X113448Y555229D02*
X115226D01*
X113448Y555483D02*
X115226D01*
X113194Y555737D02*
X115226D01*
X113194Y555991D02*
X115226D01*
X113194Y556245D02*
X115226Y556245D01*
X113194Y556499D02*
X114972D01*
X113194Y556753D02*
X114972D01*
X113194Y557007D02*
X114972D01*
X112940Y557261D02*
X114972Y557261D01*
X112940Y557515D02*
X114972Y557515D01*
X117766Y552943D02*
X123100D01*
X113702Y537703D02*
X119036D01*
X113702Y537957D02*
X118782D01*
X113702Y538211D02*
X118782D01*
X113702Y538465D02*
X118782D01*
X113448Y538719D02*
X118782Y538719D01*
X113448Y539227D02*
X118782D01*
X113448Y539481D02*
X118528Y539481D01*
X113448Y539735D02*
X118528D01*
X113448Y539989D02*
X118274D01*
X113702Y540243D02*
X118274D01*
X113702Y540497D02*
X118020D01*
X114210Y540751D02*
X117512D01*
X114718Y541005D02*
X116750Y541005D01*
X113702Y548879D02*
X120052Y548879D01*
X114210Y549133D02*
X118782D01*
X114210Y549387D02*
X118274D01*
X114464Y549641D02*
X117766D01*
X114464Y549895D02*
X117512Y549895D01*
X114210Y550149D02*
X117258D01*
X114210Y550403D02*
X116750D01*
X114210Y550657D02*
X116750D01*
X114210Y550911D02*
X116496D01*
X114210Y551165D02*
X116242D01*
X113956Y551419D02*
X116242D01*
X113956Y551673D02*
X115988D01*
X113956Y551927D02*
X115988D01*
X113956Y552181D02*
X115988D01*
X113956Y552435D02*
X115734D01*
X113956Y552689D02*
X115734D01*
X113448Y538973D02*
X118782D01*
X113702Y553197D02*
X115734D01*
X113702Y553451D02*
X115480D01*
X113702Y553705D02*
X115480D01*
X113702Y553959D02*
X115480D01*
X113702Y554213D02*
X115480D01*
X113448Y554467D02*
X115480D01*
X113448Y554721D02*
X115480D01*
X113702Y552943D02*
X115734D01*
X136562Y537703D02*
X138594D01*
X136562Y537957D02*
X138594D01*
X136562Y538211D02*
X138340D01*
X136308Y538465D02*
X138340D01*
X136308Y538719D02*
X138340D01*
X136308Y539227D02*
X138340D01*
X136054Y539481D02*
X138340D01*
X136054Y539735D02*
X138340D01*
X136054Y539989D02*
X138340D01*
X140372D02*
X145198D01*
X140626Y540243D02*
X145198D01*
X140626Y540497D02*
X144944D01*
X141134Y540751D02*
X144436D01*
X141642Y541005D02*
X143674D01*
X142150Y548879D02*
X143674D01*
X143420Y549133D02*
X143674D01*
X139610Y550657D02*
X141896D01*
X139102Y550911D02*
X142658D01*
X138594Y551165D02*
X142912D01*
X138340Y551419D02*
X142912D01*
X138340Y551673D02*
X143166Y551673D01*
X138086Y551927D02*
X143166Y551927D01*
X138086Y552181D02*
X143166D01*
X137832Y552435D02*
X143166Y552435D01*
X137832Y552689D02*
X143166Y552689D01*
X136308Y538973D02*
X138340D01*
X140626Y537703D02*
X145960D01*
X140626Y537957D02*
X145706D01*
X140626Y538211D02*
X145706D01*
X140626Y538465D02*
X145706D01*
X140372Y538719D02*
X145706D01*
X140372Y539227D02*
X145452D01*
X140372Y539481D02*
X145452D01*
X140372Y539735D02*
X145452D01*
X140372Y538973D02*
X145706D01*
X137832Y553197D02*
X142912D01*
X137832Y553451D02*
X142912D01*
X137578Y553705D02*
X142912Y553705D01*
X137578Y553959D02*
X142912D01*
X137578Y554213D02*
X142912D01*
X137578Y554467D02*
X142658Y554467D01*
X137578Y554721D02*
X142658D01*
X137578Y554975D02*
X142658D01*
X137324Y555229D02*
X142658D01*
X137324Y555483D02*
X142658Y555483D01*
X137324Y555737D02*
X142658D01*
X137324Y555991D02*
X142404D01*
X137324Y556245D02*
X142404D01*
X137324Y556499D02*
X142404D01*
X137070Y556753D02*
X142404D01*
X137070Y557007D02*
X142404D01*
X137070Y557261D02*
X142404Y557261D01*
X137070Y557515D02*
X142150Y557515D01*
X129196Y537703D02*
X134530D01*
X129196Y537957D02*
X134276D01*
X129196Y538211D02*
X134276D01*
X128942Y538465D02*
X134276D01*
X128942Y538719D02*
X134276D01*
X128942Y539227D02*
X134022D01*
X128942Y539481D02*
X134022D01*
X128942Y539735D02*
X134022D01*
X128942Y539989D02*
X133768D01*
X129196Y540243D02*
X133514D01*
X129196Y540497D02*
X133514D01*
X129704Y540751D02*
X133006D01*
X130212Y541005D02*
X132244D01*
X128942Y538973D02*
X134276D01*
X133514Y553451D02*
X135546D01*
X133514Y553705D02*
X135546Y553705D01*
X133514Y553959D02*
X135546Y553959D01*
X133514Y554213D02*
X135546Y554213D01*
X133260Y554467D02*
X135546Y554467D01*
X133260Y554721D02*
X135292D01*
X133260Y554975D02*
X135292D01*
X133260Y555229D02*
X135292D01*
X133260Y555483D02*
X135292Y555483D01*
X133006Y555737D02*
X135292Y555737D01*
X133006Y555991D02*
X135292D01*
X133006Y556245D02*
X135038D01*
X133006Y556499D02*
X135038D01*
X133006Y556753D02*
X135038D01*
X133006Y557007D02*
X135038D01*
X132752Y557261D02*
X135038D01*
X132752Y557515D02*
X135038D01*
X137832Y552943D02*
X143166D01*
X135800Y540243D02*
X138340D01*
X135800Y540497D02*
X138340Y540497D01*
X135546Y540751D02*
X138340Y540751D01*
X135292Y541005D02*
X138594D01*
X135038Y541259D02*
X138594D01*
X134784Y541513D02*
X138848D01*
X134530Y541767D02*
X139102D01*
X134276Y542021D02*
X139356D01*
X133768Y542275D02*
X139610Y542275D01*
X133006Y542529D02*
X140372D01*
X131482Y542783D02*
X141896D01*
X133768Y548879D02*
X140118D01*
X134022Y549133D02*
X138848D01*
X134276Y549387D02*
X138340D01*
X134276Y549641D02*
X137832D01*
X134276Y549895D02*
X137578Y549895D01*
X134022Y550149D02*
X137070D01*
X134022Y550403D02*
X136816D01*
X134022Y550657D02*
X136816D01*
X134022Y550911D02*
X136562D01*
X134022Y551165D02*
X136308D01*
X133768Y551419D02*
X136308D01*
X133768Y551673D02*
X136054D01*
X133768Y551927D02*
X136054D01*
X133768Y552181D02*
X135800D01*
X133768Y552435D02*
X135800D01*
X133768Y552689D02*
X135800Y552689D01*
X133514Y553197D02*
X135800D01*
X133514Y552943D02*
X135800D01*
X156628Y549133D02*
X158914D01*
X156628Y549387D02*
X158660D01*
X156882Y549641D02*
X158660D01*
X156882Y549895D02*
X158660D01*
X156628Y550149D02*
X158660D01*
X156628Y550403D02*
X158914D01*
X156374Y550657D02*
X164248Y550657D01*
X159676Y555737D02*
X164756D01*
X159676Y555991D02*
X164756D01*
X159422Y556245D02*
X164756D01*
X159422Y556499D02*
X164756D01*
X159422Y556753D02*
X164756D01*
X159422Y557007D02*
X164502D01*
X159422Y557261D02*
X164502Y557261D01*
X159422Y557515D02*
X164502D01*
X147992Y537703D02*
X149516D01*
X147992Y537957D02*
X149516D01*
X147992Y538211D02*
X149516D01*
X151802Y540497D02*
X155866D01*
X152056Y540751D02*
X155612D01*
X152818Y541005D02*
X154596D01*
X149516Y548879D02*
X155612D01*
X149770Y549133D02*
X155104D01*
X150024Y549387D02*
X154850D01*
X150024Y549641D02*
X154596D01*
X150278Y549895D02*
X154596D01*
X150278Y550149D02*
X154342D01*
X150532Y550403D02*
X154088D01*
X150532Y550657D02*
X153834D01*
X150786Y550911D02*
X153580D01*
X150786Y551165D02*
X153326D01*
X150786Y551419D02*
X153326D01*
X151040Y551673D02*
X153072D01*
X151040Y551927D02*
X152818D01*
X151294Y552181D02*
X152564D01*
X151294Y552435D02*
X152310D01*
X151548Y552689D02*
X152310D01*
X150786Y557261D02*
X151294D01*
X150532Y557515D02*
X151294D01*
X151548Y552943D02*
X152056D01*
X151548Y537703D02*
X156882D01*
X151548Y537957D02*
X156882D01*
X151548Y538211D02*
X156882D01*
X151548Y538465D02*
X156882D01*
X151548Y538719D02*
X156628D01*
X151548Y539227D02*
X156628D01*
X151548Y539481D02*
X156628D01*
X151548Y539735D02*
X156374D01*
X151548Y539989D02*
X156374D01*
X151548Y540243D02*
X156120D01*
Y548879D02*
X159168D01*
X156120Y550911D02*
X164756D01*
X155866Y551165D02*
X165010D01*
X155612Y551419D02*
X165264D01*
X155612Y551673D02*
X165264Y551673D01*
X155358Y551927D02*
X165264Y551927D01*
X155104Y552181D02*
X165264D01*
X154850Y552435D02*
X165264Y552435D01*
X154596Y552689D02*
X165264D01*
X151548Y538973D02*
X156628D01*
X154342Y553197D02*
X165264D01*
X154088Y553451D02*
X165264D01*
X153834Y553705D02*
X165264D01*
X153580Y553959D02*
X158406D01*
X153326Y554213D02*
X157898D01*
X153072Y554467D02*
X157898D01*
X153072Y554721D02*
X157644D01*
X152818Y554975D02*
X157644D01*
X152818Y555229D02*
X157644D01*
X152818Y555483D02*
X157644Y555483D01*
X153072Y555737D02*
X157390D01*
X153072Y555991D02*
X157390D01*
X153326Y556245D02*
X157390D01*
X153326Y556499D02*
X157390D01*
X153326Y556753D02*
X157390D01*
X153580Y557007D02*
X157390D01*
X153580Y557261D02*
X157136D01*
X153834Y557515D02*
X157136D01*
X154342Y552943D02*
X165264D01*
X187870Y552181D02*
X188124Y552181D01*
X187362Y552435D02*
X187870Y552435D01*
X186346Y552689D02*
X187108D01*
X184060Y549641D02*
X184568D01*
X184060Y549895D02*
X185076D01*
X184314Y550149D02*
X185584D01*
X184314Y550403D02*
X186092Y550403D01*
X184568Y550657D02*
X186346Y550657D01*
X185584Y551927D02*
X186092D01*
X185838Y552181D02*
X186600D01*
X186092Y552435D02*
X186854D01*
X189648Y553197D02*
X189902D01*
X189648Y553451D02*
X190410D01*
X192950D02*
X193458D01*
X189902Y553705D02*
X190664Y553705D01*
X192696D02*
X193458Y553705D01*
X189902Y553959D02*
X190664D01*
X191680D02*
X191934D01*
X192442D02*
X193712D01*
X190156Y554213D02*
X190918D01*
X191172D02*
X192188D01*
X192442D02*
X193712D01*
X188632Y554467D02*
X189140D01*
X190410D02*
X193966D01*
X190410Y554721D02*
X193966D01*
X190664Y554975D02*
X193966D01*
X190156Y555229D02*
X193966D01*
X190410Y555483D02*
X193712D01*
X194220D02*
X194982Y555483D01*
X191680Y555737D02*
X194728Y555737D01*
X191426Y555991D02*
X194728D01*
X191172Y556245D02*
X194474D01*
X191426Y556499D02*
X194220D01*
X191680Y556753D02*
X194982D01*
X191680Y557007D02*
X194728D01*
X191934Y557261D02*
X194728D01*
X192188Y557515D02*
X194982D01*
X215302Y537703D02*
X216826D01*
X215302Y537957D02*
X216826D01*
X215302Y538211D02*
X216826D01*
X215302Y538465D02*
X216826D01*
X215302Y538719D02*
X216826D01*
X215302Y539227D02*
X216826D01*
X215302Y539481D02*
X216826D01*
X215302Y539735D02*
X216826D01*
X215302Y539989D02*
X216826D01*
X215302Y540243D02*
X216826D01*
X215302Y540497D02*
X216826D01*
X215302Y540751D02*
X216826D01*
X215302Y541005D02*
X216826D01*
X215302Y541259D02*
X216826D01*
X215302Y541513D02*
X216826D01*
X215302Y541767D02*
X216826D01*
X215302Y542021D02*
X216826D01*
X215302Y542275D02*
X216826D01*
X215302Y542529D02*
X216826D01*
X215302Y542783D02*
X216826D01*
X215302Y543037D02*
X216826D01*
X215302Y543291D02*
X216826D01*
X215302Y543545D02*
X216826D01*
X215302Y543799D02*
X216826D01*
X215302Y544053D02*
X216826D01*
X215302Y544307D02*
X216826D01*
X215302Y544561D02*
X216826D01*
X215302Y544815D02*
X216826D01*
X215302Y545069D02*
X216826D01*
X215302Y545323D02*
X216826D01*
X215302Y545577D02*
X216826D01*
X215302Y545831D02*
X216826D01*
X215302Y546085D02*
X216826D01*
X215302Y546339D02*
X216826D01*
X215302Y546593D02*
X216826D01*
X215302Y546847D02*
X216826D01*
X215302Y547101D02*
X216826D01*
X215302Y547355D02*
X216826D01*
X215302Y547609D02*
X216826D01*
X215302Y547863D02*
X216826D01*
X215302Y548117D02*
X216826D01*
X215302Y548371D02*
X216826D01*
X215302Y548625D02*
X216826D01*
X215302Y548879D02*
X216826D01*
X215302Y549133D02*
X216826D01*
X215302Y549387D02*
X216826D01*
X215302Y549641D02*
X216826D01*
X215302Y549895D02*
X216826D01*
X215302Y550149D02*
X216826D01*
X215302Y550403D02*
X216826D01*
X215302Y550657D02*
X216826D01*
X215302Y550911D02*
X216826D01*
X215302Y551165D02*
X216826D01*
X215302Y551419D02*
X216826D01*
X215302Y551673D02*
X216826D01*
X215302Y551927D02*
X216826D01*
X215302Y552181D02*
X216826D01*
X215302Y552435D02*
X216826D01*
X215302Y552689D02*
X216826D01*
X215302Y538973D02*
X216826D01*
X215302Y553197D02*
X216826D01*
X215302Y553451D02*
X216826D01*
X215302Y553705D02*
X216826D01*
X215302Y553959D02*
X216826D01*
X215302Y554213D02*
X216826D01*
X215302Y554467D02*
X216826D01*
X215302Y554721D02*
X216826D01*
X215302Y554975D02*
X216826D01*
X215302Y555229D02*
X216826D01*
X215302Y555483D02*
X216826D01*
X215302Y555737D02*
X216826D01*
X215302Y555991D02*
X216826D01*
X215302Y556245D02*
X216826D01*
X215302Y556499D02*
X216826D01*
X215302Y556753D02*
X216826D01*
X215302Y557007D02*
X216826D01*
X215302Y557261D02*
X216826D01*
X215302Y557515D02*
X216826D01*
X215302Y552943D02*
X216826D01*
X36486Y517383D02*
X37756D01*
X36486Y517637D02*
X37756D01*
X36486Y517891D02*
X37756D01*
X36486Y518145D02*
X37756Y518145D01*
X36486Y518399D02*
X37756D01*
X36486Y518907D02*
X37756Y518907D01*
X36486Y519161D02*
X37756D01*
X36486Y519415D02*
X37756D01*
X36486Y519669D02*
X37756D01*
X36486Y519923D02*
X37756Y519923D01*
X36486Y520177D02*
X37756D01*
X36486Y520431D02*
X37756D01*
X36486Y520685D02*
X37756Y520685D01*
X36486Y520939D02*
X37756D01*
X36486Y521193D02*
X37756D01*
X36486Y521447D02*
X37756D01*
X36486Y521701D02*
X37756Y521701D01*
X36486Y521955D02*
X37756D01*
X36486Y522209D02*
X37756D01*
X36486Y522463D02*
X37756D01*
X36486Y522717D02*
X37756Y522717D01*
X36486Y522971D02*
X37756D01*
X36486Y523225D02*
X37756D01*
X36486Y523479D02*
X37756D01*
X36486Y523733D02*
X37756Y523733D01*
X36486Y523987D02*
X37756D01*
X36486Y524241D02*
X37756D01*
X36486Y524495D02*
X37756Y524495D01*
X36486Y524749D02*
X37756D01*
X36486Y525003D02*
X37756D01*
X36486Y525257D02*
X37756D01*
X36486Y525511D02*
X37756Y525511D01*
X36486Y525765D02*
X37756D01*
X36486Y526019D02*
X37756D01*
X36486Y526273D02*
X37756Y526273D01*
X36486Y526527D02*
X37756D01*
X36486Y526781D02*
X37756D01*
X36486Y527035D02*
X37756D01*
X36486Y527289D02*
X37756Y527289D01*
X36486Y527543D02*
X37756D01*
X36486Y527797D02*
X37756D01*
X36486Y528051D02*
X37756D01*
X36486Y528305D02*
X37756Y528305D01*
X36486Y528559D02*
X37756D01*
X36486Y528813D02*
X37756D01*
X36486Y529067D02*
X37756D01*
X36486Y529321D02*
X37756Y529321D01*
X36486Y529575D02*
X37756D01*
X36486Y529829D02*
X37756D01*
X36486Y530083D02*
X37756Y530083D01*
X36486Y530337D02*
X37756D01*
X36486Y530591D02*
X37756D01*
X36486Y530845D02*
X37756D01*
X36486Y531099D02*
X37756Y531099D01*
X36486Y531353D02*
X37756D01*
X36486Y531607D02*
X37756D01*
X36486Y531861D02*
X37756Y531861D01*
X36486Y532115D02*
X37756D01*
X36486Y532369D02*
X37756D01*
X36486Y518653D02*
X37756D01*
X36486Y532877D02*
X37756D01*
X36486Y533131D02*
X37756D01*
X36486Y533385D02*
X37756D01*
X36486Y533639D02*
X37756D01*
X36486Y533893D02*
X37756Y533893D01*
X36486Y534147D02*
X37756D01*
X36486Y534401D02*
X37756D01*
X36486Y534655D02*
X37756D01*
X36486Y534909D02*
X37756Y534909D01*
X36486Y535163D02*
X37756D01*
X36486Y535417D02*
X37756D01*
X36486Y535671D02*
X37756Y535671D01*
X36486Y535925D02*
X37756D01*
X36486Y536179D02*
X37756D01*
X36486Y536433D02*
X37756D01*
X36486Y536687D02*
X37756Y536687D01*
X36486Y536941D02*
X37756D01*
X36486Y537195D02*
X37756D01*
X36486Y532623D02*
X37756D01*
X56298Y530337D02*
X57822D01*
X56298Y530591D02*
X56806D01*
X57314Y532115D02*
X59854D01*
X56806Y532369D02*
X60362D01*
X61124Y530591D02*
X65950D01*
X61886Y530845D02*
X65696D01*
X62140Y531099D02*
X65696D01*
X62394Y531353D02*
X65442Y531353D01*
X62648Y531607D02*
X65442D01*
X62648Y531861D02*
X65442Y531861D01*
X62902Y532115D02*
X65442D01*
X62902Y532369D02*
X65188D01*
X56298Y532877D02*
X60870D01*
X56044Y533131D02*
X60870D01*
X55790Y533385D02*
X60870D01*
X55790Y533639D02*
X60870D01*
X55790Y533893D02*
X60870Y533893D01*
X55790Y534147D02*
X60870D01*
X55536Y534401D02*
X60870D01*
X55536Y534655D02*
X60870D01*
X55536Y534909D02*
X60616D01*
X55536Y535163D02*
X60616D01*
X55536Y535417D02*
X60616D01*
X55282Y535671D02*
X60616D01*
X55282Y535925D02*
X60616D01*
X55282Y536179D02*
X60616D01*
X55282Y536433D02*
X60362D01*
X55282Y536687D02*
X60362Y536687D01*
X55282Y536941D02*
X60362Y536941D01*
X55028Y537195D02*
X60362D01*
X63156Y532877D02*
X65188D01*
X63156Y533131D02*
X65188D01*
X63156Y533385D02*
X65188D01*
X63156Y533639D02*
X65188D01*
X62902Y533893D02*
X64934D01*
X62902Y534147D02*
X64934D01*
X62902Y534401D02*
X64934D01*
X62902Y534655D02*
X64934D01*
X62902Y534909D02*
X64934D01*
X62902Y535163D02*
X64934D01*
X62648Y535417D02*
X64680D01*
X62648Y535671D02*
X64680Y535671D01*
X62648Y535925D02*
X64680D01*
X62648Y536179D02*
X64680D01*
X62648Y536433D02*
X64680D01*
X62648Y536687D02*
X64680Y536687D01*
X62394Y536941D02*
X64426Y536941D01*
X62394Y537195D02*
X64426D01*
X56552Y532623D02*
X60616D01*
X62902D02*
X65188D01*
X78650Y533385D02*
X86524D01*
X78650Y533639D02*
X86524D01*
X78650Y533893D02*
X86524Y533893D01*
X78396Y534147D02*
X86524D01*
X78396Y534401D02*
X86524D01*
X78396Y534655D02*
X86524D01*
X78396Y534909D02*
X86270D01*
X78396Y535163D02*
X86270D01*
X78396Y535417D02*
X86270D01*
X78142Y535671D02*
X86270D01*
X78142Y535925D02*
X86270D01*
X78142Y536179D02*
X86270D01*
X78142Y536433D02*
X86016D01*
X78142Y536687D02*
X86016D01*
X77888Y536941D02*
X86016D01*
X77888Y537195D02*
X86016D01*
X67220Y530337D02*
X73570D01*
X67474Y530591D02*
X73316D01*
X67474Y530845D02*
X73062D01*
X67728Y531099D02*
X72808D01*
X67728Y531353D02*
X72808D01*
X67474Y531607D02*
X72808D01*
X67474Y531861D02*
X72808D01*
X67474Y532115D02*
X72554D01*
X67474Y532369D02*
X72554D01*
X67220Y532877D02*
X72554D01*
X67220Y533131D02*
X72554D01*
X67220Y533385D02*
X72554D01*
X67220Y533639D02*
X72300D01*
X67220Y533893D02*
X72300D01*
X67220Y534147D02*
X72300D01*
X66966Y534401D02*
X72300D01*
X66966Y534655D02*
X72300D01*
X66966Y534909D02*
X72300D01*
X66966Y535163D02*
X72046D01*
X66966Y535417D02*
X72046D01*
X66712Y535671D02*
X72046D01*
X66712Y535925D02*
X72046D01*
X66712Y536179D02*
X72046D01*
X66712Y536433D02*
X72046D01*
X66712Y536687D02*
X71792Y536687D01*
X66712Y536941D02*
X71792Y536941D01*
X67474Y532623D02*
X72554D01*
X74332Y530337D02*
X77888D01*
X74840Y530591D02*
X77380D01*
X74840Y530845D02*
X77126D01*
X74840Y531099D02*
X76872D01*
X74840Y531353D02*
X76872D01*
X74840Y531607D02*
X76872D01*
X74840Y531861D02*
X76872D01*
X74840Y532115D02*
X76872D01*
X74840Y532369D02*
X76618D01*
X74586Y532877D02*
X76618D01*
X74586Y533131D02*
X76618D01*
X74586Y533385D02*
X76618D01*
X74586Y533639D02*
X76364D01*
X74586Y533893D02*
X76364D01*
X74332Y534147D02*
X76364D01*
X74332Y534401D02*
X76364D01*
X74332Y534655D02*
X76364D01*
X74332Y534909D02*
X76364D01*
X74332Y535163D02*
X76110D01*
X74332Y535417D02*
X76110D01*
X74078Y535671D02*
X76110D01*
X74078Y535925D02*
X76110D01*
X74078Y536179D02*
X76110D01*
X74078Y536433D02*
X76110D01*
X74078Y536687D02*
X75856Y536687D01*
X73824Y536941D02*
X75856D01*
X73824Y537195D02*
X75856D01*
X74586Y532623D02*
X76618D01*
X96938Y530337D02*
X102272D01*
X97700Y530591D02*
X102018D01*
X98462Y530845D02*
X101764D01*
X98716Y531099D02*
X101764D01*
X98970Y531353D02*
X101510D01*
X99224Y531607D02*
X101764D01*
X99478Y531861D02*
X102018D01*
X99478Y535417D02*
X101256D01*
X99478Y535671D02*
X101002D01*
X99224Y535925D02*
X100748D01*
X99224Y536179D02*
X100748D01*
X99224Y536433D02*
X100748D01*
X99224Y536687D02*
X100748D01*
X99224Y536941D02*
X100748D01*
X98970Y537195D02*
X100494D01*
X88556Y530337D02*
X91350D01*
X89064Y530591D02*
X91096D01*
X89064Y530845D02*
X90842D01*
X89064Y531099D02*
X90842Y531099D01*
X89064Y531353D02*
X90588D01*
X89064Y531607D02*
X90842D01*
X89064Y531861D02*
X91096D01*
X88302Y535417D02*
X90334D01*
X88302Y535671D02*
X90080Y535671D01*
X88302Y535925D02*
X89826D01*
X88302Y536179D02*
X89826D01*
X88302Y536433D02*
X89826D01*
X88302Y536687D02*
X89826D01*
X88048Y536941D02*
X89826D01*
X88048Y537195D02*
X89572D01*
X89064Y532115D02*
X96430D01*
X89064Y532369D02*
X96938D01*
X88810Y532877D02*
X97446D01*
X88810Y533131D02*
X97446D01*
X88810Y533385D02*
X97446D01*
X88810Y533639D02*
X97446D01*
X88556Y533893D02*
X97446D01*
X88556Y534147D02*
X97446D01*
X88556Y534401D02*
X97446D01*
X88556Y534655D02*
X97446D01*
X88556Y534909D02*
X97446Y534909D01*
X88556Y535163D02*
X97446Y535163D01*
X91858Y537195D02*
X96938D01*
X88810Y532623D02*
X97192D01*
X122084Y530591D02*
X124624D01*
X122084Y530845D02*
X124370D01*
X122338Y531099D02*
X124370Y531099D01*
X122084Y531353D02*
X124116D01*
X122084Y531607D02*
X124116D01*
X122084Y531861D02*
X124116Y531861D01*
X122084Y532115D02*
X124116D01*
X122084Y532369D02*
X123862D01*
X121830Y530337D02*
X125132D01*
X125386Y536687D02*
X127164D01*
X125386Y536941D02*
X127164D01*
X121830Y532877D02*
X123862D01*
X121830Y533131D02*
X123862D01*
X121830Y533385D02*
X123862D01*
X121830Y533639D02*
X123862D01*
X121830Y533893D02*
X123608D01*
X121576Y534147D02*
X123608D01*
X121576Y534401D02*
X123608D01*
X121576Y534655D02*
X123608D01*
X121576Y534909D02*
X123608D01*
X121576Y535163D02*
X123354D01*
X121576Y535417D02*
X123354D01*
X121322Y535671D02*
X123354D01*
X121322Y535925D02*
X123354D01*
X121322Y536179D02*
X123354D01*
X121322Y536433D02*
X123354D01*
X121322Y536687D02*
X123100D01*
X121068Y536941D02*
X123100D01*
X121068Y537195D02*
X123100D01*
X125132D02*
X127164D01*
X107860Y530337D02*
X113702D01*
X108622Y530591D02*
X113194D01*
X109384Y530845D02*
X112940D01*
X109638Y531099D02*
X112940D01*
X109892Y531353D02*
X112686D01*
X110146Y531607D02*
X112686D01*
X110400Y531861D02*
X112686D01*
X110400Y532115D02*
X112686D01*
X110400Y532369D02*
X112686D01*
X110654Y532877D02*
X112432D01*
X110654Y533131D02*
X112432D01*
X110654Y533385D02*
X112432D01*
X110654Y533639D02*
X112432D01*
X110654Y533893D02*
X112178D01*
X110654Y534147D02*
X112178D01*
X110400Y534401D02*
X112178D01*
X110400Y534655D02*
X112178D01*
X110400Y534909D02*
X112178D01*
X110400Y535163D02*
X112178D01*
X110400Y535417D02*
X111924D01*
X110400Y535671D02*
X111924D01*
X110146Y535925D02*
X111924D01*
X110146Y536179D02*
X111924D01*
X110146Y536433D02*
X111924D01*
X110146Y536687D02*
X111924D01*
X110146Y536941D02*
X111670D01*
X109892Y537195D02*
X111670D01*
X121830Y532623D02*
X123862D01*
X110654D02*
X112432D01*
X114464Y530337D02*
X121068D01*
X114718Y530591D02*
X120560D01*
X114718Y530845D02*
X120306D01*
X114972Y531099D02*
X120052Y531099D01*
X114972Y531353D02*
X120052Y531353D01*
X114718Y531607D02*
X120052D01*
X114718Y531861D02*
X120052Y531861D01*
X114718Y532115D02*
X120052D01*
X114718Y532369D02*
X119798D01*
X114464Y532877D02*
X119798D01*
X114464Y533131D02*
X119798D01*
X114464Y533385D02*
X119798D01*
X114464Y533639D02*
X119544D01*
X114464Y533893D02*
X119544D01*
X114464Y534147D02*
X119544D01*
X114210Y534401D02*
X119544D01*
X114210Y534655D02*
X119544D01*
X114210Y534909D02*
X119544D01*
X114210Y535163D02*
X119290D01*
X114210Y535417D02*
X119290D01*
X114210Y535671D02*
X119290D01*
X113956Y535925D02*
X119290D01*
X113956Y536179D02*
X119290D01*
X113956Y536433D02*
X119290D01*
X113956Y536687D02*
X119036D01*
X113956Y536941D02*
X119036D01*
X113702Y537195D02*
X119036D01*
X114718Y532623D02*
X119798D01*
X136054Y530845D02*
X139864D01*
X136308Y531099D02*
X139864D01*
X136562Y531353D02*
X139610D01*
X136816Y531607D02*
X139610D01*
X136816Y531861D02*
X139610D01*
X137070Y532115D02*
X139610D01*
X137070Y532369D02*
X139356D01*
X141642Y530591D02*
X147484D01*
X141642Y530845D02*
X147230D01*
X141896Y531099D02*
X146976D01*
X141642Y531353D02*
X146976D01*
X141642Y531607D02*
X146976D01*
X141642Y531861D02*
X146976D01*
X141642Y532115D02*
X146722D01*
X141642Y532369D02*
X146722D01*
X137070Y532877D02*
X139356D01*
X137324Y533131D02*
X139356Y533131D01*
X137324Y533385D02*
X139356D01*
X137324Y533639D02*
X139356Y533639D01*
X137070Y533893D02*
X139102Y533893D01*
X137070Y534147D02*
X139102D01*
X137070Y534401D02*
X139102D01*
X137070Y534655D02*
X139102D01*
X137070Y534909D02*
X139102Y534909D01*
X137070Y535163D02*
X139102D01*
X136816Y535417D02*
X138848D01*
X136816Y535671D02*
X138848D01*
X136816Y535925D02*
X138848D01*
X136816Y536179D02*
X138848D01*
X136816Y536433D02*
X138848D01*
X136816Y536687D02*
X138594D01*
X136562Y536941D02*
X138594D01*
X136562Y537195D02*
X138594D01*
X141388Y532877D02*
X146722D01*
X141388Y533131D02*
X146722Y533131D01*
X141388Y533385D02*
X146722Y533385D01*
X141388Y533639D02*
X146468D01*
X141388Y533893D02*
X146468Y533893D01*
X141388Y534147D02*
X146468D01*
X141134Y534401D02*
X146468D01*
X141134Y534655D02*
X146468D01*
X141134Y534909D02*
X146468Y534909D01*
X141134Y535163D02*
X146214Y535163D01*
X141134Y535417D02*
X146214Y535417D01*
X140880Y535671D02*
X146214Y535671D01*
X140880Y535925D02*
X146214D01*
X140880Y536179D02*
X146214D01*
X140880Y536433D02*
X145960D01*
X140880Y536687D02*
X145960D01*
X140880Y536941D02*
X145960D01*
X140626Y537195D02*
X145960D01*
X130466Y530337D02*
X131990D01*
X130466Y530591D02*
X130974D01*
X131482Y532115D02*
X134022D01*
X130974Y532369D02*
X134530D01*
X130466Y532877D02*
X135038D01*
X130212Y533131D02*
X135038D01*
X129958Y533385D02*
X135038D01*
X129958Y533639D02*
X135038D01*
X129958Y533893D02*
X135038Y533893D01*
X129958Y534147D02*
X135038D01*
X129704Y534401D02*
X135038D01*
X129704Y534655D02*
X135038D01*
X129704Y534909D02*
X134784Y534909D01*
X129704Y535163D02*
X134784Y535163D01*
X129704Y535417D02*
X134784D01*
X129450Y535671D02*
X134784D01*
X129450Y535925D02*
X134784D01*
X129450Y536179D02*
X134784D01*
X129450Y536433D02*
X134530D01*
X129450Y536687D02*
X134530D01*
X129450Y536941D02*
X134530D01*
X129196Y537195D02*
X134530D01*
X137070Y532623D02*
X139356D01*
X141642D02*
X146722D01*
X130466D02*
X134784D01*
X134276Y530337D02*
X140626D01*
X135292Y530591D02*
X140118D01*
X148500Y530337D02*
X151294D01*
X149008Y530591D02*
X151040D01*
X149008Y530845D02*
X150786D01*
X149008Y531099D02*
X150786Y531099D01*
X149008Y531353D02*
X150786D01*
X149008Y531607D02*
X150786D01*
X149008Y531861D02*
X151040D01*
X148246Y535417D02*
X150532D01*
X148246Y535671D02*
X150024Y535671D01*
X148246Y535925D02*
X150024D01*
X148246Y536179D02*
X149770D01*
X148246Y536433D02*
X149770D01*
X148246Y536687D02*
X149770D01*
X147992Y536941D02*
X149770D01*
X147992Y537195D02*
X149770D01*
X149008Y532115D02*
X156628D01*
X149008Y532369D02*
X157136D01*
X148754Y532877D02*
X157390D01*
X148754Y533131D02*
X157390D01*
X148754Y533385D02*
X157644D01*
X148754Y533639D02*
X157644D01*
X148754Y533893D02*
X157644Y533893D01*
X148500Y534147D02*
X157390D01*
X148500Y534401D02*
X157390D01*
X148500Y534655D02*
X157390D01*
X148500Y534909D02*
X157390Y534909D01*
X148500Y535163D02*
X157390Y535163D01*
X151802Y537195D02*
X156882D01*
X148754Y532623D02*
X157390D01*
X182282Y524241D02*
X184060Y524241D01*
X176694Y524749D02*
X181266D01*
X176948Y525003D02*
X181520D01*
X177456Y525257D02*
X182282D01*
X177964Y525511D02*
X184060Y525511D01*
X178980Y525765D02*
X184060Y525765D01*
X179488Y526019D02*
X184060D01*
X179742Y526273D02*
X183806D01*
X185076D02*
X185330D01*
X179742Y526527D02*
X183806D01*
X179742Y526781D02*
X183806D01*
X179742Y527035D02*
X183552D01*
X179742Y527289D02*
X179996D01*
X180758D02*
X183552D01*
X180758Y527543D02*
X183552D01*
X181012Y527797D02*
X183298D01*
X181520Y528051D02*
X183298D01*
X181774Y528305D02*
X183298D01*
X182028Y528559D02*
X183298D01*
X182282Y528813D02*
X183044D01*
X182536Y529067D02*
X183044D01*
X182536Y529321D02*
X183044D01*
X182536Y531353D02*
X183552D01*
X182282Y531607D02*
X183552Y531607D01*
X182282Y531861D02*
X183552Y531861D01*
X181520Y532115D02*
X183552D01*
X181012Y532369D02*
X183552D01*
X185584Y523987D02*
X187362D01*
X186092Y524241D02*
X186600Y524241D01*
X186854Y534147D02*
X187616D01*
X187108Y534401D02*
X187362D01*
X180504Y532877D02*
X181774D01*
X183044D02*
X183552D01*
X180250Y533131D02*
X181520Y533131D01*
X183044D02*
X183552D01*
X180250Y533385D02*
X181266D01*
X183298D02*
X183806D01*
X180250Y533639D02*
X181012Y533639D01*
X183552D02*
X183806D01*
X180250Y533893D02*
X180504D01*
X185584Y534147D02*
X186346D01*
X180504Y532623D02*
X182282D01*
X182790D02*
X183552D01*
X175424Y523987D02*
X185076D01*
X175678Y524241D02*
X181012D01*
X176186Y524495D02*
X181012D01*
X198030Y521955D02*
X200062D01*
X198030Y522209D02*
X199808D01*
X198030Y522463D02*
X199554D01*
X198030Y522717D02*
X199300Y522717D01*
X198030Y522971D02*
X199046D01*
X198030Y523225D02*
X198792D01*
X198030Y523479D02*
X198284D01*
X199808Y523733D02*
X201332Y523733D01*
X199554Y523987D02*
X201078Y523987D01*
X197776Y524495D02*
X198284D01*
X197268Y524749D02*
X198030D01*
X190664Y523733D02*
X196506D01*
X190664Y523987D02*
X192188D01*
X192442D02*
X195236D01*
X190410Y524241D02*
X192442D01*
X190156Y524495D02*
X192696Y524495D01*
X189394Y524749D02*
X193458D01*
X188632Y533893D02*
X189394D01*
X189648D02*
X190156D01*
X188632Y534147D02*
X189394D01*
X189648D02*
X190156D01*
X188886Y534401D02*
X189140D01*
X189902D02*
X190156D01*
X190918Y522463D02*
X197522D01*
X190918Y522717D02*
X197522D01*
X190664Y522971D02*
X197522D01*
X190410Y523225D02*
X197268D01*
X190410Y523479D02*
X197014D01*
X196760Y525003D02*
X197776D01*
X195998Y525257D02*
X198284D01*
X215302Y517383D02*
X216826D01*
X215302Y517637D02*
X216826D01*
X215302Y517891D02*
X216826D01*
X215302Y518145D02*
X216826D01*
X215302Y518399D02*
X216826D01*
X215302Y518907D02*
X216826D01*
X215302Y519161D02*
X216826D01*
X215302Y519415D02*
X216826D01*
X215302Y519669D02*
X216826D01*
X215302Y519923D02*
X216826D01*
X215302Y520177D02*
X216826D01*
X215302Y520431D02*
X216826D01*
X215302Y520685D02*
X216826D01*
X215302Y520939D02*
X216826D01*
X215302Y521193D02*
X216826D01*
X215302Y521447D02*
X216826D01*
X215302Y521701D02*
X216826D01*
X215302Y521955D02*
X216826D01*
X215302Y522209D02*
X216826D01*
X215302Y522463D02*
X216826D01*
X215302Y522717D02*
X216826D01*
X215302Y522971D02*
X216826D01*
X215302Y523225D02*
X216826D01*
X215302Y523479D02*
X216826D01*
X215302Y523733D02*
X216826D01*
X215302Y523987D02*
X216826D01*
X215302Y524241D02*
X216826D01*
X215302Y524495D02*
X216826D01*
X215302Y524749D02*
X216826D01*
X215302Y525003D02*
X216826D01*
X215302Y525257D02*
X216826D01*
X215302Y525511D02*
X216826D01*
X215302Y525765D02*
X216826D01*
X215302Y526019D02*
X216826D01*
X215302Y526273D02*
X216826D01*
X215302Y526527D02*
X216826D01*
X215302Y526781D02*
X216826D01*
X215302Y527035D02*
X216826D01*
X215302Y527289D02*
X216826D01*
X215302Y527543D02*
X216826D01*
X215302Y527797D02*
X216826D01*
X215302Y528051D02*
X216826D01*
X215302Y528305D02*
X216826D01*
X215302Y528559D02*
X216826D01*
X215302Y528813D02*
X216826D01*
X215302Y529067D02*
X216826D01*
X215302Y529321D02*
X216826D01*
X215302Y529575D02*
X216826D01*
X215302Y529829D02*
X216826D01*
X215302Y530083D02*
X216826D01*
X215302Y530337D02*
X216826D01*
X215302Y530591D02*
X216826D01*
X215302Y530845D02*
X216826D01*
X215302Y531099D02*
X216826D01*
X215302Y531353D02*
X216826D01*
X215302Y531607D02*
X216826D01*
X215302Y531861D02*
X216826D01*
X215302Y532115D02*
X216826D01*
X215302Y532369D02*
X216826D01*
X215302Y518653D02*
X216826D01*
X215302Y532877D02*
X216826D01*
X215302Y533131D02*
X216826D01*
X215302Y533385D02*
X216826D01*
X215302Y533639D02*
X216826D01*
X215302Y533893D02*
X216826D01*
X215302Y534147D02*
X216826D01*
X215302Y534401D02*
X216826D01*
X215302Y534655D02*
X216826D01*
X215302Y534909D02*
X216826D01*
X215302Y535163D02*
X216826D01*
X215302Y535417D02*
X216826D01*
X215302Y535671D02*
X216826D01*
X215302Y535925D02*
X216826D01*
X215302Y536179D02*
X216826D01*
X215302Y536433D02*
X216826D01*
X215302Y536687D02*
X216826D01*
X215302Y536941D02*
X216826D01*
X215302Y537195D02*
X216826D01*
X215302Y532623D02*
X216826D01*
X36994Y509255D02*
X39788Y509255D01*
X36740Y509509D02*
X39280D01*
X36740Y509763D02*
X38772D01*
X36740Y510017D02*
X38518D01*
X36486Y510271D02*
X38264D01*
X36486Y510525D02*
X38264Y510525D01*
X36486Y510779D02*
X38010Y510779D01*
X36486Y511033D02*
X38010Y511033D01*
X36486Y511287D02*
X38010Y511287D01*
X36486Y511541D02*
X38010D01*
X36486Y511795D02*
X37756D01*
X36486Y512049D02*
X37756D01*
X36486Y512557D02*
X37756D01*
X36486Y512811D02*
X37756D01*
X36486Y513065D02*
X37756D01*
X36486Y513319D02*
X37756Y513319D01*
X36486Y513573D02*
X37756D01*
X36486Y513827D02*
X37756D01*
X36486Y514081D02*
X37756D01*
X36486Y514335D02*
X37756Y514335D01*
X36486Y514589D02*
X37756D01*
X36486Y514843D02*
X37756D01*
X36486Y515097D02*
X37756Y515097D01*
X36486Y515351D02*
X37756D01*
X36486Y515605D02*
X37756D01*
X36486Y515859D02*
X37756D01*
X36486Y516113D02*
X37756Y516113D01*
X36486Y516367D02*
X37756D01*
X36486Y516621D02*
X37756D01*
X36486Y516875D02*
X37756D01*
X36486Y512303D02*
X37756Y512303D01*
X213524Y509255D02*
X216572D01*
X214032Y509509D02*
X216826D01*
X214286Y509763D02*
X216826D01*
X214540Y510017D02*
X216826D01*
X214794Y510271D02*
X216826D01*
X215048Y510525D02*
X216826D01*
X215048Y510779D02*
X216826D01*
X215048Y511033D02*
X216826D01*
X215302Y511287D02*
X216826D01*
X215302Y511541D02*
X216826D01*
X215302Y511795D02*
X216826D01*
X215302Y512049D02*
X216826D01*
X215302Y512557D02*
X216826D01*
X215302Y512811D02*
X216826D01*
X215302Y513065D02*
X216826D01*
X215302Y513319D02*
X216826D01*
X215302Y513573D02*
X216826D01*
X215302Y513827D02*
X216826D01*
X215302Y514081D02*
X216826D01*
X215302Y514335D02*
X216826D01*
X215302Y514589D02*
X216826D01*
X215302Y514843D02*
X216826D01*
X215302Y515097D02*
X216826D01*
X215302Y515351D02*
X216826D01*
X215302Y515605D02*
X216826D01*
X215302Y515859D02*
X216826D01*
X215302Y516113D02*
X216826D01*
X215302Y516367D02*
X216826D01*
X215302Y516621D02*
X216826D01*
X215302Y516875D02*
X216826D01*
X215302Y512303D02*
X216826D01*
X64426Y559547D02*
X66712D01*
X59600Y558023D02*
X68236D01*
X59854Y558277D02*
X68236D01*
X59854Y558531D02*
X68236D01*
X60108Y558785D02*
X67982D01*
X60108Y559039D02*
X67728D01*
X63410Y559293D02*
X67474D01*
X40296Y558023D02*
X53504D01*
X40296Y558277D02*
X53250Y558277D01*
X40296Y558531D02*
X52996D01*
X40296Y558785D02*
X52742D01*
X40296Y559039D02*
X52488D01*
X40296Y559547D02*
X51980D01*
X40296Y559801D02*
X51980D01*
X40296Y560055D02*
X51726D01*
X40296Y560309D02*
X51472D01*
X40296Y560563D02*
X51472D01*
X40296Y560817D02*
X51472D01*
X40296Y561071D02*
X51726Y561071D01*
X40296Y561325D02*
X52234D01*
X40296Y559293D02*
X52234D01*
X66458Y561325D02*
X75602D01*
X147738Y561071D02*
X153072D01*
X147230Y561325D02*
X153326D01*
X144182Y558023D02*
X147738D01*
X124116D02*
X130720D01*
X124116Y558277D02*
X130720D01*
X123862Y558531D02*
X130466D01*
X123862Y558785D02*
X130466D01*
X123608Y559039D02*
X130466D01*
X123354Y559547D02*
X130466D01*
X123100Y559801D02*
X130212D01*
X122846Y560055D02*
X130212D01*
X122592Y560309D02*
X130212D01*
X122084Y560563D02*
X130212D01*
X121830Y560817D02*
X130212D01*
X121068Y561071D02*
X130466D01*
X119798Y561325D02*
X130720D01*
X123608Y559293D02*
X130466D01*
X106844Y559547D02*
X109130Y559547D01*
X105828Y559293D02*
X109638Y559293D01*
X102780Y558023D02*
X110654D01*
X102780Y558277D02*
X110654Y558277D01*
X102526Y558531D02*
X110400D01*
X102526Y558785D02*
X110400D01*
X102272Y559039D02*
X110146D01*
X98462Y561325D02*
X107098D01*
X81698Y558023D02*
X87286D01*
X81698Y558277D02*
X87286D01*
X81698Y558531D02*
X87286D01*
X81444Y558785D02*
X87032D01*
X81444Y559039D02*
X87032D01*
X80936Y559547D02*
X87032D01*
X81190Y559293D02*
X87032Y559293D01*
X201078Y558023D02*
X212762Y558023D01*
X201078Y558277D02*
X212762Y558277D01*
X200824Y558531D02*
X212762D01*
X200824Y558785D02*
X212762D01*
X200824Y559039D02*
X212762D01*
X200570Y559547D02*
X212762D01*
X200570Y559801D02*
X212762D01*
X200570Y560055D02*
X212762D01*
X200570Y560309D02*
X212762D01*
X200316Y560563D02*
X212762D01*
X200316Y560817D02*
X212762D01*
X200316Y561071D02*
X212762D01*
X200062Y561325D02*
X212762D01*
X200062Y561579D02*
X212762D01*
X200062Y561833D02*
X212762D01*
X199808Y562087D02*
X212762D01*
X199808Y562341D02*
X212762D01*
X199554Y562595D02*
X212762D01*
X199554Y562849D02*
X212762D01*
X199554Y563103D02*
X212762D01*
X199300Y563357D02*
X212762D01*
X199300Y563611D02*
X212762Y563611D01*
X199046Y563865D02*
X212762Y563865D01*
X199046Y564119D02*
X212762D01*
X199046Y564373D02*
X212762D01*
X198792Y564627D02*
X212762D01*
X198792Y564881D02*
X212762D01*
X198538Y565135D02*
X212762D01*
X198538Y565389D02*
X212762D01*
X198284Y565643D02*
X212762D01*
X198030Y565897D02*
X212762D01*
X198030Y566151D02*
X212762D01*
X197776Y566405D02*
X212762D01*
X197522Y566659D02*
X212762D01*
X197268Y566913D02*
X212762D01*
X197014Y567167D02*
X212762D01*
X200824Y559293D02*
X212762D01*
X188124Y565643D02*
X191426D01*
X187108Y565897D02*
X190664D01*
X187870Y567167D02*
X191426Y567167D01*
X186346Y567421D02*
X190918D01*
X186092Y566151D02*
X189902D01*
X185584Y566405D02*
X189140D01*
X196760Y567421D02*
X212762D01*
X196506Y567675D02*
X212762D01*
X166534Y558023D02*
X189648Y558023D01*
X195998Y567929D02*
X212762D01*
X195744Y568183D02*
X212762D01*
X195236Y568437D02*
X212762D01*
X194728Y568691D02*
X212762D01*
X193966Y568945D02*
X212762D01*
X166280Y558277D02*
X189648Y558277D01*
X166280Y558531D02*
X189648D01*
X166280Y558785D02*
X189902D01*
X166026Y559039D02*
X189902D01*
X165772Y559547D02*
X190156D01*
X165518Y559801D02*
X190156Y559801D01*
X165264Y560055D02*
X190156Y560055D01*
X165010Y560309D02*
X190156D01*
X164502Y560563D02*
X189902D01*
X163994Y560817D02*
X189902D01*
X163486Y561071D02*
X189648D01*
X161962Y561325D02*
X189648Y561325D01*
X165772Y559293D02*
X189902Y559293D01*
X66458Y537703D02*
X71792Y537703D01*
X66458Y537957D02*
X71538D01*
X66458Y538211D02*
X71538D01*
X66458Y538465D02*
X71538D01*
X66204Y538719D02*
X71538Y538719D01*
X66204Y539481D02*
X71284Y539481D01*
X66204Y539735D02*
X71284D01*
X66204Y539989D02*
X71030D01*
X66458Y540243D02*
X71030D01*
X66458Y540497D02*
X70776D01*
X66204Y539227D02*
X71538Y539227D01*
X66204Y538973D02*
X71538Y538973D01*
X57314Y542783D02*
X67728D01*
X58584Y548879D02*
X70776D01*
X58838Y549133D02*
X70268D01*
X59092Y549387D02*
X70014D01*
X59092Y549641D02*
X70014D01*
X59092Y549895D02*
X69760Y549895D01*
X59092Y550149D02*
X69760Y550149D01*
X58838Y550403D02*
X69760D01*
X58838Y550657D02*
X69760D01*
X58838Y550911D02*
X69760D01*
X58838Y551165D02*
X69506D01*
X58838Y551419D02*
X69506D01*
X58838Y551673D02*
X69506D01*
X58584Y551927D02*
X69506D01*
X58584Y552181D02*
X69506D01*
X58584Y552435D02*
X69506D01*
X58584Y552689D02*
X69252D01*
X58330Y553197D02*
X69252D01*
X58330Y553451D02*
X69252D01*
X58330Y553705D02*
X69252D01*
X58330Y553959D02*
X69252D01*
X58330Y554213D02*
X68998D01*
X58330Y554467D02*
X68998Y554467D01*
X58076Y554721D02*
X68998D01*
X58076Y554975D02*
X68998D01*
X58330Y555229D02*
X68998D01*
X58330Y555483D02*
X68744D01*
X58584Y555737D02*
X68744D01*
X58584Y555991D02*
X68744D01*
X58838Y556245D02*
X68744D01*
X58838Y556499D02*
X68744D01*
X59092Y556753D02*
X68744D01*
X59092Y557007D02*
X68490D01*
X59346Y557261D02*
X68490D01*
X59346Y557515D02*
X68490D01*
X40296Y537703D02*
X52996Y537703D01*
X40296Y537957D02*
X52996D01*
X40296Y538211D02*
X52742D01*
X40296Y538465D02*
X52742D01*
X40296Y538719D02*
X52742D01*
X40296Y539227D02*
X52742D01*
X40296Y539481D02*
X52742Y539481D01*
X40296Y539735D02*
X52742D01*
X40296Y539989D02*
X52742D01*
X40296Y540243D02*
X52742D01*
X40296Y540497D02*
X52742Y540497D01*
X40296Y540751D02*
X52742D01*
X40296Y541005D02*
X52996Y541005D01*
X40296Y541259D02*
X52996Y541259D01*
X40296Y541513D02*
X53250D01*
X40296Y541767D02*
X53504D01*
X40296Y542021D02*
X53758D01*
X40296Y542275D02*
X54012Y542275D01*
X40296Y538973D02*
X52742D01*
X40296Y557007D02*
X54266D01*
X40296Y557261D02*
X54012Y557261D01*
X40296Y557515D02*
X53758D01*
X58584Y552943D02*
X69252D01*
X40296Y542529D02*
X54774Y542529D01*
X40296Y542783D02*
X56298D01*
X40296Y548879D02*
X57822D01*
X40296Y549133D02*
X57314D01*
X40296Y549387D02*
X57060D01*
X40296Y549641D02*
X57060D01*
X40296Y549895D02*
X57060Y549895D01*
X40296Y550149D02*
X56806D01*
X40296Y550403D02*
X56806D01*
X40296Y550657D02*
X56806Y550657D01*
X40296Y550911D02*
X56806D01*
X40296Y551165D02*
X56806D01*
X40296Y551419D02*
X56552D01*
X40296Y551673D02*
X56552Y551673D01*
X40296Y551927D02*
X56552D01*
X40296Y552181D02*
X56552D01*
X40296Y552435D02*
X56552Y552435D01*
X40296Y552689D02*
X56552Y552689D01*
X40296Y553197D02*
X56298D01*
X40296Y553451D02*
X56298D01*
X40296Y553705D02*
X56298D01*
X40296Y553959D02*
X56298D01*
X40296Y554213D02*
X56044D01*
X40296Y554467D02*
X56044Y554467D01*
X40296Y554721D02*
X56044D01*
X40296Y554975D02*
X56044D01*
X40296Y555229D02*
X55790D01*
X40296Y555483D02*
X55536D01*
X40296Y555737D02*
X55282D01*
X40296Y555991D02*
X55028D01*
X40296Y556245D02*
X55028D01*
X40296Y556499D02*
X54774D01*
X40296Y556753D02*
X54520D01*
X40296Y552943D02*
X56298D01*
X147738Y538465D02*
X149516D01*
X147738Y538719D02*
X149262D01*
X147738Y539227D02*
X149262D01*
X147484Y539481D02*
X149262D01*
X147484Y539735D02*
X149262D01*
X147484Y539989D02*
X149262D01*
X147230Y540243D02*
X149262D01*
X147230Y540497D02*
X149262D01*
X146976Y540751D02*
X149516D01*
X146722Y541005D02*
X149516Y541005D01*
X146468Y541259D02*
X149770Y541259D01*
X146214Y541513D02*
X149770D01*
X145960Y541767D02*
X150024D01*
X145706Y542021D02*
X150278D01*
X145960Y548879D02*
X148754D01*
X145960Y549133D02*
X148246D01*
X145706Y549387D02*
X147992D01*
X145706Y549641D02*
X147992D01*
X145706Y549895D02*
X147738D01*
X145706Y550149D02*
X147738D01*
X145706Y550403D02*
X147992D01*
X147738Y538973D02*
X149262D01*
X145198Y542275D02*
X150786Y542275D01*
X144436Y542529D02*
X151294D01*
X142912Y542783D02*
X152818D01*
X145452Y550657D02*
X147992D01*
X145452Y550911D02*
X148246D01*
X145452Y551165D02*
X148246D01*
X145452Y551419D02*
X148500D01*
X145452Y551673D02*
X148500D01*
X145452Y551927D02*
X148754D01*
X145198Y552181D02*
X148754D01*
X145198Y552435D02*
X149008D01*
X145198Y552689D02*
X149008D01*
X145198Y553197D02*
X149262D01*
X145198Y553451D02*
X149262D01*
X144944Y553705D02*
X149516Y553705D01*
X144944Y553959D02*
X149516D01*
X144944Y554213D02*
X149770Y554213D01*
X144944Y554467D02*
X149770Y554467D01*
X144944Y554721D02*
X150024D01*
X144690Y554975D02*
X150024D01*
X144690Y555229D02*
X150024D01*
X144690Y555483D02*
X149770D01*
X144690Y555737D02*
X149770D01*
X144690Y555991D02*
X149516D01*
X144690Y556245D02*
X149262D01*
X144436Y556499D02*
X149008D01*
X144436Y556753D02*
X148754D01*
X144436Y557007D02*
X148500D01*
X144436Y557261D02*
X148500D01*
X144436Y557515D02*
X148246D01*
X124370Y541513D02*
X127418D01*
X124370Y541767D02*
X127672D01*
X124370Y542021D02*
X127926D01*
X124116Y542275D02*
X128180D01*
X123862Y542529D02*
X128942D01*
X123354Y542783D02*
X130466D01*
X124878Y550657D02*
X131990D01*
X125132Y550911D02*
X131990D01*
X125132Y551165D02*
X131736D01*
X125132Y551419D02*
X131736D01*
X125132Y551673D02*
X131736Y551673D01*
X125132Y551927D02*
X131736Y551927D01*
X125132Y552181D02*
X131736D01*
X125132Y552435D02*
X131736Y552435D01*
X125132Y552689D02*
X131482Y552689D01*
X125132Y553197D02*
X131482D01*
X125132Y553451D02*
X131482D01*
X124878Y553705D02*
X131482D01*
X124878Y553959D02*
X131482D01*
X124878Y554213D02*
X131228D01*
X124878Y554467D02*
X131228D01*
X124878Y554721D02*
X131228D01*
X124624Y554975D02*
X131228D01*
X124624Y555229D02*
X131228D01*
X124624Y555483D02*
X130974Y555483D01*
X124624Y555737D02*
X130974D01*
X124624Y555991D02*
X130974D01*
X124624Y556245D02*
X130974D01*
X124370Y556499D02*
X130974D01*
X124370Y556753D02*
X130974D01*
X124370Y557007D02*
X130720D01*
X124370Y557261D02*
X130720D01*
X124370Y557515D02*
X130720D01*
X107098Y542275D02*
X112686Y542275D01*
X106336Y542529D02*
X113448D01*
X102526Y537703D02*
X107860D01*
X102526Y537957D02*
X107860D01*
X102526Y538211D02*
X107606D01*
X102526Y538465D02*
X107606D01*
X102526Y538719D02*
X107606Y538719D01*
X102272Y539227D02*
X107606D01*
X102272Y539481D02*
X107352Y539481D01*
X102272Y539735D02*
X107352D01*
X102526Y539989D02*
X107098D01*
X102526Y540243D02*
X107098D01*
X103796Y548879D02*
X113194Y548879D01*
X104050Y549133D02*
X112686D01*
X104304Y549387D02*
X112432D01*
X104304Y549641D02*
X112432D01*
X104304Y549895D02*
X112178D01*
X104304Y550149D02*
X112178D01*
X104304Y550403D02*
X112178D01*
X104050Y550657D02*
X112178D01*
X104050Y550911D02*
X112178D01*
X104050Y551165D02*
X111924D01*
X104050Y551419D02*
X111924D01*
X104050Y551673D02*
X111924D01*
X104050Y551927D02*
X111924D01*
X103796Y552181D02*
X111924D01*
X103796Y552435D02*
X111670D01*
X103796Y552689D02*
X111670D01*
X102272Y538973D02*
X107606D01*
X104812Y542783D02*
X114972D01*
X103796Y553197D02*
X111670D01*
X103796Y553451D02*
X111670D01*
X103542Y553705D02*
X111670Y553705D01*
X103542Y553959D02*
X111416Y553959D01*
X103542Y554213D02*
X111416Y554213D01*
X103542Y554467D02*
X111416D01*
X103542Y554721D02*
X111416D01*
X103542Y554975D02*
X111416D01*
X103288Y555229D02*
X111162D01*
X103288Y555483D02*
X111162D01*
X103288Y555737D02*
X111162D01*
X103288Y555991D02*
X111162D01*
X103288Y556245D02*
X111162D01*
X103034Y556499D02*
X111162D01*
X103034Y556753D02*
X110908D01*
X103034Y557007D02*
X110908D01*
X103034Y557261D02*
X110908Y557261D01*
X103034Y557515D02*
X110908Y557515D01*
X86778Y541259D02*
X89572Y541259D01*
X86524Y541513D02*
X89826D01*
X86270Y541767D02*
X90080D01*
X86016Y542021D02*
X90334D01*
X85508Y542275D02*
X90842D01*
X85000Y542529D02*
X91350Y542529D01*
X83476Y542783D02*
X92874D01*
X79920Y548879D02*
X89572D01*
X80936Y549133D02*
X89064D01*
X81444Y549387D02*
X89064D01*
X81952Y549641D02*
X88810D01*
X82206Y549895D02*
X88810Y549895D01*
X82206Y550149D02*
X88556Y550149D01*
X82460Y550403D02*
X88556Y550403D01*
X82714Y550657D02*
X88556Y550657D01*
X82714Y550911D02*
X88556D01*
X82714Y551165D02*
X88556D01*
X82714Y551419D02*
X88302D01*
X82968Y551673D02*
X88302Y551673D01*
X82968Y551927D02*
X88302Y551927D01*
X82714Y552181D02*
X88302D01*
X82714Y552435D02*
X88302D01*
X82714Y552689D02*
X88302Y552689D01*
X82714Y553197D02*
X88048D01*
X82714Y553451D02*
X88048D01*
X82714Y553705D02*
X88048D01*
X82460Y553959D02*
X88048D01*
X82460Y554213D02*
X88048D01*
X82460Y554467D02*
X87794D01*
X82460Y554721D02*
X87794D01*
X82460Y554975D02*
X87794D01*
X82206Y555229D02*
X87794D01*
X82206Y555483D02*
X87794D01*
X82206Y555737D02*
X87794D01*
X82206Y555991D02*
X87540D01*
X82206Y556245D02*
X87540D01*
X82206Y556499D02*
X87540D01*
X81952Y556753D02*
X87540D01*
X81952Y557007D02*
X87540D01*
X81952Y557261D02*
X87286D01*
X81952Y557515D02*
X87286D01*
X145198Y552943D02*
X149008D01*
X125132D02*
X131482D01*
X103796D02*
X111670D01*
X82714D02*
X88048D01*
X197522Y537703D02*
X212762D01*
X197776Y537957D02*
X212762D01*
X198030Y538211D02*
X212762D01*
X198284Y538465D02*
X212762D01*
X198284Y538719D02*
X212762D01*
X198792Y539227D02*
X212762D01*
X198792Y539481D02*
X212762D01*
X199046Y539735D02*
X212762D01*
X199300Y539989D02*
X212762D01*
X199300Y540243D02*
X212762D01*
X199554Y540497D02*
X212762D01*
X199554Y540751D02*
X212762D01*
X199808Y541005D02*
X212762D01*
X199808Y541259D02*
X212762D01*
X200062Y541513D02*
X212762D01*
X200062Y541767D02*
X212762D01*
X200316Y542021D02*
X212762D01*
X200316Y542275D02*
X212762D01*
X201078Y542529D02*
X212762Y542529D01*
X201332Y542783D02*
X212762D01*
X201840Y543037D02*
X212762D01*
X202094Y543291D02*
X212762D01*
X202348Y543545D02*
X212762D01*
X202602Y543799D02*
X212762D01*
X202602Y544053D02*
X212762D01*
X202856Y544307D02*
X212762Y544307D01*
X203110Y544561D02*
X212762D01*
X203110Y544815D02*
X212762D01*
X203110Y545069D02*
X212762Y545069D01*
X203364Y545323D02*
X212762D01*
X203364Y545577D02*
X212762D01*
X203618Y545831D02*
X212762D01*
X203618Y546085D02*
X212762D01*
X203618Y546339D02*
X212762D01*
X203618Y546593D02*
X212762D01*
X203872Y546847D02*
X212762D01*
X203872Y547101D02*
X212762D01*
X203872Y547355D02*
X212762D01*
X203872Y547609D02*
X212762D01*
X203872Y547863D02*
X212762D01*
X203872Y548117D02*
X212762D01*
X204126Y548371D02*
X212762D01*
X204126Y548625D02*
X212762D01*
X204126Y548879D02*
X212762D01*
X204126Y549133D02*
X212762D01*
X204126Y549387D02*
X212762D01*
X204126Y549641D02*
X212762D01*
X204126Y549895D02*
X212762D01*
X204126Y550149D02*
X212762D01*
X204126Y550403D02*
X212762D01*
X204126Y550657D02*
X212762D01*
X204126Y550911D02*
X212762D01*
X204126Y551165D02*
X212762D01*
X204126Y551419D02*
X212762D01*
X204126Y551673D02*
X212762D01*
X204126Y551927D02*
X212762D01*
X204126Y552181D02*
X212762D01*
X204126Y552435D02*
X212762D01*
X203872Y552689D02*
X212762D01*
X198538Y538973D02*
X212762D01*
X203872Y553197D02*
X212762D01*
X203618Y553451D02*
X212762D01*
X203364Y553705D02*
X212762D01*
X203110Y553959D02*
X212762D01*
X202856Y554213D02*
X212762D01*
X202602Y554467D02*
X212762D01*
X202348Y554721D02*
X212762D01*
X202094Y554975D02*
X212762D01*
X201840Y555229D02*
X212762D01*
X201586Y555483D02*
X212762D01*
X201586Y555737D02*
X212762D01*
X201332Y555991D02*
X212762D01*
X201332Y556245D02*
X212762D01*
X201332Y556499D02*
X212762D01*
X201332Y556753D02*
X212762D01*
X201332Y557007D02*
X212762D01*
X201078Y557261D02*
X212762Y557261D01*
X201078Y557515D02*
X212762Y557515D01*
X188124Y552435D02*
X188378Y552435D01*
X187616Y552689D02*
X188632Y552689D01*
X186854Y553197D02*
X189140D01*
X186854Y553451D02*
X189140D01*
X187108Y553705D02*
X189140D01*
X187616Y553959D02*
X189140D01*
X188378Y554213D02*
X189140D01*
X203872Y552943D02*
X212762D01*
X186600D02*
X188886D01*
X166534Y549641D02*
X182282D01*
X166788Y549895D02*
X182282Y549895D01*
X167042Y550149D02*
X182536D01*
X167296Y550403D02*
X183044Y550403D01*
X167296Y550657D02*
X183044Y550657D01*
X167296Y550911D02*
X183298D01*
X167550Y551165D02*
X183552D01*
X167550Y551419D02*
X183552D01*
X167550Y551673D02*
X183806Y551673D01*
X167550Y551927D02*
X183806D01*
X167550Y552181D02*
X184060D01*
X167550Y552435D02*
X184314Y552435D01*
X167550Y552689D02*
X184314Y552689D01*
X167296Y553197D02*
X184822D01*
X167296Y553451D02*
X185076D01*
X167296Y553705D02*
X185076Y553705D01*
X167296Y553959D02*
X185330Y553959D01*
X167296Y554213D02*
X185584Y554213D01*
X167042Y554467D02*
X185838D01*
X167042Y554721D02*
X186092D01*
X167042Y554975D02*
X186346D01*
X167042Y555229D02*
X186600D01*
X167042Y555483D02*
X187108D01*
X167042Y555737D02*
X187616D01*
X166788Y555991D02*
X188124D01*
X166788Y556245D02*
X188378D01*
X166788Y556499D02*
X188632D01*
X166788Y556753D02*
X188886D01*
X166788Y557007D02*
X189140D01*
X166788Y557261D02*
X189394D01*
X166534Y557515D02*
X189394D01*
X167296Y552943D02*
X184568D01*
X166280Y549387D02*
X182028D01*
X158914Y537703D02*
X176440Y537703D01*
X158914Y537957D02*
X176440D01*
X158914Y538211D02*
X176440D01*
X158914Y538465D02*
X176694D01*
X158914Y538719D02*
X176694D01*
X158660Y539227D02*
X176694D01*
X158660Y539481D02*
X176694D01*
X158660Y539735D02*
X176948D01*
X158406Y539989D02*
X177202D01*
X158406Y540243D02*
X177202D01*
X158152Y540497D02*
X177456Y540497D01*
X164502Y548879D02*
X181774D01*
X165518Y549133D02*
X182028D01*
X158660Y538973D02*
X176694D01*
X60108Y530337D02*
X66458D01*
Y537195D02*
X71792D01*
X40296Y529829D02*
X54266D01*
X40296Y530083D02*
X54266D01*
X40296Y530337D02*
X54266D01*
X40296Y530591D02*
X54266D01*
X40296Y530845D02*
X54266D01*
X40296Y531099D02*
X54012Y531099D01*
X40296Y531353D02*
X54012D01*
X40296Y531607D02*
X54012D01*
X40296Y531861D02*
X54012D01*
X40296Y532115D02*
X54012D01*
X40296Y532369D02*
X53758D01*
X40296Y532877D02*
X53758D01*
X40296Y533131D02*
X53758D01*
X40296Y533385D02*
X53758D01*
X40296Y533639D02*
X53758D01*
X40296Y533893D02*
X53504D01*
X40296Y534147D02*
X53504D01*
X40296Y534401D02*
X53504D01*
X40296Y534655D02*
X53504D01*
X40296Y534909D02*
X53504Y534909D01*
X40296Y535163D02*
X53504D01*
X40296Y535417D02*
X53250D01*
X40296Y535671D02*
X53250Y535671D01*
X40296Y535925D02*
X53250D01*
X40296Y536179D02*
X53250D01*
X40296Y536433D02*
X53250D01*
X40296Y536687D02*
X52996Y536687D01*
X40296Y536941D02*
X52996Y536941D01*
X40296Y537195D02*
X52996D01*
X40296Y532623D02*
X53758D01*
X40296Y526019D02*
X59092D01*
X40296Y526273D02*
X57568D01*
X40296Y526527D02*
X56806D01*
X40296Y526781D02*
X56298D01*
X40296Y527035D02*
X56044D01*
X40296Y527289D02*
X55790Y527289D01*
X40296Y527543D02*
X55536D01*
X40296Y527797D02*
X55282D01*
X40296Y528051D02*
X55028Y528051D01*
X40296Y528305D02*
X54774D01*
X40296Y528559D02*
X54774D01*
X40296Y528813D02*
X54774D01*
X40296Y529067D02*
X54520D01*
X40296Y529321D02*
X54520D01*
X40296Y529575D02*
X54520D01*
X141388Y530337D02*
X147738D01*
X125640D02*
X128434D01*
X126148Y530591D02*
X128434D01*
X126148Y530845D02*
X128434D01*
X126402Y531099D02*
X128180Y531099D01*
X126148Y531353D02*
X128180Y531353D01*
X126148Y531607D02*
X128180D01*
X126148Y531861D02*
X128180Y531861D01*
X126148Y532115D02*
X128180D01*
X126148Y532369D02*
X127926D01*
X125894Y532877D02*
X127926D01*
X125894Y533131D02*
X127926Y533131D01*
X125894Y533385D02*
X127926Y533385D01*
X125894Y533639D02*
X127926Y533639D01*
X125894Y533893D02*
X127672Y533893D01*
X125640Y534147D02*
X127672D01*
X125640Y534401D02*
X127672D01*
X125640Y534655D02*
X127672D01*
X125640Y534909D02*
X127672D01*
X125640Y535163D02*
X127418D01*
X125640Y535417D02*
X127418D01*
X125386Y535671D02*
X127418D01*
X125386Y535925D02*
X127418D01*
X125386Y536179D02*
X127418D01*
X125386Y536433D02*
X127418D01*
X99478Y532115D02*
X107352D01*
X99478Y532369D02*
X107860D01*
X99732Y532877D02*
X108368D01*
X99732Y533131D02*
X108368D01*
X99732Y533385D02*
X108368D01*
X99732Y533639D02*
X108368D01*
X99732Y533893D02*
X108368D01*
X99732Y534147D02*
X108368D01*
X99478Y534401D02*
X108368D01*
X99478Y534655D02*
X108368D01*
X99478Y534909D02*
X108368Y534909D01*
X99478Y535163D02*
X108368D01*
X102780Y537195D02*
X107860D01*
X78396Y530337D02*
X87794D01*
X78904Y530591D02*
X87540D01*
X78904Y530845D02*
X87286D01*
X78904Y531099D02*
X87032D01*
X78904Y531353D02*
X87032D01*
X78904Y531607D02*
X87032D01*
X78904Y531861D02*
X87032D01*
X78904Y532115D02*
X86778D01*
X78904Y532369D02*
X86778D01*
X78650Y532877D02*
X86778D01*
X78650Y533131D02*
X86778Y533131D01*
X126148Y532623D02*
X127926D01*
X99732D02*
X108114D01*
X78650D02*
X86778D01*
X201078Y521193D02*
X212762D01*
X201078Y521447D02*
X212762D01*
X201078Y521701D02*
X212762D01*
X201078Y521955D02*
X212762D01*
X201078Y522209D02*
X212762D01*
X200824Y522463D02*
X212762D01*
X200570Y522717D02*
X212762D01*
X200316Y522971D02*
X212762D01*
X200062Y523225D02*
X212762D01*
X199808Y523479D02*
X212762D01*
X201586Y523733D02*
X212762D01*
X201586Y523987D02*
X212762D01*
X201332Y524241D02*
X212762D01*
X201332Y524495D02*
X212762Y524495D01*
X201078Y524749D02*
X212762D01*
X200824Y525003D02*
X212762D01*
X200316Y525257D02*
X212762D01*
X197014Y537195D02*
X212762D01*
X188378Y524749D02*
X188632D01*
X187870Y525003D02*
X194982D01*
X187108Y525257D02*
X194982D01*
X186600Y525511D02*
X195236Y525511D01*
X184568Y527543D02*
X194474D01*
X184314Y527797D02*
X194220D01*
X184314Y528051D02*
X193966D01*
X184060Y528305D02*
X193712Y528305D01*
X184060Y528559D02*
X193458D01*
X183806Y528813D02*
X193204D01*
X183806Y529067D02*
X192950D01*
X183552Y529321D02*
X192696D01*
X183298Y529575D02*
X192442D01*
X183298Y529829D02*
X192188D01*
X183044Y530083D02*
X191934Y530083D01*
X183044Y530337D02*
X191680D01*
X182790Y530591D02*
X191426D01*
X182790Y530845D02*
X191172D01*
X182536Y531099D02*
X191172Y531099D01*
X183806Y531353D02*
X190918D01*
X184060Y531607D02*
X190664D01*
X184060Y531861D02*
X190664D01*
X184314Y532115D02*
X190410D01*
X184568Y532369D02*
X190156D01*
X187870Y534147D02*
X188378D01*
X184822Y532877D02*
X189902D01*
X185076Y533131D02*
X189902D01*
X185076Y533385D02*
X189902D01*
X185330Y533639D02*
X190156D01*
X185584Y533893D02*
X188378D01*
X158406Y530845D02*
X173138D01*
X158660Y531099D02*
X173138D01*
X158914Y531353D02*
X173392D01*
X159168Y531607D02*
X173646D01*
X159422Y531861D02*
X173646D01*
X159422Y532115D02*
X173900D01*
X159676Y532369D02*
X173900D01*
X159676Y532877D02*
X174154D01*
X159676Y533131D02*
X174408D01*
X159676Y533385D02*
X174408D01*
X159676Y533639D02*
X174408D01*
X159676Y533893D02*
X174662D01*
X159676Y534147D02*
X174662D01*
X159676Y534401D02*
X174662D01*
X159422Y534655D02*
X174916D01*
X159422Y534909D02*
X174916D01*
X159422Y535163D02*
X174916Y535163D01*
X159422Y535417D02*
X174916D01*
X159422Y535671D02*
X175170D01*
X159422Y535925D02*
X175170D01*
X159168Y536179D02*
X175424D01*
X159168Y536433D02*
X175678D01*
X159168Y536687D02*
X175932D01*
X159168Y536941D02*
X175932D01*
X159168Y537195D02*
X176186D01*
X184568Y532623D02*
X189902D01*
X159676D02*
X174154D01*
X195490Y525511D02*
X212762Y525511D01*
X185838Y525765D02*
X212762D01*
X185838Y526019D02*
X212762D01*
X185584Y526273D02*
X212762D01*
X185076Y526527D02*
X212762D01*
X184822Y526781D02*
X212762D01*
X184822Y527035D02*
X212762D01*
X184568Y527289D02*
X212762D01*
X194728Y527543D02*
X212762D01*
X194728Y527797D02*
X212762D01*
X194728Y528051D02*
X212762D01*
X194728Y528305D02*
X212762D01*
X194728Y528559D02*
X212762D01*
X194474Y528813D02*
X212762D01*
X194220Y529067D02*
X212762D01*
X193966Y529321D02*
X212762D01*
X193966Y529575D02*
X212762D01*
X193712Y529829D02*
X212762D01*
X193458Y530083D02*
X212762D01*
X193204Y530337D02*
X212762D01*
X193204Y530591D02*
X212762D01*
X193204Y530845D02*
X212762D01*
X193204Y531099D02*
X212762Y531099D01*
X193204Y531353D02*
X212762D01*
X193204Y531607D02*
X212762D01*
X193204Y531861D02*
X212762D01*
X193204Y532115D02*
X212762D01*
X193204Y532369D02*
X212762D01*
X196506Y536687D02*
X212762D01*
X196760Y536941D02*
X212762D01*
X193204Y532877D02*
X212762D01*
X193204Y533131D02*
X212762D01*
X193458Y533385D02*
X212762D01*
X193712Y533639D02*
X212762D01*
X193966Y533893D02*
X212762D01*
X193966Y534147D02*
X212762D01*
X194220Y534401D02*
X212762D01*
X194474Y534655D02*
X212762D01*
X194728Y534909D02*
X212762D01*
X194728Y535163D02*
X212762D01*
X195236Y535417D02*
X212762D01*
X195490Y535671D02*
X212762D01*
X195744Y535925D02*
X212762D01*
X195998Y536179D02*
X212762D01*
X196252Y536433D02*
X212762D01*
X193204Y532623D02*
X212762D01*
X157898Y540751D02*
X177456Y540751D01*
X157898Y541005D02*
X177710Y541005D01*
X157644Y541259D02*
X177964Y541259D01*
X157390Y541513D02*
X177964D01*
X157136Y541767D02*
X178218D01*
X156628Y542021D02*
X178218D01*
X156120Y542275D02*
X178472D01*
X155612Y542529D02*
X178472Y542529D01*
X153834Y542783D02*
X178726D01*
X146214Y544815D02*
X179742D01*
X146468Y545069D02*
X179996Y545069D01*
X146468Y545323D02*
X179996D01*
X146468Y545577D02*
X180250D01*
X146468Y545831D02*
X180250D01*
X146468Y546085D02*
X180504D01*
X146214Y546339D02*
X180504D01*
X146214Y546593D02*
X180758D01*
X146214Y546847D02*
X180758D01*
X146214Y547101D02*
X181012D01*
X146214Y547355D02*
X181012D01*
X146214Y547609D02*
X181266D01*
X145960Y547863D02*
X181266D01*
X145960Y548117D02*
X181520D01*
X145960Y548371D02*
X181520D01*
X145960Y548625D02*
X181774D01*
X156882Y530337D02*
X172630D01*
X157898Y530591D02*
X172884D01*
X134022Y526019D02*
X169836D01*
X134530Y526273D02*
X169836D01*
X134530Y526527D02*
X169836D01*
X134530Y526781D02*
X169836D01*
X134530Y527035D02*
X170090D01*
X134276Y527289D02*
X170090D01*
X134022Y527543D02*
X170344D01*
X132498Y527797D02*
X170598D01*
X131736Y528051D02*
X170852Y528051D01*
X131482Y528305D02*
X171106Y528305D01*
X131228Y528559D02*
X171360D01*
X130974Y528813D02*
X171614D01*
X130720Y529067D02*
X171614D01*
X130720Y529321D02*
X171868D01*
X130720Y529575D02*
X172122D01*
X130720Y529829D02*
X172376D01*
X130466Y530083D02*
X172630Y530083D01*
X41312Y578343D02*
X211746D01*
X36994Y580883D02*
X216572D01*
X37248Y581137D02*
X216318D01*
X37502Y581391D02*
X216064D01*
X37756Y581645D02*
X215810Y581645D01*
X38264Y581899D02*
X215302Y581899D01*
X40296Y561579D02*
X189394D01*
X40296Y561833D02*
X189394D01*
X40296Y562087D02*
X189394D01*
X40296Y562341D02*
X189140D01*
X40296Y562595D02*
X189140D01*
X40296Y562849D02*
X188886D01*
X40296Y563103D02*
X188886D01*
X40296Y563357D02*
X188632D01*
X40296Y563611D02*
X188632D01*
X40296Y563865D02*
X188378D01*
X40296Y564119D02*
X188124D01*
X40296Y564373D02*
X187870D01*
X40296Y564627D02*
X187870D01*
X40296Y564881D02*
X187108Y564881D01*
X40296Y565135D02*
X186092Y565135D01*
X40296Y565389D02*
X185584D01*
X40296Y565643D02*
X185076Y565643D01*
X40296Y565897D02*
X184822D01*
X40296Y566151D02*
X184568D01*
X40296Y566405D02*
X184568D01*
X40296Y566659D02*
X184822D01*
X40296Y566913D02*
X185076D01*
X40296Y567167D02*
X185584D01*
X40296Y567421D02*
X186092D01*
X40296Y567675D02*
X187362Y567675D01*
X40296Y567929D02*
X189394D01*
X40296Y568183D02*
X194728D01*
X40296Y568437D02*
X190410D01*
X40296Y568691D02*
X190918D01*
X40296Y568945D02*
X191934D01*
X40296Y569199D02*
X212762D01*
X40296Y569453D02*
X212762Y569453D01*
X40296Y569707D02*
X212762D01*
X40296Y569961D02*
X212762D01*
X40296Y570215D02*
X212762D01*
X40296Y570469D02*
X212762D01*
X40296Y570723D02*
X212762D01*
X40296Y570977D02*
X212762D01*
X40296Y571231D02*
X212762D01*
X40296Y571485D02*
X212762D01*
X40296Y571739D02*
X212762D01*
X40296Y571993D02*
X212762D01*
X40296Y572247D02*
X212762Y572247D01*
X40296Y572501D02*
X212762D01*
X40296Y572755D02*
X212762D01*
X40296Y573009D02*
X212762D01*
X40296Y573517D02*
X212762D01*
X40296Y573771D02*
X212762D01*
X40296Y574025D02*
X212762D01*
X40296Y574279D02*
X212762D01*
X40296Y574533D02*
X212762D01*
X40296Y574787D02*
X212762D01*
X40296Y575041D02*
X212762D01*
X40296Y575295D02*
X212762D01*
X40296Y575549D02*
X212762D01*
X40296Y575803D02*
X212762D01*
X40296Y576057D02*
X212762Y576057D01*
X40296Y576311D02*
X212762D01*
X40296Y576565D02*
X212762D01*
X40296Y576819D02*
X212762D01*
X40296Y577073D02*
X212762D01*
X40550Y577327D02*
X212762D01*
X40550Y577581D02*
X212508D01*
X40804Y577835D02*
X212508D01*
X40296Y573263D02*
X212762Y573263D01*
X40296Y544815D02*
X144944D01*
X40296Y545069D02*
X144690D01*
X40296Y545323D02*
X144436D01*
X40296Y545577D02*
X144436D01*
X40296Y545831D02*
X144182D01*
X40296Y546085D02*
X144182Y546085D01*
X40296Y546339D02*
X144182D01*
X40296Y546593D02*
X144182D01*
X40296Y546847D02*
X144182D01*
X40296Y547101D02*
X144182D01*
X40296Y547355D02*
X143928D01*
X40296Y547609D02*
X143928D01*
X40296Y547863D02*
X143928D01*
X40296Y548117D02*
X143928D01*
X40296Y548371D02*
X143928D01*
X40296Y548625D02*
X143928D01*
X40296Y543037D02*
X178726Y543037D01*
X40296Y543291D02*
X178980D01*
X40296Y543545D02*
X178980D01*
X40296Y543799D02*
X179234D01*
X40296Y544053D02*
X179488D01*
X40296Y544307D02*
X179488D01*
X40296Y544561D02*
X179742D01*
X59854Y526019D02*
X133260D01*
X60362Y526273D02*
X131736D01*
X60362Y526527D02*
X130974D01*
X60362Y526781D02*
X130466D01*
X60362Y527035D02*
X130212D01*
X60108Y527289D02*
X129958Y527289D01*
X59854Y527543D02*
X129704Y527543D01*
X58330Y527797D02*
X129450D01*
X57568Y528051D02*
X129196D01*
X57314Y528305D02*
X128942D01*
X57060Y528559D02*
X128942D01*
X56806Y528813D02*
X128688D01*
X56552Y529067D02*
X128688D01*
X56552Y529321D02*
X128688Y529321D01*
X56552Y529575D02*
X128688D01*
X56552Y529829D02*
X128434D01*
X56298Y530083D02*
X128434D01*
X40296Y521193D02*
X200570D01*
X40296Y521447D02*
X200316D01*
X40296Y521701D02*
X200316D01*
X40296Y521955D02*
X197776D01*
X40296Y522209D02*
X197522D01*
X40296Y522463D02*
X190664D01*
X40296Y522717D02*
X190156D01*
X40296Y522971D02*
X189648D01*
X40296Y523225D02*
X189140D01*
X40296Y523479D02*
X188632D01*
X40296Y523733D02*
X188124D01*
X40296Y523987D02*
X173138D01*
X40296Y524241D02*
X172122D01*
X40296Y524495D02*
X171614Y524495D01*
X40296Y524749D02*
X171106D01*
X40296Y525003D02*
X170598D01*
X40296Y525257D02*
X170344D01*
X40296Y525511D02*
X170090D01*
X40296Y525765D02*
X169836D01*
X40296Y517383D02*
X212762D01*
X40296Y517637D02*
X212762D01*
X40296Y517891D02*
X212762D01*
X40296Y518145D02*
X212762D01*
X40296Y518399D02*
X212762D01*
X40296Y518907D02*
X212762D01*
X40296Y519161D02*
X212762D01*
X40296Y519415D02*
X212762D01*
X40296Y519669D02*
X212762D01*
X40296Y519923D02*
X212762Y519923D01*
X40296Y520177D02*
X212762D01*
X40296Y520431D02*
X212762D01*
X40296Y520685D02*
X212762D01*
X40296Y520939D02*
X212762D01*
X40296Y518653D02*
X212762D01*
X38264Y507985D02*
X215048D01*
X37756Y508239D02*
X215556D01*
X37502Y508493D02*
X216064D01*
X37248Y508747D02*
X216318Y508747D01*
X36994Y509001D02*
X216318D01*
X41566Y511541D02*
X211746D01*
X41058Y511795D02*
X212254D01*
X40804Y512049D02*
X212508D01*
X40296Y514335D02*
X212762D01*
X40550Y512557D02*
X212762D01*
X40296Y512811D02*
X212762D01*
X40296Y513065D02*
X212762D01*
X40296Y513319D02*
X212762Y513319D01*
X40296Y513573D02*
X212762D01*
X40296Y513827D02*
X212762D01*
X40296Y514081D02*
X212762D01*
X40296Y514589D02*
X212762D01*
X40296Y514843D02*
X212762D01*
X40296Y515097D02*
X212762D01*
X40296Y515351D02*
X212762D01*
X40296Y515605D02*
X212762D01*
X40296Y515859D02*
X212762D01*
X40296Y516113D02*
X212762Y516113D01*
X40296Y516367D02*
X212762D01*
X40296Y516621D02*
X212762D01*
X40296Y516875D02*
X212762D01*
X40550Y512303D02*
X212508Y512303D01*
X36486Y557769D02*
X37756D01*
X36486Y578089D02*
X37756D01*
X56044Y557769D02*
X57314D01*
X70522D02*
X72554D01*
X74586D02*
X79666D01*
X95668D02*
X100748D01*
X89318D02*
X93636D01*
X117004D02*
X122084D01*
X112940D02*
X114972D01*
X137070D02*
X142150D01*
X132752D02*
X134784D01*
X159422D02*
X164502D01*
X150532D02*
X151548D01*
X153834D02*
X157136D01*
X192442D02*
X193204D01*
X193712D02*
X194982D01*
X215302D02*
X216826D01*
X215302Y578089D02*
X216826D01*
X36486Y517129D02*
X37756D01*
X36486Y537449D02*
X37756D01*
X55028D02*
X60362Y537449D01*
X62394Y537449D02*
X64426Y537449D01*
X77888Y537449D02*
X86016D01*
X73824D02*
X75856D01*
X98970D02*
X100494D01*
X88048D02*
X89572D01*
X91604D02*
X96938D01*
X121068D02*
X123100D01*
X125132D02*
X127164D01*
X109892D02*
X111670D01*
X113702D02*
X119036D01*
X136562D02*
X138594D01*
X140626D02*
X145960D01*
X129196D02*
X134530D01*
X147992D02*
X149516D01*
X151802D02*
X156882D01*
X215302Y517129D02*
X216826D01*
X215302Y537449D02*
X216826D01*
X59600Y557769D02*
X68490D01*
X40296D02*
X53504D01*
X144182D02*
X147992D01*
X124116D02*
X130720D01*
X102780D02*
X110908D01*
X81952D02*
X87286D01*
X201078D02*
X212762D01*
X166534D02*
X189648D01*
X66458Y537449D02*
X71792Y537449D01*
X40296Y537449D02*
X52996Y537449D01*
X102526Y537449D02*
X107860D01*
X197268D02*
X212762D01*
X159168D02*
X176186D01*
X41058Y578089D02*
X212254D01*
X40296Y517129D02*
X212762D01*
M02*
