G04 Layer_Color=65535*
%FSLAX44Y44*%
%MOMM*%
G71*
G01*
G75*
%ADD31C,0.2540*%
%ADD38C,0.2500*%
%ADD39C,0.1000*%
%ADD40C,0.2000*%
%ADD41C,0.1524*%
%ADD42C,0.0500*%
%ADD43C,0.1700*%
G36*
X92374Y581114D02*
X93085Y578509D01*
X92374Y577058D01*
X90004Y575845D01*
X84695Y574093D01*
X77532Y572081D01*
X76516Y571066D01*
Y570113D01*
X81258Y566324D01*
X86805Y559480D01*
X89545Y552486D01*
Y548778D01*
X87310Y545314D01*
X84695Y544750D01*
X82091Y545721D01*
X78513Y548778D01*
X74772Y555785D01*
X72910Y567101D01*
X72187Y567672D01*
X69773Y566324D01*
Y566191D01*
X59367Y555785D01*
Y555631D01*
X54953Y555631D01*
X53868Y556716D01*
Y557820D01*
X53000Y558688D01*
Y561699D01*
X57001Y565700D01*
Y565936D01*
X57777D01*
X60878Y567672D01*
X62464Y568560D01*
X66162Y570114D01*
X71891Y570922D01*
X72910Y571066D01*
X74772Y574842D01*
X77230Y578195D01*
X81655Y580686D01*
X86103Y582367D01*
X92374Y581114D01*
D02*
G37*
D31*
X2300Y431000D02*
X27700D01*
X2300Y50000D02*
Y431000D01*
X27700Y50000D02*
Y431000D01*
X2300Y50000D02*
X27700D01*
X20080Y75400D02*
X27700D01*
X2300D02*
X9920D01*
D38*
X109750Y208750D02*
G03*
X109750Y208750I-1250J0D01*
G01*
X138580Y74670D02*
G03*
X138580Y74670I-1250J0D01*
G01*
X216500Y71750D02*
G03*
X216500Y71750I-1250J0D01*
G01*
D39*
X90250Y71000D02*
G03*
X90250Y71000I-15000J0D01*
G01*
X45702Y506520D02*
G03*
X45702Y506520I-3162J0D01*
G01*
X85240Y544777D02*
X85441Y544799D01*
X86322Y544899D01*
X86838Y544964D01*
X86860Y544970D01*
X86879Y544975D01*
X87310Y545314D01*
X88023Y545933D01*
X88186Y546079D01*
X88449Y546321D01*
X89062Y547240D01*
X89564Y548778D01*
X89692Y550715D01*
X89545Y552486D02*
X89692Y550715D01*
X89450Y553067D02*
X89545Y552486D01*
X89396Y553398D02*
X89450Y553067D01*
X89171Y554377D02*
X89396Y553398D01*
X88748Y555649D02*
X89171Y554377D01*
X88113Y557057D02*
X88748Y555649D01*
X87437Y558346D02*
X88113Y557057D01*
X87204Y558766D02*
X87437Y558346D01*
X86805Y559480D02*
X87204Y558766D01*
X85471Y561541D02*
X86805Y559480D01*
X83520Y564013D02*
X85471Y561541D01*
X81288Y566253D02*
X83520Y564013D01*
X79381Y567848D02*
X81288Y566253D01*
X78716Y568334D02*
X79381Y567848D01*
X78355Y568597D02*
X78716Y568334D01*
X77292Y569408D02*
X78355Y568597D01*
X76516Y570113D02*
X77292Y569408D01*
X76234Y570621D02*
X76516Y570113D01*
X76234Y570621D02*
X76258Y570993D01*
X76299Y571104D01*
X76343Y571234D01*
X76625Y571576D01*
X77485Y572023D01*
X79248Y572590D01*
X81532Y573219D01*
X82294Y573420D01*
X82896Y573580D01*
X84695Y574093D01*
X87009Y574804D01*
X88973Y575463D01*
X90004Y575845D01*
X90321Y575989D01*
X90622Y576128D01*
X91517Y576572D01*
X92271Y577058D01*
X92713Y577557D01*
X92933Y578024D01*
X92985Y578184D01*
X93085Y578509D01*
X92993Y579974D02*
X93085Y578509D01*
X92179Y581029D02*
X92993Y579974D01*
X91919Y581149D02*
X92179Y581029D01*
X91487Y581347D02*
X91919Y581149D01*
X89580Y582006D02*
X91487Y581347D01*
X87695Y582299D02*
X89580Y582006D01*
X87277Y582315D02*
X87695Y582299D01*
X87006Y582326D02*
X87277Y582315D01*
X86192Y582277D02*
X87006Y582326D01*
X85029Y582003D02*
X86192Y582277D01*
X83461Y581390D02*
X85029Y582003D01*
X81741Y580601D02*
X83461Y581390D01*
X81174Y580330D02*
X81741Y580601D01*
X80761Y580134D02*
X81174Y580330D01*
X79530Y579529D02*
X80761Y580134D01*
X78236Y578840D02*
X79530Y579529D01*
X77230Y578195D02*
X78236Y578840D01*
X76443Y577538D02*
X77230Y578195D01*
X75814Y576800D02*
X76443Y577538D01*
X75276Y575921D02*
X75814Y576800D01*
X74772Y574842D02*
X75276Y575921D01*
X74365Y573830D02*
X74772Y574842D01*
X74235Y573491D02*
X74365Y573830D01*
X74105Y573154D02*
X74235Y573491D01*
X73443Y571763D02*
X74105Y573154D01*
X72914Y571039D02*
X73443Y571763D01*
X72854Y571036D02*
X72914Y571039D01*
X71986Y571017D02*
X72854Y571036D01*
X69382Y570922D02*
X71986Y571017D01*
X67060Y570602D02*
X69382Y570922D01*
X64816Y569815D02*
X67060Y570602D01*
X62391Y568689D02*
X64816Y569815D01*
X61588Y568304D02*
X62391Y568689D01*
X60878Y567965D02*
X61588Y568304D01*
X58759Y566918D02*
X60878Y567965D01*
X57001Y565936D02*
X58759Y566918D01*
X55875Y565084D02*
X57001Y565936D01*
X55165Y564346D02*
X55875Y565084D01*
X54948Y564086D02*
X55165Y564346D01*
X54747Y563850D02*
X54948Y564086D01*
X53811Y562510D02*
X54747Y563850D01*
X53165Y561308D02*
X53811Y562510D01*
X53114Y561137D02*
X53165Y561308D01*
X53022Y560844D02*
X53114Y561137D01*
X53000Y559881D02*
X53022Y560844D01*
X53000Y559881D02*
X53277Y558411D01*
X53868Y556995D01*
X54446Y556121D01*
X54695Y555888D01*
X54837Y555755D01*
X55791Y555343D01*
X57145Y555253D01*
X57487Y555281D01*
X57763Y555305D01*
X58599Y555408D01*
X59367Y555631D01*
X60037Y556062D01*
X60655Y556626D01*
X60856Y556819D01*
X61048Y557009D01*
X61656Y557654D01*
X62804Y558907D01*
X64141Y560410D01*
X65180Y561598D01*
X65522Y561995D01*
X66078Y562645D01*
X67828Y564525D01*
X69773Y566324D01*
X71324Y567368D01*
X72187Y567672D01*
X72455Y567631D01*
X72542Y567621D01*
X72797Y567477D01*
X73022Y567043D01*
X73163Y566194D01*
X73242Y565149D01*
X73261Y564799D01*
X73318Y563660D01*
X73790Y560250D01*
X74872Y555953D01*
X76440Y552107D01*
X77862Y549641D01*
X78437Y548898D01*
X78605Y548681D01*
X79907Y547381D01*
X81437Y546150D01*
X81719Y545963D01*
X82091Y545721D01*
X83637Y544964D01*
X84972Y544750D01*
X85240Y544777D01*
X137650Y202250D02*
X170000D01*
Y200300D02*
Y202250D01*
Y149250D02*
Y151200D01*
X137650Y149250D02*
X170000D01*
X107000D02*
X139350D01*
X107000D02*
Y151200D01*
Y202250D02*
X139350D01*
X107000Y200300D02*
Y202250D01*
X143830Y69420D02*
Y76170D01*
X150580D01*
X170080D02*
X176830D01*
Y69420D02*
Y76170D01*
Y43170D02*
Y49920D01*
X170080Y43170D02*
X176830D01*
X143830D02*
Y49920D01*
Y43170D02*
X150580D01*
X211250Y59000D02*
Y64000D01*
X208250Y59000D02*
X211250D01*
X194250D02*
Y64000D01*
Y59000D02*
X197250D01*
X48540Y515520D02*
X208540D01*
Y255520D02*
Y515520D01*
X48540Y255520D02*
X208540D01*
X48540D02*
Y515520D01*
D40*
X146500Y611500D02*
Y616500D01*
X176500D01*
Y611500D02*
Y616500D01*
Y585500D02*
Y587500D01*
X167500Y585500D02*
X176500D01*
X146500D02*
X155500D01*
X146500D02*
Y587500D01*
X169490Y87150D02*
X171490Y87150D01*
X169490Y93150D02*
X171490Y93150D01*
X17747Y615191D02*
X9750D01*
Y603195D01*
X17747D01*
X9750Y609193D02*
X13749D01*
X29743Y615191D02*
X21746D01*
Y603195D01*
X29743D01*
X21746Y609193D02*
X25745D01*
X33742D02*
X41740D01*
X45738Y603195D02*
Y615191D01*
X53736Y603195D01*
Y615191D01*
X57734D02*
Y603195D01*
X63733D01*
X65732Y605195D01*
Y607194D01*
X63733Y609193D01*
X57734D01*
X63733D01*
X65732Y611193D01*
Y613192D01*
X63733Y615191D01*
X57734D01*
X69731D02*
X73729D01*
X71730D01*
Y603195D01*
X69731D01*
X73729D01*
X85725Y615191D02*
X81727D01*
X79727Y613192D01*
Y605195D01*
X81727Y603195D01*
X85725D01*
X87725Y605195D01*
Y613192D01*
X85725Y615191D01*
X91723D02*
X99721D01*
X95722D01*
Y603195D01*
X103720Y609193D02*
X111717D01*
X115716Y613192D02*
X117715Y615191D01*
X121714D01*
X123713Y613192D01*
Y605195D01*
X121714Y603195D01*
X117715D01*
X115716Y605195D01*
Y613192D01*
X127712Y603195D02*
X131711D01*
X129711D01*
Y615191D01*
X127712Y613192D01*
X9750Y591997D02*
X13749Y584000D01*
X17747Y591997D01*
X21746Y584000D02*
X25745D01*
X23746D01*
Y595996D01*
X21746Y593997D01*
X31743Y584000D02*
Y585999D01*
X33742D01*
Y584000D01*
X31743D01*
X41740Y593997D02*
X43739Y595996D01*
X47738D01*
X49737Y593997D01*
Y585999D01*
X47738Y584000D01*
X43739D01*
X41740Y585999D01*
Y593997D01*
X91165Y386081D02*
X89498Y387747D01*
X86166D01*
X84500Y386081D01*
Y384414D01*
X86166Y382748D01*
X89498D01*
X91165Y381082D01*
Y379416D01*
X89498Y377750D01*
X86166D01*
X84500Y379416D01*
X94497Y377750D02*
Y384414D01*
X97829Y387747D01*
X101161Y384414D01*
Y377750D01*
Y382748D01*
X94497D01*
X104494Y377750D02*
Y387747D01*
X109492D01*
X111158Y386081D01*
Y382748D01*
X109492Y381082D01*
X104494D01*
X107826D02*
X111158Y377750D01*
X114490D02*
Y384414D01*
X117823Y387747D01*
X121155Y384414D01*
Y377750D01*
Y382748D01*
X114490D01*
X124487D02*
X131152D01*
X134484Y377750D02*
Y387747D01*
X141148Y377750D01*
Y387747D01*
X151145Y377750D02*
X144481D01*
X151145Y384414D01*
Y386081D01*
X149479Y387747D01*
X146147D01*
X144481Y386081D01*
X154478Y377750D02*
X157810D01*
X156144D01*
Y387747D01*
X154478Y386081D01*
X162808D02*
X164474Y387747D01*
X167806D01*
X169473Y386081D01*
Y379416D01*
X167806Y377750D01*
X164474D01*
X162808Y379416D01*
Y386081D01*
D41*
X210250Y36000D02*
X216500D01*
X199000D02*
X205250D01*
X210250Y43500D02*
X216500D01*
X199000D02*
X205250D01*
X199000Y36000D02*
Y43500D01*
X216500Y36000D02*
Y43500D01*
X185249Y190751D02*
Y197251D01*
Y202251D02*
Y208751D01*
X192249Y190751D02*
Y197251D01*
Y202251D02*
Y208751D01*
X185249D02*
X192249D01*
X185249Y190751D02*
X192249D01*
X99501Y166999D02*
Y173499D01*
Y155499D02*
Y161999D01*
X92501Y166999D02*
Y173499D01*
Y155499D02*
Y161999D01*
Y155499D02*
X99501D01*
X92501Y173499D02*
X99501D01*
X158740Y85150D02*
Y95150D01*
X182240D02*
X182240Y85150D01*
X172990D02*
X182240D01*
X158740D02*
X167990D01*
X172990Y95150D02*
X182240D01*
X158740D02*
X167990D01*
X161491Y107621D02*
X167991D01*
X172991D02*
X179491D01*
X161491Y100621D02*
X167991Y100621D01*
X172991Y100621D02*
X179491D01*
Y107621D01*
X161491Y100621D02*
Y107621D01*
Y117781D02*
X167991Y117781D01*
X172991D02*
X179491Y117781D01*
X161491Y110781D02*
X167991D01*
X172991Y110781D02*
X179491Y110781D01*
Y117781D01*
X161491Y110781D02*
Y117781D01*
X172749Y120499D02*
X179249Y120499D01*
X161249D02*
X167749Y120499D01*
X172749Y127499D02*
X179249D01*
X161249D02*
X167749D01*
X161249Y120499D02*
Y127499D01*
X179249Y120499D02*
Y127499D01*
X161491Y32691D02*
X167991D01*
X172991D02*
X179491D01*
X161491Y25691D02*
X167991Y25691D01*
X172991Y25691D02*
X179491D01*
Y32691D01*
X161491Y25691D02*
Y32691D01*
X29750Y449000D02*
Y455250D01*
Y460250D02*
Y466500D01*
X37250Y449000D02*
Y455250D01*
Y460250D02*
Y466500D01*
X29750D02*
X37250D01*
X29750Y449000D02*
X37250D01*
X60250Y141500D02*
X66500D01*
X49000D02*
X55250D01*
X60250Y149000D02*
X66500D01*
X49000D02*
X55250D01*
X49000Y141500D02*
Y149000D01*
X66500Y141500D02*
Y149000D01*
X176249Y190751D02*
Y197251D01*
Y202251D02*
Y208751D01*
X183249Y190751D02*
Y197251D01*
Y202251D02*
Y208751D01*
X176249D02*
X183249D01*
X176249Y190751D02*
X183249D01*
X183251Y179499D02*
Y185999D01*
Y167999D02*
Y174499D01*
X176251Y179499D02*
Y185999D01*
Y167999D02*
Y174499D01*
Y167999D02*
X183251D01*
X176251Y185999D02*
X183251D01*
X192751Y159749D02*
Y166249D01*
Y148249D02*
Y154749D01*
X185751Y159749D02*
Y166249D01*
Y148249D02*
Y154749D01*
Y148249D02*
X192751D01*
X185751Y166249D02*
X192751D01*
X165749Y567749D02*
Y574749D01*
X147749Y567749D02*
Y574749D01*
X154249D01*
X159249D02*
X165749D01*
X147749Y567749D02*
X154249D01*
X159249D02*
X165749D01*
X138000Y557500D02*
Y563750D01*
Y568750D02*
Y575000D01*
X145500Y557500D02*
Y563750D01*
Y568750D02*
Y575000D01*
X138000D02*
X145500D01*
X138000Y557500D02*
X145500D01*
X127999Y557251D02*
Y563751D01*
Y568751D02*
Y575251D01*
X134999Y557251D02*
Y563751D01*
Y568751D02*
Y575251D01*
X127999D02*
X134999D01*
X127999Y557251D02*
X134999D01*
X99250Y529500D02*
Y535750D01*
Y518250D02*
Y524500D01*
X91750Y529500D02*
Y535750D01*
Y518250D02*
Y524500D01*
Y518250D02*
X99250D01*
X91750Y535750D02*
X99250D01*
X165001Y557999D02*
Y564499D01*
Y546499D02*
Y552999D01*
X158001Y557999D02*
Y564499D01*
Y546499D02*
Y552999D01*
Y546499D02*
X165001D01*
X158001Y564499D02*
X165001D01*
X157251Y537501D02*
Y544501D01*
X175251Y537501D02*
Y544501D01*
X168751Y537501D02*
X175251D01*
X157251D02*
X163751D01*
X168751Y544501D02*
X175251D01*
X157251D02*
X163751D01*
X165310Y528990D02*
Y535240D01*
Y517740D02*
Y523990D01*
X157810Y528990D02*
Y535240D01*
Y517740D02*
Y523990D01*
Y517740D02*
X165310D01*
X157810Y535240D02*
X165310D01*
D42*
X45250Y41000D02*
X105250D01*
Y101000D01*
X45250D02*
X105250D01*
X45250Y41000D02*
Y101000D01*
D43*
X42000Y33250D02*
X32003D01*
Y38248D01*
X33669Y39915D01*
X37002D01*
X38668Y38248D01*
Y33250D01*
Y36582D02*
X42000Y39915D01*
Y48245D02*
Y44913D01*
X40334Y43247D01*
X37002D01*
X35336Y44913D01*
Y48245D01*
X37002Y49911D01*
X38668D01*
Y43247D01*
X42000Y53244D02*
Y58242D01*
X40334Y59908D01*
X38668Y58242D01*
Y54910D01*
X37002Y53244D01*
X35336Y54910D01*
Y59908D01*
X42000Y68239D02*
Y64907D01*
X40334Y63240D01*
X37002D01*
X35336Y64907D01*
Y68239D01*
X37002Y69905D01*
X38668D01*
Y63240D01*
X33669Y74903D02*
X35336D01*
Y73237D01*
Y76569D01*
Y74903D01*
X40334D01*
X42000Y76569D01*
X33669Y98229D02*
X32003Y96563D01*
Y93231D01*
X33669Y91565D01*
X35336D01*
X37002Y93231D01*
Y96563D01*
X38668Y98229D01*
X40334D01*
X42000Y96563D01*
Y93231D01*
X40334Y91565D01*
X32003Y101561D02*
X42000D01*
X38668Y104894D01*
X42000Y108226D01*
X32003D01*
X193414Y604247D02*
X190082D01*
X191748D01*
Y595916D01*
X190082Y594250D01*
X188416D01*
X186750Y595916D01*
X196747Y594250D02*
X200079D01*
X198413D01*
Y604247D01*
X196747Y602581D01*
X8500Y435000D02*
Y444997D01*
X13498D01*
X15165Y443331D01*
Y439998D01*
X13498Y438332D01*
X8500D01*
X18497Y435000D02*
X21829D01*
X20163D01*
Y444997D01*
X18497Y443331D01*
X201750Y22500D02*
Y32497D01*
X206748D01*
X208414Y30831D01*
Y27498D01*
X206748Y25832D01*
X201750D01*
X205082D02*
X208414Y22500D01*
X211747D02*
X215079D01*
X213413D01*
Y32497D01*
X211747Y30831D01*
X204165Y202331D02*
X202498Y203997D01*
X199166D01*
X197500Y202331D01*
Y195666D01*
X199166Y194000D01*
X202498D01*
X204165Y195666D01*
X207497Y194000D02*
X210829D01*
X209163D01*
Y203997D01*
X207497Y202331D01*
X222492Y194000D02*
X215827D01*
X222492Y200665D01*
Y202331D01*
X220826Y203997D01*
X217494D01*
X215827Y202331D01*
X115250Y219497D02*
Y211166D01*
X116916Y209500D01*
X120248D01*
X121915Y211166D01*
Y219497D01*
X125247Y217831D02*
X126913Y219497D01*
X130245D01*
X131911Y217831D01*
Y216164D01*
X130245Y214498D01*
X128579D01*
X130245D01*
X131911Y212832D01*
Y211166D01*
X130245Y209500D01*
X126913D01*
X125247Y211166D01*
X78415Y173581D02*
X76748Y175247D01*
X73416D01*
X71750Y173581D01*
Y166916D01*
X73416Y165250D01*
X76748D01*
X78415Y166916D01*
X81747Y173581D02*
X83413Y175247D01*
X86745D01*
X88411Y173581D01*
Y171915D01*
X86745Y170248D01*
X88411Y168582D01*
Y166916D01*
X86745Y165250D01*
X83413D01*
X81747Y166916D01*
Y168582D01*
X83413Y170248D01*
X81747Y171915D01*
Y173581D01*
X83413Y170248D02*
X86745D01*
X68914Y116331D02*
X67248Y117997D01*
X63916D01*
X62250Y116331D01*
Y114664D01*
X63916Y112998D01*
X67248D01*
X68914Y111332D01*
Y109666D01*
X67248Y108000D01*
X63916D01*
X62250Y109666D01*
X72247Y117997D02*
Y108000D01*
X75579Y111332D01*
X78911Y108000D01*
Y117997D01*
X82243Y108000D02*
X85576D01*
X83910D01*
Y117997D01*
X82243Y116331D01*
X149415Y105581D02*
X147748Y107247D01*
X144416D01*
X142750Y105581D01*
Y98916D01*
X144416Y97250D01*
X147748D01*
X149415Y98916D01*
X152747Y97250D02*
X156079D01*
X154413D01*
Y107247D01*
X152747Y105581D01*
X191665Y107581D02*
X189998Y109247D01*
X186666D01*
X185000Y107581D01*
Y100916D01*
X186666Y99250D01*
X189998D01*
X191665Y100916D01*
X201661Y99250D02*
X194997D01*
X201661Y105914D01*
Y107581D01*
X199995Y109247D01*
X196663D01*
X194997Y107581D01*
X145164Y118581D02*
X143498Y120247D01*
X140166D01*
X138500Y118581D01*
Y111916D01*
X140166Y110250D01*
X143498D01*
X145164Y111916D01*
X148497Y118581D02*
X150163Y120247D01*
X153495D01*
X155161Y118581D01*
Y116915D01*
X153495Y115248D01*
X151829D01*
X153495D01*
X155161Y113582D01*
Y111916D01*
X153495Y110250D01*
X150163D01*
X148497Y111916D01*
X190665Y127831D02*
X188998Y129497D01*
X185666D01*
X184000Y127831D01*
Y121166D01*
X185666Y119500D01*
X188998D01*
X190665Y121166D01*
X198995Y119500D02*
Y129497D01*
X193997Y124498D01*
X200661D01*
X134500Y91997D02*
Y83666D01*
X136166Y82000D01*
X139498D01*
X141165Y83666D01*
Y91997D01*
X151161Y82000D02*
X144497D01*
X151161Y88665D01*
Y90331D01*
X149495Y91997D01*
X146163D01*
X144497Y90331D01*
X112500Y88997D02*
Y79000D01*
X119164D01*
X122497D02*
X125829D01*
X124163D01*
Y88997D01*
X122497Y87331D01*
X203915Y84416D02*
Y91081D01*
X202248Y92747D01*
X198916D01*
X197250Y91081D01*
Y84416D01*
X198916Y82750D01*
X202248D01*
X200582Y86082D02*
X203915Y82750D01*
X202248D02*
X203915Y84416D01*
X207247Y82750D02*
X210579D01*
X208913D01*
Y92747D01*
X207247Y91081D01*
X146165Y31081D02*
X144498Y32747D01*
X141166D01*
X139500Y31081D01*
Y24416D01*
X141166Y22750D01*
X144498D01*
X146165Y24416D01*
X156161Y32747D02*
X149497D01*
Y27748D01*
X152829Y29415D01*
X154495D01*
X156161Y27748D01*
Y24416D01*
X154495Y22750D01*
X151163D01*
X149497Y24416D01*
X23000Y472250D02*
Y482247D01*
X27998D01*
X29664Y480581D01*
Y477248D01*
X27998Y475582D01*
X23000D01*
X26332D02*
X29664Y472250D01*
X39661D02*
X32997D01*
X39661Y478914D01*
Y480581D01*
X37995Y482247D01*
X34663D01*
X32997Y480581D01*
X49250Y163247D02*
Y153250D01*
X54248D01*
X55915Y154916D01*
Y161581D01*
X54248Y163247D01*
X49250D01*
X65911Y153250D02*
X59247D01*
X65911Y159915D01*
Y161581D01*
X64245Y163247D01*
X60913D01*
X59247Y161581D01*
X162164Y220831D02*
X160498Y222497D01*
X157166D01*
X155500Y220831D01*
Y214166D01*
X157166Y212500D01*
X160498D01*
X162164Y214166D01*
X165497Y212500D02*
X168829D01*
X167163D01*
Y222497D01*
X165497Y220831D01*
X173827Y212500D02*
X177160D01*
X175494D01*
Y222497D01*
X173827Y220831D01*
X194165Y180331D02*
X192498Y181997D01*
X189166D01*
X187500Y180331D01*
Y173666D01*
X189166Y172000D01*
X192498D01*
X194165Y173666D01*
X197497Y172000D02*
X200829D01*
X199163D01*
Y181997D01*
X197497Y180331D01*
X205827D02*
X207494Y181997D01*
X210826D01*
X212492Y180331D01*
Y173666D01*
X210826Y172000D01*
X207494D01*
X205827Y173666D01*
Y180331D01*
X202915Y157581D02*
X201248Y159247D01*
X197916D01*
X196250Y157581D01*
Y150916D01*
X197916Y149250D01*
X201248D01*
X202915Y150916D01*
X206247D02*
X207913Y149250D01*
X211245D01*
X212911Y150916D01*
Y157581D01*
X211245Y159247D01*
X207913D01*
X206247Y157581D01*
Y155914D01*
X207913Y154248D01*
X212911D01*
X170750Y577497D02*
Y567500D01*
X177414D01*
X180747Y575831D02*
X182413Y577497D01*
X185745D01*
X187411Y575831D01*
Y574165D01*
X185745Y572498D01*
X184079D01*
X185745D01*
X187411Y570832D01*
Y569166D01*
X185745Y567500D01*
X182413D01*
X180747Y569166D01*
X135250Y552997D02*
Y543000D01*
X140248D01*
X141915Y544666D01*
Y551331D01*
X140248Y552997D01*
X135250D01*
X145247Y543000D02*
X148579D01*
X146913D01*
Y552997D01*
X145247Y551331D01*
X112914Y567081D02*
X111248Y568747D01*
X107916D01*
X106250Y567081D01*
Y560416D01*
X107916Y558750D01*
X111248D01*
X112914Y560416D01*
X116247Y568747D02*
X122911D01*
Y567081D01*
X116247Y560416D01*
Y558750D01*
X72000Y522750D02*
Y532747D01*
X76998D01*
X78664Y531081D01*
Y527748D01*
X76998Y526082D01*
X72000D01*
X75332D02*
X78664Y522750D01*
X86995D02*
Y532747D01*
X81997Y527748D01*
X88661D01*
X176665Y560081D02*
X174998Y561747D01*
X171666D01*
X170000Y560081D01*
Y553416D01*
X171666Y551750D01*
X174998D01*
X176665Y553416D01*
X186661Y561747D02*
X183329Y560081D01*
X179997Y556748D01*
Y553416D01*
X181663Y551750D01*
X184995D01*
X186661Y553416D01*
Y555082D01*
X184995Y556748D01*
X179997D01*
X180500Y546997D02*
Y537000D01*
X187164D01*
X197161D02*
X190497D01*
X197161Y543665D01*
Y545331D01*
X195495Y546997D01*
X192163D01*
X190497Y545331D01*
X170250Y521750D02*
Y531747D01*
X175248D01*
X176915Y530081D01*
Y526748D01*
X175248Y525082D01*
X170250D01*
X173582D02*
X176915Y521750D01*
X180247Y530081D02*
X181913Y531747D01*
X185245D01*
X186911Y530081D01*
Y528414D01*
X185245Y526748D01*
X183579D01*
X185245D01*
X186911Y525082D01*
Y523416D01*
X185245Y521750D01*
X181913D01*
X180247Y523416D01*
X40544Y532845D02*
Y524514D01*
X42210Y522848D01*
X45542D01*
X47208Y524514D01*
Y532845D01*
X50541Y522848D02*
X53873D01*
X52207D01*
Y532845D01*
X50541Y531179D01*
M02*
