G04 Layer_Physical_Order=4*
G04 Layer_Color=16711680*
%FSLAX44Y44*%
%MOMM*%
G71*
G01*
G75*
%ADD10C,1.0000*%
%ADD31C,0.2540*%
%ADD33C,1.5000*%
%ADD34R,1.5000X1.5000*%
%ADD35C,0.8000*%
%ADD36C,1.2700*%
%ADD37C,0.5000*%
G36*
X248376Y1624D02*
X1624D01*
Y623876D01*
X248376D01*
Y1624D01*
D02*
G37*
%LPC*%
G36*
X142889Y169250D02*
X139500D01*
Y165861D01*
X140256Y166011D01*
X141744Y167006D01*
X142739Y168494D01*
X142889Y169250D01*
D02*
G37*
G36*
X137500D02*
X134111D01*
X134261Y168494D01*
X135256Y167006D01*
X136744Y166011D01*
X137500Y165861D01*
Y169250D01*
D02*
G37*
G36*
X153889Y169250D02*
X150500D01*
Y165861D01*
X151256Y166011D01*
X152744Y167006D01*
X153739Y168494D01*
X153889Y169250D01*
D02*
G37*
G36*
X126500Y174639D02*
X125744Y174489D01*
X124256Y173494D01*
X123261Y172006D01*
X123111Y171250D01*
X126500D01*
Y174639D01*
D02*
G37*
G36*
X150500D02*
Y171250D01*
X153889D01*
X153739Y172006D01*
X152744Y173494D01*
X151256Y174489D01*
X150500Y174639D01*
D02*
G37*
G36*
X148500D02*
X147744Y174489D01*
X146256Y173494D01*
X145261Y172006D01*
X145111Y171250D01*
X148500D01*
Y174639D01*
D02*
G37*
G36*
X128500D02*
Y171250D01*
X131889D01*
X131739Y172006D01*
X130744Y173494D01*
X129256Y174489D01*
X128500Y174639D01*
D02*
G37*
G36*
X148500Y169250D02*
X145111D01*
X145261Y168494D01*
X146256Y167006D01*
X147744Y166011D01*
X148500Y165861D01*
Y169250D01*
D02*
G37*
G36*
X150500Y163639D02*
Y160250D01*
X153889D01*
X153739Y161006D01*
X152744Y162494D01*
X151256Y163489D01*
X150500Y163639D01*
D02*
G37*
G36*
X148500D02*
X147744Y163489D01*
X146256Y162494D01*
X145261Y161006D01*
X145111Y160250D01*
X148500D01*
Y163639D01*
D02*
G37*
G36*
X139500D02*
Y160250D01*
X142889D01*
X142739Y161006D01*
X141744Y162494D01*
X140256Y163489D01*
X139500Y163639D01*
D02*
G37*
G36*
X14000Y173750D02*
X12520Y173556D01*
X10209Y172598D01*
X8224Y171075D01*
X6702Y169091D01*
X5745Y166780D01*
X5550Y165300D01*
X14000D01*
Y173750D01*
D02*
G37*
G36*
X131889Y169250D02*
X128500D01*
Y165861D01*
X129256Y166011D01*
X130744Y167006D01*
X131739Y168494D01*
X131889Y169250D01*
D02*
G37*
G36*
X126500D02*
X123111D01*
X123261Y168494D01*
X124256Y167006D01*
X125744Y166011D01*
X126500Y165861D01*
Y169250D01*
D02*
G37*
G36*
X16000Y173750D02*
Y165300D01*
X24450D01*
X24255Y166780D01*
X23298Y169091D01*
X21775Y171075D01*
X19791Y172598D01*
X17480Y173556D01*
X16000Y173750D01*
D02*
G37*
G36*
X137500Y174639D02*
X136744Y174489D01*
X135256Y173494D01*
X134261Y172006D01*
X134111Y171250D01*
X137500D01*
Y174639D01*
D02*
G37*
G36*
Y185639D02*
X136744Y185489D01*
X135256Y184494D01*
X134261Y183006D01*
X134111Y182250D01*
X137500D01*
Y185639D01*
D02*
G37*
G36*
X14000Y188700D02*
X5550D01*
X5745Y187220D01*
X6702Y184909D01*
X8224Y182925D01*
X10209Y181402D01*
X12520Y180445D01*
X14000Y180250D01*
Y188700D01*
D02*
G37*
G36*
X24450D02*
X16000D01*
Y180250D01*
X17480Y180445D01*
X19791Y181402D01*
X21775Y182925D01*
X23298Y184909D01*
X24255Y187220D01*
X24450Y188700D01*
D02*
G37*
G36*
X139500Y185639D02*
Y182250D01*
X142889D01*
X142739Y183006D01*
X141744Y184494D01*
X140256Y185489D01*
X139500Y185639D01*
D02*
G37*
G36*
X148500Y185639D02*
X147744Y185489D01*
X146256Y184494D01*
X145261Y183006D01*
X145111Y182250D01*
X148500D01*
Y185639D01*
D02*
G37*
G36*
X128500D02*
Y182250D01*
X131889D01*
X131739Y183006D01*
X130744Y184494D01*
X129256Y185489D01*
X128500Y185639D01*
D02*
G37*
G36*
X126500D02*
X125744Y185489D01*
X124256Y184494D01*
X123261Y183006D01*
X123111Y182250D01*
X126500D01*
Y185639D01*
D02*
G37*
G36*
X153889Y180250D02*
X150500D01*
Y176861D01*
X151256Y177011D01*
X152744Y178006D01*
X153739Y179494D01*
X153889Y180250D01*
D02*
G37*
G36*
X137500Y180250D02*
X134111D01*
X134261Y179494D01*
X135256Y178006D01*
X136744Y177011D01*
X137500Y176861D01*
Y180250D01*
D02*
G37*
G36*
X229750Y189163D02*
X227831Y188911D01*
X226043Y188170D01*
X224508Y186992D01*
X223330Y185457D01*
X222589Y183669D01*
X222337Y181750D01*
X222589Y179831D01*
X223330Y178043D01*
X224508Y176508D01*
X226043Y175330D01*
X227831Y174589D01*
X229750Y174337D01*
X231669Y174589D01*
X233457Y175330D01*
X234992Y176508D01*
X236170Y178043D01*
X236911Y179831D01*
X237163Y181750D01*
X236911Y183669D01*
X236170Y185457D01*
X234992Y186992D01*
X233457Y188170D01*
X231669Y188911D01*
X229750Y189163D01*
D02*
G37*
G36*
X139500Y174639D02*
Y171250D01*
X142889D01*
X142739Y172006D01*
X141744Y173494D01*
X140256Y174489D01*
X139500Y174639D01*
D02*
G37*
G36*
X142889Y180250D02*
X139500D01*
Y176861D01*
X140256Y177011D01*
X141744Y178006D01*
X142739Y179494D01*
X142889Y180250D01*
D02*
G37*
G36*
X148500Y180250D02*
X145111D01*
X145261Y179494D01*
X146256Y178006D01*
X147744Y177011D01*
X148500Y176861D01*
Y180250D01*
D02*
G37*
G36*
X131889D02*
X128500D01*
Y176861D01*
X129256Y177011D01*
X130744Y178006D01*
X131739Y179494D01*
X131889Y180250D01*
D02*
G37*
G36*
X126500D02*
X123111D01*
X123261Y179494D01*
X124256Y178006D01*
X125744Y177011D01*
X126500Y176861D01*
Y180250D01*
D02*
G37*
G36*
X152000Y92598D02*
X150049Y92210D01*
X148395Y91105D01*
X147290Y89451D01*
X146902Y87500D01*
X147290Y85549D01*
X148395Y83895D01*
X150049Y82790D01*
X152000Y82402D01*
X153951Y82790D01*
X155605Y83895D01*
X156710Y85549D01*
X157098Y87500D01*
X156710Y89451D01*
X155605Y91105D01*
X153951Y92210D01*
X152000Y92598D01*
D02*
G37*
G36*
X207750Y94913D02*
X205831Y94661D01*
X204043Y93920D01*
X202508Y92742D01*
X201330Y91207D01*
X200589Y89419D01*
X200337Y87500D01*
X200589Y85581D01*
X201330Y83793D01*
X202508Y82258D01*
X204043Y81080D01*
X205831Y80339D01*
X207750Y80087D01*
X209669Y80339D01*
X211457Y81080D01*
X212992Y82258D01*
X214170Y83793D01*
X214911Y85581D01*
X215163Y87500D01*
X214911Y89419D01*
X214170Y91207D01*
X212992Y92742D01*
X211457Y93920D01*
X209669Y94661D01*
X207750Y94913D01*
D02*
G37*
G36*
X14000Y87100D02*
X5550D01*
X5745Y85620D01*
X6702Y83309D01*
X8224Y81325D01*
X10209Y79802D01*
X12520Y78844D01*
X14000Y78650D01*
Y87100D01*
D02*
G37*
G36*
Y97550D02*
X12520Y97355D01*
X10209Y96398D01*
X8224Y94875D01*
X6702Y92891D01*
X5745Y90580D01*
X5550Y89100D01*
X14000D01*
Y97550D01*
D02*
G37*
G36*
X15000Y122073D02*
X12781Y121781D01*
X10713Y120925D01*
X8938Y119562D01*
X7575Y117787D01*
X6719Y115719D01*
X6427Y113500D01*
X6719Y111281D01*
X7575Y109213D01*
X8938Y107438D01*
X10713Y106075D01*
X12781Y105219D01*
X15000Y104927D01*
X17219Y105219D01*
X19287Y106075D01*
X21062Y107438D01*
X22425Y109213D01*
X23281Y111281D01*
X23573Y113500D01*
X23281Y115719D01*
X22425Y117787D01*
X21062Y119562D01*
X19287Y120925D01*
X17219Y121781D01*
X15000Y122073D01*
D02*
G37*
G36*
X152750Y104598D02*
X150799Y104210D01*
X149145Y103105D01*
X148040Y101451D01*
X147652Y99500D01*
X148040Y97549D01*
X149145Y95895D01*
X150799Y94790D01*
X152750Y94402D01*
X154701Y94790D01*
X156355Y95895D01*
X157460Y97549D01*
X157848Y99500D01*
X157460Y101451D01*
X156355Y103105D01*
X154701Y104210D01*
X152750Y104598D01*
D02*
G37*
G36*
X16000Y97550D02*
Y89100D01*
X24450D01*
X24255Y90580D01*
X23298Y92891D01*
X21775Y94875D01*
X19791Y96398D01*
X17480Y97355D01*
X16000Y97550D01*
D02*
G37*
G36*
X24450Y87100D02*
X16000D01*
Y78650D01*
X17480Y78844D01*
X19791Y79802D01*
X21775Y81325D01*
X23298Y83309D01*
X24255Y85620D01*
X24450Y87100D01*
D02*
G37*
G36*
X149500Y39098D02*
X147549Y38710D01*
X145895Y37605D01*
X144790Y35951D01*
X144402Y34000D01*
X144790Y32049D01*
X145895Y30395D01*
X147549Y29290D01*
X148480Y29105D01*
X148723Y28374D01*
X148820Y27742D01*
X147790Y26201D01*
X147402Y24250D01*
X147790Y22299D01*
X148895Y20645D01*
X148538Y19357D01*
X147799Y19210D01*
X146145Y18105D01*
X145040Y16451D01*
X144652Y14500D01*
X145040Y12549D01*
X146145Y10895D01*
X147799Y9790D01*
X149750Y9402D01*
X151701Y9790D01*
X153355Y10895D01*
X154460Y12549D01*
X154848Y14500D01*
X154460Y16451D01*
X153355Y18105D01*
X153713Y19393D01*
X154451Y19540D01*
X156105Y20645D01*
X157210Y22299D01*
X157598Y24250D01*
X157210Y26201D01*
X156105Y27855D01*
X154451Y28960D01*
X153520Y29145D01*
X153277Y29876D01*
X153180Y30508D01*
X154210Y32049D01*
X154598Y34000D01*
X154210Y35951D01*
X153105Y37605D01*
X151451Y38710D01*
X149500Y39098D01*
D02*
G37*
G36*
X230250Y28895D02*
X227365Y28516D01*
X224677Y27402D01*
X222369Y25631D01*
X220598Y23323D01*
X219484Y20635D01*
X219105Y17750D01*
X219484Y14865D01*
X220598Y12177D01*
X222369Y9869D01*
X224677Y8098D01*
X227365Y6984D01*
X230250Y6605D01*
X233135Y6984D01*
X235823Y8098D01*
X238131Y9869D01*
X239902Y12177D01*
X241016Y14865D01*
X241395Y17750D01*
X241016Y20635D01*
X239902Y23323D01*
X238131Y25631D01*
X235823Y27402D01*
X233135Y28516D01*
X230250Y28895D01*
D02*
G37*
G36*
X18250Y28395D02*
X15365Y28016D01*
X12677Y26902D01*
X10369Y25131D01*
X8598Y22823D01*
X7484Y20135D01*
X7105Y17250D01*
X7484Y14365D01*
X8598Y11677D01*
X10369Y9369D01*
X12677Y7598D01*
X15365Y6484D01*
X18250Y6105D01*
X21135Y6484D01*
X23823Y7598D01*
X26131Y9369D01*
X27902Y11677D01*
X29016Y14365D01*
X29395Y17250D01*
X29016Y20135D01*
X27902Y22823D01*
X26131Y25131D01*
X23823Y26902D01*
X21135Y28016D01*
X18250Y28395D01*
D02*
G37*
G36*
X161500Y19598D02*
X159549Y19210D01*
X157895Y18105D01*
X156790Y16451D01*
X156402Y14500D01*
X156790Y12549D01*
X157895Y10895D01*
X159549Y9790D01*
X161500Y9402D01*
X163451Y9790D01*
X165105Y10895D01*
X166210Y12549D01*
X166598Y14500D01*
X166210Y16451D01*
X165105Y18105D01*
X163451Y19210D01*
X161500Y19598D01*
D02*
G37*
G36*
X183500Y78163D02*
X181581Y77911D01*
X179793Y77170D01*
X178258Y75992D01*
X177080Y74457D01*
X176339Y72669D01*
X176087Y70750D01*
X176339Y68831D01*
X177080Y67043D01*
X178258Y65508D01*
X179793Y64330D01*
X181581Y63589D01*
X183500Y63337D01*
X185419Y63589D01*
X187207Y64330D01*
X188742Y65508D01*
X189920Y67043D01*
X190661Y68831D01*
X190913Y70750D01*
X190661Y72669D01*
X189920Y74457D01*
X188742Y75992D01*
X187207Y77170D01*
X185419Y77911D01*
X183500Y78163D01*
D02*
G37*
G36*
X22500Y71282D02*
X7500D01*
X6735Y70965D01*
X6418Y70200D01*
Y55200D01*
X6735Y54435D01*
X7500Y54118D01*
X22500D01*
X23265Y54435D01*
X23582Y55200D01*
Y70200D01*
X23265Y70965D01*
X22500Y71282D01*
D02*
G37*
G36*
X216500Y60663D02*
X214581Y60411D01*
X212793Y59670D01*
X211258Y58492D01*
X210080Y56957D01*
X209339Y55169D01*
X209087Y53250D01*
X209339Y51331D01*
X210080Y49543D01*
X211258Y48008D01*
X212793Y46830D01*
X214581Y46089D01*
X216500Y45837D01*
X218419Y46089D01*
X220207Y46830D01*
X221742Y48008D01*
X222920Y49543D01*
X223661Y51331D01*
X223913Y53250D01*
X223661Y55169D01*
X222920Y56957D01*
X221742Y58492D01*
X220207Y59670D01*
X218419Y60411D01*
X216500Y60663D01*
D02*
G37*
G36*
X153000Y116598D02*
X151049Y116210D01*
X149395Y115105D01*
X148290Y113451D01*
X147902Y111500D01*
X148290Y109549D01*
X149395Y107895D01*
X151049Y106790D01*
X153000Y106402D01*
X154951Y106790D01*
X156605Y107895D01*
X157710Y109549D01*
X158098Y111500D01*
X157710Y113451D01*
X156605Y115105D01*
X154951Y116210D01*
X153000Y116598D01*
D02*
G37*
G36*
X153889Y158250D02*
X150500D01*
Y154861D01*
X151256Y155011D01*
X152744Y156006D01*
X153739Y157494D01*
X153889Y158250D01*
D02*
G37*
G36*
X148500D02*
X145111D01*
X145261Y157494D01*
X146256Y156006D01*
X147744Y155011D01*
X148500Y154861D01*
Y158250D01*
D02*
G37*
G36*
X142889D02*
X139500D01*
Y154861D01*
X140256Y155011D01*
X141744Y156006D01*
X142739Y157494D01*
X142889Y158250D01*
D02*
G37*
G36*
X52500Y165098D02*
X50549Y164710D01*
X48895Y163605D01*
X47790Y161951D01*
X47402Y160000D01*
X47790Y158049D01*
X48895Y156395D01*
X50549Y155290D01*
X52500Y154902D01*
X54451Y155290D01*
X56105Y156395D01*
X57210Y158049D01*
X57598Y160000D01*
X57210Y161951D01*
X56105Y163605D01*
X54451Y164710D01*
X52500Y165098D01*
D02*
G37*
G36*
X137500Y163639D02*
X136744Y163489D01*
X135256Y162494D01*
X134261Y161006D01*
X134111Y160250D01*
X137500D01*
Y163639D01*
D02*
G37*
G36*
X128500D02*
Y160250D01*
X131889D01*
X131739Y161006D01*
X130744Y162494D01*
X129256Y163489D01*
X128500Y163639D01*
D02*
G37*
G36*
X126500D02*
X125744Y163489D01*
X124256Y162494D01*
X123261Y161006D01*
X123111Y160250D01*
X126500D01*
Y163639D01*
D02*
G37*
G36*
X137500Y158250D02*
X134111D01*
X134261Y157494D01*
X135256Y156006D01*
X136744Y155011D01*
X137500Y154861D01*
Y158250D01*
D02*
G37*
G36*
X204750Y168913D02*
X202831Y168661D01*
X201043Y167920D01*
X199508Y166742D01*
X198330Y165207D01*
X197589Y163419D01*
X197337Y161500D01*
X197589Y159581D01*
X198330Y157793D01*
X199508Y156258D01*
X201043Y155080D01*
X202831Y154339D01*
X204750Y154087D01*
X206669Y154339D01*
X208457Y155080D01*
X209992Y156258D01*
X211170Y157793D01*
X211911Y159581D01*
X212163Y161500D01*
X211911Y163419D01*
X211170Y165207D01*
X209992Y166742D01*
X208457Y167920D01*
X206669Y168661D01*
X204750Y168913D01*
D02*
G37*
G36*
X15000Y147473D02*
X12781Y147181D01*
X10713Y146325D01*
X8938Y144962D01*
X7575Y143187D01*
X6719Y141119D01*
X6427Y138900D01*
X6719Y136681D01*
X7575Y134613D01*
X8938Y132838D01*
X10713Y131475D01*
X12781Y130619D01*
X15000Y130327D01*
X17219Y130619D01*
X19287Y131475D01*
X21062Y132838D01*
X22425Y134613D01*
X23281Y136681D01*
X23573Y138900D01*
X23281Y141119D01*
X22425Y143187D01*
X21062Y144962D01*
X19287Y146325D01*
X17219Y147181D01*
X15000Y147473D01*
D02*
G37*
G36*
X153000Y129848D02*
X151049Y129460D01*
X149395Y128355D01*
X148290Y126701D01*
X147902Y124750D01*
X148290Y122799D01*
X149395Y121145D01*
X151049Y120040D01*
X153000Y119652D01*
X154951Y120040D01*
X156605Y121145D01*
X157710Y122799D01*
X158098Y124750D01*
X157710Y126701D01*
X156605Y128355D01*
X154951Y129460D01*
X153000Y129848D01*
D02*
G37*
G36*
X24450Y163300D02*
X16000D01*
Y154850D01*
X17480Y155044D01*
X19791Y156002D01*
X21775Y157525D01*
X23298Y159509D01*
X24255Y161820D01*
X24450Y163300D01*
D02*
G37*
G36*
X131889Y158250D02*
X128500D01*
Y154861D01*
X129256Y155011D01*
X130744Y156006D01*
X131739Y157494D01*
X131889Y158250D01*
D02*
G37*
G36*
X126500D02*
X123111D01*
X123261Y157494D01*
X124256Y156006D01*
X125744Y155011D01*
X126500Y154861D01*
Y158250D01*
D02*
G37*
G36*
X14000Y163300D02*
X5550D01*
X5745Y161820D01*
X6702Y159509D01*
X8224Y157525D01*
X10209Y156002D01*
X12520Y155044D01*
X14000Y154850D01*
Y163300D01*
D02*
G37*
G36*
X15000Y376073D02*
X12781Y375781D01*
X10713Y374925D01*
X8938Y373562D01*
X7575Y371787D01*
X6719Y369719D01*
X6427Y367500D01*
X6719Y365281D01*
X7575Y363213D01*
X8938Y361438D01*
X10713Y360075D01*
X12781Y359219D01*
X15000Y358927D01*
X17219Y359219D01*
X19287Y360075D01*
X21062Y361438D01*
X22425Y363213D01*
X23281Y365281D01*
X23573Y367500D01*
X23281Y369719D01*
X22425Y371787D01*
X21062Y373562D01*
X19287Y374925D01*
X17219Y375781D01*
X15000Y376073D01*
D02*
G37*
G36*
X215750Y370913D02*
X213831Y370661D01*
X212043Y369920D01*
X210508Y368742D01*
X209330Y367207D01*
X208589Y365419D01*
X208337Y363500D01*
X208589Y361581D01*
X209330Y359793D01*
X210508Y358258D01*
X212043Y357080D01*
X213831Y356339D01*
X215750Y356087D01*
X217669Y356339D01*
X219457Y357080D01*
X220992Y358258D01*
X222170Y359793D01*
X222911Y361581D01*
X223163Y363500D01*
X222911Y365419D01*
X222170Y367207D01*
X220992Y368742D01*
X219457Y369920D01*
X217669Y370661D01*
X215750Y370913D01*
D02*
G37*
G36*
X228137Y359777D02*
X226218Y359524D01*
X224430Y358784D01*
X222894Y357606D01*
X221716Y356070D01*
X220976Y354282D01*
X220723Y352363D01*
X220976Y350445D01*
X221716Y348657D01*
X222894Y347121D01*
X224430Y345943D01*
X226218Y345203D01*
X228137Y344950D01*
X230055Y345203D01*
X231843Y345943D01*
X233379Y347121D01*
X234557Y348657D01*
X235297Y350445D01*
X235550Y352363D01*
X235297Y354282D01*
X234557Y356070D01*
X233379Y357606D01*
X231843Y358784D01*
X230055Y359524D01*
X228137Y359777D01*
D02*
G37*
G36*
X15000Y401473D02*
X12781Y401181D01*
X10713Y400325D01*
X8938Y398962D01*
X7575Y397187D01*
X6719Y395119D01*
X6427Y392900D01*
X6719Y390681D01*
X7575Y388613D01*
X8938Y386838D01*
X10713Y385475D01*
X12781Y384619D01*
X15000Y384327D01*
X17219Y384619D01*
X19287Y385475D01*
X21062Y386838D01*
X22425Y388613D01*
X23281Y390681D01*
X23573Y392900D01*
X23281Y395119D01*
X22425Y397187D01*
X21062Y398962D01*
X19287Y400325D01*
X17219Y401181D01*
X15000Y401473D01*
D02*
G37*
G36*
X124419Y449250D02*
X119500D01*
Y444331D01*
X120841Y444598D01*
X122826Y445924D01*
X124152Y447909D01*
X124419Y449250D01*
D02*
G37*
G36*
X117500D02*
X112581D01*
X112848Y447909D01*
X114174Y445924D01*
X116159Y444598D01*
X117500Y444331D01*
Y449250D01*
D02*
G37*
G36*
X15000Y426873D02*
X12781Y426581D01*
X10713Y425725D01*
X8938Y424362D01*
X7575Y422587D01*
X6719Y420519D01*
X6427Y418300D01*
X6719Y416081D01*
X7575Y414013D01*
X8938Y412238D01*
X10713Y410875D01*
X12781Y410019D01*
X15000Y409727D01*
X17219Y410019D01*
X19287Y410875D01*
X21062Y412238D01*
X22425Y414013D01*
X23281Y416081D01*
X23573Y418300D01*
X23281Y420519D01*
X22425Y422587D01*
X21062Y424362D01*
X19287Y425725D01*
X17219Y426581D01*
X15000Y426873D01*
D02*
G37*
G36*
Y350673D02*
X12781Y350381D01*
X10713Y349525D01*
X8938Y348162D01*
X7575Y346387D01*
X6719Y344319D01*
X6427Y342100D01*
X6719Y339881D01*
X7575Y337813D01*
X8938Y336038D01*
X10713Y334675D01*
X12781Y333819D01*
X15000Y333527D01*
X17219Y333819D01*
X19287Y334675D01*
X21062Y336038D01*
X22425Y337813D01*
X23281Y339881D01*
X23573Y342100D01*
X23281Y344319D01*
X22425Y346387D01*
X21062Y348162D01*
X19287Y349525D01*
X17219Y350381D01*
X15000Y350673D01*
D02*
G37*
G36*
X117250Y325419D02*
X115909Y325152D01*
X113924Y323826D01*
X112598Y321841D01*
X112331Y320500D01*
X117250D01*
Y325419D01*
D02*
G37*
G36*
X97750D02*
Y320500D01*
X102669D01*
X102402Y321841D01*
X101076Y323826D01*
X99091Y325152D01*
X97750Y325419D01*
D02*
G37*
G36*
X95750D02*
X94409Y325152D01*
X92424Y323826D01*
X91098Y321841D01*
X90831Y320500D01*
X95750D01*
Y325419D01*
D02*
G37*
G36*
X119250D02*
Y320500D01*
X124169D01*
X123902Y321841D01*
X122576Y323826D01*
X120591Y325152D01*
X119250Y325419D01*
D02*
G37*
G36*
X216250Y348913D02*
X214331Y348661D01*
X212543Y347920D01*
X211008Y346742D01*
X209830Y345207D01*
X209089Y343419D01*
X208837Y341500D01*
X209089Y339581D01*
X209666Y338189D01*
X208863Y337387D01*
X208362Y336636D01*
X208186Y335750D01*
Y254959D01*
X190291Y237064D01*
X107750D01*
X106864Y236888D01*
X106113Y236387D01*
X94363Y224637D01*
X93862Y223886D01*
X93686Y223000D01*
Y191247D01*
X92293Y190670D01*
X90758Y189492D01*
X89580Y187957D01*
X88839Y186169D01*
X88587Y184250D01*
X88839Y182331D01*
X89580Y180543D01*
X90758Y179008D01*
X92293Y177830D01*
X94081Y177089D01*
X96000Y176837D01*
X97919Y177089D01*
X99707Y177830D01*
X101242Y179008D01*
X102420Y180543D01*
X103161Y182331D01*
X103413Y184250D01*
X103161Y186169D01*
X102420Y187957D01*
X101242Y189492D01*
X99707Y190670D01*
X98315Y191247D01*
Y222041D01*
X108709Y232435D01*
X191250D01*
X192136Y232612D01*
X192887Y233113D01*
X212137Y252363D01*
X212638Y253114D01*
X212815Y254000D01*
Y333593D01*
X214084Y334441D01*
X214331Y334339D01*
X216250Y334087D01*
X218169Y334339D01*
X219957Y335080D01*
X221315Y336122D01*
X222221Y335216D01*
X221830Y334707D01*
X221089Y332919D01*
X220837Y331000D01*
X221089Y329081D01*
X221830Y327293D01*
X223008Y325758D01*
X224543Y324580D01*
X226331Y323839D01*
X228250Y323587D01*
X230169Y323839D01*
X231957Y324580D01*
X233492Y325758D01*
X234670Y327293D01*
X235411Y329081D01*
X235663Y331000D01*
X235411Y332919D01*
X234670Y334707D01*
X233492Y336242D01*
X231957Y337420D01*
X230169Y338161D01*
X228250Y338413D01*
X226331Y338161D01*
X224543Y337420D01*
X223185Y336378D01*
X222279Y337284D01*
X222670Y337793D01*
X223411Y339581D01*
X223663Y341500D01*
X223411Y343419D01*
X222670Y345207D01*
X221492Y346742D01*
X219957Y347920D01*
X218169Y348661D01*
X216250Y348913D01*
D02*
G37*
G36*
X161500Y325669D02*
Y320750D01*
X166419D01*
X166152Y322091D01*
X164826Y324076D01*
X162841Y325402D01*
X161500Y325669D01*
D02*
G37*
G36*
X159500D02*
X158159Y325402D01*
X156174Y324076D01*
X154848Y322091D01*
X154581Y320750D01*
X159500D01*
Y325669D01*
D02*
G37*
G36*
X96000Y449500D02*
X91081D01*
X91348Y448159D01*
X92674Y446174D01*
X94659Y444848D01*
X96000Y444581D01*
Y449500D01*
D02*
G37*
G36*
X140500Y456419D02*
Y451500D01*
X145419D01*
X145152Y452841D01*
X143826Y454826D01*
X141841Y456152D01*
X140500Y456419D01*
D02*
G37*
G36*
X138500D02*
X137159Y456152D01*
X135174Y454826D01*
X133848Y452841D01*
X133581Y451500D01*
X138500D01*
Y456419D01*
D02*
G37*
G36*
X98000D02*
Y451500D01*
X102919D01*
X102652Y452841D01*
X101326Y454826D01*
X99341Y456152D01*
X98000Y456419D01*
D02*
G37*
G36*
X159250Y457169D02*
X157909Y456902D01*
X155924Y455576D01*
X154598Y453591D01*
X154331Y452250D01*
X159250D01*
Y457169D01*
D02*
G37*
G36*
X230250Y613895D02*
X227365Y613516D01*
X224677Y612402D01*
X222369Y610631D01*
X220598Y608323D01*
X219484Y605635D01*
X219105Y602750D01*
X219484Y599865D01*
X220598Y597177D01*
X222369Y594869D01*
X224677Y593098D01*
X227365Y591984D01*
X230250Y591605D01*
X233135Y591984D01*
X235823Y593098D01*
X238131Y594869D01*
X239902Y597177D01*
X241016Y599865D01*
X241395Y602750D01*
X241016Y605635D01*
X239902Y608323D01*
X238131Y610631D01*
X235823Y612402D01*
X233135Y613516D01*
X230250Y613895D01*
D02*
G37*
G36*
X212500Y500598D02*
X210549Y500210D01*
X208895Y499105D01*
X207790Y497451D01*
X207402Y495500D01*
X207790Y493549D01*
X208895Y491895D01*
X210549Y490790D01*
X210638Y490772D01*
Y489478D01*
X210549Y489460D01*
X208895Y488355D01*
X207790Y486701D01*
X207402Y484750D01*
X207790Y482799D01*
X208895Y481145D01*
X210549Y480040D01*
X211391Y479873D01*
Y478578D01*
X210799Y478460D01*
X209145Y477355D01*
X208040Y475701D01*
X207652Y473750D01*
X208040Y471799D01*
X209145Y470145D01*
X210799Y469040D01*
X212750Y468652D01*
X214701Y469040D01*
X216355Y470145D01*
X217460Y471799D01*
X217848Y473750D01*
X217460Y475701D01*
X216355Y477355D01*
X214701Y478460D01*
X213859Y478627D01*
Y479922D01*
X214451Y480040D01*
X216105Y481145D01*
X217210Y482799D01*
X217598Y484750D01*
X217210Y486701D01*
X216105Y488355D01*
X214451Y489460D01*
X214362Y489478D01*
Y490772D01*
X214451Y490790D01*
X216105Y491895D01*
X217210Y493549D01*
X217598Y495500D01*
X217210Y497451D01*
X216105Y499105D01*
X214451Y500210D01*
X212500Y500598D01*
D02*
G37*
G36*
X161250Y457169D02*
Y452250D01*
X166169D01*
X165902Y453591D01*
X164576Y455576D01*
X162591Y456902D01*
X161250Y457169D01*
D02*
G37*
G36*
X96000Y456419D02*
X94659Y456152D01*
X92674Y454826D01*
X91348Y452841D01*
X91081Y451500D01*
X96000D01*
Y456419D01*
D02*
G37*
G36*
X145419Y449500D02*
X140500D01*
Y444581D01*
X141841Y444848D01*
X143826Y446174D01*
X145152Y448159D01*
X145419Y449500D01*
D02*
G37*
G36*
X138500D02*
X133581D01*
X133848Y448159D01*
X135174Y446174D01*
X137159Y444848D01*
X138500Y444581D01*
Y449500D01*
D02*
G37*
G36*
X102919D02*
X98000D01*
Y444581D01*
X99341Y444848D01*
X101326Y446174D01*
X102652Y448159D01*
X102919Y449500D01*
D02*
G37*
G36*
X159250Y450250D02*
X154331D01*
X154598Y448909D01*
X155924Y446924D01*
X157909Y445598D01*
X159250Y445331D01*
Y450250D01*
D02*
G37*
G36*
X119500Y456169D02*
Y451250D01*
X124419D01*
X124152Y452591D01*
X122826Y454576D01*
X120841Y455902D01*
X119500Y456169D01*
D02*
G37*
G36*
X117500D02*
X116159Y455902D01*
X114174Y454576D01*
X112848Y452591D01*
X112581Y451250D01*
X117500D01*
Y456169D01*
D02*
G37*
G36*
X166169Y450250D02*
X161250D01*
Y445331D01*
X162591Y445598D01*
X164576Y446924D01*
X165902Y448909D01*
X166169Y450250D01*
D02*
G37*
G36*
X140000Y325169D02*
Y320250D01*
X144919D01*
X144652Y321591D01*
X143326Y323576D01*
X141341Y324902D01*
X140000Y325169D01*
D02*
G37*
G36*
X126500Y196639D02*
X125744Y196489D01*
X124256Y195494D01*
X123261Y194006D01*
X123111Y193250D01*
X126500D01*
Y196639D01*
D02*
G37*
G36*
X16000Y199150D02*
Y190700D01*
X24450D01*
X24255Y192180D01*
X23298Y194491D01*
X21775Y196476D01*
X19791Y197998D01*
X17480Y198955D01*
X16000Y199150D01*
D02*
G37*
G36*
X14000D02*
X12520Y198955D01*
X10209Y197998D01*
X8224Y196476D01*
X6702Y194491D01*
X5745Y192180D01*
X5550Y190700D01*
X14000D01*
Y199150D01*
D02*
G37*
G36*
X128500Y196639D02*
Y193250D01*
X131889D01*
X131739Y194006D01*
X130744Y195494D01*
X129256Y196489D01*
X128500Y196639D01*
D02*
G37*
G36*
X148500D02*
X147744Y196489D01*
X146256Y195494D01*
X145261Y194006D01*
X145111Y193250D01*
X148500D01*
Y196639D01*
D02*
G37*
G36*
X139500D02*
Y193250D01*
X142889D01*
X142739Y194006D01*
X141744Y195494D01*
X140256Y196489D01*
X139500Y196639D01*
D02*
G37*
G36*
X137500D02*
X136744Y196489D01*
X135256Y195494D01*
X134261Y194006D01*
X134111Y193250D01*
X137500D01*
Y196639D01*
D02*
G37*
G36*
X153889Y191250D02*
X150500D01*
Y187861D01*
X151256Y188011D01*
X152744Y189006D01*
X153739Y190494D01*
X153889Y191250D01*
D02*
G37*
G36*
X126500D02*
X123111D01*
X123261Y190494D01*
X124256Y189006D01*
X125744Y188011D01*
X126500Y187861D01*
Y191250D01*
D02*
G37*
G36*
X202500Y202413D02*
X200581Y202161D01*
X198793Y201420D01*
X197258Y200242D01*
X196080Y198707D01*
X195339Y196919D01*
X195087Y195000D01*
X195339Y193081D01*
X196080Y191293D01*
X197258Y189758D01*
X198793Y188580D01*
X200581Y187839D01*
X202500Y187587D01*
X204419Y187839D01*
X206207Y188580D01*
X207742Y189758D01*
X208920Y191293D01*
X209661Y193081D01*
X209913Y195000D01*
X209661Y196919D01*
X208920Y198707D01*
X207742Y200242D01*
X206207Y201420D01*
X204419Y202161D01*
X202500Y202413D01*
D02*
G37*
G36*
X150500Y185639D02*
Y182250D01*
X153889D01*
X153739Y183006D01*
X152744Y184494D01*
X151256Y185489D01*
X150500Y185639D01*
D02*
G37*
G36*
X131889Y191250D02*
X128500D01*
Y187861D01*
X129256Y188011D01*
X130744Y189006D01*
X131739Y190494D01*
X131889Y191250D01*
D02*
G37*
G36*
X148500D02*
X145111D01*
X145261Y190494D01*
X146256Y189006D01*
X147744Y188011D01*
X148500Y187861D01*
Y191250D01*
D02*
G37*
G36*
X142889D02*
X139500D01*
Y187861D01*
X140256Y188011D01*
X141744Y189006D01*
X142739Y190494D01*
X142889Y191250D01*
D02*
G37*
G36*
X137500D02*
X134111D01*
X134261Y190494D01*
X135256Y189006D01*
X136744Y188011D01*
X137500Y187861D01*
Y191250D01*
D02*
G37*
G36*
X150500Y196639D02*
Y193250D01*
X153889D01*
X153739Y194006D01*
X152744Y195494D01*
X151256Y196489D01*
X150500Y196639D01*
D02*
G37*
G36*
X117250Y318500D02*
X112331D01*
X112598Y317159D01*
X113924Y315174D01*
X115909Y313848D01*
X117250Y313581D01*
Y318500D01*
D02*
G37*
G36*
X102669D02*
X97750D01*
Y313581D01*
X99091Y313848D01*
X101076Y315174D01*
X102402Y317159D01*
X102669Y318500D01*
D02*
G37*
G36*
X95750D02*
X90831D01*
X91098Y317159D01*
X92424Y315174D01*
X94409Y313848D01*
X95750Y313581D01*
Y318500D01*
D02*
G37*
G36*
X124169D02*
X119250D01*
Y313581D01*
X120591Y313848D01*
X122576Y315174D01*
X123902Y317159D01*
X124169Y318500D01*
D02*
G37*
G36*
X138000Y325169D02*
X136659Y324902D01*
X134674Y323576D01*
X133348Y321591D01*
X133081Y320250D01*
X138000D01*
Y325169D01*
D02*
G37*
G36*
X166419Y318750D02*
X161500D01*
Y313831D01*
X162841Y314098D01*
X164826Y315424D01*
X166152Y317409D01*
X166419Y318750D01*
D02*
G37*
G36*
X159500D02*
X154581D01*
X154848Y317409D01*
X156174Y315424D01*
X158159Y314098D01*
X159500Y313831D01*
Y318750D01*
D02*
G37*
G36*
X144919Y318250D02*
X140000D01*
Y313331D01*
X141341Y313598D01*
X143326Y314924D01*
X144652Y316909D01*
X144919Y318250D01*
D02*
G37*
G36*
X15000Y274473D02*
X12781Y274181D01*
X10713Y273325D01*
X8938Y271962D01*
X7575Y270187D01*
X6719Y268119D01*
X6427Y265900D01*
X6719Y263681D01*
X7575Y261613D01*
X8938Y259838D01*
X10713Y258475D01*
X12781Y257619D01*
X15000Y257327D01*
X17219Y257619D01*
X19287Y258475D01*
X21062Y259838D01*
X22425Y261613D01*
X23281Y263681D01*
X23573Y265900D01*
X23281Y268119D01*
X22425Y270187D01*
X21062Y271962D01*
X19287Y273325D01*
X17219Y274181D01*
X15000Y274473D01*
D02*
G37*
G36*
Y249073D02*
X12781Y248781D01*
X10713Y247925D01*
X8938Y246562D01*
X7575Y244787D01*
X6719Y242719D01*
X6427Y240500D01*
X6719Y238281D01*
X7575Y236213D01*
X8938Y234438D01*
X10713Y233075D01*
X12781Y232219D01*
X15000Y231927D01*
X17219Y232219D01*
X19287Y233075D01*
X21062Y234438D01*
X22425Y236213D01*
X23281Y238281D01*
X23573Y240500D01*
X23281Y242719D01*
X22425Y244787D01*
X21062Y246562D01*
X19287Y247925D01*
X17219Y248781D01*
X15000Y249073D01*
D02*
G37*
G36*
Y223673D02*
X12781Y223381D01*
X10713Y222525D01*
X8938Y221162D01*
X7575Y219387D01*
X6719Y217319D01*
X6427Y215100D01*
X6719Y212881D01*
X7575Y210813D01*
X8938Y209038D01*
X10713Y207675D01*
X12781Y206819D01*
X15000Y206527D01*
X17219Y206819D01*
X19287Y207675D01*
X21062Y209038D01*
X22425Y210813D01*
X23281Y212881D01*
X23573Y215100D01*
X23281Y217319D01*
X22425Y219387D01*
X21062Y221162D01*
X19287Y222525D01*
X17219Y223381D01*
X15000Y223673D01*
D02*
G37*
G36*
Y299873D02*
X12781Y299581D01*
X10713Y298725D01*
X8938Y297362D01*
X7575Y295587D01*
X6719Y293519D01*
X6427Y291300D01*
X6719Y289081D01*
X7575Y287013D01*
X8938Y285238D01*
X10713Y283875D01*
X12781Y283019D01*
X15000Y282727D01*
X17219Y283019D01*
X19287Y283875D01*
X21062Y285238D01*
X22425Y287013D01*
X23281Y289081D01*
X23573Y291300D01*
X23281Y293519D01*
X22425Y295587D01*
X21062Y297362D01*
X19287Y298725D01*
X17219Y299581D01*
X15000Y299873D01*
D02*
G37*
G36*
X138000Y318250D02*
X133081D01*
X133348Y316909D01*
X134674Y314924D01*
X136659Y313598D01*
X138000Y313331D01*
Y318250D01*
D02*
G37*
G36*
X15000Y325273D02*
X12781Y324981D01*
X10713Y324125D01*
X8938Y322762D01*
X7575Y320987D01*
X6719Y318919D01*
X6427Y316700D01*
X6719Y314481D01*
X7575Y312413D01*
X8938Y310638D01*
X10713Y309275D01*
X12781Y308419D01*
X15000Y308127D01*
X17219Y308419D01*
X19287Y309275D01*
X21062Y310638D01*
X22425Y312413D01*
X23281Y314481D01*
X23573Y316700D01*
X23281Y318919D01*
X22425Y320987D01*
X21062Y322762D01*
X19287Y324125D01*
X17219Y324981D01*
X15000Y325273D01*
D02*
G37*
G36*
X36500Y444163D02*
X34581Y443911D01*
X32793Y443170D01*
X31258Y441992D01*
X30080Y440457D01*
X29339Y438669D01*
X29087Y436750D01*
X29339Y434831D01*
X30080Y433043D01*
X31258Y431508D01*
X32793Y430330D01*
X34186Y429753D01*
Y351814D01*
X34362Y350929D01*
X34863Y350178D01*
X39936Y345106D01*
Y343750D01*
X40112Y342864D01*
X40613Y342113D01*
X41686Y341041D01*
Y302244D01*
X40416Y301565D01*
X39451Y302210D01*
X37500Y302598D01*
X35549Y302210D01*
X33895Y301105D01*
X32790Y299451D01*
X32402Y297500D01*
X32790Y295549D01*
X33895Y293895D01*
X35549Y292790D01*
X37500Y292402D01*
X39451Y292790D01*
X40416Y293435D01*
X41686Y292756D01*
Y285459D01*
X35113Y278887D01*
X34612Y278136D01*
X34436Y277250D01*
Y212747D01*
X33043Y212170D01*
X31508Y210992D01*
X30330Y209457D01*
X29589Y207669D01*
X29337Y205750D01*
X29589Y203831D01*
X30330Y202043D01*
X31508Y200508D01*
X33043Y199330D01*
X34831Y198589D01*
X36750Y198337D01*
X38669Y198589D01*
X40457Y199330D01*
X41992Y200508D01*
X43170Y202043D01*
X43911Y203831D01*
X44163Y205750D01*
X43911Y207669D01*
X43170Y209457D01*
X41992Y210992D01*
X40457Y212170D01*
X39065Y212747D01*
Y276291D01*
X45637Y282863D01*
X46138Y283614D01*
X46315Y284500D01*
Y342000D01*
X46138Y342886D01*
X45637Y343637D01*
X44564Y344709D01*
Y346064D01*
X44388Y346950D01*
X43887Y347701D01*
X38814Y352773D01*
Y429753D01*
X40207Y430330D01*
X41742Y431508D01*
X42920Y433043D01*
X43661Y434831D01*
X43913Y436750D01*
X43661Y438669D01*
X42920Y440457D01*
X41742Y441992D01*
X40207Y443170D01*
X38419Y443911D01*
X36500Y444163D01*
D02*
G37*
%LPD*%
D10*
X230250Y602750D02*
D03*
Y17750D02*
D03*
X18250Y17250D02*
D03*
D31*
X42250Y343750D02*
X44000Y342000D01*
X42250Y343750D02*
Y346064D01*
X36500Y351814D02*
X42250Y346064D01*
X36500Y351814D02*
Y436750D01*
X44000Y284500D02*
Y342000D01*
X36750Y277250D02*
X44000Y284500D01*
X36750Y205750D02*
Y277250D01*
X210500Y335750D02*
X216250Y341500D01*
X210500Y254000D02*
Y335750D01*
X191250Y234750D02*
X210500Y254000D01*
X107750Y234750D02*
X191250D01*
X96000Y223000D02*
X107750Y234750D01*
X96000Y184250D02*
Y223000D01*
D33*
X15000Y240500D02*
D03*
Y418300D02*
D03*
Y164300D02*
D03*
Y367500D02*
D03*
Y113500D02*
D03*
Y342100D02*
D03*
Y88100D02*
D03*
Y316700D02*
D03*
Y138900D02*
D03*
Y392900D02*
D03*
Y189700D02*
D03*
Y215100D02*
D03*
Y265900D02*
D03*
Y291300D02*
D03*
D34*
Y62700D02*
D03*
D35*
X160500Y319750D02*
D03*
X139000Y319250D02*
D03*
X118250Y319500D02*
D03*
X96750D02*
D03*
X160250Y451250D02*
D03*
X139500Y450500D02*
D03*
X118500Y450250D02*
D03*
X97000Y450500D02*
D03*
X152500Y24250D02*
D03*
X149500Y34000D02*
D03*
X161500Y14500D02*
D03*
X149750D02*
D03*
X212750Y473750D02*
D03*
X212500Y484750D02*
D03*
Y495500D02*
D03*
X152000Y87500D02*
D03*
X152750Y99500D02*
D03*
X153000Y111500D02*
D03*
Y124750D02*
D03*
X37500Y297500D02*
D03*
X52500Y160000D02*
D03*
D36*
X36750Y205750D02*
D03*
X36500Y436750D02*
D03*
X207750Y87500D02*
D03*
X216500Y53250D02*
D03*
X183500Y70750D02*
D03*
X204750Y161500D02*
D03*
X229750Y181750D02*
D03*
X228250Y331000D02*
D03*
X202500Y195000D02*
D03*
X96000Y184250D02*
D03*
X216250Y341500D02*
D03*
X228137Y352363D02*
D03*
X215750Y363500D02*
D03*
D37*
X149500Y192250D02*
D03*
Y181250D02*
D03*
Y170250D02*
D03*
Y159250D02*
D03*
X138500Y192250D02*
D03*
Y181250D02*
D03*
Y170250D02*
D03*
Y159250D02*
D03*
X127500Y192250D02*
D03*
Y181250D02*
D03*
Y170250D02*
D03*
Y159250D02*
D03*
M02*
