G04 Layer_Color=32768*
%FSLAX44Y44*%
%MOMM*%
G71*
G01*
G75*
%ADD39C,0.1000*%
%ADD42C,0.0500*%
D39*
X85240Y544777D02*
X85441Y544799D01*
X86322Y544899D01*
X86838Y544964D01*
X86860Y544970D01*
X86879Y544975D01*
X87310Y545314D01*
X88023Y545933D01*
X88186Y546079D01*
X88449Y546321D01*
X89062Y547240D01*
X89564Y548778D01*
X89692Y550715D01*
X89545Y552486D02*
X89692Y550715D01*
X89450Y553067D02*
X89545Y552486D01*
X89396Y553398D02*
X89450Y553067D01*
X89171Y554377D02*
X89396Y553398D01*
X88748Y555649D02*
X89171Y554377D01*
X88113Y557057D02*
X88748Y555649D01*
X87437Y558346D02*
X88113Y557057D01*
X87204Y558766D02*
X87437Y558346D01*
X86805Y559480D02*
X87204Y558766D01*
X85471Y561541D02*
X86805Y559480D01*
X83520Y564013D02*
X85471Y561541D01*
X81288Y566253D02*
X83520Y564013D01*
X79381Y567848D02*
X81288Y566253D01*
X78716Y568334D02*
X79381Y567848D01*
X78355Y568597D02*
X78716Y568334D01*
X77292Y569408D02*
X78355Y568597D01*
X76516Y570113D02*
X77292Y569408D01*
X76234Y570621D02*
X76516Y570113D01*
X76234Y570621D02*
X76258Y570993D01*
X76299Y571104D01*
X76343Y571234D01*
X76625Y571576D01*
X77485Y572023D01*
X79248Y572590D01*
X81532Y573219D01*
X82294Y573420D01*
X82896Y573580D01*
X84695Y574093D01*
X87009Y574804D01*
X88973Y575463D01*
X90004Y575845D01*
X90321Y575989D01*
X90622Y576128D01*
X91517Y576572D01*
X92271Y577058D01*
X92713Y577557D01*
X92933Y578024D01*
X92985Y578184D01*
X93085Y578509D01*
X92993Y579974D02*
X93085Y578509D01*
X92179Y581029D02*
X92993Y579974D01*
X91919Y581149D02*
X92179Y581029D01*
X91487Y581347D02*
X91919Y581149D01*
X89580Y582006D02*
X91487Y581347D01*
X87695Y582299D02*
X89580Y582006D01*
X87277Y582315D02*
X87695Y582299D01*
X87006Y582326D02*
X87277Y582315D01*
X86192Y582277D02*
X87006Y582326D01*
X85029Y582003D02*
X86192Y582277D01*
X83461Y581390D02*
X85029Y582003D01*
X81741Y580601D02*
X83461Y581390D01*
X81174Y580330D02*
X81741Y580601D01*
X80761Y580134D02*
X81174Y580330D01*
X79530Y579529D02*
X80761Y580134D01*
X78236Y578840D02*
X79530Y579529D01*
X77230Y578195D02*
X78236Y578840D01*
X76443Y577538D02*
X77230Y578195D01*
X75814Y576800D02*
X76443Y577538D01*
X75276Y575921D02*
X75814Y576800D01*
X74772Y574842D02*
X75276Y575921D01*
X74365Y573830D02*
X74772Y574842D01*
X74235Y573491D02*
X74365Y573830D01*
X74105Y573154D02*
X74235Y573491D01*
X73443Y571763D02*
X74105Y573154D01*
X72914Y571039D02*
X73443Y571763D01*
X72854Y571036D02*
X72914Y571039D01*
X71986Y571017D02*
X72854Y571036D01*
X69382Y570922D02*
X71986Y571017D01*
X67060Y570602D02*
X69382Y570922D01*
X64816Y569815D02*
X67060Y570602D01*
X62391Y568689D02*
X64816Y569815D01*
X61588Y568304D02*
X62391Y568689D01*
X60878Y567965D02*
X61588Y568304D01*
X58759Y566918D02*
X60878Y567965D01*
X57001Y565936D02*
X58759Y566918D01*
X55875Y565084D02*
X57001Y565936D01*
X55165Y564346D02*
X55875Y565084D01*
X54948Y564086D02*
X55165Y564346D01*
X54747Y563850D02*
X54948Y564086D01*
X53811Y562510D02*
X54747Y563850D01*
X53165Y561308D02*
X53811Y562510D01*
X53114Y561137D02*
X53165Y561308D01*
X53022Y560844D02*
X53114Y561137D01*
X53000Y559881D02*
X53022Y560844D01*
X53000Y559881D02*
X53277Y558411D01*
X53868Y556995D01*
X54446Y556121D01*
X54695Y555888D01*
X54837Y555755D01*
X55791Y555343D01*
X57145Y555253D01*
X57487Y555281D01*
X57763Y555305D01*
X58599Y555408D01*
X59367Y555631D01*
X60037Y556062D01*
X60655Y556626D01*
X60856Y556819D01*
X61048Y557009D01*
X61656Y557654D01*
X62804Y558907D01*
X64141Y560410D01*
X65180Y561598D01*
X65522Y561995D01*
X66078Y562645D01*
X67828Y564525D01*
X69773Y566324D01*
X71324Y567368D01*
X72187Y567672D01*
X72455Y567631D01*
X72542Y567621D01*
X72797Y567477D01*
X73022Y567043D01*
X73163Y566194D01*
X73242Y565149D01*
X73261Y564799D01*
X73318Y563660D01*
X73790Y560250D01*
X74872Y555953D01*
X76440Y552107D01*
X77862Y549641D01*
X78437Y548898D01*
X78605Y548681D01*
X79907Y547381D01*
X81437Y546150D01*
X81719Y545963D01*
X82091Y545721D01*
X83637Y544964D01*
X84972Y544750D01*
X85240Y544777D01*
X199000Y36000D02*
X216500D01*
X199000Y43500D02*
X216500D01*
Y36000D02*
Y43500D01*
X199000Y36000D02*
Y43500D01*
X205000Y39750D02*
X210500D01*
X207750Y37000D02*
Y42500D01*
X186000Y199750D02*
X191500D01*
X188750Y197000D02*
Y202500D01*
X185250Y208750D02*
X192250D01*
X185250Y190750D02*
X192250D01*
Y208750D01*
X185250Y190750D02*
Y208750D01*
X138500Y170750D02*
Y180750D01*
X133500Y175750D02*
X143500D01*
X93250Y164500D02*
X98750D01*
X96000Y161750D02*
Y167250D01*
X92500Y155500D02*
X99500D01*
X92500Y173500D02*
X99500D01*
X92500Y155500D02*
Y173500D01*
X99500Y155500D02*
Y173500D01*
X182240Y95150D02*
X182240Y85150D01*
X158740D02*
Y95150D01*
Y85150D02*
X182240D01*
X158740Y95150D02*
X182240D01*
X170490Y85650D02*
Y94650D01*
X165990Y90150D02*
X174990D01*
X170490Y101370D02*
Y106870D01*
X167740Y104120D02*
X173240D01*
X179490Y100620D02*
Y107620D01*
X161490Y100620D02*
Y107620D01*
Y100620D02*
X179490D01*
X161490Y107620D02*
X179490D01*
X170490Y111530D02*
Y117030D01*
X167740Y114280D02*
X173240D01*
X179490Y110780D02*
X179490Y117780D01*
X161490Y110780D02*
Y117780D01*
Y110780D02*
X179490D01*
X161490Y117780D02*
X179490D01*
X170250Y121250D02*
Y126750D01*
X167500Y124000D02*
X173000D01*
X161250Y120500D02*
Y127500D01*
X179250Y120500D02*
Y127500D01*
X161250D02*
X179250D01*
X161250Y120500D02*
X179250D01*
X155330Y59670D02*
X165330Y59670D01*
X160330Y54670D02*
Y64670D01*
X119770Y59670D02*
X129770D01*
X124770Y54670D02*
Y64670D01*
X202750Y58250D02*
Y68250D01*
X197750Y63250D02*
X207750D01*
X170490Y26440D02*
Y31940D01*
X167740Y29190D02*
X173240D01*
X179490Y25690D02*
Y32690D01*
X161490Y25690D02*
Y32690D01*
Y25690D02*
X179490D01*
X161490Y32690D02*
X179490D01*
X29750Y449000D02*
Y466500D01*
X37250Y449000D02*
Y466500D01*
X29750Y449000D02*
X37250D01*
X29750Y466500D02*
X37250D01*
X33500Y455000D02*
Y460500D01*
X30750Y457750D02*
X36250D01*
X49000Y141500D02*
X66500D01*
X49000Y149000D02*
X66500D01*
Y141500D02*
Y149000D01*
X49000Y141500D02*
Y149000D01*
X55000Y145250D02*
X60500D01*
X57750Y142500D02*
Y148000D01*
X177000Y199750D02*
X182500D01*
X179750Y197000D02*
Y202500D01*
X176250Y208750D02*
X183250D01*
X176250Y190750D02*
X183250D01*
Y208750D01*
X176250Y190750D02*
Y208750D01*
X177000Y177000D02*
X182500D01*
X179750Y174250D02*
Y179750D01*
X176250Y168000D02*
X183250D01*
X176250Y186000D02*
X183250D01*
X176250Y168000D02*
Y186000D01*
X183250Y168000D02*
Y186000D01*
X186500Y157250D02*
X192000D01*
X189250Y154500D02*
Y160000D01*
X185750Y148250D02*
X192750D01*
X185750Y166250D02*
X192750D01*
X185750Y148250D02*
Y166250D01*
X192750Y148250D02*
Y166250D01*
X147750Y567750D02*
Y574750D01*
X165750Y567750D02*
Y574750D01*
X147750D02*
X165750D01*
X147750Y567750D02*
X165750D01*
X154000Y571250D02*
X159500D01*
X156750Y568500D02*
Y574000D01*
X138000Y557500D02*
Y575000D01*
X145500Y557500D02*
Y575000D01*
X138000Y557500D02*
X145500D01*
X138000Y575000D02*
X145500D01*
X141750Y563500D02*
Y569000D01*
X139000Y566250D02*
X144500D01*
X128750D02*
X134250D01*
X131500Y563500D02*
Y569000D01*
X128000Y575250D02*
X135000D01*
X128000Y557250D02*
X135000D01*
Y575250D01*
X128000Y557250D02*
Y575250D01*
X99250Y518250D02*
Y535750D01*
X91750Y518250D02*
Y535750D01*
X99250D01*
X91750Y518250D02*
X99250D01*
X95500Y524250D02*
Y529750D01*
X92750Y527000D02*
X98250D01*
X158750Y555500D02*
X164250D01*
X161500Y552750D02*
Y558250D01*
X158000Y546500D02*
X165000D01*
X158000Y564500D02*
X165000D01*
X158000Y546500D02*
Y564500D01*
X165000Y546500D02*
Y564500D01*
X175250Y537500D02*
Y544500D01*
X157250Y537500D02*
Y544500D01*
Y537500D02*
X175250D01*
X157250Y544500D02*
X175250D01*
X163500Y541000D02*
X169000D01*
X166250Y538250D02*
Y543750D01*
X165310Y517740D02*
Y535240D01*
X157810Y517740D02*
Y535240D01*
X165310D01*
X157810Y517740D02*
X165310D01*
X161560Y523740D02*
Y529240D01*
X158810Y526490D02*
X164310D01*
X123540Y385520D02*
X133540D01*
X128540Y380520D02*
Y390520D01*
X48540Y255520D02*
Y515520D01*
Y255520D02*
X208540D01*
Y515520D01*
X48540D02*
X208540D01*
D42*
X102750Y206500D02*
X174250D01*
X102750Y145000D02*
X174250D01*
Y206500D01*
X102750Y145000D02*
Y206500D01*
X142080Y41420D02*
Y77920D01*
X178580Y41420D02*
Y77920D01*
X142080D02*
X178580D01*
X142080Y41420D02*
X178580D01*
X136770Y42670D02*
Y76670D01*
X112770Y42670D02*
Y76670D01*
X136770D01*
X112770Y42670D02*
X136770D01*
X191750Y78250D02*
X213750D01*
X191750Y48250D02*
X213750D01*
Y78250D01*
X191750Y48250D02*
Y78250D01*
M02*
