G04 Layer_Color=16711935*
%FSLAX44Y44*%
%MOMM*%
G71*
G01*
G75*
%ADD39C,0.1000*%
%ADD40C,0.2000*%
D39*
X122000Y193250D02*
G03*
X122000Y193250I-5000J0D01*
G01*
X159330Y65670D02*
G03*
X159330Y65670I-5000J0D01*
G01*
X202500Y37000D02*
Y42500D01*
X213000Y37000D02*
Y42500D01*
X202500D02*
X213000D01*
X202500Y37000D02*
X213000D01*
X186000Y194500D02*
Y205000D01*
X191500Y194500D02*
Y205000D01*
X186000Y194500D02*
X191500D01*
X186000Y205000D02*
X191500D01*
X108500Y200750D02*
X168500D01*
X108500Y150750D02*
X168500D01*
Y200750D01*
X108500Y150750D02*
Y200750D01*
X98750Y159250D02*
Y169750D01*
X93250Y159250D02*
Y169750D01*
X98750D01*
X93250Y159250D02*
X98750D01*
X161990Y94650D02*
X178990Y94650D01*
X161990Y85650D02*
X178990Y85650D01*
X161990Y85650D02*
Y94650D01*
X178990Y85650D02*
Y94650D01*
X165240Y106870D02*
X175740D01*
X165240Y101370D02*
X175740D01*
X165240D02*
Y106870D01*
X175740Y101370D02*
Y106870D01*
X165240Y117030D02*
X175740D01*
X165240Y111530D02*
X175740D01*
X165240D02*
Y117030D01*
X175740Y111530D02*
Y117030D01*
X165000Y121250D02*
X175500D01*
X165000Y126750D02*
X175500D01*
Y121250D02*
Y126750D01*
X165000Y121250D02*
Y126750D01*
X145330Y44670D02*
Y74670D01*
X175330Y44670D02*
Y74670D01*
X145330D02*
X175330D01*
X145330Y44670D02*
X175330D01*
X133770Y70670D02*
X133770Y48670D01*
X115770D02*
Y70670D01*
X133770D01*
X115770Y48670D02*
X133770D01*
X194250Y67500D02*
X211250D01*
X194250Y59000D02*
X211250D01*
Y67500D01*
X194250Y59000D02*
Y67500D01*
X165240Y31940D02*
X175740D01*
X165240Y26440D02*
X175740D01*
X165240D02*
Y31940D01*
X175740Y26440D02*
Y31940D01*
X30750Y463000D02*
X36250D01*
X30750Y452500D02*
X36250D01*
Y463000D01*
X30750Y452500D02*
Y463000D01*
X52500Y142500D02*
Y148000D01*
X63000Y142500D02*
Y148000D01*
X52500D02*
X63000D01*
X52500Y142500D02*
X63000D01*
X177000Y194500D02*
Y205000D01*
X182500Y194500D02*
Y205000D01*
X177000Y194500D02*
X182500D01*
X177000Y205000D02*
X182500D01*
Y171750D02*
Y182250D01*
X177000Y171750D02*
Y182250D01*
X182500D01*
X177000Y171750D02*
X182500D01*
X192000Y152000D02*
Y162500D01*
X186500Y152000D02*
Y162500D01*
X192000D01*
X186500Y152000D02*
X192000D01*
X151500Y568500D02*
Y574000D01*
X162000Y568500D02*
Y574000D01*
X151500D02*
X162000D01*
X151500Y568500D02*
X162000D01*
X139000Y571500D02*
X144500D01*
X139000Y561000D02*
X144500D01*
Y571500D01*
X139000Y561000D02*
Y571500D01*
X128750Y561000D02*
Y571500D01*
X134250Y561000D02*
Y571500D01*
X128750Y561000D02*
X134250D01*
X128750Y571500D02*
X134250D01*
X92750Y521750D02*
X98250D01*
X92750Y532250D02*
X98250D01*
X92750Y521750D02*
Y532250D01*
X98250Y521750D02*
Y532250D01*
X164250Y550250D02*
Y560750D01*
X158750Y550250D02*
Y560750D01*
X164250D01*
X158750Y550250D02*
X164250D01*
X171500Y538250D02*
Y543750D01*
X161000Y538250D02*
Y543750D01*
Y538250D02*
X171500D01*
X161000Y543750D02*
X171500D01*
X158810Y521240D02*
X164310D01*
X158810Y531740D02*
X164310D01*
X158810Y521240D02*
Y531740D01*
X164310Y521240D02*
Y531740D01*
D40*
X146500Y616500D02*
X176500D01*
Y585500D02*
Y616500D01*
X146500Y585500D02*
X176500D01*
X146500D02*
Y616500D01*
M02*
