G04 Layer_Color=16711935*
%FSLAX44Y44*%
%MOMM*%
G71*
G01*
G75*
%ADD38C,0.2500*%
%ADD39C,0.1000*%
%ADD42C,0.0500*%
%ADD43C,0.1700*%
G36*
X92374Y581114D02*
X93085Y578509D01*
X92374Y577058D01*
X90004Y575845D01*
X84695Y574093D01*
X77532Y572081D01*
X76516Y571066D01*
Y570113D01*
X81258Y566324D01*
X86805Y559480D01*
X89545Y552486D01*
Y548778D01*
X87310Y545314D01*
X84695Y544750D01*
X82091Y545721D01*
X78513Y548778D01*
X74772Y555785D01*
X72910Y567101D01*
X72187Y567672D01*
X69773Y566324D01*
Y566191D01*
X59367Y555785D01*
Y555631D01*
X54953Y555631D01*
X53868Y556716D01*
Y557820D01*
X53000Y558688D01*
Y561699D01*
X57001Y565700D01*
Y565936D01*
X57777D01*
X60878Y567672D01*
X62464Y568560D01*
X66162Y570114D01*
X71891Y570922D01*
X72910Y571066D01*
X74772Y574842D01*
X77230Y578195D01*
X81655Y580686D01*
X86103Y582367D01*
X92374Y581114D01*
D02*
G37*
D38*
X216500Y71750D02*
G03*
X216500Y71750I-1250J0D01*
G01*
D39*
X240250Y602750D02*
G03*
X240250Y602750I-10000J0D01*
G01*
Y17750D02*
G03*
X240250Y17750I-10000J0D01*
G01*
X28250Y17250D02*
G03*
X28250Y17250I-10000J0D01*
G01*
X122000Y193250D02*
G03*
X122000Y193250I-5000J0D01*
G01*
X143330Y74670D02*
G03*
X143330Y74670I-5000J0D01*
G01*
X84972Y544750D02*
X85240Y544777D01*
X83637Y544964D02*
X84972Y544750D01*
X82091Y545721D02*
X83637Y544964D01*
X81719Y545963D02*
X82091Y545721D01*
X81437Y546150D02*
X81719Y545963D01*
X79907Y547381D02*
X81437Y546150D01*
X78605Y548681D02*
X79907Y547381D01*
X78437Y548898D02*
X78605Y548681D01*
X77862Y549641D02*
X78437Y548898D01*
X76440Y552107D02*
X77862Y549641D01*
X74872Y555953D02*
X76440Y552107D01*
X73790Y560250D02*
X74872Y555953D01*
X73318Y563660D02*
X73790Y560250D01*
X73261Y564799D02*
X73318Y563660D01*
X73242Y565149D02*
X73261Y564799D01*
X73163Y566194D02*
X73242Y565149D01*
X73022Y567043D02*
X73163Y566194D01*
X72797Y567477D02*
X73022Y567043D01*
X72542Y567621D02*
X72797Y567477D01*
X72455Y567631D02*
X72542Y567621D01*
X72187Y567672D02*
X72455Y567631D01*
X71324Y567368D02*
X72187Y567672D01*
X69773Y566324D02*
X71324Y567368D01*
X67828Y564525D02*
X69773Y566324D01*
X66078Y562645D02*
X67828Y564525D01*
X65522Y561995D02*
X66078Y562645D01*
X65180Y561598D02*
X65522Y561995D01*
X64141Y560410D02*
X65180Y561598D01*
X62804Y558907D02*
X64141Y560410D01*
X61656Y557654D02*
X62804Y558907D01*
X61048Y557009D02*
X61656Y557654D01*
X60856Y556819D02*
X61048Y557009D01*
X60655Y556626D02*
X60856Y556819D01*
X60037Y556062D02*
X60655Y556626D01*
X59367Y555631D02*
X60037Y556062D01*
X58599Y555408D02*
X59367Y555631D01*
X57763Y555305D02*
X58599Y555408D01*
X57487Y555281D02*
X57763Y555305D01*
X57145Y555253D02*
X57487Y555281D01*
X55791Y555343D02*
X57145Y555253D01*
X54837Y555755D02*
X55791Y555343D01*
X54695Y555888D02*
X54837Y555755D01*
X54446Y556121D02*
X54695Y555888D01*
X53868Y556995D02*
X54446Y556121D01*
X53277Y558411D02*
X53868Y556995D01*
X53000Y559881D02*
X53277Y558411D01*
X53000Y559881D02*
X53022Y560844D01*
X53114Y561137D01*
X53165Y561308D01*
X53811Y562510D01*
X54747Y563850D01*
X54948Y564086D01*
X55165Y564346D01*
X55875Y565084D01*
X57001Y565936D01*
X58759Y566918D01*
X60878Y567965D01*
X61588Y568304D01*
X62391Y568689D01*
X64816Y569815D01*
X67060Y570602D01*
X69382Y570922D01*
X71986Y571017D01*
X72854Y571036D01*
X72914Y571039D01*
X73443Y571763D01*
X74105Y573154D01*
X74235Y573491D01*
X74365Y573830D01*
X74772Y574842D01*
X75276Y575921D01*
X75814Y576800D01*
X76443Y577538D01*
X77230Y578195D01*
X78236Y578840D01*
X79530Y579529D01*
X80761Y580134D01*
X81174Y580330D01*
X81741Y580601D01*
X83461Y581390D01*
X85029Y582003D01*
X86192Y582277D01*
X87006Y582326D01*
X87277Y582315D01*
X87695Y582299D01*
X89580Y582006D01*
X91487Y581347D01*
X91919Y581149D01*
X92179Y581029D01*
X92993Y579974D01*
X93085Y578509D01*
X92985Y578184D02*
X93085Y578509D01*
X92933Y578024D02*
X92985Y578184D01*
X92713Y577557D02*
X92933Y578024D01*
X92271Y577058D02*
X92713Y577557D01*
X91517Y576572D02*
X92271Y577058D01*
X90622Y576128D02*
X91517Y576572D01*
X90321Y575989D02*
X90622Y576128D01*
X90004Y575845D02*
X90321Y575989D01*
X88973Y575463D02*
X90004Y575845D01*
X87009Y574804D02*
X88973Y575463D01*
X84695Y574093D02*
X87009Y574804D01*
X82896Y573580D02*
X84695Y574093D01*
X82294Y573420D02*
X82896Y573580D01*
X81532Y573219D02*
X82294Y573420D01*
X79248Y572590D02*
X81532Y573219D01*
X77485Y572023D02*
X79248Y572590D01*
X76625Y571576D02*
X77485Y572023D01*
X76343Y571234D02*
X76625Y571576D01*
X76299Y571104D02*
X76343Y571234D01*
X76258Y570993D02*
X76299Y571104D01*
X76234Y570621D02*
X76258Y570993D01*
X76234Y570621D02*
X76516Y570113D01*
X77292Y569408D01*
X78355Y568597D01*
X78716Y568334D01*
X79381Y567848D01*
X81288Y566253D01*
X83520Y564013D01*
X85471Y561541D01*
X86805Y559480D01*
X87204Y558766D01*
X87437Y558346D01*
X88113Y557057D01*
X88748Y555649D01*
X89171Y554377D01*
X89396Y553398D01*
X89450Y553067D01*
X89545Y552486D01*
X89692Y550715D01*
X89564Y548778D02*
X89692Y550715D01*
X89062Y547240D02*
X89564Y548778D01*
X88449Y546321D02*
X89062Y547240D01*
X88186Y546079D02*
X88449Y546321D01*
X88023Y545933D02*
X88186Y546079D01*
X87310Y545314D02*
X88023Y545933D01*
X86879Y544975D02*
X87310Y545314D01*
X86860Y544970D02*
X86879Y544975D01*
X86838Y544964D02*
X86860Y544970D01*
X86322Y544899D02*
X86838Y544964D01*
X85441Y544799D02*
X86322Y544899D01*
X85240Y544777D02*
X85441Y544799D01*
X84972Y544750D02*
X85240Y544777D01*
X83637Y544964D02*
X84972Y544750D01*
X82091Y545721D02*
X83637Y544964D01*
X81719Y545963D02*
X82091Y545721D01*
X81437Y546150D02*
X81719Y545963D01*
X79907Y547381D02*
X81437Y546150D01*
X78605Y548681D02*
X79907Y547381D01*
X78437Y548898D02*
X78605Y548681D01*
X77862Y549641D02*
X78437Y548898D01*
X76440Y552107D02*
X77862Y549641D01*
X74872Y555953D02*
X76440Y552107D01*
X73790Y560250D02*
X74872Y555953D01*
X73318Y563660D02*
X73790Y560250D01*
X73261Y564799D02*
X73318Y563660D01*
X73242Y565149D02*
X73261Y564799D01*
X73163Y566194D02*
X73242Y565149D01*
X73022Y567043D02*
X73163Y566194D01*
X72797Y567477D02*
X73022Y567043D01*
X72542Y567621D02*
X72797Y567477D01*
X72455Y567631D02*
X72542Y567621D01*
X72187Y567672D02*
X72455Y567631D01*
X71324Y567368D02*
X72187Y567672D01*
X69773Y566324D02*
X71324Y567368D01*
X67828Y564525D02*
X69773Y566324D01*
X66078Y562645D02*
X67828Y564525D01*
X65522Y561995D02*
X66078Y562645D01*
X65180Y561598D02*
X65522Y561995D01*
X64141Y560410D02*
X65180Y561598D01*
X62804Y558907D02*
X64141Y560410D01*
X61656Y557654D02*
X62804Y558907D01*
X61048Y557009D02*
X61656Y557654D01*
X60856Y556819D02*
X61048Y557009D01*
X60655Y556626D02*
X60856Y556819D01*
X60037Y556062D02*
X60655Y556626D01*
X59367Y555631D02*
X60037Y556062D01*
X58599Y555408D02*
X59367Y555631D01*
X57763Y555305D02*
X58599Y555408D01*
X57487Y555281D02*
X57763Y555305D01*
X57145Y555253D02*
X57487Y555281D01*
X55791Y555343D02*
X57145Y555253D01*
X54837Y555755D02*
X55791Y555343D01*
X54695Y555888D02*
X54837Y555755D01*
X54446Y556121D02*
X54695Y555888D01*
X53868Y556995D02*
X54446Y556121D01*
X53277Y558411D02*
X53868Y556995D01*
X53000Y559881D02*
X53277Y558411D01*
X53000Y559881D02*
X53022Y560844D01*
X53114Y561137D01*
X53165Y561308D01*
X53811Y562510D01*
X54747Y563850D01*
X54948Y564086D01*
X55165Y564346D01*
X55875Y565084D01*
X57001Y565936D01*
X58759Y566918D01*
X60878Y567965D01*
X61588Y568304D01*
X62391Y568689D01*
X64816Y569815D01*
X67060Y570602D01*
X69382Y570922D01*
X71986Y571017D01*
X72854Y571036D01*
X72914Y571039D01*
X73443Y571763D01*
X74105Y573154D01*
X74235Y573491D01*
X74365Y573830D01*
X74772Y574842D01*
X75276Y575921D01*
X75814Y576800D01*
X76443Y577538D01*
X77230Y578195D01*
X78236Y578840D01*
X79530Y579529D01*
X80761Y580134D01*
X81174Y580330D01*
X81741Y580601D01*
X83461Y581390D01*
X85029Y582003D01*
X86192Y582277D01*
X87006Y582326D01*
X87277Y582315D01*
X87695Y582299D01*
X89580Y582006D01*
X91487Y581347D01*
X91919Y581149D01*
X92179Y581029D01*
X92993Y579974D01*
X93085Y578509D01*
X92985Y578184D02*
X93085Y578509D01*
X92933Y578024D02*
X92985Y578184D01*
X92713Y577557D02*
X92933Y578024D01*
X92271Y577058D02*
X92713Y577557D01*
X91517Y576572D02*
X92271Y577058D01*
X90622Y576128D02*
X91517Y576572D01*
X90321Y575989D02*
X90622Y576128D01*
X90004Y575845D02*
X90321Y575989D01*
X88973Y575463D02*
X90004Y575845D01*
X87009Y574804D02*
X88973Y575463D01*
X84695Y574093D02*
X87009Y574804D01*
X82896Y573580D02*
X84695Y574093D01*
X82294Y573420D02*
X82896Y573580D01*
X81532Y573219D02*
X82294Y573420D01*
X79248Y572590D02*
X81532Y573219D01*
X77485Y572023D02*
X79248Y572590D01*
X76625Y571576D02*
X77485Y572023D01*
X76343Y571234D02*
X76625Y571576D01*
X76299Y571104D02*
X76343Y571234D01*
X76258Y570993D02*
X76299Y571104D01*
X76234Y570621D02*
X76258Y570993D01*
X76234Y570621D02*
X76516Y570113D01*
X77292Y569408D01*
X78355Y568597D01*
X78716Y568334D01*
X79381Y567848D01*
X81288Y566253D01*
X83520Y564013D01*
X85471Y561541D01*
X86805Y559480D01*
X87204Y558766D01*
X87437Y558346D01*
X88113Y557057D01*
X88748Y555649D01*
X89171Y554377D01*
X89396Y553398D01*
X89450Y553067D01*
X89545Y552486D01*
X89692Y550715D01*
X89564Y548778D02*
X89692Y550715D01*
X89062Y547240D02*
X89564Y548778D01*
X88449Y546321D02*
X89062Y547240D01*
X88186Y546079D02*
X88449Y546321D01*
X88023Y545933D02*
X88186Y546079D01*
X87310Y545314D02*
X88023Y545933D01*
X86879Y544975D02*
X87310Y545314D01*
X86860Y544970D02*
X86879Y544975D01*
X86838Y544964D02*
X86860Y544970D01*
X86322Y544899D02*
X86838Y544964D01*
X85441Y544799D02*
X86322Y544899D01*
X85240Y544777D02*
X85441Y544799D01*
X146500Y611500D02*
Y616500D01*
X176500D01*
Y611500D02*
Y616500D01*
X146500Y585500D02*
Y587500D01*
Y585500D02*
X155500D01*
X167500D02*
X176500D01*
Y587500D01*
X210250Y43500D02*
X216500D01*
Y36000D02*
Y43500D01*
X210250Y36000D02*
X216500D01*
X199000D02*
X205250D01*
X199000D02*
Y43500D01*
X205250D01*
X185250Y190750D02*
Y197250D01*
Y190750D02*
X192250D01*
Y197250D01*
X185250Y202250D02*
Y208750D01*
X192250D01*
Y202250D02*
Y208750D01*
X108500Y150750D02*
Y200750D01*
X168500Y150750D02*
Y200750D01*
X108500Y150750D02*
X168500D01*
X108500Y200750D02*
X168500D01*
X99500Y167000D02*
Y173500D01*
X92500D02*
X99500D01*
X92500Y167000D02*
Y173500D01*
X99500Y155500D02*
Y162000D01*
X92500Y155500D02*
X99500D01*
X92500D02*
Y162000D01*
X169240Y93150D02*
X171740D01*
X169240Y87150D02*
X171740D01*
X158740Y95150D02*
X167990Y95150D01*
X158740Y85150D02*
X158740Y95150D01*
X158740Y85150D02*
X167990D01*
X172990Y95150D02*
X182240D01*
Y85150D02*
Y95150D01*
X172990Y85150D02*
X182240D01*
X161490Y107620D02*
X167990D01*
X161490Y100620D02*
Y107620D01*
Y100620D02*
X167990D01*
X172990Y107620D02*
X179490D01*
Y100620D02*
Y107620D01*
X172990Y100620D02*
X179490D01*
X161490Y117780D02*
X167990Y117780D01*
X161490Y110780D02*
Y117780D01*
Y110780D02*
X167990D01*
X172990Y117780D02*
X179490D01*
X179490Y110780D02*
X179490Y117780D01*
X172990Y110780D02*
X179490D01*
X172750Y120500D02*
X179250D01*
Y127500D01*
X172750D02*
X179250D01*
X161250Y120500D02*
X167750D01*
X161250D02*
Y127500D01*
X167750D01*
X145330Y44671D02*
X175331D01*
X145330Y74671D02*
X175331Y74671D01*
Y44671D02*
Y74671D01*
X145330Y44671D02*
Y74671D01*
X115769Y48671D02*
X133769D01*
X115769Y70671D02*
X133769D01*
X115769Y48671D02*
Y70671D01*
X133769Y48671D02*
Y70671D01*
X194251Y58999D02*
Y67499D01*
X211251Y58999D02*
Y67499D01*
X194251Y58999D02*
X211251D01*
X194251Y67499D02*
X211251D01*
X161490Y32690D02*
X167990D01*
X161490Y25690D02*
Y32690D01*
Y25690D02*
X167990D01*
X172990Y32690D02*
X179490D01*
Y25690D02*
Y32690D01*
X172990Y25690D02*
X179490D01*
X37250Y449000D02*
Y455250D01*
X29750Y449000D02*
X37250D01*
X29750D02*
Y455250D01*
Y460250D02*
Y466500D01*
X37250D01*
Y460250D02*
Y466500D01*
X60250Y149000D02*
X66500D01*
Y141500D02*
Y149000D01*
X60250Y141500D02*
X66500D01*
X49000D02*
X55250D01*
X49000D02*
Y149000D01*
X55250D01*
X176250Y190750D02*
Y197250D01*
Y190750D02*
X183250D01*
Y197250D01*
X176250Y202250D02*
Y208750D01*
X183250D01*
Y202250D02*
Y208750D01*
Y179500D02*
Y186000D01*
X176250D02*
X183250D01*
X176250Y179500D02*
Y186000D01*
X183250Y168000D02*
Y174500D01*
X176250Y168000D02*
X183250D01*
X176250D02*
Y174500D01*
X192750Y159750D02*
Y166250D01*
X185750D02*
X192750D01*
X185750Y159750D02*
Y166250D01*
X192750Y148250D02*
Y154750D01*
X185750Y148250D02*
X192750D01*
X185750D02*
Y154750D01*
X147750Y574750D02*
X154250D01*
X147750Y567750D02*
Y574750D01*
Y567750D02*
X154250D01*
X159250D02*
X165750D01*
Y574750D01*
X159250D02*
X165750D01*
X145500Y557500D02*
Y563750D01*
X138000Y557500D02*
X145500D01*
X138000D02*
Y563750D01*
Y568750D02*
Y575000D01*
X145500D01*
Y568750D02*
Y575000D01*
X128000Y557250D02*
Y563750D01*
Y557250D02*
X135000D01*
Y563750D01*
X128000Y568750D02*
Y575250D01*
X135000D01*
Y568750D02*
Y575250D01*
X91750Y529500D02*
Y535750D01*
X99250D01*
Y529500D02*
Y535750D01*
Y518250D02*
Y524500D01*
X91750Y518250D02*
X99250D01*
X91750D02*
Y524500D01*
X165000Y558000D02*
Y564500D01*
X158000D02*
X165000D01*
X158000Y558000D02*
Y564500D01*
X165000Y546500D02*
Y553000D01*
X158000Y546500D02*
X165000D01*
X158000D02*
Y553000D01*
X168750Y537500D02*
X175250D01*
Y544500D01*
X168750D02*
X175250D01*
X157250D02*
X163750D01*
X157250Y537500D02*
Y544500D01*
Y537500D02*
X163750D01*
X157810Y528990D02*
Y535240D01*
X165310D01*
Y528990D02*
Y535240D01*
Y517740D02*
Y523990D01*
X157810Y517740D02*
X165310D01*
X157810D02*
Y523990D01*
X227001Y601416D02*
Y598750D01*
X229001D01*
Y600083D01*
Y598750D01*
X231000D01*
Y602749D02*
Y604082D01*
Y603415D01*
X228334D01*
Y602749D01*
X227001Y608747D02*
X231000D01*
Y606747D01*
X230334Y606081D01*
X229001D01*
X228334Y606747D01*
Y608747D01*
X227668Y610080D02*
X227001Y610746D01*
Y612079D01*
X227668Y612746D01*
X228334D01*
X229001Y612079D01*
Y611413D01*
Y612079D01*
X229667Y612746D01*
X230334D01*
X231000Y612079D01*
Y610746D01*
X230334Y610080D01*
X227001Y16416D02*
Y13750D01*
X229001D01*
Y15083D01*
Y13750D01*
X231000D01*
Y17749D02*
Y19082D01*
Y18415D01*
X228334D01*
Y17749D01*
X227001Y23747D02*
X231000D01*
Y21747D01*
X230334Y21081D01*
X229001D01*
X228334Y21747D01*
Y23747D01*
X231000Y27745D02*
Y25080D01*
X228334Y27745D01*
X227668D01*
X227001Y27079D01*
Y25746D01*
X227668Y25080D01*
X15001Y15916D02*
Y13250D01*
X17001D01*
Y14583D01*
Y13250D01*
X19000D01*
Y17249D02*
Y18582D01*
Y17915D01*
X16334D01*
Y17249D01*
X15001Y23247D02*
X19000D01*
Y21247D01*
X18334Y20581D01*
X17001D01*
X16334Y21247D01*
Y23247D01*
X19000Y24580D02*
Y25912D01*
Y25246D01*
X15001D01*
X15668Y24580D01*
X161082Y603248D02*
X159416D01*
X160249D01*
Y599083D01*
X159416Y598250D01*
X158583D01*
X157750Y599083D01*
X162748Y598250D02*
X164415D01*
X163581D01*
Y603248D01*
X162748Y602415D01*
X204500Y38000D02*
Y41999D01*
X206499D01*
X207166Y41332D01*
Y39999D01*
X206499Y39333D01*
X204500D01*
X205833D02*
X207166Y38000D01*
X208499D02*
X209832D01*
X209165D01*
Y41999D01*
X208499Y41332D01*
X190415Y202668D02*
X191248Y203501D01*
Y205167D01*
X190415Y206000D01*
X187083D01*
X186250Y205167D01*
Y203501D01*
X187083Y202668D01*
X186250Y201002D02*
Y199335D01*
Y200169D01*
X191248D01*
X190415Y201002D01*
X186250Y193504D02*
Y196836D01*
X189582Y193504D01*
X190415D01*
X191248Y194337D01*
Y196003D01*
X190415Y196836D01*
X94335Y162832D02*
X93502Y161999D01*
Y160333D01*
X94335Y159500D01*
X97667D01*
X98500Y160333D01*
Y161999D01*
X97667Y162832D01*
X94335Y164498D02*
X93502Y165331D01*
Y166998D01*
X94335Y167831D01*
X95168D01*
X96001Y166998D01*
X96834Y167831D01*
X97667D01*
X98500Y166998D01*
Y165331D01*
X97667Y164498D01*
X96834D01*
X96001Y165331D01*
X95168Y164498D01*
X94335D01*
X96001Y165331D02*
Y166998D01*
X164666Y91582D02*
X163999Y92249D01*
X162666D01*
X162000Y91582D01*
Y88916D01*
X162666Y88250D01*
X163999D01*
X164666Y88916D01*
X165999Y88250D02*
X167332D01*
X166665D01*
Y92249D01*
X165999Y91582D01*
X168582Y105915D02*
X167749Y106748D01*
X166083D01*
X165250Y105915D01*
Y102583D01*
X166083Y101750D01*
X167749D01*
X168582Y102583D01*
X173581Y101750D02*
X170248D01*
X173581Y105082D01*
Y105915D01*
X172748Y106748D01*
X171081D01*
X170248Y105915D01*
X168582Y115915D02*
X167749Y116748D01*
X166083D01*
X165250Y115915D01*
Y112583D01*
X166083Y111750D01*
X167749D01*
X168582Y112583D01*
X170248Y115915D02*
X171081Y116748D01*
X172748D01*
X173581Y115915D01*
Y115082D01*
X172748Y114249D01*
X171915D01*
X172748D01*
X173581Y113416D01*
Y112583D01*
X172748Y111750D01*
X171081D01*
X170248Y112583D01*
X171908Y122275D02*
X172741Y121442D01*
X174407D01*
X175240Y122275D01*
Y125607D01*
X174407Y126440D01*
X172741D01*
X171908Y125607D01*
X167743Y126440D02*
Y121442D01*
X170242Y123941D01*
X166909D01*
X169082Y30915D02*
X168249Y31748D01*
X166583D01*
X165750Y30915D01*
Y27583D01*
X166583Y26750D01*
X168249D01*
X169082Y27583D01*
X174081Y31748D02*
X170748D01*
Y29249D01*
X172414Y30082D01*
X173248D01*
X174081Y29249D01*
Y27583D01*
X173248Y26750D01*
X171581D01*
X170748Y27583D01*
X31500Y461500D02*
X35499D01*
Y459501D01*
X34832Y458834D01*
X33499D01*
X32833Y459501D01*
Y461500D01*
Y460167D02*
X31500Y458834D01*
Y454836D02*
Y457501D01*
X34166Y454836D01*
X34832D01*
X35499Y455502D01*
Y456835D01*
X34832Y457501D01*
X54500Y147499D02*
Y143500D01*
X56499D01*
X57166Y144166D01*
Y146832D01*
X56499Y147499D01*
X54500D01*
X61164Y143500D02*
X58499D01*
X61164Y146166D01*
Y146832D01*
X60498Y147499D01*
X59165D01*
X58499Y146832D01*
X181415Y201918D02*
X182248Y202751D01*
Y204417D01*
X181415Y205250D01*
X178083D01*
X177250Y204417D01*
Y202751D01*
X178083Y201918D01*
X177250Y200252D02*
Y198585D01*
Y199419D01*
X182248D01*
X181415Y200252D01*
X177250Y196086D02*
Y194420D01*
Y195253D01*
X182248D01*
X181415Y196086D01*
X178085Y173582D02*
X177252Y172749D01*
Y171083D01*
X178085Y170250D01*
X181417D01*
X182250Y171083D01*
Y172749D01*
X181417Y173582D01*
X182250Y175248D02*
Y176915D01*
Y176081D01*
X177252D01*
X178085Y175248D01*
Y179414D02*
X177252Y180247D01*
Y181913D01*
X178085Y182746D01*
X181417D01*
X182250Y181913D01*
Y180247D01*
X181417Y179414D01*
X178085D01*
X187585Y156082D02*
X186752Y155249D01*
Y153583D01*
X187585Y152750D01*
X190917D01*
X191750Y153583D01*
Y155249D01*
X190917Y156082D01*
Y157748D02*
X191750Y158581D01*
Y160247D01*
X190917Y161081D01*
X187585D01*
X186752Y160247D01*
Y158581D01*
X187585Y157748D01*
X188418D01*
X189251Y158581D01*
Y161081D01*
X153250Y573499D02*
Y569500D01*
X155916D01*
X157249Y572832D02*
X157915Y573499D01*
X159248D01*
X159915Y572832D01*
Y572166D01*
X159248Y571499D01*
X158582D01*
X159248D01*
X159915Y570833D01*
Y570166D01*
X159248Y569500D01*
X157915D01*
X157249Y570166D01*
X143999Y569500D02*
X140000D01*
Y567501D01*
X140666Y566834D01*
X143332D01*
X143999Y567501D01*
Y569500D01*
X140000Y565501D02*
Y564168D01*
Y564835D01*
X143999D01*
X143332Y565501D01*
X133165Y567918D02*
X133998Y568751D01*
Y570417D01*
X133165Y571250D01*
X129833D01*
X129000Y570417D01*
Y568751D01*
X129833Y567918D01*
X133998Y566252D02*
Y562919D01*
X133165D01*
X129833Y566252D01*
X129000D01*
X93500Y530500D02*
X97499D01*
Y528501D01*
X96832Y527834D01*
X95499D01*
X94833Y528501D01*
Y530500D01*
Y529167D02*
X93500Y527834D01*
Y524502D02*
X97499D01*
X95499Y526501D01*
Y523835D01*
X159835Y554332D02*
X159002Y553499D01*
Y551833D01*
X159835Y551000D01*
X163167D01*
X164000Y551833D01*
Y553499D01*
X163167Y554332D01*
X159002Y559331D02*
X159835Y557664D01*
X161501Y555998D01*
X163167D01*
X164000Y556831D01*
Y558498D01*
X163167Y559331D01*
X162334D01*
X161501Y558498D01*
Y555998D01*
X162500Y543249D02*
Y539250D01*
X165166D01*
X169165D02*
X166499D01*
X169165Y541916D01*
Y542582D01*
X168498Y543249D01*
X167165D01*
X166499Y542582D01*
X159750Y530250D02*
X163749D01*
Y528251D01*
X163082Y527584D01*
X161749D01*
X161083Y528251D01*
Y530250D01*
Y528917D02*
X159750Y527584D01*
X163082Y526251D02*
X163749Y525585D01*
Y524252D01*
X163082Y523586D01*
X162416D01*
X161749Y524252D01*
Y524918D01*
Y524252D01*
X161083Y523586D01*
X160416D01*
X159750Y524252D01*
Y525585D01*
X160416Y526251D01*
D42*
X45250Y41000D02*
X105250D01*
Y101000D01*
X45250D02*
X105250D01*
X45250Y41000D02*
Y101000D01*
D43*
X70665Y73831D02*
X68998Y75497D01*
X65666D01*
X64000Y73831D01*
Y72165D01*
X65666Y70498D01*
X68998D01*
X70665Y68832D01*
Y67166D01*
X68998Y65500D01*
X65666D01*
X64000Y67166D01*
X73997Y75497D02*
Y65500D01*
X77329Y68832D01*
X80661Y65500D01*
Y75497D01*
X83994Y65500D02*
X87326D01*
X85660D01*
Y75497D01*
X83994Y73831D01*
X151330Y64167D02*
Y55836D01*
X152996Y54170D01*
X156328D01*
X157994Y55836D01*
Y64167D01*
X167991Y54170D02*
X161327D01*
X167991Y60834D01*
Y62501D01*
X166325Y64167D01*
X162993D01*
X161327Y62501D01*
X118250Y63747D02*
Y53750D01*
X124915D01*
X128247D02*
X131579D01*
X129913D01*
Y63747D01*
X128247Y62081D01*
X202665Y72166D02*
Y78831D01*
X200998Y80497D01*
X197666D01*
X196000Y78831D01*
Y72166D01*
X197666Y70500D01*
X200998D01*
X199332Y73832D02*
X202665Y70500D01*
X200998D02*
X202665Y72166D01*
X205997Y70500D02*
X209329D01*
X207663D01*
Y80497D01*
X205997Y78831D01*
M02*
