G04 Layer_Physical_Order=3*
G04 Layer_Color=16440176*
%FSLAX44Y44*%
%MOMM*%
G71*
G01*
G75*
%ADD33C,1.5000*%
%ADD34R,1.5000X1.5000*%
%ADD35C,0.8000*%
%ADD36C,1.2700*%
G36*
X248376Y1624D02*
X1624D01*
Y15418D01*
X6447D01*
X6708Y15236D01*
X7437Y14530D01*
X7471Y14467D01*
X7484Y14365D01*
X8598Y11677D01*
X10369Y9369D01*
X12677Y7598D01*
X15365Y6484D01*
X18250Y6105D01*
X21135Y6484D01*
X23823Y7598D01*
X26131Y9369D01*
X27902Y11677D01*
X29016Y14365D01*
X29029Y14467D01*
X29063Y14530D01*
X29792Y15236D01*
X30053Y15418D01*
X141944D01*
X142267Y15551D01*
X142603Y15641D01*
X142641Y15706D01*
X142710Y15735D01*
X142843Y16057D01*
X142849Y16068D01*
X142956Y16174D01*
X143708Y17989D01*
X144816Y19434D01*
X145820Y20204D01*
X145961Y20449D01*
X146161Y20648D01*
Y20795D01*
X146234Y20921D01*
X146423Y21168D01*
X147814D01*
X148240Y20593D01*
X147808Y19237D01*
X147744Y19173D01*
X146145Y18105D01*
X145040Y16451D01*
X144652Y14500D01*
X145040Y12549D01*
X146145Y10895D01*
X147799Y9790D01*
X149750Y9402D01*
X151701Y9790D01*
X153355Y10895D01*
X154460Y12549D01*
X154848Y14500D01*
X154460Y16451D01*
X153355Y18105D01*
X153713Y19393D01*
X154451Y19540D01*
X156105Y20645D01*
X157210Y22299D01*
X157598Y24250D01*
X157210Y26201D01*
X156105Y27855D01*
X154451Y28960D01*
X154307Y28989D01*
X153874Y29676D01*
X153782Y30388D01*
X154304Y30918D01*
X154723D01*
X155899Y30544D01*
X156099Y30344D01*
X156240Y30099D01*
X157434Y29184D01*
X158542Y27739D01*
X159240Y26056D01*
X159477Y24250D01*
X159390Y23590D01*
X159410Y23518D01*
X159381Y23449D01*
X159515Y23127D01*
X159605Y22790D01*
X159670Y22752D01*
X159698Y22683D01*
X160596Y21785D01*
X160665Y21757D01*
X160703Y21692D01*
X161040Y21602D01*
X161362Y21468D01*
X161411Y21489D01*
X163306Y21240D01*
X164989Y20543D01*
X166434Y19434D01*
X167542Y17989D01*
X168294Y16174D01*
X168401Y16068D01*
X168407Y16057D01*
X168540Y15735D01*
X168609Y15706D01*
X168647Y15641D01*
X168983Y15551D01*
X169306Y15418D01*
X186000D01*
X186765Y15735D01*
X187082Y16500D01*
Y59677D01*
X187068Y59712D01*
X187080Y59748D01*
X186911Y60090D01*
X186765Y60442D01*
X186730Y60457D01*
X186714Y60490D01*
X186582Y60606D01*
Y64071D01*
X187207Y64330D01*
X188742Y65508D01*
X189920Y67043D01*
X190661Y68831D01*
X190913Y70750D01*
X190661Y72669D01*
X189920Y74457D01*
X188742Y75992D01*
X187207Y77170D01*
X185419Y77911D01*
X183500Y78163D01*
X181581Y77911D01*
X179793Y77170D01*
X178258Y75992D01*
X177080Y74457D01*
X176913Y74054D01*
X175648Y73996D01*
X174827Y74858D01*
X174749Y74937D01*
X174727Y75045D01*
X174022Y76101D01*
X173930Y76163D01*
X173887Y76265D01*
X173596Y76386D01*
X173333Y76562D01*
X173224Y76540D01*
X173122Y76582D01*
X22868D01*
X22531Y76443D01*
X22181Y76337D01*
X22155Y76287D01*
X22103Y76265D01*
X21963Y75928D01*
X21791Y75606D01*
X21666Y74336D01*
X21772Y73987D01*
X21843Y73629D01*
X21890Y73597D01*
X21906Y73543D01*
X22228Y73371D01*
X22532Y73168D01*
X23638Y72948D01*
X24604Y72304D01*
X25248Y71338D01*
X25496Y70093D01*
Y65782D01*
X23582D01*
Y70200D01*
X23265Y70965D01*
X22500Y71282D01*
X7500D01*
X6735Y70965D01*
X6418Y70200D01*
Y65782D01*
X4504D01*
Y70093D01*
X4752Y71338D01*
X5397Y72304D01*
X6362Y72948D01*
X7468Y73168D01*
X7772Y73371D01*
X8094Y73543D01*
X8110Y73597D01*
X8157Y73629D01*
X8228Y73987D01*
X8334Y74336D01*
X8209Y75606D01*
X8037Y75928D01*
X7897Y76265D01*
X7845Y76287D01*
X7819Y76337D01*
X7469Y76443D01*
X7132Y76582D01*
X1624D01*
Y623876D01*
X248376D01*
Y1624D01*
D02*
G37*
G36*
X173827Y74444D02*
X173416Y73452D01*
X173324Y72750D01*
X183500D01*
Y70750D01*
X185500D01*
Y60115D01*
X186000Y59677D01*
Y16500D01*
X169306D01*
X169294Y16588D01*
X168488Y18534D01*
X167206Y20206D01*
X165534Y21488D01*
X163588Y22294D01*
X161500Y22569D01*
X161362Y22551D01*
X160464Y23449D01*
X160569Y24250D01*
X160294Y26338D01*
X159488Y28284D01*
X158206Y29956D01*
X156899Y30958D01*
X157294Y31912D01*
X157306Y32000D01*
X141694D01*
X141706Y31912D01*
X142512Y29966D01*
X143794Y28294D01*
X145101Y27292D01*
X144706Y26338D01*
X144694Y26250D01*
X152500D01*
Y22250D01*
X144694D01*
X144706Y22162D01*
X145161Y21063D01*
X144044Y20206D01*
X142762Y18534D01*
X141956Y16588D01*
X141944Y16500D01*
X30053D01*
X29395Y17250D01*
X29016Y20135D01*
X27902Y22823D01*
X26131Y25131D01*
X23823Y26902D01*
X21135Y28016D01*
X18250Y28395D01*
X15365Y28016D01*
X12677Y26902D01*
X10369Y25131D01*
X8598Y22823D01*
X7484Y20135D01*
X7105Y17250D01*
X6447Y16500D01*
X1624D01*
Y75500D01*
X7132D01*
X7257Y74230D01*
X5939Y73968D01*
X4616Y73084D01*
X3732Y71761D01*
X3422Y70200D01*
Y64700D01*
X15000D01*
X26578D01*
Y70200D01*
X26268Y71761D01*
X25384Y73084D01*
X24061Y73968D01*
X22743Y74230D01*
X22868Y75500D01*
X173122D01*
X173827Y74444D01*
D02*
G37*
%LPC*%
G36*
X14000Y137900D02*
X5550D01*
X5745Y136420D01*
X6702Y134109D01*
X8224Y132125D01*
X10209Y130602D01*
X12520Y129644D01*
X14000Y129450D01*
Y137900D01*
D02*
G37*
G36*
X24450D02*
X16000D01*
Y129450D01*
X17480Y129644D01*
X19791Y130602D01*
X21775Y132125D01*
X23298Y134109D01*
X24255Y136420D01*
X24450Y137900D01*
D02*
G37*
G36*
X16000Y148350D02*
Y139900D01*
X24450D01*
X24255Y141380D01*
X23298Y143691D01*
X21775Y145675D01*
X19791Y147198D01*
X17480Y148155D01*
X16000Y148350D01*
D02*
G37*
G36*
X14000D02*
X12520Y148155D01*
X10209Y147198D01*
X8224Y145675D01*
X6702Y143691D01*
X5745Y141380D01*
X5550Y139900D01*
X14000D01*
Y148350D01*
D02*
G37*
G36*
Y122950D02*
X12520Y122755D01*
X10209Y121798D01*
X8224Y120275D01*
X6702Y118291D01*
X5745Y115980D01*
X5550Y114500D01*
X14000D01*
Y122950D01*
D02*
G37*
G36*
X158919Y123750D02*
X147081D01*
X147348Y122409D01*
X148674Y120424D01*
X150659Y119098D01*
X152296Y118772D01*
Y117478D01*
X150659Y117152D01*
X148674Y115826D01*
X147348Y113841D01*
X147081Y112500D01*
X158919D01*
X158652Y113841D01*
X157326Y115826D01*
X155341Y117152D01*
X153704Y117478D01*
Y118772D01*
X155341Y119098D01*
X157326Y120424D01*
X158652Y122409D01*
X158919Y123750D01*
D02*
G37*
G36*
X16000Y122950D02*
Y114500D01*
X24450D01*
X24255Y115980D01*
X23298Y118291D01*
X21775Y120275D01*
X19791Y121798D01*
X17480Y122755D01*
X16000Y122950D01*
D02*
G37*
G36*
X154000Y130669D02*
Y125750D01*
X158919D01*
X158652Y127091D01*
X157326Y129076D01*
X155341Y130402D01*
X154000Y130669D01*
D02*
G37*
G36*
X152000D02*
X150659Y130402D01*
X148674Y129076D01*
X147348Y127091D01*
X147081Y125750D01*
X152000D01*
Y130669D01*
D02*
G37*
G36*
X127500Y173819D02*
X126134Y173547D01*
X124977Y172773D01*
X124203Y171616D01*
X123931Y170250D01*
X124203Y168884D01*
X124977Y167727D01*
X126134Y166953D01*
X127500Y166681D01*
X128866Y166953D01*
X130023Y167727D01*
X130797Y168884D01*
X131069Y170250D01*
X130797Y171616D01*
X130023Y172773D01*
X128866Y173547D01*
X127500Y173819D01*
D02*
G37*
G36*
X15000Y172873D02*
X12781Y172581D01*
X10713Y171725D01*
X8938Y170362D01*
X7575Y168587D01*
X6719Y166519D01*
X6427Y164300D01*
X6719Y162081D01*
X7575Y160013D01*
X8938Y158238D01*
X10713Y156875D01*
X12781Y156019D01*
X15000Y155727D01*
X17219Y156019D01*
X19287Y156875D01*
X21062Y158238D01*
X22425Y160013D01*
X23281Y162081D01*
X23573Y164300D01*
X23281Y166519D01*
X22425Y168587D01*
X21062Y170362D01*
X19287Y171725D01*
X17219Y172581D01*
X15000Y172873D01*
D02*
G37*
G36*
X149500Y173819D02*
X148134Y173547D01*
X146977Y172773D01*
X146203Y171616D01*
X145931Y170250D01*
X146203Y168884D01*
X146977Y167727D01*
X148134Y166953D01*
X149500Y166681D01*
X150866Y166953D01*
X152023Y167727D01*
X152797Y168884D01*
X153069Y170250D01*
X152797Y171616D01*
X152023Y172773D01*
X150866Y173547D01*
X149500Y173819D01*
D02*
G37*
G36*
X229750Y189163D02*
X227831Y188911D01*
X226043Y188170D01*
X224508Y186992D01*
X223330Y185457D01*
X222589Y183669D01*
X222337Y181750D01*
X222589Y179831D01*
X223330Y178043D01*
X224508Y176508D01*
X226043Y175330D01*
X227831Y174589D01*
X229750Y174337D01*
X231669Y174589D01*
X233457Y175330D01*
X234992Y176508D01*
X236170Y178043D01*
X236911Y179831D01*
X237163Y181750D01*
X236911Y183669D01*
X236170Y185457D01*
X234992Y186992D01*
X233457Y188170D01*
X231669Y188911D01*
X229750Y189163D01*
D02*
G37*
G36*
X138500Y173819D02*
X137134Y173547D01*
X135977Y172773D01*
X135203Y171616D01*
X134931Y170250D01*
X135203Y168884D01*
X135977Y167727D01*
X137134Y166953D01*
X138500Y166681D01*
X139866Y166953D01*
X141023Y167727D01*
X141797Y168884D01*
X142069Y170250D01*
X141797Y171616D01*
X141023Y172773D01*
X139866Y173547D01*
X138500Y173819D01*
D02*
G37*
G36*
X52500Y165098D02*
X50549Y164710D01*
X48895Y163605D01*
X47790Y161951D01*
X47402Y160000D01*
X47790Y158049D01*
X48895Y156395D01*
X50549Y155290D01*
X52500Y154902D01*
X54451Y155290D01*
X56105Y156395D01*
X57210Y158049D01*
X57598Y160000D01*
X57210Y161951D01*
X56105Y163605D01*
X54451Y164710D01*
X52500Y165098D01*
D02*
G37*
G36*
X204750Y168913D02*
X202831Y168661D01*
X201043Y167920D01*
X199508Y166742D01*
X198330Y165207D01*
X197589Y163419D01*
X197337Y161500D01*
X197589Y159581D01*
X198330Y157793D01*
X199508Y156258D01*
X201043Y155080D01*
X202831Y154339D01*
X204750Y154087D01*
X206669Y154339D01*
X208457Y155080D01*
X209992Y156258D01*
X211170Y157793D01*
X211911Y159581D01*
X212163Y161500D01*
X211911Y163419D01*
X211170Y165207D01*
X209992Y166742D01*
X208457Y167920D01*
X206669Y168661D01*
X204750Y168913D01*
D02*
G37*
G36*
X127500Y162819D02*
X126134Y162547D01*
X124977Y161773D01*
X124203Y160616D01*
X123931Y159250D01*
X124203Y157884D01*
X124977Y156727D01*
X126134Y155953D01*
X127500Y155681D01*
X128866Y155953D01*
X130023Y156727D01*
X130797Y157884D01*
X131069Y159250D01*
X130797Y160616D01*
X130023Y161773D01*
X128866Y162547D01*
X127500Y162819D01*
D02*
G37*
G36*
X149500D02*
X148134Y162547D01*
X146977Y161773D01*
X146203Y160616D01*
X145931Y159250D01*
X146203Y157884D01*
X146977Y156727D01*
X148134Y155953D01*
X149500Y155681D01*
X150866Y155953D01*
X152023Y156727D01*
X152797Y157884D01*
X153069Y159250D01*
X152797Y160616D01*
X152023Y161773D01*
X150866Y162547D01*
X149500Y162819D01*
D02*
G37*
G36*
X138500D02*
X137134Y162547D01*
X135977Y161773D01*
X135203Y160616D01*
X134931Y159250D01*
X135203Y157884D01*
X135977Y156727D01*
X137134Y155953D01*
X138500Y155681D01*
X139866Y155953D01*
X141023Y156727D01*
X141797Y157884D01*
X142069Y159250D01*
X141797Y160616D01*
X141023Y161773D01*
X139866Y162547D01*
X138500Y162819D01*
D02*
G37*
G36*
X224790Y52250D02*
X217500D01*
Y44960D01*
X218680Y45115D01*
X220711Y45956D01*
X222455Y47295D01*
X223794Y49039D01*
X224635Y51070D01*
X224790Y52250D01*
D02*
G37*
G36*
X215500Y61540D02*
X214320Y61385D01*
X212289Y60544D01*
X210545Y59205D01*
X209206Y57461D01*
X208365Y55430D01*
X208210Y54250D01*
X215500D01*
Y61540D01*
D02*
G37*
G36*
Y52250D02*
X208210D01*
X208365Y51070D01*
X209206Y49039D01*
X210545Y47295D01*
X212289Y45956D01*
X214320Y45115D01*
X215500Y44960D01*
Y52250D01*
D02*
G37*
G36*
X161500Y19598D02*
X159549Y19210D01*
X157895Y18105D01*
X156790Y16451D01*
X156402Y14500D01*
X156790Y12549D01*
X157895Y10895D01*
X159549Y9790D01*
X161500Y9402D01*
X163451Y9790D01*
X165105Y10895D01*
X166210Y12549D01*
X166598Y14500D01*
X166210Y16451D01*
X165105Y18105D01*
X163451Y19210D01*
X161500Y19598D01*
D02*
G37*
G36*
X230250Y28895D02*
X227365Y28516D01*
X224677Y27402D01*
X222369Y25631D01*
X220598Y23323D01*
X219484Y20635D01*
X219105Y17750D01*
X219484Y14865D01*
X220598Y12177D01*
X222369Y9869D01*
X224677Y8098D01*
X227365Y6984D01*
X230250Y6605D01*
X233135Y6984D01*
X235823Y8098D01*
X238131Y9869D01*
X239902Y12177D01*
X241016Y14865D01*
X241395Y17750D01*
X241016Y20635D01*
X239902Y23323D01*
X238131Y25631D01*
X235823Y27402D01*
X233135Y28516D01*
X230250Y28895D01*
D02*
G37*
G36*
X217500Y61540D02*
Y54250D01*
X224790D01*
X224635Y55430D01*
X223794Y57461D01*
X222455Y59205D01*
X220711Y60544D01*
X218680Y61385D01*
X217500Y61540D01*
D02*
G37*
G36*
X158919Y110500D02*
X147081D01*
X147348Y109159D01*
X148674Y107174D01*
X149999Y106289D01*
X150021Y106227D01*
X149912Y104820D01*
X148424Y103826D01*
X147098Y101841D01*
X146831Y100500D01*
X158669D01*
X158402Y101841D01*
X157076Y103826D01*
X155751Y104711D01*
X155729Y104773D01*
X155838Y106180D01*
X157326Y107174D01*
X158652Y109159D01*
X158919Y110500D01*
D02*
G37*
G36*
X158669Y98500D02*
X146831D01*
X147098Y97159D01*
X148424Y95174D01*
X149546Y94424D01*
X149588Y93953D01*
X149412Y92987D01*
X147674Y91826D01*
X146348Y89841D01*
X146081Y88500D01*
X157919D01*
X157652Y89841D01*
X156326Y91826D01*
X155204Y92576D01*
X155162Y93047D01*
X155338Y94013D01*
X157076Y95174D01*
X158402Y97159D01*
X158669Y98500D01*
D02*
G37*
G36*
X14000Y112500D02*
X5550D01*
X5745Y111020D01*
X6702Y108709D01*
X8224Y106725D01*
X10209Y105202D01*
X12520Y104244D01*
X14000Y104050D01*
Y112500D01*
D02*
G37*
G36*
X24450D02*
X16000D01*
Y104050D01*
X17480Y104244D01*
X19791Y105202D01*
X21775Y106725D01*
X23298Y108709D01*
X24255Y111020D01*
X24450Y112500D01*
D02*
G37*
G36*
X157919Y86500D02*
X153000D01*
Y81581D01*
X154341Y81848D01*
X156326Y83174D01*
X157652Y85159D01*
X157919Y86500D01*
D02*
G37*
G36*
X15000Y96673D02*
X12781Y96381D01*
X10713Y95525D01*
X8938Y94162D01*
X7575Y92387D01*
X6719Y90319D01*
X6427Y88100D01*
X6719Y85881D01*
X7575Y83813D01*
X8938Y82038D01*
X10713Y80675D01*
X12781Y79819D01*
X15000Y79527D01*
X17219Y79819D01*
X19287Y80675D01*
X21062Y82038D01*
X22425Y83813D01*
X23281Y85881D01*
X23573Y88100D01*
X23281Y90319D01*
X22425Y92387D01*
X21062Y94162D01*
X19287Y95525D01*
X17219Y96381D01*
X15000Y96673D01*
D02*
G37*
G36*
X151000Y86500D02*
X146081D01*
X146348Y85159D01*
X147674Y83174D01*
X149659Y81848D01*
X151000Y81581D01*
Y86500D01*
D02*
G37*
G36*
X207750Y94913D02*
X205831Y94661D01*
X204043Y93920D01*
X202508Y92742D01*
X201330Y91207D01*
X200589Y89419D01*
X200337Y87500D01*
X200589Y85581D01*
X201330Y83793D01*
X202508Y82258D01*
X204043Y81080D01*
X205831Y80339D01*
X207750Y80087D01*
X209669Y80339D01*
X211457Y81080D01*
X212992Y82258D01*
X214170Y83793D01*
X214911Y85581D01*
X215163Y87500D01*
X214911Y89419D01*
X214170Y91207D01*
X212992Y92742D01*
X211457Y93920D01*
X209669Y94661D01*
X207750Y94913D01*
D02*
G37*
G36*
X15000Y426873D02*
X12781Y426581D01*
X10713Y425725D01*
X8938Y424362D01*
X7575Y422587D01*
X6719Y420519D01*
X6427Y418300D01*
X6719Y416081D01*
X7575Y414013D01*
X8938Y412238D01*
X10713Y410875D01*
X12781Y410019D01*
X15000Y409727D01*
X17219Y410019D01*
X19287Y410875D01*
X21062Y412238D01*
X22425Y414013D01*
X23281Y416081D01*
X23573Y418300D01*
X23281Y420519D01*
X22425Y422587D01*
X21062Y424362D01*
X19287Y425725D01*
X17219Y426581D01*
X15000Y426873D01*
D02*
G37*
G36*
Y401473D02*
X12781Y401181D01*
X10713Y400325D01*
X8938Y398962D01*
X7575Y397187D01*
X6719Y395119D01*
X6427Y392900D01*
X6719Y390681D01*
X7575Y388613D01*
X8938Y386838D01*
X10713Y385475D01*
X12781Y384619D01*
X15000Y384327D01*
X17219Y384619D01*
X19287Y385475D01*
X21062Y386838D01*
X22425Y388613D01*
X23281Y390681D01*
X23573Y392900D01*
X23281Y395119D01*
X22425Y397187D01*
X21062Y398962D01*
X19287Y400325D01*
X17219Y401181D01*
X15000Y401473D01*
D02*
G37*
G36*
X36500Y444163D02*
X34581Y443911D01*
X32793Y443170D01*
X31258Y441992D01*
X30080Y440457D01*
X29339Y438669D01*
X29087Y436750D01*
X29339Y434831D01*
X30080Y433043D01*
X31258Y431508D01*
X32793Y430330D01*
X34581Y429589D01*
X36500Y429337D01*
X38419Y429589D01*
X40207Y430330D01*
X41742Y431508D01*
X42920Y433043D01*
X43661Y434831D01*
X43913Y436750D01*
X43661Y438669D01*
X42920Y440457D01*
X41742Y441992D01*
X40207Y443170D01*
X38419Y443911D01*
X36500Y444163D01*
D02*
G37*
G36*
X97000Y455598D02*
X95049Y455210D01*
X93395Y454105D01*
X92290Y452451D01*
X91902Y450500D01*
X92290Y448549D01*
X93395Y446895D01*
X95049Y445790D01*
X97000Y445402D01*
X98951Y445790D01*
X100605Y446895D01*
X101710Y448549D01*
X102098Y450500D01*
X101710Y452451D01*
X100605Y454105D01*
X98951Y455210D01*
X97000Y455598D01*
D02*
G37*
G36*
X118500Y455348D02*
X116549Y454960D01*
X114895Y453855D01*
X113790Y452201D01*
X113402Y450250D01*
X113790Y448299D01*
X114895Y446645D01*
X116549Y445540D01*
X118500Y445152D01*
X120451Y445540D01*
X122105Y446645D01*
X123210Y448299D01*
X123598Y450250D01*
X123210Y452201D01*
X122105Y453855D01*
X120451Y454960D01*
X118500Y455348D01*
D02*
G37*
G36*
X15000Y350673D02*
X12781Y350381D01*
X10713Y349525D01*
X8938Y348162D01*
X7575Y346387D01*
X6719Y344319D01*
X6427Y342100D01*
X6719Y339881D01*
X7575Y337813D01*
X8938Y336038D01*
X10713Y334675D01*
X12781Y333819D01*
X15000Y333527D01*
X17219Y333819D01*
X19287Y334675D01*
X21062Y336038D01*
X22425Y337813D01*
X23281Y339881D01*
X23573Y342100D01*
X23281Y344319D01*
X22425Y346387D01*
X21062Y348162D01*
X19287Y349525D01*
X17219Y350381D01*
X15000Y350673D01*
D02*
G37*
G36*
X216250Y348913D02*
X214331Y348661D01*
X212543Y347920D01*
X211008Y346742D01*
X209830Y345207D01*
X209089Y343419D01*
X208837Y341500D01*
X209089Y339581D01*
X209830Y337793D01*
X211008Y336258D01*
X212543Y335080D01*
X214331Y334339D01*
X216250Y334087D01*
X218169Y334339D01*
X219957Y335080D01*
X221315Y336122D01*
X222221Y335216D01*
X221830Y334707D01*
X221089Y332919D01*
X220837Y331000D01*
X221089Y329081D01*
X221830Y327293D01*
X223008Y325758D01*
X224543Y324580D01*
X226331Y323839D01*
X228250Y323587D01*
X230169Y323839D01*
X231957Y324580D01*
X233492Y325758D01*
X234670Y327293D01*
X235411Y329081D01*
X235663Y331000D01*
X235411Y332919D01*
X234670Y334707D01*
X233492Y336242D01*
X231957Y337420D01*
X230169Y338161D01*
X228250Y338413D01*
X226331Y338161D01*
X224543Y337420D01*
X223185Y336378D01*
X222279Y337284D01*
X222670Y337793D01*
X223411Y339581D01*
X223663Y341500D01*
X223411Y343419D01*
X222670Y345207D01*
X221492Y346742D01*
X219957Y347920D01*
X218169Y348661D01*
X216250Y348913D01*
D02*
G37*
G36*
X228137Y359777D02*
X226218Y359524D01*
X224430Y358784D01*
X222894Y357606D01*
X221716Y356070D01*
X220976Y354282D01*
X220723Y352363D01*
X220976Y350445D01*
X221716Y348657D01*
X222894Y347121D01*
X224430Y345943D01*
X226218Y345203D01*
X228137Y344950D01*
X230055Y345203D01*
X231843Y345943D01*
X233379Y347121D01*
X234557Y348657D01*
X235297Y350445D01*
X235550Y352363D01*
X235297Y354282D01*
X234557Y356070D01*
X233379Y357606D01*
X231843Y358784D01*
X230055Y359524D01*
X228137Y359777D01*
D02*
G37*
G36*
X15000Y376073D02*
X12781Y375781D01*
X10713Y374925D01*
X8938Y373562D01*
X7575Y371787D01*
X6719Y369719D01*
X6427Y367500D01*
X6719Y365281D01*
X7575Y363213D01*
X8938Y361438D01*
X10713Y360075D01*
X12781Y359219D01*
X15000Y358927D01*
X17219Y359219D01*
X19287Y360075D01*
X21062Y361438D01*
X22425Y363213D01*
X23281Y365281D01*
X23573Y367500D01*
X23281Y369719D01*
X22425Y371787D01*
X21062Y373562D01*
X19287Y374925D01*
X17219Y375781D01*
X15000Y376073D01*
D02*
G37*
G36*
X215750Y370913D02*
X213831Y370661D01*
X212043Y369920D01*
X210508Y368742D01*
X209330Y367207D01*
X208589Y365419D01*
X208337Y363500D01*
X208589Y361581D01*
X209330Y359793D01*
X210508Y358258D01*
X212043Y357080D01*
X213831Y356339D01*
X215750Y356087D01*
X217669Y356339D01*
X219457Y357080D01*
X220992Y358258D01*
X222170Y359793D01*
X222911Y361581D01*
X223163Y363500D01*
X222911Y365419D01*
X222170Y367207D01*
X220992Y368742D01*
X219457Y369920D01*
X217669Y370661D01*
X215750Y370913D01*
D02*
G37*
G36*
X166670Y589500D02*
X156330D01*
Y517250D01*
X156330Y516250D01*
X155172Y515980D01*
X154210D01*
X154460Y493230D01*
X168710D01*
Y515980D01*
X167828D01*
X166670Y516250D01*
X166670Y517250D01*
Y589500D01*
D02*
G37*
G36*
X218419Y494500D02*
X206581D01*
X206848Y493159D01*
X208174Y491174D01*
X208794Y490760D01*
Y489490D01*
X208174Y489076D01*
X206848Y487091D01*
X206581Y485750D01*
X218419D01*
X218152Y487091D01*
X216826Y489076D01*
X216206Y489490D01*
Y490760D01*
X216826Y491174D01*
X218152Y493159D01*
X218419Y494500D01*
D02*
G37*
G36*
X211500Y501419D02*
X210159Y501152D01*
X208174Y499826D01*
X206848Y497841D01*
X206581Y496500D01*
X211500D01*
Y501419D01*
D02*
G37*
G36*
X230250Y613895D02*
X227365Y613516D01*
X224677Y612402D01*
X222369Y610631D01*
X220598Y608323D01*
X219484Y605635D01*
X219105Y602750D01*
X219484Y599865D01*
X220598Y597177D01*
X222369Y594869D01*
X224677Y593098D01*
X227365Y591984D01*
X230250Y591605D01*
X233135Y591984D01*
X235823Y593098D01*
X238131Y594869D01*
X239902Y597177D01*
X241016Y599865D01*
X241395Y602750D01*
X241016Y605635D01*
X239902Y608323D01*
X238131Y610631D01*
X235823Y612402D01*
X233135Y613516D01*
X230250Y613895D01*
D02*
G37*
G36*
X213500Y501419D02*
Y496500D01*
X218419D01*
X218152Y497841D01*
X216826Y499826D01*
X214841Y501152D01*
X213500Y501419D01*
D02*
G37*
G36*
X160250Y456348D02*
X158299Y455960D01*
X156645Y454855D01*
X155540Y453201D01*
X155152Y451250D01*
X155540Y449299D01*
X156645Y447645D01*
X158299Y446540D01*
X160250Y446152D01*
X162201Y446540D01*
X163855Y447645D01*
X164960Y449299D01*
X165348Y451250D01*
X164960Y453201D01*
X163855Y454855D01*
X162201Y455960D01*
X160250Y456348D01*
D02*
G37*
G36*
X139500Y455598D02*
X137549Y455210D01*
X135895Y454105D01*
X134790Y452451D01*
X134402Y450500D01*
X134790Y448549D01*
X135895Y446895D01*
X137549Y445790D01*
X139500Y445402D01*
X141451Y445790D01*
X143105Y446895D01*
X144210Y448549D01*
X144598Y450500D01*
X144210Y452451D01*
X143105Y454105D01*
X141451Y455210D01*
X139500Y455598D01*
D02*
G37*
G36*
X211750Y472750D02*
X206831D01*
X207098Y471409D01*
X208424Y469424D01*
X210409Y468098D01*
X211750Y467831D01*
Y472750D01*
D02*
G37*
G36*
X218419Y483750D02*
X206581D01*
X206848Y482409D01*
X208174Y480424D01*
X209106Y479801D01*
Y478531D01*
X208424Y478076D01*
X207098Y476091D01*
X206831Y474750D01*
X218669D01*
X218402Y476091D01*
X217076Y478076D01*
X216144Y478699D01*
Y479968D01*
X216826Y480424D01*
X218152Y482409D01*
X218419Y483750D01*
D02*
G37*
G36*
X218669Y472750D02*
X213750D01*
Y467831D01*
X215091Y468098D01*
X217076Y469424D01*
X218402Y471409D01*
X218669Y472750D01*
D02*
G37*
G36*
X127500Y195819D02*
X126134Y195547D01*
X124977Y194773D01*
X124203Y193616D01*
X123931Y192250D01*
X124203Y190884D01*
X124977Y189727D01*
X126134Y188953D01*
X127500Y188681D01*
X128866Y188953D01*
X130023Y189727D01*
X130797Y190884D01*
X131069Y192250D01*
X130797Y193616D01*
X130023Y194773D01*
X128866Y195547D01*
X127500Y195819D01*
D02*
G37*
G36*
X202500Y202413D02*
X200581Y202161D01*
X198793Y201420D01*
X197258Y200242D01*
X196080Y198707D01*
X195339Y196919D01*
X195087Y195000D01*
X195339Y193081D01*
X196080Y191293D01*
X197258Y189758D01*
X198793Y188580D01*
X200581Y187839D01*
X202500Y187587D01*
X204419Y187839D01*
X206207Y188580D01*
X207742Y189758D01*
X208920Y191293D01*
X209661Y193081D01*
X209913Y195000D01*
X209661Y196919D01*
X208920Y198707D01*
X207742Y200242D01*
X206207Y201420D01*
X204419Y202161D01*
X202500Y202413D01*
D02*
G37*
G36*
X138500Y195819D02*
X137134Y195547D01*
X135977Y194773D01*
X135203Y193616D01*
X134931Y192250D01*
X135203Y190884D01*
X135977Y189727D01*
X137134Y188953D01*
X138500Y188681D01*
X139866Y188953D01*
X141023Y189727D01*
X141797Y190884D01*
X142069Y192250D01*
X141797Y193616D01*
X141023Y194773D01*
X139866Y195547D01*
X138500Y195819D01*
D02*
G37*
G36*
X36750Y213163D02*
X34831Y212911D01*
X33043Y212170D01*
X31508Y210992D01*
X30330Y209457D01*
X29589Y207669D01*
X29337Y205750D01*
X29589Y203831D01*
X30330Y202043D01*
X31508Y200508D01*
X33043Y199330D01*
X34831Y198589D01*
X36750Y198337D01*
X38669Y198589D01*
X40457Y199330D01*
X41992Y200508D01*
X43170Y202043D01*
X43911Y203831D01*
X44163Y205750D01*
X43911Y207669D01*
X43170Y209457D01*
X41992Y210992D01*
X40457Y212170D01*
X38669Y212911D01*
X36750Y213163D01*
D02*
G37*
G36*
X149500Y195819D02*
X148134Y195547D01*
X146977Y194773D01*
X146203Y193616D01*
X145931Y192250D01*
X146203Y190884D01*
X146977Y189727D01*
X148134Y188953D01*
X149500Y188681D01*
X150866Y188953D01*
X152023Y189727D01*
X152797Y190884D01*
X153069Y192250D01*
X152797Y193616D01*
X152023Y194773D01*
X150866Y195547D01*
X149500Y195819D01*
D02*
G37*
G36*
X138500Y184818D02*
X137134Y184547D01*
X135977Y183773D01*
X135203Y182616D01*
X134931Y181250D01*
X135203Y179884D01*
X135977Y178727D01*
X137134Y177953D01*
X138500Y177681D01*
X139866Y177953D01*
X141023Y178727D01*
X141797Y179884D01*
X142069Y181250D01*
X141797Y182616D01*
X141023Y183773D01*
X139866Y184547D01*
X138500Y184818D01*
D02*
G37*
G36*
X96000Y191663D02*
X94081Y191411D01*
X92293Y190670D01*
X90758Y189492D01*
X89580Y187957D01*
X88839Y186169D01*
X88587Y184250D01*
X88839Y182331D01*
X89580Y180543D01*
X90758Y179008D01*
X92293Y177830D01*
X94081Y177089D01*
X96000Y176837D01*
X97919Y177089D01*
X99707Y177830D01*
X101242Y179008D01*
X102420Y180543D01*
X103161Y182331D01*
X103413Y184250D01*
X103161Y186169D01*
X102420Y187957D01*
X101242Y189492D01*
X99707Y190670D01*
X97919Y191411D01*
X96000Y191663D01*
D02*
G37*
G36*
X127500Y184819D02*
X126134Y184547D01*
X124977Y183773D01*
X124203Y182616D01*
X123931Y181250D01*
X124203Y179884D01*
X124977Y178727D01*
X126134Y177953D01*
X127500Y177681D01*
X128866Y177953D01*
X130023Y178727D01*
X130797Y179884D01*
X131069Y181250D01*
X130797Y182616D01*
X130023Y183773D01*
X128866Y184547D01*
X127500Y184819D01*
D02*
G37*
G36*
X15000Y198273D02*
X12781Y197981D01*
X10713Y197125D01*
X8938Y195762D01*
X7575Y193987D01*
X6719Y191919D01*
X6427Y189700D01*
X6719Y187481D01*
X7575Y185413D01*
X8938Y183638D01*
X10713Y182275D01*
X12781Y181419D01*
X15000Y181127D01*
X17219Y181419D01*
X19287Y182275D01*
X21062Y183638D01*
X22425Y185413D01*
X23281Y187481D01*
X23573Y189700D01*
X23281Y191919D01*
X22425Y193987D01*
X21062Y195762D01*
X19287Y197125D01*
X17219Y197981D01*
X15000Y198273D01*
D02*
G37*
G36*
X149500Y184819D02*
X148134Y184547D01*
X146977Y183773D01*
X146203Y182616D01*
X145931Y181250D01*
X146203Y179884D01*
X146977Y178727D01*
X148134Y177953D01*
X149500Y177681D01*
X150866Y177953D01*
X152023Y178727D01*
X152797Y179884D01*
X153069Y181250D01*
X152797Y182616D01*
X152023Y183773D01*
X150866Y184547D01*
X149500Y184819D01*
D02*
G37*
G36*
X139000Y324348D02*
X137049Y323960D01*
X135395Y322855D01*
X134290Y321201D01*
X133902Y319250D01*
X134290Y317299D01*
X135395Y315645D01*
X137049Y314540D01*
X139000Y314152D01*
X140951Y314540D01*
X142605Y315645D01*
X143710Y317299D01*
X144098Y319250D01*
X143710Y321201D01*
X142605Y322855D01*
X140951Y323960D01*
X139000Y324348D01*
D02*
G37*
G36*
X15000Y325273D02*
X12781Y324981D01*
X10713Y324125D01*
X8938Y322762D01*
X7575Y320987D01*
X6719Y318919D01*
X6427Y316700D01*
X6719Y314481D01*
X7575Y312413D01*
X8938Y310638D01*
X10713Y309275D01*
X12781Y308419D01*
X15000Y308127D01*
X17219Y308419D01*
X19287Y309275D01*
X21062Y310638D01*
X22425Y312413D01*
X23281Y314481D01*
X23573Y316700D01*
X23281Y318919D01*
X22425Y320987D01*
X21062Y322762D01*
X19287Y324125D01*
X17219Y324981D01*
X15000Y325273D01*
D02*
G37*
G36*
X96750Y324598D02*
X94799Y324210D01*
X93145Y323105D01*
X92040Y321451D01*
X91652Y319500D01*
X92040Y317549D01*
X93145Y315895D01*
X94799Y314790D01*
X96750Y314402D01*
X98701Y314790D01*
X100355Y315895D01*
X101460Y317549D01*
X101848Y319500D01*
X101460Y321451D01*
X100355Y323105D01*
X98701Y324210D01*
X96750Y324598D01*
D02*
G37*
G36*
X160500Y324848D02*
X158549Y324460D01*
X156895Y323355D01*
X155790Y321701D01*
X155402Y319750D01*
X155790Y317799D01*
X156895Y316145D01*
X158549Y315040D01*
X160500Y314652D01*
X162451Y315040D01*
X164105Y316145D01*
X165210Y317799D01*
X165598Y319750D01*
X165210Y321701D01*
X164105Y323355D01*
X162451Y324460D01*
X160500Y324848D01*
D02*
G37*
G36*
X118250Y324598D02*
X116299Y324210D01*
X114645Y323105D01*
X113540Y321451D01*
X113152Y319500D01*
X113540Y317549D01*
X114645Y315895D01*
X116299Y314790D01*
X118250Y314402D01*
X120201Y314790D01*
X121855Y315895D01*
X122960Y317549D01*
X123348Y319500D01*
X122960Y321451D01*
X121855Y323105D01*
X120201Y324210D01*
X118250Y324598D01*
D02*
G37*
G36*
X15000Y249073D02*
X12781Y248781D01*
X10713Y247925D01*
X8938Y246562D01*
X7575Y244787D01*
X6719Y242719D01*
X6427Y240500D01*
X6719Y238281D01*
X7575Y236213D01*
X8938Y234438D01*
X10713Y233075D01*
X12781Y232219D01*
X15000Y231927D01*
X17219Y232219D01*
X19287Y233075D01*
X21062Y234438D01*
X22425Y236213D01*
X23281Y238281D01*
X23573Y240500D01*
X23281Y242719D01*
X22425Y244787D01*
X21062Y246562D01*
X19287Y247925D01*
X17219Y248781D01*
X15000Y249073D01*
D02*
G37*
G36*
Y223673D02*
X12781Y223381D01*
X10713Y222525D01*
X8938Y221162D01*
X7575Y219387D01*
X6719Y217319D01*
X6427Y215100D01*
X6719Y212881D01*
X7575Y210813D01*
X8938Y209038D01*
X10713Y207675D01*
X12781Y206819D01*
X15000Y206527D01*
X17219Y206819D01*
X19287Y207675D01*
X21062Y209038D01*
X22425Y210813D01*
X23281Y212881D01*
X23573Y215100D01*
X23281Y217319D01*
X22425Y219387D01*
X21062Y221162D01*
X19287Y222525D01*
X17219Y223381D01*
X15000Y223673D01*
D02*
G37*
G36*
Y274473D02*
X12781Y274181D01*
X10713Y273325D01*
X8938Y271962D01*
X7575Y270187D01*
X6719Y268119D01*
X6427Y265900D01*
X6719Y263681D01*
X7575Y261613D01*
X8938Y259838D01*
X10713Y258475D01*
X12781Y257619D01*
X15000Y257327D01*
X17219Y257619D01*
X19287Y258475D01*
X21062Y259838D01*
X22425Y261613D01*
X23281Y263681D01*
X23573Y265900D01*
X23281Y268119D01*
X22425Y270187D01*
X21062Y271962D01*
X19287Y273325D01*
X17219Y274181D01*
X15000Y274473D01*
D02*
G37*
G36*
X37500Y302598D02*
X35549Y302210D01*
X33895Y301105D01*
X32790Y299451D01*
X32402Y297500D01*
X32790Y295549D01*
X33895Y293895D01*
X35549Y292790D01*
X37500Y292402D01*
X39451Y292790D01*
X41105Y293895D01*
X42210Y295549D01*
X42598Y297500D01*
X42210Y299451D01*
X41105Y301105D01*
X39451Y302210D01*
X37500Y302598D01*
D02*
G37*
G36*
X15000Y299873D02*
X12781Y299581D01*
X10713Y298725D01*
X8938Y297362D01*
X7575Y295587D01*
X6719Y293519D01*
X6427Y291300D01*
X6719Y289081D01*
X7575Y287013D01*
X8938Y285238D01*
X10713Y283875D01*
X12781Y283019D01*
X15000Y282727D01*
X17219Y283019D01*
X19287Y283875D01*
X21062Y285238D01*
X22425Y287013D01*
X23281Y289081D01*
X23573Y291300D01*
X23281Y293519D01*
X22425Y295587D01*
X21062Y297362D01*
X19287Y298725D01*
X17219Y299581D01*
X15000Y299873D01*
D02*
G37*
G36*
X13000Y60700D02*
X3422D01*
Y55200D01*
X3732Y53639D01*
X4616Y52316D01*
X5939Y51432D01*
X7500Y51122D01*
X13000D01*
Y60700D01*
D02*
G37*
G36*
X26578D02*
X17000D01*
Y51122D01*
X22500D01*
X24061Y51432D01*
X25384Y52316D01*
X26268Y53639D01*
X26578Y55200D01*
Y60700D01*
D02*
G37*
G36*
X151500Y41806D02*
Y36000D01*
X157306D01*
X157294Y36088D01*
X156488Y38035D01*
X155206Y39706D01*
X153534Y40988D01*
X151588Y41794D01*
X151500Y41806D01*
D02*
G37*
G36*
X147500D02*
X147412Y41794D01*
X145465Y40988D01*
X143794Y39706D01*
X142512Y38035D01*
X141706Y36088D01*
X141694Y36000D01*
X147500D01*
Y41806D01*
D02*
G37*
G36*
X181500Y68750D02*
X173324D01*
X173416Y68048D01*
X174459Y65530D01*
X176118Y63368D01*
X178280Y61709D01*
X180798Y60666D01*
X181500Y60574D01*
Y68750D01*
D02*
G37*
%LPD*%
D33*
X15000Y113500D02*
D03*
Y138900D02*
D03*
D34*
Y62700D02*
D03*
D35*
X152500Y24250D02*
D03*
X149500Y34000D02*
D03*
X212750Y473750D02*
D03*
X212500Y484750D02*
D03*
Y495500D02*
D03*
X152000Y87500D02*
D03*
X152750Y99500D02*
D03*
X153000Y111500D02*
D03*
Y124750D02*
D03*
D36*
X216500Y53250D02*
D03*
X183500Y70750D02*
D03*
M02*
